<?xml version="1.0" encoding="UTF-8"?>
<svg width="152px" height="152px" viewBox="0 0 152 152" version="1.1" xmlns="http://www.w3.org/2000/svg" xmlns:xlink="http://www.w3.org/1999/xlink">
    <!-- Generator: Sketch 46.2 (44496) - http://www.bohemiancoding.com/sketch -->
    <title>acornsquash</title>
    <desc>Created with Sketch.</desc>
    <defs></defs>
    <g id="Page-1" stroke="none" stroke-width="1" fill="none" fill-rule="evenodd">
        <g id="acornsquash" stroke="#979797" stroke-width="2">
            <g id="Group-2" transform="translate(5.000000, 5.000000)">
                <g id="Group" transform="translate(112.000000, 75.000000) scale(-1, 1) translate(-112.000000, -75.000000) translate(82.000000, 11.000000)">
                    <path d="M53.3434604,8.98024006 C51.7291737,6.47286553 36.4068194,-8.89264962 22.2806918,9.96392644 C8.1545641,28.8205025 35.12259,143.182028 59.9268847,126.230815" id="Path-696"></path>
                    <path d="M23.714922,9.90720002 C-20.6061735,-23.5612875 6.31209346,123.106192 47.794238,125.173721" id="Path-696"></path>
                </g>
                <g id="Group" transform="translate(0.000000, 11.000000)">
                    <path d="M53.3434604,8.98024006 C51.7291737,6.47286553 36.4068194,-8.89264962 22.2806918,9.96392644 C8.1545641,28.8205025 35.12259,143.182028 59.9268847,126.230815" id="Path-696"></path>
                    <path d="M23.714922,9.90720002 C-20.6061735,-23.5612875 6.31209346,123.106192 47.794238,125.173721" id="Path-696"></path>
                </g>
                <path d="M69.8289293,143 C88.3624101,143 100.932293,105.980535 102.781257,75.2631579 C104.630221,44.5457803 94.8526477,13 69.8289293,13 C44.805211,13 36.382284,45.0874461 38.2496156,75.2631579 C40.1169472,105.43887 51.2954486,143 69.8289293,143 Z" id="Oval"></path>
                <path d="M62.3171933,14 C61.873333,11.0497107 66.5073812,7.32947672 66.5073812,5.84857469 C66.5073812,4.36767267 64.4136749,3.6956453 62.3171933,2.85389254 C59.6161216,1.76939239 74.9517096,0.450021224 78.561408,0 C78.561408,0 82.9037968,4.11739679 76.4997908,14" id="Path-698"></path>
            </g>
        </g>
    </g>
</svg>