<?xml version="1.0" encoding="UTF-8"?>
<svg width="152px" height="152px" viewBox="0 0 152 152" version="1.1" xmlns="http://www.w3.org/2000/svg" xmlns:xlink="http://www.w3.org/1999/xlink">
    <!-- Generator: Sketch 44.1 (41455) - http://www.bohemiancoding.com/sketch -->
    <title>Cranberries</title>
    <desc>Created with Sketch.</desc>
    <defs></defs>
    <g id="Page-1" stroke="none" stroke-width="1" fill="none" fill-rule="evenodd">
        <g id="Cranberries" stroke="#FF0000" stroke-width="2">
            <g id="Group" transform="translate(6.000000, 10.000000)">
                <path d="M32.1764706,60.6486486 C49.1905537,60.6486486 62.9831933,44.5409603 62.9831933,30.3243243 C62.9831933,16.1076884 49.1905537,0 32.1764706,0 C15.1623875,0 0.110901297,13.5766625 0.110901297,30.3243243 C0.110901297,47.0719862 15.1623875,60.6486486 32.1764706,60.6486486 Z" id="Oval-8"></path>
                <path d="M106.874057,84.6414203 C123.88814,84.6414203 140,70.85577 140,54.1081081 C140,37.3604462 124.032704,23.7837838 109.193277,23.7837838 C94.3538505,23.7837838 76.5811477,37.4649402 76.5811477,54.2126021 C76.5811477,70.9602639 89.8599738,84.6414203 106.874057,84.6414203 Z" id="Oval-8"></path>
                <path d="M41.8214189,131.318298 C58.835502,131.318298 75.2773109,122.474997 75.2773109,101.081081 C75.2773109,79.6871654 61.4846714,71.3513514 44.4705882,71.3513514 C27.4565051,71.3513514 11.8739451,84.9155483 11.8739451,101.334825 C11.8739451,117.754101 24.8073358,131.318298 41.8214189,131.318298 Z" id="Oval-8"></path>
                <path d="M31.3196603,36.45436 C33.3612279,36.45436 33.5483829,33.8729294 35.2739053,32.7701572 C36.9994276,31.6673849 40.4705882,31.7789687 40.4705882,29.7297297 C40.4705882,27.8978335 37.8746264,27.4851239 36.6497792,26.221685 C35.424932,24.9582462 35.0450755,22.5945946 32.7689076,22.5945946 C30.455016,22.5945946 30.5362184,25.7240204 29.1244366,27.2205695 C27.7126548,28.7171187 25.0672269,27.9327821 25.0672269,29.7297297 C25.0672269,31.6669508 28.1278924,31.5853288 29.1244366,32.7701572 C30.1209808,33.9549856 29.1571802,36.45436 31.3196603,36.45436 Z" id="Oval-9"></path>
                <path d="M100.094258,66.9085004 C101.750617,66.9085004 102.551742,63.6299824 104.076166,62.9265922 C105.60059,62.223202 108.392021,62.6249192 108.615257,60.9511143 C108.840985,59.2586273 107.858155,58.9138315 105.445283,57.7811403 C103.032412,56.6484492 102.863788,53.8793624 101.543505,53.8793624 C99.4506033,53.8793624 99.6743397,55.9567297 98.2862208,57.1366469 C96.8981018,58.3165641 93.8418246,58.7051644 93.8418246,60.5868829 C93.8418246,62.6278338 96.5179769,61.971793 97.774235,63.0968223 C99.0304931,64.2218515 98.1841892,66.9085004 100.094258,66.9085004 Z" id="Oval-9" transform="translate(101.244262, 60.393931) rotate(45.000000) translate(-101.244262, -60.393931) "></path>
                <path d="M43.836739,99.481387 C45.5926057,99.481387 46.2474574,96.3675875 47.7182387,95.2313303 C49.1890199,94.0950731 51.5798319,94.7749161 51.5798319,92.7567568 C51.5798319,90.8766714 49.5961705,90.8062845 48.5107421,89.5317724 C47.4253137,88.2572603 46.9450003,85.6216216 45.0630252,85.6216216 C42.9073968,85.6216216 42.872691,87.7659509 41.6864072,89.5317724 C40.5001235,91.2975939 38.5462185,91.1762894 38.5462185,92.7567568 C38.5462185,94.5606758 40.9567654,94.0682845 41.6864072,95.2313303 C42.416049,96.3943761 41.8851981,99.481387 43.836739,99.481387 Z" id="Oval-9" transform="translate(45.063025, 92.551504) rotate(180.000000) translate(-45.063025, -92.551504) "></path>
            </g>
        </g>
    </g>
</svg>