<?xml version="1.0" encoding="UTF-8"?>
<svg width="152px" height="152px" viewBox="0 0 152 152" version="1.1" xmlns="http://www.w3.org/2000/svg" xmlns:xlink="http://www.w3.org/1999/xlink">
    <!-- Generator: Sketch 44.1 (41455) - http://www.bohemiancoding.com/sketch -->
    <title>mushroom</title>
    <desc>Created with Sketch.</desc>
    <defs></defs>
    <g id="Page-1" stroke="none" stroke-width="1" fill="none" fill-rule="evenodd">
        <g id="mushroom" stroke="#095B6B" stroke-width="2.2">
            <path d="M108.622281,80.3552402 C92.516562,80.5745687 80.1718506,85.1844516 67.2651176,76.2868945 C60.6088695,71.6982548 62.9604675,56.1214253 66.1395955,50.5183627 C75.3635911,34.261507 86.2622684,20.247841 106.923455,22.1784999 C124.322172,23.8043013 156.535534,45.7513879 147.49446,67.1652459 C142.000968,80.1766277 123.542535,79.3571467 113.046055,80.3703007 L108.622281,80.3552402 Z" id="Path-400"></path>
            <path d="M62.7851591,68.966637 C60.2898,72.5988972 53.8697457,80.2394666 50.8974798,83.4930441 C47.0689224,87.6839573 32.8977251,99.165194 28.1025863,102.202997 C-6.11588745,123.880991 1.10248504,68.5769733 12.2157568,53.0485062 C18.3495921,44.4777575 32.9089938,44.1785122 41.4753147,43.4037559 C52.7912363,42.3803199 58.4997806,42.7640356 65.6514486,51.0765835" id="Path-401"></path>
            <path d="M91.2964844,81.2841594 C90.9322229,89.8110574 84.6541757,115.959835 86.2632621,122.434492 C89.7090886,136.299841 117.786752,130.62253 123.79104,121.697531 C124.866039,120.099611 124.657546,117.843783 124.333218,115.94542 C123.495177,111.040179 120.857136,106.508041 120.350215,101.557613 C119.618142,94.4084203 120.551692,87.1858711 120.65243,80" id="Path-402"></path>
            <path d="M74.9167584,55.3585828 C69.7547191,68.9606014 86.7320937,84.0371632 82.4982189,54.1155887 C82.3961703,53.3943924 81.5092694,48.184812 81.3140575,47.4707243 C81.1188457,46.7566366 78.7587625,48.1031833 78.1579224,49.1141705 C76.5180002,51.9003648 76.0638673,52.3359409 74.9167584,55.3585828 Z" id="Path-403"></path>
            <path d="M30.251169,49.7446502 C42.5666467,46.6976484 37.8773257,53.6581422 30.8398042,56.5520566 C23.8022826,59.445971 16.7963436,57.6257147 22.0211025,53.9244436 C22.9053849,53.2296303 27.2643481,50.4836267 30.251169,49.7446502 Z" id="Path-404"></path>
            <path d="M36.487448,95.9957443 C48.4921452,103.187427 50.3620188,118.533319 58.7072144,129.242953 C62.7696573,134.456405 84.5952603,117.906626 86.4219334,111.132259 C89.2685697,100.575274 72.3491235,93.6359795 68.8007679,89.8536964 C64.4233478,85.1876921 61.5877879,79.2845655 57.9812979,74" id="Path-405"></path>
        </g>
    </g>
</svg>