<?xml version="1.0" encoding="UTF-8"?>
<svg width="152px" height="152px" viewBox="0 0 152 152" version="1.1" xmlns="http://www.w3.org/2000/svg" xmlns:xlink="http://www.w3.org/1999/xlink">
    <!-- Generator: Sketch 44.1 (41455) - http://www.bohemiancoding.com/sketch -->
    <title>powderbag</title>
    <desc>Created with Sketch.</desc>
    <defs></defs>
    <g id="Page-1" stroke="none" stroke-width="1" fill="none" fill-rule="evenodd">
        <g id="powderbag" stroke="#979797">
            <path d="M30.1674352,10 L32.5595334,22.4596058 C32.5595334,22.4596058 28.2692702,52.3147955 27.828065,68.5346939 C27.3868598,84.7545924 32.7895127,119.883248 32.7895127,119.883248 C32.7895127,119.883248 29.9673559,127.260408 29.297648,130.777268 C28.62794,134.294127 29.297648,138.220194 29.297648,138.220194 C29.297648,138.220194 51.0944514,142.057566 75.4517829,142.057566 C99.8091144,142.057566 122.903566,137.181583 122.903566,137.181583 C122.903566,137.181583 124.287839,133.053387 122.903566,130.777268 C121.519293,128.501149 118.448185,120.09756 118.346986,117.500374 C121.256897,105.22536 123.127267,92.6753786 122.903566,69.7811127 C122.811012,60.3088408 116.270098,21.8627838 116.270098,21.8627838 L117.894242,10.5149217 L30.1674352,10 Z" id="Path-676" stroke-width="2"></path>
            <path d="M32,22 L116.561888,22.2571495" id="Path-677" stroke-width="2"></path>
            <ellipse id="Oval-33" stroke-width="1.5" cx="74" cy="16.5" rx="4" ry="2.5"></ellipse>
            <ellipse id="Oval-34" stroke-width="1.5" cx="75" cy="76" rx="29" ry="39"></ellipse>
            <path d="M43.7229659,139.460896 C43.7229659,132.87178 44.9461619,126.435686 47.2936244,118.672856" id="Path-678" stroke-width="2" stroke-linecap="round"></path>
            <path d="M106.853805,138.932178 C106.853805,127.218267 103.012605,118.937877 102.776117,118.144138" id="Path-679" stroke-width="2" stroke-linecap="round"></path>
            <path d="M54.4671074,88.1521891 C54.4671074,88.1521891 68.902054,90.6364509 75.4599982,90.6364509 C82.0179424,90.6364509 96.3938713,88.1521891 96.3938713,88.1521891 C96.3938713,88.1521891 97.4014703,86.6746957 96.9490472,86.002382 C96.4966242,85.3300684 92.9526648,83.0384571 92.9526648,83.0384571 C92.9526648,83.0384571 92.6954009,80.1891394 92.1606832,79.3945336 C91.6259656,78.5999277 89.2379674,77.5183098 89.2379674,77.5183098 C89.2379674,77.5183098 88.9354989,75.3735766 88.5012275,74.7282368 C88.0669561,74.082897 85.9022928,72.5614014 85.9022928,72.5614014 C85.9022928,72.5614014 86.3276892,70.3761189 85.9022928,69.7439677 C85.4768964,69.1118164 81.9633114,66.7079616 81.9633114,66.7079616 C81.9633114,66.7079616 81.6552739,64.3081608 81.2083515,63.6440213 C80.7614291,62.9798817 78.3689939,61.3667023 78.3689939,61.3667023 C78.3689939,61.3667023 77.9064471,59.1640111 77.5510299,58.6358509 C77.1956127,58.1076907 75.4304893,57 75.4304893,57 C75.4304893,57 73.4826482,57.7828498 72.9086343,58.6358509 C72.3346205,59.4888519 71.624064,62.6564577 71.624064,62.6564577 C71.624064,62.6564577 69.7419728,62.8742943 69.223997,63.6440213 C68.7060212,64.4137482 68.1292175,67.8499001 68.1292175,67.8499001 C68.1292175,67.8499001 65.6750498,68.5332369 64.8603073,69.7439677 C64.0455649,70.9546984 63.872561,74.1754143 63.872561,74.1754143 C63.872561,74.1754143 61.4129287,74.8935802 60.6421594,76.0389655 C59.8713901,77.1843508 59.6945207,80.3841025 59.6945207,80.3841025 C59.6945207,80.3841025 56.7012636,81.4913632 56.0535417,82.4538966 C55.4058199,83.4164299 54.4671074,88.1521891 54.4671074,88.1521891 Z" id="Path-673" stroke-width="1.5" stroke-linejoin="round"></path>
        </g>
    </g>
</svg>