<?xml version="1.0" encoding="UTF-8"?>
<svg width="152px" height="152px" viewBox="0 0 152 152" version="1.1" xmlns="http://www.w3.org/2000/svg" xmlns:xlink="http://www.w3.org/1999/xlink">
    <!-- Generator: Sketch 44.1 (41455) - http://www.bohemiancoding.com/sketch -->
    <title>apricot</title>
    <desc>Created with Sketch.</desc>
    <defs></defs>
    <g id="Page-1" stroke="none" stroke-width="1" fill="none" fill-rule="evenodd" stroke-linecap="round" stroke-linejoin="round">
        <g id="apricot" stroke="#FF9677" stroke-width="2">
            <g id="Group" transform="translate(21.000000, 7.000000)">
                <path d="M103.272487,121.730431 C70.0496144,158.293443 16.3073397,127.050792 23.3387362,79.9856634 C25.566425,65.0744775 35.2737973,30.4818853 70.0496144,35.4528582 C70.0496144,35.4528582 103.972389,35.548898 109.492882,79.9856634" id="Path-358" transform="translate(66.102375, 86.353115) scale(-1, 1) translate(-66.102375, -86.353115) "></path>
                <path d="M0.266777851,34.3711167 C65.9475262,10.2158588 90.4406286,136.716887 21.9844791,132.826674" id="Path-359" transform="translate(31.577353, 82.108563) scale(-1, 1) translate(-31.577353, -82.108563) "></path>
                <path d="M62.3162539,10.6670369 C72.2953813,11.9120102 79.5108961,18.9830425 77.5215505,35.5331224" id="Path-361" transform="translate(70.084441, 23.100080) scale(-1, 1) translate(-70.084441, -23.100080) "></path>
                <path d="M71.0634405,11.3789915 C54.8479255,-8.61687372 14.167027,-0.190812545 4.34118652,21.4363235 C4.34118652,21.4363235 14.575932,13.5510982 32.1226349,8.55089262 C49.6693378,3.55068706 66.6055493,8.55089262 66.6055493,8.55089262" id="Path-362"></path>
                <path d="M68.3020275,8.50479252 C49.6660557,21.02654 27.6063814,27.4284821 5.40174024,21.9478695" id="Path-363"></path>
            </g>
        </g>
    </g>
</svg>