<?xml version="1.0" encoding="UTF-8"?>
<svg width="152px" height="152px" viewBox="0 0 152 152" version="1.1" xmlns="http://www.w3.org/2000/svg" xmlns:xlink="http://www.w3.org/1999/xlink">
    <!-- Generator: Sketch 44.1 (41455) - http://www.bohemiancoding.com/sketch -->
    <title>dill</title>
    <desc>Created with Sketch.</desc>
    <defs></defs>
    <g id="Page-1" stroke="none" stroke-width="1" fill="none" fill-rule="evenodd" stroke-linecap="round">
        <g id="dill" stroke="#FF9677" stroke-width="2.2">
            <g id="Group" transform="translate(24.000000, 4.000000)">
                <path d="M16.6504104,143.971368 C24.5610302,105.064235 41.0680054,85.8133707 60.6708634,48.0764897 C68.4062254,33.1853734 74.512605,17.5181794 81.4334758,2.23902433" id="Path-424" transform="translate(49.041943, 73.105196) scale(-1, 1) translate(-49.041943, -73.105196) "></path>
                <path d="M9.39004247,70.6255293 C23.7519712,59.6196857 31.6517457,58.6776532 49.7953468,60.4393228" id="Path-425" transform="translate(29.592695, 65.182564) scale(-1, 1) translate(-29.592695, -65.182564) "></path>
                <path d="M25.8738467,61.2881368 C30.5910957,53.5578505 32.8351393,52.4017592 32.8351393,52.4017592" id="Path-426" transform="translate(29.354493, 56.844948) scale(-1, 1) translate(-29.354493, -56.844948) "></path>
                <path d="M14.9486078,60.6624569 C20.4527535,69.9163621 27.3849155,68.6410945 27.3849155,68.6410945" id="Path-427" transform="translate(21.166762, 64.681543) scale(-1, 1) translate(-21.166762, -64.681543) "></path>
                <path d="M28.809931,63.950347 C29.1333011,64.9037029 30.7695276,71.5641272 38.17741,75.2550019" id="Path-428" transform="translate(33.493671, 69.602674) scale(-1, 1) translate(-33.493671, -69.602674) "></path>
                <path d="M55.5391387,49.8434702 C71.0690004,60.0490435 68.5845734,60.6131778 69.6104483,80.6533071" id="Path-429" transform="translate(62.574794, 65.248389) scale(-1, 1) translate(-62.574794, -65.248389) "></path>
                <path d="M87.1013723,113.614098 C86.290013,94.8167444 88.4387944,75.5308145 72.5762526,65.7590278" id="Path-431" transform="translate(79.838812, 89.686563) scale(-1, 1) translate(-79.838812, -89.686563) "></path>
                <path d="M65.915562,58.3406565 C65.6837002,38.3101779 61.5759985,34.4815744 43.3595519,24.9685453" id="Path-432" transform="translate(54.637557, 41.654601) scale(-1, 1) translate(-54.637557, -41.654601) "></path>
                <path d="M42.125103,46.6521489 C41.6815745,42.2774147 44.810165,39.2594941 44.3666366,34.8847598" id="Path-433" transform="translate(43.245870, 40.768454) scale(-1, 1) translate(-43.245870, -40.768454) "></path>
                <path d="M59.1170151,28.7033044 C59.6667617,24.368543 57.7837071,21.8873397 57.7837071,21.8873397" id="Path-433" transform="translate(58.500651, 25.295322) scale(-1, 1) translate(-58.500651, -25.295322) "></path>
                <path d="M69.1573242,34.3464379 C59.9020326,31.8259532 55.6485145,33.8439922 51.1757054,35.5888242" id="Path-434" transform="translate(60.166515, 34.374592) scale(-1, 1) translate(-60.166515, -34.374592) "></path>
                <path d="M52.8328153,66.4422409 C52.8328153,64.550988 56.4820167,61.4781825 56.0384883,57.1034483" id="Path-433" transform="translate(54.454345, 61.772845) scale(-1, 1) translate(-54.454345, -61.772845) "></path>
                <path d="M64.1173884,53.4759669 C64.667135,49.1412055 63.0929378,46.8753878 63.0929378,46.8753878" id="Path-433" transform="translate(63.663418, 50.175677) scale(-1, 1) translate(-63.663418, -50.175677) "></path>
                <path d="M81.3623637,71.1523033 C81.9121103,66.8175419 80.3379131,64.5517241 80.3379131,64.5517241" id="Path-433" transform="translate(80.908393, 67.852014) scale(-1, 1) translate(-80.908393, -67.852014) "></path>
                <path d="M70.5837721,60.8059842 C61.3284806,58.2854994 57.7903997,60.8059842 57.7903997,60.8059842" id="Path-434" transform="translate(64.187086, 60.245876) scale(-1, 1) translate(-64.187086, -60.245876) "></path>
                <path d="M46.4932222,43.4931954 C46.1528067,19.5986016 34.9923927,14.2250203 34.9923927,14.2250203" id="Path-435" transform="translate(40.742807, 28.859108) scale(-1, 1) translate(-40.742807, -28.859108) "></path>
                <path d="M44.1459919,29.7241785 C39.4170153,25.7921928 36.8876424,27.8546412 36.8876424,27.8546412" id="Path-436" transform="translate(40.516817, 28.519110) scale(-1, 1) translate(-40.516817, -28.519110) "></path>
                <path d="M34.5032626,24.2922135 C35.0721334,15.6342645 38.4711792,12.5531928 38.4711792,12.5531928" id="Path-437" transform="translate(36.487221, 18.422703) scale(-1, 1) translate(-36.487221, -18.422703) "></path>
                <path d="M28.6926647,16.1879185 C27.7913382,2.50924212 24.8386551,1.63261989 23.116081,0.0694978837" id="Path-438" transform="translate(25.904373, 8.128708) scale(-1, 1) translate(-25.904373, -8.128708) "></path>
                <path d="M0.516496503,29.2644646 C11.8243552,23.5988348 11.3471712,20.3393508 27.8767647,20.8172688" id="Path-439" transform="translate(14.196631, 25.017772) scale(-1, 1) translate(-14.196631, -25.017772) "></path>
                <path d="M5.17967293,21.3848314 C8.38250368,9.58862855 13.867447,10.5699069 13.867447,10.5699069" id="Path-440" transform="translate(9.523560, 15.967386) scale(-1, 1) translate(-9.523560, -15.967386) "></path>
                <path d="M14.5429024,25.9786793 C20.9685328,30.203684 21.0242912,32.0224146 21.0242912,32.0224146" id="Path-441" transform="translate(17.783597, 29.000547) scale(-1, 1) translate(-17.783597, -29.000547) "></path>
                <path d="M4.55984154,50.5556043 C14.1797407,40.1852671 38.7550475,42.6163192 38.7550475,42.6163192" id="Path-442" transform="translate(21.657444, 46.462118) scale(-1, 1) translate(-21.657444, -46.462118) "></path>
                <path d="M23.4514084,44.1138783 C23.4514084,39.6514584 23.0843075,38.0881013 27.5281286,34.8376734" id="Path-443" transform="translate(25.486078, 39.475776) scale(-1, 1) translate(-25.486078, -39.475776) "></path>
                <path d="M11.4016876,42.7238801 C19.5428033,43.7936116 17.3220847,50.6988315 17.3220847,50.6988315" id="Path-444" transform="translate(14.500234, 46.711356) scale(-1, 1) translate(-14.500234, -46.711356) "></path>
                <path d="M21.9386218,131.257465 C42.6205222,118.244921 53.7370509,108.250127 78.1508038,115.872046" id="Path-445" transform="translate(50.044713, 122.242039) scale(-1, 1) translate(-50.044713, -122.242039) "></path>
                <path d="M57.4146448,123.85281 C61.4097283,112.622068 66.9902309,108.890666 66.9902309,108.890666" id="Path-446" transform="translate(62.202438, 116.371738) scale(-1, 1) translate(-62.202438, -116.371738) "></path>
                <path d="M23.3135155,114.955299 C31.6489461,101.459173 34.096456,99.5711016 49.0243792,94.7265384" id="Path-447" transform="translate(36.168947, 104.840919) scale(-1, 1) translate(-36.168947, -104.840919) "></path>
                <path d="M28.5538916,97.927706 C28.5538916,97.927706 26.5127156,94.0010116 32.75606,89.7584811" id="Path-448" transform="translate(30.495449, 93.843094) scale(-1, 1) translate(-30.495449, -93.843094) "></path>
                <path d="M28.8164479,106.610833 C28.8164479,106.610833 37.8708881,108.55498 42.7413807,102.480193" id="Path-449" transform="translate(35.778914, 104.693570) scale(-1, 1) translate(-35.778914, -104.693570) "></path>
                <path d="M23.7448506,113.672867 C23.7448506,119.125633 34.7749563,122.568395 34.7749563,122.568395" id="Path-450" transform="translate(29.259903, 118.120631) scale(-1, 1) translate(-29.259903, -118.120631) "></path>
                <path d="M39.1881925,118.867626 C51.6556036,128.622469 53.098557,128.249186 57.4470512,128.249186" id="Path-451" transform="translate(48.317622, 123.559349) scale(-1, 1) translate(-48.317622, -123.559349) "></path>
                <path d="M87.1178852,100.074334 C78.1146563,98.1626656 74.5570351,95.6468959 73.0616892,91.2194582" id="Path-452" transform="translate(80.089787, 95.646896) scale(-1, 1) translate(-80.089787, -95.646896) "></path>
                <path d="M67.0215215,89.0532677 C70.6704015,85.7897513 73.5866363,80.3637961 72.5742359,75.0366473" id="Path-453" transform="translate(69.899433, 82.044957) scale(-1, 1) translate(-69.899433, -82.044957) "></path>
                <path d="M88.5280768,79.2171901 C84.8032111,79.9340683 80.3721404,81.8623594 76.9906254,80.1904006" id="Path-454" transform="translate(82.759351, 80.035624) scale(-1, 1) translate(-82.759351, -80.035624) "></path>
                <path d="M16.6210578,99.108858 C28.0679885,83.9818909 47.8718554,82.8820545 65.493097,81.5491304" id="Path-430" transform="translate(41.057077, 90.328994) scale(-1, 1) translate(-41.057077, -90.328994) "></path>
                <path d="M42.3256173,89.8160911 C52.2752097,90.046294 54.9661407,95.2466628 54.9661407,95.2466628" id="Path-455" transform="translate(48.645879, 92.531377) scale(-1, 1) translate(-48.645879, -92.531377) "></path>
                <path d="M37.0489579,85.6904758 C39.4080863,82.9012017 40.6818713,79.1310085 45.4689629,77.1624447" id="Path-456" transform="translate(41.258960, 81.426460) scale(-1, 1) translate(-41.258960, -81.426460) "></path>
                <path d="M16.3807719,82.5090882 C24.9781702,84.7021341 25.8165465,87.0910232 27.4856394,89.8558409" id="Path-457" transform="translate(21.933206, 86.182465) scale(-1, 1) translate(-21.933206, -86.182465) "></path>
                <path d="M67.6846317,126.106496 C79.1315624,110.979529 97.6314458,104.831221 115.252687,103.498297" id="Path-430" transform="translate(91.468660, 114.802396) rotate(-40.000000) translate(-91.468660, -114.802396) "></path>
                <path d="M80.7264237,118.786865 C90.1638165,115.494834 99.3568639,123.208716 99.3568639,123.208716" id="Path-455" transform="translate(90.041644, 120.589045) rotate(-40.000000) translate(-90.041644, -120.589045) "></path>
                <path d="M81.5035692,112.891028 C83.8626976,110.101753 85.1364825,106.33156 89.9235742,104.362997" id="Path-456" transform="translate(85.713572, 108.627012) rotate(-40.000000) translate(-85.713572, -108.627012) "></path>
                <path d="M93.384643,95.8485705 C95.7437714,93.0592964 95.4644327,91.7337058 100.251524,89.765142" id="Path-456" transform="translate(96.818084, 92.806856) rotate(-40.000000) translate(-96.818084, -92.806856) "></path>
                <path d="M92.0226256,100.174591 C100.620024,102.367637 101.4584,104.756526 103.127493,107.521343" id="Path-457" transform="translate(97.575059, 103.847967) rotate(-40.000000) translate(-97.575059, -103.847967) "></path>
                <path d="M9.17075348,8.57492264 C14.6849844,5.13265223 18.649179,5.98155091 18.649179,5.98155091" id="Path-458" transform="translate(13.909966, 7.231928) scale(-1, 1) translate(-13.909966, -7.231928) "></path>
            </g>
        </g>
    </g>
</svg>