<?xml version="1.0" encoding="UTF-8"?>
<svg width="152px" height="152px" viewBox="0 0 152 152" version="1.1" xmlns="http://www.w3.org/2000/svg" xmlns:xlink="http://www.w3.org/1999/xlink">
    <!-- Generator: Sketch 44.1 (41455) - http://www.bohemiancoding.com/sketch -->
    <title>farro</title>
    <desc>Created with Sketch.</desc>
    <defs></defs>
    <g id="Page-1" stroke="none" stroke-width="1" fill="none" fill-rule="evenodd">
        <g id="farro" stroke="#FF0000">
            <path d="M25.16142,15.8826447 C25.16142,15.8826447 21.4190999,13.0364813 20.5449034,10.7297368 C19.6707068,8.42299228 20.444659,3.43651586 20.444659,3.43651586 C20.444659,3.43651586 24.8881709,2.84736041 28.3336954,4.05867306 C31.77922,5.26998572 34.7145318,8.71956958 34.7145318,8.71956958 C34.7145318,8.71956958 52.7525281,2 74.8156968,2 C96.8788654,2 116.258923,9.88556979 116.258923,9.88556979 C116.258923,9.88556979 117.419805,6.31465138 121.324674,4.05867306 C125.229543,1.80269475 129.753221,2.84736041 129.753221,2.84736041 C129.753221,2.84736041 131.45795,7.23396412 130.118444,12.438878 C128.778937,17.6437919 124.127226,18.2269559 124.127226,18.2269559 C124.127226,18.2269559 130.10755,56.8981004 129.753221,76.1013672 C129.398892,95.304634 124.127226,134.546574 124.127226,134.546574 C124.127226,134.546574 126.72794,135.440455 128.193278,138.992719 C129.658616,142.544983 128.193278,148.541108 128.193278,148.541108 C128.193278,148.541108 121.10491,149.460254 118.931421,148.541108 C116.757932,147.621963 116.652866,143.660791 116.652866,143.660791 C116.652866,143.660791 109.81029,149.355374 74.4625644,149.355374 C39.1148384,149.355374 36.6103813,145.01321 36.6103813,145.01321 C36.6103813,145.01321 34.9163606,148.471467 31.625028,149.355374 C28.3336954,150.239281 20.5449034,149.355374 20.5449034,149.355374 C20.5449034,149.355374 19.7669792,144.45135 20.444659,140.552398 C21.1223387,136.653446 25.16142,134.546574 25.16142,134.546574 C25.16142,134.546574 18.8483217,102.920916 19.0027891,85.1735294 C19.1572564,67.4261429 25.16142,15.8826447 25.16142,15.8826447 Z" id="Path-35" stroke-width="2.2" stroke-linejoin="round"></path>
            <circle id="Oval-2" stroke-width="2" cx="74.3605135" cy="76.3605135" r="39.3605135"></circle>
            <path d="M86.9720646,89 C86.9720646,89 95.6684658,89.4279719 100.543677,82.3704668 C105.418889,75.3129617 102.850113,68 102.850113,68 C102.850113,68 95.9544957,65.9872401 89.8495433,73.8403926 C83.7445909,81.693545 86.9720646,89 86.9720646,89 Z" id="Path-37" stroke-width="1.5" stroke-linecap="round" stroke-linejoin="round"></path>
            <path d="M81.7225063,73.3178919 C81.7225063,73.3178919 73.4286544,73.0897253 68.5362053,66.0072666 C63.6437563,58.9248079 65.7883166,52.243641 65.7883166,52.243641 C65.7883166,52.243641 72.9335144,50.1805263 79.0600524,58.0614456 C85.1865905,65.9423649 81.7225063,73.3178919 81.7225063,73.3178919 Z" id="Path-37" stroke-width="1.5" stroke-linecap="round" stroke-linejoin="round"></path>
            <path d="M65.2675633,72.0598951 C65.2675633,72.0598951 64.0212948,80.054228 56.6138432,83.4512705 C49.2063916,86.848313 43,83.4512705 43,83.4512705 C43,83.4512705 42.0394637,77.1583438 50.3942181,72.7419902 C58.7489725,68.3256367 65.2675633,72.0598951 65.2675633,72.0598951 Z" id="Path-37" stroke-width="1.5" stroke-linecap="round" stroke-linejoin="round"></path>
            <path d="M63,86.9685693 C63,86.9685693 63.6650779,95.0264782 71.1314382,98.4505361 C78.5977985,101.874594 85.4446489,98.4505361 85.4446489,98.4505361 C85.4446489,98.4505361 86.3034031,91.4200445 77.8822065,86.9685693 C69.4610099,82.5170942 63,86.9685693 63,86.9685693 Z" id="Path-37" stroke-width="1.5" stroke-linecap="round" stroke-linejoin="round"></path>
            <path d="M47.3340046,80.3465365 C53.0372538,77.8927477 54.9200199,75.710148 64.4437521,72.9851701" id="Path-289" stroke-linecap="round"></path>
            <path d="M66.8500285,53.5057435 C68.6105284,56.6599113 69.9565875,58.7321521 73.0490966,63.0942519 C76.1416058,67.4563517 78.2682876,69.7908179 81.3377678,72.6827603" id="Path-290" stroke-linecap="round"></path>
            <path d="M64.257876,87.4131978 C71.1481317,90.4629778 77.1518113,91.4263359 84.928643,96.5625379" id="Path-291" stroke-linecap="round"></path>
            <path d="M87.2241643,89.0451512 C92.271074,78.2175849 91.182193,79.3302881 99.9120662,71.4011326" id="Path-297" stroke-linecap="round"></path>
        </g>
    </g>
</svg>