<?xml version="1.0" encoding="UTF-8"?>
<svg width="152px" height="152px" viewBox="0 0 152 152" version="1.1" xmlns="http://www.w3.org/2000/svg" xmlns:xlink="http://www.w3.org/1999/xlink">
    <!-- Generator: Sketch 44.1 (41455) - http://www.bohemiancoding.com/sketch -->
    <title>sweetpotato</title>
    <desc>Created with Sketch.</desc>
    <defs></defs>
    <g id="Page-1" stroke="none" stroke-width="1" fill="none" fill-rule="evenodd">
        <g id="sweetpotato" stroke="#F95604">
            <g id="Group" transform="translate(2.000000, 44.000000)">
                <path d="M53.0578799,6.77842464 C53.0578799,6.77842464 39.671107,1.06375596 25.5094077,4.21123009 C11.3477085,7.35870421 8.5370865,14.326352 8.5370865,14.326352 C8.5370865,14.326352 -10.453481,42.3658666 8.5370865,57.0162294 C27.527654,71.6665921 67.6607747,61.5817136 72.0341747,59.1515662 C76.4075747,56.7214188 89.6123652,50.4691245 95.6625669,48.0375222 C98.3464859,46.9588434 118.3886,43.6319829 129.255243,40.3625039 C140.121886,37.0930249 147.54185,24.9502169 147.54185,24.9502169 C147.54185,24.9502169 135.843444,5.24754052 125.223315,1.24996715 C114.603187,-2.74760621 98.8830604,4.21123009 98.8830604,4.21123009 C98.8830604,4.21123009 85.8274197,9.48371662 76.2141846,10.2845541 C66.6009495,11.0853916 53.0578799,6.77842464 53.0578799,6.77842464 Z" id="Path-584" stroke-width="2.2" stroke-linejoin="round"></path>
                <path d="M28.9135884,29.08277 C34.894638,38.1381639 30.5012964,47.1935578 30.5012964,47.1935578" id="Path-585" stroke-width="1.8" stroke-linecap="round"></path>
                <path d="M57.811679,8.33591972 C57.5329556,12.7230304 52.5805081,14.9165857 56.9755087,21.4972517" id="Path-586" stroke-width="1.8" stroke-linecap="round"></path>
                <path d="M68.3970187,60.5587811 C74.9586158,54.1192325 73.1511661,51.955965 74.4172855,39.5785087" id="Path-587" stroke-width="1.8" stroke-linecap="round"></path>
                <path d="M124.619542,21.4696408 C126.821527,35.6062106 130.901613,35.2443215 134.135839,37.111287" id="Path-588" stroke-width="1.8" stroke-linecap="round"></path>
            </g>
        </g>
    </g>
</svg>