<?xml version="1.0" encoding="UTF-8"?>
<svg width="152px" height="152px" viewBox="0 0 152 152" version="1.1" xmlns="http://www.w3.org/2000/svg" xmlns:xlink="http://www.w3.org/1999/xlink">
    <!-- Generator: Sketch 44.1 (41455) - http://www.bohemiancoding.com/sketch -->
    <title>fig</title>
    <desc>Created with Sketch.</desc>
    <defs></defs>
    <g id="Page-1" stroke="none" stroke-width="1" fill="none" fill-rule="evenodd">
        <g id="fig" stroke="#A8104C" stroke-width="2">
            <path d="M62.1720631,140.177424 C59.6327349,140.606651 18.4962792,152.121284 15.0441004,94.2705656 C13.4555834,56.1283438 55.3092933,34.7571 55.3092933,34.7571 C55.3092933,34.7571 65.9410802,27.1145976 68.5617805,21.5313356 C71.1824808,15.9480736 71.3954585,9.90449234 71.3954585,9.90449234 C71.3954585,9.90449234 75.2167998,8.9230827 76.5752643,9.00483834 C77.9337288,9.08659398 82.6219322,10.3995812 82.6219322,10.3995812 C82.6219322,10.3995812 83.7666619,21.3103854 85.2974501,24.7934282 C86.8282382,28.276471 92.3874624,32.61935 92.3874624,32.61935 C92.3874624,32.61935 110.424243,43.5339335 120.732187,53.928606 C132.043441,65.3350295 145.158265,95.4866146 130.064171,122.772451 C114.970076,150.058288 84.2974501,141.187774 84.2974501,141.187774 C84.2974501,141.187774 77.8596965,139.010966 74.1666117,138.83405 C70.4735269,138.657133 67.6258468,139.255561 62.1720631,140.177424 Z" id="Path-647" stroke-linejoin="round"></path>
            <path d="M36.1810434,74 C24.6704814,95.2574248 30.3733067,115.221272 43.9375588,127.143562" id="Path-648" stroke-linecap="round"></path>
        </g>
    </g>
</svg>