<?xml version="1.0" encoding="UTF-8"?>
<svg width="152px" height="152px" viewBox="0 0 152 152" version="1.1" xmlns="http://www.w3.org/2000/svg" xmlns:xlink="http://www.w3.org/1999/xlink">
    <!-- Generator: Sketch 44.1 (41455) - http://www.bohemiancoding.com/sketch -->
    <title>garlic</title>
    <desc>Created with Sketch.</desc>
    <defs></defs>
    <g id="Page-1" stroke="none" stroke-width="1" fill="none" fill-rule="evenodd" stroke-linecap="round" stroke-linejoin="round">
        <g id="garlic" stroke="#979797" stroke-width="2">
            <g id="Group" transform="translate(10.000000, 6.000000)">
                <path d="M78.0394282,64.9102076 C84.4643742,80.3801394 88.2737087,93.9245566 89.4674317,105.543459 C91.2580163,122.971814 84.5622503,133.478298 80.3539168,135.398122" id="Path-803"></path>
                <path d="M118.392587,117.245541 C118.782907,110.266109 117.815831,103.476676 115.491361,96.8772431 C110.446158,82.5533403 96.3342721,71.6799355 88.1689139,63.1037147 C82.7253417,57.3862343 78.5958508,49.2982215 75.780441,38.8396766" id="Path-804"></path>
                <path d="M61.6080436,38.1653905 C58.2782563,45.0288366 54.2141665,50.482543 49.4157742,54.5265098 C42.2181857,60.59246 23.7782539,67.0133233 20.0540056,92.5877309 C16.8241984,114.766812 31.4666896,130.315618 37.50168,133.387796 C38.8428519,134.225508 40.1884219,134.762895 41.53839,134.999957 C42.8883581,135.237019 45.5141528,135.397026 49.4157742,135.479978 C45.5497523,135.403277 42.9239575,135.24327 41.53839,134.999957 C40.1528225,134.756643 38.8072525,134.219256 37.50168,133.387796 C15.3495137,133.387796 -2.85213138,113.009045 0.37675474,88.9090977 C4.99726151,54.4222913 41.7535834,48.5361112 49.4157742,43.1712296 C57.1263311,37.7724833 65.8643489,8.25222458 65.8643489,4.48885929 C65.8643489,0.725494009 71.9363879,0.33550806 73.5365677,0.725494009 C74.7518087,1.02166504 84.9427364,1.91996215 82.8203397,7.84802738 C80.697943,13.7760926 81.0504628,39.4281083 86.9717685,44.9419764 C95.3126036,52.7088893 131.852311,65.4766236 131.852311,86.8880303 C131.852311,95.7406194 131.566551,112.653286 118.399104,117.203514 C118.102338,120.259402 115.973732,123.976681 112.013285,128.355353 C105.452287,135.609194 95.0435477,137.894319 80.7870676,135.210729 C72.8979892,138.226844 66.9642955,139.751974 62.9859865,139.786119 C59.0076775,139.820263 54.4842734,138.384883 49.4157742,135.479978 C44.6950732,123.394832 43.2279221,111.749144 45.014321,100.542916 C46.5286726,91.0432634 58.3643617,64.5888084 61.6080436,58.4291881 C63.7704982,54.3227746 65.1892666,50.3650006 65.8643489,46.555866" id="Path-802"></path>
            </g>
        </g>
    </g>
</svg>