<?xml version="1.0" encoding="UTF-8"?>
<svg width="152px" height="152px" viewBox="0 0 152 152" version="1.1" xmlns="http://www.w3.org/2000/svg" xmlns:xlink="http://www.w3.org/1999/xlink">
    <!-- Generator: Sketch 44.1 (41455) - http://www.bohemiancoding.com/sketch -->
    <title>artichoke</title>
    <desc>Created with Sketch.</desc>
    <defs></defs>
    <g id="Page-1" stroke="none" stroke-width="1" fill="none" fill-rule="evenodd">
        <g id="artichoke" stroke="#979797" stroke-width="2">
            <g id="Group" transform="translate(14.000000, 2.000000)">
                <path d="M38.0992855,109.324787 C32.1992703,99.1725914 55.6770907,66.0714286 62.1760955,66.0714286 C68.6751004,66.0714286 92.0756956,99.9299358 86.1446857,109.324787 C80.2136758,118.719638 43.9993006,119.476982 38.0992855,109.324787 Z" id="Path-807"></path>
                <path d="M1.75091989,97.0120568 C-4.14909526,86.8598616 6.4062133,58.1428571 10.6388755,58.1428571 C13.6581012,58.1428571 31.1164822,80.7679047 39.8493061,95.0623285 C38.1563899,100.011617 37.1877241,103.588468 36.9433087,105.792882 C36.6988932,107.997296 37.4509625,109.886013 39.1995165,111.459033 C28.0705093,115.126122 6.78925837,105.681559 1.75091989,97.0120568 Z" id="Path-807"></path>
                <path d="M86.6811943,97.0120568 C80.7811791,86.8598616 91.3364877,58.1428571 95.5691499,58.1428571 C98.5883756,58.1428571 116.046757,80.7679047 124.779581,95.0623285 C123.571864,100.001472 122.845798,103.57325 122.601382,105.777664 C122.356967,107.982078 123.083033,109.899862 124.779581,111.531017 C113.650573,115.198107 91.7195328,105.681559 86.6811943,97.0120568 Z" id="Path-807" transform="translate(104.854927, 85.240787) scale(-1, 1) translate(-104.854927, -85.240787) "></path>
                <path d="M68.2162365,61.8476663 C71.3311203,57.5646668 75.1052636,53.2422178 79.5386663,48.8803193 C86.1887704,42.3374714 92.5192801,37.8068004 94.7749119,38.462043 C97.4445664,39.2375559 102.852397,47.3310532 105.775526,57.5518958 C107.724279,64.3657909 108.698655,68.6356096 108.698655,70.3613518" id="Path-808" transform="translate(88.457446, 54.380239) scale(-1, 1) translate(-88.457446, -54.380239) "></path>
                <path d="M12.6455577,59.4642857 C13.8297054,52.1463563 15.387156,45.8494588 17.3179096,40.5735934 C20.2140399,32.6597953 25.9569618,24.5798141 27.8116546,24.5798141 C30.2907536,24.5798141 33.004511,29.9110739 35.9529269,40.5735934" id="Path-809"></path>
                <path d="M88.2865833,59.4642857 C89.470731,52.1463563 91.0281816,45.8494588 92.9589352,40.5735934 C95.8550655,32.6597953 101.597987,24.5798141 103.45268,24.5798141 C105.931779,24.5798141 108.645537,29.9110739 111.593953,40.5735934" id="Path-809" transform="translate(99.940268, 42.022050) scale(-1, 1) translate(-99.940268, -42.022050) "></path>
                <path d="M45.6873181,42.0678939 C52.7616271,28.4261193 58.2350327,21.6052321 62.107535,21.6052321 C65.9800372,21.6052321 71.543708,28.1127764 78.7985473,41.1278651" id="Path-810"></path>
                <path d="M50.9753575,12.3281749 C55.9573613,4.41764158 59.6680871,0.462374925 62.107535,0.462374925 C64.5469829,0.462374925 68.3231273,4.41764158 73.4359683,12.3281749" id="Path-810"></path>
                <path d="M29.7322059,25.751235 C31.9138944,22.7513893 34.5573334,19.7239129 37.6625227,16.6688056 C42.3203066,12.0861448 46.7542442,8.91282803 48.334106,9.37176498 C50.2039525,9.91494013 54.4314881,17.4653839 56.47887,24.6241406" id="Path-808"></path>
                <path d="M68.0112177,25.751235 C70.1929063,22.7513893 72.8363452,19.7239129 75.9415345,16.6688056 C80.5993185,12.0861448 85.0332561,8.91282803 86.6131178,9.37176498 C88.4829644,9.91494013 92.9155187,17.9631866 94.9629006,25.1219433" id="Path-808" transform="translate(81.487059, 17.539466) scale(-1, 1) translate(-81.487059, -17.539466) "></path>
                <path d="M55.0589843,116.298276 C55.1282643,121.499084 54.5059095,126.248127 53.1919199,130.545407 C51.8779303,134.842686 49.8428385,138.784571 47.0866445,142.371062 C47.0866445,144.777946 48.7725808,146.302544 52.1444535,146.944855 C55.5163261,147.587166 58.7598296,147.266011 61.8749641,145.981388 C65.0651097,142.489274 67.5263061,138.047417 69.2585536,132.655818 C70.990801,127.264219 71.5630851,121.718732 70.975406,116.019356" id="Path-811"></path>
                <path d="M15.134815,61.8476663 C18.2496988,57.5646668 22.0238421,53.2422178 26.4572448,48.8803193 C33.1073489,42.3374714 39.4378586,37.8068004 41.6934903,38.462043 C44.3631449,39.2375559 49.7709759,47.3310532 52.6941048,57.5518958 C54.6428573,64.3657909 55.6172336,68.6356096 55.6172336,70.3613518" id="Path-808"></path>
            </g>
        </g>
    </g>
</svg>