<?xml version="1.0" encoding="UTF-8"?>
<svg width="152px" height="152px" viewBox="0 0 152 152" version="1.1" xmlns="http://www.w3.org/2000/svg" xmlns:xlink="http://www.w3.org/1999/xlink">
    <!-- Generator: Sketch 44.1 (41455) - http://www.bohemiancoding.com/sketch -->
    <title>raisin</title>
    <desc>Created with Sketch.</desc>
    <defs></defs>
    <g id="Page-1" stroke="none" stroke-width="1" fill="none" fill-rule="evenodd" stroke-linecap="round">
        <g id="raisin" stroke="#A8104C">
            <g id="Group-2" transform="translate(-10.000000, 11.000000)">
                <g id="Group-3" transform="translate(40.916168, 0.000000)">
                    <path d="M7.44540043,15.3329702 C7.44540043,15.3329702 5.08961047,15.3329702 3.63037838,17.8585286 C2.17114629,20.384087 3.63037838,22.6068071 3.63037838,22.6068071 C3.63037838,22.6068071 0.43890425,22.7204887 0.72326268,28.7314936 C1.00762111,34.7424984 4.54854974,34.7424984 4.54854974,34.7424984 C4.54854974,34.7424984 5.96469782,40.1300493 10.3749834,41.6379556 C14.785269,43.1458619 19.2922126,40.6155737 19.2922126,40.6155737 C19.2922126,40.6155737 23.3187088,37.2771199 25.8980386,38.7383704 C28.4773684,40.1996209 27.6283898,43.5690946 27.6283898,43.5690946 C27.6283898,43.5690946 27.3199206,44.0766743 27.1904254,44.8727516 C27.0383476,45.8076565 27.2966302,47.0789608 29.1388632,48.1873806 C32.5497691,50.2396268 35.4436127,47.6658979 35.4436127,47.6658979 C35.4436127,47.6658979 37.499001,45.6320766 40.293907,45.977505 C43.088813,46.3229335 45.0824072,48.1873806 45.0824072,48.1873806 C45.0824072,48.1873806 47.1594763,50.2396268 50.11584,50.2396268 C53.0722037,50.2396268 54.6400097,47.676866 54.6400097,47.676866 C54.6400097,47.676866 55.7774645,45.9075084 57.7807456,45.1691621 C59.7840266,44.4308158 62.0635655,45.1691621 62.0635655,45.1691621 C62.0635655,45.1691621 65.5881383,46.2152422 67.6778648,45.6320766 C68.9372439,45.2806304 70.668946,44.0602243 71.8462837,43.1458619 C72.6225387,42.5429947 72.6486224,41.6379556 72.6486224,41.6379556 C72.6486224,41.6379556 73.1684063,39.2246145 74.1542278,38.1741279 C75.1400493,37.1236413 78.5335149,36.3448364 78.5335149,36.3448364 C78.5335149,36.3448364 79.9624999,36.0685834 80.6306323,34.7424984 C81.9440159,32.135742 82.9277982,27.2380321 82.6170787,24.7722848 C82.148293,21.0521853 76.1659158,17.5565009 76.1659158,17.5565009 C76.1659158,17.5565009 74.4710386,12.4188147 72.6486224,11.3116702 C70.8262062,10.2045257 65.8866065,11.3116702 65.8866065,11.3116702 C65.8866065,11.3116702 61.7247693,12.6802205 60.687823,12.3383501 C59.6508768,11.9964797 58.8549776,8.99341513 58.8549776,8.99341513 C58.8549776,8.99341513 56.2027847,3.562225 53.9099019,2.21398352 C51.6170191,0.86574205 45.556713,2.69056106 45.556713,2.69056106 C45.556713,2.69056106 40.5177687,-0.382562727 37.9374506,0.0398779495 C35.3571326,0.462318626 32.5497691,3.40567262 32.5497691,3.40567262 C32.5497691,3.40567262 30.5206244,5.04550289 29.6386433,5.29617223 C28.7566622,5.54684157 25.8980386,5.29617223 25.8980386,5.29617223 C25.8980386,5.29617223 20.9126112,3.72154925 19.2922126,4.44665538 C17.6718139,5.17176151 16.0738055,9.69238149 16.0738055,9.69238149 C16.0738055,9.69238149 12.9249728,8.0730928 10.3749834,9.69238149 C7.82499398,11.3116702 7.44540043,15.3329702 7.44540043,15.3329702 Z" id="Path-187" stroke-width="2" stroke-linejoin="round"></path>
                    <path d="M14.4865727,9.508943 C14.4865727,9.508943 15.3694558,11.9262853 18.3832564,12.7601958 C21.3970569,13.5941064 23.0637712,11.4429879 23.0637712,11.4429879 C23.0637712,11.4429879 24.6878244,9.508943 27.7417412,9.18389212 C30.795658,8.85884124 33.8303346,10.4125908 33.8303346,10.4125908" id="Path-188" stroke-width="1.2"></path>
                    <path d="M6.83032652,16.7551592 C6.83032652,16.7551592 8.12841938,19.4908008 9.02839287,20.2106643 C9.92836637,20.9305277 12.8621354,21.5798332 12.8621354,21.5798332 C12.8621354,21.5798332 14.111113,21.8950392 14.7880916,22.9441049 C15.4650702,23.9931707 15.8190147,25.5515592 15.8190147,25.5515592 C15.8190147,25.5515592 16.1259621,27.5674907 17.9506128,27.867297 C19.7752635,28.1671033 21.2425834,26.2263127 21.2425834,26.2263127 C21.2425834,26.2263127 22.9555398,23.7370231 26.3504773,23.1576474 C29.7454149,22.5782718 32.900642,24.9362138 32.900642,24.9362138 C32.900642,24.9362138 34.7099904,25.9207557 37.4239022,25.6884765 C40.1378141,25.4561974 41.724875,23.7196593 41.724875,23.7196593" id="Path-189" stroke-width="1.2"></path>
                    <path d="M37.4553111,37.6431307 C37.4553111,37.6431307 41.1687599,35.2264845 43.4876012,34.8048572 C45.8064425,34.3832299 50.5933741,35.2542795 50.5933741,35.2542795 C50.5933741,35.2542795 55.8163978,35.8581339 58.3099132,35.2542795 C60.8034286,34.6504252 63.9536715,32.0188178 63.9536715,32.0188178 C63.9536715,32.0188178 68.6196554,28.2150176 71.7133019,27.5901142 C74.8069483,26.9652108 82.6693308,28.2383341 82.6693308,28.2383341" id="Path-190" stroke-width="1.2"></path>
                </g>
                <g id="Group" transform="translate(125.560609, 89.115565) scale(-1, 1) rotate(45.000000) translate(-125.560609, -89.115565) translate(84.060609, 63.615565)">
                    <path d="M7.1686127,15.4064177 C7.1686127,15.4064177 4.81282274,15.4064177 3.35359065,17.931976 C1.89435856,20.4575344 3.35359065,22.6802545 3.35359065,22.6802545 C3.35359065,22.6802545 0.162116525,22.7939361 0.446474955,28.804941 C0.730833385,34.8159458 4.27176201,34.8159458 4.27176201,34.8159458 C4.27176201,34.8159458 5.6879101,40.2034967 10.0981957,41.711403 C14.5084813,43.2193093 19.0154248,40.6890212 19.0154248,40.6890212 C19.0154248,40.6890212 23.0419211,37.3505673 25.6212509,38.8118178 C28.2005807,40.2730683 27.3516021,43.6425421 27.3516021,43.6425421 C27.3516021,43.6425421 27.0431328,44.1501217 26.9136377,44.946199 C26.7615599,45.8811039 27.0198425,47.1524082 28.8620755,48.260828 C32.2729814,50.3130742 35.166825,47.7393453 35.166825,47.7393453 C35.166825,47.7393453 37.2222133,45.705524 40.0171193,46.0509524 C42.8120253,46.3963809 44.8056195,48.260828 44.8056195,48.260828 C44.8056195,48.260828 46.8826885,50.3130742 49.8390523,50.3130742 C52.795416,50.3130742 54.363222,47.7503134 54.363222,47.7503134 C54.363222,47.7503134 55.5006768,45.9809558 57.5039578,45.2426095 C59.5072389,44.5042632 61.7867778,45.2426095 61.7867778,45.2426095 C61.7867778,45.2426095 65.3113506,46.2886896 67.4010771,45.705524 C68.6604562,45.3540778 70.3921583,44.1336717 71.569496,43.2193093 C72.345751,42.6164421 72.3718346,41.711403 72.3718346,41.711403 C72.3718346,41.711403 72.8916186,39.2980619 73.8774401,38.2475753 C74.8632616,37.1970887 78.2567272,36.4182838 78.2567272,36.4182838 C78.2567272,36.4182838 79.6857122,36.1420308 80.3538446,34.8159458 C81.6672282,32.2091894 82.6510104,27.3114795 82.340291,24.8457322 C81.8715052,21.1256327 75.8891281,17.6299483 75.8891281,17.6299483 C75.8891281,17.6299483 74.1942508,12.4922621 72.3718346,11.3851176 C70.5494185,10.2779731 65.6098188,11.3851176 65.6098188,11.3851176 C65.6098188,11.3851176 61.4479815,12.7536679 60.4110353,12.4117975 C59.3740891,12.0699271 58.5781899,9.06686254 58.5781899,9.06686254 C58.5781899,9.06686254 55.925997,3.6356724 53.6331142,2.28743093 C51.3402314,0.939189456 45.2799253,2.76400846 45.2799253,2.76400846 C45.2799253,2.76400846 40.2409809,-0.309115322 37.6606629,0.113325355 C35.0803448,0.535766032 32.2729814,3.47912003 32.2729814,3.47912003 C32.2729814,3.47912003 30.2438366,5.1189503 29.3618556,5.36961963 C28.4798745,5.62028897 25.6212509,5.36961963 25.6212509,5.36961963 C25.6212509,5.36961963 20.6358235,3.79499666 19.0154248,4.52010279 C17.3950262,5.24520892 15.7970178,9.7658289 15.7970178,9.7658289 C15.7970178,9.7658289 12.6481851,8.14654021 10.0981957,9.7658289 C7.54820625,11.3851176 7.1686127,15.4064177 7.1686127,15.4064177 Z" id="Path-187" stroke-width="2" stroke-linejoin="round"></path>
                    <path d="M15.1453867,10.0646354 C15.1453867,10.0646354 16.0282698,12.4819777 19.0420704,13.3158882 C22.0558709,14.1497988 23.7225852,11.9986803 23.7225852,11.9986803 C23.7225852,11.9986803 25.3466384,10.0646354 28.4005552,9.73958451 C31.454472,9.41453363 34.4891486,10.9682832 34.4891486,10.9682832" id="Path-188" stroke-width="1.2"></path>
                    <path d="M7.11121959,16.0919364 C7.11121959,16.0919364 8.40931244,18.8275781 9.30928594,19.5474415 C10.2092594,20.267305 13.1430285,20.9166105 13.1430285,20.9166105 C13.1430285,20.9166105 14.392006,21.2318164 15.0689847,22.2808822 C15.7459633,23.3299479 16.0999078,24.8883364 16.0999078,24.8883364 C16.0999078,24.8883364 16.4068551,26.9042679 18.2315058,27.2040742 C20.0561565,27.5038805 21.5234765,25.56309 21.5234765,25.56309 C21.5234765,25.56309 23.2364329,23.0738003 26.6313704,22.4944247 C30.0263079,21.9150491 33.1815351,24.2729911 33.1815351,24.2729911 C33.1815351,24.2729911 34.9908835,25.2575329 37.7047953,25.0252538 C40.4187071,24.7929746 42.0057681,23.0564366 42.0057681,23.0564366" id="Path-189" stroke-width="1.2"></path>
                    <path d="M37.7654127,37.057322 C37.7654127,37.057322 41.4788616,34.6406759 43.7977029,34.2190486 C46.1165442,33.7974212 50.9034758,34.6684709 50.9034758,34.6684709 C50.9034758,34.6684709 56.1264995,35.2723252 58.6200149,34.6684709 C61.1135303,34.0646165 64.2637732,31.4330091 64.2637732,31.4330091 C64.2637732,31.4330091 68.9297571,27.629209 72.0234035,27.0043056 C75.11705,26.3794021 82.9794325,27.6525255 82.9794325,27.6525255" id="Path-190" stroke-width="1.2"></path>
                </g>
                <g id="Group" transform="translate(47.439391, 90.160677) rotate(45.000000) translate(-47.439391, -90.160677) translate(5.939391, 64.660677)">
                    <path d="M7.1686127,15.4064177 C7.1686127,15.4064177 4.81282274,15.4064177 3.35359065,17.931976 C1.89435856,20.4575344 3.35359065,22.6802545 3.35359065,22.6802545 C3.35359065,22.6802545 0.162116525,22.7939361 0.446474955,28.804941 C0.730833385,34.8159458 4.27176201,34.8159458 4.27176201,34.8159458 C4.27176201,34.8159458 5.6879101,40.2034967 10.0981957,41.711403 C14.5084813,43.2193093 19.0154248,40.6890212 19.0154248,40.6890212 C19.0154248,40.6890212 23.0419211,37.3505673 25.6212509,38.8118178 C28.2005807,40.2730683 27.3516021,43.6425421 27.3516021,43.6425421 C27.3516021,43.6425421 27.0431328,44.1501217 26.9136377,44.946199 C26.7615599,45.8811039 27.0198425,47.1524082 28.8620755,48.260828 C32.2729814,50.3130742 35.166825,47.7393453 35.166825,47.7393453 C35.166825,47.7393453 37.2222133,45.705524 40.0171193,46.0509524 C42.8120253,46.3963809 44.8056195,48.260828 44.8056195,48.260828 C44.8056195,48.260828 46.8826885,50.3130742 49.8390523,50.3130742 C52.795416,50.3130742 54.363222,47.7503134 54.363222,47.7503134 C54.363222,47.7503134 55.5006768,45.9809558 57.5039578,45.2426095 C59.5072389,44.5042632 61.7867778,45.2426095 61.7867778,45.2426095 C61.7867778,45.2426095 65.3113506,46.2886896 67.4010771,45.705524 C68.6604562,45.3540778 70.3921583,44.1336717 71.569496,43.2193093 C72.345751,42.6164421 72.3718346,41.711403 72.3718346,41.711403 C72.3718346,41.711403 72.8916186,39.2980619 73.8774401,38.2475753 C74.8632616,37.1970887 78.2567272,36.4182838 78.2567272,36.4182838 C78.2567272,36.4182838 79.6857122,36.1420308 80.3538446,34.8159458 C81.6672282,32.2091894 82.6510104,27.3114795 82.340291,24.8457322 C81.8715052,21.1256327 75.8891281,17.6299483 75.8891281,17.6299483 C75.8891281,17.6299483 74.1942508,12.4922621 72.3718346,11.3851176 C70.5494185,10.2779731 65.6098188,11.3851176 65.6098188,11.3851176 C65.6098188,11.3851176 61.4479815,12.7536679 60.4110353,12.4117975 C59.3740891,12.0699271 58.5781899,9.06686254 58.5781899,9.06686254 C58.5781899,9.06686254 55.925997,3.6356724 53.6331142,2.28743093 C51.3402314,0.939189456 45.2799253,2.76400846 45.2799253,2.76400846 C45.2799253,2.76400846 40.2409809,-0.309115322 37.6606629,0.113325355 C35.0803448,0.535766032 32.2729814,3.47912003 32.2729814,3.47912003 C32.2729814,3.47912003 30.2438366,5.1189503 29.3618556,5.36961963 C28.4798745,5.62028897 25.6212509,5.36961963 25.6212509,5.36961963 C25.6212509,5.36961963 20.6358235,3.79499666 19.0154248,4.52010279 C17.3950262,5.24520892 15.7970178,9.7658289 15.7970178,9.7658289 C15.7970178,9.7658289 12.6481851,8.14654021 10.0981957,9.7658289 C7.54820625,11.3851176 7.1686127,15.4064177 7.1686127,15.4064177 Z" id="Path-187" stroke-width="2" stroke-linejoin="round"></path>
                    <path d="M15.1453867,10.0646354 C15.1453867,10.0646354 16.0282698,12.4819777 19.0420704,13.3158882 C22.0558709,14.1497988 23.7225852,11.9986803 23.7225852,11.9986803 C23.7225852,11.9986803 25.3466384,10.0646354 28.4005552,9.73958451 C31.454472,9.41453363 34.4891486,10.9682832 34.4891486,10.9682832" id="Path-188" stroke-width="1.2"></path>
                    <path d="M7.11121959,16.0919364 C7.11121959,16.0919364 8.40931244,18.8275781 9.30928594,19.5474415 C10.2092594,20.267305 13.1430285,20.9166105 13.1430285,20.9166105 C13.1430285,20.9166105 14.392006,21.2318164 15.0689847,22.2808822 C15.7459633,23.3299479 16.0999078,24.8883364 16.0999078,24.8883364 C16.0999078,24.8883364 16.4068551,26.9042679 18.2315058,27.2040742 C20.0561565,27.5038805 21.5234765,25.56309 21.5234765,25.56309 C21.5234765,25.56309 23.2364329,23.0738003 26.6313704,22.4944247 C30.0263079,21.9150491 33.1815351,24.2729911 33.1815351,24.2729911 C33.1815351,24.2729911 34.9908835,25.2575329 37.7047953,25.0252538 C40.4187071,24.7929746 42.0057681,23.0564366 42.0057681,23.0564366" id="Path-189" stroke-width="1.2"></path>
                    <path d="M37.7654127,37.057322 C37.7654127,37.057322 41.4788616,34.6406759 43.7977029,34.2190486 C46.1165442,33.7974212 50.9034758,34.6684709 50.9034758,34.6684709 C50.9034758,34.6684709 56.1264995,35.2723252 58.6200149,34.6684709 C61.1135303,34.0646165 64.2637732,31.4330091 64.2637732,31.4330091 C64.2637732,31.4330091 68.9297571,27.629209 72.0234035,27.0043056 C75.11705,26.3794021 82.9794325,27.6525255 82.9794325,27.6525255" id="Path-190" stroke-width="1.2"></path>
                </g>
            </g>
        </g>
    </g>
</svg>