<?xml version="1.0" encoding="UTF-8"?>
<svg width="152px" height="152px" viewBox="0 0 152 152" version="1.1" xmlns="http://www.w3.org/2000/svg" xmlns:xlink="http://www.w3.org/1999/xlink">
    <!-- Generator: Sketch 44.1 (41455) - http://www.bohemiancoding.com/sketch -->
    <title>grapefruit</title>
    <desc>Created with Sketch.</desc>
    <defs></defs>
    <g id="Page-1" stroke="none" stroke-width="1" fill="none" fill-rule="evenodd" stroke-linecap="round" stroke-linejoin="round">
        <g id="grapefruit" stroke="#FF659B">
            <g id="Group" transform="translate(76.500000, 76.500000) scale(-1, 1) translate(-76.500000, -76.500000) translate(4.000000, 17.000000)">
                <path d="M99.9029132,87.4735269 C99.9029132,87.4735269 71.3810112,135.328864 27.1367642,113.06335 C-17.1074827,90.797836 6.90260994,35.5857978 6.90260994,35.5857978 L99.9029132,87.4735269 Z" id="Path-627" stroke-width="2.2"></path>
                <path d="M10.3484732,38.2010417 C10.3484732,38.2010417 1.04881006,56.0428621 3.75019326,75.3192271 C3.91455909,76.4920987 6.01127992,77.053501 6.26930252,78.2332985 C6.52732513,79.4130961 4.96501729,81.2817481 5.34038837,82.4961156 C8.15765969,91.6103033 14.2109096,100.593602 25.7155617,107.739539 C26.7984079,108.412132 28.5666394,107.172206 29.6372206,107.739539 C30.7078018,108.306873 30.6789965,110.48498 31.5389378,110.878946 C44.3886601,116.76581 56.2389453,115.393619 66.1832479,111.169703 C66.9366444,110.849693 66.8356041,108.791908 67.5667264,108.441077 C68.2978487,108.090246 70.0206733,109.365156 70.8043758,108.942367 C86.2669387,100.600676 96.0738401,86.3388416 96.0738401,86.3388416 L10.3484732,38.2010417 Z" id="Path-628" stroke-width="1.9"></path>
                <path d="M50.1621734,60.0418354 L6.28356348,77.8590449" id="Path-629" stroke-width="1.9"></path>
                <path d="M50.1711436,60.5548823 L67.353583,108.209433" id="Path-630" stroke-width="1.9"></path>
                <path d="M50.1574523,60.2990668 L29.609855,107.442811" id="Path-631" stroke-width="1.9"></path>
                <path d="M41.4185749,55.3106339 C30.6525968,12.3778321 95.3315854,-16.9470693 124.163556,11.090949 C159.939971,45.8821814 151.602098,114.487749 82.2649258,108.388873" id="Path-632" stroke-width="2.2"></path>
                <path d="M90.6557818,7.99924198 C74.9450717,5.33015541 95.0419699,13.9446724 90.5469394,8.44076556" id="Path-636" stroke-width="2.2" transform="translate(87.884018, 8.895246) rotate(-5.000000) translate(-87.884018, -8.895246) "></path>
            </g>
        </g>
    </g>
</svg>