<?xml version="1.0" encoding="UTF-8"?>
<svg width="152px" height="152px" viewBox="0 0 152 152" version="1.1" xmlns="http://www.w3.org/2000/svg" xmlns:xlink="http://www.w3.org/1999/xlink">
    <!-- Generator: Sketch 44.1 (41455) - http://www.bohemiancoding.com/sketch -->
    <title>grape</title>
    <desc>Created with Sketch.</desc>
    <defs></defs>
    <g id="Page-1" stroke="none" stroke-width="1" fill="none" fill-rule="evenodd">
        <g id="grape" stroke="#979797" stroke-width="2">
            <g id="Group" transform="translate(34.000000, 6.000000)">
                <path d="M42.3914686,127.75591 C42.3950128,128.691205 42.3145034,129.654958 42.1423218,130.631449 C41.0065909,137.072499 36.3123871,141.628629 31.6575242,140.807851 C27.0026612,139.987073 24.149841,134.100199 25.2855718,127.659149 C25.5493906,126.162958 26.0052196,124.768475 26.6079637,123.519468 C29.9659308,124.424046 34.2848924,122.907075 37.5729326,119.47055 C37.9431914,123.276024 39.7400993,126.431385 42.3914686,127.75591 Z" id="Combined-Shape"></path>
                <path d="M31.6817627,107.049665 C33.7769938,106.377317 35.8844352,105.046514 37.6756024,103.140039 C37.1777827,106.298956 37.6422842,109.305452 38.814087,111.609005 C38.3393285,112.707889 37.9758133,113.907381 37.7513252,115.180517 C37.4908356,116.657827 37.4401652,118.105984 37.5729326,119.47055 C33.3921353,123.840149 27.5445917,125.106299 24.1251418,122.237039 C20.5043012,119.198793 20.9771236,112.6742 25.1812201,107.663953 C25.3703591,107.438546 25.5638279,107.220045 25.761184,107.00856 C27.5035105,107.735905 29.5865315,107.722013 31.6817627,107.049665 C31.6817627,107.049665 31.6817627,107.049665 31.6817627,107.049665 Z" id="Combined-Shape"></path>
                <path d="M38.814087,111.609005 C38.3393285,112.707889 37.9758133,113.907381 37.7513252,115.180517 C36.6155944,121.621566 39.4684146,127.508441 44.1232776,128.329219 C48.7781406,129.149997 53.4723443,124.593866 54.6080752,118.152817 C55.1913214,114.845063 54.7226828,111.68346 53.4982882,109.279077 C51.5052331,113.760773 47.6691666,116.541675 43.9200512,115.81292 C41.7164699,115.384588 39.9392306,113.820835 38.814087,111.609005 Z" id="Combined-Shape"></path>
                <path d="M38.814087,111.609005 C38.3393285,112.707889 37.9758133,113.907381 37.7513252,115.180517 C36.6155944,121.621566 39.4684146,127.508441 44.1232776,128.329219 C48.7781406,129.149997 53.4723443,124.593866 54.6080752,118.152817 C55.1913214,114.845063 54.7226828,111.68346 53.4982882,109.279077 C51.5052331,113.760773 47.6691666,116.541675 43.9200512,115.81292 C41.7164699,115.384588 39.9392306,113.820835 38.814087,111.609005 Z" id="Combined-Shape"></path>
                <path d="M50.4406171,93.3212665 C49.823478,92.960271 49.1538237,92.7020277 48.4393492,92.5631479 C48.3208072,92.5401057 48.2021783,92.5205722 48.0835235,92.5044902 C46.0424343,94.0301759 43.7912842,94.9104972 41.691352,95.0544065 C41.3720122,97.513557 40.2276131,100.13914 38.2934439,102.444193 C38.09222,102.684003 37.8860951,102.915996 37.6756024,103.140039 C36.6997853,109.33209 39.4215071,114.938492 43.9200512,115.81292 C48.2885007,116.662061 52.7750019,112.746216 54.3264309,106.926934 C51.7902985,104.871588 50.0870574,101.061453 50.0870574,96.7008547 C50.0870574,95.5265658 50.2105764,94.3921965 50.4406171,93.3212665 Z" id="Combined-Shape"></path>
                <path d="M58.2519529,64.9048722 C56.7185108,65.0008968 55.2901972,65.6553026 54.0706894,66.7246286 C54.059321,66.1663915 53.9843669,65.6192506 53.8424441,65.0907531 C53.7005212,64.5622556 53.4916297,64.0524015 53.2123863,63.5687378 C52.5096948,62.3516403 51.4406303,61.4374261 50.1362964,60.8395396 C48.8319624,60.2416531 47.2923589,59.9600943 45.6485892,60.0083077 C45.8298817,58.8892866 45.7461833,57.7690018 45.3587604,56.7045661 C45.0748149,55.9244322 44.6466081,55.2261862 44.1002741,54.6172505 C45.0396616,53.6772308 46.1481232,52.8199755 47.4033394,52.0952761 C53.0675034,48.8250695 59.5750778,49.492414 61.9384137,53.5858318 C62.2995497,54.2113377 62.5430196,54.880648 62.6761413,55.5774382 C61.6160769,55.8898475 60.6632386,56.4320296 59.8810706,57.2141977 C58.0066236,59.0886447 57.510439,61.9432672 58.2519529,64.9048722 Z" id="Combined-Shape"></path>
                <path d="M54.0706894,66.7246286 C54.0479526,65.6081544 53.770873,64.5360652 53.2123863,63.5687378 C50.8490504,59.47532 44.341476,58.8079755 38.677312,62.0781821 C33.013148,65.3483887 30.3372981,71.3177858 32.7006339,75.4112035 C35.0639698,79.5046213 41.5715442,80.1719659 47.2357082,76.9017592 C48.3489224,76.2590447 49.3467083,75.5120698 50.2134968,74.6955671 C50.633812,71.3449881 52.0717421,68.4774067 54.0706894,66.7246286 Z" id="Combined-Shape"></path>
                <path d="M26.4645957,90.0773418 C24.6478828,90.1478057 22.9575081,89.6569726 21.6319911,88.5447317 C18.0111505,85.5064857 18.4839729,78.9818928 22.6880695,73.9716456 C25.487974,70.6348492 29.2367478,68.8112737 32.4982135,68.8628571 C32.0452377,70.003039 31.8178085,71.1585561 31.8426404,72.2698124 C31.8674723,73.3810688 32.1445653,74.4480645 32.7006339,75.4112035 C33.740447,77.2122127 35.5825004,78.3500038 37.801993,78.781014 C37.7500065,78.8411982 37.6983304,78.9018939 37.6469736,78.9630986 C35.7128043,81.2681517 34.5684053,83.8937348 34.2490655,86.3528853 C31.6582626,86.5304342 28.8372832,87.8289144 26.4645957,90.0773418 Z" id="Combined-Shape"></path>
                <path d="M34.2490655,86.3528853 C31.1722923,86.5637379 27.770893,88.3554791 25.1812201,91.4417311 C20.9771236,96.4519783 20.5043012,102.976571 24.1251418,106.014817 C27.7459824,109.053063 34.0893473,107.45444 38.2934439,102.444193 C40.2276131,100.13914 41.3720122,97.513557 41.691352,95.0544065 C39.7732658,95.1858538 37.9813416,94.7029078 36.5908952,93.5361847 C34.6358865,91.8957377 33.8742906,89.2389269 34.2490655,86.3528853 Z" id="Combined-Shape"></path>
                <path d="M50.2134968,74.6955671 C50.1303808,75.3581337 50.0870574,76.0395875 50.0870574,76.7350427 C50.0870574,80.4400015 51.31662,83.7475824 53.241912,85.9191074 C52.6611061,87.3111249 51.83153,88.6876045 50.7591973,89.9655607 C46.5551007,94.9758079 40.2117358,96.5744308 36.5908952,93.5361847 C32.9700546,90.4979387 33.442877,83.9733458 37.6469736,78.9630986 C37.6983304,78.9018939 37.7500065,78.8411982 37.801993,78.781014 C40.6270671,79.3296239 44.0636453,78.7331506 47.2357082,76.9017592 C48.3489224,76.2590447 49.3467083,75.5120698 50.2134968,74.6955671 C50.912046,69.1270214 54.4213784,64.892577 58.6454536,64.892577 C63.3721254,64.892577 67.2038499,70.1946295 67.2038499,76.7350427 C67.2038499,83.275456 63.3721254,88.5775085 58.6454536,88.5775085 C53.9187819,88.5775085 50.0870574,83.275456 50.0870574,76.7350427 C50.0870574,76.0395875 50.1303808,75.3581337 50.2134968,74.6955671 Z" id="Combined-Shape"></path>
                <path d="M56.2052225,88.0891643 C55.4319081,87.7714196 54.7043397,87.3065297 54.0394673,86.7179487 C51.6626486,88.8220372 50.0870574,92.5068413 50.0870574,96.7008547 C50.0870574,103.241268 53.9187819,108.54332 58.6454536,108.54332 C62.5474984,108.54332 65.8396257,104.929907 66.8695641,99.98937 C64.1495228,98.7199239 61.6557088,95.9874437 60.2650072,92.3645422 C59.7738993,91.0851624 59.4593222,89.7962534 59.3094517,88.5423942 C59.1998887,88.5540274 59.0897481,88.562806 58.9790689,88.5686763 C58.8683931,88.5745464 58.7571733,88.5775085 58.6454536,88.5775085 C57.7975973,88.5775085 56.9785369,88.406909 56.2052225,88.0891643 Z" id="Combined-Shape"></path>
                <path d="M66.5134908,72.0676255 C66.0691805,70.6354223 65.4266087,69.3488628 64.6335624,68.2740715 C64.9579002,67.4018364 65.4492727,66.613915 66.1139473,65.9492404 C69.4562089,62.6069788 75.9147646,63.6466577 80.5395351,68.2714283 C85.1643057,72.8961988 86.2039846,79.3547545 82.861723,82.6970161 C81.0358589,84.5228802 78.2799702,85.041001 75.401099,84.3812938 C73.4332662,80.6976176 70.2765149,78.2602059 67.1647244,77.8747916 C67.1776668,77.6872482 67.1874482,77.4984286 67.1939939,77.3084361 C67.2005394,77.118463 67.2038499,76.9272878 67.2038499,76.7350427 C67.2038499,75.077676 66.9578011,73.4998288 66.5134908,72.0676255 Z" id="Combined-Shape"></path>
                <path d="M59.3094517,88.5423942 C59.4593222,89.7962534 59.7738993,91.0851624 60.2650072,92.3645422 C62.6088817,98.4705439 68.0861904,102.047269 72.4989186,100.353381 C76.9116468,98.6594938 78.5887841,92.3364341 76.2449096,86.2304323 C74.4386359,81.5249284 70.7714794,78.3215103 67.1647244,77.8747916 C66.7710857,83.5788568 63.4533318,88.1024042 59.3094517,88.5423942 Z" id="Combined-Shape"></path>
                <path d="M58.4481568,64.8956618 C58.3825707,64.8977147 58.3171667,64.9007885 58.2519529,64.9048722 C57.510439,61.9432672 58.0066236,59.0886447 59.8810706,57.2141977 C63.2233322,53.8719361 69.6818879,54.911615 74.3066584,59.5363855 C76.3725108,61.6022379 77.7230134,64.0339939 78.2871425,66.3904494 C73.9967974,63.4301979 68.9407632,63.1224245 66.1139473,65.9492404 C65.4492727,66.613915 64.9579002,67.4018364 64.6335624,68.2740715 C63.0900819,66.1822397 60.9766105,64.892577 58.6454536,64.892577 C58.5795112,64.892577 58.5137429,64.8936089 58.4481568,64.8956618 C58.5137419,64.893609 58.5795107,64.892577 58.6454536,64.892577 C63.3721254,64.892577 67.2038499,70.1946295 67.2038499,76.7350427 C67.2038499,83.275456 63.3721254,88.5775085 58.6454536,88.5775085 C53.9187819,88.5775085 50.0870574,83.275456 50.0870574,76.7350427 C50.0870574,70.2858764 53.812613,65.0407585 58.4481553,64.8956619 Z" id="Combined-Shape"></path>
                <path d="M32.1902024,69.7573487 C27.9247535,69.860722 24.2775621,68.0345567 23.102205,64.8052898 C21.4855881,60.3636712 25.1573607,54.9496192 31.3033388,52.7126661 C37.4493169,50.4757131 43.7421434,52.2629476 45.3587604,56.7045661 C45.7461833,57.7690018 45.8298817,58.8892866 45.6485892,60.0083077 C43.4077002,60.0740352 40.97322,60.752639 38.677312,62.0781821 C35.3308813,64.0102448 33.0275321,66.8844694 32.1902024,69.7573487 Z" id="Combined-Shape"></path>
                <path d="M54.0706894,66.7246286 C54.0479526,65.6081544 53.770873,64.5360652 53.2123863,63.5687378 C50.8490504,59.47532 44.341476,58.8079755 38.677312,62.0781821 C33.013148,65.3483887 30.3372981,71.3177858 32.7006339,75.4112035 C35.0639698,79.5046213 41.5715442,80.1719659 47.2357082,76.9017592 C48.3489224,76.2590447 49.3467083,75.5120698 50.2134968,74.6955671 C50.633812,71.3449881 52.0717421,68.4774067 54.0706894,66.7246286 Z" id="Combined-Shape"></path>
                <ellipse id="Oval" transform="translate(58.645454, 76.735043) rotate(-90.000000) translate(-58.645454, -76.735043) " cx="58.6454536" cy="76.7350427" rx="11.8424658" ry="8.55839624"></ellipse>
                <path d="M54.657657,57.3556913 C57.3203322,46.1650068 58.937392,36.0311044 59.5088367,26.9539841 C60.0802813,17.8768638 59.4485503,12.1855676 57.6136437,9.88009565 L61.6649294,9.88009565 L59.5088367,27.3423442 C55.8047704,23.2324425 52.4355239,20.7877445 49.4010973,20.0082503 C46.3666707,19.2287561 41.8914222,19.2287561 35.9753516,20.0082503 C37.039213,13.2498864 37.039213,8.75015619 35.9753516,6.50905972 C34.9114903,4.26796326 32.6537275,2.09827668 29.2020634,0 C26.8210338,2.17929011 25.630519,4.34897668 25.630519,6.50905972 C25.630519,8.66914277 25.630519,10.5296814 25.630519,12.0906756 C21.0965192,8.36959835 17.7928489,6.14483098 15.719508,5.4163735 C13.6461672,4.68791602 11.1213799,4.36862342 8.14514628,4.45849571 C7.49664332,8.82918603 7.80688,11.8782618 9.07585633,13.6057231 C10.3448327,15.3331844 13.3304095,16.9604103 18.0325869,18.4874008 C12.7325093,18.6238497 8.91347659,19.3998874 6.57548881,20.8155139 C4.23750103,22.2311403 2.04567143,24.4067504 0,27.3423442 C2.58201319,29.7468148 5.29706195,31.1587281 8.14514628,31.5780842 C10.9932306,31.9974402 15.4422922,31.6940529 21.4923311,30.6679222 C19.3120725,33.1350648 18.1588245,35.2632545 18.0325869,37.0524912 C17.9063493,38.8417279 17.9063493,41.8155205 18.0325869,45.973869 C22.3414394,44.2831979 25.2367277,42.6137452 26.7184518,40.9655109 C28.2001758,39.3172766 29.618712,36.1881343 30.9740602,31.5780842 C31.5225715,34.438928 32.1262427,36.2637303 32.7850738,37.0524912 C33.4439049,37.841252 35.2529084,38.904934 38.2120842,40.2435372 C39.7930158,36.8477105 40.6353574,33.9592261 40.7391092,31.5780842 C40.8428609,29.1969422 39.2549418,25.3403309 35.9753516,20.0082503" id="Path-137" stroke-linecap="round" stroke-linejoin="round"></path>
            </g>
        </g>
    </g>
</svg>