<?xml version="1.0" encoding="UTF-8"?>
<svg width="152px" height="152px" viewBox="0 0 152 152" version="1.1" xmlns="http://www.w3.org/2000/svg" xmlns:xlink="http://www.w3.org/1999/xlink">
    <!-- Generator: Sketch 44.1 (41455) - http://www.bohemiancoding.com/sketch -->
    <title>greenbean</title>
    <desc>Created with Sketch.</desc>
    <defs></defs>
    <g id="Page-1" stroke="none" stroke-width="1" fill="none" fill-rule="evenodd" stroke-linecap="round" stroke-linejoin="round">
        <g id="greenbean" stroke="#146372" stroke-width="2">
            <path d="M3.10340941,86.8506258 C4.57575174,89.4326915 18.0726156,99.0287743 33.392115,94.9157089 C42.1480927,92.5648547 79.6369661,72.2510606 96.1743953,65.0998657 C107.199348,60.3324024 118.565656,56.292318 130.273319,52.9796125 C127.458714,59.2717909 126.888843,61.0456898 128.563705,58.3013091 C131.075999,54.184738 143.285537,50.448993 143.395038,49.9436686 C143.504539,49.4383441 129.759649,50.9915726 126.314595,48.0044823 C124.017892,46.0130888 125.192315,46.9826594 129.837865,50.913194 C113.560821,51.6510184 101.151247,53.4581502 92.6091453,56.3345894 C79.7959923,60.6492481 36.3247501,81.0873643 29.86888,82.8873281 C16.1440256,86.7139604 1.63106709,84.2685601 3.10340941,86.8506258 Z" id="Path-821"></path>
            <path d="M3.32691795,60.3240538 C6.13731134,62.0052245 18.1086694,71.7280615 33.4281689,67.614996 C42.1841466,65.2641419 79.8604747,45.7244886 96.3979039,38.5732937 C107.422857,33.8058304 118.219293,28.1170959 128.787214,21.5070902 C127.486977,28.0179183 127.486977,29.2177415 128.787214,25.1065597 C130.737569,18.939787 134.591886,14.8232258 136.566114,13.2168121 C138.540342,11.6103984 126.656712,19.5120482 123.49694,17.8659307 C121.390426,16.768519 122.824475,17.6232108 127.79909,20.4300062 C113.473499,24.4287577 102.039653,27.8663531 93.4975513,30.7427922 C80.6843982,35.057451 36.5482587,54.5607923 30.0923886,56.3607561 C16.3675341,60.1873883 0.516524563,58.6428831 3.32691795,60.3240538 Z" id="Path-821"></path>
            <path d="M17.9467608,132.859116 C17.4149206,129.934736 18.6832747,118.966777 33.0625196,112.270383 C41.2810876,108.443008 83.0566859,99.9068941 100.321791,94.7549726 C111.831861,91.3203583 123.135874,87.1091207 134.233831,82.1212597 C129.091369,79.307119 128.043675,78.412917 131.090748,79.438654 C135.661357,80.9772594 148.174399,78.7141211 148.583098,79.0308362 C148.991797,79.3475514 135.38543,84.1656156 134.156658,90.0485282 C133.337476,93.9704699 133.565858,91.7380236 134.841802,83.3511894 C122.156411,93.6706276 111.617431,100.473985 103.224862,103.761262 C90.6360084,108.692178 44.197737,120.978449 38.0952592,123.74935 C25.1216989,129.640146 18.4786009,135.783497 17.9467608,132.859116 Z" id="Path-821"></path>
        </g>
    </g>
</svg>