<?xml version="1.0" encoding="UTF-8"?>
<svg width="152px" height="152px" viewBox="0 0 152 152" version="1.1" xmlns="http://www.w3.org/2000/svg" xmlns:xlink="http://www.w3.org/1999/xlink">
    <!-- Generator: Sketch 44.1 (41455) - http://www.bohemiancoding.com/sketch -->
    <title>honey</title>
    <desc>Created with Sketch.</desc>
    <defs></defs>
    <g id="Page-1" stroke="none" stroke-width="1" fill="none" fill-rule="evenodd" stroke-linecap="round" stroke-linejoin="round">
        <g id="honey" stroke="#F95604" stroke-width="2">
            <g id="Group" transform="translate(27.000000, 9.000000)">
                <path d="M58.5822306,0 L13.9207837,0 C13.9207837,0 8.99943449,0 8.99943449,5.47749673 C8.99943449,10.9549935 13.191512,12.1155711 13.191512,12.1155711 L58.5822306,12.1155711 L16.8390067,12.1155711 C16.8390067,12.1155711 18.509512,13.9682838 19.4735529,15.7885954 C19.9148483,16.6218539 17.8689196,17.5288158 17.7796004,19.7154579 C17.6902812,21.9021 19.4735529,24.8281463 19.4735529,24.8281463 C19.4735529,24.8281463 8.46273559,28.744427 3.76397513,33.9830199 C-0.934785325,39.2216128 0.0958175296,51.3422548 0.0958175296,51.3422548 L5.96878688,117.832844 C5.96878688,117.832844 6.55059293,125.771159 8.99943449,130.038542 C11.4482761,134.305924 17.7796004,133.856722 17.7796004,133.856722 L58.7805789,133.856722" id="Path-652"></path>
                <path d="M98.1822306,0 L53.5207837,0 C53.5207837,0 48.5994345,0 48.5994345,5.47749673 C48.5994345,10.9549935 52.791512,12.1155711 52.791512,12.1155711 L98.1822306,12.1155711 L55.7336009,12.1155711 C55.7336009,12.1155711 58.109512,13.9682838 59.0735529,15.7885954 C59.5148483,16.6218539 57.4689196,17.5288158 57.3796004,19.7154579 C57.2902812,21.9021 59.0735529,24.8281463 59.0735529,24.8281463 C59.0735529,24.8281463 48.0627356,28.744427 43.3639751,33.9830199 C38.6652147,39.2216128 39.6958175,51.3422548 39.6958175,51.3422548 L45.5687869,117.832844 C45.5687869,117.832844 46.1505929,125.771159 48.5994345,130.038542 C51.0482761,134.305924 57.3796004,133.856722 57.3796004,133.856722 L98.3805789,133.856722" id="Path-652" transform="translate(68.990289, 66.935154) scale(-1, 1) translate(-68.990289, -66.935154) "></path>
                <path d="M0.655973618,55.9575498 C0.655973618,55.9575498 33.2033379,53.136349 49.3977541,53.1045437 C65.5921703,53.0727383 98.1395346,55.7660952 98.1395346,55.7660952 L93.2633721,111.426275 C93.2633721,111.426275 63.0205228,114.09668 48.84,114.09668 C34.6594772,114.09668 5.81919312,111.426275 5.81919312,111.426275 L0.655973618,55.9575498 Z" id="Path-653"></path>
                <polygon id="Polygon" points="28.1509515 62.2773834 38.8125482 68.4564118 38.8125482 80.8144686 28.1509515 86.993497 17.4893548 80.8144686 17.4893548 68.4564118"></polygon>
                <polygon id="Polygon" points="49.2709515 62.2773834 59.9325482 68.4564118 59.9325482 80.8144686 49.2709515 86.993497 38.6093548 80.8144686 38.6093548 68.4564118"></polygon>
                <polygon id="Polygon" points="59.8309515 80.8280933 70.4925482 87.0071217 70.4925482 99.3651785 59.8309515 105.544207 49.1693548 99.3651785 49.1693548 87.0071217"></polygon>
                <polygon id="Polygon" points="70.3909515 62.2773834 81.0525482 68.4564118 81.0525482 80.8144686 70.3909515 86.993497 59.7293548 80.8144686 59.7293548 68.4564118"></polygon>
                <polygon id="Polygon" points="38.7109515 80.8280933 49.3725482 87.0071217 49.3725482 99.3651785 38.7109515 105.544207 28.0493548 99.3651785 28.0493548 87.0071217"></polygon>
            </g>
        </g>
    </g>
</svg>