<?xml version="1.0" encoding="UTF-8"?>
<svg width="152px" height="152px" viewBox="0 0 152 152" version="1.1" xmlns="http://www.w3.org/2000/svg" xmlns:xlink="http://www.w3.org/1999/xlink">
    <!-- Generator: Sketch 46.2 (44496) - http://www.bohemiancoding.com/sketch -->
    <title>jicama</title>
    <desc>Created with Sketch.</desc>
    <defs></defs>
    <g id="Page-1" stroke="none" stroke-width="1" fill="none" fill-rule="evenodd" stroke-linecap="round" stroke-linejoin="round">
        <g id="jicama" stroke="#979797" stroke-width="2">
            <g id="Group" transform="translate(-5.000000, -5.000000)">
                <path d="M97.5520658,25.2482175 C93.9975269,24.1727073 87.9016216,34.5852016 79.887736,33.3469594 C76.5617536,32.833055 73.3966333,32.8535729 69.3940335,32.8770186 C65.417053,32.9003142 62.4505547,33.2179585 58.2118422,34.2050598 C48.1097931,36.5576008 37.8394488,42.2606985 30.1417192,54.237838 C19.1383753,71.3582867 22.1631216,96.4014975 28.3372627,107.01319 C34.5114037,117.624883 45.0719445,127.323449 70.0699411,135.205254 C95.0679377,143.087059 126.603987,139.668005 137.856752,100.866767 C149.109517,62.0655288 112.0325,43.3259156 109.822041,41.8879732 C107.611582,40.4500308 104.447312,36.4812847 103.020988,33.3570334 C101.594663,30.2327822 101.106605,26.3237277 97.5520658,25.2482175 Z" id="Path-774" transform="translate(81.383916, 81.907095) rotate(-40.000000) translate(-81.383916, -81.907095) "></path>
                <path d="M45.1448877,98 C45.1448877,98 40.9935593,102.087041 48.5008047,103.862863 C56.0080502,105.638686 61.6438179,115 61.6438179,115 C61.6438179,115 71.7427648,109.183298 80.2209963,109.183298 C88.6992279,109.183298 90,105.156353 90,105.156353" id="Path-775" transform="translate(67.000000, 106.500000) scale(1, -1) translate(-67.000000, -106.500000) "></path>
                <path d="M77.1448877,58 C77.1448877,58 72.9935593,63.0486981 80.5008047,65.2423607 C88.0080502,67.4360233 93.6438179,79 93.6438179,79 C93.6438179,79 103.742765,71.8146625 112.220996,71.8146625 C120.699228,71.8146625 122,66.840201 122,66.840201" id="Path-775" transform="translate(99.000000, 68.500000) scale(-1, -1) rotate(-40.000000) translate(-99.000000, -68.500000) "></path>
            </g>
        </g>
    </g>
</svg>