<?xml version="1.0" encoding="UTF-8"?>
<svg width="152px" height="152px" viewBox="0 0 152 152" version="1.1" xmlns="http://www.w3.org/2000/svg" xmlns:xlink="http://www.w3.org/1999/xlink">
    <!-- Generator: Sketch 44.1 (41455) - http://www.bohemiancoding.com/sketch -->
    <title>juniper</title>
    <desc>Created with Sketch.</desc>
    <defs></defs>
    <g id="Page-1" stroke="none" stroke-width="1" fill="none" fill-rule="evenodd">
        <g id="juniper" stroke="#446DB5">
            <g id="Group" transform="translate(28.000000, 4.000000)">
                <path d="M10.1526165,143.422107 C18.9132473,102.508779 37.841175,80.7186088 62.0645318,34.0649735 C71.6231602,15.6552722 78.2404669,3.72985231 78.2404669,3.72985231" id="Path-424" stroke-width="2" stroke-linecap="round"></path>
                <path d="M46.7636277,61.9420699 C64.5107401,48.3356828 74.2725339,47.1710597 96.6926791,49.3489898" id="Path-425" stroke-width="2" stroke-linecap="round"></path>
                <path d="M67.7214471,50.398368 C73.5505769,40.8415114 76.3235537,39.4122502 76.3235537,39.4122502" id="Path-426" stroke-width="2" stroke-linecap="round"></path>
                <path d="M74.4563179,49.6248477 C81.2578203,61.0653353 89.8239301,59.4887379 89.8239301,59.4887379" id="Path-427" stroke-width="2" stroke-linecap="round"></path>
                <path d="M22.2780003,36.2494695 C41.4683337,48.8664924 38.398314,49.5639246 39.6659931,74.3392865" id="Path-429" stroke-width="2" stroke-linecap="round"></path>
                <path d="M13.904492,99.8248606 C13.904492,99.8248606 15.6964944,79.6187665 0.1905889,70.146802" id="Path-431" stroke-width="2" stroke-linecap="round"></path>
                <path d="M53.4410823,32.9852545 C49.6075269,19.2410823 45.5236044,15.8108107 35.058129,10.7944163" id="Path-432" stroke-width="2" stroke-linecap="round"></path>
                <path d="M47.0997924,18.1538359 C47.7791173,12.7948244 45.4522166,9.72734366 45.4522166,9.72734366" id="Path-433" stroke-width="2" stroke-linecap="round"></path>
                <path d="M49.6848774,23.8940839 C38.2480639,20.77804 36.0569068,23.8940839 36.0569068,23.8940839" id="Path-434" stroke-width="2" stroke-linecap="round"></path>
                <path d="M30.1877516,40.7402798 C30.8670765,35.3812684 28.9218325,32.5800662 28.9218325,32.5800662" id="Path-433" stroke-width="2" stroke-linecap="round"></path>
                <path d="M36.8840979,49.8022887 C25.4472844,46.6862449 21.0752588,49.8022887 21.0752588,49.8022887" id="Path-434" stroke-width="2" stroke-linecap="round"></path>
                <path d="M65.0557175,28.398704 C63.0060248,6.18319713 61.7078395,8.41615223 54.6020212,0.674976854" id="Path-435" stroke-width="2" stroke-linecap="round"></path>
                <path d="M63.0014068,12.5225134 C63.7043635,1.81879906 67.9045826,1.37902741 67.9045826,1.37902741" id="Path-437" stroke-width="2" stroke-linecap="round"></path>
                <path d="M60.4061848,37.1298719 C70.6144115,24.3091535 96.6926791,27.3146328 96.6926791,27.3146328" id="Path-442" stroke-width="2" stroke-linecap="round"></path>
                <path d="M74.2884689,29.1660465 C74.2884689,23.6492124 73.8348403,21.7164536 79.3260939,17.6979901" id="Path-443" stroke-width="2" stroke-linecap="round"></path>
                <path d="M83.3157638,27.447609 C93.3757841,28.7701047 90.6316301,37.306942 90.6316301,37.306942" id="Path-444" stroke-width="2" stroke-linecap="round"></path>
                <path d="M14.6575338,99.2523418 C16.4811592,96.1188576 17.9386255,90.9090953 17.4326513,85.7942025" id="Path-453" stroke-width="2" stroke-linecap="round"></path>
                <path d="M23.6587173,104.573379 C37.803751,85.8720982 62.2754957,84.5123842 84.0501585,82.8645068" id="Path-430" stroke-width="2" stroke-linecap="round"></path>
                <path d="M36.6669338,93.0848472 C48.9616985,93.3694441 52.2868963,99.7985953 52.2868963,99.7985953" id="Path-455" stroke-width="2" stroke-linecap="round"></path>
                <path d="M48.4026474,87.9844004 C51.317835,84.5360556 52.8918579,79.8750129 58.8072927,77.441302" id="Path-456" stroke-width="2" stroke-linecap="round"></path>
                <path d="M70.6247367,84.0512907 C81.2485879,86.7625259 82.284574,89.7158797 84.3470811,93.1339894" id="Path-457" stroke-width="2" stroke-linecap="round"></path>
                <ellipse id="Oval-7" stroke-width="2.4" cx="27.9751561" cy="69.8227485" rx="9.88564295" ry="9.8903002"></ellipse>
                <ellipse id="Oval-7" stroke-width="2.4" cx="53.3071161" cy="66.7320297" rx="8.03208489" ry="8.03586892"></ellipse>
                <ellipse id="Oval-7" stroke-width="2.4" cx="50.8357054" cy="39.5337041" rx="6.79637953" ry="6.79958139"></ellipse>
                <path d="M28.5930087,89.6033489 C32.3465455,89.6033489 33.6592408,83.4443217 35.8942713,79.0569046 C38.1293017,74.6694875 32.3465455,79.8127407 28.5930087,79.8127407 C24.839472,79.8127407 21.7966292,79.0484624 21.7966292,82.8037675 C21.7966292,86.5590726 24.839472,89.6033489 28.5930087,89.6033489 Z" id="Oval-7" stroke-width="2.4"></path>
                <path d="M23.6501873,134.1097 C28.0861853,134.1097 31.6822722,130.511919 31.6822722,126.073831 C31.6822722,122.861747 30.6976468,122.388366 27.9751561,121.102025 C25.2526653,119.815685 24.3470211,118.006832 23.1215941,118.006832 C18.6855961,118.006832 15.6181024,121.635743 15.6181024,126.073831 C15.6181024,130.511919 19.2141893,134.1097 23.6501873,134.1097 Z" id="Oval-7" stroke-width="2.4"></path>
                <ellipse id="Oval-7" stroke-width="2.4" cx="11.2931336" cy="108.456734" rx="9.26779026" ry="8.96308456"></ellipse>
                <ellipse id="Oval-7" stroke-width="2.4" cx="31.6822722" cy="111.856524" rx="9.88564295" ry="9.8903002"></ellipse>
            </g>
        </g>
    </g>
</svg>