<?xml version="1.0" encoding="UTF-8"?>
<svg width="152px" height="152px" viewBox="0 0 152 152" version="1.1" xmlns="http://www.w3.org/2000/svg" xmlns:xlink="http://www.w3.org/1999/xlink">
    <!-- Generator: Sketch 44.1 (41455) - http://www.bohemiancoding.com/sketch -->
    <title>ketchup</title>
    <desc>Created with Sketch.</desc>
    <defs></defs>
    <g id="Page-1" stroke="none" stroke-width="1" fill="none" fill-rule="evenodd">
        <g id="ketchup" stroke="#FF0000">
            <g id="Group" transform="translate(48.000000, 5.000000)">
                <path d="M28.4408732,0.921687577 L13.1778251,0.921687577 L13.1778251,12.5978226 L28.4408732,12.5978226 L14.4790856,13.2365073 C14.4790856,13.2365073 14.108137,33.4593464 12.1865522,44.3125233 C10.2649673,55.1657003 6.47090175,60.4232336 6.47090175,60.4232336 C6.47090175,60.4232336 2.89544461,66.8921017 1.73515509,70.9818249 C0.574865564,75.0715481 0.517298,81.408161 0.517298,81.408161 L0.677477537,127.883757 C0.677477537,127.883757 0.677477537,133.168316 3.66963989,137.292782 C6.66180223,141.417248 14.1531757,141.305589 14.1531757,141.305589 L28.4408732,141.305589" id="Path-649" stroke-width="2" stroke-linecap="round" stroke-linejoin="round"></path>
                <path d="M55.8918536,0.921687577 L40.6288055,0.921687577 L40.6288055,12.5978226 L48.7269677,12.5978226 L41.930066,13.2365073 C41.930066,13.2365073 41.5591174,33.4593464 39.6375326,44.3125233 C37.7159477,55.1657003 33.9218821,60.4232336 33.9218821,60.4232336 C33.9218821,60.4232336 30.346425,66.8921017 29.1861355,70.9818249 C28.025846,75.0715481 27.9682784,81.408161 27.9682784,81.408161 L28.1284579,127.883757 C28.1284579,127.883757 28.1284579,133.168316 31.1206203,137.292782 C34.1127826,141.417248 41.6041561,141.305589 41.6041561,141.305589 L55.8918536,141.305589" id="Path-649" stroke-width="2" stroke-linecap="round" stroke-linejoin="round" transform="translate(41.930066, 71.113786) scale(-1, 1) translate(-41.930066, -71.113786) "></path>
                <path d="M0.722034366,87.2702941 C0.722034366,87.2702941 11.2024312,80.6049507 28.2499461,80.5639645 C45.2974609,80.5229783 55.7778578,87.5149084 55.7778578,87.5149084 L55.5273734,125.024245 L1.43785832,125.475591 L0.722034366,87.2702941 Z" id="Path-650" stroke-width="2"></path>
                <path d="M27.2529837,94.3055297 C13.7208682,86.8416506 -0.824052932,116.565887 28.3861969,116.565887 C57.5964467,116.565887 41.7031898,85.8114662 29.3863685,94.1625862 C29.4033006,94.0869503 26.1406749,96.6297953 26.2010581,96.5038659 C26.2614413,96.3779365 29.6273492,93.6180256 29.6554061,93.5513738 C30.1576783,92.3581787 29.9969722,91.9263346 29.9969722,91.9263346 L28.3861969,94.5579475 L26.5356483,91.9263346 C26.5356483,91.9263346 26.6441159,93.249489 27.4509804,93.8751727 C35.269666,99.9381783 27.3481288,94.2600084 27.2529837,94.3055297 Z" id="Path-651" stroke-linecap="round" stroke-linejoin="round"></path>
            </g>
        </g>
    </g>
</svg>