<?xml version="1.0" encoding="UTF-8"?>
<svg width="152px" height="152px" viewBox="0 0 152 152" version="1.1" xmlns="http://www.w3.org/2000/svg" xmlns:xlink="http://www.w3.org/1999/xlink">
    <!-- Generator: Sketch 44.1 (41455) - http://www.bohemiancoding.com/sketch -->
    <title>kiwi</title>
    <desc>Created with Sketch.</desc>
    <defs></defs>
    <g id="Page-1" stroke="none" stroke-width="1" fill="none" fill-rule="evenodd">
        <g id="kiwi" stroke="#F95604">
            <g id="Group" transform="translate(76.500000, 81.000000) scale(-1, 1) translate(-76.500000, -81.000000) translate(4.000000, 18.000000)">
                <path d="M93.0900963,34.0158965 C90.1641083,11.5482291 71.4721527,-2.72913281 52.4024991,0.526990601 C33.3328454,3.78311402 6.08041916,32.741275 0.694271655,61 C-4.37971101,87.6209346 33.1292673,117.928955 57.7898042,91.6160866" id="Path-516" stroke-width="2.2" stroke-linecap="round"></path>
                <path d="M102.751931,32.203831 C55.5677347,35.7323214 33.8876669,104.742911 88.4292924,110.086613 C121.236495,113.30089 152.043764,59.5653958 122.111147,38.2903462 C117.8291,35.2468177 112.26444,34.6203194 107.341086,32.785306 L102.751931,32.203831 Z" id="Path-520" stroke-width="2"></path>
                <path d="M87.5,56.5 L82.4875203,50.517556" id="Path-522" stroke-width="1.9" stroke-linecap="round"></path>
                <path d="M79.5244486,64.2624544 C76.8180159,62.6795449 75.2308814,61.7271052 72.5244486,60.1441957" id="Path-523" stroke-width="1.9" stroke-linecap="round"></path>
                <path d="M76.68219,73.5801123 L68.6662403,73.2389412" id="Path-523" stroke-width="1.9" stroke-linecap="round"></path>
                <path d="M78.6801896,84.0998718 C76.5007125,86.1389917 74.3212354,88.1781116 72.1417584,90.2172314" id="Path-524" stroke-width="1.9" stroke-linecap="round"></path>
                <path d="M88.614461,87.5938348 L86.7874829,96.0556813" id="Path-525" stroke-width="1.9" stroke-linecap="round"></path>
                <path d="M99.5119593,83.8465455 L104.020398,91.6733062" id="Path-526" stroke-width="1.9" stroke-linecap="round"></path>
                <path d="M109.074842,72.2810224 L117.067832,76.3992811" id="Path-527" stroke-width="1.9" stroke-linecap="round"></path>
                <path d="M107.746877,59.2171778 C110.39601,57.6092366 113.045144,56.0012953 115.694277,54.3933541" id="Path-528" stroke-width="1.9" stroke-linecap="round"></path>
                <path d="M98.7485331,52.9602502 C99.7757398,49.7449834 101.186603,44.6734525 101.186603,44.6734525" id="Path-529" stroke-width="1.9" stroke-linecap="round"></path>
                <path d="M59.8028516,94.4059065 C101.870546,156.11871 177.098828,117.205475 129.833357,46.197205" id="Path-530" stroke-width="2"></path>
            </g>
        </g>
    </g>
</svg>