<?xml version="1.0" encoding="UTF-8"?>
<svg width="152px" height="152px" viewBox="0 0 152 152" version="1.1" xmlns="http://www.w3.org/2000/svg" xmlns:xlink="http://www.w3.org/1999/xlink">
    <!-- Generator: Sketch 44.1 (41455) - http://www.bohemiancoding.com/sketch -->
    <title>kohlrabi</title>
    <desc>Created with Sketch.</desc>
    <defs></defs>
    <g id="Page-1" stroke="none" stroke-width="1" fill="none" fill-rule="evenodd" stroke-linecap="round" stroke-linejoin="round">
        <g id="kohlrabi" stroke="#979797" stroke-width="2">
            <g id="Group" transform="translate(5.000000, 2.000000)">
                <path d="M23.2504989,69.9078143 C23.2504989,69.9078143 14.704496,51.4593622 14.0875544,46.6060355 C13.4706127,41.7527088 19.9434388,43.8919957 19.9434388,43.8919957 C19.9434388,43.8919957 13.9857896,28.8919004 19.9434388,23.8519807 C22.9099575,21.3424312 26.7722644,27.8677699 29.9027572,35.0526473 C29.9027572,35.0526473 31.7616784,31.4759571 34.4922677,32.8009703 C37.2228569,34.1259834 32.9280339,48.5152395 32.9280339,48.5152395 C32.9280339,48.5152395 39.6751494,46.2213919 38.5521536,51.0269371 C38.5521536,51.0269371 37.0357356,56.8437941 34.6225261,60.0867301 C32.2093166,63.3296661 24.8546171,69.6393976 24.8546171,69.6393976" id="Path-730" transform="translate(26.362175, 46.606035) rotate(-60.000000) translate(-26.362175, -46.606035) "></path>
                <path d="M69.7355551,49.6106435 C69.7355551,49.6106435 60.4721921,31.1928414 59.8552504,26.3395147 C59.2383087,21.486188 65.7111349,23.625475 65.7111349,23.625475 C65.7111349,23.625475 59.7534857,8.62537959 65.7111349,3.58545997 C68.6776536,1.07591047 72.5399605,7.60124912 75.6704533,14.7861266 C75.6704533,14.7861266 77.5293745,11.2094363 80.2599637,12.5344495 C82.9905529,13.8594627 78.69573,28.2487188 78.69573,28.2487188 C78.69573,28.2487188 85.4779523,25.0186988 86.8527843,27.0672166 C88.2276163,29.1157344 83.7822465,35.2299721 82.9511291,36.3614986 C80.9825623,39.0416078 70.6223132,49.3728768 70.6223132,49.3728768" id="Path-730" transform="translate(73.464239, 26.324190) scale(-1, 1) translate(-73.464239, -26.324190) "></path>
                <path d="M98.8980705,48.7677456 C98.8980705,48.7677456 89.6347075,30.3499435 89.0177658,25.4966168 C88.4008241,20.6432901 94.8736503,22.7825771 94.8736503,22.7825771 C94.8736503,22.7825771 92.9112181,4.11923406 99.5979951,3.90117876 C103.900785,3.7608651 104.170351,9.22632115 107.300844,16.4111986 C107.300844,16.4111986 111.092998,11.931545 113.823587,13.2565582 C116.554177,14.5815714 107.858245,27.4058209 107.858245,27.4058209 C107.858245,27.4058209 114.640468,24.1758009 116.0153,26.2243187 C117.390132,28.2728365 112.944762,34.3870743 112.113644,35.5186007 C110.145078,38.1987099 99.7848285,48.5299789 99.7848285,48.5299789" id="Path-730" transform="translate(102.626754, 26.333141) scale(-1, 1) rotate(-20.000000) translate(-102.626754, -26.333141) "></path>
                <path d="M35.9563882,22.0622176 C35.9563882,22.0622176 38.5423329,13.4917572 43.2466904,10.7649524 C47.9510478,8.03814763 49.286531,13.2580708 49.286531,13.2580708 C56.6487641,9.24670263 61.0200766,5.77582579 64.558169,8.11619473 C66.0327338,9.09158629 64.5071359,15.5362522 62.4306013,22.2092785 C62.4306013,22.2092785 67.1019981,22.6038588 66.4489197,26.4803916 C65.7958413,30.3569244 50.8577359,39.6128162 50.8577359,39.6128162 L54.5794057,41.9507861 C54.5794057,41.9507861 52.6178125,44.8846977 51.8455487,46.6647633 C51.0732849,48.4448289 49.1942653,52.5484385 49.1942653,52.5484385 C49.1942653,52.5484385 43.9303052,54.6130785 40.8395514,54.8197414 C37.7487977,55.0264043 32.9652893,53.6335873 32.9652893,53.6335873 C32.9652893,53.6335873 29.6657271,47.0874117 29.2755739,43.2192098 C28.8854207,39.3510079 29.1807104,37.1982164 29.1807104,37.1982164" id="Path-732" transform="translate(47.792580, 31.099820) rotate(-60.000000) translate(-47.792580, -31.099820) "></path>
                <path d="M43.8651465,66.027654 C43.8651465,66.027654 70.0137593,18.3569327 72.7024919,19.2825502 C72.7024919,19.2825502 57.1134543,42.2126291 55.5531268,47.9304064 C53.9927994,53.6481838 46.9399023,68.7594663 48.045184,69.576779 C48.5984364,69.9858875 50.7883351,71.5328069 50.7883351,71.5328069 C53.3651834,70.3690977 92.0566848,38.3810814 92.6778564,39.3539506 C93.1718555,40.1276442 73.4324969,54.0008728 65.9176437,60.7720558 C58.4027905,67.5432389 55.4717835,75.3638859 55.4717835,75.3638859" id="Path-2" transform="translate(68.276054, 47.316565) rotate(-60.000000) translate(-68.276054, -47.316565) "></path>
                <path d="M32.1058685,81.7716201 C32.1058685,81.7716201 40.8020468,69.2204342 43.2161581,61.6312316 C45.6302694,54.0420291 43.987859,37.9638096 43.987859,37.9638096" id="Path-3" transform="translate(38.319691, 59.867715) rotate(-60.000000) translate(-38.319691, -59.867715) "></path>
                <path d="M102.232957,73.8454255 C102.232957,73.8454255 98.4871315,72.3639373 92.9797677,71.5142566 C90.6940606,71.1616158 87.2509938,70.9724059 84.5002965,70.9884944 C81.7672056,71.0044798 79.7285459,71.222447 76.8155855,71.8997951 C69.873178,73.5141067 62.8151134,77.4275674 57.5250208,85.6462702 C49.9632186,97.3943074 52.0419079,114.578937 56.2849484,121.860671 C60.5279888,129.142406 67.7854844,135.797553 84.9647989,141.206041 C102.144113,146.614529 123.816558,144.268377 131.54977,117.643001 C139.282981,91.0176249 110.730242,76.7973695 110.730242,76.7973695 L102.232957,73.8454255 Z" id="Path-774" transform="translate(92.675442, 107.276643) rotate(-40.000000) translate(-92.675442, -107.276643) "></path>
                <path d="M69.6790309,111.383648 C69.6790309,111.383648 66.8417849,116.203723 71.9726491,118.298049 C77.1035132,120.392375 80.9553067,131.432694 80.9553067,131.432694 C80.9553067,131.432694 87.857482,124.572734 93.6519715,124.572734 C99.4464609,124.572734 100.33548,119.823534 100.33548,119.823534" id="Path-775" transform="translate(84.616016, 121.408171) scale(1, -1) translate(-84.616016, -121.408171) "></path>
                <path d="M88.7148118,85.7028541 C88.7148118,85.7028541 85.8775658,90.5229296 91.0084299,92.6172555 C96.1392941,94.7115813 99.9910875,105.751901 99.9910875,105.751901 C99.9910875,105.751901 106.893263,98.8919405 112.687752,98.8919405 C118.482242,98.8919405 119.371261,94.14274 119.371261,94.14274" id="Path-775" transform="translate(103.651797, 95.727377) scale(-1, -1) rotate(-40.000000) translate(-103.651797, -95.727377) "></path>
                <path d="M59.1357405,104.601752 C59.1357405,102.98017 59.368201,101.704565 59.8331219,100.774936 C60.5305032,99.3804932 62.6003749,97.0090627 62.6003749,95.3117351 C62.6003749,93.6264642 57.6122518,83.1732399 47.6360055,63.952062 C53.7937913,76.1320198 58.2410331,83.69037 60.9777306,86.6271126 C65.082777,91.0322266 65.7886883,92.0931117 68.1226593,92.5925341 C69.0786433,92.7970953 71.680155,90.5808611 74.4222998,90.2590543 C76.2503963,90.0445164 78.0724039,90.4580765 79.8883225,91.4997346" id="Path-139"></path>
                <path d="M97.6929445,45.9531074 C98.874601,52.3498087 99.730169,56.8120172 100.259648,59.3397328 C100.789128,61.8674485 102.099664,65.7656544 104.191256,71.0343507 L100.259648,71.0343507 C98.1504113,59.660674 97.2948433,51.3002595 97.6929445,45.9531074 C98.0910457,40.6059553 100.25715,31.3637245 104.191256,18.2264151" id="Path-138"></path>
            </g>
        </g>
    </g>
</svg>