<?xml version="1.0" encoding="UTF-8"?>
<svg width="152px" height="152px" viewBox="0 0 152 152" version="1.1" xmlns="http://www.w3.org/2000/svg" xmlns:xlink="http://www.w3.org/1999/xlink">
    <!-- Generator: Sketch 44.1 (41455) - http://www.bohemiancoding.com/sketch -->
    <title>asparagus</title>
    <desc>Created with Sketch.</desc>
    <defs></defs>
    <g id="Page-1" stroke="none" stroke-width="1" fill="none" fill-rule="evenodd" stroke-linecap="round" stroke-linejoin="round">
        <g id="asparagus" stroke="#979797" stroke-width="2">
            <g id="Group" transform="translate(76.364737, 77.947096) rotate(30.000000) translate(-76.364737, -77.947096) translate(47.364737, -4.552904)">
                <path d="M2.91934434,162.979826 C2.91934434,162.979826 4.89230269,164.608718 6.99383488,164.608718 C9.09536706,164.608718 11.9087222,163.817665 11.9087222,163.817665 C11.9087222,163.817665 10.947549,145.41775 11.9087222,129.800851 C12.5189726,119.885656 14.3803626,102.72987 15.5828817,87.4247956 C15.7725155,85.0112297 17.7866425,79.3740399 17.9360158,77.0881756 C18.0853891,74.8023112 16.2824709,77.3666906 16.3582639,75.9351804 C16.5854291,71.6446882 16.6990435,67.7687974 16.6405724,64.586123 C16.4895096,56.3635343 15.6905594,47.4571649 14.5852956,40.2538434 C14.5139652,39.7889628 15.3711792,38.6671979 15.5828817,37.426135 C15.7945842,36.1850721 15.7079972,33.062311 15.5828817,32.3777689 C15.3803872,31.2698646 14.0540288,33.4844411 13.8022906,32.3777689 C13.4216727,30.704525 13.6727184,27.4114147 13.2690604,25.9661352 C12.8654024,24.5208556 12.1585959,26.7574656 11.9087222,25.9661352 C11.5915234,24.9615917 11.3103735,20.9784635 10.9953819,20.1309098 C10.6803903,19.283356 9.66696938,21.3315989 9.31727658,20.5756359 C8.14756473,18.0469625 6.67556335,15.1221207 5.921056,15.7242128 C5.16654866,16.3263049 5.73340505,19.0119772 5.921056,21.4318948 C5.97273906,22.0983915 4.27825939,21.2345272 4.36780105,22.0376442 C4.45734272,22.8407612 6.2607496,25.8340001 6.37078596,26.701933 C6.41662087,27.0634647 5.16654866,26.7715159 5.16654866,27.896716 C5.16654866,29.0219162 7.55145947,32.9684703 7.69380696,34.2980401 C7.78998559,35.1963784 6.32777261,33.688265 6.37078596,34.8296094 C6.39622956,35.5047464 6.36956067,37.1059517 6.99383488,38.501239 C7.61810908,39.8965263 8.58097662,40.3004204 8.58674099,40.7860954 C8.63536284,44.8827112 8.58804707,49.5477283 8.83530951,53.2867872 C8.943491,54.9226886 5.86351812,52.8863206 5.93899828,54.4927379 C6.01447843,56.0991552 9.21826375,60.6160302 9.2512262,61.8029964 C9.32821081,64.5751843 9.3301348,67.1828176 9.22529594,69.4602458 C8.03967491,95.2156473 5.39324491,108.933817 3.90325263,125.484542 C3.72209734,127.496802 3.5696009,129.423873 3.44236293,131.266644 C3.30750691,133.219745 0.91558762,129.501883 0.833430318,131.266644 C0.751273016,133.031404 2.95449677,141.013071 2.91934434,142.89064 C2.66705989,156.365708 2.91934434,162.979826 2.91934434,162.979826 Z" id="Path-773"></path>
                <path d="M19.3369591,147.987187 C19.3369591,147.987187 21.3099175,149.616079 23.4114497,149.616079 C25.5129818,149.616079 28.3263369,148.825027 28.3263369,148.825027 C28.3263369,148.825027 27.3651638,130.425111 28.3263369,114.808212 C28.4813405,112.289754 28.7170624,109.304163 29.0022033,106.000418 C29.194466,103.772794 31.2792835,97.2624376 31.5068873,94.7911903 C31.7344911,92.319943 29.9606939,95.4324094 30.1287822,93.6272084 C30.4035684,90.6761172 30.6863931,87.6377064 30.9630158,84.5797595 C31.1471458,82.54428 33.9180283,75.8267378 34.0924624,73.7939375 C34.2668965,71.7611372 31.8443651,74.4193202 32.0004965,72.4321568 C32.1901303,70.0185909 32.7000857,62.3740519 32.7758787,60.9425417 C33.0030438,56.6520495 33.1166583,52.7761586 33.0581872,49.5934842 C32.9564906,44.0579788 32.5611664,38.2125785 31.9764296,32.7855115 C31.9185978,32.248762 32.7900587,30.9026019 33.0581872,29.4998034 C33.3263157,28.0970049 33.1399754,25.9026165 33.0581872,25.2612047 C32.9107534,24.1049774 31.1988255,26.5380401 31.0029104,25.2612047 C30.8162445,24.0446498 32.2029909,18.4930344 32.0004965,17.3851301 C31.798002,16.2772258 30.4716436,18.4918024 30.2199054,17.3851301 C29.8392875,15.7118862 30.0903331,12.4187759 29.6866752,10.9734964 C29.2830172,9.52821689 28.5762107,11.7648269 28.3263369,10.9734964 C28.0091382,9.96895299 27.7279883,5.98582475 27.4129967,5.13827101 C27.0980051,4.29071727 26.0845842,6.33896012 25.7348914,5.58299712 C24.5651795,3.05432377 23.0931781,0.129481915 22.3386708,0.731574017 C21.5841634,1.33366612 22.1510198,4.01933847 22.3386708,6.43925607 C22.3903538,7.10575276 20.6958742,6.24188843 20.7854158,7.04500543 C20.8749575,7.84812243 22.6783644,10.8413613 22.7884007,11.7092943 C22.8342357,12.0708259 21.5841634,11.7788771 21.5841634,12.9040773 C21.5841634,14.0292774 22.7648369,17.7032223 22.9071844,19.0327921 C23.0033631,19.9311304 21.5411501,18.423017 21.5841634,19.5643614 C21.6271768,20.7057058 23.8765187,25.8578735 23.7414623,25.7934566 C20.9901451,24.4811805 22.0987675,27.5725971 23.4114497,30.4587353 C24.7241318,33.3448735 25.0667691,33.2801292 25.088154,34.2463449 C25.1195051,35.6628551 25.1694135,37.0313135 25.2529243,38.2941485 C25.3611058,39.9300499 25.7477496,52.1901788 25.6429107,54.467607 C24.4572897,80.2230085 21.8108597,93.9411787 20.3208674,110.491903 C20.1397121,112.504163 19.9872157,118.179394 19.8599777,120.022164 C19.7251217,121.975266 17.3332024,118.257404 17.2510451,120.022164 C17.1688878,121.786924 19.3721116,129.768592 19.3369591,131.64616 C19.0846747,145.121228 19.3369591,147.987187 19.3369591,147.987187 Z" id="Path-773"></path>
                <path d="M42.4423565,149.675561 C42.4423565,149.675561 44.4153149,151.304452 46.5168471,151.304452 C48.6183793,151.304452 51.4317344,150.5134 51.4317344,150.5134 C51.4317344,150.5134 50.4705612,132.113484 51.4317344,116.496586 C52.0419848,106.581391 53.9033748,89.4256045 55.1058939,74.1205304 C55.2955277,71.7069645 57.3096547,66.0697747 57.459028,63.7839104 C57.6084013,61.498046 55.8054831,64.0624254 55.8812761,62.6309152 C56.1084413,58.340423 56.2220557,54.4645322 56.1635846,51.2818578 C56.0125218,43.0592691 55.2135716,34.1528997 54.1083078,26.9495783 C54.0303297,26.4413725 54.8652807,25.4377632 55.1058939,24.0565171 C55.3465071,22.6752709 55.223798,19.7185901 55.1058939,19.0735037 C54.9033994,17.9655994 53.577041,20.1801759 53.3253028,19.0735037 C52.9446849,17.4002598 53.1957306,14.1071495 52.7920726,12.66187 C52.3884146,11.2165904 51.6816081,13.4532004 51.4317344,12.66187 C51.1145356,11.6573265 50.8333857,7.67419831 50.5183941,6.82664457 C50.2034025,5.97909083 49.1899816,8.02733368 48.8402888,7.27137068 C47.6705769,4.74269733 46.1985756,1.81785547 45.4440682,2.41994758 C44.6895609,3.02203968 45.2564172,5.70771203 45.4440682,8.12762963 C45.4957513,8.79412632 43.8012716,7.93026199 43.8908133,8.73337899 C43.9803549,9.53649599 45.7837618,12.5297349 45.8937982,13.3976678 C45.9396331,13.7591995 44.6895609,13.4672507 44.6895609,14.5924508 C44.6895609,15.717651 47.0744717,19.6642051 47.2168192,20.9937749 C47.3129978,21.8921132 45.8507848,20.3839998 45.8937982,21.5253442 C45.9174788,22.153701 45.9215183,23.7814393 46.5168471,25.0947503 C47.1121758,26.4080614 48.1034104,26.9474216 48.1097532,27.4818302 C48.158375,31.578446 48.1110593,36.2434631 48.3583217,39.982522 C48.4665032,41.6184234 45.3865303,39.5820554 45.4620105,41.1884727 C45.5374906,42.79489 48.7412759,47.311765 48.7742384,48.4987312 C48.851223,51.2709191 48.853147,53.8785524 48.7483081,56.1559806 C48.340317,65.0188257 47.759343,72.4562725 47.1120357,79.0742462 C46.9450858,80.7811171 44.863506,77.5420965 44.6895609,79.1503405 C44.5156157,80.7585844 46.206955,87.5883759 46.0082546,89.2933169 C45.0731381,97.3170453 44.1231971,104.438804 43.4262648,112.180277 C43.2451095,114.192536 43.0926131,116.119608 42.9653751,117.962378 C42.8305191,119.91548 40.4385998,116.197618 40.3564425,117.962378 C40.2742852,119.727138 42.477509,127.708806 42.4423565,129.586374 C42.1900721,143.061442 42.4423565,149.675561 42.4423565,149.675561 Z" id="Path-773" transform="translate(48.911014, 76.822340) scale(-1, 1) translate(-48.911014, -76.822340) "></path>
            </g>
        </g>
    </g>
</svg>