<?xml version="1.0" encoding="UTF-8"?>
<svg width="152px" height="152px" viewBox="0 0 152 152" version="1.1" xmlns="http://www.w3.org/2000/svg" xmlns:xlink="http://www.w3.org/1999/xlink">
    <!-- Generator: Sketch 44.1 (41455) - http://www.bohemiancoding.com/sketch -->
    <title>leek</title>
    <desc>Created with Sketch.</desc>
    <defs></defs>
    <g id="Page-1" stroke="none" stroke-width="1" fill="none" fill-rule="evenodd">
        <g id="leek" stroke="#979797" stroke-width="2">
            <g id="Group" transform="translate(69.500000, 81.000000) rotate(45.000000) translate(-69.500000, -81.000000) translate(38.000000, -2.000000)">
                <path d="M29.4893617,67.1402381 C32.52966,56.1728344 34.4651858,49.5552658 35.2959393,47.2875324 C36.1266928,45.0197989 41.5897166,31.5880607 51.6850105,6.99231764 C57.7473665,8.27313512 61.1950619,7.54794609 62.0280965,4.81675055 C62.7315777,2.51031031 60.8023896,0.0854582373 58.8775299,1.28619839 L55.6832028,7.32152425 C57.7348126,3.30425479 58.7995883,1.29247951 58.8775299,1.28619839 C61.2646258,1.09382831 62.84931,2.47261653 62.0280965,5.42256307 C61.1666627,8.5169886 52.3871045,35.8995245 35.6894221,87.5701708" id="Path-790"></path>
                <path d="M30.6397531,29.6798621 L35.2914751,3.91292353 C37.842236,2.43022518 39.625975,1.57907986 40.6426921,1.35948756 C41.6594092,1.13989525 43.6699475,1.13989525 46.6743072,1.35948756 L42.7973506,28.8964708" id="Path-792"></path>
                <path d="M19.7491703,158.792189 C19.459917,156.874771 23.1244601,139.630298 22.787234,122.759052 C22.450008,105.887805 22.6632719,93.451115 21.5915155,86.4258658 C20.3414486,78.2318107 14.3445438,66.1176811 10.0890038,54.8157576 C7.25197705,47.2811419 4.09762176,35.2298458 0.625937893,18.6618693 C0.887692203,15.8651494 1.85551199,13.6247919 3.52939724,11.9407965 C5.20328249,10.2568012 7.30702911,8.77930045 9.84063709,7.50829418 C15.130276,24.4970848 19.0472355,36.6554977 21.5915155,43.9835331 C25.4079355,54.9755863 34.292013,77.7353356 35.9241516,89.5873016 C37.1728746,98.6550503 36.1732488,113.080613 35.7853157,128.327058 C35.3973827,143.573503 38.1863452,156.506658 37.6906636,158.792189 C36.9926082,162.010843 34.2588409,164.194592 29.4893617,165.343437 C24.8971231,166.466201 20.2760159,162.284573 19.7491703,158.792189 Z" id="Path-789"></path>
                <path d="M12.2388673,14.1190713 C14.4746843,10.2705734 16.2494046,7.74801121 17.5630281,6.55138473 C18.8766516,5.35475825 21.2782769,4.07293835 24.767904,2.70592502 L34.7247812,49.1313044" id="Path-791"></path>
            </g>
        </g>
    </g>
</svg>