<?xml version="1.0" encoding="UTF-8"?>
<svg width="152px" height="152px" viewBox="0 0 152 152" version="1.1" xmlns="http://www.w3.org/2000/svg" xmlns:xlink="http://www.w3.org/1999/xlink">
    <!-- Generator: Sketch 44.1 (41455) - http://www.bohemiancoding.com/sketch -->
    <title>lemon</title>
    <desc>Created with Sketch.</desc>
    <defs></defs>
    <g id="Page-1" stroke="none" stroke-width="1" fill="none" fill-rule="evenodd">
        <g id="lemon" stroke="#EEC93E" stroke-width="2">
            <g id="Group" transform="translate(6.000000, 12.000000)">
                <path d="M0.649264532,39.2763236 C-0.589503072,30.034375 0.935732052,23.0589228 6.6942252,16.6571923 C8.31315986,14.8574188 8.77225426,10.1868005 10.7847561,8.67639526 C12.7972579,7.16599002 18.1260763,7.87061085 19.9916735,6.8465876 C38.5542282,-3.34236844 66.0495312,-2.43942967 85.7158167,16.6571923 C110.849354,41.0626994 118.161511,77.1720137 103.886106,98.1899375 C102.042628,100.904122 105.936094,109.719562 101.67129,112.689443 C97.4064849,115.659324 91.1743042,111.440209 88.4519825,112.689443 C79.3718179,116.856201 68.0446459,116.71558 52.9489798,112.689443" id="Path-632" stroke-linecap="round" stroke-linejoin="round" transform="translate(55.678299, 58.079372) scale(-1, 1) translate(-55.678299, -58.079372) "></path>
                <path d="M56.5199384,95.3158697 C56.5199384,95.3158697 61.0628752,107.456956 66.4438035,111.253114 C71.8247317,115.049273 79.8417293,116.488007 79.8417293,116.488007 C80.7774553,116.928559 84.5541645,83.3098897 84.5541645,83.3098897 L56.5199384,95.3158697 Z" id="Path-715" stroke-linejoin="round"></path>
                <ellipse id="Oval-36" transform="translate(89.333422, 79.518806) rotate(30.000000) translate(-89.333422, -79.518806) " cx="89.3334222" cy="79.5188056" rx="37.7421849" ry="45.6953475"></ellipse>
                <path d="M72.5,52.8495146 L87.1102029,76.0485794 L97.7415933,41.4772027 C91.4299351,41.9969693 86.3482158,43.0850292 82.4964353,44.7413824 C78.6446548,46.3977356 75.3125097,49.1004464 72.5,52.8495146 Z" id="Path-794" stroke-linejoin="round"></path>
                <path d="M89.3354178,84.3652411 L85.4448346,117.081989 C90.6167432,116.008313 95.8766239,113.910445 101.224477,110.788385 C106.572329,107.666325 111.377176,103.358772 115.639016,97.8657256 L89.3354178,84.3652411 Z" id="Path-796" stroke-linejoin="round"></path>
                <path d="M61.1679033,115.389272 C71.0744367,126.366651 97.8481017,139.187562 121.254634,122.057337 C122.55757,121.103775 125.112691,120.953495 126.39127,119.808833 C127.846764,118.505784 128.13194,116.454954 129.106817,114.860891 C143.966779,90.5627286 136.02894,60.6718796 119.739094,45.7893846" id="Path-798"></path>
                <path d="M92.7999087,80.9970491 L122.245053,62.9388447 C123.375819,68.3027043 123.642593,73.1943435 123.045375,77.6137623 C122.448157,82.0331811 120.799354,87.3685706 118.098967,93.6199309 L92.7999087,80.9970491 Z" id="Path-797" stroke-linejoin="round"></path>
                <path d="M82.5909502,78.5618541 L55.8175371,89.1263277 C55.9686472,82.3822884 56.8810932,76.572136 58.5548749,71.6958705 C60.2286566,66.8196049 63.2813866,61.8861061 67.7130649,56.895374 L82.5909502,78.5618541 Z" id="Path-793" stroke-linejoin="round"></path>
                <path d="M91.3258975,76.7449251 L102.795061,42.9908096 C107.370041,44.2303068 110.691248,45.6611637 112.758683,47.2833803 C114.826117,48.905597 117.580235,52.2417555 121.021035,57.291856 L91.3258975,76.7449251 Z" id="Path-795" stroke-linejoin="round"></path>
            </g>
        </g>
    </g>
</svg>