<?xml version="1.0" encoding="UTF-8"?>
<svg width="152px" height="152px" viewBox="0 0 152 152" version="1.1" xmlns="http://www.w3.org/2000/svg" xmlns:xlink="http://www.w3.org/1999/xlink">
    <!-- Generator: Sketch 44.1 (41455) - http://www.bohemiancoding.com/sketch -->
    <title>lemongrass</title>
    <desc>Created with Sketch.</desc>
    <defs></defs>
    <g id="Page-1" stroke="none" stroke-width="1" fill="none" fill-rule="evenodd" stroke-linecap="round" stroke-linejoin="round">
        <g id="lemongrass" stroke="#979797" stroke-width="2">
            <path d="M-4.61909686,100.862667 C1.16570753,98.4346615 8.50038349,98.9417306 12.2847808,98.040205 C16.5192669,97.0314584 42.8243837,87.8539288 70.5996408,73.3704451 C74.2776078,71.4525592 85.9972022,65.2361158 89.3311097,62.6260593 C92.2327249,60.3544366 103.467187,52.4339655 116.525881,44.414176 C129.584574,36.3943865 145.589378,28.2601806 145.589378,28.2601806 C145.589378,28.2601806 97.9961347,57.5200962 98.8350474,59.5185716 C98.920905,59.7231034 119.007946,48.4031455 125.917835,45.2584065 C132.827725,42.1136676 148.760524,34.1819727 148.760524,34.1819727 C148.760524,34.1819727 131.137205,44.5785963 121.215069,49.8017235 C115.257346,52.9379379 104.091522,60.3651001 95.7372256,65.5160292 C87.3829291,70.6669583 86.2864518,71.2227533 86.2864518,71.2227533 C86.2864518,71.2227533 124.638557,51.0581582 139.555718,44.5262928 C154.472879,37.9944274 156.131498,37.9944274 156.131498,37.9944274 C156.131498,37.9944274 94.2354408,70.7746709 97.132256,69.1755813 C98.6877747,68.3169095 118.74135,59.6418539 135.046829,53.5078474 C151.352308,47.3738409 160.710837,44.1132134 160.710837,44.1132134 C160.710837,44.1132134 144.397114,50.7571308 136.999601,53.8521738 C129.602088,56.9472168 109.794589,66.2343228 109.794589,66.2343228 C109.794589,66.2343228 125.46095,59.9052538 133.14276,57.2551897 C140.824569,54.6051256 155.485362,50.4719592 155.485362,50.4719592 C155.485362,50.4719592 114.871643,66.55936 118.46138,65.4186692 C122.051117,64.2779783 156.131498,58.4611869 156.131498,58.4611869 C156.131498,58.4611869 128.878339,65.3568519 115.57682,69.014285 C97.1467951,74.0818703 94.2983896,75.1986113 78.3703141,80.3039131 C68.7200258,83.3970448 28.2675499,100.610748 18.7960922,104.30837 C11.9503429,106.718666 7.78555716,110.856369 1.36063972,113.466167 C-4.77350105,115.957852 -10.1937005,113.978387 -11.5617645,111.187598 C-12.9298285,108.39681 -10.4039012,103.290673 -4.61909686,100.862667 Z" id="Path-782" transform="translate(74.392538, 71.432379) rotate(-20.000000) translate(-74.392538, -71.432379) "></path>
        </g>
    </g>
</svg>