<?xml version="1.0" encoding="UTF-8"?>
<svg width="152px" height="152px" viewBox="0 0 152 152" version="1.1" xmlns="http://www.w3.org/2000/svg" xmlns:xlink="http://www.w3.org/1999/xlink">
    <!-- Generator: Sketch 44.1 (41455) - http://www.bohemiancoding.com/sketch -->
    <title>lentils</title>
    <desc>Created with Sketch.</desc>
    <defs></defs>
    <g id="Page-1" stroke="none" stroke-width="1" fill="none" fill-rule="evenodd">
        <g id="lentils" stroke="#F95604" stroke-width="2.2">
            <g id="Group-2" transform="translate(0.000000, 1.000000)">
                <path d="M111.167556,70.20787 C77.0270186,77.9923563 97.5301595,123.562047 126.105469,121.70366 C159.108961,119.557287 146.991926,72.2539912 115.018685,69.9449379 C115.018685,69.9449379 113.717635,69.9002522 113.06313,69.9449379 C112.408625,69.9896236 111.167556,70.20787 111.167556,70.20787 Z" id="Path-298" transform="translate(119.521348, 95.842004) rotate(150.000000) translate(-119.521348, -95.842004) "></path>
                <g id="Group" transform="translate(40.664712, 52.059543) rotate(20.000000) translate(-40.664712, -52.059543) translate(14.164712, 7.059543)">
                    <path d="M18.209442,0.508284962 C-15.9310951,8.29277126 4.57204579,53.8624618 33.1473549,52.0040747 C66.1508472,49.8577019 54.0338127,2.55440617 22.0605714,0.245352899 C22.0605714,0.245352899 20.7595213,0.200667197 20.105016,0.245352899 C19.4505108,0.290038601 18.209442,0.508284962 18.209442,0.508284962 Z" id="Path-298"></path>
                    <path d="M19.1847289,49.2122616 C12.9089072,51.2924541 7.63452573,57.2214066 4.33430543,63.1411598 C-13.9696718,95.973825 48.6867091,99.554537 50.9855818,68.2995282 C51.5877519,60.1125445 49.6800579,53.2649264 42.362404,49.6040451" id="Path-299"></path>
                </g>
                <path d="M108.306726,58.2323296 C64.0865981,70.2695604 88.7169944,25.9999974 113.735814,20.8889126 C166.076949,10.1961628 143.776773,46.008745 111.54157,57.291732 L108.306726,58.2323296 Z" id="Path-300"></path>
                <path d="M56.3067258,144.553498 C12.0865981,156.590728 36.7169944,112.321165 61.7358139,107.21008 C114.076949,96.5173307 91.7767727,132.329913 59.5415699,143.6129 L56.3067258,144.553498 Z" id="Path-300" transform="translate(62.453122, 125.930230) rotate(40.000000) translate(-62.453122, -125.930230) "></path>
            </g>
        </g>
    </g>
</svg>