<?xml version="1.0" encoding="UTF-8"?>
<svg width="152px" height="152px" viewBox="0 0 152 152" version="1.1" xmlns="http://www.w3.org/2000/svg" xmlns:xlink="http://www.w3.org/1999/xlink">
    <!-- Generator: Sketch 46.2 (44496) - http://www.bohemiancoding.com/sketch -->
    <title>lettuce</title>
    <desc>Created with Sketch.</desc>
    <defs></defs>
    <g id="Page-1" stroke="none" stroke-width="1" fill="none" fill-rule="evenodd" stroke-linecap="round" stroke-linejoin="round">
        <g id="lettuce" stroke="#979797" stroke-width="2">
            <g id="Group" transform="translate(6.000000, 21.000000)">
                <path d="M67.4919421,35.7555058 C77.4666387,35.7555058 82.0856361,50.6620467 80.7972512,60.4268612 C80.6226963,61.7498322 87.292325,52.9463527 90.7639585,56.4268612 C93.0783809,58.7472002 91.9747149,68.847495 87.4529606,86.7277457 C86.9910468,87.5667295 86.4788975,88.7243576 85.9165128,90.20063 C84.9568356,93.078599 81.9213639,97.3550309 76.8100974,103.029926 C81.8854758,96.9249646 84.9209476,92.6485327 85.9165128,90.20063 C87.4098606,86.528776 90.8666695,78.424811 92.4026689,76.5397433 C96.5095038,71.4995969 95.6529829,81.6948546 96.8588946,78.4248772 C97.8915675,75.6246577 106.672602,47.6043293 111.412032,43.8758825 C114.601996,41.3663796 117.579077,41.6993566 120.343275,44.8748135 C123.990809,34.0874215 129.122536,30.6496918 135.738457,34.5616245 C140.19299,37.1955486 139.327743,43.2246156 133.142715,52.6488254 C132.722073,53.8251874 140.558346,48.8463959 138.875936,56.765134 C137.754329,62.0442927 133.224122,69.1147584 125.285315,77.976531 C129.046046,77.0559181 130.123361,78.3748183 128.517261,81.9332316 C126.911161,85.4916449 121.520373,89.1690475 112.344896,92.9654395 C104.243718,100.177526 94.1572983,104.427435 82.0856361,105.715168 C98.1560137,93.554132 108.934689,84.2736454 114.421661,77.8737088 C119.908633,71.4737721 123.529851,63.4032181 125.285315,53.6620467 C122.802954,64.2510624 119.181736,72.3216165 114.421661,77.8737088 C109.661586,83.4258011 98.8829113,92.7062877 82.0856361,105.715168 L67.4919421,107.684895 L63,107.242393 C64.953178,108.517003 66.6085196,109.16415 67.9660248,109.183834 C69.32353,109.203518 71.6283919,108.556372 74.8806104,107.242393" id="Path-133"></path>
                <path d="M0,35.9056247 C9.97469662,35.9056247 14.593694,50.8121656 13.3053091,60.5769801 C13.1307543,61.8999511 19.800383,53.0964717 23.2720165,56.5769801 C25.5864388,58.8973191 24.4827729,68.9976139 19.9610186,86.8778646 C19.4991047,87.7168484 18.9869554,88.8744765 18.4245707,90.350749 C17.4648936,93.2287179 14.4294218,97.5051498 9.31815537,103.180045 C14.3935337,97.0750836 17.4290055,92.7986516 18.4245707,90.350749 C19.9179185,86.678895 23.3747275,78.5749299 24.9107268,76.6898623 C29.0175618,71.6497158 28.1610409,81.8449736 29.3669525,78.5749961 C30.5728641,75.3050187 31.3062205,56.3530666 33.2522599,52.6292317 C35.1982994,48.9053968 40.2302344,56.9364775 41.6335831,53.8121656 C42.7331486,46.5915271 44.8627412,41.7383923 48.0223609,39.252761 C51.2123251,36.7432582 53.4045887,37.0567423 54.5991516,40.1932135 C61.4246839,30.25601 66.0196313,28.3748589 68.3839937,34.5497603 C69.7750899,38.182825 68.2218003,45.0216311 65.4360733,52.8121656 C65.0154316,53.9885276 70.0664042,49.9965148 68.3839937,57.9152529 C67.2623868,63.1944116 62.7321798,70.2648773 54.7933726,79.1266499 C58.5541039,78.2060371 59.6314194,79.5249373 58.0253192,83.0833505 C56.419219,86.6417638 51.3617638,89.9858331 42.8529535,93.1155584 C34.751776,100.327645 25.3320229,104.577554 14.593694,105.865287 C30.6640716,93.7042509 41.4427466,84.4237644 46.9297189,78.0238277 C52.4166912,71.623891 55.0379091,63.8866703 54.7933726,54.8121656 C54.3110115,64.7345147 51.6897936,72.4717354 46.9297189,78.0238277 C42.1696442,83.57592 31.3909692,92.8564066 14.593694,105.865287 L0,107.835014 C2.36215176,94.8770547 3.58971542,84.9742668 3.68269096,78.1266499 C3.77566651,71.279033 2.81259498,61.7020684 0.793476351,49.3957561" id="Path-133" transform="translate(34.451096, 69.417507) scale(-1, 1) translate(-34.451096, -69.417507) "></path>
                <path d="M25.2228851,41.5502898 C20.9467636,35.9903486 19.7343502,32.2872075 21.585645,30.4408667 C23.4369398,28.5945258 26.8205023,28.5945258 31.7363324,30.4408667 C28.6683517,13.1554976 30.4592602,4.51281308 37.1090579,4.51281308 C47.0837545,4.51281308 54.6223293,20.6760522 53.3339444,30.4408667 C53.1593896,31.7638377 57.4428585,20.2616159 60.914492,23.7421244 C63.2289144,26.0624634 64.0722865,31.1820628 63.4446084,39.1009226" id="Path-133" transform="translate(42.196057, 23.031551) scale(-1, 1) translate(-42.196057, -23.031551) "></path>
                <path d="M76.476246,41.144283 C72.2001245,35.5843417 70.9877111,31.8812007 72.8390059,30.0348599 C74.6903007,28.188519 78.0738632,28.188519 82.9896933,30.0348599 C78.9394456,12.8844997 80.2392205,4.30931955 86.8890183,4.30931955 C96.8637149,4.30931955 105.87569,20.2700454 104.587305,30.0348599 C104.41275,31.3578309 108.696219,19.8556091 112.167853,23.3361176 C114.482275,25.6564565 115.271111,31.5925117 114.534359,41.144283" id="Path-133"></path>
                <path d="M54.2886931,12.7451316 C56.8001011,4.79018061 61.006737,0.761142405 66.9086008,0.658016958 C72.8104646,0.554891511 77.3102084,4.8960868 80.4078321,13.6816028" id="Path-133"></path>
                <path d="M43.8352471,19.9410969 C41.5612214,27.2778659 40.2644327,33.4218263 39.9448809,38.3729783 C39.6253292,43.3241302 40.0871879,50.1166229 41.3304568,58.7504563" id="Path-845"></path>
                <path d="M97.9883748,23 C95.7143491,30.336769 94.4175604,36.4807295 94.0980086,41.4318814 C93.7784569,46.3830333 94.2403156,53.175526 95.4835845,61.8093594" id="Path-845" transform="translate(95.994187, 42.404680) scale(-1, 1) translate(-95.994187, -42.404680) "></path>
                <path d="M66.923513,8.62652388 C68.8617844,21.1380125 69.0722571,29.9100691 67.5549311,34.9426938" id="Path-845"></path>
            </g>
        </g>
    </g>
</svg>