<?xml version="1.0" encoding="UTF-8"?>
<svg width="152px" height="152px" viewBox="0 0 152 152" version="1.1" xmlns="http://www.w3.org/2000/svg" xmlns:xlink="http://www.w3.org/1999/xlink">
    <!-- Generator: Sketch 44.1 (41455) - http://www.bohemiancoding.com/sketch -->
    <title>macademia</title>
    <desc>Created with Sketch.</desc>
    <defs></defs>
    <g id="Page-1" stroke="none" stroke-width="1" fill="none" fill-rule="evenodd" stroke-linecap="round">
        <g id="macademia" stroke="#FF659B">
            <g id="Group-2" transform="translate(-6.000000, -7.000000)">
                <g id="Group" transform="translate(49.726724, 50.736586) rotate(340.000000) translate(-49.726724, -50.736586) translate(11.726724, 11.236586)" stroke-width="2.2" stroke-linejoin="round">
                    <path d="M38.1268668,78.0868671 C38.1268668,78.0868671 16.7512113,79.73393 4.97530627,61.6440767 C-6.80059876,43.5542233 4.91501997,28.8636411 13.4776903,21.8510516 C22.0403606,14.8384622 26.5958527,14.7227329 31.4468828,9.62241713 C36.2979129,4.52210136 38.0438531,0.154960939 38.0438531,0.154960939" id="Path-234"></path>
                    <path d="M75.4541547,78.0868671 C75.4541547,78.0868671 54.0784992,79.73393 42.3025942,61.6440767 C30.5266891,43.5542233 42.2423079,28.8636411 50.8049782,21.8510516 C59.3676485,14.8384622 63.9231406,14.7227329 68.7741707,9.62241713 C73.6252008,4.52210136 74.7375965,0.391921405 74.7375965,0.391921405" id="Path-234" transform="translate(56.390721, 39.258937) scale(-1, 1) translate(-56.390721, -39.258937) "></path>
                </g>
                <path d="M38.0680364,29.1965159 C38.0680364,29.1965159 38.2735454,32.4514911 34.8381678,37.498868 C31.4027902,42.5462449 27.6461285,47.0363442 26.1830734,51.1937503 C22.9078089,60.5007172 26.1830734,68.4312155 26.1830734,68.4312155" id="Path-690" stroke-width="1.5"></path>
                <path d="M68.5934882,17.9782548 C68.5934882,17.9782548 68.7989971,21.2332299 65.3636196,26.2806069 C61.928242,31.3279838 58.1715802,35.8180831 56.7085252,39.9754891 C53.4332607,49.282456 56.7085252,57.2129544 56.7085252,57.2129544" id="Path-690" stroke-width="1.5" transform="translate(61.924343, 37.595605) scale(-1, 1) rotate(40.000000) translate(-61.924343, -37.595605) "></path>
            </g>
            <g id="Group-2" transform="translate(105.118257, 103.484283) rotate(30.000000) translate(-105.118257, -103.484283) translate(55.618257, 52.984283)">
                <g id="Group" transform="translate(49.726724, 50.736586) rotate(340.000000) translate(-49.726724, -50.736586) translate(11.726724, 11.236586)" stroke-width="2.2" stroke-linejoin="round">
                    <path d="M38.1268668,78.0868671 C38.1268668,78.0868671 16.7512113,79.73393 4.97530627,61.6440767 C-6.80059876,43.5542233 4.91501997,28.8636411 13.4776903,21.8510516 C22.0403606,14.8384622 26.5958527,14.7227329 31.4468828,9.62241713 C36.2979129,4.52210136 38.0438531,0.154960939 38.0438531,0.154960939" id="Path-234"></path>
                    <path d="M75.4541547,78.0868671 C75.4541547,78.0868671 54.0784992,79.73393 42.3025942,61.6440767 C30.5266891,43.5542233 42.2423079,28.8636411 50.8049782,21.8510516 C59.3676485,14.8384622 63.9231406,14.7227329 68.7741707,9.62241713 C73.6252008,4.52210136 74.7375965,0.391921405 74.7375965,0.391921405" id="Path-234" transform="translate(56.390721, 39.258937) scale(-1, 1) translate(-56.390721, -39.258937) "></path>
                </g>
                <path d="M38.0680364,29.1965159 C38.0680364,29.1965159 38.2735454,32.4514911 34.8381678,37.498868 C31.4027902,42.5462449 27.6461285,47.0363442 26.1830734,51.1937503 C22.9078089,60.5007172 26.1830734,68.4312155 26.1830734,68.4312155" id="Path-690" stroke-width="1.5"></path>
                <path d="M68.5934882,17.9782548 C68.5934882,17.9782548 68.7989971,21.2332299 65.3636196,26.2806069 C61.928242,31.3279838 58.1715802,35.8180831 56.7085252,39.9754891 C53.4332607,49.282456 56.7085252,57.2129544 56.7085252,57.2129544" id="Path-690" stroke-width="1.5" transform="translate(61.924343, 37.595605) scale(-1, 1) rotate(40.000000) translate(-61.924343, -37.595605) "></path>
            </g>
        </g>
    </g>
</svg>