<?xml version="1.0" encoding="UTF-8"?>
<svg width="152px" height="152px" viewBox="0 0 152 152" version="1.1" xmlns="http://www.w3.org/2000/svg" xmlns:xlink="http://www.w3.org/1999/xlink">
    <!-- Generator: Sketch 44.1 (41455) - http://www.bohemiancoding.com/sketch -->
    <title>mango</title>
    <desc>Created with Sketch.</desc>
    <defs></defs>
    <g id="Page-1" stroke="none" stroke-width="1" fill="none" fill-rule="evenodd">
        <g id="mango" stroke="#FF7C1E" stroke-width="2">
            <g id="Group" transform="translate(8.000000, 18.000000)">
                <path d="M118.451741,41.8535067 C118.451741,41.8535067 112.518264,29.0989539 93.5948007,22.4731556 C74.6713374,15.8473574 45.1579065,23.6480897 22.7291018,44.0917429 C0.300297088,64.5353962 -4.29800675,95.7276053 5.98237453,107.468274 C8.99420617,110.907924 16.7072755,112.482456 23.8171018,112.482456 C24.7714991,112.482456 33.3517713,111.901891 42.9637578,113.214818 C52.5757443,114.527746 66.5828613,115.851589 72.0368757,115.851589 C80.1155062,115.851589 100.086898,112.552825 110.861682,101.217488 C137.301063,73.4026101 123.73825,49.9808836 119.940844,44.0917429 C116.143437,38.2026023 119.364885,43.1491763 119.364885,43.1491763 L127.179832,38.6536437 C127.179832,38.6536437 137.565349,39.2644849 135.244543,24.7305663 C134.148884,17.869061 120.486131,14.5639334 112.222213,9.72393391 C103.958295,4.88393441 99.1210455,1.42108547e-14 99.1210455,1.42108547e-14 C99.1210455,1.42108547e-14 111.505845,22.383538 113.141976,24.7305663 C120.540967,35.3444119 126.243734,37.7267517 126.243734,37.7267517 L118.451741,41.8535067 Z" id="Path-637" stroke-linejoin="round"></path>
                <path d="M127.020861,37.5719955 C135.577666,28.439424 123.210919,22.428635 116.416,16.4150943" id="Path-638" stroke-linecap="round"></path>
            </g>
        </g>
    </g>
</svg>