<?xml version="1.0" encoding="UTF-8"?>
<svg width="152px" height="152px" viewBox="0 0 152 152" version="1.1" xmlns="http://www.w3.org/2000/svg" xmlns:xlink="http://www.w3.org/1999/xlink">
    <!-- Generator: Sketch 44.1 (41455) - http://www.bohemiancoding.com/sketch -->
    <title>maple syrup</title>
    <desc>Created with Sketch.</desc>
    <defs></defs>
    <g id="Page-1" stroke="none" stroke-width="1" fill="none" fill-rule="evenodd">
        <g id="maple-syrup" stroke="#FF0000">
            <path d="M77.6722218,144.240269 L53.961621,144.240269 C53.961621,144.240269 47.9806104,144.227961 45.9340363,140.208828 C43.8874622,136.189696 43.3306276,130.958453 43.3306276,130.958453 L39.2501699,78.510538 C39.2501699,78.510538 38.1635516,66.2854698 40.5195829,60.6321798 C42.8756142,54.9788898 52.1123113,47.6478685 52.1123113,47.6478685 C52.1123113,47.6478685 56.9958295,43.7015023 58.3361109,41.9573005 C59.6763922,40.2130987 61.0478755,36.0193945 61.0478755,36.0193945 C61.0478755,36.0193945 61.0387684,32.3393055 61.465218,30.9414375 C61.8916677,29.5435695 63.1579865,29.1026182 63.1579865,29.1026182 L63.2389893,23.4471205 L59.4214049,23.4675864 L59.3685275,11.2274475 C59.3685275,11.2274475 59.4214049,9.45001075 60.1692829,8.86827235 C60.9171609,8.28653395 62.7727474,8.25666737 62.7727474,8.25666737 L76.2749951,8" id="Path-369" stroke-width="2.2" stroke-linecap="round" stroke-linejoin="round"></path>
            <path d="M112.672222,144.240269 L88.961621,144.240269 C88.961621,144.240269 82.9806104,144.227961 80.9340363,140.208828 C78.8874622,136.189696 78.3306276,130.958453 78.3306276,130.958453 L74.2501699,78.510538 C74.2501699,78.510538 73.1635516,66.2854698 75.5195829,60.6321798 C77.8756142,54.9788898 87.1123113,47.6478685 87.1123113,47.6478685 C87.1123113,47.6478685 91.9958295,43.7015023 93.3361109,41.9573005 C94.6763922,40.2130987 96.0478755,36.0193945 96.0478755,36.0193945 C96.0478755,36.0193945 96.0387684,32.3393055 96.465218,30.9414375 C96.8916677,29.5435695 98.1579865,29.1026182 98.1579865,29.1026182 L98.2389893,23.4471205 L94.4214049,23.4675864 L94.3685275,11.2274475 C94.3685275,11.2274475 94.4214049,9.45001075 95.1692829,8.86827235 C95.9171609,8.28653395 97.7727474,8.25666737 97.7727474,8.25666737 L111.274995,8" id="Path-369" stroke-width="2.2" stroke-linecap="round" stroke-linejoin="round" transform="translate(93.336111, 76.120134) scale(-1, 1) translate(-93.336111, -76.120134) "></path>
            <path d="M50.211333,127.477587 C50.211333,127.477587 68.0382582,129.453753 76.6223774,129.453753 C85.2064966,129.453753 103.004128,127.477587 103.004128,127.477587 L106.244755,78.0891395 C106.244755,78.0891395 99.0706895,55 76.6223774,55 C54.1740653,55 47,78.0891395 47,78.0891395 L50.211333,127.477587 Z" id="Path-374" stroke-width="2.2" stroke-linecap="round" stroke-linejoin="round"></path>
            <path d="M63,23.0997239 L88.6488106,23.1002761" id="Path-381" stroke-width="2.2"></path>
            <path d="M90,30.1044797 C90,30.1044797 91.1167512,26.9251599 99.7861495,25.2997987 C108.455548,23.6744376 110.329245,29.1876746 110.329245,29.1876746 C110.329245,29.1876746 112.303847,32.3513887 110.329245,40.4561401 C108.354642,48.5608916 101.298048,48.6100651 101.298048,48.6100651" id="Path-383" stroke-width="2"></path>
            <path d="M91,35.2450367 C91,35.2450367 91.9967448,31.3714849 97.9286013,30.2155776 C103.860458,29.0596704 105.863057,32.9287422 105.863057,32.9287422 C105.863057,32.9287422 106.331276,34.160588 105.863057,39.1679415 C105.394839,44.175295 97.2452003,44.6879717 97.2452003,44.6879717" id="Path-383" stroke-width="2"></path>
            <polygon id="Path-384" stroke-width="1.5" points="72.8089743 118.441691 80.1463881 118.459544 79.3044191 108.126677 88.8535192 109.391059 88.2579279 104.460648 98.9089434 96.4665842 94.9733273 94.6855233 97.125026 87.0292467 90.1296844 87.9772653 88.6064274 84.6072467 83.7313624 89.4955233 85.6998845 78.6427637 80.9451518 80.3274159 76.4189433 73 71.8755955 80.3752632 66.8759134 78.2457028 68.9297751 89.1113169 64.2100351 84.7293643 62.6824933 87.9469144 55.3850712 86.8064356 57.2371889 94.5180579 54 96.1470073 64.7695625 105.074807 63.4469784 108.89509 73.2135336 108.486603"></polygon>
        </g>
    </g>
</svg>