<?xml version="1.0" encoding="UTF-8"?>
<svg width="152px" height="152px" viewBox="0 0 152 152" version="1.1" xmlns="http://www.w3.org/2000/svg" xmlns:xlink="http://www.w3.org/1999/xlink">
    <!-- Generator: Sketch 44.1 (41455) - http://www.bohemiancoding.com/sketch -->
    <title>mayo</title>
    <desc>Created with Sketch.</desc>
    <defs></defs>
    <g id="Page-1" stroke="none" stroke-width="1" fill="none" fill-rule="evenodd" stroke-linecap="round" stroke-linejoin="round">
        <g id="mayo" stroke="#F95604" stroke-width="2">
            <g id="Group" transform="translate(29.000000, 4.000000)">
                <path d="M63.1703539,0 L18.7225981,0 C18.7225981,0 13.824796,0 13.824796,5.47749673 C13.824796,10.9549935 17.9968158,12.1155711 17.9968158,12.1155711 L63.1703539,12.1155711 L18.547911,12.1155711 L20.3156239,12.5491658 C18.6297764,14.506107 21.1698516,18.6435309 21.1698516,18.6435309 C21.1698516,18.6435309 9.48773891,22.9680699 5.51466652,28.3679427 C1.54159414,33.7678155 0.808649144,45.6801362 0.808649144,45.6801362 L0.808649144,127.832844 C0.808649144,127.832844 0.808649144,137.805014 5.51466652,140.773106 C10.2206839,143.741198 22.5629516,143.856722 22.5629516,143.856722 L53.3677532,143.856722" id="Path-652"></path>
                <path d="M93.3677532,0 L48.9199974,0 C48.9199974,0 44.0221953,0 44.0221953,5.47749673 C44.0221953,10.9549935 48.194215,12.1155711 48.194215,12.1155711 L93.3677532,12.1155711 L48.7453103,12.1155711 L50.5130232,12.5491658 C48.8271757,14.506107 51.3672509,18.6435309 51.3672509,18.6435309 C51.3672509,18.6435309 39.6851382,22.9680699 35.7120658,28.3679427 C31.7389934,33.7678155 31.0060484,45.6801362 31.0060484,45.6801362 L31.0060484,127.832844 C31.0060484,127.832844 31.0060484,137.805014 35.7120658,140.773106 C40.4180832,143.741198 52.7603508,143.856722 52.7603508,143.856722 L83.5651524,143.856722" id="Path-652" transform="translate(62.186901, 71.928361) scale(-1, 1) translate(-62.186901, -71.928361) "></path>
                <path d="M0.808649144,57.4584029 C0.808649144,57.4584029 27.6948847,53.4303491 47.0882012,53.3985437 C66.4815176,53.3667384 93.3677532,57.4584029 93.3677532,57.4584029 L93.3677532,108.272429 C93.3677532,108.272429 64.0698178,112.407994 47.0882012,112.407994 C30.1065845,112.407994 0.808649144,108.272429 0.808649144,108.272429 L0.808649144,57.4584029 Z" id="Path-653"></path>
            </g>
        </g>
    </g>
</svg>