<?xml version="1.0" encoding="UTF-8"?>
<svg width="152px" height="152px" viewBox="0 0 152 152" version="1.1" xmlns="http://www.w3.org/2000/svg" xmlns:xlink="http://www.w3.org/1999/xlink">
    <!-- Generator: Sketch 46.2 (44496) - http://www.bohemiancoding.com/sketch -->
    <title>milk</title>
    <desc>Created with Sketch.</desc>
    <defs></defs>
    <g id="Page-1" stroke="none" stroke-width="1" fill="none" fill-rule="evenodd" stroke-linecap="round" stroke-linejoin="round">
        <g id="milk" stroke="#979797">
            <polygon id="Path-151" stroke-width="2.2" points="30 148.852119 98.4199503 148.852119 123 141.993817 123 36.9851584 109.8149 20.2817557 109.8149 4 45.4756714 4 45.4756714 20.2817557 109.8149 20.2817557 98.4199503 44.819345 98.4199503 148.852119 98.4199503 44.819345 30 44.819345 45.4756714 20.2817557 30 44.819345"></polygon>
            <polygon id="Path-151" stroke-width="2.2" points="30 148.852119 98.4199503 148.852119 123 141.993817 123 36.9851584 109.8149 20.2817557 109.8149 4 45.4756714 4 45.4756714 20.2817557 109.8149 20.2817557 98.4199503 44.819345 98.4199503 148.852119 98.4199503 44.819345 30 44.819345 45.4756714 20.2817557 30 44.819345"></polygon>
            <polygon id="Path-152" stroke-width="2" points="41.0397885 115.367685 41.0397885 76.043261 55.2508978 76.043261 64.2709678 102.684983 72.9917776 76.043261 86.7781965 76.043261 86.7781965 115.367685 77.422737 115.367685 77.422737 92.0844967 68.2765551 115.367685 59.7629779 115.367685 50.3747974 92.0844967 50.3747974 115.367685"></polygon>
        </g>
    </g>
</svg>