<?xml version="1.0" encoding="UTF-8"?>
<svg width="152px" height="152px" viewBox="0 0 152 152" version="1.1" xmlns="http://www.w3.org/2000/svg" xmlns:xlink="http://www.w3.org/1999/xlink">
    <!-- Generator: Sketch 46.2 (44496) - http://www.bohemiancoding.com/sketch -->
    <title>babyspinach</title>
    <desc>Created with Sketch.</desc>
    <defs></defs>
    <g id="Page-1" stroke="none" stroke-width="1" fill="none" fill-rule="evenodd" stroke-linecap="round" stroke-linejoin="round">
        <g id="babyspinach" stroke="#979797" stroke-width="2">
            <path d="M106.221055,149.434737 C106.221055,149.434737 107.05766,128.228701 107.052529,122.869735 C107.047399,117.510768 106.999957,92.3088068 106.999957,92.3088068 C106.999957,92.3088068 104.722625,101.007008 104.600592,111.717368 C104.47856,122.427729 105.515476,149.434737 105.515476,149.434737 C105.515476,149.434737 106.266787,138.951755 103.757556,138.863129 C99.7701323,138.722293 85,135.448885 85,118.084738 C85,98.0193872 93.8246101,74 106.232457,74 C118.640305,74 128.513388,99.3928554 127.45586,118.084738 C126.398333,136.776621 109.918778,137.3694 108.37947,139.904997 C106.840162,142.440594 106.904836,149.434737 106.904836,149.434737" id="Path-697" transform="translate(106.266787, 111.717368) scale(-1, 1) translate(-106.266787, -111.717368) "></path>
            <path d="M67.4879803,138.504154 L67.0044737,138.987661 C67.0044737,138.987661 62.1045997,133.996324 59.2232068,133.291841 C56.3418139,132.587358 44.2698513,143.821005 30.3049089,131.351633 C16.3399666,118.882261 5.36583066,93.9454762 14.1395036,85.1718032 C22.9131766,76.3981303 46.1373898,87.1424602 60.3257357,101.330806 C72.6040413,113.609112 64.4746296,126.367822 61.7546818,129.286942 C60.0430553,131.123905 67.9869001,138.005234 67.9869001,138.005234 C67.9869001,138.005234 60.1915272,131.099797 52.5318687,123.612718 C44.8722102,116.125639 27.1325226,98.0713472 27.1325226,98.0713472 C27.1325226,98.0713472 41.4588041,116.263649 45.2445374,120.056639 C49.0302708,123.849628 67.4879803,138.504154 67.4879803,138.504154 Z" id="Path-697" transform="translate(39.493450, 110.493830) scale(-1, 1) translate(-39.493450, -110.493830) "></path>
            <path d="M141.48798,62.5041543 L141.004474,62.9876608 C141.004474,62.9876608 136.1046,57.9963235 133.223207,57.2918406 C130.341814,56.5873577 118.269851,67.8210051 104.304909,55.3516329 C90.3399666,42.8822608 79.3658307,17.9454762 88.1395036,9.17180325 C96.9131766,0.39813028 120.13739,11.1424602 134.325736,25.3308062 C146.604041,37.6091117 138.47463,50.3678215 135.754682,53.2869418 C134.043055,55.1239047 141.9869,62.0052345 141.9869,62.0052345 C141.9869,62.0052345 134.191527,55.0997968 126.531869,47.6127181 C118.87221,40.1256394 101.132523,22.0713472 101.132523,22.0713472 C101.132523,22.0713472 115.458804,40.2636491 119.244537,44.0566385 C123.030271,47.849628 141.48798,62.5041543 141.48798,62.5041543 Z" id="Path-697" transform="translate(113.493450, 34.493830) scale(1, -1) rotate(-20.000000) translate(-113.493450, -34.493830) "></path>
            <path d="M68.1046847,13.7149003 C68.1046847,13.7149003 49.1391565,32.2025063 45.6984098,36.3110107 C42.2576631,40.4195151 30.0861756,58.0715508 30.0861756,58.0715508 C30.0861756,58.0715508 45.9148132,40.2773468 52.8927825,32.1511755 C59.8707518,24.0250042 68.6876522,14.2753929 68.6876522,14.2753929 C68.6876522,14.2753929 59.9907535,22.2764264 61.8559686,23.9572211 C64.8199844,26.6281741 74.030456,38.6298083 62.8689979,51.931516 C49.9712387,67.3024668 27.7718308,80.0300349 18.2668683,72.0544244 C8.76190584,64.0788139 17.5208979,38.2804623 30.345922,24.641415 C43.1709462,11.0023676 56.562547,21.9592459 59.3715757,21.0063138 C62.1806043,20.0533817 68.6876522,13.7149003 68.6876522,13.7149003 L68.1046847,13.7149003 Z" id="Path-697" transform="translate(41.473165, 44.111221) scale(1, -1) translate(-41.473165, -44.111221) "></path>
        </g>
    </g>
</svg>