<?xml version="1.0" encoding="UTF-8"?>
<svg width="152px" height="152px" viewBox="0 0 152 152" version="1.1" xmlns="http://www.w3.org/2000/svg" xmlns:xlink="http://www.w3.org/1999/xlink">
    <!-- Generator: Sketch 44.1 (41455) - http://www.bohemiancoding.com/sketch -->
    <title>okra</title>
    <desc>Created with Sketch.</desc>
    <defs></defs>
    <g id="Page-1" stroke="none" stroke-width="1" fill="none" fill-rule="evenodd">
        <g id="okra" stroke="#91E195" stroke-width="2.3">
            <g id="Group" transform="translate(7.000000, 7.000000)">
                <path d="M0.173998904,136.757842 C-2.16254958,133.667965 19.5749969,119.500717 32.8374287,102.269726 C46.0998604,85.0387357 93.7551059,13.1643115 97.7130156,10.0319195 C101.670925,6.89952756 122.291053,12.1946392 122.291053,12.1946392 C122.291053,12.1946392 133.499632,-2.5823644 137.457883,0.396701321 C141.416134,3.37576704 129.517659,16.5078971 129.517659,16.5078971 C129.517659,16.5078971 135.632375,36.4851669 132.918516,39.2375552 C130.204656,41.9899435 84.876143,97.7372435 54.4554216,117.84524 C24.0347001,137.953236 2.51054738,139.84772 0.173998904,136.757842 Z" id="Path-537"></path>
                <path d="M0.607786383,137.171161 C0.607786383,137.171161 30.5823847,126.66901 50.410291,109.372957 C70.2381973,92.0769046 118.635378,35.7777778 118.635378,35.7777778" id="Path-538"></path>
                <path d="M0.470400884,136.562293 C0.470400884,136.562293 25.2316336,119.930252 49.5081069,93.488874 C73.7845802,67.0474961 103.018508,25.5555556 103.018508,25.5555556" id="Path-539"></path>
                <path d="M98.1926606,10.2222222 C98.1926606,10.2222222 99.4356722,10.494369 100.054799,12.0836729 C100.673925,13.6729769 103.295525,25.2565812 103.295525,25.2565812 C103.295525,25.2565812 107.428866,25.2565812 111.351142,27.4822886 C115.273418,29.7079961 118.498105,35.7898838 118.498105,35.7898838 C118.498105,35.7898838 124.537407,35.2356725 128.908258,35.7898838 C133.279108,36.3440951 133.31955,38.684469 133.31955,38.684469" id="Path-540"></path>
            </g>
        </g>
    </g>
</svg>