<?xml version="1.0" encoding="UTF-8"?>
<svg width="152px" height="152px" viewBox="0 0 152 152" version="1.1" xmlns="http://www.w3.org/2000/svg" xmlns:xlink="http://www.w3.org/1999/xlink">
    <!-- Generator: Sketch 44.1 (41455) - http://www.bohemiancoding.com/sketch -->
    <title>lemonzest</title>
    <desc>Created with Sketch.</desc>
    <defs></defs>
    <g id="Page-1" stroke="none" stroke-width="1" fill="none" fill-rule="evenodd" stroke-linecap="round" stroke-linejoin="round">
        <g id="lemonzest" stroke="#F95604" stroke-width="2.2">
            <path d="M27.7857347,53.8577279 C27.7857347,53.8577279 22.214652,56.6991233 17.2400536,57.7159942 C12.2654552,58.732865 5.67455532,58.2974835 5.67455532,58.2974835 C5.67455532,58.2974835 4.91031031,55.3639581 8.37306169,48.5127192 C11.8358131,41.6614803 13.8145825,40.3598709 13.8145825,40.3598709 C13.8145825,40.3598709 19.2630554,40.7119174 24.9704419,39.504373 C30.6778284,38.2968287 32.7400232,37.5892907 36.0218346,35.8728816 C37.2111041,35.2629718 39.1756126,33.1244372 41.1279536,31.8637659 C56.3457307,31.8637659 62.8872733,40.3598709 62.8872733,40.3598709 C62.8872733,40.3598709 52.4057315,44.1876837 44.6644612,54.965366 C36.9231908,65.7430483 32.7400232,81.5344807 32.7400232,81.5344807" id="Path-614"></path>
            <path d="M41.9031248,31.8259211 C41.9031248,31.8259211 24.6010779,37.880721 28.6421395,70.6761289 C32.6832012,103.471537 64.1916317,82.0487746 64.1916317,82.0487746" id="Path-615"></path>
            <path d="M37.1286831,70.0861404 C37.1286831,70.0861404 45.064125,70.4369377 52.7404284,67.2416627 C60.4167318,64.0463877 65.2389845,56.5264099 65.2389845,56.5264099" id="Path-616"></path>
            <path d="M88.2978696,60.0329236 C88.2978696,60.0329236 81.6487227,55.4623146 78.1936269,53.9202073 C74.7385311,52.3780999 66.4003865,50.2594554 66.4003865,50.2594554 C66.4003865,50.2594554 51.2830391,126.922027 102.249786,122.148986 C153.216532,117.375944 141.761096,77.5768388 141.761096,77.5768388 C141.761096,77.5768388 145.046975,117.46011 109.346224,113.856572 C73.6454729,110.253034 88.2978696,60.0329236 88.2978696,60.0329236 Z" id="Path-617"></path>
            <path d="M141.725957,79 C141.725957,79 139.478958,95.7628232 130.395904,103.123915 C121.31285,110.485007 106.138193,113.232988 106.138193,113.232988" id="Path-618"></path>
        </g>
    </g>
</svg>