<?xml version="1.0" encoding="UTF-8"?>
<svg width="152px" height="152px" viewBox="0 0 152 152" version="1.1" xmlns="http://www.w3.org/2000/svg" xmlns:xlink="http://www.w3.org/1999/xlink">
    <!-- Generator: Sketch 44.1 (41455) - http://www.bohemiancoding.com/sketch -->
    <title>powderjar</title>
    <desc>Created with Sketch.</desc>
    <defs></defs>
    <g id="Page-1" stroke="none" stroke-width="1" fill="none" fill-rule="evenodd">
        <g id="powderjar" stroke="#979797">
            <path d="M77.6694289,9.28969894 L54.1027877,9.28969894 C54.1027877,9.28969894 51.6144446,9.29263557 50.6689425,10.4539446 C49.7234405,11.6152535 49.7234405,13.6690461 49.7234405,13.6690461 L49.7234405,29.5970591 C49.7234405,29.5970591 49.9345981,31.7169836 50.6689425,32.3023395 C51.403287,32.8876953 53.7990636,32.8457929 53.7990636,32.8457929 L76.6694289,33.8457929 L53.7990636,32.8457929 C53.7990636,32.8457929 56.4934329,34.5829762 57.0850058,36.2180886 C57.6765787,37.853201 58.2142223,43.0270113 58.2142223,43.0270113 C58.2142223,43.0270113 58.324055,51.8986008 57.4468993,54.8568396 C56.5697437,57.8150784 53.1569921,57.8561123 51.4402163,59.9514537 C49.7234405,62.0467952 49.7234405,66 49.7234405,66 L49.7234405,133.725324 C49.7234405,133.725324 49.2865653,136.449328 54.9313548,139.797595 C60.5761442,143.145862 77.6694289,143.071423 77.6694289,143.071423" id="Path-671" stroke-width="2" stroke-linecap="round" stroke-linejoin="round"></path>
            <path d="M103.669429,9.28969894 L80.1027877,9.28969894 C80.1027877,9.28969894 77.6144446,9.29263557 76.6689425,10.4539446 C75.7234405,11.6152535 75.7234405,13.6690461 75.7234405,13.6690461 L75.7234405,29.5970591 C75.7234405,29.5970591 75.9345981,31.7169836 76.6689425,32.3023395 C77.403287,32.8876953 79.7990636,32.8457929 79.7990636,32.8457929 L102.770472,33.8634709 L79.7990636,32.8457929 C79.7990636,32.8457929 82.4934329,34.5829762 83.0850058,36.2180886 C83.6765787,37.853201 84.151985,42.5905709 84.151985,42.5905709 C84.151985,42.5905709 84.3022823,53.954784 83.4468993,55.8568396 C82.5915163,57.7588952 79.1569921,58.8561123 77.4402163,60.9514537 C75.7234405,63.0467952 75.7234405,67 75.7234405,67 L75.7234405,133.725324 C75.7234405,133.725324 75.2865653,136.449328 80.9313548,139.797595 C86.5761442,143.145862 102.770472,143.088373 102.770472,143.088373" id="Path-671" stroke-width="2" stroke-linecap="round" stroke-linejoin="round" transform="translate(89.692510, 76.189068) scale(-1, 1) translate(-89.692510, -76.189068) "></path>
            <path d="M50.5352373,71.8142955 C50.5352373,71.8142955 63.6763885,75.6201883 76.8813334,75.6201883 C90.0862783,75.6201883 103.22743,71.8142955 103.22743,71.8142955" id="Path-672" stroke-width="1.6"></path>
            <path d="M50.5352373,126.814296 C50.5352373,126.814296 63.6763885,130.620188 76.8813334,130.620188 C90.0862783,130.620188 103.22743,126.814296 103.22743,126.814296" id="Path-672" stroke-width="1.6"></path>
            <path d="M61,112.743039 C61,112.743039 72.001779,114.636451 77,114.636451 C81.998221,114.636451 92.9550189,112.743039 92.9550189,112.743039 C92.9550189,112.743039 93.7229734,111.616949 93.3781534,111.104536 C93.0333333,110.592124 90.3322594,108.845543 90.3322594,108.845543 C90.3322594,108.845543 90.1361824,106.673899 89.7286405,106.06828 C89.3210986,105.462661 87.5010553,104.638292 87.5010553,104.638292 C87.5010553,104.638292 87.2705251,103.003656 86.9395396,102.511802 C86.6085541,102.019948 84.9587283,100.860321 84.9587283,100.860321 C84.9587283,100.860321 85.2829496,99.19478 84.9587283,98.7129778 C84.634507,98.2311756 81.9565833,96.399047 81.9565833,96.399047 C81.9565833,96.399047 81.7218086,94.5700082 81.3811809,94.0638257 C81.0405533,93.5576432 79.2171282,92.328138 79.2171282,92.328138 C79.2171282,92.328138 78.8645923,90.6493287 78.5937065,90.2467846 C78.3228208,89.8442406 76.9775095,89 76.9775095,89 C76.9775095,89 75.4929374,89.596659 75.0554454,90.2467846 C74.6179535,90.8969103 74.0763937,93.3111415 74.0763937,93.3111415 C74.0763937,93.3111415 72.6419339,93.4771685 72.247152,94.0638257 C71.8523701,94.650483 71.4127519,97.26939 71.4127519,97.26939 C71.4127519,97.26939 69.5422766,97.7902039 68.9213102,98.7129778 C68.3003438,99.6357517 68.1684866,102.090461 68.1684866,102.090461 C68.1684866,102.090461 66.2938465,102.637821 65.7063948,103.510791 C65.1189432,104.383761 64.9841398,106.822493 64.9841398,106.822493 C64.9841398,106.822493 62.7027907,107.666405 62.2091212,108.400013 C61.7154517,109.13362 61,112.743039 61,112.743039 Z" id="Path-673" stroke-width="1.5" stroke-linejoin="round"></path>
        </g>
    </g>
</svg>