<?xml version="1.0" encoding="UTF-8"?>
<svg width="152px" height="152px" viewBox="0 0 152 152" version="1.1" xmlns="http://www.w3.org/2000/svg" xmlns:xlink="http://www.w3.org/1999/xlink">
    <!-- Generator: Sketch 44.1 (41455) - http://www.bohemiancoding.com/sketch -->
    <title>parsley</title>
    <desc>Created with Sketch.</desc>
    <defs></defs>
    <g id="Page-1" stroke="none" stroke-width="1" fill="none" fill-rule="evenodd" stroke-linejoin="round">
        <g id="parsley" stroke="#979797" stroke-width="2">
            <g id="Group" transform="translate(43.005035, 55.272942) rotate(-10.000000) translate(-43.005035, -55.272942) translate(4.326876, 3.936476)">
                <path d="M39.0061114,102.447331 C38.6141804,89.7046124 36.8136663,81.8951775 33.6045692,79.0190256 C31.3867856,77.031338 18.1943256,77.2800618 14.5362193,77.9148016 C10.878113,78.5495415 6.08716719,76.0921354 5.25302925,75.3390433 C4.41889132,74.5859512 8.85578696,74.5808385 8.60754235,73.61443 C8.35929773,72.6480216 2.47746769,69.4966944 3.17666888,68.8998068 C4.22413439,68.0056163 8.13442663,66.9518183 14.9075456,65.738413 C7.06615067,61.4945756 2.53899881,58.6389738 1.32608998,57.1716076 C-0.493273258,54.9705582 4.78046157,53.9676516 4.33346435,53.2361657 C4.02960794,52.7389217 3.79251073,52.2947638 3.62217271,51.9036922 C2.54249407,49.4249049 2.24060171,45.1996875 2.71649564,39.2280399 C8.78047446,42.5822274 12.6287605,44.8400507 14.2613538,46.0015096 C14.9603053,46.4987575 15.5127866,42.9352735 16.0114908,43.4359927 C18.2574858,45.6910627 20.0124295,51.3343481 21.2763221,60.3658488 C21.8416675,51.3853856 22.6928712,47.6208279 23.8299331,49.0721757 C24.7505014,50.2471908 28.1663404,58.4547284 30.6853345,65.738413 C32.3646639,70.5942028 34.1040529,72.8650309 35.9035014,72.5508973 C35.332676,62.6605174 34.7211506,56.7611059 34.0689251,54.8526626 C31.3692038,46.9531479 22.5591711,42.716582 21.2763221,40.7826352 C19.9934731,38.8486885 24.6815422,38.9078079 24.2832572,37.8083615 C23.8149176,36.5155327 16.0803183,32.043537 16.0114908,30.62108 C15.9426633,29.198623 18.3933996,29.5479157 18.0858509,28.9782099 C17.095473,27.1436253 16.7070868,23.757395 16.9206923,18.8195192 C22.7117683,20.8211839 25.7126979,22.6789091 25.9234811,24.3926948 C26.4882015,22.9859853 27.1613217,22.2826305 27.9428415,22.2826305 C28.7243614,22.2826305 31.1738153,25.7898646 35.2912033,32.8043327 C35.9825777,34.1418078 36.3833019,34.7917944 36.4933759,34.7542924 C36.6584869,34.6980394 36.5274777,32.9061452 36.4933759,32.8043327 C36.4543541,32.687831 36.1939226,26.8846408 33.0765576,21.2224763 C29.9591927,15.5603117 28.1850345,8.28101395 29.1779228,8.28101395 C30.1708111,8.28101395 32.9884153,9.95058356 33.0765576,9.13265643 C33.6235203,4.05705506 37.8476329,0.341610877 39.0061114,0.341610877" id="Path-799"></path>
                <path d="M76.9810317,102.447331 C76.5891007,89.7046124 74.7885866,81.8951775 71.5794895,79.0190256 C69.3617059,77.031338 56.1692458,77.2800618 52.5111396,77.9148016 C48.8530333,78.5495415 44.0620875,76.0921354 43.2279495,75.3390433 C42.3938116,74.5859512 46.8307073,74.5808385 46.5824626,73.61443 C46.334218,72.6480216 40.452388,69.4966944 41.1515892,68.8998068 C42.1990547,68.0056163 46.1093469,66.9518183 52.8824659,65.738413 C45.041071,61.4945756 40.5139191,58.6389738 39.3010103,57.1716076 C37.481647,54.9705582 42.7553819,53.9676516 42.3083846,53.2361657 C42.0045282,52.7389217 41.767431,52.2947638 41.597093,51.9036922 C40.5174144,49.4249049 40.215522,45.1996875 40.6914159,39.2280399 C46.7553948,42.5822274 50.6036808,44.8400507 52.2362741,46.0015096 C52.9352256,46.4987575 53.4877069,42.9352735 53.9864111,43.4359927 C56.2324061,45.6910627 57.9873498,51.3343481 59.2512424,60.3658488 C59.8165878,51.3853856 60.6677915,47.6208279 61.8048534,49.0721757 C62.7254217,50.2471908 66.1412607,58.4547284 68.6602548,65.738413 C70.3395842,70.5942028 72.0789732,72.8650309 73.8784217,72.5508973 C73.3075963,62.6605174 72.6960709,56.7611059 72.0438454,54.8526626 C69.3441241,46.9531479 60.5340914,42.716582 59.2512424,40.7826352 C57.9683934,38.8486885 62.6564625,38.9078079 62.2581775,37.8083615 C61.7898378,36.5155327 54.0552386,32.043537 53.9864111,30.62108 C53.9175836,29.198623 56.3683199,29.5479157 56.0607712,28.9782099 C55.0703933,27.1436253 54.6820071,23.757395 54.8956126,18.8195192 C60.6866886,20.8211839 63.6876181,22.6789091 63.8984014,24.3926948 C64.4631218,22.9859853 65.136242,22.2826305 65.9177618,22.2826305 C66.6992816,22.2826305 69.1487356,25.7898646 73.2661235,32.8043327 C73.957498,34.1418078 74.3582222,34.7917944 74.4682962,34.7542924 C74.6334072,34.6980394 74.502398,32.9061452 74.4682962,32.8043327 C74.4292744,32.687831 74.1688429,26.8846408 71.0514779,21.2224763 C67.934113,15.5603117 66.1599548,8.28101395 67.1528431,8.28101395 C68.1457314,8.28101395 70.9633356,9.95058356 71.0514779,9.13265643 C71.5984406,4.05705506 75.8225531,0.341610877 76.9810317,0.341610877" id="Path-799" transform="translate(57.949403, 51.394471) scale(-1, 1) translate(-57.949403, -51.394471) "></path>
            </g>
            <g id="Group" transform="translate(110.391691, 108.646615) rotate(50.000000) translate(-110.391691, -108.646615) translate(72.891691, 64.146615)">
                <path d="M37.6848856,88.2690605 C37.3062302,77.2898798 35.5667037,70.561237 32.4663059,68.0831322 C30.3236437,66.3705321 17.5780423,66.5848336 14.0438445,67.1317281 C10.5096466,67.6786227 5.88098098,65.561311 5.07509719,64.9124436 C4.26921341,64.2635763 8.55582129,64.2591711 8.31598529,63.4265094 C8.07614929,62.5938478 2.39355022,59.8786507 3.06906788,59.3643698 C4.08105334,58.5939314 7.85889508,57.6859746 14.4025931,56.6404993 C6.82680406,52.9839908 2.45299714,50.5235919 1.28117229,49.2593029 C-0.47656497,47.3628693 4.61853645,46.4987607 4.18668005,45.8685093 C3.89311595,45.4400817 3.66404976,45.0573934 3.49948148,44.7204444 C2.45637401,42.5847106 2.16470743,38.9442451 2.62448174,33.7990479 C8.4830598,36.6890303 12.2009956,38.6343805 13.7782893,39.6350985 C14.4535657,40.0635294 14.9873332,36.9932163 15.4691452,37.4246381 C17.6390632,39.3676161 19.334563,44.229895 20.5556446,52.0114749 C21.1018405,44.2738692 21.924212,41.0303101 23.022759,42.2807976 C23.9121456,43.2931957 27.2122824,50.3648453 29.6459524,56.6404993 C31.2683991,60.8242687 32.948871,62.7808239 34.6873681,62.510165 C34.1358779,53.9885713 33.5450662,48.9056129 32.914933,47.26129 C30.3066574,40.4550341 21.7950406,36.8047907 20.5556446,35.1384939 C19.3162487,33.472197 23.8455222,33.5231346 23.460728,32.5758468 C23.0082521,31.46194 15.5356413,27.6088493 15.4691452,26.3832542 C15.402649,25.1576591 17.7703733,25.4586113 17.473242,24.9677502 C16.5164104,23.3870643 16.1411798,20.4694737 16.34755,16.2149786 C21.942469,17.9396216 24.8417502,19.5402456 25.0453937,21.0168508 C25.5909858,19.8048238 26.2413059,19.1988103 26.9963538,19.1988103 C27.7514018,19.1988103 30.1178872,22.2206582 34.0958099,28.2643541 C34.7637659,29.4167284 35.1509166,29.9767597 35.2572622,29.9444478 C35.4167805,29.89598 35.2902089,28.3520762 35.2572622,28.2643541 C35.2195621,28.1639757 34.967952,23.1639221 31.9561793,18.2853768 C28.9444066,13.4068315 27.2303433,7.13495723 28.1896002,7.13495723 C29.1488571,7.13495723 31.8710225,8.57346558 31.9561793,7.86873605 C32.4846151,3.49557608 36.5656474,0.2943334 37.6848856,0.2943334" id="Path-799"></path>
                <path d="M74.3735089,88.2690605 C73.9948535,77.2898798 72.2553269,70.561237 69.1549292,68.0831322 C67.012267,66.3705321 54.2666656,66.5848336 50.7324677,67.1317281 C47.1982699,67.6786227 42.5696043,65.561311 41.7637205,64.9124436 C40.9578367,64.2635763 45.2444446,64.2591711 45.0046086,63.4265094 C44.7647726,62.5938478 39.0821735,59.8786507 39.7576912,59.3643698 C40.7696766,58.5939314 44.5475184,57.6859746 51.0912164,56.6404993 C43.5154274,52.9839908 39.1416204,50.5235919 37.9697956,49.2593029 C36.2120583,47.3628693 41.3071597,46.4987607 40.8753033,45.8685093 C40.5817392,45.4400817 40.352673,45.0573934 40.1881048,44.7204444 C39.1449973,42.5847106 38.8533307,38.9442451 39.313105,33.7990479 C45.1716831,36.6890303 48.8896189,38.6343805 50.4669125,39.6350985 C51.142189,40.0635294 51.6759565,36.9932163 52.1577685,37.4246381 C54.3276865,39.3676161 56.0231863,44.229895 57.2442679,52.0114749 C57.7904638,44.2738692 58.6128353,41.0303101 59.7113823,42.2807976 C60.6007689,43.2931957 63.9009056,50.3648453 66.3345757,56.6404993 C67.9570224,60.8242687 69.6374943,62.7808239 71.3759914,62.510165 C70.8245012,53.9885713 70.2336895,48.9056129 69.6035563,47.26129 C66.9952807,40.4550341 58.4836639,36.8047907 57.2442679,35.1384939 C56.0048719,33.472197 60.5341455,33.5231346 60.1493513,32.5758468 C59.6968754,31.46194 52.2242646,27.6088493 52.1577685,26.3832542 C52.0912723,25.1576591 54.4589966,25.4586113 54.1618653,24.9677502 C53.2050337,23.3870643 52.829803,20.4694737 53.0361732,16.2149786 C58.6310923,17.9396216 61.5303735,19.5402456 61.734017,21.0168508 C62.2796091,19.8048238 62.9299291,19.1988103 63.6849771,19.1988103 C64.4400251,19.1988103 66.8065105,22.2206582 70.7844331,28.2643541 C71.4523891,29.4167284 71.8395399,29.9767597 71.9458855,29.9444478 C72.1054038,29.89598 71.9788322,28.3520762 71.9458855,28.2643541 C71.9081854,28.1639757 71.6565753,23.1639221 68.6448026,18.2853768 C65.6330299,13.4068315 63.9189665,7.13495723 64.8782235,7.13495723 C65.8374804,7.13495723 68.5596458,8.57346558 68.6448026,7.86873605 C69.1732384,3.49557608 73.2542706,0.2943334 74.3735089,0.2943334" id="Path-799" transform="translate(55.986525, 44.281697) scale(-1, 1) translate(-55.986525, -44.281697) "></path>
            </g>
        </g>
    </g>
</svg>