<?xml version="1.0" encoding="UTF-8"?>
<svg width="152px" height="152px" viewBox="0 0 152 152" version="1.1" xmlns="http://www.w3.org/2000/svg" xmlns:xlink="http://www.w3.org/1999/xlink">
    <!-- Generator: Sketch 44.1 (41455) - http://www.bohemiancoding.com/sketch -->
    <title>passionfruit</title>
    <desc>Created with Sketch.</desc>
    <defs></defs>
    <g id="Page-1" stroke="none" stroke-width="1" fill="none" fill-rule="evenodd">
        <g id="passionfruit" stroke="#A8104C">
            <g id="Group" transform="translate(6.000000, 15.000000)">
                <path d="M90.3278669,43.1681633 C90.0700185,31.1390661 91.9547583,12.3232063 77.1952555,7.31826552 C66.8571241,3.81260977 56.1499175,0.54265889 45.2406896,0.148539697 C36.1988023,-0.178117822 26.5072302,0.854326166 18.5715878,5.20036013 C-19.6196733,26.1161865 7.68206834,97.6906415 53.5506616,79.6911691" id="Path-232" stroke-width="2" stroke-linecap="round"></path>
                <path d="M60.1892424,103.707457 C60.1892424,103.707457 55.4502188,95.6927207 54.0621146,85.5377264 C52.6740103,75.382732 55.0179491,61.7660637 60.1892424,56.0370639 C74.1675062,40.5512916 123.181012,35.0889423 132.966377,57.6934938 C140.550103,75.2121792 133.427429,97.5915898 117.419496,109.848113 C101.411563,122.104636 74.1790789,124.936028 62.1101201,106.768124 C61.0660236,105.277274 60.1892424,103.707457 60.1892424,103.707457 Z" id="Path-469" stroke-width="2" stroke-linecap="round"></path>
                <path d="M61.8097279,98.2116142 C57.4755825,84.6090667 54.2767336,70.065839 66.7936261,57.7475478 C78.8822048,45.8507745 123.919834,39.2281011 128.822691,62.5600843 C131.911146,77.2575913 129.015188,93.8612023 119.043685,102.964713 C106.761814,114.17748 84.9621327,118.37941 68.9916695,108.265465 C68.9916695,108.265465 65.5716749,104.59549 64.7949463,103.567296 C64.0182177,102.539102 61.8097279,98.2116142 61.8097279,98.2116142 Z" id="Path-470" stroke-width="1.8" stroke-linecap="round"></path>
                <path d="M63.4584358,17.8041607 C74.0480724,17.948136 80.0157061,9.67598985 88.7460639,20.8951255" id="Path-471" stroke-width="2" stroke-linecap="round"></path>
                <path d="M67.0698189,86.1558424 C66.1637751,87.4144515 65.3415506,88.7482405 64.7048789,90.162289 C61.6721255,96.8980387 69.0477999,104.699112 74.985701,98.4972416 C77.9051689,95.4479887 76.7753063,87.1738378 76.3513311,84.2606739 C76.0152452,81.9514037 74.4254538,80.2725323 72.5463742,81.3172337 C72.5463742,81.3172337 69.300173,83.0575994 67.0698189,86.1558424 Z" id="Path-394" stroke-width="1.8"></path>
                <path d="M115.658475,77.2300575 C114.752431,78.4886666 114.074041,79.9964976 113.43737,81.4105461 C110.404616,88.1462958 117.039864,95.7584089 122.977765,89.5565381 C125.897233,86.5072852 124.76737,78.2331343 124.343395,75.3199704 C124.007309,73.0107002 122.417518,71.3318288 120.538438,72.3765302 C120.538438,72.3765302 117.888829,74.1318145 115.658475,77.2300575 Z" id="Path-394" stroke-width="1.8" transform="translate(118.796860, 81.955013) rotate(10.000000) translate(-118.796860, -81.955013) "></path>
                <path d="M68.460531,65.5790903 C67.5544872,66.8376993 66.7322626,68.1714883 66.095591,69.5855369 C63.0628375,76.3212865 69.4145689,83.6539622 75.35247,77.4520914 C78.2719378,74.4028385 78.1660183,66.5970857 77.7420431,63.6839217 C77.4059572,61.3746515 75.8161659,59.6957801 73.9370863,60.7404815 C73.9370863,60.7404815 70.690885,62.4808472 68.460531,65.5790903 Z" id="Path-394" stroke-width="1.8" transform="translate(71.638788, 70.108725) rotate(190.000000) translate(-71.638788, -70.108725) "></path>
                <path d="M88.7230213,59.7275417 C87.5768916,66.5354144 91.4603214,70.7037531 97.3982224,64.5018823 C100.31769,61.4526294 99.1878277,53.1784785 98.7638525,50.2653146 C98.4277666,47.9560444 97.0554668,46.5448324 94.9588956,47.3218744 C92.8623245,48.0989164 88.8851176,57.8855062 88.7230213,59.7275417 Z" id="Path-394" stroke-width="1.8" transform="translate(93.929456, 57.321255) rotate(250.000000) translate(-93.929456, -57.321255) "></path>
                <path d="M83.0698189,95.1558424 C82.1637751,96.4144515 81.3415506,97.7482405 80.7048789,99.162289 C77.6721255,105.898039 85.0477999,113.699112 90.985701,107.497242 C93.9051689,104.447989 92.7753063,96.1738378 92.3513311,93.2606739 C92.0152452,90.9514037 90.4254538,89.2725323 88.5463742,90.3172337 C88.5463742,90.3172337 85.300173,92.0575994 83.0698189,95.1558424 Z" id="Path-394" stroke-width="1.8" transform="translate(86.461946, 99.880010) rotate(190.000000) translate(-86.461946, -99.880010) "></path>
                <path d="M101.63789,97.0197417 C100.840433,98.2247086 100.116751,99.5016513 99.5563825,100.855433 C96.8870976,107.304103 103.378814,114.772694 108.605072,108.835148 C111.174648,105.915855 110.180197,97.9943499 109.807034,95.2053456 C109.511227,92.9944969 108.111969,91.3871794 106.458093,92.3873554 C106.458093,92.3873554 103.600941,94.0535464 101.63789,97.0197417 Z" id="Path-394" stroke-width="1.8" transform="translate(104.623479, 101.542564) rotate(220.000000) translate(-104.623479, -101.542564) "></path>
                <path d="M79.6212161,75.1125488 C76.5884626,81.8482984 82.5177463,88.9297626 88.4556474,82.7278918 C91.3751152,79.6786389 91.2032444,73.8094093 90.7792692,70.8962454 C90.4431833,68.5869752 90.4984241,65.7492063 88.6193445,66.7939077 C88.6193445,66.7939077 86.2509853,67.7732383 83.6900423,70.0855084 C81.1290994,72.3977786 79.8721647,74.5551916 79.6212161,75.1125488 Z" id="Path-394" stroke-width="1.8" transform="translate(84.908894, 75.842756) rotate(340.000000) translate(-84.908894, -75.842756) "></path>
                <path d="M99.8073248,78.9324264 C98.901281,80.1910355 97.2978478,82.0462539 96.6611762,83.4603024 C93.6284227,90.196052 100.214744,95.9967907 106.152645,89.7949199 C109.072113,86.745667 108.476498,79.229371 108.052523,76.3162071 C107.716437,74.0069369 106.498787,73.2654811 104.619708,74.3101825 C104.619708,74.3101825 102.037679,75.8341834 99.8073248,78.9324264 Z" id="Path-394" stroke-width="1.8" transform="translate(102.152937, 83.140510) rotate(20.000000) translate(-102.152937, -83.140510) "></path>
                <path d="M112.474153,58.1287588 C111.551651,59.2438561 110.714491,60.425561 110.066255,61.6783739 C106.978412,67.6460855 114.488063,74.5576486 120.533825,69.0629408 C123.506324,66.3613762 122.355937,59.0306782 121.924261,56.4496853 C121.58207,54.4037276 119.963401,52.916288 118.050188,53.8418683 C118.050188,53.8418683 114.745021,55.3837903 112.474153,58.1287588 Z" id="Path-394" stroke-width="1.8" transform="translate(115.927897, 62.314257) rotate(160.000000) translate(-115.927897, -62.314257) "></path>
                <path d="M97.0320374,65.405392 C96.2882007,66.3045233 95.6131773,67.257362 95.0904877,68.2675369 C92.6006817,73.0794546 98.6559046,78.6524238 103.530756,74.221901 C105.927557,72.0435608 104.999972,66.1326325 104.6519,64.0515122 C104.375983,62.4018045 103.070808,61.2024441 101.528136,61.948763 C101.528136,61.948763 98.8630958,63.192054 97.0320374,65.405392 Z" id="Path-394" stroke-width="1.8" transform="translate(99.816879, 68.780266) rotate(50.000000) translate(-99.816879, -68.780266) "></path>
                <path d="M76.1413045,117.733056 C123.26529,135.145431 151.900395,102.425173 133.997709,60" id="Path-472" stroke-width="2"></path>
            </g>
        </g>
    </g>
</svg>