<?xml version="1.0" encoding="UTF-8"?>
<svg width="152px" height="152px" viewBox="0 0 152 152" version="1.1" xmlns="http://www.w3.org/2000/svg" xmlns:xlink="http://www.w3.org/1999/xlink">
    <!-- Generator: Sketch 44.1 (41455) - http://www.bohemiancoding.com/sketch -->
    <title>peanut</title>
    <desc>Created with Sketch.</desc>
    <defs></defs>
    <g id="Page-1" stroke="none" stroke-width="1" fill="none" fill-rule="evenodd">
        <g id="peanut" stroke="#979797">
            <g id="Group" transform="translate(6.000000, 5.000000)" stroke-width="2">
                <path d="M18.1176371,130.060292 C18.1176371,130.060292 -5.12072646,108.577018 15.5794793,78.3088184 C27.2863558,61.1908205 46.7771769,59.6909724 55.4552442,48.9225865 C63.7541968,38.6246341 62.8396115,21.0118608 81.921952,6.4740701 C101.004293,-8.0637206 123.67427,7.47059642 123.67427,7.47059642" id="Path-699"></path>
                <path d="M30.3295137,140.327746 C30.3295137,140.327746 4.39835593,117.26833 25.0985617,87.0001306 C36.8054382,69.8821327 58.4292358,68.4214286 67.1073031,57.6530427 C75.4062557,47.3550903 72.3586939,29.703173 91.4410344,15.1653823 C110.523375,0.62759161 132.688261,15.1237638 132.688261,15.1237638" id="Path-699" transform="translate(74.885640, 74.510540) scale(-1, 1) rotate(-80.000000) translate(-74.885640, -74.510540) "></path>
            </g>
            <path d="M19.5705206,127.874699 C19.5705206,127.874699 19.4439428,108.171038 31.7344206,93.1528788 C40.8920657,81.962836 55.9593292,79.7646868 68.3319747,66.6588816 C74.5078795,60.1170142 81.028265,38.7334524 91.6593023,25.0852582 C102.290339,11.437064 121.163007,8.47943323 121.163007,8.47943323" id="Path-700" stroke-width="1.5" stroke-linecap="round" stroke-linejoin="round"></path>
            <path d="M31.570469,138.874699 C31.570469,138.874699 35.0173218,123.84222 40.9360915,115.667514 C49.455855,103.900447 63.7763651,102.297575 76.1490106,89.1917701 C82.3249154,82.6499028 88.8453009,61.266341 99.4763381,47.6181468 C110.107375,33.9699526 128.980043,31.0123218 128.980043,31.0123218" id="Path-700" stroke-width="1.5" stroke-linecap="round" stroke-linejoin="round" transform="translate(80.275256, 84.943511) scale(-1, -1) translate(-80.275256, -84.943511) "></path>
            <path d="M21.2190914,84.0559802 C21.2190914,84.0559802 20.2826308,106.245696 38.703644,119.922957 C57.1246571,133.600219 79.468959,127.823667 79.468959,127.823667" id="Path-701" stroke-width="1.5" stroke-linecap="round" stroke-linejoin="round"></path>
            <path d="M46,65 C46,65 45.4287841,74.3336489 63.8497972,88.0109102" id="Path-701" stroke-width="1.5" stroke-linecap="round" stroke-linejoin="round"></path>
            <path d="M126.629605,65.9933367 C126.629605,65.9933367 122.800317,31.6308126 85.5371054,21.4602657" id="Path-702" stroke-width="1.5" stroke-linecap="round" stroke-linejoin="round"></path>
        </g>
    </g>
</svg>