<?xml version="1.0" encoding="UTF-8"?>
<svg width="152px" height="152px" viewBox="0 0 152 152" version="1.1" xmlns="http://www.w3.org/2000/svg" xmlns:xlink="http://www.w3.org/1999/xlink">
    <!-- Generator: Sketch 44.1 (41455) - http://www.bohemiancoding.com/sketch -->
    <title>pear</title>
    <desc>Created with Sketch.</desc>
    <defs></defs>
    <g id="Page-1" stroke="none" stroke-width="1" fill="none" fill-rule="evenodd" stroke-linecap="round" stroke-linejoin="round">
        <g id="pear" stroke="#91E195" stroke-width="2.4">
            <path d="M76.155048,140.68019 C83.3387691,140.68019 102.536194,152.775713 114.573772,129.550962 C122.974943,113.342129 107.933646,89.5671038 100.386861,70.5847204 C92.8400762,51.6023369 95.913771,37.1278751 90.9150123,33.8326488 C84.3994356,29.5375227 75.2327516,36.0988382 75.2327516,36.0988382 C75.2327516,36.0988382 74.7332016,28.530577 76.3587365,22.6792849 C77.9842714,16.8279929 81.217436,9.29711201 81.217436,9.29711201 L77.0871416,20.5368606 C77.0871416,20.5368606 77.8642725,12.9331856 70.2079528,8.14574746 C62.5516332,3.35830934 49.4965527,7.08508092 49.4965527,7.08508092 C49.4965527,7.08508092 48.4613394,10.1409312 54.4195191,17.9117944 C60.3776988,25.6826576 76.155048,21.3136206 76.155048,21.3136206 C76.155048,21.3136206 76.155048,22.6792849 75.1602782,28.3455024 C74.1655083,34.0117199 75.2327516,36.0988382 75.2327516,36.0988382 C75.2327516,36.0988382 76.7738933,37.1421817 76.3587365,36.840762 C74.3110649,35.354074 66.0228185,30.0272859 60.7796201,33.8326488 C55.8015212,37.4456101 59.9598779,40.7394339 53.2615863,58.0078459 C46.5632947,75.2762578 27.5248691,109.415006 38.8899633,129.550962 C52.2503743,153.222095 68.971327,140.68019 76.155048,140.68019 Z" id="Path-9" transform="translate(76.200104, 74.851671) scale(-1, 1) translate(-76.200104, -74.851671) "></path>
        </g>
    </g>
</svg>