<?xml version="1.0" encoding="UTF-8"?>
<svg width="152px" height="152px" viewBox="0 0 152 152" version="1.1" xmlns="http://www.w3.org/2000/svg" xmlns:xlink="http://www.w3.org/1999/xlink">
    <!-- Generator: Sketch 44.1 (41455) - http://www.bohemiancoding.com/sketch -->
    <title>greenpea</title>
    <desc>Created with Sketch.</desc>
    <defs></defs>
    <g id="Page-1" stroke="none" stroke-width="1" fill="none" fill-rule="evenodd">
        <g id="greenpea" stroke="#979797" stroke-width="2">
            <g id="Group" transform="translate(-5.000000, -21.000000)">
                <path d="M72.1705117,90.8631914 C72.8383162,89.5963781 73.1818182,88.5116205 73.1818182,86.9809977 C73.1818182,81.9420174 69.0862412,77.8571168 64.0340909,77.8571168 C61.5845465,77.8571168 59.5045124,78.8367809 57.8624955,80.4004988 L72.1705117,90.8631914 Z" id="Oval"></path>
                <ellipse id="Oval" cx="23.7840909" cy="136.858213" rx="10.3674242" ry="10.3403983"></ellipse>
                <ellipse id="Oval" cx="50.6174242" cy="145.373835" rx="11.5871212" ry="11.5569158"></ellipse>
                <path d="M94.5136492,102.30874 C96.3925862,100.637747 97.5757576,98.2049957 97.5757576,95.4966198 C97.5757576,90.4576395 93.4801806,86.3727389 88.4280303,86.3727389 C83.37588,86.3727389 79.280303,90.4576395 79.280303,95.4966198 C82.3614643,97.2436976 84.8413821,98.5363606 86.7200564,99.374609 C88.5987307,100.212857 91.196595,101.190901 94.5136492,102.30874 Z" id="Oval"></path>
                <path d="M117.598571,108.469734 C119.529255,106.796919 120.75,104.330252 120.75,101.579207 C120.75,96.5402268 116.654423,92.4553262 111.602273,92.4553262 C106.550122,92.4553262 102.454545,96.5402268 102.454545,101.579207 C102.454545,102.755708 102.677807,103.880198 103.084378,104.912832 C105.246787,105.753316 107.581431,106.47945 110.088311,107.091234 C112.595191,107.703018 115.098611,108.162519 117.598571,108.469734 Z" id="Oval"></path>
                <path d="M25.3916113,43.9499482 C27.9493161,43.536224 32.077557,44.6693311 37.7763341,47.3492694 C52.325574,54.1912751 61.4258702,86.2596448 84.1859068,104.823339 C96.3626894,114.755049 110.644966,124.223297 119.971335,125.797542 C129.297704,127.371786 132.039969,131.017348 122.215319,136.250096 C113.08338,141.113897 74.1867367,141.803814 45.3617658,112.156627 C29.400076,95.7396388 3.66886524,55.1765689 25.3916113,43.9499482 C35.0838006,38.9408885 32.9262866,35.5834466 30.0083645,33.2167517 C28.0630831,31.6389551 26.5287788,26.684373 25.4054514,18.3530054 C26.145272,35.075674 28.5731637,44.0230237 32.6891266,45.1950545 C38.8630709,46.9531007 42.1822745,49.8920251 44.2960086,52.2682301 C50.7342731,55.4963324 55.8007262,58.2695552 59.4953678,60.5878986 C75.0940571,70.3758895 100.4346,93.3155682 114.474972,100.464609 C128.723218,107.719495 142.053864,107.08484 143.244753,109.711062 C145.527405,114.74491 139.177267,118.178109 128.732436,120.162884 C121.769216,121.486067 114.099868,121.486067 105.724392,120.162884" id="Path-806" transform="translate(80.377420, 78.573584) rotate(-20.000000) translate(-80.377420, -78.573584) "></path>
            </g>
        </g>
    </g>
</svg>