<?xml version="1.0" encoding="UTF-8"?>
<svg width="152px" height="152px" viewBox="0 0 152 152" version="1.1" xmlns="http://www.w3.org/2000/svg" xmlns:xlink="http://www.w3.org/1999/xlink">
    <!-- Generator: Sketch 44.1 (41455) - http://www.bohemiancoding.com/sketch -->
    <title>mint</title>
    <desc>Created with Sketch.</desc>
    <defs></defs>
    <g id="Page-1" stroke="none" stroke-width="1" fill="none" fill-rule="evenodd" stroke-linecap="round">
        <g id="mint" stroke="#91E195">
            <g id="Group" transform="translate(3.000000, 7.000000)">
                <path d="M103.313493,128.067416 C89.484675,139.421668 48.6158926,140.40111 68.9199216,135.329612" id="Path-88" stroke-width="2.2"></path>
                <path d="M68.6664992,135.36033 C68.005172,135.35261 38.007188,134.868523 58.968353,130.550268" id="Path-89" stroke-width="2.2"></path>
                <path d="M59.0465609,130.46819 C54.3055472,129.713249 31.618555,128.603092 46.5639991,124.94382" id="Path-90" stroke-width="2.2"></path>
                <path d="M46.4827392,124.839917 C43.1121599,124.520611 24.1843767,116.896315 36.1777957,116.896315" id="Path-91" stroke-width="2.2"></path>
                <path d="M36.2364333,116.89165 C34.6854804,115.843168 14.0620231,105.303477 27.1630389,104.640449" id="Path-92" stroke-width="2.2"></path>
                <path d="M24.6819346,104.94266 C20.3244604,102.539033 3.31078599,90.978528 17.3851993,94.3041813" id="Path-93" stroke-width="2.2"></path>
                <path d="M17.7796315,94.2816459 C5.66270392,78.529086 1.08687047,77.6505135 11.3487021,81.7024191" id="Path-94" stroke-width="2.2"></path>
                <path d="M11.2862194,81.7437939 C-1.80799149,60.4645524 -5.13671785,63.9837969 17.0981257,69.9173423" id="Path-95" stroke-width="2.2"></path>
                <path d="M17.2093586,69.855557 C2.88759803,54.4940889 21.3761071,62.8697015 28.5125863,66.1668566" id="Path-96" stroke-width="2.2"></path>
                <path d="M28.6422519,66.2315027 C27.8869104,57.5641216 26.1494908,61.2669259 39.6688322,65.9215977" id="Path-97" stroke-width="2.2"></path>
                <path d="M40.5190771,65.9346542 C37.8677002,55.2383192 45.5610456,64.2944565 50.7456783,68.5817102" id="Path-98" stroke-width="2.2"></path>
                <path d="M101.501996,127.606893 C89.3533968,128.917343 89.2920944,130.294563 74.8953551,120.525538 C73.3286964,119.462469 57.921126,105.876274 58.7180271,98.9059342 C58.8920845,97.3834886 61.6376823,99.6984368 63.0975098,100.094688" id="Path-99" stroke-width="2.2"></path>
                <path d="M63.6740079,100.39178 C63.0990379,99.6728912 46.8775628,84.3493752 57.7566159,86.0271383" id="Path-100" stroke-width="2.2"></path>
                <path d="M57.6122184,85.8935974 C57.6027556,85.8757843 44.4776421,66.6682021 53.5667904,69.719158" id="Path-101" stroke-width="2.2"></path>
                <path d="M53.6214143,69.7255464 C50.8516702,65.9109363 43.2060302,58.4552664 44.8975856,51.8759644 C45.1765783,50.7908229 46.9987314,53.7926646 48.0378187,54.1761238" id="Path-102" stroke-width="2.2"></path>
                <path d="M48.2011311,54.133058 C46.2074375,46.2889858 38.3182109,33.9502486 47.3137025,36.1884487" id="Path-103" stroke-width="2.2"></path>
                <path d="M47.2621551,35.9629399 C45.2883277,14.4056487 41.9581376,10.8209918 48.5820362,21.248342" id="Path-104" stroke-width="2.2"></path>
                <path d="M48.694785,21.3839031 C49.1416885,-4.89260203 43.0296408,-3.39935694 59.9961742,12.752588" id="Path-105" stroke-width="2.2"></path>
                <path d="M60.2473118,12.4207298 C61.9015383,1.77233658 59.9499273,5.4812981 70.8099646,19.0772031" id="Path-106" stroke-width="2.2"></path>
                <path d="M70.8240329,18.9850411 C73.9387388,11.1289516 70.2670096,12.3485385 78.76876,20.8533427" id="Path-107" stroke-width="2.2"></path>
                <path d="M78.9569892,20.9820641 C82.4643607,13.9022301 78.8511167,14.8778265 85.5689226,27.3751618" id="Path-108" stroke-width="2.2"></path>
                <path d="M108.475361,126.460762 C90.5160555,126.976047 78.9612952,115.278934 75.8387097,96.8314607" id="Path-109" stroke-width="2.2"></path>
                <path d="M76.0520535,96.8439987 C95.98055,109.786145 64.733055,79.3762911 77.4106751,81.3015676" id="Path-110" stroke-width="2.2"></path>
                <path d="M77.3794215,81.265553 C76.2766689,78.0206018 70.6895683,55.6203178 77.7181758,67.1026505" id="Path-111" stroke-width="2.2"></path>
                <path d="M77.7519665,66.9777267 C77.7988111,65.8601798 77.3978495,35.6034062 83.5857694,49.1442339" id="Path-112" stroke-width="2.2"></path>
                <path d="M83.6344086,48.9961949 C84.1613128,45.8500455 85.4583236,23.9960083 87.9967734,36.7678378" id="Path-113" stroke-width="2.2"></path>
                <path d="M88.1635688,36.8353621 C88.2442135,30.9458416 92.6149293,9.44822321 96.0013279,26.162482" id="Path-114" stroke-width="2.2"></path>
                <path d="M96.1075269,26.2806591 C102.329994,7.66341411 101.098594,4.17656189 102.169971,17.0255571" id="Path-115" stroke-width="2.2"></path>
                <path d="M102.248328,17.0671927 C108.704223,-0.967739304 107.093389,-8.86244153 115.802761,15.4824899" id="Path-116" stroke-width="2.2"></path>
                <path d="M115.843548,15.449332 C120.951405,-0.826299091 122.620016,20.8469464 123.519919,26.6174159" id="Path-117" stroke-width="2.2"></path>
                <path d="M123.575766,26.5785415 C129.880927,13.4030542 127.924877,32.4449754 128.788866,39.647743" id="Path-118" stroke-width="2.2"></path>
                <path d="M128.868691,39.7118982 C136.475722,21.7284962 134.470475,49.1974124 134.487562,53.3884768" id="Path-119" stroke-width="2.2"></path>
                <path d="M134.46431,53.3157074 C147.211551,47.5052278 139.415631,63.2684256 137.050077,69.7050911" id="Path-120" stroke-width="2.2"></path>
                <path d="M137.113731,69.6765786 C149.027699,65.6452672 142.882579,65.3893514 138.530623,86.1469995" id="Path-121" stroke-width="2.2"></path>
                <path d="M138.50636,86.1740881 C143.555878,83.9668587 146.096327,81.3978467 142.677724,93.864896 C140.397362,102.180984 138.111551,110.846159 133.246656,117.928709 C128.173166,125.314942 115.785566,125.328312 108.580645,126.299327" id="Path-122" stroke-width="2.2"></path>
                <path d="M105.462366,125.593358 C110.243036,99.9690354 104.406695,74.3079681 106.803869,48.4157303" id="Path-123" stroke-width="2"></path>
                <path d="M111.092463,126.181167 C110.186415,113.254421 107.927553,92.5784316 107.021505,79.6516854 L111.092463,126.181167 Z" id="Path-124" stroke-width="1.5"></path>
                <path d="M24.3870968,78.0898876 C29.389746,80.6373428 33.0958918,81.7744931 35.633231,82.985453 C38.1705702,84.1964129 41.28739,85.572564 58.5947486,95.0889335" id="Path-125" stroke-width="1.5"></path>
                <path d="M57.1290323,21.8651685 C72.4162821,46.901038 65.8263821,33.9187233 76.9623859,60.7788107" id="Path-126" stroke-width="1.5"></path>
            </g>
        </g>
    </g>
</svg>