<?xml version="1.0" encoding="UTF-8"?>
<svg width="152px" height="152px" viewBox="0 0 152 152" version="1.1" xmlns="http://www.w3.org/2000/svg" xmlns:xlink="http://www.w3.org/1999/xlink">
    <!-- Generator: Sketch 44.1 (41455) - http://www.bohemiancoding.com/sketch -->
    <title>pistachio</title>
    <desc>Created with Sketch.</desc>
    <defs></defs>
    <g id="Page-1" stroke="none" stroke-width="1" fill="none" fill-rule="evenodd">
        <g id="pistachio" stroke="#979797" stroke-width="2">
            <g id="Group" transform="translate(40.118463, 92.718872) rotate(10.000000) translate(-40.118463, -92.718872) translate(8.811491, 38.448871)">
                <path d="M31.9436893,103.820199 C31.9436893,103.820199 31.7264864,108.268388 31.3284246,108.187152 C27.2823185,107.361427 4.55033875,101.691187 1.29995445,78.0038341 C-2.27020737,51.9860851 9.65161056,8.90621223 16.0628406,3.71183085 C21.4132719,-0.623090888 28.893742,36.727219 31.2226935,49.2058213 C31.6844411,51.679881 32.3452351,72.5430237 32.3452351,72.5430237 C32.3452351,72.5430237 32.2306798,51.7075863 32.7323552,49.2748036 C35.2817547,36.9119575 43.3752626,-0.348254162 47.5239451,3.71183085 C52.4890128,8.57086656 64.6191138,52.2512331 61.3701789,78.0038341 C58.450835,101.14394 37.018935,107.162088 32.7006228,108.14498 C32.2130895,108.255947 31.9436893,103.820199 31.9436893,103.820199 Z" id="Path-711" stroke-linecap="round" stroke-linejoin="round"></path>
                <path d="M21.5538568,10.2655467 C21.5538568,10.2655467 26.4456211,0.729007962 32.4566257,0.729007962 C38.4676302,0.729007962 42.5389422,10.2655467 42.5389422,10.2655467" id="Path-712"></path>
            </g>
            <g id="Group" transform="translate(110.970531, 58.739922) rotate(-10.000000) translate(-110.970531, -58.739922) translate(79.663559, 4.469921)">
                <path d="M31.9436893,103.820199 C31.9436893,103.820199 31.7264864,108.268388 31.3284246,108.187152 C27.2823185,107.361427 4.55033875,101.691187 1.29995445,78.0038341 C-2.27020737,51.9860851 9.65161056,8.90621223 16.0628406,3.71183085 C21.4132719,-0.623090888 28.893742,36.727219 31.2226935,49.2058213 C31.6844411,51.679881 32.0007272,58.238078 32.0007272,58.238078 C32.0007272,58.238078 32.2306798,51.7075863 32.7323552,49.2748036 C35.2817547,36.9119575 43.3752626,-0.348254162 47.5239451,3.71183085 C52.4890128,8.57086656 64.6191138,52.2512331 61.3701789,78.0038341 C58.450835,101.14394 37.018935,107.162088 32.7006228,108.14498 C32.2130895,108.255947 31.9436893,103.820199 31.9436893,103.820199 Z" id="Path-711" stroke-linecap="round" stroke-linejoin="round"></path>
                <path d="M21.5538568,10.2655467 C21.5538568,10.2655467 26.4456211,0.729007962 32.4566257,0.729007962 C38.4676302,0.729007962 42.5389422,10.2655467 42.5389422,10.2655467" id="Path-712"></path>
            </g>
        </g>
    </g>
</svg>