<?xml version="1.0" encoding="UTF-8"?>
<svg width="152px" height="152px" viewBox="0 0 152 152" version="1.1" xmlns="http://www.w3.org/2000/svg" xmlns:xlink="http://www.w3.org/1999/xlink">
    <!-- Generator: Sketch 44.1 (41455) - http://www.bohemiancoding.com/sketch -->
    <title>plumtomato</title>
    <desc>Created with Sketch.</desc>
    <defs></defs>
    <g id="Page-1" stroke="none" stroke-width="1" fill="none" fill-rule="evenodd" stroke-linecap="round">
        <g id="plumtomato" stroke="#FF0000" stroke-width="2.1">
            <g id="Group-2" transform="translate(27.000000, 5.000000)">
                <g id="Group" transform="translate(24.734591, 0.000000)">
                    <path d="M29.5975981,28.4900558 C29.7386109,19.3849327 41.7709402,1.49683198 44.0008559,9.68436651 C44.614062,11.9358626 39.9931952,12.1734915 39.2006151,14.3688011 C37.4562108,19.2004987 37.4258606,24.1554213 36.9312344,29.2659931" id="Path-256"></path>
                    <path d="M24.0205272,32.4599006 C23.268862,37.1710242 21.4761707,43.2953231 14.4822714,40.95205 C12.8277719,40.3977177 9.80782547,36.6119776 10.7359598,37.3092689 C18.2072643,42.9223319 23.4009687,44.0348685 36.0572877,33.8544777" id="Path-257"></path>
                    <path d="M36.0572877,33.8544777 C80.7504888,52.8959785 56.1186941,37.096479 40.8529135,27.4446025" id="Path-258"></path>
                    <path d="M41.4873718,27.3596205 C42.9772423,25.8732519 49.0934235,22.7932447 52.240099,18.3698989 C55.3867746,13.9465532 59.9127979,13.1065584 59.9127979,13.1065584 C54.3833826,14.9839959 50.8212098,14.0651198 46.291423,17.4559857 C43.8393509,19.2915351 40.9941009,19.8501273 38.0593784,20.7407081" id="Path-259" stroke-linejoin="round"></path>
                    <path d="M24.3726175,32.4653897 C12.1231604,19.3343936 -23.6259455,12.7934802 25.5682262,23.5705106" id="Path-260"></path>
                    <path d="M25.4997733,22.7359433 C29.0678312,-16.0743336 25.1677078,4.04414834 33.9704874,15.7995108" id="Path-261"></path>
                    <path d="M32.0692601,12.1215275 C33.4735514,12.4245813 34.4674233,12.3368271 35.8717146,12.6398809 L32.0692601,12.1215275 Z" id="Path-262"></path>
                    <path d="M40.0956829,13.7989954 C40.0956829,13.7989954 41.7241289,14.0637799 43.0344071,14.6729341 C44.3446854,15.2820884 46.8940913,17.0077462 46.8940913,17.0077462" id="Path-263"></path>
                </g>
                <path d="M50.0547959,13.0003756 C-14.1558666,13.518009 -12.5685114,126.341157 31.9984237,139.490132 C90.0583415,156.620059 118.847382,82.4001867 83.6828471,28.2080195 C83.6828471,28.2080195 82.268589,25.7288344 80.8484223,24.2337805 C79.4282557,22.7387265 76.1455263,20.2732459 76.1455263,20.2732459" id="Path-255"></path>
            </g>
        </g>
    </g>
</svg>