<?xml version="1.0" encoding="UTF-8"?>
<svg width="152px" height="152px" viewBox="0 0 152 152" version="1.1" xmlns="http://www.w3.org/2000/svg" xmlns:xlink="http://www.w3.org/1999/xlink">
    <!-- Generator: Sketch 44.1 (41455) - http://www.bohemiancoding.com/sketch -->
    <title>portobellomushroom</title>
    <desc>Created with Sketch.</desc>
    <defs></defs>
    <g id="Page-1" stroke="none" stroke-width="1" fill="none" fill-rule="evenodd">
        <g id="portobellomushroom" stroke="#095B6B">
            <g id="Group" transform="translate(5.000000, 27.000000)">
                <path d="M59.8943399,46.9599058 C59.8943399,46.9599058 56.9844227,39.5162745 56.4728081,36.2462731 C55.9611934,32.9762717 56.9440061,28.1027531 56.9440061,28.1027531 C56.9440061,28.1027531 58.9166426,23.0945574 69.8602898,22.0980169 C80.8039369,21.1014764 84.9210106,25.5434877 84.9210106,25.5434877 C84.9210106,25.5434877 87.3346152,29.9161774 87.682393,33.461779 C88.0301707,37.0073805 86.7282253,43.9680798 86.7282253,43.9680798 C86.7282253,43.9680798 78.9229087,48.1995111 74.2788871,49.0342879 C69.6348655,49.8690647 59.8943399,46.9599058 59.8943399,46.9599058 Z" id="Path-301" stroke-width="2.2"></path>
                <path d="M56.603041,28.7068988 C56.603041,28.7068988 57.8829367,33.558087 71.9749,32.3494361 C86.0668633,31.1407853 85.2542913,26.0870885 85.2542913,26.0870885" id="Path-302" stroke-width="2.2"></path>
                <path d="M7.74304742,45.4219402 C9.41153281,50.5008006 14.581948,51.5742829 18.4615265,56.6140067 C22.341105,61.6537304 27.0565364,71.6178621 27.0565364,71.6178621 C27.0565364,71.6178621 30.2363961,75.8257504 34.4921291,76.8246102 C38.7478621,77.82347 49.3443936,77.82347 49.3443936,77.82347 L78.851853,75.0551608 L104.808796,68.5864204 C104.808796,68.5864204 124.613943,61.2226482 133.922332,49.4219006 C143.230721,37.621153 131.690192,31.4594218 131.690192,31.4594218 C131.690192,31.4594218 126.762183,28.1684759 124.613943,25.3790469 C122.465703,22.5896179 118.729119,14.629831 118.729119,14.629831 C118.729119,14.629831 110.358591,7.12093929 104.808796,5.49757372 C99.2590001,3.87420816 87.5086953,5.49757372 87.5086953,5.49757372 C87.5086953,5.49757372 74.2005454,9.5910786 64.3018868,11.50066 C54.4032281,13.4102414 29.1787733,16.7501825 29.1787733,16.7501825 C29.1787733,16.7501825 13.9461481,23.2319313 10.4153589,27.8207562 C6.8845697,32.4095811 6.07456203,40.3430799 7.74304742,45.4219402 Z" id="Path-303" stroke-width="2.2"></path>
                <path d="M0.613771486,42.8108108 C0.613771486,42.8108108 2.07027779,55.2631423 3.46867723,59.58468 C4.86707667,63.9062176 10.0312487,69.6126632 10.0312487,69.6126632 C10.0312487,69.6126632 23.6944017,88.0288159 32.2576024,91.2577932 C40.8208031,94.4867704 44.7312361,95.6137666 44.7312361,95.6137666 C44.7312361,95.6137666 71.8587159,102.643283 97.1370109,93.7801584 C122.415306,84.9170341 132.99544,71.1915098 132.99544,71.1915098 C132.99544,71.1915098 140.704364,57.9484909 141.145699,49.1558178 C141.587035,40.3631448 141.145699,40.06436 141.145699,40.06436 C141.145699,40.06436 138.591164,32.4216565 136.927014,29.6234632 C135.262865,26.8252699 129.628602,20.6988753 129.628602,20.6988753 C129.628602,20.6988753 123.346082,11.4758876 112.915787,4.9087333 C98.2366531,-2.50341558 88.0851014,2.79525149 82.6829005,2.72915588 C64.222207,3.82447667 46.1704768,8.8689055 46.1704768,8.8689055 C46.1704768,8.8689055 25.2168639,12.385763 16.9208563,16.7373552 C8.55593239,21.0039094 9.40792756,19.9761213 4.77796557,25.734437 C0.148003578,31.4927527 0.613771486,42.8108108 0.613771486,42.8108108 Z" id="Path-304" stroke-width="2.2"></path>
                <path d="M58.9404958,46.5482277 C58.9404958,46.5482277 51.4628243,48.5611833 48.6559765,50.1974249 C45.8491287,51.8336664 40.7986103,57.7156593 40.7986103,57.7156593 C40.7986103,57.7156593 37.3118606,62.7435295 35.4653591,64.356458 C33.6188575,65.9693864 29.0200746,68.0042699 29.0200746,68.0042699" id="Path-305" stroke-width="1.4" stroke-linecap="round"></path>
                <path d="M61.1631016,48.7808734 C61.1631016,48.7808734 56.7736447,51.9818357 55.2303594,54.4121638 C53.687074,56.8424919 52.3503426,62.6589914 52.3503426,62.6589914 C52.3503426,62.6589914 51.3229886,66.671494 50.6285277,68.1948689 C49.9340668,69.7182438 47.7325796,72.7885524 47.7325796,72.7885524" id="Path-306" stroke-width="1.4" stroke-linecap="round"></path>
                <path d="M65.1819696,48.7808734 C65.1819696,48.7808734 60.7925126,51.9818357 59.2492273,54.4121638 C57.705942,56.8424919 56.3692106,62.6589914 56.3692106,62.6589914 C56.3692106,62.6589914 55.3418565,66.671494 54.6473956,68.1948689 C53.9529347,69.7182438 51.7514476,72.7885524 51.7514476,72.7885524" id="Path-306" stroke-width="1.4" stroke-linecap="round" transform="translate(58.466709, 60.784713) rotate(350.000000) translate(-58.466709, -60.784713) "></path>
                <path d="M57.7862712,43.0365046 C57.7862712,43.0365046 52.0972902,41.201046 46.5516122,43.0365046 C41.0059342,44.8719633 35.5489916,49.6845493 35.5489916,49.6845493 C35.5489916,49.6845493 32.2929046,52.3704173 29.0074194,53.3217994 C25.7219341,54.2731815 21.0448814,54.0943812 21.0448814,54.0943812" id="Path-307" stroke-width="1.4" stroke-linecap="round"></path>
                <path d="M57.7773416,39.920213 C57.7773416,39.920213 52.0883607,38.0847543 46.5426827,39.920213 C40.9970047,41.7556717 32.9711029,48.1749122 32.9711029,48.1749122 C32.9711029,48.1749122 30.003895,50.1404795 26.7184097,51.0918616 C23.4329245,52.0432436 16.001899,51.1630543 16.001899,51.1630543" id="Path-307" stroke-width="1.4" stroke-linecap="round" transform="translate(36.889620, 45.319216) rotate(10.000000) translate(-36.889620, -45.319216) "></path>
                <path d="M88.3182442,40.1842984 C88.3182442,40.1842984 91.5983554,38.3048544 95.7037973,38.3048544 C99.8092392,38.3048544 103.823926,40.1416784 103.823926,40.1416784 C103.823926,40.1416784 113.604197,44.0501672 117.964257,43.660829 C122.324316,43.2714908 128.928775,41.0309507 128.928775,41.0309507" id="Path-308" stroke-width="1.4" stroke-linecap="round"></path>
                <path d="M86.9786216,36.1707848 C86.9786216,36.1707848 90.2587328,34.2913408 94.3641747,34.2913408 C98.4696165,34.2913408 102.484303,36.1281649 102.484303,36.1281649 C102.484303,36.1281649 112.264574,40.0366537 116.624634,39.6473155 C120.984694,39.2579772 127.589153,37.0174372 127.589153,37.0174372" id="Path-308" stroke-width="1.4" stroke-linecap="round" transform="translate(107.283887, 36.982963) rotate(350.000000) translate(-107.283887, -36.982963) "></path>
                <path d="M82.3755812,46.2770352 C82.3755812,46.2770352 86.7594651,46.3920182 89.8569474,47.3894964 C92.9544296,48.3869745 99.2151427,53.2284698 99.2151427,53.2284698 C99.2151427,53.2284698 105.370799,58.2507058 107.064251,59.5566745 C108.757702,60.8626432 111.382526,61.7909638 111.382526,61.7909638" id="Path-309" stroke-width="1.4" stroke-linecap="round"></path>
                <path d="M56.8832292,38.5884878 C56.8832292,38.5884878 53.217343,34.9565455 50.3931403,33.224382 C47.5689375,31.4922185 42.914435,32.8026195 42.914435,32.8026195 C42.914435,32.8026195 29.2482657,36.7396632 24.5335103,37.2278704 C19.8187549,37.7160776 15.2835135,35.3895264 15.2835135,35.3895264" id="Path-310" stroke-width="1.4" stroke-linecap="round"></path>
            </g>
        </g>
    </g>
</svg>