<?xml version="1.0" encoding="UTF-8"?>
<svg width="152px" height="152px" viewBox="0 0 152 152" version="1.1" xmlns="http://www.w3.org/2000/svg" xmlns:xlink="http://www.w3.org/1999/xlink">
    <!-- Generator: Sketch 44.1 (41455) - http://www.bohemiancoding.com/sketch -->
    <title>radish</title>
    <desc>Created with Sketch.</desc>
    <defs></defs>
    <g id="Page-1" stroke="none" stroke-width="1" fill="none" fill-rule="evenodd">
        <g id="radish" stroke="#979797" stroke-width="2">
            <g id="Group" transform="translate(107.144970, 79.639152) rotate(-20.000000) translate(-107.144970, -79.639152) translate(54.644970, 24.639152)">
                <path d="M61.7762489,53.4724635 C66.8506686,51.805915 80.6276035,47.7593631 80.6276035,47.7593631 C80.6276035,47.7593631 68.1591407,51.6525872 61.7762489,53.4724635 C55.3933572,55.2923399 46.0053839,64.1155101 46.0053839,64.1155101 L46.0053839,64.8411893 C46.0053839,64.8411893 46.759349,58.5980595 55.0060766,48.9324799 C63.2528042,39.2669002 63.2528042,18.4292489 63.2528042,18.4292489 C63.2528042,18.4292489 63.2528042,39.1446107 55.0060766,48.9324799 C46.759349,58.7203491 44.8636354,64.1155101 44.8636354,64.1155101 C44.8636354,64.1155101 24.4460231,47.5602127 11.6393609,67.6007657 C4.37740825,78.9646593 13.3420352,92.129542 14.3536672,96.1495338 C15.5569236,100.694485 16.3461898,102.612879 11.7174038,106.021197 C9.79218324,107.048219 5.74510241,107.395221 2.94609834,107.861715 C0.147094261,108.328209 7.10542736e-15,109.362743 7.10542736e-15,109.362743 C7.10542736e-15,109.362743 1.39238842,107.885944 2.94609834,107.861715 C4.49980825,107.837487 7.46950402,109.36543 10.4921052,108.380187 C15.8964059,106.618608 19.6750474,102.929567 25.0458953,103.28678 C30.4167432,103.643994 47.9462201,105.670017 54.0912995,95.484716 C66.3288514,75.2013088 44.8636354,64.1155101 44.8636354,64.1155101 C44.8636354,64.1155101 56.7018293,55.1390121 61.7762489,53.4724635 Z" id="Path-729" stroke-linejoin="round"></path>
                <path d="M60.9582847,53.5469984 C62.651092,52.5418151 64.5927906,52.3008865 66.7833804,52.8242125 C70.0692652,53.6092015 82.1543302,58.8469195 84.9008984,59.0232354 C89.5954426,59.3246017 84.7926924,52.4920379 84.7926924,52.4920379 C84.7926924,52.4920379 100.539966,50.175002 100.58882,46.9567352 C100.637673,43.7384684 96.3687059,43.5537086 96.3687059,43.5537086 C101.867242,37.3262239 106.404207,30.6907179 102.663863,28.9632854 C95.1521424,25.4940887 83.4136054,37.9398279 83.4136054,37.9398279 C83.4136054,37.9398279 82.5672462,30.7596338 78.1817184,33.5266181 C75.4919208,35.2237064 70.0048311,45.0915337 67.2431119,48.5380613 C65.4019657,50.8357463 63.3070233,52.505392 60.9582847,53.5469984 Z" id="Path-730"></path>
                <path d="M56.2981577,46.6081592 C56.2981577,46.6081592 57.3659933,43.0329835 55.7369285,40.2261807 C54.1078636,37.4193779 45.024815,26.7326939 45.3741164,23.7155029 C45.8931638,19.2320828 52.6788016,22.6837573 52.6788016,22.6837573 C52.6788016,22.6837573 50.0899535,13.534853 52.1670802,9.92535469 C54.2442069,6.31585638 57.1280585,9.26484183 57.1280585,9.26484183 C60.476719,3.78577594 62.0481169,-0.189437548 65.2910067,0.0069706685 C66.6425404,0.0888273844 68.0971585,4.94555196 69.2736972,10.1646773 C69.2736972,10.1646773 72.5236598,8.63708664 73.574149,11.457119 C74.6246382,14.2771513 70.8636399,22.1919297 70.8636399,22.1919297 C70.8636399,22.1919297 79.25138,24.0182445 77.2514806,27.4292371 C75.2515811,30.8402298 57.1186978,45.6350564 57.1186978,45.6350564 L56.2981577,46.6081592 Z" id="Path-732"></path>
            </g>
            <g id="Group" transform="translate(38.174969, 58.408333) scale(-1, 1) rotate(-40.000000) translate(-38.174969, -58.408333) translate(-12.825031, 4.908333)">
                <path d="M60.1938522,52.102768 C65.1382907,50.478908 78.5623299,46.5360085 78.5623299,46.5360085 C78.5623299,46.5360085 66.4132463,50.3295077 60.1938522,52.102768 C53.974458,53.8760283 44.8269574,62.4731932 44.8269574,62.4731932 L44.8269574,63.1802842 C44.8269574,63.1802842 45.5616097,57.097072 53.5970976,47.6790759 C61.6325855,38.2610797 61.6325855,17.9571842 61.6325855,17.9571842 C61.6325855,17.9571842 61.6325855,38.1419227 53.5970976,47.6790759 C45.5616097,57.2162291 43.7144548,62.4731932 43.7144548,62.4731932 C43.7144548,62.4731932 23.8198389,46.3419592 11.341219,65.8691741 C4.26528106,76.9419819 13.0002794,89.7696465 13.9859984,93.6866664 C15.1584335,98.1151983 15.9274826,99.9844533 11.4172628,103.305468 C9.54135676,104.306182 5.59794178,104.644296 2.87063411,105.09884 C0.143326446,105.553385 7.10542736e-15,106.56142 7.10542736e-15,106.56142 C7.10542736e-15,106.56142 1.35672243,105.122448 2.87063411,105.09884 C4.3845458,105.075233 7.2781729,106.564037 10.2233502,105.604031 C15.4892199,103.887576 19.1710716,100.29303 24.4043454,100.641093 C29.6376193,100.989156 46.7180791,102.963283 52.7057525,93.0388778 C64.6298399,73.2750296 43.7144548,62.4731932 43.7144548,62.4731932 C43.7144548,62.4731932 55.2494136,53.7266279 60.1938522,52.102768 Z" id="Path-729" stroke-linejoin="round"></path>
                <path d="M59.39684,52.1753936 C61.0462862,51.1959581 62.9382482,50.9612009 65.0727262,51.4711219 C68.2744431,52.2360034 80.0499494,57.3395574 82.7261644,57.511357 C87.300458,57.8050038 82.6207301,51.1474559 82.6207301,51.1474559 C82.6207301,51.1474559 97.9646381,48.8897708 98.0122403,45.7539398 C98.0598425,42.6181088 93.9002244,42.4380816 93.9002244,42.4380816 C99.2579156,36.3701138 103.678667,29.904576 100.034131,28.2213917 C92.7148231,24.8410584 81.2769683,36.9680004 81.2769683,36.9680004 C81.2769683,36.9680004 80.4522887,29.9717267 76.1790961,32.6678348 C73.5581976,34.3214522 68.2116595,43.9365154 65.5206816,47.2947603 C63.7266963,49.5335902 61.6854158,51.160468 59.39684,52.1753936 Z" id="Path-730"></path>
                <path d="M54.8560821,45.4142926 C54.8560821,45.4142926 55.8965651,41.930695 54.3092287,39.1957883 C52.7218923,36.4608816 43.8715057,26.0479367 44.2118598,23.108031 C44.7176117,18.7394536 51.3294357,22.1027136 51.3294357,22.1027136 C51.3294357,22.1027136 48.8069008,13.1881581 50.830822,9.67111702 C52.8547432,6.15407591 55.664725,9.02752318 55.664725,9.02752318 C58.9276097,3.6888034 60.4587563,-0.184585111 63.6185796,0.00679211504 C64.9354937,0.0865520736 66.3528518,4.81887179 67.4992535,9.90430935 C67.4992535,9.90430935 70.6659684,8.41584793 71.6895494,11.1636452 C72.7131304,13.9114425 69.0484699,21.6234841 69.0484699,21.6234841 C69.0484699,21.6234841 77.2213583,23.4030179 75.2726862,26.726638 C73.3240141,30.0502582 55.6556041,44.4661158 55.6556041,44.4661158 L54.8560821,45.4142926 Z" id="Path-732"></path>
            </g>
        </g>
    </g>
</svg>