<?xml version="1.0" encoding="UTF-8"?>
<svg width="152px" height="152px" viewBox="0 0 152 152" version="1.1" xmlns="http://www.w3.org/2000/svg" xmlns:xlink="http://www.w3.org/1999/xlink">
    <!-- Generator: Sketch 44.1 (41455) - http://www.bohemiancoding.com/sketch -->
    <title>basil</title>
    <desc>Created with Sketch.</desc>
    <defs></defs>
    <g id="Page-1" stroke="none" stroke-width="1" fill="none" fill-rule="evenodd">
        <g id="basil" stroke="#91E195">
            <g id="Group" transform="translate(3.000000, 32.000000)">
                <path d="M71.2581022,48.3830392 C68.0796611,91.4800875 98.3995337,87.3093643 127.588996,83.3992808 C133.03653,82.6695548 139.10525,86.1401148 144.073587,83.7957357 C146.849647,82.4858129 146.986895,77.6273678 145.85352,74.7809109 C140.932573,62.4220093 134.048417,50.8383461 126.567885,39.8303691 C111.786236,18.0784315 84.2577129,30.3771576 70.9923956,45.3544169 L69.5451648,47.2630285 L69.3486688,46.1665551 L68.6522996,48.5532929 L68.7222602,49.350729 L72.00291,47.5663042 L71.9577849,47.0519516 L72.2525036,44.6909641 L73.2442499,41.5174102" id="Path-3" stroke-width="2.2" transform="translate(107.586366, 56.882391) rotate(5.000000) translate(-107.586366, -56.882391) "></path>
                <path d="M71.5030976,48.607727 C97.6076006,49.675104 132.482634,56.5284252 144.755849,82.2652665" id="Path-9" stroke-width="1.8" transform="translate(108.129473, 65.436497) rotate(5.000000) translate(-108.129473, -65.436497) "></path>
                <path d="M70.9009936,40.7713276 L66.485147,39.9452908 C46.6963051,37.4742053 38.1871055,49.5683673 33.1551252,68.0817509" id="Path-10" stroke-width="2.2"></path>
                <path d="M33.1846777,67.8832571 C31.5615502,78.9551045 56.492546,68.5573051 57.0791885,68.2205034 C67.6957256,62.125364 68.2795576,51.1102392 69.4674801,41.3206306" id="Path-11" stroke-width="2.2"></path>
                <path d="M68.2986263,40.5220417 C47.1643553,62.6843677 56.0017897,55.5420323 33.9433805,70.9709668" id="Path-12" stroke-width="1.8"></path>
                <path d="M63.5335616,39.5277393 L63.2610233,38.3534899 C62.5883892,21.58191 63.4506081,19.1095239 78.2266699,8.16385775 C82.0314019,5.34542574 81.3437696,8.33220883 81.5865045,10.5107664" id="Path-13" stroke-width="2.2"></path>
                <path d="M81.5587221,10.2179884 C80.7643558,25.6947507 83.0900583,33.0658916 71.5069298,41.4810246" id="Path-14" stroke-width="2.2"></path>
                <path d="M71.5069298,45.5228188 C70.0271107,24.1185216 69.5898368,29.1876213 80.3035796,8.27434241" id="Path-15" stroke-width="1.8"></path>
                <path d="M46.5618529,44.1728158 C39.7090834,43.8363822 32.6707407,44.7785198 26.0035445,43.163515 C-6.97565587,35.1749144 -12.2685787,-9.48525181 34.2690797,2.27708264 C54.2012031,7.31490168 54.4663388,9.92051003 64.6493831,21.5025555" id="Path-16" stroke-width="2.2"></path>
                <path d="M64.5686874,39.6838417 C41.908016,37.784416 19.1672256,23.9606865 1.93790459,9.18859869" id="Path-17" stroke-width="1.8" transform="translate(33.253296, 24.436220) rotate(180.000000) translate(-33.253296, -24.436220) "></path>
                <path d="M92.0663158,49.9739211 C92.1911851,63.3498781 94.2211384,66.5685233 102.118108,74.4634326" id="Path-19" stroke-width="1.5" stroke-linecap="round"></path>
                <path d="M30.0723568,13.7247412 C30.1505684,35.2671011 31.422026,40.4508209 36.3682788,53.1657972" id="Path-19" stroke-width="1.5" stroke-linecap="round" transform="translate(33.220318, 33.445269) rotate(270.000000) translate(-33.220318, -33.445269) "></path>
                <path d="M33.5511404,1.91810345 C33.6760096,13.7315065 35.705963,16.5741557 43.6029326,23.5467966" id="Path-19" stroke-width="1.5" stroke-linecap="round" transform="translate(38.577036, 12.732450) rotate(180.000000) translate(-38.577036, -12.732450) "></path>
                <path d="M102.779211,51.6629452 C111.714842,47.4382724 121.522413,39.2344087 130.383858,47.3771104" id="Path-20" stroke-width="1.5" stroke-linecap="round"></path>
                <path d="M122.523566,63.2464306 C127.642857,60.4311934 133.261689,54.9643033 138.338478,60.3904363" id="Path-20" stroke-width="1.5" stroke-linecap="round" transform="translate(130.431022, 60.663719) rotate(20.000000) translate(-130.431022, -60.663719) "></path>
            </g>
        </g>
    </g>
</svg>