<?xml version="1.0" encoding="UTF-8"?>
<svg width="152px" height="152px" viewBox="0 0 152 152" version="1.1" xmlns="http://www.w3.org/2000/svg" xmlns:xlink="http://www.w3.org/1999/xlink">
    <!-- Generator: Sketch 44.1 (41455) - http://www.bohemiancoding.com/sketch -->
    <title>frisee</title>
    <desc>Created with Sketch.</desc>
    <defs></defs>
    <g id="Page-1" stroke="none" stroke-width="1" fill="none" fill-rule="evenodd" stroke-linejoin="round">
        <g id="frisee" stroke="#91E195" stroke-width="2">
            <g id="Group" transform="translate(5.000000, 20.000000)">
                <path d="M40.7965416,62.0420673 C40.7965416,62.0420673 33.5640246,48.6587356 26.3935292,41.648907 C19.2230339,34.6390783 14.2019552,36.0433763 14.2019552,36.0433763 C14.2019552,36.0433763 18.0611006,28.5950335 18.1023285,27.0182017 C18.1435564,25.4413698 13.3533187,26.0676441 13.3533187,26.0676441 C13.3533187,26.0676441 9.93133081,14.6826307 8.2917463,14.8689646 C6.6521618,15.0552986 3.75147866,26.4658944 3.75147866,26.4658944 C3.75147866,26.4658944 -0.562534469,26.219264 0.0666495524,27.9608175 C0.695833574,29.702371 8.2917463,39.0331542 8.2917463,39.0331542 C8.77186166,59.9308352 14.3892521,44.17056 33.0404288,59.9143819 C52.2768887,76.1522528 35.9139777,93.476683 62.4054911,107.184615" id="Path-459" stroke-linecap="round"></path>
                <path d="M115.789707,65.4957536 C115.789707,65.4957536 108.55719,52.1124219 101.386695,45.1025932 C94.2161997,38.0927646 89.195121,39.4970626 89.195121,39.4970626 C89.195121,39.4970626 93.0542664,32.0487198 93.0954943,30.4718879 C93.1367222,28.895056 88.3464845,29.5213304 88.3464845,29.5213304 C88.3464845,29.5213304 84.9244966,18.1363169 83.2849121,18.3226509 C81.6453276,18.5089849 78.7446445,29.9195806 78.7446445,29.9195806 C78.7446445,29.9195806 74.4306313,29.6729503 75.0598154,31.4145038 C75.6889994,33.1560573 83.2849121,42.4868404 83.2849121,42.4868404 C83.7650275,63.3845215 89.3824179,47.6242462 108.033595,63.3680682 C127.270054,79.6059391 116.002098,94.2971176 142.493611,108.00505" id="Path-459" stroke-linecap="round" transform="translate(108.745367, 63.162719) scale(-1, 1) translate(-108.745367, -63.162719) "></path>
                <path d="M9.80725027,25.8640777 C10.2873656,46.7617587 16.5603704,40.2555625 35.211547,55.9993845 C54.4480069,72.2372554 36.6859498,91.8263736 63.1774633,105.534306" id="Path-459" stroke-linecap="round"></path>
                <path d="M74.9442521,106.315454 C90.0513658,95.0164744 91.1934975,86.8240233 98.2019796,71.8292954 C104.033417,59.352869 114.288355,50.4726349 125.400691,48.6408978 C125.400691,48.6408978 128.138814,48.1654482 129.349647,46.0879193 C130.560481,44.0103903 133.723856,34.3601485 133.723856,34.3601485" id="Path-460" stroke-linecap="round"></path>
                <path d="M74.7626511,108.536637 C71.0925094,89.2246003 50.4608507,118.588096 74.4918025,109.029667 L74.7626511,108.536637 Z" id="Path-461" stroke-linecap="round"></path>
                <path d="M64.0847799,103.905099 C40.8491763,79.3973922 49.836057,51.1078663 39.0372637,21.6819789" id="Path-462" stroke-linecap="round"></path>
                <path d="M67.2980479,101.946778 C59.1501973,76.5344913 65.4936082,56.0002588 68.4292356,27.8588616" id="Path-463" stroke-linecap="round"></path>
                <path d="M72.6757941,102.983871 C91.9439907,96.025553 83.5061586,66.7575666 87.3440425,53.3782855 C89.7554515,44.9718516 98.6643543,29.4116102 103.02984,21.8252811" id="Path-464" stroke-linecap="round"></path>
                <path d="M48.2179934,72.7100269 C48.2179934,72.7100269 43.2545551,51.9128832 39.32602,47.570517 C35.3974849,43.2281508 32.1078852,42.1956164 30.9998327,39.983454 C28.5105822,35.01381 34.7070395,34.6125952 34.7070395,34.6125952 C34.7070395,34.6125952 25.6384808,21.5279956 25.5828781,19.5740993 C25.5272754,17.6202029 34.304152,20.4550096 34.304152,20.4550096 C34.304152,20.4550096 34.6795689,5.21111109 36.4264235,4.9420368 C38.1732782,4.67296251 43.257614,19.0758757 43.257614,19.0758757 C43.257614,19.0758757 49.6455793,11.5607055 51.071244,15.6125144 C52.4969087,19.6643232 49.0760794,35.6122389 49.0760794,35.6122389 C49.0760794,35.6122389 53.7707842,32.9898874 54.334724,38.8787769 C54.6239848,41.8993561 52.5612047,51.6613306 52.0816747,59.8904752 C51.6021447,68.1196198 52.7598838,74.0800275 52.7598838,74.0800275 C52.7598838,74.0800275 54.3004466,84.6451388 55.6581037,87.7923629 C57.0157608,90.939587 65.2296628,102.986582 65.2296628,102.986582" id="Path-473" stroke-linecap="round"></path>
                <path d="M65.3853377,102.305805 C65.3853377,102.305805 60.9729794,90.5590059 60.1966782,83.3574282 C59.420377,76.1558505 60.2385616,57.1944531 60.6915778,52.9180856 C60.8563337,51.362828 58.2149079,43.0707013 58.376724,41.6590083 C58.5385401,40.2473152 62.2818653,40.5694549 62.2818653,40.5694549 C62.2818653,40.5694549 58.1965943,20.8869342 58.376724,18.1863718 C58.5568537,15.4858094 64.8260163,24.5498271 64.8260163,24.5498271 C64.8260163,24.5498271 71.978038,9.73647626 73.1314785,9.99327824 C74.284919,10.2500802 75.8299822,26.9997499 75.8299822,26.9997499 C75.8299822,26.9997499 85.1114867,24.481861 84.0261687,26.9997499 C82.9408507,29.5176389 72.7290704,40.5694549 72.7290704,40.5694549 C72.7290704,40.5694549 77.9585409,39.7907166 77.6482091,43.5118064 C77.517114,45.0837266 70.2599654,52.7046983 67.92368,60.2242471 C65.5873947,67.7437959 66.2162466,81.1679148 66.2162466,81.1679148 L69.7641668,101.610622" id="Path-474" stroke-linecap="round"></path>
                <path d="M72.4652576,101.804859 C72.4652576,101.804859 79.1276607,95.8968655 80.913618,89.0419435 C81.799237,85.6427305 81.7114248,68.9988314 83.0491714,58.9891265 C84.3869181,48.9794215 86.2905816,44.3183386 86.2905816,44.3183386 C86.2905816,44.3183386 86.530735,36.2683162 87.1875756,34.8099837 C87.8444162,33.3516512 90.2241619,35.286569 90.2241619,35.286569 C90.2241619,35.286569 92.4408204,15.9584892 93.7338624,13.0876477 C95.0269044,10.2168062 99.0135107,19.0409443 99.0135107,19.0409443 C99.0135107,19.0409443 109.703977,10.4401142 111.246401,11.4852493 C112.788825,12.5303845 107.983066,25.1186508 107.983066,25.1186508 C107.983066,25.1186508 117.224213,25.282564 115.20056,28.1676482 C113.176907,31.0527323 99.0135107,40.4091909 99.0135107,40.4091909 C99.0135107,40.4091909 103.601652,42.2914467 103.11922,43.8463469 C102.636788,45.4012471 95.0778149,48.2917966 95.0778149,48.2917966 C95.0778149,48.2917966 91.8397376,53.4626545 90.626309,57.9854264 C89.4128805,62.5081982 85.5536002,83.7910838 85.5536002,83.7910838" id="Path-475" stroke-linecap="round"></path>
                <path d="M10.3658019,17.4638772 L19.0658886,20.4991462 C19.0658886,20.4991462 17.4141963,5.59652333 19.0658886,4.98751759 C20.717581,4.37851184 29.6753002,16.5872842 29.6753002,16.5872842 L34.8006771,9.80746697" id="Path-477"></path>
                <path d="M111.192355,23.0607737 L119.582312,25.5826345 C119.582312,25.5826345 118.190046,13.0207205 119.582312,12.5073694 C120.974578,11.9940183 128.525336,22.2851965 128.525336,22.2851965 L132.050481,17.8460071" id="Path-477" transform="translate(121.621418, 19.035709) rotate(40.000000) translate(-121.621418, -19.035709) "></path>
                <path d="M47.1384866,14.5850464 C47.1384866,14.5850464 45.0404646,10.7893881 45.985938,10.1769965 C46.9314115,9.5646048 53.3549828,10.5585659 53.3549828,10.5585659 C53.3549828,10.5585659 56.592721,0.945688059 58.5055069,0.882396221 C60.4182927,0.819104383 63.3004491,10.5585659 63.3004491,10.5585659 C63.3004491,10.5585659 68.2860023,7.1360613 69.3649839,7.7335615 C70.4439655,8.33106171 69.3649839,15.384342 69.3649839,15.384342" id="Path-478"></path>
                <path d="M75.4268075,18.6918401 C75.4268075,18.6918401 85.6661439,10.8141544 87.496217,11.0029093 C89.3262901,11.1916641 91.2962196,26.0583825 91.2962196,26.0583825" id="Path-479"></path>
            </g>
        </g>
    </g>
</svg>