<?xml version="1.0" encoding="UTF-8"?>
<svg width="152px" height="152px" viewBox="0 0 152 152" version="1.1" xmlns="http://www.w3.org/2000/svg" xmlns:xlink="http://www.w3.org/1999/xlink">
    <!-- Generator: Sketch 44.1 (41455) - http://www.bohemiancoding.com/sketch -->
    <title>redonion</title>
    <desc>Created with Sketch.</desc>
    <defs></defs>
    <g id="Page-1" stroke="none" stroke-width="1" fill="none" fill-rule="evenodd" stroke-linecap="round">
        <g id="redonion" stroke="#A8104C">
            <g id="Group" transform="translate(10.000000, 11.000000)">
                <path d="M29.7910633,119.772889 C1.94192551,96.4077426 -12.0199715,54.068785 17.0558105,24.359626 C28.2640746,12.9072049 59.7735046,4.32547787 78.7631042,8.72772752 C83.4819662,9.82167414 88.5278394,11.1367081 93.3075119,10.1897845 C108.651186,7.14997629 117.402909,-4.85228537 132.901945,4.32547787" id="Path-547" stroke-width="2.4"></path>
                <path d="M132.797278,4.29514406 C132.797278,4.29514406 130.088064,4.11941411 128.859966,4.29514406 C127.631869,4.470874 124.365017,5.34081495 124.365017,5.34081495 L132.52011,8.34721069 C132.52011,8.34721069 129.497708,7.76837115 128.267558,7.87145917 C127.037408,7.97454719 124.969557,8.97995591 124.969557,8.97995591 L130.84424,11.4714242 C130.84424,11.4714242 128.947693,11.4595793 128.084517,11.7043537 C127.22134,11.949128 125.276742,13.0502221 125.276742,13.0502221 C103.067229,29.9328073 116.898188,41.1246303 126.251863,61.3318126 C136.374776,83.200815 123.058397,108.887093 105.368545,121.307362 C103.195999,122.832734 94.3909439,127.294927 84.5491266,129.282922 C74.7073093,131.270917 66.3573914,130.451327 61.6466748,129.924883 C51.7380726,128.81755 42.5238189,124.273094 32.9623909,121.4472 L29.5354157,119.146898" id="Path-548" stroke-width="2.4" stroke-linejoin="round"></path>
                <path d="M29.4017612,119.122605 C25.9429173,108.099995 23.2386509,97.2707134 23.2386509,84.9731862 C23.2386509,65.5731512 37.0328905,37.5865365 64.1088237,29.3925479 C79.5695337,24.7136738 93.5819414,25.977832 103.312418,18.2732122" id="Path-549" stroke-width="2.2"></path>
                <path d="M28.2513075,117.510178 C1.57634572,87.9145311 5.72465151,33.0582965 54.025342,19.8206535 C69.5263204,15.5723412 88.3196701,19.6289525 102.978813,14.4198861 C102.978813,14.4198861 105.783356,13.5499052 109.041542,11.8041305 C112.299727,10.0583558 114.882162,7.20129522 117.595425,6.58812995" id="Path-550" stroke-width="2.2"></path>
                <path d="M106.508846,28.3923446 C90.628261,44.8236348 153.481062,115.343889 55.582476,128.65793" id="Path-551" stroke-width="2.2"></path>
                <polyline id="Path-552" stroke-width="2.6" stroke-linejoin="round" points="28.6795657 118.751682 20.3032347 121.86026 29.2241921 120.072506 26.5457824 126.635689 30.988827 120.421567 33.7650193 130.716787 33.7650193 121.86026"></polyline>
            </g>
        </g>
    </g>
</svg>