<?xml version="1.0" encoding="UTF-8"?>
<svg width="152px" height="152px" viewBox="0 0 152 152" version="1.1" xmlns="http://www.w3.org/2000/svg" xmlns:xlink="http://www.w3.org/1999/xlink">
    <!-- Generator: Sketch 44.1 (41455) - http://www.bohemiancoding.com/sketch -->
    <title>rhubarb</title>
    <desc>Created with Sketch.</desc>
    <defs></defs>
    <g id="Page-1" stroke="none" stroke-width="1" fill="none" fill-rule="evenodd" stroke-linecap="round" stroke-linejoin="round">
        <g id="rhubarb" stroke="#979797" stroke-width="2">
            <g id="Group" transform="translate(66.383022, 71.178606) rotate(-40.000000) translate(-66.383022, -71.178606) translate(-21.116978, 30.678606)">
                <path d="M19.0450699,80.3230207 C18.7360792,80.2869194 16.3028988,81.1533283 14.3932247,80.8579277 C12.4835506,80.5625272 11.7343722,79.2047661 11.7343722,79.2047661 C11.7343722,79.2047661 10.8635219,77.3883135 10.8635219,76.4800872 L10.8635219,72.1538497 C10.8635219,72.1538497 13.9218704,71.3261385 14.8534587,71.5588614 C15.7850471,71.7915843 18.359304,74.4722335 18.359304,74.4722335 L19.0450699,80.3230207 C19.0450699,80.3230207 43.3499238,79.2047661 63.1954222,76.4800872 C83.0409206,73.7554084 109.810018,64.2006215 109.810018,64.2006215 C109.810018,64.2006215 117.077674,75.4046121 125.024168,75.4046121 C128.487137,75.4046121 129.324012,69.6050274 133.545596,69.6050274 C137.76718,69.6050274 138.458287,77.5687137 148.902505,75.4046121 C157.121691,73.7015502 151.89928,63.3272005 154.611832,60.7853024 C157.324384,58.2434044 159.511881,66.4207137 168.730997,58.4685624 C177.950112,50.5164111 173.952522,39.8968714 173.653328,37.91316 C172.370102,29.4051504 160.898895,31.74081 158.712224,30.3068232 C156.525554,28.8728363 159.409699,22.0567756 154.611832,20.9357288 C142.827621,18.1822857 145.382608,26.9149385 140.128977,26.9149385 C134.875347,26.9149385 133.326648,17.4467194 125.024168,23.9481649 C116.721688,30.4496103 123.644549,34.7248707 120.277973,37.91316 C116.911398,41.1014493 113.841354,32.9693948 109.810018,41.1014493 C104.439599,51.9347146 108.312036,57.572933 108.312036,57.572933 C108.312036,57.572933 75.9205251,63.0581465 58.0446431,66.0045028 C40.1687611,68.9508591 14.8534587,71.5588614 14.8534587,71.5588614 L18.359304,74.4722335 C19.1131815,74.4107395 29.3279126,74.7053918 42.7268822,73.3753308 C56.1258518,72.0452699 73.2523943,68.4629931 73.2523943,68.4629931" id="Path-786"></path>
                <path d="M8.2841575,65.576362 C7.97516678,65.5402607 7.86250024,67.9107934 5.95282616,67.6153929 C4.04315207,67.3199923 3.29397366,65.9622312 3.29397366,65.9622312 C3.29397366,65.9622312 2.42312336,64.1457787 2.42312336,63.2375524 L2.42312336,58.9113148 C2.42312336,58.9113148 5.94485033,58.3987917 6.87643869,58.6315146 C7.80802705,58.8642375 9.91890551,60.7220504 9.91890551,60.7220504 L10.2150188,65.4960558 C10.2150188,65.4960558 23.5382746,64.8769352 30.2279621,64.8921721 C36.9176496,64.9074089 55.5182395,63.5465903 55.5182395,63.5465903 L101.369619,50.9580867 C101.369619,50.9580867 102.130461,53.6886211 105.281383,53.1641077 C105.976541,53.0483893 107.967703,41.1616722 112.362137,40.1688206 C113.204783,39.9784385 118.329182,41.8555393 119.936166,40.8300435 C123.367076,38.6406092 117.831576,32.5581591 126.516229,27.0355544 C134.656189,22.0957389 136.766585,31.8042743 141.108425,31.7557443 C145.450264,31.7072144 145.172717,25.1891543 153.014043,26.2846704 C159.221922,27.2520163 158.681697,32.6314144 158.460113,35.1587139 C158.238528,37.6860133 163.685572,38.0418727 164.068854,37.7194669 C168.737976,33.7919362 165.512124,26.6543365 165.212929,24.6706251 C163.929704,16.1626155 152.458496,18.4982752 150.271826,17.0642883 C148.085155,15.6303015 150.9693,8.8142408 146.171433,7.69319392 C134.387223,4.93975087 136.94221,13.6724036 131.688579,13.6724036 C126.434948,13.6724036 124.886249,4.20418458 116.583769,10.70563 C108.28129,17.2070754 115.20415,21.4823359 111.837575,24.6706251 C108.470999,27.8589144 105.400956,19.7268599 101.369619,27.8589144 C95.9992004,38.6921798 99.8716371,44.3303982 99.8716371,44.3303982 C99.8716371,44.3303982 66.4758629,52.8410358 49.4401981,54.9676285 C32.4045333,57.0942212 6.87643869,58.6315146 6.87643869,58.6315146 L9.91890551,60.7220504 C10.4075068,60.6821951 10.8717567,64.1219325 10.2150188,65.4960558 C10.2150188,65.4960558 8.48049353,65.5993011 8.2841575,65.576362 Z" id="Path-786" transform="translate(84.499722, 37.398575) rotate(-5.000000) translate(-84.499722, -37.398575) "></path>
                <path d="M112.683421,59.7403848 C112.683421,59.7403848 126.350333,53.6638157 135.060873,51.5630343 C135.276701,51.5109815 142.899632,46.4334481 146.192348,42.3364017 C149.485064,38.2393553 149.577041,35.6007716 149.577041,35.6007716 C149.577041,35.6007716 149.897912,37.9451621 146.192348,42.3364017 C142.486784,46.7276413 134.892345,51.5936672 135.060873,51.5630343 C143.366287,50.053381 160.495931,51.0496308 160.495931,51.0496308" id="Path-787"></path>
            </g>
        </g>
    </g>
</svg>