<?xml version="1.0" encoding="UTF-8"?>
<svg width="152px" height="152px" viewBox="0 0 152 152" version="1.1" xmlns="http://www.w3.org/2000/svg" xmlns:xlink="http://www.w3.org/1999/xlink">
    <!-- Generator: Sketch 44.1 (41455) - http://www.bohemiancoding.com/sketch -->
    <title>vinegar</title>
    <desc>Created with Sketch.</desc>
    <defs></defs>
    <g id="Page-1" stroke="none" stroke-width="1" fill="none" fill-rule="evenodd">
        <g id="vinegar" stroke="#93E297">
            <path d="M76.464884,3 L68.3821465,3 C68.3821465,3 66.3007135,3.06243358 65.7480883,4.21588585 C65.195463,5.36933812 65.2164058,9.60760769 65.2164058,9.60760769 L65.2164058,16.2896904 C65.2164058,16.2896904 65.3491445,17.0450593 65.7480883,17.2084596 C66.147032,17.37186 67.4595904,17.2084596 67.4595904,17.2084596 L67.549621,32.2600776 C67.549621,32.2600776 67.3571098,35.1712474 66.186103,36.615348 C65.0150962,38.0594486 60.4491233,41.016502 60.4491233,41.016502 C60.4491233,41.016502 56.517802,43.3711838 55.424569,46.2118505 C54.3313361,49.0525173 54.0000861,57.773741 54.0000861,57.773741 L54.0000861,140.729627 C54.0000861,140.729627 53.9630651,143.858079 55.424569,146.161946 C56.8860729,148.465812 59.6094691,148.225887 59.6094691,148.225887 L76.464884,148.225887" id="Path-619" stroke-width="2.2" stroke-linejoin="round"></path>
            <path d="M97.3069892,3 L89.2242517,3 C89.2242517,3 87.1428188,3.06243358 86.5901935,4.21588585 C86.0375683,5.36933812 86.058511,9.60760769 86.058511,9.60760769 L86.058511,16.2896904 C86.058511,16.2896904 86.1912498,17.0450593 86.5901935,17.2084596 C86.9891372,17.37186 88.3016956,17.2084596 88.3016956,17.2084596 L88.3917263,32.2600776 C88.3917263,32.2600776 88.1992151,35.1712474 87.0282083,36.615348 C85.8572015,38.0594486 81.2912286,41.016502 81.2912286,41.016502 C81.2912286,41.016502 77.3599072,43.3711838 76.2666743,46.2118505 C75.1734413,49.0525173 74.8421913,57.773741 74.8421913,57.773741 L74.8421913,140.729627 C74.8421913,140.729627 74.8051704,143.858079 76.2666743,146.161946 C77.7281781,148.465812 80.4515744,148.225887 80.4515744,148.225887 L97.3069892,148.225887" id="Path-619" stroke-width="2.2" stroke-linejoin="round" transform="translate(86.074547, 75.616508) scale(-1, 1) translate(-86.074547, -75.616508) "></path>
            <path d="M65.5789474,17.0169972 L84.8676224,17.016" id="Path-620" stroke-width="2.2"></path>
            <rect id="Rectangle" stroke-width="1.5" x="59.3815789" y="65.654" width="32.0789474" height="62.74" rx="5"></rect>
        </g>
    </g>
</svg>