<?xml version="1.0" encoding="UTF-8"?>
<svg width="152px" height="152px" viewBox="0 0 152 152" version="1.1" xmlns="http://www.w3.org/2000/svg" xmlns:xlink="http://www.w3.org/1999/xlink">
    <!-- Generator: Sketch 44.1 (41455) - http://www.bohemiancoding.com/sketch -->
    <title>romainelettuce</title>
    <desc>Created with Sketch.</desc>
    <defs></defs>
    <g id="Page-1" stroke="none" stroke-width="1" fill="none" fill-rule="evenodd">
        <g id="romainelettuce" stroke="#91E195" stroke-width="2.2">
            <g id="Group" transform="translate(21.000000, 5.000000)">
                <path d="M47.0431083,138.102401 C47.0431083,138.102401 44.3196219,130.81879 38.8117186,122.555389 C33.3038154,114.291989 24.5452088,104.720217 22.3530005,100.331151 C17.9863104,91.5885102 17.5647522,79.6429035 17.5647522,79.6429035 C17.5647522,79.6429035 3.24623562,70.8672482 0.714351401,46.2106651 C-1.81753282,21.5540821 10.4077565,24.3587378 10.4077565,24.3587378 C10.4077565,24.3587378 7.83280189,13.1324714 17.5647522,9.17005071 C27.2967026,5.20763005 32.6184788,13.1994272 32.6184788,13.1994272 C32.6184788,13.1994272 43.8519305,9.61466586 47.5838622,26.1462656 C51.3157939,42.6778653 38.8117186,59.1228909 38.8117186,59.1228909 C38.8117186,59.1228909 46.774555,58.6176803 47.5838622,62.7989826 C48.1200049,65.5689746 45.2890241,87.0081698 46.6757798,106.51078 C48.0625355,126.01339 53.0278003,132.494575 53.0278003,132.494575 C53.0278003,132.494575 49.2799293,133.564588 48.0167646,134.8258 C46.7535998,136.087011 47.0431083,138.102401 47.0431083,138.102401 Z" id="Path-589" stroke-linejoin="round"></path>
                <path d="M104.677724,138.102401 C104.677724,138.102401 101.954237,130.81879 96.446334,122.555389 C90.9384308,114.291989 82.1798242,104.720217 79.9876159,100.331151 C75.6209258,91.5885102 75.1993676,79.6429035 75.1993676,79.6429035 C75.1993676,79.6429035 60.880851,70.8672482 58.3489668,46.2106651 C55.8170826,21.5540821 68.0423719,24.3587378 68.0423719,24.3587378 C68.0423719,24.3587378 65.4674173,13.1324714 75.1993676,9.17005071 C84.931318,5.20763005 90.2530942,13.1994272 90.2530942,13.1994272 C90.2530942,13.1994272 101.486546,9.61466586 105.218478,26.1462656 C108.950409,42.6778653 98.5809494,70.8672518 98.5809494,70.8672518 C98.5809494,70.8672518 106.543786,70.3620412 107.353093,74.5433435 C107.889236,77.3133355 104.296637,93.2298658 105.218478,106.902527 C106.140318,120.575188 110.662416,132.494575 110.662416,132.494575 C110.662416,132.494575 106.914545,133.564588 105.65138,134.8258 C104.388215,136.087011 104.677724,138.102401 104.677724,138.102401 Z" id="Path-589" stroke-linejoin="round" transform="translate(84.333081, 73.084947) scale(-1, 1) translate(-84.333081, -73.084947) "></path>
                <path d="M37.1106122,12.9949978 C35.1114607,6.10194017 45.0754414,8.54135338 45.0754414,8.54135338 C45.0754414,8.54135338 46.4848629,0.347508768 55.0356942,0.347508768 C63.5865254,0.347508768 64.0436969,8.97670773 64.0436969,8.97670773 C64.0436969,8.97670773 73.5687965,7.02240485 71.9210468,13.6973009" id="Path-591" stroke-linejoin="round"></path>
                <path d="M55.5,142 C60.2156621,142 64.0384615,140.67761 64.0384615,137.729323 C64.0384615,134.781036 60.2156621,132.390977 55.5,132.390977 C50.7843379,132.390977 46.9615385,134.781036 46.9615385,137.729323 C46.9615385,140.67761 50.7843379,142 55.5,142 Z" id="Oval"></path>
                <path d="M49.3397089,133.575632 C49.3397089,133.575632 34.3656637,105.419156 31.614134,95.931163 C30.3022758,91.4075332 28.9247294,67.5290199 25.5114385,51.1633435 C22.0981476,34.7976672 18.1577899,26.0522288 18.1577899,26.0522288" id="Path-590" stroke-linecap="round"></path>
                <path d="M93.0993243,133.575632 C93.0993243,133.575632 78.1252791,105.419156 75.3737494,95.931163 C74.0618912,91.4075332 72.6843448,67.5290199 69.2710539,51.1633435 C65.8577629,34.7976672 61.9174052,26.0522288 61.9174052,26.0522288" id="Path-590" stroke-linecap="round" transform="translate(77.508365, 79.813930) scale(-1, 1) translate(-77.508365, -79.813930) "></path>
                <path d="M55.4423754,132.145339 C55.4423754,132.145339 53.4842438,106.363545 53.4358096,96.9472114 C53.3474983,87.6604095 56.4172209,73.8110909 56.7626328,54.1568766 C57.1080447,34.5026623 55.1193019,16.0055267 55.1193019,16.0055267" id="Path-592" stroke-linecap="round"></path>
            </g>
        </g>
    </g>
</svg>