<?xml version="1.0" encoding="UTF-8"?>
<svg width="152px" height="152px" viewBox="0 0 152 152" version="1.1" xmlns="http://www.w3.org/2000/svg" xmlns:xlink="http://www.w3.org/1999/xlink">
    <!-- Generator: Sketch 44.1 (41455) - http://www.bohemiancoding.com/sketch -->
    <title>sprouts</title>
    <desc>Created with Sketch.</desc>
    <defs></defs>
    <g id="Page-1" stroke="none" stroke-width="1" fill="none" fill-rule="evenodd" stroke-linecap="round" stroke-linejoin="round">
        <g id="sprouts" stroke="#979797" stroke-width="2">
            <path d="M20.9900296,149.150519 C20.9900296,149.150519 21.3192895,145.132875 26.9084529,143.772112 C40.9114179,141.546215 50.7514563,136.758655 55.4828305,116.920669 C57.4927908,108.493188 49.2206191,58.0676054 49.6210645,32.1224184 C50.0215099,6.1772315 61.170783,12.5808374 61.170783,12.5808374 C61.170783,12.5808374 64.8267455,8.31029003 74.2468089,11.9091864 C81.9724379,14.8607312 86.5402851,30.5683471 83.2510495,36.7402837 C82.8667325,37.4614178 69.0559314,21.30192 69.0559314,21.30192 C69.0559314,21.30192 80.5825629,38.5609863 79.4802437,39.0982972 C74.8611613,41.3498076 68.1763922,37.6657216 65.3702404,35.5397183 C61.738227,32.7880238 61.170783,21.30192 61.170783,21.30192 C61.170783,21.30192 54.8162705,18.5981908 55.4828305,34.8387519 C56.1493905,51.0793131 64.1073115,101.338723 61.170783,116.920669 C56.076438,143.952521 26.9084529,143.772112 26.9084529,143.772112" id="Path-783"></path>
            <path d="M89.8173447,2.63533752 C89.8173447,2.63533752 89.443946,6.6491196 94.7119034,8.95975747 C108.115609,13.583428 116.974804,20.0069583 118.189468,40.365156 C118.705476,49.0136302 101.802666,97.2366873 97.6916935,122.857245 C93.5807208,148.477803 105.672586,144.107533 105.672586,144.107533 C105.672586,144.107533 108.531433,148.948053 118.433327,147.039608 C126.554116,145.474446 133.780167,130.798662 131.612647,124.149321 C131.359393,123.372407 114.952341,136.888185 114.952341,136.888185 C114.952341,136.888185 129.300863,121.892901 128.308593,121.172338 C124.150656,118.152938 116.927709,120.620256 113.795012,122.226677 C109.74035,124.305875 107.186986,135.518943 107.186986,135.518943 C107.186986,135.518943 100.459515,137.078147 103.936093,121.200064 C107.41267,105.32198 123.977147,57.2080019 123.791007,41.3528586 C123.468089,13.8470567 94.7119034,8.95975747 94.7119034,8.95975747" id="Path-783"></path>
        </g>
    </g>
</svg>