<?xml version="1.0" encoding="UTF-8"?>
<svg width="152px" height="152px" viewBox="0 0 152 152" version="1.1" xmlns="http://www.w3.org/2000/svg" xmlns:xlink="http://www.w3.org/1999/xlink">
    <!-- Generator: Sketch 44.1 (41455) - http://www.bohemiancoding.com/sketch -->
    <title>butternutsquash</title>
    <desc>Created with Sketch.</desc>
    <defs></defs>
    <g id="Page-1" stroke="none" stroke-width="1" fill="none" fill-rule="evenodd">
        <g id="butternutsquash" stroke="#FF659B" stroke-width="2">
            <g id="Group" transform="translate(38.000000, 3.000000)">
                <path d="M38.7419418,17.0358001 L38.0794103,17.0358001 C38.0794103,17.0358001 23.247145,15.1548421 14.6135432,31.9593185 C10.4739524,40.0166345 12.4730871,64.7049556 10.213944,80.0596441 C7.9548008,95.4143326 0.15507061,100.23616 0.0386545649,114.696655 C-0.262872518,152.150522 38.0794103,144.696901 38.0794103,144.696901 L39.3333333,144.696901" id="Path-743"></path>
                <path d="M75.9682992,17.0358001 C75.9682992,17.0358001 61.1360339,15.1548421 52.5024321,31.9593185 C48.3628413,40.0166345 50.361976,64.7049556 48.1028329,80.0596441 C45.8436897,95.4143326 38.0439595,100.23616 37.9275435,114.696655 C37.6260164,152.150522 75.9682992,144.696901 75.9682992,144.696901" id="Path-743" transform="translate(56.947037, 81.136958) scale(-1, 1) translate(-56.947037, -81.136958) "></path>
                <path d="M27.2259,117.254044 L26.6712788,122.432011 C26.6712788,122.432011 26.3457721,125.013037 28.6053563,124.537287 C30.8649406,124.061537 29.8055413,121.802311 29.8055413,121.802311 L27.2259,117.254044 Z" id="Path-646" stroke-linecap="round" stroke-linejoin="round" transform="translate(28.354313, 120.924928) rotate(80.000000) translate(-28.354313, -120.924928) "></path>
                <path d="M23.5592333,106.304044 L23.0046122,111.482011 C23.0046122,111.482011 22.6791054,114.063037 24.9386897,113.587287 C27.1982739,113.111537 26.1388746,110.852311 26.1388746,110.852311 L23.5592333,106.304044 Z" id="Path-646" stroke-linecap="round" stroke-linejoin="round" transform="translate(24.687647, 109.974928) rotate(100.000000) translate(-24.687647, -109.974928) "></path>
                <path d="M27.2259,95.3540436 L26.6712788,100.532011 C26.6712788,100.532011 26.3457721,103.113037 28.6053563,102.637287 C30.8649406,102.161537 29.8055413,99.9023113 29.8055413,99.9023113 L27.2259,95.3540436 Z" id="Path-646" stroke-linecap="round" stroke-linejoin="round" transform="translate(28.354313, 99.024928) rotate(120.000000) translate(-28.354313, -99.024928) "></path>
                <path d="M44.3370111,117.254044 L43.78239,122.432011 C43.78239,122.432011 43.4568832,125.013037 45.7164675,124.537287 C47.9760517,124.061537 46.9166524,121.802311 46.9166524,121.802311 L44.3370111,117.254044 Z" id="Path-646" stroke-linecap="round" stroke-linejoin="round" transform="translate(45.465425, 120.924928) scale(-1, 1) rotate(80.000000) translate(-45.465425, -120.924928) "></path>
                <path d="M48.0036778,106.304044 L47.4490566,111.482011 C47.4490566,111.482011 47.1235499,114.063037 49.3831341,113.587287 C51.6427184,113.111537 50.5833191,110.852311 50.5833191,110.852311 L48.0036778,106.304044 Z" id="Path-646" stroke-linecap="round" stroke-linejoin="round" transform="translate(49.132091, 109.974928) scale(-1, 1) rotate(100.000000) translate(-49.132091, -109.974928) "></path>
                <path d="M44.3370111,95.3540436 L43.78239,100.532011 C43.78239,100.532011 43.4568832,103.113037 45.7164675,102.637287 C47.9760517,102.161537 46.9166524,99.9023113 46.9166524,99.9023113 L44.3370111,95.3540436 Z" id="Path-646" stroke-linecap="round" stroke-linejoin="round" transform="translate(45.465425, 99.024928) scale(-1, 1) rotate(120.000000) translate(-45.465425, -99.024928) "></path>
                <path d="M31.3363819,18.0208839 C31.3363819,18.0208839 31.3134397,15.9905178 32.7938078,14.2809065 C34.2741758,12.5712951 36.4122371,12.2769893 36.4122371,12.2769893 C36.4122371,12.2769893 37.9511269,5.8721387 38.8969658,3.67342417 C39.8428047,1.47470964 42.1206848,3.55271368e-15 42.1206848,3.55271368e-15 L44.1488058,1.47811132 C44.1488058,1.47811132 42.8435391,2.39728816 41.7430534,5.06587651 C40.6425678,7.73446487 40.6637329,12.2769893 40.6637329,12.2769893 C40.6637329,12.2769893 42.8574159,12.8645185 44.1488058,14.2809065 C45.4401957,15.6972945 45.1084538,17.7016424 45.1084538,17.7016424" id="Path-744"></path>
                <path d="M37.5,132.172274 C49.9877718,132.172274 60.1111111,123.499509 60.1111111,111.0685 C60.1111111,98.6374909 49.9877718,85.1666667 37.5,85.1666667 C25.0122282,85.1666667 14.8888889,96.3103353 14.8888889,111.0685 C14.8888889,125.826665 25.0122282,132.172274 37.5,132.172274 Z" id="Oval"></path>
            </g>
        </g>
    </g>
</svg>