<?xml version="1.0" encoding="UTF-8"?>
<svg width="152px" height="152px" viewBox="0 0 152 152" version="1.1" xmlns="http://www.w3.org/2000/svg" xmlns:xlink="http://www.w3.org/1999/xlink">
    <!-- Generator: Sketch 44.1 (41455) - http://www.bohemiancoding.com/sketch -->
    <title>springonion</title>
    <desc>Created with Sketch.</desc>
    <defs></defs>
    <g id="Page-1" stroke="none" stroke-width="1" fill="none" fill-rule="evenodd" stroke-linecap="round" stroke-linejoin="round">
        <g id="springonion" stroke="#979797" stroke-width="2">
            <path d="M1.36924858,107.230081 C1.36924858,107.230081 2.72045556,100.965461 9.36647354,99.1411126 C19.4647811,97.1452188 18.3184342,99.5910884 25.4318513,97.8965179 C29.1882464,97.001663 51.0920532,89.2638449 75.731369,76.4156064 C78.9940783,74.7142578 86.5961326,67.9042235 89.0354269,65.4426089 C90.9373436,63.523289 105.049647,54.3367986 116.770096,48.170719 C128.490545,42.0046394 142.702568,37.1557064 142.702568,37.1557064 C142.702568,37.1557064 144.656087,38.1144731 145.400283,39.8873123 C146.144479,41.6601516 145.400283,43.7677196 145.400283,43.7677196 C145.400283,43.7677196 129.433992,50.8744764 120.632106,55.507891 C115.347034,58.2900138 105.441878,64.8786187 98.0308165,69.4479866 C90.6197545,74.0173545 89.6470741,74.5103979 89.6470741,74.5103979 C89.6470741,74.5103979 123.669068,56.622469 136.90202,50.8280783 C150.134971,45.0336875 151.606326,45.0336875 151.606326,45.0336875 C151.606326,45.0336875 153.610423,46.645435 154.124363,47.7463416 C154.638302,48.8472481 154.900467,51.5089223 154.900467,51.5089223 L110.501045,70.0851819 C110.501045,70.0851819 124.39861,64.4706909 131.213111,62.11983 C138.027613,59.7689691 151.033141,56.1024543 151.033141,56.1024543 C151.033141,56.1024543 152.048412,57.5170939 152.177503,59.1132612 C152.306595,60.7094285 151.606326,63.1896652 151.606326,63.1896652 C151.606326,63.1896652 129.585637,71.0225708 117.785915,74.2670646 C101.436716,78.7624985 98.2316334,79.0072399 84.1019035,83.5361321 C75.5411727,86.2800363 42.2360332,98.7697965 33.8339422,102.049941 C27.7611063,104.188105 23.7867601,109.99286 18.2896268,112.428792 C9.36647354,116.382889 4.62387033,112.89455 4.62387033,112.89455 L0.559288866,115.072187 L4.62387033,112.89455 C4.62387033,112.89455 3.76505714,111.213103 3.19999789,111.217438 C2.63493864,111.221774 -2.54871613,113.36253 -2.54871613,113.36253 L3.19999789,111.217438 C3.19999789,111.217438 2.64607713,109.802019 2.29129307,109.690761 C2.21586718,109.667108 -3.43772902,110.844619 -3.43772902,110.844619 L2.29129307,109.423039 C2.29129307,109.423039 1.39746762,107.841717 1.36924858,107.756306 C1.22959238,107.333605 -3.43772902,108.20391 -3.43772902,108.20391 L1.36924858,107.230081 Z" id="Path-782" transform="translate(75.731369, 76.113947) rotate(-10.000000) translate(-75.731369, -76.113947) "></path>
        </g>
    </g>
</svg>