<?xml version="1.0" encoding="UTF-8"?>
<svg width="152px" height="152px" viewBox="0 0 152 152" version="1.1" xmlns="http://www.w3.org/2000/svg" xmlns:xlink="http://www.w3.org/1999/xlink">
    <!-- Generator: Sketch 44.1 (41455) - http://www.bohemiancoding.com/sketch -->
    <title>strawberry</title>
    <desc>Created with Sketch.</desc>
    <defs></defs>
    <g id="Page-1" stroke="none" stroke-width="1" fill="none" fill-rule="evenodd" stroke-linecap="round" stroke-linejoin="round">
        <g id="strawberry" stroke="#FF659B">
            <g id="Group" transform="translate(49.000000, 77.500000) rotate(5.000000) translate(-49.000000, -77.500000) translate(4.000000, 21.000000)">
                <path d="M61.2174548,21.0803601 C69.0783517,21.2990775 87.0534089,24.2087605 89.2059456,46.0153795 C91.0529144,64.7263936 69.9266249,92.0873074 57.5613625,107.449756 C51.3443739,115.173665 41.358248,114.519268 34.2455863,107.449756 C19.128228,92.4241065 -2.02690722,65.7812864 0.378241947,46.0153795 C2.99825237,24.4837078 20.3220335,21.22071 29.1268796,20.9758006 C31.7021772,22.3110835 33.3682139,22.4856701 33.3682139,22.4856701 C33.3682139,22.4856701 28.8861519,23.4799143 27.1888753,24.5511841 C25.4915987,25.6224539 20.4487349,30.6400556 20.4487349,30.6400556 C20.4487349,30.6400556 34.6536453,29.6219886 39.6156458,28.2498824 C44.5776464,26.8777762 45.5195659,23.7073996 45.5195659,23.7073996 C45.5195659,23.7073996 47.7438387,27.3855108 50.798466,28.2498824 C53.8530933,29.114254 70.0190766,30.6400556 70.0190766,30.6400556 C70.0190766,30.6400556 65.6360403,25.9673143 63.4444641,24.5511841 C61.2528879,23.1350539 57.1793168,22.3433913 57.1793168,22.3433913 C57.1793168,22.3433913 58.9603278,21.9936077 61.2174548,21.0803601 Z" id="Combined-Shape" stroke-width="2"></path>
                <path d="M17.0965066,44.0371707 L16.4049808,50.5227662 C16.4049808,50.5227662 15.9991247,53.7555973 18.8164729,53.1597024 C21.6338211,52.5638076 20.3129159,49.7340441 20.3129159,49.7340441 L17.0965066,44.0371707 Z" id="Path-646" stroke-width="1.6" transform="translate(18.503462, 48.635090) rotate(20.000000) translate(-18.503462, -48.635090) "></path>
                <path d="M43.7291597,44.0371707 L43.0376338,50.5227662 C43.0376338,50.5227662 42.6317778,53.7555973 45.449126,53.1597024 C48.2664742,52.5638076 46.9455689,49.7340441 46.9455689,49.7340441 L43.7291597,44.0371707 Z" id="Path-646" stroke-width="1.6" transform="translate(45.136115, 48.635090) rotate(10.000000) translate(-45.136115, -48.635090) "></path>
                <path d="M43.7291597,85.0452352 L43.0376338,91.5308307 C43.0376338,91.5308307 42.6317778,94.7636618 45.449126,94.167767 C48.2664742,93.5718721 46.9455689,90.7421086 46.9455689,90.7421086 L43.7291597,85.0452352 Z" id="Path-646" stroke-width="1.6" transform="translate(45.136115, 89.643154) rotate(10.000000) translate(-45.136115, -89.643154) "></path>
                <path d="M29.9536495,64.0855578 L29.2621236,70.5711533 C29.2621236,70.5711533 28.8562676,73.8039843 31.6736158,73.2080895 C34.490964,72.6121947 33.1700587,69.7824312 33.1700587,69.7824312 L29.9536495,64.0855578 Z" id="Path-646" stroke-width="1.6" transform="translate(31.360605, 68.683477) rotate(10.000000) translate(-31.360605, -68.683477) "></path>
                <path d="M56.5863025,64.0855578 L55.8947767,70.5711533 C55.8947767,70.5711533 55.4889207,73.8039843 58.3062689,73.2080895 C61.123617,72.6121947 59.8027118,69.7824312 59.8027118,69.7824312 L56.5863025,64.0855578 Z" id="Path-646" stroke-width="1.6" transform="translate(57.993258, 68.683477) rotate(10.000000) translate(-57.993258, -68.683477) "></path>
                <path d="M69.4434454,44.0371707 L68.7519196,50.5227662 C68.7519196,50.5227662 68.3460635,53.7555973 71.1634117,53.1597024 C73.9807599,52.5638076 72.6598546,49.7340441 72.6598546,49.7340441 L69.4434454,44.0371707 Z" id="Path-646" stroke-width="1.6"></path>
                <path d="M45.5195659,19.2780807 C45.5195659,19.2780807 43.8218205,16.0171216 40.7433391,14.580135 C37.6648577,13.1431484 19.4717917,9.28554049 19.4717917,9.28554049 C19.4717917,9.28554049 18.5167586,12.4971097 23.8583879,17.272994 C29.2000172,22.0488782 33.3682139,22.4856701 33.3682139,22.4856701 C33.3682139,22.4856701 28.8861519,23.4799143 27.1888753,24.5511841 C25.4915987,25.6224539 20.4487349,30.6400556 20.4487349,30.6400556 C20.4487349,30.6400556 34.6536453,29.6219886 39.6156458,28.2498824 C44.5776464,26.8777762 45.5195659,23.7073996 45.5195659,23.7073996 C45.5195659,23.7073996 47.7438387,27.3855108 50.798466,28.2498824 C53.8530933,29.114254 70.0190766,30.6400556 70.0190766,30.6400556 C70.0190766,30.6400556 65.6360403,25.9673143 63.4444641,24.5511841 C61.2528879,23.1350539 57.1793168,22.3433913 57.1793168,22.3433913 C57.1793168,22.3433913 63.4112478,21.1194644 67.3340925,17.272994 C71.2569373,13.4265235 73.7737391,6.55166952 73.7737391,6.55166952 C73.7737391,6.55166952 55.4343539,12.1899618 50.798466,14.580135 C46.1625781,16.9703083 45.5195659,19.2780807 45.5195659,19.2780807 Z" id="Path-663" stroke-width="2"></path>
                <path d="M45.8221874,20.6623179 C42.5510186,11.7797793 40.2049102,8.2902404 44.9939421,0 L46.8610389,0.807035911 C46.8610389,0.807035911 44.3423691,5.2310147 44.183917,8.25946569 C44.0254649,11.2879167 45.8221874,20.6623179 45.8221874,20.6623179 Z" id="Path-664" stroke-width="2"></path>
            </g>
            <g id="Group" transform="translate(99.046461, 89.556080) rotate(60.000000) translate(-99.046461, -89.556080) translate(56.546461, 38.056080)">
                <path d="M59.25307,21.0240622 C67.1383309,21.5194859 82.3447941,25.0173717 84.2566836,44.4247792 C85.0646115,52.6259788 81.1906294,62.5935354 75.6478584,72.3630012 C69.2935725,83.5628106 60.7460725,94.5022782 54.5451512,102.22162 C54.5451512,102.22162 41.0222363,58.1103754 28.0621912,49.394859 C11.3580939,38.1615004 0.855136543,44.4247792 0.855136543,44.4247792 C3.14228328,25.5910754 17.3634034,21.6143451 25.9944463,20.9633703 C29.1660664,22.9270897 31.3298728,23.1542915 31.3298728,23.1542915 C31.3298728,23.1542915 27.1216035,24.0896664 25.5280072,25.0975062 C23.934411,26.1053461 19.1995972,30.8258552 19.1995972,30.8258552 C19.1995972,30.8258552 32.536782,29.868068 37.1956722,28.5772043 C41.8545625,27.2863406 42.7389436,24.3036824 42.7389436,24.3036824 C42.7389436,24.3036824 44.8273438,27.7640123 47.6953752,28.5772043 C50.5634066,29.3903963 65.7418696,30.8258552 65.7418696,30.8258552 C65.7418696,30.8258552 61.6265767,26.4297872 59.5688759,25.0975062 C57.511175,23.7652252 53.6864433,23.0204371 53.6864433,23.0204371 C53.6864433,23.0204371 56.3741686,22.4915235 59.25307,21.0240622 Z" id="Combined-Shape" stroke-width="2"></path>
                <path d="M41.0579066,43.4297258 L40.4086236,49.5313086 C40.4086236,49.5313086 40.0275598,52.5727234 42.6728066,52.0121116 C45.3180534,51.4514998 44.0778373,48.7892868 44.0778373,48.7892868 L41.0579066,43.4297258 Z" id="Path-646" stroke-width="1.6" transform="translate(42.378916, 47.755401) rotate(10.000000) translate(-42.378916, -47.755401) "></path>
                <path d="M54.3617049,64.1570715 L53.7124218,70.2586543 C53.7124218,70.2586543 53.3313581,73.3000691 55.9766048,72.7394573 C58.6218516,72.1788455 57.3816356,69.5166325 57.3816356,69.5166325 L54.3617049,64.1570715 Z" id="Path-646" stroke-width="1.6" transform="translate(55.682714, 68.482747) rotate(10.000000) translate(-55.682714, -68.482747) "></path>
                <path d="M66.5674269,43.0637004 L65.9181439,49.1652832 C65.9181439,49.1652832 65.5370801,52.206698 68.1823269,51.6460862 C70.8275737,51.0854744 69.5873576,48.4232614 69.5873576,48.4232614 L66.5674269,43.0637004 Z" id="Path-646" stroke-width="1.6"></path>
                <path d="M42.7389436,20.1366238 C42.7389436,20.1366238 41.1449072,17.0687464 38.2544789,15.7168439 C35.3640506,14.3649414 18.2823318,10.7357428 18.2823318,10.7357428 C18.2823318,10.7357428 17.3856381,13.7571547 22.400967,18.2502584 C27.4162959,22.7433621 31.3298728,23.1542915 31.3298728,23.1542915 C31.3298728,23.1542915 27.1216035,24.0896664 25.5280072,25.0975062 C23.934411,26.1053461 19.1995972,30.8258552 19.1995972,30.8258552 C19.1995972,30.8258552 32.536782,29.868068 37.1956722,28.5772043 C41.8545625,27.2863406 42.7389436,24.3036824 42.7389436,24.3036824 C42.7389436,24.3036824 44.8273438,27.7640123 47.6953752,28.5772043 C50.5634066,29.3903963 65.7418696,30.8258552 65.7418696,30.8258552 C65.7418696,30.8258552 61.6265767,26.4297872 59.5688759,25.0975062 C57.511175,23.7652252 53.6864433,23.0204371 53.6864433,23.0204371 C53.6864433,23.0204371 59.5376886,21.868979 63.2209013,18.2502584 C66.9041139,14.6315378 69.2671736,8.16374458 69.2671736,8.16374458 C69.2671736,8.16374458 52.0480738,13.468193 47.6953752,15.7168439 C43.3426765,17.9654948 42.7389436,20.1366238 42.7389436,20.1366238 Z" id="Path-663" stroke-width="2"></path>
                <path d="M44.8891045,20.2068494 C41.8177593,11.8502467 39.614966,8.56732371 44.1114536,0.767949192 L45.8644964,1.52720043 C45.8644964,1.52720043 43.4996828,5.68923504 43.35091,8.53837117 C43.2021371,11.3875073 44.8891045,20.2068494 44.8891045,20.2068494 Z" id="Path-664" stroke-width="2" transform="translate(43.710904, 10.487399) scale(-1, 1) translate(-43.710904, -10.487399) "></path>
            </g>
        </g>
    </g>
</svg>