<?xml version="1.0" encoding="UTF-8"?>
<svg width="152px" height="152px" viewBox="0 0 152 152" version="1.1" xmlns="http://www.w3.org/2000/svg" xmlns:xlink="http://www.w3.org/1999/xlink">
    <!-- Generator: Sketch 44.1 (41455) - http://www.bohemiancoding.com/sketch -->
    <title>sugarsnap</title>
    <desc>Created with Sketch.</desc>
    <defs></defs>
    <g id="Page-1" stroke="none" stroke-width="1" fill="none" fill-rule="evenodd">
        <g id="sugarsnap" stroke="#979797">
            <g id="Group" transform="translate(-8.000000, 28.000000)">
                <path d="M6.63030379,44.6403655 L8.99763872,47.4516759 C8.99763872,47.4516759 5.56511521,93.748253 75.9087472,84.7310888 C146.252379,75.7139245 147.267632,33.5864919 147.267632,33.5864919 L152.442693,25.1842911 C152.442693,25.1842911 148.338525,22.2723007 147.267632,23.2898426 C146.196739,24.3073845 143.429231,30.8469182 143.429231,30.8469182 C143.429231,30.8469182 123.704221,44.5888522 74.17724,47.6243119 C24.6502591,50.6597717 11.3937902,44.7574117 11.3937902,44.7574117 C11.3937902,44.7574117 10.5131208,42.7768155 9.27370694,42.6060439 C8.03429306,42.4352723 6.63030379,44.6403655 6.63030379,44.6403655 Z" id="Path-784" stroke-width="2" transform="translate(79.536498, 54.484990) rotate(20.000000) translate(-79.536498, -54.484990) "></path>
                <path d="M35.923653,61.6489065 C40.0798318,61.6489065 43.8040773,59.7882243 46.3184053,56.8496212 C35.9063936,52.0879501 32.0191477,50.8016691 22.8224563,43.7754784 C22.4264619,45.0645471 22.2132353,46.4343691 22.2132353,47.8542986 C22.2132353,55.4728502 28.3515984,61.6489065 35.923653,61.6489065 Z" id="Oval" stroke-width="1.5"></path>
                <path d="M64.5366986,76.0732205 C70.5033937,76.0732205 75.5798716,72.2383433 77.4642157,66.8846409 C73.9883098,65.7888445 59.1945696,61.8353526 51.3026728,58.6606766 C50.992037,59.8137001 50.8262809,61.0266803 50.8262809,62.2786126 C50.8262809,69.8971642 56.964644,76.0732205 64.5366986,76.0732205 Z" id="Oval" stroke-width="1.5"></path>
                <ellipse id="Oval" stroke-width="1.5" cx="30.7251236" cy="94.8179997" rx="13.7104177" ry="13.7946079"></ellipse>
                <path d="M99.0415176,80.871345 C104.698748,80.871345 109.55571,77.4239458 111.650399,72.5031989 C108.005867,72.4861288 90.1104984,69.6942934 85.4130211,68.5934003 C86.1635483,75.4983642 91.978899,80.871345 99.0415176,80.871345 Z" id="Oval" stroke-width="1.5"></path>
                <path d="M15.3200359,24.7318396 C15.3200359,24.7318396 2.09066581,43.5448078 62.8821124,62.5749089 C123.673559,81.60501 143.749696,67.6146502 143.749696,67.6146502" id="Path-785" stroke-width="2"></path>
            </g>
        </g>
    </g>
</svg>