<?xml version="1.0" encoding="UTF-8"?>
<svg width="152px" height="152px" viewBox="0 0 152 152" version="1.1" xmlns="http://www.w3.org/2000/svg" xmlns:xlink="http://www.w3.org/1999/xlink">
    <!-- Generator: Sketch 44.1 (41455) - http://www.bohemiancoding.com/sketch -->
    <title>beetroot</title>
    <desc>Created with Sketch.</desc>
    <defs></defs>
    <g id="Page-1" stroke="none" stroke-width="1" fill="none" fill-rule="evenodd">
        <g id="beetroot" stroke="#979797" stroke-width="2">
            <path d="M84.05684,84.8250499 C84.05684,84.8250499 98.8600259,72.3978418 106.672984,69.8318984 C114.485942,67.265955 136.109079,67.7299752 136.109079,67.7299752 C136.109079,67.7299752 116.500564,67.02988 106.672984,69.8318984 C96.8454039,72.6339169 82.6112356,82.9831652 82.6112356,82.9831652 L77.7869739,78.7343139 C77.7869739,78.7343139 86.6237289,60.8755469 91.645117,54.2400689 C96.666505,47.6045909 114.525884,29.3890349 114.525884,29.3890349 C114.525884,29.3890349 99.5219892,44.2630726 91.645117,54.2400689 C83.7682447,64.2170652 76.0290521,77.6170036 76.0290521,77.6170036 L71.2029472,74.5495575 C71.2029472,74.5495575 75.9595431,53.2515809 76.0290521,44.3743263 C76.0985611,35.4970717 71.2029472,16 71.2029472,16 C71.2029472,16 76.5121925,34.0546549 76.0290521,44.3743263 C75.5459117,54.6939977 68.5233062,73.2359792 68.5233062,73.2359792 C68.5233062,73.2359792 36.8699617,61.6676821 26.1544339,83.6041524 C17.0257813,102.292025 30.5424004,117.703139 32.099985,123.892621 C33.9526091,130.890369 35.1678226,133.844073 28.0409957,139.091776 C25.0767815,140.673056 18.8455916,141.207327 14.5360345,141.925576 C10.2264774,142.643825 10,144.236672 10,144.236672 C10,144.236672 12.1438259,141.96288 14.5360345,141.925576 C16.9282431,141.888272 21.5006099,144.240808 26.1544339,142.723854 C34.4753015,140.011595 40.293182,134.33167 48.5625432,134.881663 C56.8319044,135.431655 78.8798717,140.237619 90.2366574,125.915391 C106.1821,105.806333 85.2022672,84.8250499 85.2022672,84.8250499" id="Path-729" stroke-linejoin="round"></path>
            <path d="M71.8557587,61.9275485 C71.8557587,61.9275485 61.776522,40.1839671 61.0488951,34.4637743 C60.3212683,28.7435814 67.9553808,31.2649724 67.9553808,31.2649724 C67.9553808,31.2649724 60.9288728,13.5856683 67.9553808,7.64555465 C71.454121,4.68776754 76.0093624,12.378615 79.7014952,20.8468034 C79.7014952,20.8468034 81.8939245,16.6312706 85.1144073,18.192948 C88.3348901,19.7546255 83.2695352,36.7139866 83.2695352,36.7139866 C83.2695352,36.7139866 92.4126253,35.0846667 89.9026753,39.6743054 C87.3927253,44.2639441 73.7476709,61.6111891 73.7476709,61.6111891" id="Path-730"></path>
            <path d="M116.374558,94.7187348 C116.374558,94.7187348 105.44926,73.0112779 104.721633,67.291085 C103.994006,61.5708922 111.628118,64.0922832 111.628118,64.0922832 C111.628118,64.0922832 104.60161,46.4129791 111.628118,40.4728654 C115.126859,37.5150783 119.6821,45.2059258 123.374233,53.6741142 C123.374233,53.6741142 125.566662,49.4585814 128.787145,51.0202588 C132.007628,52.5819363 126.942273,69.5412973 126.942273,69.5412973 C126.942273,69.5412973 136.085363,67.9119775 133.575413,72.5016162 C131.065463,77.0912549 117.420409,94.4384999 117.420409,94.4384999" id="Path-730" transform="translate(119.342135, 67.273023) scale(-1, 1) rotate(-75.000000) translate(-119.342135, -67.273023) "></path>
            <polyline id="Path-731" points="79.3777467 54.433149 82.3934581 69.6103614 97.9307433 69.6103614"></polyline>
            <path d="M89,37.3294219 C89,37.3294219 92.0498877,27.2281678 97.5982514,24.0143209 C103.146615,20.8004739 104.721697,26.952742 104.721697,26.952742 C113.404784,22.2248923 118.560352,18.1340725 122.733211,20.8924613 C124.472327,22.0420702 122.673022,29.6378358 120.223938,37.5027499 C120.223938,37.5027499 125.733427,37.9678072 124.963181,42.5367383 C124.192934,47.1056694 113.084933,54.7638596 113.084933,54.7638596" id="Path-732"></path>
        </g>
    </g>
</svg>