<?xml version="1.0" encoding="UTF-8"?>
<svg width="152px" height="152px" viewBox="0 0 152 152" version="1.1" xmlns="http://www.w3.org/2000/svg" xmlns:xlink="http://www.w3.org/1999/xlink">
    <!-- Generator: Sketch 44.1 (41455) - http://www.bohemiancoding.com/sketch -->
    <title>zucchini</title>
    <desc>Created with Sketch.</desc>
    <defs></defs>
    <g id="Page-1" stroke="none" stroke-width="1" fill="none" fill-rule="evenodd" stroke-linecap="round">
        <g id="zucchini" stroke="#979797">
            <g id="Group" transform="translate(75.786427, 76.129756) rotate(-10.000000) translate(-75.786427, -76.129756) translate(-1.713573, 21.629756)">
                <path d="M2.66549649,95.0582687 C2.66549649,95.0582687 -3.12524244,82.4766067 6.65807898,70.6988901 C16.4414004,58.9211735 42.2978483,53.2153502 42.2978483,53.2153502 C42.2978483,53.2153502 72.822644,43.8593108 90.4169484,35.5847477 C108.011253,27.3101845 117.819508,16.1492142 117.819508,16.1492142 C117.819508,16.1492142 122.08646,10.8984616 124.864456,9.60647728 C126.61519,8.79224978 130.203237,8.15915744 133.840743,9.1142569 C137.478249,10.0693564 145.174016,18.3077699 145.174016,18.3077699 L133.840743,8.24068913 L131.931993,6.74341906 L143.786007,0.0653588888 C143.786007,0.0653588888 148.161818,2.42965525 149.466902,3.63225619 C150.771986,4.83485713 154.140197,9.60647728 154.140197,9.60647728 L147.585157,21.6093884 L145.174016,18.3077699 C145.174016,18.3077699 145.174016,26.5908852 141.658993,31.9885951 C139.754164,34.9136715 125.640888,51.3298554 105.096136,67.508899 C84.551383,83.6879425 72.8077366,91.7542331 58.1235312,99.4393599 C14.529695,122.254633 2.66549649,95.0582687 2.66549649,95.0582687 Z" id="Path-691" stroke-width="2" stroke-linejoin="round"></path>
                <path d="M2.73569595,92.6930306 C2.73569595,92.6930306 7.48789575,80.6549843 19.5455139,72.6108873 C25.4350999,68.6817198 64.8498834,58.6826798 91.9570375,44.4672063 C111.49033,34.2236005 118.970124,23.5680694 125.507955,17.0492574 C132.045786,10.5304454 136.340261,10.5418911 136.340261,10.5418911 L144.961177,4.33313946" id="Path-692" stroke-width="1.5"></path>
                <path d="M2.53793201,93.4873119 C2.53793201,93.4873119 15.2313861,103.495277 41.4564799,94.7388991 C80.8240018,82.5327472 113.364718,54.8394724 129.939735,38.0557686 C136.638161,30.2554859 139.860683,25.1155276 141.370605,21.8069033 C143.28251,17.6174318 142.448548,16.3641974 142.448548,16.3641974" id="Path-693" stroke-width="1.5"></path>
                <path d="M148.889487,4.56520178 L139.627332,14.2508331 C139.627332,14.2508331 137.043042,15.2520516 133.627582,19.4973156 C130.212122,23.7425796 115.386074,42.8322246 96.7197861,53.603456 C80.0340486,63.2318268 53.196857,73.9638327 31.8592524,82.1289025 C10.5216478,90.2939723 2.85969638,93.8298994 2.85969638,93.8298994" id="Path-694" stroke-width="1.5"></path>
            </g>
        </g>
    </g>
</svg>