<?xml version="1.0" encoding="UTF-8"?>
<svg width="152px" height="152px" viewBox="0 0 152 152" version="1.1" xmlns="http://www.w3.org/2000/svg" xmlns:xlink="http://www.w3.org/1999/xlink">
    <!-- Generator: Sketch 44.1 (41455) - http://www.bohemiancoding.com/sketch -->
    <title>onion</title>
    <desc>Created with Sketch.</desc>
    <defs></defs>
    <g id="Page-1" stroke="none" stroke-width="1" fill="none" fill-rule="evenodd" stroke-linecap="round">
        <g id="onion" stroke="#979797">
            <g id="Group" transform="translate(75.852814, 85.852814) rotate(45.000000) translate(-75.852814, -85.852814) translate(16.352814, 25.352814)">
                <path d="M96.8900732,104.565508 C96.8900732,104.565508 51.3637118,138.624737 18.8480873,106.109112 C-13.6675371,73.5934876 7.06828994,37.6631258 5.68830664,32.3786275 C7.91129013,21.8158433 -3.63013189,10.9771431 1.24549743,5.54906332 C6.12112675,0.120983566 3.56532608,3.09589663 25.7277725,8.61363577 C38.6086805,10.3312911 69.8374676,-16.0592755 102.395081,16.4983375 C134.952693,49.0559504 107.299039,94.4107635 107.299039,94.4107635 C107.299039,94.4107635 108.328955,96.1323658 103.946506,101.125547 C99.5640567,106.118728 96.8900732,104.565508 96.8900732,104.565508 Z" id="Path-665" stroke-width="2" stroke-linejoin="round"></path>
                <path d="M7.84954743,16.8908008 C7.84954743,16.8908008 14.2380267,22.472552 18.0320659,33.8008635 C21.8261052,45.129175 25.8370531,73.0611274 37.6552419,86.2532863 C58.7705091,109.823392 94.0834545,99.0576065 94.0834545,99.0576065 C94.0834545,99.0576065 66.0795918,104.17486 47.3345885,87.8897473 C28.5895852,71.604635 19.2638676,37.5830921 19.2638676,37.5830921" id="Path-666" stroke-width="1.6" stroke-linejoin="round"></path>
                <path d="M106.672042,94.249314 C106.672042,94.249314 102.396191,71.8756541 77.5106484,43.8718318 C65.9860616,30.9031582 41.7512992,24.8768417 28.7099484,19.7133425 C15.6685977,14.5498434 10.420669,9.67940434 10.420669,9.67940434" id="Path-670" stroke-width="1.6"></path>
            </g>
        </g>
    </g>
</svg>