<?xml version="1.0" encoding="UTF-8"?>
<svg width="152px" height="152px" viewBox="0 0 152 152" version="1.1" xmlns="http://www.w3.org/2000/svg" xmlns:xlink="http://www.w3.org/1999/xlink">
    <!-- Generator: Sketch 46.2 (44496) - http://www.bohemiancoding.com/sketch -->
    <title>tamarind</title>
    <desc>Created with Sketch.</desc>
    <defs></defs>
    <g id="Page-1" stroke="none" stroke-width="1" fill="none" fill-rule="evenodd" stroke-linecap="round" stroke-linejoin="round">
        <g id="tamarind" stroke="#979797" stroke-width="2">
            <g id="Group" transform="translate(2.000000, 0.000000)">
                <path d="M94.8236548,115.765799 C93.3334283,110.52514 90.8302994,106.598131 87.3142679,103.984773 C83.3782308,101.059236 79.6120475,102.069386 73.5904909,99.1620741 C72.281458,98.5300504 70.8907461,97.0350175 69.4183552,94.6769755 C66.9035982,90.0162966 64.5609959,87.0394861 62.3905482,85.7465439 C55.9388914,81.9032726 47.3442006,81.5212612 45.9436029,80.635457 C43.8362275,79.3026533 41.9803512,77.1884401 40.3759738,74.2928174 C36.3270435,68.3920785 32.4476768,65.3438008 28.7378738,65.1479844 C25.0988377,64.9559034 15.3869557,65.1479844 5.78041878e-05,73.5351486 C-0.0287012808,73.5508248 10.6794244,81.7540959 19.6088975,85.7465439 C25.7199313,88.4788423 31.0319302,87.7681229 31.0044899,87.7783655 C30.9633995,87.7937033 21.2686175,87.5588886 11.0295553,77.2831898 C8.67670703,74.9219228 7.02367485,72.6758379 6.07045881,70.5449353 C7.17350881,70.0267633 8.58804487,69.0166852 10.314067,67.514701 C15.7962802,62.7440801 17.8749667,56.9168729 28.7378738,56.040917 C34.7509528,55.5560382 40.7964856,59.3806329 46.8744722,67.514701 C48.8903211,70.3122697 50.5120175,71.9527711 51.7395613,72.4362051 C54.4545871,73.5054426 65.1236922,74.5459201 70.3035132,78.5652851 C77.6990009,84.3039321 78.4363083,90.30322 81.2460676,93.1460228 C83.163836,95.0863446 107.909547,104.697654 93.5300546,131.27346 C92.8545858,132.521844 94.4866877,135.909135 93.5300546,136.982608 C91.2140613,139.581468 89.7445746,136.299067 87.3142679,136.982608 C77.4122155,139.767629 70.015357,135.283695 65.1236922,123.530806 C64.1383183,120.754693 62.7669009,118.674597 61.0094402,117.290518 C58.1161888,115.011954 51.3099133,113.69702 45.0292955,107.904811 C41.0568332,104.241265 39.2875658,98.5204737 36.4709929,97 C34.4569072,95.9127339 28.7889384,95.8838146 24.1879592,94.6769755 C17.6767462,92.969081 9.61411244,85.9218054 5.78041881e-05,73.5351486 C9.35139399,80.333023 15.8876739,84.4034881 19.6088975,85.7465439 C28.0430197,88.7905688 32.2192772,86.9088991 37.3769085,88.7478831 C43.9746292,91.1003394 49.079064,99.1856239 50.4810145,100.637591 C51.882965,102.089557 57.3296914,103.488135 62.3905482,108.639533 C65.7644527,112.073797 69.130818,116.375402 72.4896441,121.544346 C75.1200694,124.920711 77.4555762,127.009345 79.4961645,127.810248 C81.5367527,128.611152 85.0866498,128.83246 90.1458557,128.474172 C93.0407899,124.33882 94.6000562,120.102696 94.8236548,115.765799 C95.0472535,111.428903 94.3021402,106.897194 92.5883151,102.170674" id="Path-844"></path>
                <path d="M56.0659781,17.4077816 C61.5320244,12.6371607 62.111253,8.91687294 72.9421257,8.04091696 C78.9374723,7.55603823 84.965177,11.3806329 91.0252398,19.514701 C93.0351441,22.3122697 94.6520581,23.9527711 95.8759819,24.4362051 C98.5830012,25.5054426 109.220643,26.5459201 114.385189,30.5652851 C121.758868,36.3039321 122.494001,42.30322 125.295474,45.1460228 C127.207587,47.0863446 151.880324,56.697654 137.543236,83.2734602 C136.869759,84.5218441 138.497048,87.9091348 137.543236,88.9826076 C135.234073,91.581468 133.76892,88.2990669 131.34578,88.9826076 C121.472928,91.767629 114.097883,87.2836953 109.220643,75.5308064 C108.238175,72.7546927 106.870802,70.6745966 105.118524,69.290518 C102.233805,67.0119536 95.447601,65.6970197 89.1855045,59.9048108 C85.2247569,56.2412649 83.460707,50.5204737 80.6524401,49 C78.6442939,47.9127339 72.9930397,47.8838146 68.4056286,46.6769755 C61.9136171,44.969081 55.111778,36.9041023 48.0001114,22.4820393 C47.9714371,22.4977155 53.4845799,19.6607578 56.0659781,17.4077816 Z" id="Path-844" transform="translate(95.000000, 49.000000) scale(-1, -1) rotate(-10.000000) translate(-95.000000, -49.000000) "></path>
            </g>
        </g>
    </g>
</svg>