<?xml version="1.0" encoding="UTF-8"?>
<svg width="152px" height="152px" viewBox="0 0 152 152" version="1.1" xmlns="http://www.w3.org/2000/svg" xmlns:xlink="http://www.w3.org/1999/xlink">
    <!-- Generator: Sketch 46.2 (44496) - http://www.bohemiancoding.com/sketch -->
    <title>tangerine</title>
    <desc>Created with Sketch.</desc>
    <defs></defs>
    <g id="Page-1" stroke="none" stroke-width="1" fill="none" fill-rule="evenodd" stroke-linecap="round">
        <g id="tangerine" stroke="#F95604">
            <g id="Group" transform="translate(3.000000, -12.000000)">
                <g id="Group-2" transform="translate(73.017037, 100.129410) scale(-1, 1) rotate(15.000000) translate(-73.017037, -100.129410) translate(13.017037, 43.129410)" stroke-width="2.1">
                    <path d="M63.0284441,18.302989 C63.1466666,10.64876 73.2343488,-4.38888624 75.1038688,2.49397125 C75.6179695,4.38669322 71.7439203,4.58645613 71.0794358,6.43194493 C69.6169595,10.4937154 69.5915145,14.6590751 69.176829,18.9552814 C69.176829,18.9552814 67.0039949,19.6573519 65.8150695,19.5312168 C64.6261441,19.4050817 63.0284441,18.302989 63.0284441,18.302989 Z" id="Path-256"></path>
                    <path d="M62.5555201,15.9438552 C-18.4012067,16.3362179 -14.7963313,102.019715 41.3936073,111.986551 C114.595482,124.970924 143.003341,66.318238 98.6679374,25.2409308 C98.6679374,25.2409308 96.3040246,22.6183804 88.3481406,19.409496 C80.3922567,16.2006116 70.5902914,16.5263744 70.5902914,16.5263744" id="Path-255"></path>
                </g>
                <g id="Group-3" transform="translate(85.000000, 32.000000) scale(-1, 1) rotate(30.000000) translate(-85.000000, -32.000000) translate(46.000000, 18.000000)" stroke-width="2" stroke-linejoin="round">
                    <path d="M77.0891082,13.2121816 C58.3751173,-9.38050423 11.8896731,0.819777321 0.549873647,25.2555837 C0.549873647,25.2555837 11.8117082,16.3852325 32.0619955,10.7356609 C52.3122827,5.08608919 71.8580144,10.7356609 71.8580144,10.7356609" id="Path-362"></path>
                    <path d="M73.746001,10.1688109 C52.2386111,24.3167312 26.7799968,31.5500799 1.15407934,25.3577119" id="Path-363"></path>
                </g>
            </g>
        </g>
    </g>
</svg>