<?xml version="1.0" encoding="UTF-8"?>
<svg width="152px" height="152px" viewBox="0 0 152 152" version="1.1" xmlns="http://www.w3.org/2000/svg" xmlns:xlink="http://www.w3.org/1999/xlink">
    <!-- Generator: Sketch 44.1 (41455) - http://www.bohemiancoding.com/sketch -->
    <title>thyme</title>
    <desc>Created with Sketch.</desc>
    <defs></defs>
    <g id="Page-1" stroke="none" stroke-width="1" fill="none" fill-rule="evenodd" stroke-linecap="round" stroke-linejoin="round">
        <g id="thyme" stroke="#91E195" stroke-width="2.2">
            <g id="Group-2" transform="translate(-7.000000, 9.000000)">
                <g id="Group" transform="translate(63.427419, 1.000000)">
                    <path d="M26.8942389,125.532116 C26.8942389,85.5281409 33.3264773,55.3111831 55.5001633,21.8425197" id="Path-610"></path>
                    <path d="M55.6092707,21.5415805 C55.6092707,21.5415805 50.7382065,16.7497755 49.4001991,10.7707903 C48.0621917,4.79180509 49.4001991,7.10542736e-15 49.4001991,7.10542736e-15 C49.4001991,7.10542736e-15 53.0121915,3.11979796 54.595219,6.38268025 C56.1782465,9.64556255 56.8306455,15.3153828 56.8306455,15.3153828 C56.8306455,15.3153828 57.8312881,9.83421511 60.9847841,6.73894866 C64.1382801,3.64368222 69.5159085,2.63631692 69.5159085,2.63631692 C69.5159085,2.63631692 68.4702383,7.46329673 66.5563151,10.7707903 C64.6423919,14.0782838 60.9847841,16.4060216 60.9847841,16.4060216 C60.9847841,16.4060216 64.1003139,14.828199 69.1028935,15.3153828 C74.1054731,15.8025667 79.471031,18.9716394 79.471031,18.9716394 C79.471031,18.9716394 73.8024976,21.6706605 67.6594268,22.4532274 C61.5163561,23.2357943 55.6092707,21.5415805 55.6092707,21.5415805 Z" id="Path-611"></path>
                    <path d="M41.5362402,43.4296105 C41.5362402,43.4296105 33.6659308,41.7805258 28.7696102,35.9113247 C23.8732896,30.0421237 23.4345614,22.992126 23.4345614,22.992126 C23.4345614,22.992126 29.7460419,22.992126 34.815372,29.4705424 C39.8847021,35.9489588 41.5362402,43.4296105 41.5362402,43.4296105 Z" id="Path-612"></path>
                    <path d="M43.0394002,44.2783106 C43.0394002,44.2783106 50.0564854,40.6112933 58.599017,41.5350512 C67.1415485,42.458809 72.4647568,47.403117 72.4647568,47.403117 C72.4647568,47.403117 65.9992614,51.6696593 57.3671548,50.4219819 C48.7350482,49.1743044 43.0394002,44.2783106 43.0394002,44.2783106 Z" id="Path-613"></path>
                    <path d="M28.3512662,75.7889624 C28.3512662,75.7889624 20.4809568,74.1398777 15.5846362,68.2706766 C10.6883156,62.4014755 10.2495874,55.3514778 10.2495874,55.3514778 C10.2495874,55.3514778 16.5610679,55.3514778 21.6303979,61.8298943 C26.699728,68.3083107 28.3512662,75.7889624 28.3512662,75.7889624 Z" id="Path-612" transform="translate(19.300427, 65.570220) rotate(-20.000000) translate(-19.300427, -65.570220) "></path>
                    <path d="M32.6603679,71.8688618 C32.6603679,71.8688618 39.6774532,68.2018445 48.2199847,69.1256023 C56.7625162,70.0493602 62.0857245,74.9936682 62.0857245,74.9936682 C62.0857245,74.9936682 55.6202292,79.2602105 46.9881225,78.012533 C38.3560159,76.7648556 32.6603679,71.8688618 32.6603679,71.8688618 Z" id="Path-613"></path>
                    <path d="M22.714582,109.984973 C22.714582,109.984973 14.8442726,108.335888 9.947952,102.466687 C5.05163136,96.5974862 4.61290323,89.5474885 4.61290323,89.5474885 C4.61290323,89.5474885 10.9243837,89.5474885 15.9937138,96.0259049 C21.0630438,102.504321 22.714582,109.984973 22.714582,109.984973 Z" id="Path-612" transform="translate(13.663743, 99.766231) rotate(-35.000000) translate(-13.663743, -99.766231) "></path>
                    <path d="M27.5956373,99.6487197 C27.5956373,99.6487197 34.6127225,95.9817024 43.1552541,96.9054602 C51.6977856,97.8292181 57.0209939,102.773526 57.0209939,102.773526 C57.0209939,102.773526 50.5554985,107.040068 41.9233919,105.792391 C33.2912853,104.544713 27.5956373,99.6487197 27.5956373,99.6487197 Z" id="Path-613" transform="translate(42.308316, 101.388607) rotate(-15.000000) translate(-42.308316, -101.388607) "></path>
                </g>
                <g id="Group" transform="translate(59.203061, 73.692546) rotate(-20.000000) translate(-59.203061, -73.692546) translate(19.203061, 10.692546)">
                    <path d="M26.8942389,125.532116 C26.8942389,85.5281409 33.3264773,55.3111831 55.5001633,21.8425197" id="Path-610"></path>
                    <path d="M55.6092707,21.5415805 C55.6092707,21.5415805 50.7382065,16.7497755 49.4001991,10.7707903 C48.0621917,4.79180509 49.4001991,-6.39488462e-14 49.4001991,-6.39488462e-14 C49.4001991,-6.39488462e-14 53.0121915,3.11979796 54.595219,6.38268025 C56.1782465,9.64556255 56.7128919,14.2735169 56.7128919,14.2735169 C56.7128919,14.2735169 57.8312881,9.83421511 60.9847841,6.73894866 C64.1382801,3.64368222 69.5159085,2.63631692 69.5159085,2.63631692 C69.5159085,2.63631692 68.4702383,7.46329673 66.5563151,10.7707903 C64.6423919,14.0782838 60.9847841,16.4060216 60.9847841,16.4060216 C60.9847841,16.4060216 64.1003139,14.828199 69.1028935,15.3153828 C74.1054731,15.8025667 79.471031,18.9716394 79.471031,18.9716394 C79.471031,18.9716394 73.8024976,21.6706605 67.6594268,22.4532274 C61.5163561,23.2357943 55.6092707,21.5415805 55.6092707,21.5415805 Z" id="Path-611"></path>
                    <path d="M41.5362402,43.4296105 C41.5362402,43.4296105 33.6659308,41.7805258 28.7696102,35.9113247 C23.8732896,30.0421237 23.4345614,22.992126 23.4345614,22.992126 C23.4345614,22.992126 29.7460419,22.992126 34.815372,29.4705424 C39.8847021,35.9489588 41.5362402,43.4296105 41.5362402,43.4296105 Z" id="Path-612"></path>
                    <path d="M43.0394002,44.2783106 C43.0394002,44.2783106 50.0564854,40.6112933 58.599017,41.5350512 C67.1415485,42.458809 72.4647568,47.403117 72.4647568,47.403117 C72.4647568,47.403117 65.9992614,51.6696593 57.3671548,50.4219819 C48.7350482,49.1743044 43.0394002,44.2783106 43.0394002,44.2783106 Z" id="Path-613"></path>
                    <path d="M28.3512662,75.7889624 C28.3512662,75.7889624 20.4809568,74.1398777 15.5846362,68.2706766 C10.6883156,62.4014755 10.2495874,55.3514778 10.2495874,55.3514778 C10.2495874,55.3514778 16.5610679,55.3514778 21.6303979,61.8298943 C26.699728,68.3083107 28.3512662,75.7889624 28.3512662,75.7889624 Z" id="Path-612" transform="translate(19.300427, 65.570220) rotate(-20.000000) translate(-19.300427, -65.570220) "></path>
                    <path d="M37.6017799,70.0695505 C37.6017799,70.0695505 30.3411713,68.3500069 28.6117102,66.8273481 C23.7143167,60.958147 23.3772543,53.0558367 23.3772543,53.0558367 C23.3772543,53.0558367 30.0202446,53.2764902 35.0906854,59.7549067 C36.8316631,66.4249579 37.6017799,70.0695505 37.6017799,70.0695505 Z" id="Path-612" transform="translate(30.489517, 61.562694) rotate(30.000000) translate(-30.489517, -61.562694) "></path>
                    <path d="M32.6603679,71.8688618 C32.6603679,71.8688618 39.6774532,68.2018445 48.2199847,69.1256023 C56.7625162,70.0493602 62.0857245,74.9936682 62.0857245,74.9936682 C62.0857245,74.9936682 55.6202292,79.2602105 46.9881225,78.012533 C38.3560159,76.7648556 32.6603679,71.8688618 32.6603679,71.8688618 Z" id="Path-613"></path>
                    <path d="M22.714582,109.984973 C22.714582,109.984973 14.8442726,108.335888 9.947952,102.466687 C5.05163136,96.5974862 4.61290323,89.5474885 4.61290323,89.5474885 C4.61290323,89.5474885 10.9243837,89.5474885 15.9937138,96.0259049 C21.0630438,102.504321 22.714582,109.984973 22.714582,109.984973 Z" id="Path-612" transform="translate(13.663743, 99.766231) rotate(-35.000000) translate(-13.663743, -99.766231) "></path>
                    <path d="M27.670278,100.213893 C27.670278,100.213893 34.6873633,96.5468755 43.2298948,97.4706333 C45.3280338,99.8080198 49.7702948,103.60327 52.714562,105.339314 C50.0239616,106.23948 46.2772162,106.976074 41.9980326,106.357564 C33.365926,105.109887 27.670278,100.213893 27.670278,100.213893 Z" id="Path-613" transform="translate(40.192420, 101.953780) rotate(-15.000000) translate(-40.192420, -101.953780) "></path>
                </g>
            </g>
        </g>
    </g>
</svg>