<?xml version="1.0" encoding="UTF-8"?>
<svg width="152px" height="152px" viewBox="0 0 152 152" version="1.1" xmlns="http://www.w3.org/2000/svg" xmlns:xlink="http://www.w3.org/1999/xlink">
    <!-- Generator: Sketch 44.1 (41455) - http://www.bohemiancoding.com/sketch -->
    <title>tomato</title>
    <desc>Created with Sketch.</desc>
    <defs></defs>
    <g id="Page-1" stroke="none" stroke-width="1" fill="none" fill-rule="evenodd" stroke-linecap="round">
        <g id="tomato" stroke="#FF0000" stroke-width="2.1">
            <g id="Group-2" transform="translate(8.000000, 7.000000)">
                <g id="Group" transform="translate(51.864843, 0.000000)">
                    <path d="M21.8134002,20.932018 C21.9173265,14.2423645 30.7851411,1.09974211 32.4285868,7.11523122 C32.8805191,8.76943493 29.4749449,8.94402399 28.8908141,10.5569468 C27.6051899,14.1068584 27.5828218,17.7473051 27.2182828,21.5021093" id="Path-256"></path>
                    <path d="M17.7031045,23.8487151 C17.149128,27.3100394 15.8279163,31.8096423 10.6734195,30.0880087 C9.45405502,29.6807335 7.22835756,26.8993006 7.9123916,27.4116097 C13.4187355,31.5356007 17.2464905,32.352996 26.574185,24.8733292" id="Path-257"></path>
                    <path d="M26.574185,24.8733292 C59.5130295,38.8633698 41.3594214,27.2552702 30.1085564,20.1639098" id="Path-258"></path>
                    <path d="M30.5761515,20.1014724 C31.6741846,19.0094178 36.181804,16.7464961 38.5009007,13.4966059 C40.8199975,10.2467157 44.1556721,9.62956053 44.1556721,9.62956053 C40.0804986,11.0089385 37.4551808,10.3338282 34.1167325,12.8251418 C32.3095577,14.1737441 30.2126114,14.5841491 28.0497238,15.2384706" id="Path-259" stroke-linejoin="round"></path>
                    <path d="M17.9625947,23.852748 C8.93475712,14.2052328 -17.4122982,9.39953784 18.8437571,17.3175636" id="Path-260"></path>
                    <path d="M18.7933074,16.704396 C21.4229625,-11.8100239 18.5485754,2.97128888 25.0362152,11.608108" id="Path-261"></path>
                    <path d="M29.0550124,11.894997 L33.609736,13.0157748" id="Path-263"></path>
                </g>
                <path d="M70.6947606,11.2109163 C-18.7294391,11.9295724 -17.107105,121.66614 45.8799678,135.612876 C129.064253,154.031724 177.671102,53.4453521 89.2356619,15.4608811" id="Path-255"></path>
            </g>
        </g>
    </g>
</svg>