<?xml version="1.0" encoding="UTF-8"?>
<svg width="152px" height="152px" viewBox="0 0 152 152" version="1.1" xmlns="http://www.w3.org/2000/svg" xmlns:xlink="http://www.w3.org/1999/xlink">
    <!-- Generator: Sketch 44.1 (41455) - http://www.bohemiancoding.com/sketch -->
    <title>turnip</title>
    <desc>Created with Sketch.</desc>
    <defs></defs>
    <g id="Page-1" stroke="none" stroke-width="1" fill="none" fill-rule="evenodd">
        <g id="turnip" stroke="#979797" stroke-width="2">
            <g id="Group-2" transform="translate(75.632883, 66.899189) rotate(-40.000000) translate(-75.632883, -66.899189) translate(19.132883, -16.100811)">
                <g id="Group" transform="translate(66.848928, 47.234031) rotate(-20.000000) translate(-66.848928, -47.234031) translate(31.348928, 10.734031)" stroke-linecap="round" stroke-linejoin="round">
                    <path d="M15.8189837,46.4461393 C15.8189837,46.4461393 7.38925305,28.2268605 6.78070514,23.4338235 C6.17215722,18.6407866 12.5569177,20.7534986 12.5569177,20.7534986 C12.5569177,20.7534986 6.68032495,5.93973981 12.5569177,0.962427885 C15.4830756,-1.51594709 19.2928341,4.92833145 22.3807352,12.0239558 C22.3807352,12.0239558 24.2143649,8.49169644 26.9078033,9.80024983 C29.6012416,11.1088032 25.3648517,25.3193108 25.3648517,25.3193108 C25.3648517,25.3193108 32.0201696,23.0539582 30.9124527,27.7998071 C30.9124527,27.7998071 29.4166662,33.5444051 27.0362895,36.7470561 C24.6559128,39.9497072 17.4012772,46.1810569 17.4012772,46.1810569" id="Path-730"></path>
                    <path d="M40.7856241,68.8504507 C40.7856241,68.8504507 31.6482932,50.6614411 31.0397453,45.8684042 C30.4311974,41.0753673 36.8159579,43.1880793 36.8159579,43.1880793 C36.8159579,43.1880793 30.9393651,28.3743205 36.8159579,23.3970085 C39.7421158,20.9186336 43.5518743,27.3629121 46.6397753,34.4585364 C46.6397753,34.4585364 48.4734051,30.9262771 51.1668435,32.2348305 C53.8602818,33.5433839 49.6238918,47.7538914 49.6238918,47.7538914 C49.6238918,47.7538914 56.313839,44.5639959 57.6699658,46.5870663 C59.0260927,48.6101367 54.6412041,54.6484212 53.8213944,55.7658914 C51.8796107,58.4127073 41.6603174,68.6156376 41.6603174,68.6156376" id="Path-730" transform="translate(44.463577, 45.853270) scale(-1, 1) rotate(-75.000000) translate(-44.463577, -45.853270) "></path>
                    <path d="M25.8531445,24.2683348 C25.8531445,24.2683348 28.4039063,15.8043398 33.0442588,13.1114084 C37.6846114,10.4184769 39.0019248,15.5735563 39.0019248,15.5735563 C46.2639915,11.6120188 50.5758303,8.18425848 54.0657854,10.4955545 C55.520288,11.4588294 54.0154467,17.8234374 51.9671642,24.4135689 C51.9671642,24.4135689 56.5750046,24.8032476 55.9308116,28.6316247 C55.2866186,32.4600018 45.0927388,39.0912026 45.0927388,39.0912026" id="Path-732"></path>
                    <path d="M0.0204712666,60.3834532 C0.0204712666,60.3834532 3.35997272,59.3067871 9.44998652,63.8155161 C15.5400003,68.324245 15.0826656,72.5071037 15.0826656,72.5071037" id="Path-2"></path>
                    <path d="M7.4124964,61.9680031 C7.4124964,61.9680031 15.9903593,49.5727326 18.3716256,42.0778059 C20.7528918,34.5828791 19.1328272,18.7043891 19.1328272,18.7043891" id="Path-3"></path>
                </g>
                <path d="M49.8809126,84.32439 C49.8809126,84.32439 46.1860505,82.8613053 40.7536168,82.0221797 C30.919853,80.5031987 15.3924047,81.02881 5.78124743,95.9786403 C-1.67767309,107.580739 -1.68730235,121.655506 4.55804676,131.743173 C10.8033959,141.83084 23.3099806,147.937178 24.4873793,150.200739 C25.6477918,152.431643 24.6796949,156.002606 24.8585517,159.836152 C25.0374085,163.669699 27.5783318,166.537354 28.3461406,165.525954 C29.1139494,164.514555 26.2366305,160.521472 32.3083499,155.028442 C38.3800693,149.535413 49.7773889,152.554128 53.1330167,152.628694 C56.4886445,152.703259 71.1708592,153.872523 78.7988569,127.577896 C86.4268546,101.28327 58.2625884,87.2396639 58.2625884,87.2396639 L49.8809126,84.32439 Z" id="Path-774" stroke-linejoin="round"></path>
                <path d="M3.22924611,99.7886973 C3.22924611,99.7886973 4.60060075,105.470239 10.8350044,108.930393 C17.069408,112.390548 21.9183697,110.302706 26.045275,112.36195 C30.5139389,114.591724 33.6228854,120.069401 37.1933851,121.321481 C40.6336331,122.527885 46.5271056,120.240326 51.3902409,121.321481 C56.2568599,122.403411 60.0633104,127.212818 64.556613,128.012684 C69.0499157,128.81255 78.8847391,126.319079 78.8847391,126.319079" id="Path-775" stroke-linejoin="round"></path>
                <path d="M53.5168151,81.4657783 C53.5168151,81.4657783 55.9803516,74.3687248 64.2695271,65.5906042 C72.5587026,56.8124835 83.3690579,51.4234544 83.3690579,51.4234544" id="Path-776" stroke-linecap="round"></path>
            </g>
        </g>
    </g>
</svg>