<?xml version="1.0" encoding="UTF-8"?>
<svg width="152px" height="152px" viewBox="0 0 152 152" version="1.1" xmlns="http://www.w3.org/2000/svg" xmlns:xlink="http://www.w3.org/1999/xlink">
    <!-- Generator: Sketch 44.1 (41455) - http://www.bohemiancoding.com/sketch -->
    <title>vanilla</title>
    <desc>Created with Sketch.</desc>
    <defs></defs>
    <g id="Page-1" stroke="none" stroke-width="1" fill="none" fill-rule="evenodd" stroke-linejoin="round">
        <g id="vanilla" stroke="#095B6B" stroke-width="2">
            <g id="Group" transform="translate(9.000000, 6.000000)">
                <path d="M76.7564173,89.1137795 C76.7564173,89.1137795 67.8922206,85.6187488 62.1163129,86.9894252 C56.3404052,88.3601015 38.9534884,98.0847646 38.9534884,98.0847646 C38.9534884,98.0847646 51.7825062,108.933361 59.0934211,109.610113 C66.404336,110.286865 80.621736,107.200947 80.621736,107.200947 C80.621736,107.200947 72.448687,111.1382 71.5972395,115.595048 C70.745792,120.051895 74.3557212,140 74.3557212,140 C74.3557212,140 89.0310099,129.076238 93.5434146,125.423659 C98.0558194,121.77108 96.1534928,109.610113 96.1534928,109.610113 C96.1534928,109.610113 100.922743,119.057025 104.756842,121.573617 C113.454339,127.282401 129.332423,126.596042 129.332423,126.596042 C129.332423,126.596042 127.697198,123.249999 126.120621,116.118487 C124.544043,108.986974 125.126658,107.128637 123.327075,103.247102 C118.995104,93.9034404 112.381119,92.7783465 112.381119,92.7783465 C112.381119,92.7783465 122.59085,90.4918042 126.544138,84.6689704 C130.497426,78.8461366 133.878109,58.9249402 133.878109,58.9249402 C133.878109,58.9249402 112.953588,61.0180227 104.756842,65.3214581 C96.5600964,69.6248935 96.1534928,78.7310257 96.1534928,78.7310257 C96.1534928,78.7310257 94.3428667,63.2046088 90.1177781,58.9249402 C85.8926894,54.6452715 69.1052119,51.3333333 69.1052119,51.3333333 C69.1052119,51.3333333 65.0669079,66.4491622 66.7211325,74.6174627 C68.3753572,82.7857632 76.7564173,89.1137795 76.7564173,89.1137795 Z" id="Path-465" stroke-linecap="round"></path>
                <polygon id="Path-466" stroke-linecap="round" points="82.5813953 96.3978977 89.1392142 92.7377898 88.2026915 85.5555556 93.7930341 90.5782327 101.222589 87.7920087 98.2560941 94.3576373 102.837209 99.6117212 94.8699273 98.7119656 90.6293004 104.150025 90.25138 97.1309254"></polygon>
                <path d="M67.3918004,58.6004014 C67.3918004,58.6004014 44.539328,37.3413575 38.6025581,26.1910653 C35.8455989,21.0130137 43.9615754,19.4994485 46.1154037,17.2651711 C47.2199832,16.1193337 46.5230124,13.0161523 45.1742157,11.9265848 C43.8254191,10.8370173 41.9892354,11.8282269 41.7549085,12.2579257 C41.2738977,13.1399831 43.080266,16.0766897 43.080266,16.0766897 C43.080266,16.0766897 30.8244713,20.4506246 33.276522,25.525479 C35.7285728,30.6003333 65.4902018,62.457117 65.4902018,62.457117 L66.1335497,69.1129962 C66.1335497,69.1129962 54.3292055,63.7460209 43.080266,52.4418698 C37.2083143,46.5410977 25.3588233,31.0208867 17.0283045,20.59298 C8.69778567,10.1650733 5.00211036,6.28223126 5.00211036,6.28223126 C5.00211036,6.28223126 8.47893567,5.93450009 9.21460297,5.23519306 C9.57948562,4.88834469 9.98834877,3.19375474 8.67070568,2.1609514 C7.35306258,1.12814806 4.25816385,0.72795582 3.64750138,0.939051632 C2.43589672,1.35788312 0.0189304947,2.70327882 0.0189304947,5.23519306 C0.0189304947,7.7671073 0.957293186,8.23098843 7.43960339,15.1966915 C9.35258699,17.2523283 16.0798936,23.2044435 22.6546556,32.5023608 C29.2294176,41.800278 31.4606584,46.6796163 37.0006432,52.4418698 C51.0476248,67.0524279 69.9924424,81.8459021 69.9924424,81.8459021" id="Path-467"></path>
                <path d="M67.1224243,87.14976 C67.1224243,87.14976 31.9021984,59.3831259 19.5215905,48.1589234 C7.14098268,36.934721 9.13790064,34.1189578 9.13790064,34.1189578 C9.13790064,34.1189578 11.1842323,33.1939893 11.4376773,32.712697 C11.6911223,32.2314048 11.4376773,29.7516803 11.4376773,29.7516803 C11.4376773,29.7516803 11.4376773,27.198731 7.73506838,27.198731 C4.03245945,27.198731 3.37259845,29.1767 3.37259845,29.1767 C3.37259845,29.1767 2.38852655,30.5433723 2.38852655,32.712697 C2.38852655,34.8820218 3.37259845,36.2535382 3.37259845,36.2535382 C3.37259845,36.2535382 9.89704513,43.8918798 16.4803568,49.8624541 C20.5549976,53.5578505 41.308341,69.5766153 52.5355646,79.2563696 C63.7627881,88.9361239 59.4921055,87.14976 59.4921055,87.14976 C59.4921055,87.14976 56.9435952,85.4980596 53.1646217,83.0882988 C44.379616,77.4863113 28.9448644,67.7875668 23.4194201,65.2191548 C21.7113463,64.4251848 10.2902782,63.747577 7.73506838,72.9019255 C5.17985857,82.056274 14.7476482,86.2984489 14.7476482,86.2984489 C14.7476482,86.2984489 17.6742481,87.4219927 19.5215905,86.5512356 C20.515501,86.0827493 21.5712961,84.1820596 21.1127619,82.4444444 C20.6542276,80.7068293 19.826394,79.2563696 18.6172561,79.2563696 C17.4081181,79.2563696 15.5180969,82.0929457 14.4489267,81.0667206 C14.0147702,80.6500027 11.2224793,77.3840153 11.4376773,74.4499613 C11.6528753,71.5159074 16.1869497,68.9220719 17.5381066,68.6216382 C20.2730041,68.0135257 25.9447172,71.5927491 27.5239448,72.3121443 C30.7645176,73.7883423 55.4576076,89.5867535 55.4576076,89.5867535" id="Path-468"></path>
            </g>
        </g>
    </g>
</svg>