<?xml version="1.0" encoding="UTF-8"?>
<svg width="152px" height="152px" viewBox="0 0 152 152" version="1.1" xmlns="http://www.w3.org/2000/svg" xmlns:xlink="http://www.w3.org/1999/xlink">
    <!-- Generator: Sketch 44.1 (41455) - http://www.bohemiancoding.com/sketch -->
    <title>walnut</title>
    <desc>Created with Sketch.</desc>
    <defs></defs>
    <g id="Page-1" stroke="none" stroke-width="1" fill="none" fill-rule="evenodd" stroke-linecap="round">
        <g id="walnut" stroke="#979797">
            <g id="Group" transform="translate(14.000000, 4.000000)">
                <path d="M58.2663771,83.6191275 C58.2663771,83.6191275 53.7581247,74.1453175 53.7581247,59.1390377 C53.7581247,44.1327578 61.8065015,22.9815713 61.8065015,22.9815713 C61.8065015,22.9815713 48.2670548,31.3340724 46.1282354,30.3786498 C43.9894161,29.4232272 44.2889055,18.9486547 44.2889055,18.9486547 C44.2889055,18.9486547 49.5462176,-12.369069 22.0692052,7.15150172 C-5.4078071,26.6720724 11.5204126,44.1327578 11.5204126,44.1327578 C11.5204126,44.1327578 13.9727724,47.102766 13.9727724,51.0404393 C13.9727724,54.9781126 -0.1075235,56.2995723 0.66827189,68.5898555 C1.44406728,80.8801386 10.9724798,80.166377 10.9724798,80.166377 C12.9587504,88.0120721 7.51424785,101.06084 9.74219169,107.995726 C11.9701355,114.930613 20.5269471,113.270132 20.5269471,113.270132 C20.5269471,113.270132 13.9727724,140.110652 38.073899,143.567352 C62.1750255,147.024052 56.6587957,124.980749 56.6587957,124.980749 C56.6587957,124.980749 55.1387679,114.518767 56.6587957,107.995726 C58.1788235,101.472686 61.8065015,101.06084 61.8065015,101.06084" id="Path-705" stroke-width="2" stroke-linejoin="round"></path>
                <path d="M119.966924,83.6191275 C119.966924,83.6191275 115.458672,74.1453175 115.458672,59.1390377 C115.458672,44.1327578 123.507049,22.9815713 123.507049,22.9815713 C123.507049,22.9815713 109.967602,31.3340724 107.828783,30.3786498 C105.689963,29.4232272 105.989453,18.9486547 105.989453,18.9486547 C105.989453,18.9486547 111.246765,-12.369069 83.7697526,7.15150172 C56.2927403,26.6720724 73.2209599,44.1327578 73.2209599,44.1327578 C73.2209599,44.1327578 75.6733198,47.102766 75.6733198,51.0404393 C75.6733198,54.9781126 61.5930239,56.2995723 62.3688193,68.5898555 C63.1446147,80.8801386 72.6730272,80.166377 72.6730272,80.166377 C74.6592978,88.0120721 69.2147952,101.06084 71.4427391,107.995726 C73.6706829,114.930613 82.2274945,113.270132 82.2274945,113.270132 C82.2274945,113.270132 75.6733198,140.110652 99.7744464,143.567352 C123.875573,147.024052 118.359343,124.980749 118.359343,124.980749 C118.359343,124.980749 116.839315,114.518767 118.359343,107.995726 C119.879371,101.472686 123.507049,101.06084 123.507049,101.06084" id="Path-705" stroke-width="2" stroke-linejoin="round" transform="translate(92.922474, 72.340243) scale(-1, 1) translate(-92.922474, -72.340243) "></path>
                <path d="M26.3609282,103.110645 C26.3609282,103.110645 19.8518747,97.3784968 22.3347181,90.2524926 C23.1266517,87.9795656 28.9667094,86.431894 30.1437549,85.2747936 C30.5468708,84.8785086 31.300034,79.9769747 34.8444611,77.4860411 C38.3888883,74.9951075 45.1404946,75.3010555 45.1404946,75.3010555" id="Path-706" stroke-width="1.6"></path>
                <path d="M83.1903798,103.110645 C83.1903798,103.110645 76.6813262,97.3784968 79.1641697,90.2524926 C79.9561032,87.9795656 85.7961609,86.431894 86.9732065,85.2747936 C87.3763224,84.8785086 88.1294855,79.9769747 91.6739127,77.4860411 C95.2183399,74.9951075 101.969946,75.3010555 101.969946,75.3010555" id="Path-706" stroke-width="1.6" transform="translate(90.284718, 89.199901) scale(-1, 1) translate(-90.284718, -89.199901) "></path>
            </g>
        </g>
    </g>
</svg>