<?xml version="1.0" encoding="UTF-8"?>
<svg width="152px" height="152px" viewBox="0 0 152 152" version="1.1" xmlns="http://www.w3.org/2000/svg" xmlns:xlink="http://www.w3.org/1999/xlink">
    <!-- Generator: Sketch 44.1 (41455) - http://www.bohemiancoding.com/sketch -->
    <title>sweetchilisauce</title>
    <desc>Created with Sketch.</desc>
    <defs></defs>
    <g id="Page-1" stroke="none" stroke-width="1" fill="none" fill-rule="evenodd">
        <g id="sweetchilisauce" stroke="#FF659B" stroke-width="2.2">
            <g id="Group" transform="translate(56.000000, 3.000000)">
                <path d="M21.4804474,0.189683278 C21.4804474,0.189683278 17.2805851,1.18327539 15.8001467,5.34529874 C14.3197083,9.50732208 14.0997,18.7025276 14.0997,18.7025276 C14.0997,18.7025276 11.4583273,19.5128991 10.6893973,20.1341181 C9.92046736,20.7553371 9.95713338,22.0493099 9.95713338,22.0493099 L9.18411856,38.0814617 C9.18411856,38.0814617 9.07015185,39.1936511 9.51984386,39.6370276 C9.96953587,40.0804041 11.9701064,40.8283229 11.9701064,40.8283229 L2.13709967,72.1593897 C2.13709967,72.1593897 1.54152517,73.8907878 1.40233186,74.6967564 C1.26313854,75.502725 1.16449306,77.7910568 1.16449306,77.7910568 L0.677728799,131.987174 C0.677728799,131.987174 0.790661794,137.457751 5.11346027,142.0178 C9.43625875,146.577848 20.8480227,145.968206 20.8480227,145.968206 L21.9801679,145.968206" id="Path-601"></path>
                <path d="M41.9419859,0.189683278 C41.9419859,0.189683278 37.7421236,1.18327539 36.2616852,5.34529874 C34.7812468,9.50732208 34.5612385,18.7025276 34.5612385,18.7025276 C34.5612385,18.7025276 31.9198657,19.5128991 31.1509358,20.1341181 C30.3820058,20.7553371 30.4186718,22.0493099 30.4186718,22.0493099 L29.645657,38.0814617 C29.645657,38.0814617 29.5316903,39.1936511 29.9813823,39.6370276 C30.4310743,40.0804041 32.4316449,40.8283229 32.4316449,40.8283229 L22.5986381,72.1593897 C22.5986381,72.1593897 22.0030636,73.8907878 21.8638703,74.6967564 C21.724677,75.502725 21.6260315,77.7910568 21.6260315,77.7910568 L21.1392673,131.987174 C21.1392673,131.987174 21.2522003,137.457751 25.5749987,142.0178 C29.8977972,146.577848 41.3095611,145.968206 41.3095611,145.968206" id="Path-601" transform="translate(31.540627, 73.092512) scale(-1, 1) translate(-31.540627, -73.092512) "></path>
                <path d="M14.0356323,18.6244965 C14.0356323,18.6244965 18.2378419,18.0280076 21.2488654,18.0280076 C24.2598889,18.0280076 28.4620985,18.6017451 28.4620985,18.6017451" id="Path-602"></path>
                <path d="M11.9278901,41.204444 L30.5385396,41.2044448" id="Path-603"></path>
                <path d="M1.40317474,79.2982787 C1.40317474,79.2982787 12.6674074,80.6827145 21.4080912,80.6827145 C30.148775,80.6827145 41.4130077,79.2982787 41.4130077,79.2982787" id="Path-604"></path>
                <path d="M0.942449211,128.337114 C0.942449211,128.337114 13.156146,130.384738 22.0017186,130.384738 C30.8472912,130.384738 41.8266475,128.337114 41.8266475,128.337114" id="Path-605"></path>
            </g>
        </g>
    </g>
</svg>