<?xml version="1.0" encoding="UTF-8"?>
<svg width="152px" height="152px" viewBox="0 0 152 152" version="1.1" xmlns="http://www.w3.org/2000/svg" xmlns:xlink="http://www.w3.org/1999/xlink">
    <!-- Generator: Sketch 44.1 (41455) - http://www.bohemiancoding.com/sketch -->
    <title>watermelon</title>
    <desc>Created with Sketch.</desc>
    <defs></defs>
    <g id="Page-1" stroke="none" stroke-width="1" fill="none" fill-rule="evenodd">
        <g id="watermelon" stroke="#FF659B">
            <g id="Group" transform="translate(5.000000, 36.000000)">
                <path d="M0.657957804,19.4377516 L141.477451,0.0361127394 C141.477451,0.0361127394 149.190169,71.9135438 80.1602991,79.4379135 C11.1304293,86.9622831 0.657957804,19.4377516 0.657957804,19.4377516 Z" id="Path-643" stroke-width="2"></path>
                <path d="M4.04737141,19.2740252 C4.04737141,19.2740252 18.203362,86.7479936 83.5078486,75.4675371 C148.812335,64.1870805 137.402447,0.502896545 137.402447,0.502896545" id="Path-644" stroke-width="2"></path>
                <path d="M26.0269334,16.3379664 C26.0269334,16.3379664 39.4705368,62.4881911 78.7083482,57.7570448 C117.946159,53.0258985 114.852336,4.2586253 114.852336,4.2586253" id="Path-645" stroke-width="2"></path>
                <path d="M50.8124992,20.2987013 L50.1984797,26.1021119 C50.1984797,26.1021119 49.8381121,28.9948989 52.3396915,28.4616831 C54.8412709,27.9284672 53.6684129,25.3963513 53.6684129,25.3963513 L50.8124992,20.2987013 Z" id="Path-646" stroke-width="1.6" stroke-linecap="round" stroke-linejoin="round"></path>
                <path d="M64.6921985,36.2727273 L64.078179,42.0761379 C64.078179,42.0761379 63.7178113,44.9689249 66.2193907,44.435709 C68.7209701,43.9024932 67.5481121,41.3703772 67.5481121,41.3703772 L64.6921985,36.2727273 Z" id="Path-646" stroke-width="1.6" stroke-linecap="round" stroke-linejoin="round"></path>
                <path d="M73.2335518,18.1688312 L72.6195323,23.9722418 C72.6195323,23.9722418 72.2591647,26.8650288 74.7607441,26.3318129 C77.2623235,25.7985971 76.0894655,23.2664811 76.0894655,23.2664811 L73.2335518,18.1688312 Z" id="Path-646" stroke-width="1.6" stroke-linecap="round" stroke-linejoin="round"></path>
                <path d="M88.1809203,32.012987 L87.5669008,37.8163976 C87.5669008,37.8163976 87.2065331,40.7091846 89.7081125,40.1759688 C92.2096919,39.6427529 91.0368339,37.110637 91.0368339,37.110637 L88.1809203,32.012987 Z" id="Path-646" stroke-width="1.6" stroke-linecap="round" stroke-linejoin="round"></path>
                <path d="M94.5869353,14.974026 L93.9729158,20.7774366 C93.9729158,20.7774366 93.6125482,23.6702236 96.1141276,23.1370078 C98.615707,22.6037919 97.442849,20.071676 97.442849,20.071676 L94.5869353,14.974026 Z" id="Path-646" stroke-width="1.6" stroke-linecap="round" stroke-linejoin="round"></path>
            </g>
        </g>
    </g>
</svg>