<?xml version="1.0" encoding="UTF-8"?>
<svg width="152px" height="152px" viewBox="0 0 152 152" version="1.1" xmlns="http://www.w3.org/2000/svg" xmlns:xlink="http://www.w3.org/1999/xlink">
    <!-- Generator: Sketch 44.1 (41455) - http://www.bohemiancoding.com/sketch -->
    <title>yoghurt</title>
    <desc>Created with Sketch.</desc>
    <defs></defs>
    <g id="Page-1" stroke="none" stroke-width="1" fill="none" fill-rule="evenodd">
        <g id="yoghurt" stroke="#446DB5">
            <g id="Group" transform="translate(26.000000, 11.000000)">
                <g id="Group-2" stroke-width="2.2">
                    <path d="M50.2426552,0.00187824629 L1.68249877,0.00187824629 C1.68249877,0.00187824629 1.00528797,-0.0787700061 0.502643984,0.816863347 C0,1.7124967 0,3.34730357 0,3.34730357 L0,8.03644098 L0,12.1133857 L1.68102303,12.1133857 L50.2986489,12.1133857" id="Path-245"></path>
                    <path d="M50.5718805,129.873933 L19.7750225,129.873933 C19.7750225,129.873933 15.9588593,130.269501 13.1170805,123.655834 C10.2753017,117.042167 9.78041212,106.079826 9.78041212,106.079826 L3.88349515,11.348756" id="Path-248"></path>
                </g>
                <g id="Group-2" transform="translate(74.500000, 65.000000) scale(-1, 1) translate(-74.500000, -65.000000) translate(49.000000, 0.000000)" stroke-width="2.2">
                    <path d="M50.2426552,0.00187824629 L1.68249877,0.00187824629 C1.68249877,0.00187824629 1.00528797,-0.0787700061 0.502643984,0.816863347 C9.23705556e-14,1.7124967 9.23705556e-14,3.34730357 9.23705556e-14,3.34730357 L9.23705556e-14,8.03644098 L9.23705556e-14,12.1133857 L1.68102303,12.1133857 L50.2986489,12.1133857" id="Path-245"></path>
                    <path d="M50.5718805,129.873933 L19.7750225,129.873933 C19.7750225,129.873933 15.9588593,130.269501 13.1170805,123.655834 C10.2753017,117.042167 9.78041212,106.079826 9.78041212,106.079826 L3.88349515,11.348756" id="Path-248"></path>
                </g>
                <path d="M6.348193,45.7670435 L27.6860328,45.7670435 C27.6860328,45.7670435 29.0198186,26.8804275 49.3688056,26.8804275 C69.7177927,26.8804275 73.0288533,45.7670435 73.0288533,45.7670435 L94.2241438,45.7670435 L90.7875941,99.6128229 L9.13091508,99.6128229 L6.348193,45.7670435 Z" id="Path-254" stroke-width="1.5"></path>
            </g>
        </g>
    </g>
</svg>