<?xml version="1.0" encoding="UTF-8"?>
<svg width="152px" height="152px" viewBox="0 0 152 152" version="1.1" xmlns="http://www.w3.org/2000/svg" xmlns:xlink="http://www.w3.org/1999/xlink">
    <!-- Generator: Sketch 44.1 (41455) - http://www.bohemiancoding.com/sketch -->
    <title>blackberry</title>
    <desc>Created with Sketch.</desc>
    <defs></defs>
    <g id="Page-1" stroke="none" stroke-width="1" fill="none" fill-rule="evenodd">
        <g id="blackberry" stroke="#A8104C" stroke-width="2">
            <g id="Group" transform="translate(109.000000, 53.500000) rotate(5.000000) translate(-109.000000, -53.500000) translate(78.000000, 9.000000)">
                <path d="M12.8615664,41.6478787 C12.7248724,40.9497408 12.6530612,40.2266555 12.6530612,39.4859155 C12.6530612,33.6013604 17.185036,28.8309859 22.7755102,28.8309859 C26.1634418,28.8309859 29.1626304,30.582947 31,33.2731262 C29.8054999,35.0220501 29.1020408,37.1675105 29.1020408,39.4859155 C29.1020408,41.053092 29.4234779,42.5412435 30.0007411,43.8813076 C27.7113823,43.9822325 25.6156406,45.02463 23.9583262,46.7053379 C22.2096914,43.5141343 18.9349855,41.3661972 15.1836735,41.3661972 C14.3846334,41.3661972 13.607217,41.4636495 12.8615664,41.6478787 Z" id="Combined-Shape"></path>
                <path d="M32.871203,68.5572275 C33.1381268,68.4731186 33.4008145,68.3758743 33.6587911,68.266083 C33.9074352,68.3560296 34.1517028,68.4558835 34.3911684,68.5651968 C34.2418782,69.2932169 34.1632653,70.0489168 34.1632653,70.8239437 C34.1632653,75.2033863 36.673405,78.965714 40.2618928,80.6038173 C39.2776651,85.4034441 35.2215263,89 30.3673469,89 C25.6640798,89 21.7100037,85.6235955 20.5734364,81.0479056 C24.771651,79.7491862 27.8367347,75.6633385 27.8367347,70.8239437 C27.8367347,70.013365 27.7507442,69.2239271 27.5878416,68.4651857 C27.8086328,68.5430944 28.0325035,68.6119536 28.2591755,68.6714186 C28.9391885,68.8498133 29.6444175,68.943662 30.3673469,68.943662 C31.2315367,68.943662 32.0704327,68.809554 32.8712046,68.557227 Z" id="Combined-Shape"></path>
                <path d="M39.8443409,60.8226487 C40.2615587,59.4496725 40.4897959,57.9620686 40.4897959,56.4084507 C40.4897959,52.4970945 39.0431815,49.0041483 36.7763677,46.7053379 C38.5250025,43.5141343 41.7997083,41.3661972 45.5510204,41.3661972 C51.1414946,41.3661972 55.6734694,46.1365716 55.6734694,52.0211268 C55.6734694,56.3772749 53.1899618,60.1228555 49.6320123,61.7746808 C52.0728613,60.6414843 54.0080426,58.5228976 54.9826157,55.897793 C55.9079456,55.5842176 56.7751387,55.1342578 57.5628251,54.5704079 C58.7625502,56.3216185 59.4693878,58.471809 59.4693878,60.7957746 C59.4693878,64.751268 57.4217104,68.2033423 54.3812897,70.0415698 C54.1406018,66.5506685 52.3021143,63.526209 49.6320123,61.7746808 C48.3836629,62.3542436 47.0030452,62.6760563 45.5510204,62.6760563 C43.4341689,62.6760563 41.4690833,61.9920881 39.8443409,60.8226487 Z M39.8443409,60.8226487 C39.9626866,60.9078303 40.082838,60.9904362 40.2047223,61.0703896 C40.0265178,61.1531235 39.8510086,61.2411098 39.6783718,61.3341622 C39.7366207,61.1655279 39.7919696,60.9949914 39.8443409,60.8226487 Z" id="Combined-Shape"></path>
                <path d="M55.4953044,54.0218167 C55.378345,54.6698405 55.2056315,55.2970787 54.9826157,55.897793 C59.0540731,54.5180592 62,50.4979165 62,45.7535211 C62,39.868966 57.4680252,35.0985915 51.877551,35.0985915 C50.7561832,35.0985915 49.6774035,35.2905253 48.6692447,35.6448857 C49.1069299,36.8365168 49.3469388,38.1317132 49.3469388,39.4859155 C49.3469388,40.3602323 49.2468932,41.209953 49.0581949,42.0230855 C50.9891405,42.7738336 52.6429591,44.1266612 53.8140413,45.8651432 C54.9851236,47.6036252 55.6734694,49.7277615 55.6734694,52.0211268 C55.6734694,52.7049835 55.6122639,53.3737929 55.4953044,54.0218167 Z" id="Combined-Shape"></path>
                <path d="M49.6320123,61.7746808 C52.4997163,63.6558316 54.4081633,67.0052929 54.4081633,70.8239437 C54.4081633,76.7084988 49.8761885,81.4788732 44.2857143,81.4788732 C38.6952401,81.4788732 34.1632653,76.7084988 34.1632653,70.8239437 C34.1632653,69.7786351 34.3062696,68.768484 34.5728087,67.8139841 C36.8587318,66.5193222 38.6878509,64.2017823 39.6783718,61.3341622 C39.8510086,61.2411098 40.0265178,61.1531235 40.2047223,61.0703896 C41.7561609,62.0880993 43.5883597,62.6760563 45.5510204,62.6760563 C47.0030452,62.6760563 48.3836629,62.3542436 49.6320123,61.7746808 Z" id="Combined-Shape"></path>
                <path d="M39.8443409,60.8226487 C41.4690833,61.9920881 43.4341689,62.6760563 45.5510204,62.6760563 C51.1414946,62.6760563 55.6734694,57.9056819 55.6734694,52.0211268 C55.6734694,46.1365716 51.1414946,41.3661972 45.5510204,41.3661972 C41.7997083,41.3661972 38.5250025,43.5141343 36.7763677,46.7053379 C39.0431815,49.0041483 40.4897959,52.4970945 40.4897959,56.4084507 C40.4897959,57.9620686 40.2615587,59.4496725 39.8443409,60.8226487 Z" id="Combined-Shape"></path>
                <path d="M24.7743862,45.9588141 C22.947093,43.1836736 19.8996764,41.3661972 16.4489796,41.3661972 C10.8585054,41.3661972 6.32653061,46.1365716 6.32653061,52.0211268 C6.32653061,56.3772749 8.81003817,60.1228555 12.3679877,61.7746808 C9.69788573,63.526209 7.85939825,66.5506685 7.61871033,70.0415698 C4.5782896,68.2033423 2.53061224,64.751268 2.53061224,60.7957746 C2.53061224,58.471809 3.23744982,56.3216185 4.43717489,54.5704079 C5.22486125,55.1342578 6.09205443,55.5842176 7.01738435,55.897793 C7.99195743,58.5228976 9.9271387,60.6414843 12.3679877,61.7746808 C13.6163371,62.3542436 14.9969548,62.6760563 16.4489796,62.6760563 C18.1292061,62.6760563 19.713817,62.2451421 21.1085101,61.4825764 C20.5533247,59.9313202 20.244898,58.2144892 20.244898,56.4084507 C20.244898,52.0459992 22.0444288,48.2040329 24.7743862,45.9588141 Z" id="Combined-Shape"></path>
                <path d="M6.82605977,54.0218167 C6.7091003,54.6698405 6.53638687,55.2970787 6.313371,55.897793 C10.3848285,54.5180592 13.3307553,50.4979165 13.3307553,45.7535211 C13.3307553,39.868966 8.79878057,35.0985915 3.20830637,35.0985915 C2.0869385,35.0985915 1.00815886,35.2905253 -2.09610107e-13,35.6448857 C0.437685248,36.8365168 0.677694123,38.1317132 0.677694123,39.4859155 C0.677694123,40.3602323 0.57764856,41.209953 0.388950215,42.0230855 C2.31989582,42.7738336 3.97371445,44.1266612 5.14479668,45.8651432 C6.31587891,47.6036252 7.00422474,49.7277615 7.00422474,52.0211268 C7.00422474,52.7049835 6.94301923,53.3737929 6.82605977,54.0218167 Z" id="Combined-Shape" transform="translate(6.665378, 45.498192) scale(-1, 1) translate(-6.665378, -45.498192) "></path>
                <path d="M27.5878416,68.4651857 C27.7507442,69.2239271 27.8367347,70.013365 27.8367347,70.8239437 C27.8367347,76.7084988 23.3047599,81.4788732 17.7142857,81.4788732 C12.1238115,81.4788732 7.59183673,76.7084988 7.59183673,70.8239437 C7.59183673,67.0052929 9.50028369,63.6558316 12.3679877,61.7746808 C13.6163371,62.3542436 14.9969548,62.6760563 16.4489796,62.6760563 C18.1292061,62.6760563 19.713817,62.2451421 21.1085101,61.4825764 C22.3145554,64.8524155 24.6850578,67.4409052 27.5878416,68.4651857 Z" id="Combined-Shape"></path>
                <path d="M24.7743862,45.9588141 C22.947093,43.1836736 19.8996764,41.3661972 16.4489796,41.3661972 C10.8585054,41.3661972 6.32653061,46.1365716 6.32653061,52.0211268 C6.32653061,57.9056819 10.8585054,62.6760563 16.4489796,62.6760563 C18.1292061,62.6760563 19.713817,62.2451421 21.1085101,61.4825764 C20.5533247,59.9313202 20.244898,58.2144892 20.244898,56.4084507 C20.244898,52.0459992 22.0444288,48.2040329 24.7743862,45.9588141 Z" id="Combined-Shape"></path>
                <path d="M30.1836477,43.8752622 C30.1225452,43.8766088 30.0615748,43.8786258 30.0007411,43.8813076 C29.4234783,42.5412454 29.1020408,41.053093 29.1020408,39.4859155 C29.1020408,33.6013604 33.6340156,28.8309859 39.2244898,28.8309859 C44.814964,28.8309859 49.3469388,33.6013604 49.3469388,39.4859155 C49.3469388,40.3602323 49.2468932,41.209953 49.0581949,42.0230855 C47.9654651,41.5982341 46.7839861,41.3661972 45.5510204,41.3661972 C41.7997083,41.3661972 38.5250025,43.5141343 36.7763677,46.7053379 C35.0309757,44.9353093 32.7993181,43.8732394 30.3673469,43.8732394 C30.3059848,43.8732394 30.2447502,43.8739156 30.1836477,43.8752622 C30.2447495,43.8739156 30.3059844,43.8732394 30.3673469,43.8732394 C35.9578211,43.8732394 40.4897959,49.4854447 40.4897959,56.4084507 C40.4897959,63.3314567 35.9578211,68.943662 30.3673469,68.943662 C24.7768727,68.943662 20.244898,63.3314567 20.244898,56.4084507 C20.244898,49.5614334 24.6779305,43.9965994 30.1836466,43.8752622 Z" id="Combined-Shape"></path>
                <ellipse id="Oval" cx="30.3673469" cy="56.4084507" rx="10.122449" ry="12.5352113"></ellipse>
                <ellipse id="Oval" cx="30.3673469" cy="56.4084507" rx="10.122449" ry="12.5352113"></ellipse>
                <path d="M10.3530157,35.131263 C10.3530157,35.131263 7.65930191,32.2641592 6.19745095,28.710078 C4.73559998,25.1559967 4.83986637,18.4120225 4.83986637,18.4120225 C4.83986637,18.4120225 10.8586671,19.1143811 13.4862429,20.281901 C16.1138187,21.4494209 19.559569,23.6949833 19.559569,23.6949833 C19.559569,23.6949833 20.4951428,18.0017181 24.2683243,11.2524676 C28.0415059,4.50321707 33.4626971,0 33.4626971,0 C33.4626971,0 40.1492682,6.39373127 41.5433917,11.9365705 C42.9375152,17.4794097 43.4826682,25.0935323 43.4826682,25.0935323 C43.4826682,25.0935323 44.2234921,24.8576797 48.2542542,22.3565028 C52.2850163,19.8553259 58.4036708,19.552114 58.4036708,19.552114 C58.4036708,19.552114 59.5560592,22.2424231 58.4036708,28.5138068 C57.2512823,34.7851904 55.8475318,35.888787 55.8475318,35.888787" id="Path-661"></path>
            </g>
            <g id="Group" transform="translate(41.000000, 97.500000) scale(-1, 1) rotate(5.000000) translate(-41.000000, -97.500000) translate(10.000000, 53.000000)">
                <path d="M12.8615664,41.6478787 C12.7248724,40.9497408 12.6530612,40.2266555 12.6530612,39.4859155 C12.6530612,33.6013604 17.185036,28.8309859 22.7755102,28.8309859 C26.1634418,28.8309859 29.1626304,30.582947 31,33.2731262 C29.8054999,35.0220501 29.1020408,37.1675105 29.1020408,39.4859155 C29.1020408,41.053092 29.4234779,42.5412435 30.0007411,43.8813076 C27.7113823,43.9822325 25.6156406,45.02463 23.9583262,46.7053379 C22.2096914,43.5141343 18.9349855,41.3661972 15.1836735,41.3661972 C14.3846334,41.3661972 13.607217,41.4636495 12.8615664,41.6478787 Z" id="Combined-Shape"></path>
                <path d="M32.871203,68.5572275 C33.1381268,68.4731186 33.4008145,68.3758743 33.6587911,68.266083 C33.9074352,68.3560296 34.1517028,68.4558835 34.3911684,68.5651968 C34.2418782,69.2932169 34.1632653,70.0489168 34.1632653,70.8239437 C34.1632653,75.2033863 36.673405,78.965714 40.2618928,80.6038173 C39.2776651,85.4034441 35.2215263,89 30.3673469,89 C25.6640798,89 21.7100037,85.6235955 20.5734364,81.0479056 C24.771651,79.7491862 27.8367347,75.6633385 27.8367347,70.8239437 C27.8367347,70.013365 27.7507442,69.2239271 27.5878416,68.4651857 C27.8086328,68.5430944 28.0325035,68.6119536 28.2591755,68.6714186 C28.9391885,68.8498133 29.6444175,68.943662 30.3673469,68.943662 C31.2315367,68.943662 32.0704327,68.809554 32.8712046,68.557227 Z" id="Combined-Shape"></path>
                <path d="M39.8443409,60.8226487 C40.2615587,59.4496725 40.4897959,57.9620686 40.4897959,56.4084507 C40.4897959,52.4970945 39.0431815,49.0041483 36.7763677,46.7053379 C38.5250025,43.5141343 41.7997083,41.3661972 45.5510204,41.3661972 C51.1414946,41.3661972 55.6734694,46.1365716 55.6734694,52.0211268 C55.6734694,56.3772749 53.1899618,60.1228555 49.6320123,61.7746808 C52.0728613,60.6414843 54.0080426,58.5228976 54.9826157,55.897793 C55.9079456,55.5842176 56.7751387,55.1342578 57.5628251,54.5704079 C58.7625502,56.3216185 59.4693878,58.471809 59.4693878,60.7957746 C59.4693878,64.751268 57.4217104,68.2033423 54.3812897,70.0415698 C54.1406018,66.5506685 52.3021143,63.526209 49.6320123,61.7746808 C48.3836629,62.3542436 47.0030452,62.6760563 45.5510204,62.6760563 C43.4341689,62.6760563 41.4690833,61.9920881 39.8443409,60.8226487 Z M39.8443409,60.8226487 C39.9626866,60.9078303 40.082838,60.9904362 40.2047223,61.0703896 C40.0265178,61.1531235 39.8510086,61.2411098 39.6783718,61.3341622 C39.7366207,61.1655279 39.7919696,60.9949914 39.8443409,60.8226487 Z" id="Combined-Shape"></path>
                <path d="M55.4953044,54.0218167 C55.378345,54.6698405 55.2056315,55.2970787 54.9826157,55.897793 C59.0540731,54.5180592 62,50.4979165 62,45.7535211 C62,39.868966 57.4680252,35.0985915 51.877551,35.0985915 C50.7561832,35.0985915 49.6774035,35.2905253 48.6692447,35.6448857 C49.1069299,36.8365168 49.3469388,38.1317132 49.3469388,39.4859155 C49.3469388,40.3602323 49.2468932,41.209953 49.0581949,42.0230855 C50.9891405,42.7738336 52.6429591,44.1266612 53.8140413,45.8651432 C54.9851236,47.6036252 55.6734694,49.7277615 55.6734694,52.0211268 C55.6734694,52.7049835 55.6122639,53.3737929 55.4953044,54.0218167 Z" id="Combined-Shape"></path>
                <path d="M49.6320123,61.7746808 C52.4997163,63.6558316 54.4081633,67.0052929 54.4081633,70.8239437 C54.4081633,76.7084988 49.8761885,81.4788732 44.2857143,81.4788732 C38.6952401,81.4788732 34.1632653,76.7084988 34.1632653,70.8239437 C34.1632653,69.7786351 34.3062696,68.768484 34.5728087,67.8139841 C36.8587318,66.5193222 38.6878509,64.2017823 39.6783718,61.3341622 C39.8510086,61.2411098 40.0265178,61.1531235 40.2047223,61.0703896 C41.7561609,62.0880993 43.5883597,62.6760563 45.5510204,62.6760563 C47.0030452,62.6760563 48.3836629,62.3542436 49.6320123,61.7746808 Z" id="Combined-Shape"></path>
                <path d="M39.8443409,60.8226487 C41.4690833,61.9920881 43.4341689,62.6760563 45.5510204,62.6760563 C51.1414946,62.6760563 55.6734694,57.9056819 55.6734694,52.0211268 C55.6734694,46.1365716 51.1414946,41.3661972 45.5510204,41.3661972 C41.7997083,41.3661972 38.5250025,43.5141343 36.7763677,46.7053379 C39.0431815,49.0041483 40.4897959,52.4970945 40.4897959,56.4084507 C40.4897959,57.9620686 40.2615587,59.4496725 39.8443409,60.8226487 Z" id="Combined-Shape"></path>
                <path d="M24.7743862,45.9588141 C22.947093,43.1836736 19.8996764,41.3661972 16.4489796,41.3661972 C10.8585054,41.3661972 6.32653061,46.1365716 6.32653061,52.0211268 C6.32653061,56.3772749 8.81003817,60.1228555 12.3679877,61.7746808 C9.69788573,63.526209 7.85939825,66.5506685 7.61871033,70.0415698 C4.5782896,68.2033423 2.53061224,64.751268 2.53061224,60.7957746 C2.53061224,58.471809 3.23744982,56.3216185 4.43717489,54.5704079 C5.22486125,55.1342578 6.09205443,55.5842176 7.01738435,55.897793 C7.99195743,58.5228976 9.9271387,60.6414843 12.3679877,61.7746808 C13.6163371,62.3542436 14.9969548,62.6760563 16.4489796,62.6760563 C18.1292061,62.6760563 19.713817,62.2451421 21.1085101,61.4825764 C20.5533247,59.9313202 20.244898,58.2144892 20.244898,56.4084507 C20.244898,52.0459992 22.0444288,48.2040329 24.7743862,45.9588141 Z" id="Combined-Shape"></path>
                <path d="M6.82605977,54.0218167 C6.7091003,54.6698405 6.53638687,55.2970787 6.313371,55.897793 C10.3848285,54.5180592 13.3307553,50.4979165 13.3307553,45.7535211 C13.3307553,39.868966 8.79878057,35.0985915 3.20830637,35.0985915 C2.0869385,35.0985915 1.00815886,35.2905253 -2.09610107e-13,35.6448857 C0.437685248,36.8365168 0.677694123,38.1317132 0.677694123,39.4859155 C0.677694123,40.3602323 0.57764856,41.209953 0.388950215,42.0230855 C2.31989582,42.7738336 3.97371445,44.1266612 5.14479668,45.8651432 C6.31587891,47.6036252 7.00422474,49.7277615 7.00422474,52.0211268 C7.00422474,52.7049835 6.94301923,53.3737929 6.82605977,54.0218167 Z" id="Combined-Shape" transform="translate(6.665378, 45.498192) scale(-1, 1) translate(-6.665378, -45.498192) "></path>
                <path d="M27.5878416,68.4651857 C27.7507442,69.2239271 27.8367347,70.013365 27.8367347,70.8239437 C27.8367347,76.7084988 23.3047599,81.4788732 17.7142857,81.4788732 C12.1238115,81.4788732 7.59183673,76.7084988 7.59183673,70.8239437 C7.59183673,67.0052929 9.50028369,63.6558316 12.3679877,61.7746808 C13.6163371,62.3542436 14.9969548,62.6760563 16.4489796,62.6760563 C18.1292061,62.6760563 19.713817,62.2451421 21.1085101,61.4825764 C22.3145554,64.8524155 24.6850578,67.4409052 27.5878416,68.4651857 Z" id="Combined-Shape"></path>
                <path d="M24.7743862,45.9588141 C22.947093,43.1836736 19.8996764,41.3661972 16.4489796,41.3661972 C10.8585054,41.3661972 6.32653061,46.1365716 6.32653061,52.0211268 C6.32653061,57.9056819 10.8585054,62.6760563 16.4489796,62.6760563 C18.1292061,62.6760563 19.713817,62.2451421 21.1085101,61.4825764 C20.5533247,59.9313202 20.244898,58.2144892 20.244898,56.4084507 C20.244898,52.0459992 22.0444288,48.2040329 24.7743862,45.9588141 Z" id="Combined-Shape"></path>
                <path d="M30.1836477,43.8752622 C30.1225452,43.8766088 30.0615748,43.8786258 30.0007411,43.8813076 C29.4234783,42.5412454 29.1020408,41.053093 29.1020408,39.4859155 C29.1020408,33.6013604 33.6340156,28.8309859 39.2244898,28.8309859 C44.814964,28.8309859 49.3469388,33.6013604 49.3469388,39.4859155 C49.3469388,40.3602323 49.2468932,41.209953 49.0581949,42.0230855 C47.9654651,41.5982341 46.7839861,41.3661972 45.5510204,41.3661972 C41.7997083,41.3661972 38.5250025,43.5141343 36.7763677,46.7053379 C35.0309757,44.9353093 32.7993181,43.8732394 30.3673469,43.8732394 C30.3059848,43.8732394 30.2447502,43.8739156 30.1836477,43.8752622 C30.2447495,43.8739156 30.3059844,43.8732394 30.3673469,43.8732394 C35.9578211,43.8732394 40.4897959,49.4854447 40.4897959,56.4084507 C40.4897959,63.3314567 35.9578211,68.943662 30.3673469,68.943662 C24.7768727,68.943662 20.244898,63.3314567 20.244898,56.4084507 C20.244898,49.5614334 24.6779305,43.9965994 30.1836466,43.8752622 Z" id="Combined-Shape"></path>
                <ellipse id="Oval" cx="30.3673469" cy="56.4084507" rx="10.122449" ry="12.5352113"></ellipse>
                <ellipse id="Oval" cx="30.3673469" cy="56.4084507" rx="10.122449" ry="12.5352113"></ellipse>
                <path d="M10.3530157,35.131263 C10.3530157,35.131263 7.65930191,32.2641592 6.19745095,28.710078 C4.73559998,25.1559967 4.83986637,18.4120225 4.83986637,18.4120225 C4.83986637,18.4120225 10.8586671,19.1143811 13.4862429,20.281901 C16.1138187,21.4494209 19.559569,23.6949833 19.559569,23.6949833 C19.559569,23.6949833 20.4951428,18.0017181 24.2683243,11.2524676 C28.0415059,4.50321707 33.4626971,0 33.4626971,0 C33.4626971,0 40.1492682,6.39373127 41.5433917,11.9365705 C42.9375152,17.4794097 43.4826682,25.0935323 43.4826682,25.0935323 C43.4826682,25.0935323 44.2234921,24.8576797 48.2542542,22.3565028 C52.2850163,19.8553259 58.4036708,19.552114 58.4036708,19.552114 C58.4036708,19.552114 59.5560592,22.2424231 58.4036708,28.5138068 C57.2512823,34.7851904 55.8475318,35.888787 55.8475318,35.888787" id="Path-661"></path>
            </g>
        </g>
    </g>
</svg>