<?xml version="1.0" encoding="UTF-8"?>
<svg width="152px" height="152px" viewBox="0 0 152 152" version="1.1" xmlns="http://www.w3.org/2000/svg" xmlns:xlink="http://www.w3.org/1999/xlink">
    <!-- Generator: Sketch 44.1 (41455) - http://www.bohemiancoding.com/sketch -->
    <title>almond</title>
    <desc>Created with Sketch.</desc>
    <defs></defs>
    <g id="Page-1" stroke="none" stroke-width="1" fill="none" fill-rule="evenodd">
        <g id="almond" stroke="#979797">
            <g id="Group" transform="translate(43.800947, 96.253550) rotate(20.000000) translate(-43.800947, -96.253550) translate(13.728360, 45.352924)">
                <path d="M0.0341976599,67.6425775 C0.0341976599,67.6425775 -0.677739845,100.970745 29.3668835,101.078993 C59.4115069,101.18724 59.6275778,67.6425775 59.6275778,67.6425775 C59.6275778,67.6425775 60.4650302,52.2742738 55.0245995,37.0397528 C49.5841687,21.8052318 33.6119714,-8.52651283e-14 30.4409031,-8.52651283e-14 C25.1103169,-8.52651283e-14 10.2563981,20.8355207 4.77196838,37.0397528 C-0.712461349,53.243985 0.0341976599,67.6425775 0.0341976599,67.6425775 Z" id="Path-680" stroke-width="2"></path>
                <path d="M19.7601419,92.0019682 C19.7601419,92.0019682 17.9383258,91.27711 16.3893145,86.4631618 C14.8403033,81.6492137 16.1746171,78.3801511 15.5261829,75.2270076 C14.7037653,71.2278343 13.2295212,68.0262446 12.896628,62.4288786 C12.7278504,59.5910023 15.1613691,54.8654983 15.5261829,51.8092263 C15.6261425,50.9718026 14.4127508,44.5863507 15.5261829,40.4579897 C16.0363432,38.5664277 19.9253081,35.4352994 22.118394,30.0120113 C23.0472342,27.7150798 22.7671809,23.9977203 23.3467967,21.2370814 C23.9264125,18.4764424 26.0958662,15.9064454 26.0958662,15.9064454" id="Path-681" stroke-width="1.5" stroke-linecap="round"></path>
                <path d="M41.240561,91.9169563 C41.240561,91.9169563 39.4187449,91.1920981 37.8697337,86.3781499 C36.3207225,81.5642017 37.6550363,78.2951392 37.006602,75.1419957 C36.1841844,71.1428224 34.7099403,67.9412327 34.3770471,62.3438667 C34.2082696,59.5059903 36.6417883,54.7804864 37.006602,51.7242144 C37.1065616,50.8867907 35.8931699,44.5013388 37.006602,40.3729778 C37.5167623,38.4814158 41.4057273,35.3502875 43.5988132,29.9269993 C44.5276534,27.6300679 44.2476001,23.9127084 44.8272159,21.1520695 C45.4068317,18.3914305 47.1020093,14.8460157 47.1020093,14.8460157" id="Path-681" stroke-width="1.5" stroke-linecap="round" transform="translate(40.735340, 53.381486) scale(-1, 1) translate(-40.735340, -53.381486) "></path>
                <path d="M29.2990435,80.5477653 C29.2990435,80.5477653 31.276002,76.4255798 30.1915743,72.4787428 C29.1071465,68.5319058 28.1421805,66.3159062 27.9394154,64.2529333 C27.7906988,62.7398607 29.59246,57.613002 30.1915743,53.8715684 C30.5511622,51.6259628 27.6949284,47.6133245 27.9394154,45.5330571 C28.1839023,43.4527898 30.1915743,38.175469 30.1915743,38.175469" id="Path-682" stroke-width="1.5" stroke-linecap="round"></path>
            </g>
            <g id="Group" transform="translate(114.613672, 58.337274) scale(1, -1) rotate(10.000000) translate(-114.613672, -58.337274) translate(84.541085, 7.132921)">
                <path d="M0.0341976599,68.0462054 C0.0341976599,68.0462054 -0.677739845,101.573244 29.3668835,101.682138 C59.4115069,101.791032 59.6275778,68.0462054 59.6275778,68.0462054 C59.6275778,68.0462054 60.4650302,52.586198 55.0245995,37.2607715 C49.5841687,21.9353451 33.6119714,-8.52651283e-14 30.4409031,-8.52651283e-14 C25.1103169,-8.52651283e-14 10.2563981,20.9598476 4.77196838,37.2607715 C-0.712461349,53.5616955 0.0341976599,68.0462054 0.0341976599,68.0462054 Z" id="Path-680" stroke-width="2"></path>
                <path d="M19.7601419,92.5509503 C19.7601419,92.5509503 17.9383258,91.8217668 16.3893145,86.9790934 C14.8403033,82.1364201 16.1746171,78.8478508 15.5261829,75.6758923 C14.7037653,71.6528557 13.2295212,68.4321618 12.896628,62.801396 C12.7278504,59.9465859 15.1613691,55.1928845 15.5261829,52.1183755 C15.6261425,51.2759549 14.4127508,44.8524005 15.5261829,40.6994053 C16.0363432,38.7965562 19.9253081,35.6467443 22.118394,30.191095 C23.0472342,27.8804576 22.7671809,24.1409164 23.3467967,21.3638045 C23.9264125,18.5866926 26.0958662,16.0013603 26.0958662,16.0013603" id="Path-681" stroke-width="1.5" stroke-linecap="round"></path>
                <path d="M41.240561,92.4654311 C41.240561,92.4654311 39.4187449,91.7362476 37.8697337,86.8935742 C36.3207225,82.0509009 37.6550363,78.7623316 37.006602,75.5903731 C36.1841844,71.5673365 34.7099403,68.3466426 34.3770471,62.7158768 C34.2082696,59.8610667 36.6417883,55.1073653 37.006602,52.0328563 C37.1065616,51.1904357 35.8931699,44.7668813 37.006602,40.6138861 C37.5167623,38.711037 41.4057273,35.5612251 43.5988132,30.1055758 C44.5276534,27.7949384 44.2476001,24.0553972 44.8272159,21.2782853 C45.4068317,18.5011734 47.1020093,14.9346029 47.1020093,14.9346029" id="Path-681" stroke-width="1.5" stroke-linecap="round" transform="translate(40.735340, 53.700017) scale(-1, 1) translate(-40.735340, -53.700017) "></path>
                <path d="M29.2990435,81.0283993 C29.2990435,81.0283993 31.276002,76.8816165 30.1915743,72.9112284 C29.1071465,68.9408403 28.1421805,66.7116177 27.9394154,64.6363349 C27.7906988,63.1142337 29.59246,57.9567827 30.1915743,54.1930238 C30.5511622,51.9340184 27.6949284,47.8974365 27.9394154,45.804756 C28.1839023,43.7120755 30.1915743,38.4032647 30.1915743,38.4032647" id="Path-682" stroke-width="1.5" stroke-linecap="round"></path>
            </g>
        </g>
    </g>
</svg>