<?xml version="1.0" encoding="UTF-8"?>
<svg width="152px" height="152px" viewBox="0 0 152 152" version="1.1" xmlns="http://www.w3.org/2000/svg" xmlns:xlink="http://www.w3.org/1999/xlink">
    <!-- Generator: Sketch 44.1 (41455) - http://www.bohemiancoding.com/sketch -->
    <title>bread</title>
    <desc>Created with Sketch.</desc>
    <defs></defs>
    <g id="Page-1" stroke="none" stroke-width="1" fill="none" fill-rule="evenodd">
        <g id="bread" stroke="#AD5D11" stroke-width="2">
            <g id="Group" transform="translate(15.000000, 9.000000)">
                <path d="M0.499920888,38.4605582 C0.499920888,43.8684317 6.81292675,55.4205045 6.81292675,55.4205045 L7.11640656,115.087787 C7.11640656,115.087787 7.12819822,126.626593 9.08352927,130.249768 C11.0388603,133.872942 17.3811028,134.107986 17.3811028,134.107986 L98.7403564,134.107986 C98.7403564,134.107986 105.228425,133.856155 107.166301,130.249768 C109.104177,126.64338 109.376126,114.314815 109.376126,114.314815 L108.945863,53.2388629 C108.945863,53.2388629 115.68837,38.5123986 115.68837,34.129223 C115.68837,30.650492 116.747312,7.35653968 58.0775339,7.35653968 C-0.59224424,7.35653968 0.499920888,33.0235477 0.499920888,38.4605582 Z" id="Path-641"></path>
                <ellipse id="Oval" cx="21.0995298" cy="42.3429988" rx="3.00987461" ry="2.04852764"></ellipse>
                <ellipse id="Oval-2" cx="60.0456113" cy="108.125751" rx="4.95438871" ry="4.77989784"></ellipse>
                <ellipse id="Oval-3" cx="85.0098746" cy="78.7635216" rx="3.00987461" ry="2.73137019"></ellipse>
                <path d="M16.149085,14.6313061 C16.149085,14.6313061 27.4017601,0.322441401 63.7165859,0.322441401 C100.031412,0.322441401 114.806423,14.6313061 114.806423,14.6313061 C114.806423,14.6313061 122.151336,20.8426126 121.648853,30.585251 C121.146371,40.3278894 115.872252,48.9392929 115.872252,48.9392929 L115.872252,117.657658 C115.872252,117.657658 115.361949,122.301208 112.791898,124.437326 C110.221847,126.573444 107.788868,126.923706 107.788868,126.923706" id="Path-642"></path>
            </g>
        </g>
    </g>
</svg>