<?xml version="1.0" encoding="UTF-8"?>
<svg width="152px" height="152px" viewBox="0 0 152 152" version="1.1" xmlns="http://www.w3.org/2000/svg" xmlns:xlink="http://www.w3.org/1999/xlink">
    <!-- Generator: Sketch 44.1 (41455) - http://www.bohemiancoding.com/sketch -->
    <title>brie</title>
    <desc>Created with Sketch.</desc>
    <defs></defs>
    <g id="Page-1" stroke="none" stroke-width="1" fill="none" fill-rule="evenodd">
        <g id="brie" stroke="#FF9677">
            <g id="Group" transform="translate(3.000000, 37.000000)">
                <path d="M5.6391399,52.0046294 C5.6391399,52.0046294 9.0351789,46.0818696 10.3774124,43.8918189 C11.7196458,41.7017682 12.7583667,40.3885668 12.7583667,40.3885668 C12.7583667,40.3885668 19.8244594,31.6124203 24.287607,26.7955097 C28.7507546,21.9785992 43.905529,6.77258371 43.905529,6.77258371 C43.905529,6.77258371 50.3797774,1.58371669 54.3727225,0.643765682 C58.3656677,-0.296185322 67.4212115,1.23692304 67.4212115,1.23692304 C67.4212115,1.23692304 95.498992,5.91020627 108.448808,9.74713644 C121.398624,13.5840666 143.109353,22.2010774 143.109353,22.2010774 C143.109353,22.2010774 145.024329,23.2152499 145.705309,26.7955097 C146.38629,30.3757695 146.197534,38.8924969 145.705309,41.793512 C145.052463,45.6411829 143.114941,51.1226387 141.375584,54.1061162 C139.636227,57.0895936 138.863177,56.5676487 138.863177,56.5676487 L34.6250305,75.8501333 C34.6250305,75.8501333 16.9616884,78.6425051 11.0067502,78.8785916 C5.05181191,79.1146781 0.576554383,77.2000021 0.576554383,77.2000021 C0.576554383,77.2000021 -0.163043252,73.6026054 0.576554383,69.9217909 C1.31615202,66.2409764 5.6391399,52.0046294 5.6391399,52.0046294 Z" id="Path-21" stroke-width="2" stroke-linecap="round"></path>
                <path d="M5.80935082,51.8322262 L5.38880248,53.2304576 C5.38880248,53.2304576 5.26814368,52.685613 8.52728713,51.8322262 C11.7864306,50.9788393 26.4530451,47.7149142 26.4530451,47.7149142 L144.705743,23.7098642" id="Path-22" stroke-width="2.2" stroke-linecap="round"></path>
                <path d="M5.31435299,54.1742486 L4.77310141,56.3216225 C4.77310141,56.3216225 6.53606288,55.4794557 12.2366589,54.1742486 C17.9372549,52.8690415 31.391087,49.9295131 31.391087,49.9295131 C31.391087,49.9295131 48.101947,46.7652936 57.8493685,44.8203142 C67.5967899,42.8753348 145.810984,27.4074074 145.810984,27.4074074" id="Path-23" stroke-width="1.5" stroke-linecap="round"></path>
                <path d="M0.247844323,75.9312522 L0.247844323,74.4083185 C0.247844323,74.4083185 3.93711198,75.1742155 6.81550677,75.4557891 C9.69390156,75.7373627 13.1259255,75.4557891 13.1259255,75.4557891 C13.1259255,75.4557891 16.0153047,75.3684664 21.5531852,74.4083185 C27.0910657,73.4481706 95.0271661,60.870993 108.345469,58.4792161 C121.301988,56.1524105 129.255344,54.9418515 133.419864,54.1626645 C137.584384,53.3834775 137.932828,53.0509519 137.932828,53.0509519 C137.932828,53.0509519 141.943841,44.5051104 142.914757,39.9328889 C143.885674,35.3606674 143.850156,25.1851852 143.850156,25.1851852" id="Path-24" stroke-width="1.5" stroke-linecap="round"></path>
                <path d="M83.0514917,53.5373217 C80.6802492,58.1555373 84.8521091,55.9440489 83.2881979,53.2834119" id="Path-25" stroke-linecap="round"></path>
                <path d="M110.994626,44.8116306 C108.949208,46.483141 108.87242,45.9131012 111.615881,46.4215599" id="Path-26" stroke-linecap="round"></path>
                <path d="M125.750626,42.3259878 C136.359136,37.0261962 125.903121,38.4798636 125.649967,42.6302079" id="Path-27" stroke-linecap="round"></path>
                <path d="M27.4624823,60.6436502 C22.2750357,64.8931364 28.3589616,64.753223 26.71383,60.8425331" id="Path-28"></path>
                <path d="M52.1829513,57.210759 C55.119124,58.0450363 55.182245,58.2359036 52.7161301,56.9285497" id="Path-29" stroke-linecap="round"></path>
                <path d="M68.7217196,49.4755518 C64.0481534,60.0395612 74.7962455,53.1428792 67.9494753,49.6634293" id="Path-30"></path>
            </g>
        </g>
    </g>
</svg>