<?xml version="1.0" encoding="UTF-8"?>
<svg width="152px" height="152px" viewBox="0 0 152 152" version="1.1" xmlns="http://www.w3.org/2000/svg" xmlns:xlink="http://www.w3.org/1999/xlink">
    <!-- Generator: Sketch 44.1 (41455) - http://www.bohemiancoding.com/sketch -->
    <title>broccoli</title>
    <desc>Created with Sketch.</desc>
    <defs></defs>
    <g id="Page-1" stroke="none" stroke-width="1" fill="none" fill-rule="evenodd" stroke-linecap="round" stroke-linejoin="round">
        <g id="broccoli" stroke="#979797" stroke-width="2">
            <g id="Group" transform="translate(8.000000, 4.000000)">
                <path d="M74.3957499,112.369295 C74.3957499,112.369295 72.6244052,98.4666552 72.6244052,89.8639034 C72.6244052,81.2611516 74.3957499,74.4832625 74.3957499,74.4832625 C74.3957499,74.4832625 78.575307,72.4890827 81.707433,70.1229508 C84.8395591,67.756819 88.5481866,53.8683297 88.5481866,53.8683297 C88.5481866,53.8683297 84.4485704,67.0042094 83.5957993,73.6845842 C82.7430282,80.3649591 84.5907514,84.869792 84.5907514,84.869792 C84.5907514,84.869792 88.4220175,77.8790774 90.3187137,75.8219512 C92.2154098,73.764825 98.0947403,70.1229508 98.0947403,70.1229508 L110.056531,76.8866441 C110.056531,76.8866441 98.9702678,84.6324715 93.567227,91.4153856 C88.1641862,98.1982997 86.1908426,139.759287 86.1908426,139.759287 C86.1908426,139.759287 81.121882,144.56691 72.6244052,144.604216 C64.1269284,144.641523 58.6618131,141.64546 58.6618131,141.64546 C58.6618131,141.64546 60.0210561,123.198665 52.1044093,108.01224 C49.2230952,102.485044 38.826005,95.526802 33.6069004,89.8639034 C28.3877958,84.2010048 20.13246,72.4890827 20.13246,72.4890827 C20.13246,72.4890827 27.6031382,78.4970122 31.8072623,78.72171 C36.0113864,78.9464078 42.5004437,73.6845842 42.5004437,73.6845842 C42.5004437,73.6845842 44.2133163,81.5791924 46.4490355,84.7437155 C48.6847547,87.9082386 55.0271631,91.4153856 55.0271631,91.4153856 C55.0271631,91.4153856 55.3938342,85.847626 55.0271631,83.0809893 C54.660492,80.3143527 52.1044093,69.3623862 52.1044093,69.3623862 C52.1044093,69.3623862 59.9784717,80.8507085 62.6767305,91.4153856 C65.3749893,101.980063 65.5346325,121.946657 65.5346325,121.946657" id="Path-748"></path>
                <path d="M23.6445665,78.0156653 C23.6445665,78.0156653 11.6295631,92.8815845 2.53773278,75.7248385 C-1.0498785,68.9548335 0.919928333,58.7743913 9.98602283,54.3662034 C5.19650521,40.512026 22.3445224,27.2785315 31.6777366,28.6681467 C28.6603901,8.45780349 47.2291534,7.52777805 53.4494621,14.0404552 C53.4494621,14.0404552 54.9741452,2.21572784 75.5473382,0.372366116 C96.1205312,-1.47099561 97.1158411,17.7512729 97.1158411,17.7512729 C97.1158411,17.7512729 106.489848,16.5068874 113.621969,23.5173221 C120.754091,30.5277568 113.621969,41.7264196 113.621969,41.7264196 C113.621969,41.7264196 149.535745,52.8240637 131.578857,71.531262 C113.621969,90.2384602 86.7180316,59.5721548 86.7180316,59.5721548 C86.7180316,59.5721548 85.2535599,70.7597499 71.2163333,74.7103701 C57.1791067,78.6609903 50.8194972,66.9823737 50.8194972,66.9823737 C50.8194972,66.9823737 47.7525575,69.9964539 45.8090461,71.531262 C43.8655346,73.06607 41.5402445,74.3102808 41.5402445,74.3102808" id="Path-750"></path>
                <path d="M27.9335459,61.5620683 C13.8431682,35.6717353 42.6022392,44.6388319 42.6022392,44.6388319 C42.6022392,44.6388319 48.8836692,24.1689726 66.1062616,37.9609503" id="Path-751"></path>
                <path d="M85.0760129,21.7468952 C85.0760129,21.7468952 78.732869,23.9438419 78.732869,33.5155805 C78.732869,43.0873191 85.0760129,46.7586709 85.0760129,46.7586709" id="Path-752"></path>
            </g>
        </g>
    </g>
</svg>