<?xml version="1.0" encoding="UTF-8"?>
<svg width="152px" height="152px" viewBox="0 0 152 152" version="1.1" xmlns="http://www.w3.org/2000/svg" xmlns:xlink="http://www.w3.org/1999/xlink">
    <!-- Generator: Sketch 44.1 (41455) - http://www.bohemiancoding.com/sketch -->
    <title>brusselssprout</title>
    <desc>Created with Sketch.</desc>
    <defs></defs>
    <g id="Page-1" stroke="none" stroke-width="1" fill="none" fill-rule="evenodd" stroke-linecap="round" stroke-linejoin="round">
        <g id="brusselssprout" stroke="#979797" stroke-width="2">
            <g id="Group" transform="translate(42.652964, 92.066929) rotate(-20.000000) translate(-42.652964, -92.066929) translate(4.652964, 60.066929)">
                <path d="M2.16234348,23.5586391 C0.677715469,24.7440941 0.0347346208,27.1575075 0.233400937,30.7988795 C0.432067254,34.4402514 1.44449303,36.7002593 3.27067827,37.5789033 C3.47414251,35.7352791 3.69291096,34.5161606 3.92698361,33.9215479 C4.16105626,33.3269352 4.73255654,32.5385408 5.64148445,31.5563649 C2.54730529,34.1755604 3.01211221,39.3769706 7.03590519,47.1605954 C13.0715947,58.8360326 34.6547981,67.4044568 43.4043964,61.3889003 C44.9187962,60.3477145 45.229853,57.6853239 44.3375669,53.4017286 C50.1385426,51.5069531 53.6522779,47.0089086 54.8787727,39.9075952 C56.1052675,32.8062818 51.2748974,27.6198008 40.3876625,24.3481523 C43.4161752,18.1599151 41.1649994,13.6937435 33.6341351,10.9496376 C22.3378387,6.83347863 -3.23266314,10.9496376 3.27067827,27.6472656 C4.95286764,31.9663641 9.0871469,34.732429 14.1516308,36.6662982 C14.2932568,36.7203779 14.4205178,32.0821138 17.0073329,29.8352543 C19.5941481,27.5883948 27.6679112,25.06797 27.8872932,25.1423313 C28.1159578,25.2198389 20.5077343,26.2830271 17.0073329,29.8352543 C13.5069316,33.3874816 14.0221074,36.627084 14.1516308,36.6662982 C15.7913016,37.1627206 19.6556391,38.275843 21.5558849,38.5778583 C21.7461539,38.6080987 20.2052892,41.9989844 22.7896818,44.8948238 C25.3740745,47.7906631 32.3211121,50.4575989 32.5255236,50.4850346 C32.7414433,50.5140149 25.2265793,48.0186284 22.7896818,44.8948238 C20.3527844,41.7710192 21.3883573,38.664637 21.5558849,38.6836288 C25.0227925,39.0766537 31.8573926,39.0766537 42.0596852,38.6836288" id="Path-824"></path>
                <path d="M14.8108657,10.3923666 C34.5736524,-0.732934445 49.7392363,-2.58513485 60.3076175,4.83576537 C69.1784718,8.25091408 71.6137209,19.0923755 60.3076175,17.4948825 C63.2655262,23.0729747 59.9966701,26.8182879 50.5010493,28.7308221" id="Path-825"></path>
                <path d="M53.8844565,45.0018495 C56.1348916,43.3758611 58.2826976,42.1082142 60.3278744,41.1989087 C62.3730512,40.2896033 64.3958327,39.5351189 66.3962188,38.9354556 C66.3962188,35.8603278 66.3962188,32.8601067 66.3962188,29.9347922 C66.3962188,27.0094776 66.8911181,22.40787 67.8809167,16.1299692 C76.6959313,24.2360324 77.8968039,34.2323428 71.4835346,46.1189006 C65.0702653,58.0054584 56.2571652,62.7613232 45.0442343,60.386495" id="Path-826"></path>
            </g>
            <g id="Group" transform="translate(115.000000, 61.000000) scale(-1, 1) rotate(-90.000000) translate(-115.000000, -61.000000) translate(77.000000, 29.000000)">
                <path d="M2.16234348,23.5586391 C0.677715469,24.7440941 0.0347346208,27.1575075 0.233400937,30.7988795 C0.432067254,34.4402514 1.44449303,36.7002593 3.27067827,37.5789033 C3.47414251,35.7352791 3.69291096,34.5161606 3.92698361,33.9215479 C4.16105626,33.3269352 4.73255654,32.5385408 5.64148445,31.5563649 C2.54730529,34.1755604 3.01211221,39.3769706 7.03590519,47.1605954 C13.0715947,58.8360326 34.6547981,67.4044568 43.4043964,61.3889003 C44.9187962,60.3477145 45.229853,57.6853239 44.3375669,53.4017286 C50.1385426,51.5069531 53.6522779,47.0089086 54.8787727,39.9075952 C56.1052675,32.8062818 51.2748974,27.6198008 40.3876625,24.3481523 C43.4161752,18.1599151 41.1649994,13.6937435 33.6341351,10.9496376 C22.3378387,6.83347863 -3.23266314,10.9496376 3.27067827,27.6472656 C4.95286764,31.9663641 9.0871469,34.732429 14.1516308,36.6662982 C14.2932568,36.7203779 14.4205178,32.0821138 17.0073329,29.8352543 C19.5941481,27.5883948 27.6679112,25.06797 27.8872932,25.1423313 C28.1159578,25.2198389 20.5077343,26.2830271 17.0073329,29.8352543 C13.5069316,33.3874816 14.0221074,36.627084 14.1516308,36.6662982 C15.7913016,37.1627206 19.6556391,38.275843 21.5558849,38.5778583 C21.7461539,38.6080987 20.2052892,41.9989844 22.7896818,44.8948238 C25.3740745,47.7906631 32.3211121,50.4575989 32.5255236,50.4850346 C32.7414433,50.5140149 25.2265793,48.0186284 22.7896818,44.8948238 C20.3527844,41.7710192 21.3883573,38.664637 21.5558849,38.6836288 C25.0227925,39.0766537 31.8573926,39.0766537 42.0596852,38.6836288" id="Path-824"></path>
                <path d="M14.8108657,10.3923666 C34.5736524,-0.732934445 49.7392363,-2.58513485 60.3076175,4.83576537 C69.1784718,8.25091408 71.6137209,19.0923755 60.3076175,17.4948825 C63.2655262,23.0729747 59.9966701,26.8182879 50.5010493,28.7308221" id="Path-825"></path>
                <path d="M53.8844565,45.0018495 C56.1348916,43.3758611 58.2826976,42.1082142 60.3278744,41.1989087 C62.3730512,40.2896033 64.3958327,39.5351189 66.3962188,38.9354556 C66.3962188,35.8603278 66.3962188,32.8601067 66.3962188,29.9347922 C66.3962188,27.0094776 66.8911181,22.40787 67.8809167,16.1299692 C76.6959313,24.2360324 77.8968039,34.2323428 71.4835346,46.1189006 C65.0702653,58.0054584 56.2571652,62.7613232 45.0442343,60.386495" id="Path-826"></path>
            </g>
        </g>
    </g>
</svg>