<?xml version="1.0" encoding="UTF-8"?>
<svg width="152px" height="152px" viewBox="0 0 152 152" version="1.1" xmlns="http://www.w3.org/2000/svg" xmlns:xlink="http://www.w3.org/1999/xlink">
    <!-- Generator: Sketch 44.1 (41455) - http://www.bohemiancoding.com/sketch -->
    <title>agave</title>
    <desc>Created with Sketch.</desc>
    <defs></defs>
    <g id="Page-1" stroke="none" stroke-width="1" fill="none" fill-rule="evenodd">
        <g id="agave" stroke="#91E195">
            <path d="M76.4150286,142.869672 L52.7044279,142.869672 C52.7044279,142.869672 46.7234172,142.857365 44.6768431,138.838232 C42.6302691,134.819099 42.0734344,129.587857 42.0734344,129.587857 L37.9929767,77.1399416 C37.9929767,77.1399416 36.9063584,64.9148734 39.2623897,59.2615834 C41.618421,53.6082935 50.8551181,46.2772721 50.8551181,46.2772721 C50.8551181,46.2772721 55.7386363,42.3309059 57.0789177,40.5867042 C58.4191991,38.8425024 59.7906824,34.6487981 59.7906824,34.6487981 C59.7906824,34.6487981 59.7815753,30.9687091 60.2080249,29.5708411 C60.6344745,28.1729731 61.9007933,27.7320218 61.9007933,27.7320218 L61.9817962,22.0765241 L58.1642117,22.09699 L58.1113344,9.8568511 C58.1113344,9.8568511 58.1642117,8.07941439 58.9120897,7.49767598 C59.6599678,6.91593758 61.5155543,6.88607101 61.5155543,6.88607101 L75.0178019,6.62940363" id="Path-369" stroke-width="2.2" stroke-linecap="round" stroke-linejoin="round"></path>
            <path d="M111.415029,142.869672 L87.7044279,142.869672 C87.7044279,142.869672 81.7234172,142.857365 79.6768431,138.838232 C77.6302691,134.819099 77.0734344,129.587857 77.0734344,129.587857 L72.9929767,77.1399416 C72.9929767,77.1399416 71.9063584,64.9148734 74.2623897,59.2615834 C76.618421,53.6082935 85.8551181,46.2772721 85.8551181,46.2772721 C85.8551181,46.2772721 90.7386363,42.3309059 92.0789177,40.5867042 C93.4191991,38.8425024 94.7906824,34.6487981 94.7906824,34.6487981 C94.7906824,34.6487981 94.7815753,30.9687091 95.2080249,29.5708411 C95.6344745,28.1729731 96.9007933,27.7320218 96.9007933,27.7320218 L96.9817962,22.0765241 L93.1642117,22.09699 L93.1113344,9.8568511 C93.1113344,9.8568511 93.1642117,8.07941439 93.9120897,7.49767598 C94.6599678,6.91593758 96.5155543,6.88607101 96.5155543,6.88607101 L110.017802,6.62940363" id="Path-369" stroke-width="2.2" stroke-linecap="round" stroke-linejoin="round" transform="translate(92.078918, 74.749538) scale(-1, 1) translate(-92.078918, -74.749538) "></path>
            <path d="M48.2448575,126.288415 C48.2448575,126.288415 66.0717827,128.264582 74.6559019,128.264582 C83.2400211,128.264582 101.037652,126.288415 101.037652,126.288415 L104.278279,76.899968 C104.278279,76.899968 97.104214,53.8108285 74.6559019,53.8108285 C52.2075898,53.8108285 45.0335245,76.899968 45.0335245,76.899968 L48.2448575,126.288415 Z" id="Path-374" stroke-width="2.2" stroke-linecap="round" stroke-linejoin="round"></path>
            <path d="M61.6920561,22.0997239 L87.3408667,22.1002761" id="Path-381" stroke-width="2.2"></path>
            <path d="M60.2451903,127.432094 C60.2451903,127.432094 59.2204684,117.337602 57.9357517,112.842003 C56.6510349,108.346404 51.5753459,93.5044855 51.5753459,93.5044855 C51.5753459,93.5044855 55.5856167,98.3358891 57.9357517,102.625385 C60.2858867,106.914881 63.154271,114.638485 63.154271,114.638485 C63.154271,114.638485 62.1610634,104.327423 61.4520094,98.7087137 C60.7429554,93.0900043 56.8124929,73.9854029 56.8124929,73.9854029 C56.8124929,73.9854029 62.4220687,85.7065954 65.0088389,92.7261155 C67.5956092,99.7456356 71.1315766,112.842003 71.1315766,112.842003 L74.4447443,65.7465597 L79.2714181,113.346592 C79.2714181,113.346592 82.7037485,103.105254 85.4918013,97.9369542 C88.279854,92.7686539 95.8749592,82.5680911 95.8749592,82.5680911 C95.8749592,82.5680911 91.6679128,93.2876125 90.3320369,98.7087137 C88.9961611,104.129815 87.8958709,115.189507 87.8958709,115.189507 C87.8958709,115.189507 91.4135232,105.955347 93.2166492,102.625385 C95.0197752,99.2954233 98.9479005,94.7789323 98.9479005,94.7789323 C98.9479005,94.7789323 94.8361997,105.064056 93.2166492,111.801807 C91.5970987,118.539558 90.874534,127.432094 90.874534,127.432094" id="Path-382" stroke-width="1.5" stroke-linecap="round" stroke-linejoin="round"></path>
        </g>
    </g>
</svg>