<?xml version="1.0" encoding="UTF-8"?>
<svg width="152px" height="152px" viewBox="0 0 152 152" version="1.1" xmlns="http://www.w3.org/2000/svg" xmlns:xlink="http://www.w3.org/1999/xlink">
    <!-- Generator: Sketch 44.1 (41455) - http://www.bohemiancoding.com/sketch -->
    <title>cuminseeds</title>
    <desc>Created with Sketch.</desc>
    <defs></defs>
    <g id="Page-1" stroke="none" stroke-width="1" fill="none" fill-rule="evenodd" stroke-linecap="round" stroke-linejoin="round">
        <g id="cuminseeds" stroke="#AD5D11" stroke-width="2">
            <g id="Group-2" transform="translate(2.000000, 6.000000)">
                <g id="Group" transform="translate(0.000000, 65.939772)">
                    <path d="M4.11786383,43.2191977 L6.91212694,37.3118797 L0.48137564,38.0134312 C0.48137564,38.0134312 16.3339802,20.4473118 25.6571553,14.444699 C34.9803303,8.44208622 61.5201924,0.523595788 61.5201924,0.523595788" id="Path-201"></path>
                    <path d="M4.7540126,42.8989367 C35.9942812,34.58328 46.6308201,28.6190567 62.7740185,2.00087015" id="Path-205"></path>
                    <path d="M7.13670183,37.7846176 C7.7627497,37.3646032 22.2557022,32.7170157 36.2480224,23.0405076 C50.2403426,13.3639996 50.7458668,11.2947082 61.4847197,2.81429306" id="Path-220"></path>
                    <path d="M6.42160898,37.4701257 C37.7183242,13.9840142 19.2667629,21.759044 62.4422349,1.07765929" id="Path-221"></path>
                </g>
                <g id="Group" transform="translate(89.968206, 108.442084) rotate(200.000000) translate(-89.968206, -108.442084) translate(58.468206, 86.442084)">
                    <path d="M4.11786383,43.2191977 L6.91212694,37.3118797 L0.48137564,38.0134312 C0.48137564,38.0134312 16.3339802,20.4473118 25.6571553,14.444699 C34.9803303,8.44208622 61.5201924,0.523595788 61.5201924,0.523595788" id="Path-201"></path>
                    <path d="M4.7540126,42.8989367 C35.9942812,34.58328 46.6308201,28.6190567 62.7740185,2.00087015" id="Path-205"></path>
                    <path d="M7.13670183,37.7846176 C7.7627497,37.3646032 22.2557022,32.7170157 36.2480224,23.0405076 C50.2403426,13.3639996 50.7458668,11.2947082 61.4847197,2.81429306" id="Path-220"></path>
                    <path d="M6.42160898,37.4701257 C37.7183242,13.9840142 19.2667629,21.759044 62.4422349,1.07765929" id="Path-221"></path>
                </g>
                <g id="Group" transform="translate(111.065551, 70.197017) rotate(200.000000) translate(-111.065551, -70.197017) translate(79.565551, 48.197017)">
                    <path d="M4.11786383,43.2191977 L6.91212694,37.3118797 L0.48137564,38.0134312 C0.48137564,38.0134312 16.3339802,20.4473118 25.6571553,14.444699 C34.9803303,8.44208622 61.5201924,0.523595788 61.5201924,0.523595788" id="Path-201"></path>
                    <path d="M4.7540126,42.8989367 C35.9942812,34.58328 46.6308201,28.6190567 62.7740185,2.00087015" id="Path-205"></path>
                    <path d="M7.13670183,37.7846176 C7.7627497,37.3646032 22.2557022,32.7170157 36.2480224,23.0405076 C50.2403426,13.3639996 50.7458668,11.2947082 61.4847197,2.81429306" id="Path-220"></path>
                    <path d="M6.42160898,37.4701257 C37.7183242,13.9840142 19.2667629,21.759044 62.4422349,1.07765929" id="Path-221"></path>
                </g>
                <g id="Group" transform="translate(52.935664, 39.045240) rotate(230.000000) translate(-52.935664, -39.045240) translate(21.435664, 17.045240)">
                    <path d="M4.11786383,43.2191977 L6.91212694,37.3118797 L0.48137564,38.0134312 C0.48137564,38.0134312 16.3339802,20.4473118 25.6571553,14.444699 C34.9803303,8.44208622 61.5201924,0.523595788 61.5201924,0.523595788" id="Path-201"></path>
                    <path d="M4.7540126,42.8989367 C35.9942812,34.58328 46.6308201,28.6190567 62.7740185,2.00087015" id="Path-205"></path>
                    <path d="M7.13670183,37.7846176 C7.7627497,37.3646032 22.2557022,32.7170157 36.2480224,23.0405076 C50.2403426,13.3639996 50.7458668,11.2947082 61.4847197,2.81429306" id="Path-220"></path>
                    <path d="M6.42160898,37.4701257 C37.7183242,13.9840142 19.2667629,21.759044 62.4422349,1.07765929" id="Path-221"></path>
                </g>
            </g>
        </g>
    </g>
</svg>