<?xml version="1.0" encoding="UTF-8"?>
<svg width="152px" height="152px" viewBox="0 0 152 152" version="1.1" xmlns="http://www.w3.org/2000/svg" xmlns:xlink="http://www.w3.org/1999/xlink">
    <!-- Generator: Sketch 44.1 (41455) - http://www.bohemiancoding.com/sketch -->
    <title>carrot</title>
    <desc>Created with Sketch.</desc>
    <defs></defs>
    <g id="Page-1" stroke="none" stroke-width="1" fill="none" fill-rule="evenodd">
        <g id="carrot" stroke="#979797">
            <g id="Group-2" transform="translate(11.000000, 4.000000)">
                <g id="Group" transform="translate(49.663322, 84.900537) rotate(30.000000) translate(-49.663322, -84.900537) translate(33.663322, 13.900537)">
                    <path d="M0.625812085,41.4465288 C-2.26973291,50.0402647 5.41119777,133.398971 12.813227,140.461531 C15.6938817,143.210073 17.5706648,138.104802 18.6748146,130.094062 C19.7789644,122.083321 33.5551587,53.6795187 31.6966,41.4465288 C30.4483179,33.2303651 18.6845515,31.9465522 14.2789931,31.9465522 C9.87343474,31.9465522 3.52135708,32.8527929 0.625812085,41.4465288 Z" id="Path-733" stroke-width="2"></path>
                    <path d="M-1.27897692e-13,43.7786086 C-1.27897692e-13,43.7786086 0.505033306,46.7012972 4.19364247,47.7243853 C7.88225164,48.7474734 14.0510289,48.576584 14.0510289,48.576584" id="Path-734" stroke-width="1.6" stroke-linecap="round"></path>
                    <path d="M4.74317317,63.8931044 C4.74317317,63.8931044 9.19060441,67.0238071 18.4010726,66.9632847 C27.6115407,66.9027623 30.0958983,63.8931044 30.0958983,63.8931044" id="Path-735" stroke-width="1.6" stroke-linecap="round"></path>
                    <path d="M9.48634634,79.9785467 C24.1290554,82.1676903 27.5555775,76.9083664 27.5555775,76.9083664" id="Path-735" stroke-width="1.6" stroke-linecap="round"></path>
                    <path d="M4.74317317,101.755685 C4.74317317,101.755685 7.64551995,104.886388 14.7192081,104.825865 C21.7928963,104.765343 23.700896,101.755685 23.700896,101.755685" id="Path-735" stroke-width="1.6" stroke-linecap="round"></path>
                    <path d="M5.42896646,109.172099 C5.42896646,109.172099 7.57269935,112.302802 12.0122921,112.242279" id="Path-735" stroke-width="1.6" stroke-linecap="round"></path>
                    <path d="M14.3130005,32.0291317 C14.3130005,32.0291317 12.1377387,7.88215715 11.8705913,5.84758242 C11.6034439,3.81300768 14.3130005,32.0291317 14.3130005,32.0291317 L16.9750554,31.7106302 C17.2565764,29.0587764 17.8239231,-0.902276156 17.8509123,0.194425051 C17.8858713,1.61497716 16.9750554,31.7106302 16.9750554,31.7106302 L20.1253921,32.0291317 C20.6888747,28.9123646 22.0335159,11.2963588 22.5419081,11.9026951 C23.2348554,12.7291418 20.1253921,32.0291317 20.1253921,32.0291317" id="Path-736" stroke-width="2" stroke-linecap="round" stroke-linejoin="round"></path>
                </g>
                <path d="M75.3939507,33.239021 C75.3939507,33.239021 57.3553433,29.4156874 63.5708967,21.4066097 C65.4046882,19.0436698 72.6523332,17.9078621 80.9203315,15.6459693 C80.9203315,15.6459693 75.7872054,5.9455438 80.9203315,1.87222 C89.2074742,-4.70393158 94.3489876,9.28444977 94.3489876,9.28444977 C94.3489876,9.28444977 113.655922,-7.74952965 119.034359,7.81536065 C120.240525,11.3059336 120.653501,18.2874912 120.568388,27.0187123 C120.568388,27.0187123 125.669684,22.824353 128.818282,30.2124644 C131.96688,37.6005758 119.484535,51.8723958 119.029223,57.8393631 C119.029223,57.8393631 122.452037,53.9461312 125.669684,59.7258681 C128.88733,65.505605 117.406925,76.7477196 117.016965,80.7271504 C117.016965,80.7271504 123.6877,79.3814499 123.328949,82.7567801 C122.970199,86.1321103 119.188762,105.0025 114.019653,108.359072 C108.850544,111.715644 108.03465,101.948555 103.407392,95.6409424 C98.7801335,89.3333301 103.407392,88.0190136 103.407392,88.0190136 C99.3410957,82.1302219 95.378521,75.88079 93.1589593,71.0215596 C87.3004059,58.1955765 92.7931258,53.3205475 92.7931258,53.3205475 C92.7931258,53.3205475 87.9709209,52.3436063 86.6576873,49.1818093 C85.3444536,46.0200123 85.3444536,36.1774215 85.3444536,36.1774215 L90.1589593,29.4094255 C90.1589593,29.4094255 94.5353994,24.9084286 96.480706,29.4094255 C97.5266378,31.8294736 96.6543766,45.239187 100.407392,57.8393631 C104.160407,70.4395392 107.590207,76.6625617 107.590207,76.6625617 C107.590207,76.6625617 102.014836,64.9031355 100.407392,57.8393631 C99.6158663,54.3610747 98.4846489,48.0437665 97.9597017,42.2718281 C97.4347545,36.4998897 97.4812929,30.9451355 96.480706,29.4094255 C93.4855484,24.8124294 90.1589593,29.4094255 90.1589593,29.4094255 L72.4226756,53.3205475 L70.4716259,51.2517411 L86.6950411,24.4097616 C86.6950411,24.4097616 92.8149447,14.6986905 100.920437,17.3099214 C109.025929,19.9211523 110.532658,42.2718281 110.532658,42.2718281" id="Path-753" stroke-width="2" stroke-linecap="round" stroke-linejoin="round"></path>
            </g>
        </g>
    </g>
</svg>