<?xml version="1.0" encoding="UTF-8"?>
<svg width="152px" height="152px" viewBox="0 0 152 152" version="1.1" xmlns="http://www.w3.org/2000/svg" xmlns:xlink="http://www.w3.org/1999/xlink">
    <!-- Generator: Sketch 44.1 (41455) - http://www.bohemiancoding.com/sketch -->
    <title>cashew</title>
    <desc>Created with Sketch.</desc>
    <defs></defs>
    <g id="Page-1" stroke="none" stroke-width="1" fill="none" fill-rule="evenodd">
        <g id="cashew" stroke="#FF7C1E">
            <g id="Group-2" transform="translate(5.904104, 63.354819)">
                <path d="M56.2230193,6.34434419 C54.8024156,7.50212015 53.0044122,5.54951245 50.2989498,6.34434419 C47.5934875,7.13917592 47.5934875,10.356733 47.5934875,10.356733 C47.5934875,10.356733 47.6749244,33.4121878 41.7642735,38.8226447 C35.8536226,44.2331017 23.7114833,40.9300215 23.7114833,40.9300215 C23.7114833,40.9300215 2.94202268,38.2503804 0.340207271,55.3536334 C-2.26160814,72.4568863 19.0327448,76.407339 19.0327448,76.407339 C19.0327448,76.407339 58.9150631,84.1902887 75.478808,49.0700149 C92.0425529,13.9497411 63.0573419,0.568803342 63.0573419,0.568803342 C63.0573419,0.568803342 59.7706129,-0.434396928 58.0072271,1.08991964 C56.2438412,2.6142362 57.643623,5.18656822 56.2230193,6.34434419 Z" id="Path-10" stroke-width="2.2" transform="translate(40.355534, 38.693104) scale(-1, 1) translate(-40.355534, -38.693104) "></path>
                <path d="M7.52235585,62.4820621 C7.52235585,62.4820621 10.8592871,61.3559867 20.069658,49.5451915 C29.280029,37.7343963 27.0636109,26.4624053 27.0636109,26.4624053" id="Path-13" stroke-width="2" stroke-linecap="round" transform="translate(17.409974, 44.472234) scale(-1, 1) translate(-17.409974, -44.472234) "></path>
            </g>
            <g id="Group-2" transform="translate(105.361496, 50.717915) scale(1, -1) translate(-105.361496, -50.717915) translate(64.722992, 11.683562)">
                <path d="M56.2230193,6.34434419 C54.8024156,7.50212015 53.0044122,5.54951245 50.2989498,6.34434419 C47.5934875,7.13917592 47.5934875,10.356733 47.5934875,10.356733 C47.5934875,10.356733 47.6749244,33.4121878 41.7642735,38.8226447 C35.8536226,44.2331017 23.7114833,40.9300215 23.7114833,40.9300215 C23.7114833,40.9300215 2.94202268,38.2503804 0.340207271,55.3536334 C-2.26160814,72.4568863 19.0327448,76.407339 19.0327448,76.407339 C19.0327448,76.407339 58.9150631,84.1902887 75.478808,49.0700149 C92.0425529,13.9497411 63.0573419,0.568803342 63.0573419,0.568803342 C63.0573419,0.568803342 59.7706129,-0.434396928 58.0072271,1.08991964 C56.2438412,2.6142362 57.643623,5.18656822 56.2230193,6.34434419 Z" id="Path-10" stroke-width="2.2" transform="translate(40.355534, 38.693104) scale(-1, 1) translate(-40.355534, -38.693104) "></path>
                <path d="M24.4793907,65.5813221 C24.4793907,65.5813221 37.5065132,73.9850329 51.4932765,69.0268892 C65.4800397,64.0687456 67.7774653,57.0656533 67.7774653,57.0656533" id="Path-13" stroke-width="2" stroke-linecap="round" transform="translate(46.128428, 63.829040) scale(-1, 1) translate(-46.128428, -63.829040) "></path>
            </g>
        </g>
    </g>
</svg>