<?xml version="1.0" encoding="UTF-8"?>
<svg width="152px" height="152px" viewBox="0 0 152 152" version="1.1" xmlns="http://www.w3.org/2000/svg" xmlns:xlink="http://www.w3.org/1999/xlink">
    <!-- Generator: Sketch 46.2 (44496) - http://www.bohemiancoding.com/sketch -->
    <title>beer</title>
    <desc>Created with Sketch.</desc>
    <defs></defs>
    <g id="Page-1" stroke="none" stroke-width="1" fill="none" fill-rule="evenodd">
        <g id="beer" stroke="#979797">
            <g id="Group" transform="translate(56.000000, 3.000000)">
                <path d="M22,146 C16.6305088,145.99183 11.7731832,145.667096 7.42802318,145.025797 C3.08286313,144.384498 0.647803824,142.117553 0.122845245,138.224963 L0.122845245,75.5302125 C-0.259101548,70.4640744 0.249604892,66.6518063 1.64896456,64.0934084 C3.74800407,60.2558114 4.95695879,58.7086197 6.1088229,56.5399262 C6.87673231,55.0941306 7.28527882,52.8576303 7.33446243,49.8304253 L12.2787511,10.1202796 C11.6698986,9.86750939 11.2665388,9.61959243 11.0686718,9.37652877 C10.8708048,9.1334651 10.7199261,8.70054479 10.6160356,8.07776785 L10.6160356,1.84621532 C10.700486,1.00198627 10.8513647,0.490153738 11.0686718,0.310717712 C11.2859788,0.131281686 11.8803901,0.0277091154 12.8519055,0 L22,0" id="Path-162" stroke-width="2"></path>
                <path d="M40,146 C34.6305088,145.99183 29.7731832,145.667096 25.4280232,145.025797 C21.0828631,144.384498 18.6478038,142.117553 18.1228452,138.224963 L18.1228452,75.5302125 C17.7408985,70.4640744 18.2496049,66.6518063 19.6489646,64.0934084 C21.7480041,60.2558114 22.9569588,58.7086197 24.1088229,56.5399262 C24.8767323,55.0941306 25.2852788,52.8576303 25.3344624,49.8304253 L30.2787511,10.1202796 C29.6698986,9.86750939 29.2665388,9.61959243 29.0686718,9.37652877 C28.8708048,9.1334651 28.7199261,8.70054479 28.6160356,8.07776785 L28.6160356,1.84621532 C28.700486,1.00198627 28.8513647,0.490153738 29.0686718,0.310717712 C29.2859788,0.131281686 29.8803901,0.0277091154 30.8519055,0 L40,0" id="Path-162" stroke-width="2" transform="translate(29.000000, 73.000000) scale(-1, 1) translate(-29.000000, -73.000000) "></path>
                <path d="M1,88.2662272 L4.61372615,88.2662272 C6.38183653,82.7750989 11.5105945,80.0205842 20,80.0026832 C28.4894055,79.9847822 33.5848582,82.7392969 35.2863579,88.2662272 L40,88.2662272 L40,126.984586 C31.6754507,128.704004 25.008784,129.563712 20,129.563712 C14.991216,129.563712 8.65788264,128.704004 1,126.984586" id="Path-828" stroke-width="1.5"></path>
                <path d="M9,37 C13.8644913,37.3894249 17.531158,37.5841374 20,37.5841374 C22.468842,37.5841374 26.1355087,37.3894249 31,37" id="Path-2" stroke-width="2"></path>
            </g>
        </g>
    </g>
</svg>