<?xml version="1.0" encoding="UTF-8"?>
<svg width="152px" height="152px" viewBox="0 0 152 152" version="1.1" xmlns="http://www.w3.org/2000/svg" xmlns:xlink="http://www.w3.org/1999/xlink">
    <!-- Generator: Sketch 44.1 (41455) - http://www.bohemiancoding.com/sketch -->
    <title>celery</title>
    <desc>Created with Sketch.</desc>
    <defs></defs>
    <g id="Page-1" stroke="none" stroke-width="1" fill="none" fill-rule="evenodd" stroke-linecap="round" stroke-linejoin="round">
        <g id="celery" stroke="#91E195" stroke-width="1.8">
            <g id="Group" transform="translate(40.000000, 1.000000)">
                <path d="M47.0110103,146.685159 C25.3782296,154.399497 19.7216269,143.237303 19.2105263,122.844828" id="Path-191"></path>
                <path d="M19.3392172,122.016477 C19.7850157,94.7559874 18.8934188,67.3466961 19.3392172,40.0862069" id="Path-192"></path>
                <path d="M23.0526316,37.5 C23.6339768,58.4189574 22.7380049,79.4331657 24.7966673,100.256872 C27.2550944,125.124264 47.3706235,127.75526 47.0350025,146.627146" id="Path-193"></path>
                <path d="M47.3859649,144.10848 C59.737787,118.022834 42.8242338,75.9419239 60.5183522,59.4827586" id="Path-194"></path>
                <path d="M38.4210526,120.761147 C52.1899319,104.163496 40.2759389,82.8843916 49.4041988,62.0689655" id="Path-195"></path>
                <path d="M29.4561404,113.641814 C35.5036663,62.9253391 34.5843013,83.1301671 34.7524721,42.6724138" id="Path-196"></path>
                <path d="M42.1435647,112.856086 C38.3673453,81.3281948 40.1044179,104.180181 40.0774911,45.2586207" id="Path-197"></path>
                <path d="M24.3333333,92.6483706 C26.0405245,74.8092143 26.9201403,63.7534705 27.1863943,59.7082315 C27.4526483,55.6629926 27.1863943,52.5447512 27.1863943,37.5" id="Path-198"></path>
                <path d="M32.6036643,87.8441526 C32.1967289,71.4638024 31.1437776,55.1734536 30.7368421,38.7931034" id="Path-199"></path>
                <path d="M19.001785,40.1121607 C10.0238304,35.7857945 1.90370981,31.3175619 14.5261964,32.3459445" id="Path-200"></path>
                <path d="M14.3181223,32.1845927 C10.2390741,29.5639054 -8.16260087,20.7039308 6.17121566,17.9142373" id="Path-202"></path>
                <path d="M6.03491685,17.8345984 C-2.59794605,3.27598661 7.31586451,4.88809492 15.8040666,11.8601962" id="Path-203"></path>
                <path d="M15.9210359,11.8715248 C20.0724904,2.69683611 25.0248799,5.22026038 24.3147984,12.2595431" id="Path-204"></path>
                <path d="M24.3333333,12.3027143 C27.0415405,10.1257154 30.8694466,-0.394976464 35.0572087,0.0114655244 C39.2449707,0.417907512 35.7755732,10.0231394 35.5138412,12.5434198" id="Path-206"></path>
                <path d="M36.4090517,12.5209769 C47.9394078,7.11222954 34.628206,28.3137612 34.5789474,28.4160708" id="Path-207"></path>
                <path d="M40.9824561,16.8252108 C47.4906044,16.5650799 45.7754908,19.7759102 46.7360554,21.9838488" id="Path-208"></path>
                <path d="M46.9623973,22.5552736 C60.6226262,21.0825623 55.25301,33.6203421 48.5845951,38.7093439" id="Path-209"></path>
                <path d="M55.0701754,24.1349884 C57.0427778,22.431163 56.7272973,22.4631188 58.4167155,20.211268 C60.1061337,17.9594172 63.360048,16.0698334 62.728355,22.243775" id="Path-210"></path>
                <path d="M62.754386,22.301617 C73.2337305,14.3642999 75.3791357,18.4066341 66.6039965,28.3667022" id="Path-211"></path>
                <path d="M66.6573772,28.3296429 C70.7796671,28.1871073 72.9497422,28.8570094 70.1003999,32.5659463 C67.2510575,36.2748832 56.3554991,45.145547 55.0701754,48.2908117" id="Path-212"></path>
                <path d="M55.0701754,48.7744776 C62.6492324,42.7944794 72.3767423,40.557716 61.9572548,53.0663364" id="Path-213"></path>
                <path d="M62.5593695,53.0347331 C76.1729338,52.6399732 69.2513489,58.8019866 60.4357283,59.5234887" id="Path-214"></path>
                <path d="M49.4414388,61.7806799 L49.4414388,60.4009971 C47.884679,55.396628 35.7204978,43.3995113 47.8681339,49.0348105 L47.1297654,43.9655172" id="Path-215"></path>
                <path d="M40.3536026,45.1540625 C45.1987076,43.605574 55.3752787,43.1110352 48.6494262,38.7931034" id="Path-216"></path>
                <path d="M30.8236528,38.4652982 C37.7173563,33.9637855 43.330604,26.2024332 34.4232602,28.8465056" id="Path-217"></path>
                <path d="M34.6790959,42.6214276 C33.3627696,41.0810923 32.2948309,40.3213002 30.9785046,38.7809649" id="Path-218"></path>
                <path d="M23.0825184,37.3037716 C26.5034459,34.2081411 26.5071511,36.6618634 27.2324396,37.5382904" id="Path-219"></path>
            </g>
        </g>
    </g>
</svg>