<?xml version="1.0" encoding="UTF-8"?>
<svg width="152px" height="152px" viewBox="0 0 152 152" version="1.1" xmlns="http://www.w3.org/2000/svg" xmlns:xlink="http://www.w3.org/1999/xlink">
    <!-- Generator: Sketch 44.1 (41455) - http://www.bohemiancoding.com/sketch -->
    <title>chickpeas</title>
    <desc>Created with Sketch.</desc>
    <defs></defs>
    <g id="Page-1" stroke="none" stroke-width="1" fill="none" fill-rule="evenodd" stroke-linecap="round" stroke-linejoin="round">
        <g id="chickpeas" stroke="#979797" stroke-width="2">
            <path d="M42.6568787,143.38669 C42.6568787,143.38669 18.9914036,153.127234 7.98947848,122.575935 C0.255527452,96.4143474 19.0129677,84.8062415 31.5675744,75.4369029 C42.4162055,67.0162036 42.2211334,67.1362591 43.396765,67.1362591 C44.5723966,67.1362591 49.0360034,71.6491224 57.3236841,78.6127229 C65.6113649,85.5763234 86.019191,96.1830089 77.9382322,122.575935 C67.551515,156.806406 42.6568787,143.38669 42.6568787,143.38669 C42.6568787,143.38669 39.3545853,130.7929 39.3545853,114.961467 C39.3545853,99.1300325 40.7724869,89.3623365 40.7724869,89.3623365" id="Path-686"></path>
            <path d="M71.0237545,37.836583 C71.0237545,37.836583 65.5406577,12.8392118 97.5382783,7.30960812 C124.645399,4.23606521 132.819957,24.7242642 139.866869,38.7151068 C146.275794,50.8611619 146.191436,50.648206 145.98729,51.8059771 C145.783144,52.9637482 140.563744,56.5758923 132.266796,63.528448 C123.969847,70.4810037 109.980519,88.7369575 85.3918047,76.1956831 C53.4850059,60.0227046 71.0237545,37.836583 71.0237545,37.836583 C71.0237545,37.836583 83.9996533,36.7713474 99.5905723,39.520447 C115.181491,42.2695467 124.554578,45.3620498 124.554578,45.3620498" id="Path-686"></path>
        </g>
    </g>
</svg>