<?xml version="1.0" encoding="UTF-8"?>
<svg width="152px" height="152px" viewBox="0 0 152 152" version="1.1" xmlns="http://www.w3.org/2000/svg" xmlns:xlink="http://www.w3.org/1999/xlink">
    <!-- Generator: Sketch 44.1 (41455) - http://www.bohemiancoding.com/sketch -->
    <title>chilipepper</title>
    <desc>Created with Sketch.</desc>
    <defs></defs>
    <g id="Page-1" stroke="none" stroke-width="1" fill="none" fill-rule="evenodd">
        <g id="chilipepper" stroke="#FF0000">
            <g id="Group" transform="translate(5.000000, 12.000000)">
                <path d="M131.286238,31.2614898 C98.5004137,3.45617239 97.931047,34.7985563 82.8012999,60.3412947 C63.293105,93.2759311 47.6410293,106.931865 10.6899662,89.0342121" id="Path-414" stroke-width="2.2"></path>
                <path d="M10.9951527,89.1145106 C-1.62468388,83.6947018 -3.2539923,97.873354 5.52535112,105.949381 C20.7130075,119.920348 49.19053,132.743702 69.0878436,127.962908 C98.5076559,120.894112 133.101629,95.4444947 139.799864,65.8764165 C141.08181,60.2175113 147.194652,30.8168813 130.733851,30.8168813" id="Path-421" stroke-width="2.2"></path>
                <path d="M127.907702,28.2377949 C142.997548,-29.3588736 140.052866,17.4171655 131.094575,30.539194" id="Path-422" stroke-width="2.2"></path>
                <path d="M103.999332,95.4447664 C103.999332,95.4447664 120.852318,80.2419446 125.898833,71.2003833 C130.945348,62.158822 129.02391,50.6096154 129.02391,50.6096154" id="Path-423" stroke-width="2" stroke-linecap="round"></path>
            </g>
        </g>
    </g>
</svg>