<?xml version="1.0" encoding="UTF-8"?>
<svg width="152px" height="152px" viewBox="0 0 152 152" version="1.1" xmlns="http://www.w3.org/2000/svg" xmlns:xlink="http://www.w3.org/1999/xlink">
    <!-- Generator: Sketch 44.1 (41455) - http://www.bohemiancoding.com/sketch -->
    <title>bokchoy</title>
    <desc>Created with Sketch.</desc>
    <defs></defs>
    <g id="Page-1" stroke="none" stroke-width="1" fill="none" fill-rule="evenodd">
        <g id="bokchoy" stroke="#979797">
            <path d="M73.4156687,145.779363 L71.0200687,145.619728 L68.3883628,145.779363 C68.3883628,145.779363 50.257348,148.363068 43.9926872,135.585271 C37.7280263,122.807474 46.6808402,100.791006 46.6808402,100.791006 C46.6808402,100.791006 52.2112607,89.2249957 47.8794657,78.3636936 L53.3122663,82.7894465 C53.3122663,82.7894465 29.8690163,66.3144336 24.5265616,43.7462288 C19.1841069,21.1780241 41.8200526,21.8645121 41.8200526,21.8645121 C41.8200526,21.8645121 52.5531488,9.14318466 62.1081116,17.4899845 C68.2089615,22.8194215 52.1149119,39.7162795 49.2205675,60.6074349 C47.2893259,74.5469886 49.7298225,77.4380476 53.3122663,82.7894465 C56.8947101,88.1408454 59.1386977,94.3504332 59.1386977,94.3504332 C59.1386977,94.3504332 60.9739748,99.209289 57.8592888,112.58917 C54.7446028,125.969051 73.0855519,133.821001 71.0200687,140.958232" id="Path-737" stroke-width="2"></path>
            <path d="M132.468652,145.779363 C132.468652,145.779363 114.337637,148.363068 108.072977,135.585271 C101.808316,122.807474 110.761129,100.791006 110.761129,100.791006 C110.761129,100.791006 114.382555,90.6510494 114.83129,86.1419463 C115.280025,81.6328432 110.761129,76 110.761129,76 C110.761129,76 87.7566199,64.30152 74.8695265,47.6885468 C61.982433,31.0755737 83.1584503,31.5652589 83.1584503,31.5652589 C83.1584503,31.5652589 98.5180137,9.46679172 108.072977,17.8135915 C114.173826,23.1430286 124.833923,40.325 121.939578,61.2161554 C120.429322,72.1170701 122.063562,86.2317558 122.847812,91.8673944 C122.863226,91.978158 121.979193,86.8561293 119.520885,83.5916728 C117.062577,80.3272164 110.742036,75.867894 110.761129,76 C110.780825,76.1362746 115.830364,79.3275736 119.520885,83.5916728 C123.211406,87.8557721 123.218987,94.3504332 123.218987,94.3504332 C123.218987,94.3504332 125.054264,99.209289 121.939578,112.58917 C118.824892,125.969051 136.651674,136.891808 134.586191,144.02904 L134.08572,145.779363" id="Path-737" stroke-width="2" transform="translate(102.731864, 80.961808) scale(-1, 1) translate(-102.731864, -80.961808) "></path>
            <path d="M59.6372121,103.645394 C59.6372121,103.645394 64.3123651,96.0296231 63.5429499,86.4821673 C63.2514007,82.864416 56.5398173,75.4681855 54.5553409,69.1876786 C52.5708646,62.9071717 52.0716902,49.7039227 52.0716902,49.7039227 C52.0716902,49.7039227 57.3754781,31.6043138 65.1325187,31.2585534 C68.3096936,31.1169348 76,35.7895337 76,35.7895337 C76,35.7895337 80.8895257,27.4179167 88.255503,31.2585534" id="Path-739" stroke-width="2"></path>
            <path d="M81.5426488,98.6154776 C81.5426488,98.6154776 78.1679336,92.9156119 78.4847097,87.0636871 C78.6250175,84.471728 81.5976985,78.3578068 82.6759255,73.3117372 C83.7541524,68.2656677 83.5352316,61.8057357 83.5352316,61.8057357" id="Path-740" stroke-width="2"></path>
            <path d="M58.4245679,15.0773847 C58.4245679,15.0773847 56.4709058,11.6899784 65.8957993,8.56960477 C69.4221779,7.40209886 75.0695561,8.17173994 80.7570986,9.59238059 C80.7570986,9.59238059 89.4710066,7.66755561 97.2001824,9.59238059 C104.929358,11.5172056 99.8963888,16.1663567 99.8963888,16.1663567" id="Path-741" stroke-width="2"></path>
            <path d="M84.5347784,84.0906768 C84.5347784,84.0906768 90.697112,63.1211973 98.4338597,49.9799253 C106.170607,36.8386533 116.773405,33.5545019 116.773405,33.5545019" id="Path-738" stroke-width="1.6" stroke-linecap="round"></path>
            <path d="M30.65135,74.9356817 C30.65135,74.9356817 32.0291447,66.5331468 39.7658924,53.3918748 C47.5026402,40.2506028 58.1054376,36.9664514 58.1054376,36.9664514" id="Path-738" stroke-width="1.6" stroke-linecap="round" transform="translate(44.378394, 55.951067) rotate(-50.000000) translate(-44.378394, -55.951067) "></path>
            <path d="M70.3863159,57.1556757 C70.3863159,57.1556757 68.8580647,62.4273299 68.8580647,68.5429055 C68.8580647,74.658481 71.5351448,81.2327988 71.5351448,84.5842174 C71.5351448,91.9289882 69.1302796,95.2695557 68.8580647,98.8072923 C68.5475019,102.843401 69.6470739,108.154156 69.6470739,108.154156" id="Path-742" stroke-width="1.6" stroke-linecap="round"></path>
        </g>
    </g>
</svg>