<?xml version="1.0" encoding="UTF-8"?>
<svg width="152px" height="152px" viewBox="0 0 152 152" version="1.1" xmlns="http://www.w3.org/2000/svg" xmlns:xlink="http://www.w3.org/1999/xlink">
    <!-- Generator: Sketch 44.1 (41455) - http://www.bohemiancoding.com/sketch -->
    <title>darkchocolate</title>
    <desc>Created with Sketch.</desc>
    <defs></defs>
    <g id="Page-1" stroke="none" stroke-width="1" fill="none" fill-rule="evenodd">
        <g id="darkchocolate" stroke="#979797">
            <g id="Group" transform="translate(32.000000, 5.000000)">
                <rect id="Rectangle-2" x="7.77941176" y="3.41403909" width="15.7426471" height="19.3982737" rx="3"></rect>
                <rect id="Rectangle-2" x="26.7058824" y="3.41403909" width="15.7426471" height="19.3982737" rx="3"></rect>
                <rect id="Rectangle-2" x="45.6323529" y="3.41403909" width="15.7426471" height="19.3982737" rx="3"></rect>
                <rect id="Rectangle-2" x="64.5588235" y="3.41403909" width="15.7426471" height="19.3982737" rx="3"></rect>
                <rect id="Rectangle-2" x="7.77941176" y="25.2693323" width="15.7426471" height="19.3982737" rx="3"></rect>
                <rect id="Rectangle-2" x="26.7058824" y="25.2693323" width="15.7426471" height="19.3982737" rx="3"></rect>
                <rect id="Rectangle-2" x="45.6323529" y="25.2693323" width="15.7426471" height="19.3982737" rx="3"></rect>
                <rect id="Rectangle-2" x="64.5588235" y="25.2693323" width="15.7426471" height="19.3982737" rx="3"></rect>
                <rect id="Rectangle-2" x="7.77941176" y="47.1246255" width="15.7426471" height="19.3982737" rx="3"></rect>
                <path d="M42.2205882,61.446896 L42.2205882,49.6246255 C42.2205882,47.9677713 40.8774425,46.6246255 39.2205882,46.6246255 L39.2205882,46.6246255 L29.2058824,46.6246255 L29.2058824,46.6246255 C27.5490281,46.6246255 26.2058824,47.9677713 26.2058824,49.6246255 L26.2058824,49.6246255 L26.2058824,64.0228992 C26.2058824,64.274301 26.236806,64.5184802 26.2950572,64.7518405 C31.9810979,63.5316879 37.2896083,62.4300397 42.2205882,61.446896 Z" id="Combined-Shape"></path>
                <path d="M61.1470588,57.9413873 L61.1470588,49.6246255 C61.1470588,47.9677713 59.8039131,46.6246255 58.1470588,46.6246255 L48.1323529,46.6246255 L48.1323529,46.6246255 C46.4754987,46.6246255 45.1323529,47.9677713 45.1323529,49.6246255 L45.1323529,49.6246255 L45.1323529,60.8715278 C51.0490027,59.7132536 56.387238,58.7365401 61.1470588,57.9413873 Z" id="Combined-Shape"></path>
                <path d="M80.0735294,55.4821681 L80.0735294,49.6246255 C80.0735294,47.9677713 78.7303837,46.6246255 77.0735294,46.6246255 L67.0588235,46.6246255 L67.0588235,46.6246255 C65.4019693,46.6246255 64.0588235,47.9677713 64.0588235,49.6246255 L64.0588235,49.6246255 L64.0588235,57.4661167 C70.6152903,56.4224052 75.9535256,55.761089 80.0735294,55.4821681 Z M78.3358097,66.7452081 C77.9521179,66.9234188 77.5244411,67.0228992 77.0735294,67.0228992 L67.0588235,67.0228992 C66.6170555,67.0228992 66.1975897,66.9274124 65.8199392,66.7559522 C68.951649,66.4330832 71.831423,66.2716486 74.4592611,66.2716486 C75.6788024,66.2716486 76.9709852,66.4295018 78.3358097,66.7452081 Z" id="Combined-Shape"></path>
                <path d="M2.20434114,70.4457031 C5.77990998,71.4606534 8.04176935,72.6779708 8.98991926,74.0976554 C9.93806916,75.5173401 9.31951859,78.0744809 7.13426753,81.7690779 C38.1230252,71.4374584 61.0499838,66.2716486 75.9151434,66.2716486 C81.4889438,66.2716486 88.5801264,69.5689839 97.1886911,76.1636544 C101.160217,62.2742737 97.2809982,55.3295834 85.5510342,55.3295834 C73.8210702,55.3295834 46.0388392,60.36829 2.20434114,70.4457031 C1.26386406,102.355422 0.793625517,120.38337 0.793625517,124.529547 C0.793625517,128.675724 1.26386406,131.66103 2.20434114,133.485465 C28.5033151,133.57422 41.649784,133.796121 41.6437478,134.151169 C41.6377117,134.506216 28.4912428,134.506216 2.20434114,134.151169 L0.793625517,142.678513 L84.7692878,143.778803 L83.4080476,134.913941 C58.5083398,134.704783 46.059862,134.450526 46.0626145,134.151169 C46.0653669,133.851812 58.5138446,133.62991 83.4080476,133.485465 C84.8367054,131.12033 85.5510342,128.352725 85.5510342,125.182651 C85.5510342,122.012577 85.5510342,103.452328 85.5510342,69.5019045" id="Path-822" stroke-width="2"></path>
                <path d="M4.37357489,69.5038104 L4.37357489,9.14592791 C4.30412938,5.13013267 4.84485839,2.61032803 5.99576191,1.58651401 C7.14666544,0.56269999 10.0229776,0.0427931382 14.6246984,0.0267934557 L74.742211,0.0267934557 C79.2454286,0.102079051 81.9948446,0.621985903 82.9904591,1.58651401 C83.9860735,2.55104212 84.3743377,5.07084675 84.1552515,9.14592791 L84.1552515,55.1814699" id="Path-823" stroke-width="2"></path>
            </g>
        </g>
    </g>
</svg>