<?xml version="1.0" encoding="UTF-8"?>
<svg width="152px" height="152px" viewBox="0 0 152 152" version="1.1" xmlns="http://www.w3.org/2000/svg" xmlns:xlink="http://www.w3.org/1999/xlink">
    <!-- Generator: Sketch 46.2 (44496) - http://www.bohemiancoding.com/sketch -->
    <title>applecider</title>
    <desc>Created with Sketch.</desc>
    <defs></defs>
    <g id="Page-1" stroke="none" stroke-width="1" fill="none" fill-rule="evenodd">
        <g id="applecider" stroke="#979797">
            <g id="Group" transform="translate(57.000000, 3.000000)">
                <path d="M21,146.007995 C16.0912345,145.999825 11.6506885,145.675073 7.67836198,145.033739 C3.70603552,144.392405 1.47991486,142.125336 1,138.232532 L1,75.5343486 C0.650825898,70.467933 1.11588312,66.6554562 2.39517166,64.0969181 C4.31410448,60.2591111 5.41932564,58.7118346 6.47235481,56.5430223 C7.17437426,55.0971475 7.54786571,52.8605248 7.59282916,49.833154 L12.1128764,10.1208338 C11.5562661,9.86804974 11.1875163,9.62011921 11.0066272,9.37704223 C10.825738,9.13396525 10.6878053,8.70102124 10.5928292,8.07821019 L10.5928292,1.84631641 C10.6700333,1.00204114 10.807966,0.490180579 11.0066272,0.310734727 C11.2052883,0.131288875 11.7486965,0.0277106327 12.6368517,0 L21,0" id="Path-162" stroke-width="2"></path>
                <path d="M37,146.007995 C32.0912345,145.999825 27.6506885,145.675073 23.678362,145.033739 C19.7060355,144.392405 17.4799149,142.125336 17,138.232532 L17,75.5343486 C16.6508259,70.467933 17.1158831,66.6554562 18.3951717,64.0969181 C20.3141045,60.2591111 21.4193256,58.7118346 22.4723548,56.5430223 C23.1743743,55.0971475 23.5478657,52.8605248 23.5928292,49.833154 L28.1128764,10.1208338 C27.5562661,9.86804974 27.1875163,9.62011921 27.0066272,9.37704223 C26.825738,9.13396525 26.6878053,8.70102124 26.5928292,8.07821019 L26.5928292,1.84631641 C26.6700333,1.00204114 26.807966,0.490180579 27.0066272,0.310734727 C27.2052883,0.131288875 27.7486965,0.0277106327 28.6368517,0 L37,0" id="Path-162" stroke-width="2" transform="translate(26.943848, 73.003998) scale(-1, 1) translate(-26.943848, -73.003998) "></path>
                <path d="M1.57605568,88.2904304 L5.76722091,88.2904304 C7.22523137,82.7553328 11.8101765,79.9787648 19.5220562,79.9607261 C27.2339359,79.9426874 31.6339846,82.7192555 32.7222023,88.2904304 L37.0041323,88.2904304 L37.0041323,127.30652 C29.7448141,128.660461 23.8401346,129.337431 19.290094,129.337431 C14.7400534,129.337431 8.83537394,128.660461 1.57605568,127.30652" id="Path-828" stroke-width="1.5"></path>
                <path d="M9.37854705,36.5872578 C13.7177094,36.9766827 16.9884033,37.1713952 19.1906287,37.1713952 C21.3928541,37.1713952 24.663548,36.9766827 29.0027104,36.5872578" id="Path-2" stroke-width="2"></path>
            </g>
            <path d="M72.5770112,125.118881 C73.0905766,123.219987 73.462747,121.085193 73.6935224,118.714499 C73.9242979,116.343804 73.9242979,113.674498 73.6935224,110.706578 C71.6940826,112.49743 69.9845199,113.12214 68.5648344,112.580709 C67.1451489,112.039278 66.9791167,110.507713 68.066738,107.986014 C65.1642823,107.718978 63.8154518,106.55164 64.0202466,104.484001 C64.2250414,102.416361 65.5738719,101.47959 68.066738,101.673689 C66.7640072,99.516411 66.5868392,97.95973 67.5352342,97.0036459 C68.4836291,96.0475618 69.9420507,95.7344765 71.9104988,96.0643901 C72.1449075,94.0569221 73.5185428,93.0357468 76.031405,93.0008642 C78.5442671,92.9659815 79.9676525,93.9871568 80.3015612,96.0643901 C82.9390524,94.7933957 84.697863,95.0004265 85.577993,96.6854826 C86.458123,98.3705386 86.1859072,100.221193 84.7613456,102.237447 C86.7717853,102.844705 87.7833816,103.724928 87.7961344,104.878118 C87.8088872,106.031308 86.7972909,107.067273 84.7613456,107.986014 C85.4082557,110.051801 85.0274438,111.33403 83.6189099,111.832702 C82.210376,112.331373 80.4038264,111.955999 78.1992611,110.706578 C77.9909466,112.940135 78.2179174,115.609442 78.8801735,118.714499 C79.5424296,121.819556 80.4177414,123.95435 81.5061091,125.118881" id="Path-843" stroke-width="1.5"></path>
        </g>
    </g>
</svg>