<?xml version="1.0" encoding="UTF-8"?>
<svg width="152px" height="152px" viewBox="0 0 152 152" version="1.1" xmlns="http://www.w3.org/2000/svg" xmlns:xlink="http://www.w3.org/1999/xlink">
    <!-- Generator: Sketch 44.1 (41455) - http://www.bohemiancoding.com/sketch -->
    <title>cilantro</title>
    <desc>Created with Sketch.</desc>
    <defs></defs>
    <g id="Page-1" stroke="none" stroke-width="1" fill="none" fill-rule="evenodd" stroke-linejoin="round">
        <g id="cilantro" stroke="#979797" stroke-width="2">
            <path d="M52.8072395,149.589852 C52.8072395,149.589852 44.3242307,133.54115 41.679919,125.196783 C39.0356073,116.852416 38.6252168,104.837183 38.6252168,104.837183 C38.6252168,104.837183 29.450846,104.158443 27.2842111,103.092634 C25.1175763,102.026825 25.8022774,98.5293352 25.8022774,98.5293352 C25.8022774,98.5293352 17.4354998,101.60479 13.0767781,102.453879 C8.71805649,103.302968 5.029871,102.453879 5.029871,100.715355 C5.029871,98.976831 11.2430147,96.0257106 11.2430147,96.0257106 C11.2430147,96.0257106 4.36975643,93.1763395 4.246046,91.3842182 C4.12233556,89.592097 10.6338339,87.2008616 10.6338339,87.2008616 C10.6338339,87.2008616 4.02525394,82.1672491 5.029871,79.7716234 C6.03448807,77.3759978 10.6338339,79.7716234 10.6338339,79.7716234 C10.6338339,79.7716234 33.9545861,92.5535782 31.4845696,88.3634798 C29.0145532,84.1733814 7.71277819,69.988931 7.71277819,69.988931 C7.71277819,69.988931 2.23733881,66.8109944 3.52209652,65.992799 C4.80685422,65.1746036 13.9876379,65.992799 13.9876379,65.992799 C13.9876379,65.992799 9.30983287,57.1804996 10.6338339,56.3373122 C11.9578349,55.4941248 20.7998232,61.6544723 20.7998232,61.6544723 C20.7998232,61.6544723 19.1374876,52.861669 20.1197119,52.2361414 C21.1019363,51.6106138 26.3411114,58.1255139 26.3411114,58.1255139 L25.0597448,45.6135049 C25.0597448,45.6135049 24.7666887,39.9834325 27.2842111,39.9834325 C29.8017336,39.9834325 33.1629247,45.6135049 33.1629247,45.6135049 C33.1629247,45.6135049 35.3522864,36.5251676 37.7976766,36.5251676 C40.2430668,36.5251676 43.0858406,45.6239239 43.0858406,45.6239239 C43.0858406,45.6239239 44.3137075,39.9834325 47.3530055,39.9834325 C50.3923035,39.9834325 50.0956176,45.6312841 50.0956176,45.6312841 L47.3530055,58.1255139 C47.3530055,58.1255139 56.4298452,49.0509735 57.7765762,49.550815 C59.1233073,50.0506565 57.7765762,58.1255139 57.7765762,58.1255139 C57.7765762,58.1255139 66.178171,53.8341184 66.8725512,54.5495138 C67.5669314,55.2649092 63.646171,64.1727501 63.646171,64.1727501 C63.646171,64.1727501 77.6645011,61.1033563 72.2685261,67.3729519 C69.4167313,70.6864587 59.6666784,75.1576089 52.8072395,79.7716234 C45.9478006,84.385638 41.9351337,90.3064518 45.097481,89.4781107 C46.6794624,89.0637286 54.4528301,83.8076799 60.7745859,82.0545412 C67.0963417,80.3014026 70.0159795,79.7716234 71.1369822,82.0545412 C72.257985,84.337459 66.8725512,88.3634798 66.8725512,88.3634798 C66.8725512,88.3634798 73.8137146,90.1310463 73.7458011,91.3842182 C73.6778875,92.6373902 67.6914062,96.0257106 67.6914062,96.0257106 C67.6914062,96.0257106 71.2200347,101.560113 71.1369822,103.092634 C71.0539298,104.625155 64.6094634,103.171168 64.6094634,103.171168 L50.3923035,97.7199935 C50.3923035,97.7199935 49.1250622,101.210436 47.3530055,102.453879 C45.5809487,103.697321 40.4308941,104.837183 40.4308941,104.837183 C40.4308941,104.837183 41.27044,117.954927 43.0858406,124.253695 C44.9012412,130.552463 53.6811032,149.589852 53.6811032,149.589852" id="Path-757"></path>
            <path d="M100.079325,116.775079 C100.079325,116.775079 108.562334,100.726377 111.206645,92.38201 C113.850957,84.0376426 114.261347,72.02241 114.261347,72.02241 C114.261347,72.02241 123.435718,71.3436696 125.602353,70.2778607 C127.768988,69.2120518 127.084287,65.7145622 127.084287,65.7145622 C127.084287,65.7145622 135.451064,68.7900166 139.809786,69.6391059 C144.168508,70.4881953 147.856693,69.6391059 147.856693,67.900582 C147.856693,66.162058 141.64355,63.2109376 141.64355,63.2109376 C141.64355,63.2109376 148.516808,60.3615665 148.640518,58.5694453 C148.764229,56.777324 142.25273,54.3860886 142.25273,54.3860886 C142.25273,54.3860886 148.86131,49.3524761 147.856693,46.9568505 C146.852076,44.5612248 142.25273,46.9568505 142.25273,46.9568505 C142.25273,46.9568505 118.931978,59.7388052 121.401995,55.5487068 C123.872011,51.3586085 145.173786,37.174158 145.173786,37.174158 C145.173786,37.174158 150.649225,33.9962215 149.364468,33.1780261 C148.07971,32.3598307 138.898926,33.1780261 138.898926,33.1780261 C138.898926,33.1780261 143.576731,24.3657266 142.25273,23.5225392 C140.928729,22.6793518 132.086741,28.8396993 132.086741,28.8396993 C132.086741,28.8396993 133.749077,20.0468961 132.766852,19.4213684 C131.784628,18.7958408 126.545453,25.3107409 126.545453,25.3107409 L127.826819,12.798732 C127.826819,12.798732 128.119876,7.16865953 125.602353,7.16865953 C123.084831,7.16865953 119.72364,12.798732 119.72364,12.798732 C119.72364,12.798732 117.534278,3.71039459 115.088888,3.71039459 C112.643497,3.71039459 109.800724,12.8091509 109.800724,12.8091509 C109.800724,12.8091509 108.572857,7.16865953 105.533559,7.16865953 C102.494261,7.16865953 102.790947,12.8165111 102.790947,12.8165111 L105.533559,25.3107409 C105.533559,25.3107409 96.4567191,16.2362005 95.109988,16.736042 C93.763257,17.2358836 95.109988,25.3107409 95.109988,25.3107409 C95.109988,25.3107409 86.7083933,21.0193454 86.0140131,21.7347408 C85.3196328,22.4501363 89.2403932,31.3579771 89.2403932,31.3579771 C89.2403932,31.3579771 75.2220632,28.2885834 80.6180381,34.5581789 C83.469833,37.8716858 93.2198858,42.3428359 100.079325,46.9568505 C106.938764,51.570865 110.951431,57.4916788 107.789083,56.6633377 C106.207102,56.2489556 98.4337341,50.9929069 92.1119784,49.2397683 C85.7902226,47.4866296 82.8705848,46.9568505 81.749582,49.2397683 C80.6285792,51.5226861 86.0140131,55.5487068 86.0140131,55.5487068 C86.0140131,55.5487068 79.0728496,57.3162733 79.1407632,58.5694453 C79.2086768,59.8226172 85.195158,63.2109376 85.195158,63.2109376 C85.195158,63.2109376 81.6665296,68.7453396 81.749582,70.2778607 C81.8326345,71.8103817 88.2771009,70.3563952 88.2771009,70.3563952 L102.494261,64.9052205 C102.494261,64.9052205 103.761502,68.3956634 105.533559,69.6391059 C107.305616,70.8825484 112.45567,72.02241 112.45567,72.02241 C112.45567,72.02241 111.616124,85.1401539 109.800724,91.4389221 C107.985323,97.7376903 99.2054611,116.775079 99.2054611,116.775079" id="Path-757"></path>
        </g>
    </g>
</svg>