<?xml version="1.0" encoding="UTF-8"?>
<svg width="152px" height="152px" viewBox="0 0 152 152" version="1.1" xmlns="http://www.w3.org/2000/svg" xmlns:xlink="http://www.w3.org/1999/xlink">
    <!-- Generator: Sketch 44.1 (41455) - http://www.bohemiancoding.com/sketch -->
    <title>cinnamon</title>
    <desc>Created with Sketch.</desc>
    <defs></defs>
    <g id="Page-1" stroke="none" stroke-width="1" fill="none" fill-rule="evenodd">
        <g id="cinnamon" stroke="#979797" stroke-width="2">
            <g id="Group" transform="translate(-3.000000, 23.000000)">
                <path d="M70.3520824,91.1046841 C75.4326649,83.0251669 68.4863853,74.7437482 60.2212157,79.5779489 C51.956046,84.4121496 42.2669219,102.616452 70.3520824,102.616452 C101.004852,102.616452 97.2706354,85.2470166 88.4429395,79.5779489 C79.6152436,73.9088812 69.7518458,81.7297605 80.4103965,91.1046841" id="Path-768" stroke-linecap="round"></path>
                <path d="M23.1328658,83.3539244 C23.9538965,76.134656 20.6823144,68.7692135 12.7503838,73.2705675 C4.81845325,77.7719215 -4.48002014,94.7228122 22.4727894,94.7228122 C51.8896858,94.7228122 53.5799587,82.1981055 43.5921495,68.427396 C33.6043403,54.6566865 17.0845725,81.2301284 32.9737062,81.7002954" id="Path-768" stroke-linecap="round" transform="translate(26.814956, 79.597572) scale(-1, 1) rotate(50.000000) translate(-26.814956, -79.597572) "></path>
                <path d="M45.7589006,79.5254129 L113.970449,10.9312932 C113.970449,10.9312932 118.944242,6.67716144 113.970449,2.1119393 C108.996656,-2.45328285 101.019315,3.81931861 101.019315,3.81931861 L28.4923619,66.0057596" id="Path-769"></path>
                <path d="M8.62876586,77.7388235 L94.192362,3.69836919 C94.192362,3.69836919 97.2989809,1.31278982 98.8846901,0.92336111 C100.470399,0.533932402 105.491878,0.92336111 105.491878,0.92336111" id="Path-770"></path>
                <path d="M57.843895,81.537598 L131.076467,8.75453754 C131.076467,8.75453754 134.988961,5.35100296 138.030147,7.49394522 C141.071332,9.63688748 140.701425,9.72339858 140.701425,9.72339858 L77.3409474,79.6017644 L140.701425,9.72339858 C140.701425,9.72339858 146.113424,6.61598811 149.752857,9.72339858 C153.392291,12.830809 151.189137,16.2332536 151.189137,16.2332536 L93.152201,95.3443636" id="Path-771"></path>
                <path d="M31.893748,79.3375431 L45.4341826,66.9012323" id="Path-772"></path>
                <path d="M80.1700406,91.3169783 L89.7167543,79.8853957" id="Path-772"></path>
            </g>
        </g>
    </g>
</svg>