<?xml version="1.0" encoding="UTF-8"?>
<svg width="152px" height="152px" viewBox="0 0 152 152" version="1.1" xmlns="http://www.w3.org/2000/svg" xmlns:xlink="http://www.w3.org/1999/xlink">
    <!-- Generator: Sketch 44.1 (41455) - http://www.bohemiancoding.com/sketch -->
    <title>coconut</title>
    <desc>Created with Sketch.</desc>
    <defs></defs>
    <g id="Page-1" stroke="none" stroke-width="1" fill="none" fill-rule="evenodd">
        <g id="coconut" stroke="#979797">
            <g id="Group" transform="translate(5.000000, 14.000000)">
                <path d="M55.7413042,100.411221 C49.1911916,101.443616 41.3730802,101.695574 26.5491509,93.2904141 C-19.9599131,66.9198007 -2.42755522,-1.9793863 56.6339521,0.459144181 C67.304776,0.899720974 83.63943,11.7104293 89.0443374,18.1076647 C94.4892474,24.5522469 99.5872758,34.9252691 98.1006321,45.4972727" id="Path-687" stroke-width="2"></path>
                <ellipse id="Oval" stroke-width="1.5" cx="41.2899321" cy="9.38643247" rx="4.40130173" ry="3.28982435"></ellipse>
                <ellipse id="Oval" stroke-width="1.5" cx="57.7948136" cy="8.28982435" rx="4.40130173" ry="3.28982435"></ellipse>
                <ellipse id="Oval" stroke-width="1.5" cx="50.6426983" cy="16.5143852" rx="4.95146445" ry="3.83812841"></ellipse>
                <path d="M94.0677966,108.75 C118.312161,108.75 134.8327,98.1533522 137.966102,78.75 C137.966102,62.1814575 118.312161,48.75 94.0677966,48.75 C69.8234322,48.75 50.1694915,62.1814575 50.1694915,78.75 C50.1694915,95.3185425 69.8234322,108.75 94.0677966,108.75 Z" id="Oval-35" stroke-width="2" transform="translate(94.067797, 78.750000) rotate(-30.000000) translate(-94.067797, -78.750000) "></path>
                <path d="M94.421296,101.001766 C109.982007,101.045213 129.648988,91.5747042 129.648988,78.6443488 C129.648988,65.7139934 113.596242,55.2318693 93.7941774,55.2318693 C73.9921125,55.2318693 58.1171303,68.3071277 57.9393671,78.6443488 C57.761604,88.98157 74.6192311,101.001766 94.421296,101.001766 Z" id="Oval-35" stroke-width="1.5" transform="translate(93.793481, 78.116892) rotate(-30.000000) translate(-93.793481, -78.116892) "></path>
                <path d="M58.2930367,103.933902 C78.5266943,126.413026 113.129194,146.668279 137.285724,105.649527 C146.765595,89.5523289 139.881867,67.5814431 131.825536,56.6048173" id="Path-688" stroke-width="2"></path>
                <path d="M22.436458,25.4693573 C9.70181598,43.7824065 13.1482994,71.2156209 33.4307748,90.1446952" id="Path-689" stroke-width="1.5" stroke-linecap="round"></path>
            </g>
        </g>
    </g>
</svg>