<?xml version="1.0" encoding="UTF-8"?>
<svg width="152px" height="152px" viewBox="0 0 152 152" version="1.1" xmlns="http://www.w3.org/2000/svg" xmlns:xlink="http://www.w3.org/1999/xlink">
    <!-- Generator: Sketch 44.1 (41455) - http://www.bohemiancoding.com/sketch -->
    <title>corn</title>
    <desc>Created with Sketch.</desc>
    <defs></defs>
    <g id="Page-1" stroke="none" stroke-width="1" fill="none" fill-rule="evenodd" stroke-linecap="round" stroke-linejoin="round">
        <g id="corn" stroke="#979797">
            <g id="Group" transform="translate(73.250000, 76.933013) rotate(30.000000) translate(-73.250000, -76.933013) translate(23.750000, -7.066987)">
                <path d="M30.7231557,30.0011051 C29.0647635,23.7011504 25.7597422,13.4890275 25.7597422,13.4890275 C25.7597422,13.4890275 20.1743741,33.8840925 18.9594124,45.1748121 C17.7444506,56.4655316 21.7922955,79.5259182 21.7922955,79.5259182 L34.4064846,106.866409 C34.4064846,106.866409 18.8946882,67.1159728 10.015898,69.8539833 C1.1371079,72.5919939 0.584777658,91.4181233 0.584777658,91.4181233 C0.584777658,91.4181233 8.53141876,80.3518229 12.3745597,80.1177289 C16.2177007,79.8836349 16.8787163,90.4256244 16.8787163,90.4256244 C16.8787163,90.4256244 18.8356887,128.011598 25.1133369,148.155185 C31.390985,168.298773 40.5429793,166.359021 40.5429793,166.359021 C40.5429793,166.359021 42.218095,167.764114 44.0722323,167.764114 C45.9263697,167.764114 47.5690413,166.176019 47.5690413,166.176019 C47.5690413,166.176019 59.6001899,165.176199 66.8113322,145.838011 C74.0224744,126.499823 75.1359346,113.210138 80.3771039,105.457594 C80.3771039,105.457594 76.6387143,106.997481 74.0224744,108.895783 C71.4062344,110.794085 70.6065971,113.806967 70.6065971,113.806967 C70.6065971,113.806967 80.6573271,76.4781849 85.3333134,62.7322971 C90.0092996,48.9864093 98.9682932,35.9460413 98.9682932,35.9460413 C98.9682932,35.9460413 86.1076337,43.5702271 80.3771039,56.547768 C77.1795007,63.7891623 70.3639052,96.5542152 61.0436572,123.579017 C51.7234092,150.603819 40.5429793,166.359021 40.5429793,166.359021 L45.6379541,158.372547 C45.6379541,158.372547 37.0764105,130.292952 35.8048903,117.712263 C35.197744,111.705029 31.0656617,86.7357615 30.7231557,69.8539833 C30.3806498,52.9722052 33.0123682,38.3988941 33.0123682,38.3988941 C33.0123682,38.3988941 32.3815479,36.3010598 30.7231557,30.0011051 Z" id="Path-758" stroke-width="2"></path>
                <path d="M33.0042604,38.3476044 C33.0042604,38.3476044 38.0929047,0.000172298808 53.6947384,0.000172298808 C69.2965722,0.000172298808 77.4901701,64.7288383 77.4901701,64.7288383" id="Path-759" stroke-width="2"></path>
                <path d="M51.0859223,0.592608198 C51.0859223,0.592608198 42.6013299,16.0161052 39.1550593,42.0427852 C35.7087886,68.0694653 35.2304137,106.966907 35.2304137,106.966907" id="Path-760" stroke-width="1.4"></path>
                <path d="M53.0407883,0.821812662 C53.0407883,0.821812662 48.6917117,36.02301 46.5365643,71.6023748 C44.3814169,107.181739 46.5365643,154.916376 46.5365643,154.916376" id="Path-761" stroke-width="1.4"></path>
                <path d="M54.5890073,0.915266353 C54.5890073,0.915266353 57.6787684,18.9547456 58.5110699,45.2307718 C59.3433714,71.506798 57.0630646,133.158726 57.0630646,133.158726" id="Path-763" stroke-width="1.4"></path>
                <path d="M56.0713384,0.816954214 C56.0713384,0.816954214 64.1513602,18.4047788 66.7269366,40.4179542 C69.302513,62.4311296 67.9451535,95.4484714 67.9451535,95.4484714" id="Path-764" stroke-width="1.4"></path>
                <path d="M41.7048909,9.93748535 C41.7048909,9.93748535 46.7483953,13.7220231 53.4550682,13.7220231 C60.1617411,13.7220231 64.5467779,10.8602251 64.5467779,10.8602251" id="Path-765" stroke-width="1.4"></path>
                <path d="M37.0741438,20.7534854 C37.0741438,20.7534854 43.7762022,24.5380231 52.6883611,24.5380231 C61.6005201,24.5380231 68.3025784,21.3649237 68.3025784,21.3649237" id="Path-765" stroke-width="1.4"></path>
                <path d="M35.2304137,31.5694854 C35.2304137,31.5694854 42.6986632,35.3540231 52.629676,35.3540231 C62.5606888,35.3540231 70.0289384,32.1809237 70.0289384,32.1809237" id="Path-765" stroke-width="1.4"></path>
                <path d="M32.1129026,43.8500058 C32.1129026,43.8500058 40.4223772,47.5220231 52.1784247,47.5220231 C63.9344721,47.5220231 72.7751712,44.3489237 72.7751712,44.3489237" id="Path-765" stroke-width="1.4"></path>
                <path d="M31.5816781,55.9054854 C31.5816781,55.9054854 41.0064122,59.6900231 53.5390887,59.6900231 C66.0717652,59.6900231 75.4964994,56.5169237 75.4964994,56.5169237" id="Path-765" stroke-width="1.4"></path>
                <path d="M31.5816781,68.0734854 C31.5816781,68.0734854 41.0064122,71.8580231 53.5390887,71.8580231 C66.0717652,71.8580231 76.1161431,68.3716013 76.1161431,68.3716013" id="Path-765" stroke-width="1.4"></path>
                <path d="M31.5816781,80.2414854 C31.5816781,80.2414854 40.4223772,84.0260231 52.1784247,84.0260231 C63.9344721,84.0260231 72.7751712,80.8529237 72.7751712,80.8529237" id="Path-765" stroke-width="1.4"></path>
                <path d="M33.109779,94.3729237 C33.109779,94.3729237 39.8329973,97.5460231 50.8053082,97.5460231 C61.7776192,97.5460231 70.0289384,94.3729237 70.0289384,94.3729237" id="Path-765" stroke-width="1.4"></path>
                <path d="M34.327911,107.281485 C34.327911,107.281485 41.0299693,111.066023 49.9421283,111.066023 C58.8542872,111.066023 65.5563456,107.892924 65.5563456,107.892924" id="Path-765" stroke-width="1.4"></path>
                <path d="M37.0741438,120.801485 C37.0741438,120.801485 42.1176482,123.679599 48.8243211,123.679599 C55.530994,123.679599 60.5744984,121.412924 60.5744984,121.412924" id="Path-765" stroke-width="1.4"></path>
                <path d="M39.8203767,133.415062 C39.8203767,133.415062 43.2771317,135.086025 47.8738016,135.086025 C52.4704715,135.086025 55.9272265,133.770048 55.9272265,133.770048" id="Path-765" stroke-width="1.4"></path>
            </g>
        </g>
    </g>
</svg>