<?xml version="1.0" encoding="UTF-8"?>
<svg width="152px" height="152px" viewBox="0 0 152 152" version="1.1" xmlns="http://www.w3.org/2000/svg" xmlns:xlink="http://www.w3.org/1999/xlink">
    <!-- Generator: Sketch 46.2 (44496) - http://www.bohemiancoding.com/sketch -->
    <title>cornoil</title>
    <desc>Created with Sketch.</desc>
    <defs></defs>
    <g id="Page-1" stroke="none" stroke-width="1" fill="none" fill-rule="evenodd">
        <g id="cornoil" stroke="#979797">
            <g id="Group" transform="translate(48.000000, 1.000000)">
                <path d="M28.5564505,0.925348249 L20.3716127,0.925348249 C20.3716127,0.925348249 18.5656501,0.893470511 18.0220364,1.64391346 C17.4784227,2.3943564 17.5967529,4.75596199 17.5967529,4.75596199 L17.5967529,12.5982938 C17.5967529,12.5982938 18.4622153,13.2033772 18.4634623,13.8997458 C18.4647093,14.5961145 17.5866058,15.2268607 17.5892066,15.4130914 C17.6000245,16.1877366 17.6344621,16.9779714 17.724669,17.2589227 C17.9218177,17.8729462 19.0209292,18.0339191 19.0209292,18.0339191 C19.0209292,18.0339191 18.9129332,21.2708808 18.4634623,22.7908225 C18.0139914,24.3107642 16.621669,26.1473149 16.621669,26.1473149 L5.20262582,42.663248 C5.20262582,42.663248 2.6600661,46.0206045 1.53054776,49.0122137 C0.401029421,52.003823 0.401029421,57.7119412 0.401029421,57.7119412 L0.401029421,128.413655 C0.401029421,128.413655 0.0169128544,137.575121 5.20262582,143.709154 C10.3883388,149.843187 28.5564505,149.532386 28.5564505,149.532386 L29.2241755,149.532386" id="Path-621" stroke-width="2.2" stroke-linejoin="round"></path>
                <path d="M55.5564505,0.925348249 L47.3716127,0.925348249 C47.3716127,0.925348249 45.5656501,0.893470511 45.0220364,1.64391346 C44.4784227,2.3943564 44.5967529,4.75596199 44.5967529,4.75596199 L44.5967529,12.5982938 C44.5967529,12.5982938 45.4622153,13.2033772 45.4634623,13.8997458 C45.4647093,14.5961145 44.5866058,15.2268607 44.5892066,15.4130914 C44.6000245,16.1877366 44.6344621,16.9779714 44.724669,17.2589227 C44.9218177,17.8729462 46.0209292,18.0339191 46.0209292,18.0339191 C46.0209292,18.0339191 45.9129332,21.2708808 45.4634623,22.7908225 C45.0139914,24.3107642 43.621669,26.1473149 43.621669,26.1473149 L32.2026258,42.663248 C32.2026258,42.663248 29.6600661,46.0206045 28.5305478,49.0122137 C27.4010294,52.003823 27.4010294,57.7119412 27.4010294,57.7119412 L27.4010294,128.413655 C27.4010294,128.413655 27.0169129,137.575121 32.2026258,143.709154 C37.3883388,149.843187 55.5564505,149.532386 55.5564505,149.532386 L56.2241755,149.532386" id="Path-621" stroke-width="2.2" stroke-linejoin="round" transform="translate(41.809405, 75.230085) scale(-1, 1) translate(-41.809405, -75.230085) "></path>
                <path d="M18.4868243,12.9761473 L38.5220362,12.9770667" id="Path-622" stroke-width="2"></path>
                <path d="M0.934307764,58.719242 C0.934307764,58.719242 13.3299254,59.9915729 28.4293808,59.9915729 C43.5288361,59.9915729 55.9244537,58.719242 55.9244537,58.719242" id="Path-623" stroke-width="2"></path>
                <path d="M0.547290222,127.106136 C0.547290222,127.106136 12.9884068,130.959623 28.4225105,130.959623 C43.8566143,130.959623 56.2977309,127.106136 56.2977309,127.106136" id="Path-624" stroke-width="2"></path>
            </g>
            <g id="Group" transform="translate(57.000000, 64.000000)" stroke-linecap="round" stroke-linejoin="round">
                <path d="M11.2529198,37.1080893 C11.2529198,37.1080893 7.07208515,25.8563598 3.64270958,26.9212151 C0.213334003,27.9860703 4.26325641e-14,35.3078472 4.26325641e-14,35.3078472 C4.26325641e-14,35.3078472 3.06933901,31.0039895 4.55372748,30.9129466 C6.03811596,30.8219038 6.29342899,34.9218488 6.29342899,34.9218488 C6.29342899,34.9218488 7.049297,49.5396233 9.47399821,57.3737802 C11.8986994,65.2079371 15.4335983,64.4535374 15.4335983,64.4535374 C15.4335983,64.4535374 16.080601,65 16.7967496,65 C17.5128983,65 18.1473696,64.3823648 18.1473696,64.3823648 C18.1473696,64.3823648 22.7943234,63.9935191 25.5795807,56.4725946 C28.364838,48.9516702 38,13.7338848 38,13.7338848 C38,13.7338848 33.032653,16.6990502 30.8192727,21.7462193 C29.5842191,24.5625111 26.9517392,37.3053539 23.3518533,47.8157231 C19.7519675,58.3260923 15.4335983,64.4535374 15.4335983,64.4535374 L17.4014996,61.3474725 C17.4014996,61.3474725 14.0946585,50.4268777 13.6035419,45.5340504 C13.3690356,43.197743 11.3852105,36.2147493 11.2529198,29.6491611 C11.1206291,23.0835729 13.0634167,14.648216 13.0634167,14.648216 C13.0634167,14.648216 11.1714057,25.6181606 11.2529198,29.6491611 C11.334434,33.6801616 11.2529198,37.1080893 11.2529198,37.1080893 Z" id="Path-758" stroke-width="2"></path>
                <path d="M13,14.8108383 C13,14.8108383 14.9445922,6.50108281e-14 20.9067311,6.39488462e-14 C26.8688701,6.39488462e-14 30,25 30,25" id="Path-759" stroke-width="2"></path>
                <path d="M20,0 C20,0 16.7892828,5.94470078 15.4851541,15.9762017 C14.1810254,26.0077027 14,41 14,41" id="Path-760" stroke-width="1.4"></path>
                <path d="M21,-7.10542736e-15 C21,-7.10542736e-15 20.3278193,14.8995442 19.4085598,28.9057921 C18.4893003,42.9120399 19.4085598,58 19.4085598,58" id="Path-761" stroke-width="1.4"></path>
                <path d="M22,0 C22,0 23.5054281,6.97772368 23.9109514,17.141368 C24.3164747,27.3050123 23.205438,49 23.205438,49" id="Path-763" stroke-width="1.4"></path>
                <path d="M16,4 C16,4 17.7664055,5 20.1153088,5 C22.464212,5 24,4.24381836 24,4.24381836" id="Path-765" stroke-width="1.4"></path>
                <path d="M15,8 C15,8 17.7899816,9 21.5,9 C25.2100184,9 26,8.16156224 26,8.16156224" id="Path-765" stroke-width="1.4"></path>
                <path d="M14,13 C14,13 17.0045956,14 21,14 C24.9954044,14 28,13.1615622 28,13.1615622" id="Path-765" stroke-width="1.4"></path>
                <path d="M13,17 C13,17 16.2696551,18 20.8954855,18 C25.5213159,18 29,17.1358703 29,17.1358703" id="Path-765" stroke-width="1.4"></path>
                <path d="M13,22 C13,22 16.6484375,23 21.5,23 C26.3515625,23 30,22.1615622 30,22.1615622" id="Path-765" stroke-width="1.4"></path>
                <path d="M13,26 C13,26 16.5976739,27 21.3817327,27 C26.1657915,27 30,26.0787721 30,26.0787721" id="Path-765" stroke-width="1.4"></path>
                <path d="M12,31 C12,31 15.4338235,32 20,32 C24.5661765,32 28,31.1615622 28,31.1615622" id="Path-765" stroke-width="1.4"></path>
                <path d="M12,37 C12,37 14.7315973,38 19.1895716,38 C23.6475459,38 27,37 27,37" id="Path-765" stroke-width="1.4"></path>
                <path d="M13.0552523,42.1615622 C13.0552523,42.1615622 14.7899816,43 18.5,43 C22.2100184,43 25,42.1615622 25,42.1615622" id="Path-765" stroke-width="1.4"></path>
                <path d="M15,47 C15,47 16.9315257,48 19.5,48 C22.0684743,48 24,47.2124441 24,47.2124441" id="Path-765" stroke-width="1.4"></path>
                <path d="M16,52 C16,52 17.2876838,52.6006371 19,52.6006371 C20.7123162,52.6006371 22,52.1276018 22,52.1276018" id="Path-765" stroke-width="1.4"></path>
            </g>
        </g>
    </g>
</svg>