<?xml version="1.0" encoding="UTF-8"?>
<svg width="152px" height="152px" viewBox="0 0 152 152" version="1.1" xmlns="http://www.w3.org/2000/svg" xmlns:xlink="http://www.w3.org/1999/xlink">
    <!-- Generator: Sketch 46.2 (44496) - http://www.bohemiancoding.com/sketch -->
    <title>tortilla</title>
    <desc>Created with Sketch.</desc>
    <defs></defs>
    <g id="Page-1" stroke="none" stroke-width="1" fill="none" fill-rule="evenodd">
        <g id="tortilla" stroke="#979797" stroke-width="2">
            <g id="Group" transform="translate(3.000000, 22.000000)">
                <path d="M105.817599,2.84500101 C104.665786,18.1221654 97.5016225,29.0428018 84.3251067,35.6069103 C64.5603329,45.4530731 29.9411339,39.9283824 23.7966066,41.9075789 C17.6520793,43.8867754 5.9747178,44.9193996 11.3987043,66.8241679 C15.0146952,81.4273467 20.0411938,86.718626 26.4782,82.6980056 C27.4932581,78.3834541 27.7910967,75.1136425 27.3717158,72.8885708 C25.0353894,60.4929324 20.8324241,51.8112823 20.8324241,49.4280726 C20.8324241,46.4031679 25.0024694,43.7681467 33.3425602,41.523009 C25.0565997,43.3081554 20.8865544,45.9431765 20.8324241,49.4280726 C20.7871103,52.3453612 27.2696045,71.1730911 27.3717158,73.7475813 C27.5056036,77.123236 27.2077649,80.1067108 26.4782,82.6980056 L124.895159,20.3039017 C129.034947,15.7255923 129.034947,10.5773466 124.895159,4.8591647 C120.75537,-0.859017222 114.396184,-1.53040512 105.817599,2.84500101 L105.817599,0.0652234516 L16.1324599,44.6423026" id="Path-832" stroke-linejoin="round"></path>
                <path d="M124.510126,20.8683596 C150.615329,41.1370655 150.271404,61.4744668 123.478353,81.8805633 C96.6853021,102.28666 63.9518574,102.83301 25.2780192,83.5196148" id="Path-834"></path>
                <path d="M90,7.61327809 C61.2250835,3.1489184 37.4962011,7.95009123 18.8133528,22.0167966 C0.130504558,36.0835019 -1.99756134,52.7445697 12.4291551,72" id="Path-833"></path>
                <path d="M6.05516307,36.3982015 C-9.96179995,50.8265637 5.2636958,109.627801 80.3169312,104.705435 C155.370167,99.7830695 150.746493,52.5915849 142.054169,41.9482841" id="Path-835"></path>
            </g>
        </g>
    </g>
</svg>