<?xml version="1.0" encoding="UTF-8"?>
<svg width="152px" height="152px" viewBox="0 0 152 152" version="1.1" xmlns="http://www.w3.org/2000/svg" xmlns:xlink="http://www.w3.org/1999/xlink">
    <!-- Generator: Sketch 44.1 (41455) - http://www.bohemiancoding.com/sketch -->
    <title>cucumber</title>
    <desc>Created with Sketch.</desc>
    <defs></defs>
    <g id="Page-1" stroke="none" stroke-width="1" fill="none" fill-rule="evenodd" stroke-linecap="round" stroke-linejoin="round">
        <g id="cucumber" stroke="#979797" stroke-width="2">
            <g id="Group" transform="translate(75.747583, 75.895621) rotate(10.000000) translate(-75.747583, -75.895621) translate(-1.752417, 38.895621)">
                <path d="M5.41441176,9.91636431 C5.41441176,9.91636431 7.45016947,6.66589219 7.25596528,6.53524944 C7.17759363,6.48252819 5.5159168,9.98627091 5.41441176,9.91636431 C4.39043561,9.21115114 1.73269945,7.30189398 1.11016807,6.17487184 C0.273008178,4.65928923 2.13323425,4.21547694 2.13323425,4.21547694 L7.25596528,6.53524944 C7.25596528,6.53524944 10.4824138,0.699301919 22.9808963,0.699301919 C35.4793788,0.699301919 51.9727986,9.91636431 51.9727986,9.91636431 C51.9727986,9.91636431 72.8757627,19.9708274 87.911182,25.1428605 C102.946601,30.3148935 124.236361,34.7743032 124.236361,34.7743032 C124.236361,34.7743032 156.885469,36.8724684 154.533639,58.4213866 C152.181808,79.9703049 119.359497,71.572104 119.359497,71.572104 C119.359497,71.572104 55.1607212,56.0930648 25.7011168,40.5894303 C-0.169021099,26.7885088 5.41441176,9.91636431 5.41441176,9.91636431 Z" id="Path-754"></path>
                <path d="M90.8929496,56.3769875 C90.8929496,56.3769875 118.60366,64.8780328 131.446868,65.8780295 C144.290075,66.8780262 153.218108,61.2297435 153.218108,61.2297435" id="Path-755"></path>
                <path d="M13.7405504,7.6241833 C13.7405504,7.6241833 19.8636899,6.17550078 33.9837761,10.6070486 C43.270306,13.5215989 64.4382605,26.4878762 79.8875759,31.9889727 C95.3368913,37.4900692 102.771078,38.3002818 102.771078,38.3002818" id="Path-756"></path>
            </g>
        </g>
    </g>
</svg>