<?xml version="1.0" encoding="UTF-8"?>
<svg width="152px" height="152px" viewBox="0 0 152 152" version="1.1" xmlns="http://www.w3.org/2000/svg" xmlns:xlink="http://www.w3.org/1999/xlink">
    <!-- Generator: Sketch 44.1 (41455) - http://www.bohemiancoding.com/sketch -->
    <title>currant</title>
    <desc>Created with Sketch.</desc>
    <defs></defs>
    <g id="Page-1" stroke="none" stroke-width="1" fill="none" fill-rule="evenodd">
        <g id="currant" stroke="#FF0000" stroke-width="2">
            <g id="Group" transform="translate(4.000000, 11.000000)">
                <path d="M109.098561,57.9583988 C108.558622,57.9087386 108.012768,57.8832117 107.461818,57.8832117 C96.1858214,57.8832117 86.2105263,66.89567 86.2105263,78.0131008 C86.2105263,89.1305315 96.1858214,98.1429899 107.461818,98.1429899 C118.737814,98.1429899 127.878815,87.4503862 127.878815,78.0131008 C127.878815,74.5605078 126.655353,70.939899 124.551486,67.7363164 C117.989818,67.2975647 112.08182,63.4354499 109.098561,57.9583988 Z" id="Combined-Shape"></path>
                <path d="M61.5529865,38.7034083 C64.0563099,39.7059095 66.7717275,40.2597782 69.5670807,40.2597782 C80.8430769,40.2597782 89.9840778,29.5671746 89.9840778,20.1298891 C89.9840778,10.6926036 80.8430769,0 69.5670807,0 C58.5028938,0 48.691002,8.67705676 48.3262911,19.5056708 C56.059916,22.7585255 61.5630252,30.8366722 61.5630252,38.1590862 C61.5630252,38.3400932 61.5596625,38.521562 61.5529865,38.7034083 Z" id="Combined-Shape"></path>
                <path d="M38.8844024,58.1680517 C39.6305828,58.2479605 40.3853458,58.2889753 41.1460281,58.2889753 C52.4220242,58.2889753 61.5630252,47.5963716 61.5630252,38.1590862 C61.5630252,28.7218007 52.4220242,18.0291971 41.1460281,18.0291971 C29.8700319,18.0291971 19.8947368,27.0416554 19.8947368,38.1590862 C19.8947368,41.5232463 20.8081562,44.694658 22.3946329,47.4819236 C29.4337719,47.9336786 35.522318,52.5052334 38.8844024,58.1680517 Z" id="Combined-Shape"></path>
                <path d="M21.2512912,87.7050337 C32.5272874,87.7050337 41.6682884,77.01243 41.6682884,67.5751446 C41.6682884,58.1378591 32.5272874,47.4452555 21.2512912,47.4452555 C9.97529509,47.4452555 0,56.4577138 0,67.5751446 C0,78.6925753 9.97529509,87.7050337 21.2512912,87.7050337 Z" id="Oval-8"></path>
                <path d="M75.2512912,129.456858 C86.5272874,129.456858 95.6682884,118.764255 95.6682884,109.326969 C95.6682884,99.8896839 86.5272874,89.1970803 75.2512912,89.1970803 C63.9752951,89.1970803 54,98.2095386 54,109.326969 C54,120.4444 63.9752951,129.456858 75.2512912,129.456858 Z" id="Oval-8"></path>
                <path d="M125.799505,67.7780264 C135.74665,67.7780264 143.810405,58.3455224 143.810405,50.0204 C143.810405,41.6952777 135.74665,32.2627737 125.799505,32.2627737 C115.85236,32.2627737 107.052632,40.2131338 107.052632,50.0204 C107.052632,59.8276663 115.85236,67.7780264 125.799505,67.7780264 Z" id="Oval-8"></path>
                <path d="M33.1578947,111.885015 C33.1578947,111.885015 64.7538598,66.9114642 80.9597364,49.3240173 C97.165613,31.7365704 115.269108,22.7737226 115.269108,22.7737226" id="Path-654" stroke-linecap="round" stroke-linejoin="round"></path>
                <path d="M94.7368421,37.0072993 C120.088094,37.7685059 120.531079,47.3341715 120.531079,47.3341715" id="Path-655" stroke-linecap="round" stroke-linejoin="round"></path>
                <path d="M89.7880498,40.4870423 C86.9039791,26.0209046 83.1291076,25.5705362 69.1578947,18.9781022" id="Path-656" stroke-linecap="round" stroke-linejoin="round"></path>
                <path d="M71.0526316,61.6788321 C87.8078926,61.6788321 94.2193072,62.5697037 104.952678,75.1118871" id="Path-657" stroke-linecap="round" stroke-linejoin="round"></path>
                <path d="M63.7095811,70.3254959 C62.0786885,56.5523416 55.2122426,45.6977661 41.6842105,41.7518248" id="Path-658" stroke-linecap="round" stroke-linejoin="round"></path>
                <path d="M47.3684211,92.9927007 C62.5973945,93.6154521 70.7257611,92.207643 79.9539746,104.481881" id="Path-659" stroke-linecap="round" stroke-linejoin="round"></path>
                <path d="M45.1633059,94.3492154 C44.7991934,77.8449509 40.4464818,75.5859525 33.3870753,70.8111122" id="Path-660" stroke-linecap="round" stroke-linejoin="round"></path>
            </g>
        </g>
    </g>
</svg>