<?xml version="1.0" encoding="UTF-8"?>
<svg width="152px" height="152px" viewBox="0 0 152 152" version="1.1" xmlns="http://www.w3.org/2000/svg" xmlns:xlink="http://www.w3.org/1999/xlink">
    <!-- Generator: Sketch 44.1 (41455) - http://www.bohemiancoding.com/sketch -->
    <title>daikon</title>
    <desc>Created with Sketch.</desc>
    <defs></defs>
    <g id="Page-1" stroke="none" stroke-width="1" fill="none" fill-rule="evenodd">
        <g id="daikon" stroke="#979797" stroke-width="2">
            <g id="Group-2" transform="translate(6.000000, 5.000000)">
                <g id="Group" transform="translate(49.944411, 99.073931) rotate(30.000000) translate(-49.944411, -99.073931) translate(26.444411, 40.573931)">
                    <path d="M10.6440496,115.836791 C11.8155669,116.954581 8.52451367,113.327126 10.764395,110.828521 C13.0042764,108.329915 22.9068751,103.33688 23.5619844,98.5839829 C23.6969414,97.6048541 31.2687065,94.3922086 32.5475684,91.2384693 C33.8264302,88.08473 67.0947723,-0.858730315 27.578782,0.00626823765 C-8.2803701,0.791219204 -1.68743618,70.0961498 6.25998507,86.6875038 C9.47947908,93.4086481 15.9340357,95.725107 19.2041084,98.9423195 C21.1990426,100.905006 12.9062663,104.804103 9.71928367,109.018335 C6.53230104,113.232567 10.2946942,115.503458 10.6440496,115.836791 Z" id="Path-733"></path>
                </g>
                <path d="M90.1261326,33.6633165 C90.1261326,33.6633165 72.0875252,29.8399829 78.3030786,21.8309052 C79.1568729,20.7307449 81.1842482,19.8965946 83.9417792,19.0909497 C83.9417792,19.0909497 83.9417792,12.8269694 86.7510696,12.8269694 C89.5603601,12.8269694 95.6525134,16.0702648 95.6525134,16.0702648 C95.6525134,16.0702648 87.6984292,6.50203363 92.0753018,2.29651552 C94.3712328,0.0904701268 97.0674426,3.98011339 97.0674426,3.98011339 C97.4358625,3.93124934 98.2270324,-0.519309088 102.333987,0.0904701268 C106.440943,0.700249341 109.08117,9.7087453 109.08117,9.7087453 C109.08117,9.7087453 110.080369,3.11700255 114.619471,2.29651552 C119.158573,1.47602848 121.680897,7.44754248 121.680897,7.44754248 C124.055404,2.29651552 131.342936,1.22588049 133.766541,8.23965617 C134.972707,11.7302291 137.754506,17.3400037 129.107119,25.053879 C129.107119,25.053879 135.64059,23.6433525 133.766541,31.3195088 C132.915597,34.8049995 123.730074,33.6633165 123.730074,33.6633165 C123.730074,33.6633165 122.00025,38.7325564 119.560174,39.0133718 C117.120098,39.2941871 112.727003,35.7425182 112.727003,35.7425182 C112.727003,35.7425182 114.066025,45.2487625 111.825814,48.0517539 C109.585602,50.8547453 104.905055,44.9404846 104.627042,45.0300701 C92.0753018,49.0746816 100.076635,36.601717 100.076635,36.601717 C100.076635,36.601717 104.525308,29.833721 106.083506,28.7132246 C106.85664,28.1572663 110.198445,25.9855455 113.260713,25.053879 C116.32298,24.1222125 119.194894,24.40598 119.194894,24.40598 C119.194894,24.40598 114.051078,23.072566 106.083506,28.7132246 C98.1159344,34.3538831 84.7484333,52.1815524 84.7484333,52.1815524 C84.7484333,52.1815524 94.6548976,35.5680606 100.076635,28.7132246 C105.498373,21.8583885 111.825814,17.9469566 111.825814,17.9469566 C111.825814,17.9469566 104.305698,23.6955771 100.076635,28.7132246 C95.8475727,33.730872 83.7065894,51.3095149 83.7065894,51.3095149 C83.7065894,51.3095149 88.9017093,38.4815662 91.4114139,33.6633165 C93.9211185,28.8450668 92.0753018,23.9285209 92.0753018,23.9285209" id="Path-753" stroke-linecap="round" stroke-linejoin="round"></path>
            </g>
        </g>
    </g>
</svg>