<?xml version="1.0" encoding="UTF-8"?>
<svg width="152px" height="152px" viewBox="0 0 152 152" version="1.1" xmlns="http://www.w3.org/2000/svg" xmlns:xlink="http://www.w3.org/1999/xlink">
    <!-- Generator: Sketch 44.1 (41455) - http://www.bohemiancoding.com/sketch -->
    <title>date</title>
    <desc>Created with Sketch.</desc>
    <defs></defs>
    <g id="Page-1" stroke="none" stroke-width="1" fill="none" fill-rule="evenodd" stroke-linecap="round" stroke-linejoin="round">
        <g id="date" stroke="#AD5D11">
            <g id="Group" transform="translate(-3.000000, 22.000000)">
                <path d="M70.0746701,79.3647665 C67.1619725,73.4706268 67.1235654,65.6805695 66.9087245,58.7229495 C66.7973284,55.1153876 66.2911204,50.37797 69.1099038,48.1208288 C72.9049412,45.0819522 83.1530875,44.5962938 87.3830526,48.8189627 C98.2582061,59.6753577 108.79007,70.8957966 118.800266,82.5532375 C135.795723,102.345409 130.999524,122.289033 120.972041,129.073575 C100.047503,136.615742 90.3187059,120.330632 70.0746701,79.3647665 Z" id="Path-264" stroke-width="2.2" transform="translate(98.422768, 88.303479) rotate(120.000000) translate(-98.422768, -88.303479) "></path>
                <path d="M60.6730185,91.0000564 C33.4804599,101.620733 26.9578215,88.9698327 14.9282548,51.5128023 C8.69446016,32.1023412 -4.12676393,-20.7039767 39.1522297,19.845093 C50.0213802,30.0286465 59.6069062,41.5535742 68.8098853,53.2622139 C72.8822255,58.4433148 71.763214,63.1796404 71.763214,63.1796404" id="Path-265" stroke-width="2.2" transform="translate(40.058609, 49.767374) rotate(10.000000) translate(-40.058609, -49.767374) "></path>
                <path d="M62.3420257,47.3612506 C66.1080139,40.3227548 101.794799,-20.0117931 114.6545,9.36119344 C116.043238,12.5332256 115.731504,16.2943406 115.290714,19.7284598 C113.296929,35.2616911 109.325736,50.5020218 106.688637,65.9392226" id="Path-267" stroke-width="2.2"></path>
                <path d="M81.5145707,97.7780203 C85.8821628,97.7379679 90.8710903,92.4766921 96.5371095,93.5659992 C109.025986,95.9670188 109.849504,99.206891 115.587806,94.8896127 C118.815808,92.4609873 118.986934,89.9781284 124.790406,89.4703269" id="Path-268" stroke-width="1.8"></path>
                <path d="M53,84.3076934 C57.3675921,84.267641 62.3565196,79.0063652 68.0225388,80.0956723 C80.5114158,82.4966919 81.3349328,85.7365641 87.073235,81.4192857 C90.3012378,78.9906604 90.4723636,76.5078014 96.2758349,76" id="Path-268" stroke-width="1.8" transform="translate(74.637917, 80.153847) rotate(180.000000) translate(-74.637917, -80.153847) "></path>
                <path d="M5.2381855,53.9432867 C9.60577762,53.9032343 14.5947051,48.6419585 20.2607243,49.7312656 C32.7496013,52.1322852 33.5731183,55.3721574 39.3114205,51.0548791 C42.5394232,48.6262537 42.7105491,46.1433948 48.5140204,45.6355933" id="Path-268" stroke-width="1.8" transform="translate(26.876103, 49.789440) rotate(90.000000) translate(-26.876103, -49.789440) "></path>
                <path d="M60.5844686,44.6324746 C64.9520607,44.5924222 69.9409882,39.3311464 75.6070074,40.4204536 C80.3537126,41.3330202 83.4152782,42.3667647 85.702026,43.0607101 C89.431854,44.1925784 91.1003845,44.4204574 94.6577036,41.744067" id="Path-268" stroke-width="1.8" transform="translate(77.621086, 42.452236) rotate(130.000000) translate(-77.621086, -42.452236) "></path>
                <path d="M47.0039898,40.9406539 C57.1353702,48.8891747 45.5083816,51.9003445 57.4362398,62.6099994" id="Path-270" stroke-width="1.8"></path>
            </g>
        </g>
    </g>
</svg>