<?xml version="1.0" encoding="UTF-8"?>
<svg width="152px" height="152px" viewBox="0 0 152 152" version="1.1" xmlns="http://www.w3.org/2000/svg" xmlns:xlink="http://www.w3.org/1999/xlink">
    <!-- Generator: Sketch 44.1 (41455) - http://www.bohemiancoding.com/sketch -->
    <title>eggplant</title>
    <desc>Created with Sketch.</desc>
    <defs></defs>
    <g id="Page-1" stroke="none" stroke-width="1" fill="none" fill-rule="evenodd">
        <g id="eggplant" stroke="#979797" stroke-width="2">
            <g id="Group" transform="translate(6.000000, 3.000000)">
                <path d="M2.85222987,2.11372053 C2.85222987,2.11372053 2.49315119,4.62367196 3.55092791,9.2912693 C4.60870464,13.9588666 6.25847724,15.7687893 6.25847724,15.7687893 C6.25847724,15.7687893 0.556782242,19.0341894 0.556782242,27.8236757 C0.556782242,32.9185452 4.15627377,41.0462518 6.55572427,48.2218882 C8.95517477,55.3975246 9.05126121,58.8292733 9.05126121,58.8292733 C9.05126121,58.8292733 11.2958045,55.415612 11.2412453,50.944725 C11.186686,46.473838 9.99198098,42.6758397 10.234756,40.2575476 C10.7915478,34.7113203 12.6733377,34.0448684 12.6733377,34.0448684 C12.6733377,34.0448684 16.3729123,40.0667855 20.0804998,41.1783578 C21.7545429,41.6802529 26.888252,43.4380666 29.6803757,45.5320108 C32.6193203,47.7360628 35.9151312,52.7967467 35.9151312,52.7967467 C35.9151312,52.7967467 38.0311838,44.3260114 38.4024112,40.2575476 C38.7736386,36.1890838 35.9151312,25.8415184 35.9151312,25.8415184 C35.9151312,25.8415184 42.8638601,28.6150196 45.850849,28.3339809 C47.3614572,28.1918513 50.2251664,26.2783476 52.7143227,25.1776217 C55.2034791,24.0768958 57.2233024,23.8366829 57.2233024,23.8366829 C57.2233024,23.8366829 47.6841122,23.1498675 44.8175331,22.1944621 C41.8288497,21.1983603 37.6715538,14.2782887 29.6803757,11.1183263 C21.6891976,7.95836386 13.1823389,11.7372572 13.1823389,11.7372572 C13.1823389,11.7372572 10.4255968,10.5229848 8.41022596,7.33247905 C6.39485508,4.1419733 5.88807824,0.34048811 5.88807824,0.34048811 C5.88807824,0.34048811 4.57732298,0.4926972 4.02591132,0.814775547 C3.47449966,1.13685389 2.85222987,2.11372053 2.85222987,2.11372053 Z" id="Path-709" stroke-linecap="round" stroke-linejoin="round"></path>
                <path d="M11.1244192,54.9931263 C11.1244192,54.9931263 31.8949074,121.045509 88.5430469,141.218697 C145.191186,161.391886 139.458245,108.05579 139.458245,108.05579 C139.458245,108.05579 139.425287,96.2793574 125.835199,85.84758 C112.245112,75.4158025 87.6125159,66.2279177 78.1542374,57.9014964 C55.6577679,38.0971435 48.4476278,27.6846993 48.4476278,27.6846993" id="Path-710"></path>
            </g>
        </g>
    </g>
</svg>