<?xml version="1.0" encoding="UTF-8"?>
<svg width="152px" height="152px" viewBox="0 0 152 152" version="1.1" xmlns="http://www.w3.org/2000/svg" xmlns:xlink="http://www.w3.org/1999/xlink">
    <!-- Generator: Sketch 44.1 (41455) - http://www.bohemiancoding.com/sketch -->
    <title>fennel</title>
    <desc>Created with Sketch.</desc>
    <defs></defs>
    <g id="Page-1" stroke="none" stroke-width="1" fill="none" fill-rule="evenodd" stroke-linecap="round" stroke-linejoin="round">
        <g id="fennel" stroke="#91E195">
            <g id="Group" transform="translate(23.000000, 2.000000)">
                <path d="M26.7839767,135.310136 C68.752216,166.107847 108.212157,135.464054 93.9157692,89.028864" id="Path-143" stroke-width="2.2"></path>
                <path d="M26.559268,135.086139 C69.4954964,94.8500725 71.0099148,66.7623969 66.5686064,12.5924333 C66.5644658,12.5419311 66.4762417,9.66335363 66.0999892,7.22597478 C65.7237367,4.78859594 65.3349773,2.12289157 65.1347961,1.60215054" id="Path-144" stroke-width="2.2"></path>
                <path d="M26.8675961,133.392506 C9.96723703,106.74766 26.74372,102.587494 21.3831005,77.2707986 C17.3437455,58.1940633 8.11769986,41.9422341 0.0852613152,22.8223084 C-0.947758372,20.3633715 8.19235946,19.0060385 11.9866108,17.2731543" id="Path-145" stroke-width="2.2"></path>
                <path d="M32.1287304,72.030919 C15.7466792,35.1574566 16.0577416,23.4434474 16.0577416,22.3382526" id="Path-146" stroke-width="2.2"></path>
                <path d="M11.1442907,14.4193548 C24.72872,33.0997745 27.036119,48.2930166 32.0074413,71.5968743" id="Path-147" stroke-width="2.2"></path>
                <path d="M12.1556081,15.4291602 C30.4353171,14.885658 25.3866186,5.13618716 11.2818783,14.2841509" id="Path-148" stroke-width="2.2"></path>
                <path d="M23.8806228,11.2150538 C27.4488358,19.89401 25.6144621,12.0498852 35.1120904,37.6202941 C44.6097188,63.1907031 43.6063189,63.784796 44.7086848,66.8984821" id="Path-149" stroke-width="2.2"></path>
                <path d="M44.5771626,66.5722325 C54.3119365,67.6583732 44.5771626,11.6773817 44.5771626,6.40860215" id="Path-150" stroke-width="2.2"></path>
                <path d="M44.5771626,6.8696561 C67.8434589,5.61277453 45.3692522,-4.51977741 44.5771626,7.18878771" id="Path-151" stroke-width="2.2"></path>
                <path d="M55.1275694,3.8540037 C58.9443349,47.5491104 55.237526,27.2076058 66.8183896,66.873108" id="Path-152" stroke-width="2.2"></path>
                <path d="M76.4179931,3.20430108 C77.568285,24.8916766 81.0320669,36.7207261 79.5421668,71.9065572" id="Path-153" stroke-width="2.2"></path>
                <path d="M79.5545077,72.1571168 C83.0935261,63.1190618 88.4025858,53.8570852 90.5702403,44.3907204 C93.3280918,32.3469061 94.6013351,24.1741042 94.6013351,7.53494499 C94.6013351,5.00143242 106.894481,6.95716478 106.860124,11.2518236 C106.650295,37.4810124 98.2538608,62.9920242 93.9507289,88.8621245" id="Path-154" stroke-width="2.2"></path>
                <path d="M35.0249135,140.036502 C54.0326371,119.741182 62.4586371,92.4177968 79.0034462,70.4946237" id="Path-155" stroke-width="1.3"></path>
                <path d="M47.7612457,146.16084 C81.4722141,135.604765 80.2421824,108.946165 84.9000127,76.9032258" id="Path-156" stroke-width="1.2"></path>
                <path d="M74.8259516,145.176509 C93.8619345,121.755933 85.1006052,87.7101972 92.8555412,59.2795699" id="Path-157" stroke-width="1.2"></path>
                <path d="M35.5608066,141.227761 C59.6739718,120.581214 70.5020811,102.896593 79.9441982,72.0967742" id="Path-158" stroke-width="1.3"></path>
                <path d="M39.5626648,120.61941 C29.300773,107.654842 29.9304481,100.154339 30.5407361,83.311828" id="Path-159" stroke-width="1.1"></path>
                <path d="M30.2487889,78.5053763 C45.512979,78.5053763 49.3300706,89.0933043 55.2857111,101.271856" id="Path-160" stroke-width="1.2"></path>
                <path d="M35.616955,75.5053763 C47.0748445,77.4119879 54.9190404,77.3386987 60.6300977,88.1464009" id="Path-161" stroke-width="1.2"></path>
                <path d="M76.6820405,1.52945847 C50.3681941,-4.4327818 75.0827619,9.43521412 76.5163565,2.62619963 L76.6820405,1.52945847 Z" id="Path-162" stroke-width="2"></path>
            </g>
        </g>
    </g>
</svg>