<?xml version="1.0" encoding="UTF-8"?>
<svg width="152px" height="152px" viewBox="0 0 152 152" version="1.1" xmlns="http://www.w3.org/2000/svg" xmlns:xlink="http://www.w3.org/1999/xlink">
    <!-- Generator: Sketch 44.1 (41455) - http://www.bohemiancoding.com/sketch -->
    <title>jerusalemartichoke</title>
    <desc>Created with Sketch.</desc>
    <defs></defs>
    <g id="Page-1" stroke="none" stroke-width="1" fill="none" fill-rule="evenodd" stroke-linecap="round" stroke-linejoin="round">
        <g id="jerusalemartichoke" stroke="#FF9677">
            <g id="Group" transform="translate(11.000000, 16.000000)">
                <path d="M4.52946789,95.2693265 C-0.213878151,99.9864977 -0.563285948,106.100155 2.37003011,109.409156 C11.8237617,122.315447 60.6527979,121.035191 72.8407044,119.990916 C95.0465842,118.08829 116.49432,110.376245 116.49432,110.376245 C116.49432,110.376245 128.066733,104.357106 129.983869,97.9546228 C131.901005,91.5521398 127.758946,88.7166159 127.758946,88.7166159 C127.758946,88.7166159 113.547835,78.7467014 105.681472,75.0783209 C101.580753,73.166002 90.1016848,72.7865545 84.4510065,71.0211317 C78.8003283,69.2557088 79.7082311,66.3087629 79.7082311,66.3087629 C79.7082311,66.3087629 89.3446622,52.4853407 89.7460272,48.8419054 C90.1473923,45.1984701 86.8100414,34.5999602 84.4510065,23.2556988 C82.0919717,11.9114374 90.0462555,3.13568293 79.7082311,0.57157878 C69.3702068,-1.99252537 56.1825257,13.4367052 56.1825257,13.4367052 C56.1825257,13.4367052 41.1421715,30.6797689 37.4424775,40.5371884 C33.7427836,50.3946079 34.5698964,71.0211317 34.5698964,71.0211317 C34.5698964,71.0211317 35.1972389,77.4860552 31.3372622,80.601772 C27.4772854,83.7174888 9.27281393,90.5521553 4.52946789,95.2693265 Z" id="Path-488" stroke-width="2.3"></path>
                <path d="M55.5792432,14.5393744 C64.1188146,21.4518517 72.9913729,23.928361 83.9610301,22.5469351" id="Path-489" stroke-width="2"></path>
                <path d="M44.2620513,28.8512828 C57.9530765,39.2883679 75.1844579,37.8781784 75.1844579,37.8781784" id="Path-490" stroke-width="2"></path>
                <path d="M60.8929585,49.0660466 C81.0149779,53.0814105 88.374935,50.1967675 89.6320983,47.4658925" id="Path-491" stroke-width="2"></path>
                <path d="M37.5442464,40.4976015 C37.5442464,40.4976015 38.2492776,44.7540535 44.0857935,45.5072684" id="Path-492" stroke-width="2"></path>
                <path d="M34.617593,58.4720672 C42.1250377,68.272299 52.9833545,66.0223851 52.9833545,66.0223851" id="Path-493" stroke-width="2"></path>
                <path d="M16.9719467,87.9967587 C22.5778708,97.5898788 23.6427346,102.079177 20.5524348,112.595078" id="Path-494" stroke-width="2"></path>
                <path d="M41.0255355,105.711954 C44.3846484,112.99452 42.7664978,120.277085 42.7664978,120.277085" id="Path-495" stroke-width="2"></path>
                <path d="M59.7656758,106.357292 C59.7656758,106.357292 59.232006,114.031818 62.2980636,120.453236" id="Path-496" stroke-width="2"></path>
                <path d="M76.8065381,95.6854519 C76.8065381,110.204314 83.0322579,118.742581 83.0322579,118.742581" id="Path-497" stroke-width="2"></path>
                <path d="M95.0752201,73.0556476 C90.5858337,87.2018552 92.1358889,92.5092226 92.1358889,95.1284189" id="Path-498" stroke-width="2"></path>
                <path d="M95.3959808,109.349812 C95.3959808,109.349812 96.4711048,114.986131 98.0454888,115.705977" id="Path-499" stroke-width="2"></path>
                <path d="M109.691818,77.4688193 C105.004428,91.3172689 104.214429,96.9494512 108.796503,107.420398" id="Path-500" stroke-width="2"></path>
                <path d="M122.251579,84.9715404 C117.701015,102.167181 123.959929,105.242619 123.959929,105.242619" id="Path-501" stroke-width="2"></path>
            </g>
        </g>
    </g>
</svg>