<?xml version="1.0" encoding="UTF-8"?>
<svg width="152px" height="152px" viewBox="0 0 152 152" version="1.1" xmlns="http://www.w3.org/2000/svg" xmlns:xlink="http://www.w3.org/1999/xlink">
    <!-- Generator: Sketch 44.1 (41455) - http://www.bohemiancoding.com/sketch -->
    <title>Feta</title>
    <desc>Created with Sketch.</desc>
    <defs></defs>
    <g id="Page-1" stroke="none" stroke-width="1" fill="none" fill-rule="evenodd" stroke-linecap="round" stroke-linejoin="round">
        <g id="Feta" stroke="#446DB5" stroke-width="2.2">
            <path d="M37.7733165,41.0595627 L80.3913544,31.2714659 C80.3913544,31.2714659 88.8281881,31.8212063 91.0417569,31.2714659 C93.2553257,30.7217256 93.5088604,28.0137301 93.5088604,28.0137301 L100.403092,26.3015462 L144.270475,39.5758318 L142.617108,54.5458307 C142.617108,54.5458307 139.641439,57.2948222 139.562216,58.0121314 C139.482992,58.7294406 142.112032,59.1189169 142.112032,59.1189169 L139.911731,79.0409873 C139.911731,79.0409873 138.643051,80.7167072 138.540557,81.6447136 C138.438063,82.5727201 139.23986,85.1242768 139.23986,85.1242768 L137.753467,98.5824457 L109.150514,108.399458 C109.150514,108.399458 99.9242812,106.161193 98.3994631,106.684536 C96.8746449,107.207879 97.3413021,112.452577 97.3413021,112.452577 L82.5728496,117.521357 L73.2534546,112.829245 C73.2534546,112.829245 71.8629713,109.036712 71.1062031,108.655696 C70.349435,108.27468 68.5092054,110.440619 68.5092054,110.440619 L42.7705871,97.4817852 L39.0161217,55.3473773 C39.0161217,55.3473773 44.3234904,56.7894677 44.2344349,55.7900441 C44.1453794,54.7906205 38.5354027,49.9525191 38.5354027,49.9525191 L37.7733165,41.0595627 Z" id="Path-406"></path>
            <path d="M38.1379735,41.3583984 L58.3011123,51.4508371 C58.3011123,51.4508371 63.5936491,49.7321746 66.1339239,49.7455568 C66.7228263,49.7486592 67.2543103,51.2899425 70.4215238,51.4508371 C71.1811274,51.489425 73.0044393,50.1682725 76,50.1970116 C78.9955607,50.2257507 78.9289254,51.5737803 80.3018003,51.5836743 C82.6742908,51.6007724 87.7767096,50.1843258 90.3111557,50.1970116 C91.4939842,50.2029321 91.7094364,51.7327506 94.3639991,52.0772596 C95.2706914,52.1949301 97.1928483,50.7823274 98.47785,50.720211 C99.7628516,50.6580946 102.824087,51.6853853 102.824087,51.6853853 L124.304251,45.3418159 C124.304251,45.3418159 118.984963,42.4826353 120.458168,42.0475654 C121.931372,41.6124954 131.676822,43.1645322 131.676822,43.1645322 L143.715332,39.9709384" id="Path-407"></path>
            <path d="M58.5511244,51.2546402 C58.5511244,51.2546402 57.7619703,53.4386938 58.1805075,54.735567 C58.5990447,56.0324402 60.485062,55.6724251 60.7949819,58.2074236 C61.1049017,60.7424221 58.5355873,61.2908327 59.4309302,64.9634349 C60.3262731,68.6360371 63.6870596,70.0704213 63.6870596,70.0704213 C64.3499169,91.2579459 68.8968948,73.225493 70.0689137,83.4078739" id="Path-409"></path>
            <path d="M70.0689137,83.1728799 C79.21994,86.6322001 74.2116424,90.6493742 81.4630388,95.3252672" id="Path-410"></path>
            <path d="M81.4630388,95.3252672 C87.2732708,90.1125886 89.1278677,92.2160403 95.2917915,85.1784612 C98.0265289,82.0561107 97.5776743,82.6759163 97.4397104,81.9405607 C97.3017465,81.2052051 96.9612122,79.1957138 96.9612122,79.1957138 C96.9612122,79.1957138 96.905266,76.9975224 98.2962529,76 C99.6872399,75.0024776 102.200464,75.4758731 102.9087,74.4026796 C104.408969,72.1293152 103.549765,69.2120472 103.549765,69.2120472 C103.549765,69.2120472 101.763912,64.2017202 102.14341,61.178031 C102.522907,58.1543418 104.930652,58.5216035 104.882122,57.1794267 C104.771397,54.1171549 102.9087,51.4823069 102.9087,51.4823069" id="Path-411"></path>
            <path d="M81.6380224,95.5109069 C81.6969111,102.897982 82.2543175,109.827497 82.3132062,117.214572" id="Path-415"></path>
            <path d="M49.7243144,127.900513 C49.7243144,127.900513 39.1595331,122.993932 34.3673651,121.958297 C33.1025615,121.684961 28.6085027,123.920323 26.2534129,123.611924 C25.4413846,123.505588 23.8867339,122.024289 21.8858013,121.3642 C21.1627471,121.125671 16.6190759,122.279859 15.224558,121.958297 C13.8300401,121.636735 13.2919874,119.359438 13.2919874,119.359438 C1.88048314,115.691168 3.79989072,117.077433 8.18658754,110.102753 C14.4340588,100.169513 8.17368784,101.699867 14.1817484,100.873115" id="Path-416"></path>
            <path d="M14.1817484,100.873115 C25.1723762,98.5806302 18.4620594,104.917682 27.0021405,104.364074" id="Path-417"></path>
            <path d="M19.930686,99.8294645 C20.9655199,93.1329254 19.2061287,95.8009507 28.8096423,96.2116629" id="Path-418"></path>
            <path d="M28.8096423,96.2116629 C38.5671577,87.8788614 35.1529745,100.443446 45.1396472,108.832465" id="Path-419"></path>
            <path d="M43.9048007,107.593888 C46.1009123,107.511503 49.0633351,105.677791 50.4931355,107.346732 C52.6501709,109.864541 50.8356125,114.09802 52.10198,117.162083 C54.2620067,122.388414 59.6817362,126.083097 49.6705263,128.040669" id="Path-420"></path>
            <path d="M118.619189,91.764753 C118.619189,91.764753 118.667937,97.8714302 120.68961,97.4907537 C122.711284,97.1100773 123.318325,92.5325108 125.498959,90.4693085 C127.679593,88.4061061 132.378728,86.4311185 132.378728,86.4311185 C132.378728,86.4311185 131.466352,84.0486589 130.410959,83.3452118 C129.355565,82.6417646 126.343076,82.408199 126.343076,82.408199 C126.343076,82.408199 125.397137,87.2547873 124.194606,88.7115081 C122.992075,90.168229 118.619189,91.764753 118.619189,91.764753 Z" id="Path-408"></path>
            <path d="M122.211293,70.2023717 C121.639707,71.0050983 119.853054,68.7853376 119.351858,67.3634175 C118.850662,65.9414974 117.405546,65.8286606 119.351858,62.0899984 C121.29817,58.3513363 124.746955,57 124.746955,57 C124.746955,57 122.028565,61.8061037 121.555642,64.2684575 C121.08272,66.7308114 122.782879,69.3996451 122.211293,70.2023717 Z" id="Path-412"></path>
            <path d="M46.4183906,79.6978291 C45.6515236,81.1826225 48.2722744,86.1734331 48.8040484,89.9082968 C49.3358223,93.6431606 46.7878252,92.8758665 47.21115,93.7223975 C48.5721547,96.4440256 52.2690696,95.2711386 53.9427531,94.7444458 C55.6164366,94.217753 60.2200966,92.204471 59.3313036,89.9082968 C58.4425106,87.6121227 52.9890116,88.4150211 50.832859,86.7101133 C48.6767064,85.0052055 47.5314673,77.542711 46.4183906,79.6978291 Z" id="Path-413"></path>
        </g>
    </g>
</svg>