<?xml version="1.0" encoding="UTF-8"?>
<svg width="152px" height="152px" viewBox="0 0 152 152" version="1.1" xmlns="http://www.w3.org/2000/svg" xmlns:xlink="http://www.w3.org/1999/xlink">
    <!-- Generator: Sketch 44.1 (41455) - http://www.bohemiancoding.com/sketch -->
    <title>bluecheese</title>
    <desc>Created with Sketch.</desc>
    <defs></defs>
    <g id="Page-1" stroke="none" stroke-width="1" fill="none" fill-rule="evenodd" stroke-linecap="round" stroke-linejoin="round">
        <g id="bluecheese" stroke="#446DB5">
            <g id="Group" transform="translate(8.000000, 24.000000)">
                <path d="M1.05397173,0 L134.109097,0.38320935 L135.213194,73.6180244 C135.213194,73.6180244 135.073098,81.2032833 124.58319,93.5987558 C114.093283,105.994228 97.5411551,113.119622 97.5411551,113.119622 L54.541664,92.2102278 C54.541664,92.2102278 47.1248237,82.6492937 42.2907045,80.3070863 C37.4565854,77.9648788 35.1865069,82.9078054 35.1865069,82.9078054 L-1.42108547e-14,65.8593844 L0.109578298,59.0520217 C0.109578298,59.0520217 3.31406333,59.8779788 3.33826048,58.3747726 C3.36245763,56.8715663 0.243971537,50.7030737 0.243971537,50.7030737 L0.243971537,33.3847017 C0.243971537,33.3847017 4.63806628,32.4672206 4.63806628,25.0283372 C4.63806628,17.5894539 0.822380744,14.7703999 0.822380744,14.7703999 L1.05397173,0.38320935 L29.9978214,11.711309 C29.9978214,11.711309 31.216903,16.2999855 34.4078012,16.8154413 C37.5986994,17.3308972 40.2494352,15.7236054 40.2494352,15.7236054 L97.5411551,38.1465492 L97.5411551,113.119622" id="Path-227" stroke-width="2.2"></path>
                <path d="M97.3513665,38.4162528 C97.3513665,38.4162528 109.508682,33.3363781 122.072847,20.5381459 C134.637012,7.73991368 133.436366,0.419915987 133.436366,0.419915987" id="Path-228" stroke-width="2.2"></path>
                <path d="M22.0693784,38.8941176 C6.9531234,38.8941176 51.329109,59.1257318 27.5137909,40.3773234 L22.0693784,38.8941176 Z" id="Path-229" stroke-width="1.8"></path>
                <path d="M73.2281821,41.6235294 C69.5663653,42.7034848 64.7768642,42.4864518 68.9395528,48.6557442 C88.2442182,77.2661304 81.1224323,52.7150457 75.694588,44.9581084 L73.2281821,41.6235294 Z" id="Path-230" stroke-width="1.8"></path>
                <path d="M78.003421,84.4941176 C61.767684,92.6769618 102.545311,93.064629 77.5016144,84.685036" id="Path-231" stroke-width="1.8"></path>
                <path d="M26.6049852,69.7524144 C12.1522992,69.2930226 45.760848,83.1420002 28.3644292,70.288699 L26.6049852,69.7524144 Z" id="Path-233" stroke-width="1.8"></path>
                <path d="M4.03960396,43.3261673 C4.46199104,52.3035724 10.8560013,42.4522756 5.16394808,42.9349463 L4.03960396,43.3261673 Z" id="Path-235" stroke-width="1.8"></path>
            </g>
        </g>
    </g>
</svg>