<?xml version="1.0" encoding="UTF-8"?>
<svg width="152px" height="152px" viewBox="0 0 152 152" version="1.1" xmlns="http://www.w3.org/2000/svg" xmlns:xlink="http://www.w3.org/1999/xlink">
    <!-- Generator: Sketch 44.1 (41455) - http://www.bohemiancoding.com/sketch -->
    <title>seedoil</title>
    <desc>Created with Sketch.</desc>
    <defs></defs>
    <g id="Page-1" stroke="none" stroke-width="1" fill="none" fill-rule="evenodd">
        <g id="seedoil" stroke="#FF659B">
            <g id="Group" transform="translate(48.000000, 1.000000)">
                <path d="M28.5564505,0.925348249 L20.3716127,0.925348249 C20.3716127,0.925348249 18.5656501,0.893470511 18.0220364,1.64391346 C17.4784227,2.3943564 17.5967529,4.75596199 17.5967529,4.75596199 L17.5967529,12.5982938 C17.5967529,12.5982938 18.4622153,13.2033772 18.4634623,13.8997458 C18.4647093,14.5961145 17.5866058,15.2268607 17.5892066,15.4130914 C17.6000245,16.1877366 17.6344621,16.9779714 17.724669,17.2589227 C17.9218177,17.8729462 19.0209292,18.0339191 19.0209292,18.0339191 C19.0209292,18.0339191 18.9129332,21.2708808 18.4634623,22.7908225 C18.0139914,24.3107642 16.621669,26.1473149 16.621669,26.1473149 L5.20262582,42.663248 C5.20262582,42.663248 2.6600661,46.0206045 1.53054776,49.0122137 C0.401029421,52.003823 0.401029421,57.7119412 0.401029421,57.7119412 L0.401029421,128.413655 C0.401029421,128.413655 0.0169128544,137.575121 5.20262582,143.709154 C10.3883388,149.843187 28.5564505,149.532386 28.5564505,149.532386 L29.2241755,149.532386" id="Path-621" stroke-width="2.2" stroke-linejoin="round"></path>
                <path d="M55.5564505,0.925348249 L47.3716127,0.925348249 C47.3716127,0.925348249 45.5656501,0.893470511 45.0220364,1.64391346 C44.4784227,2.3943564 44.5967529,4.75596199 44.5967529,4.75596199 L44.5967529,12.5982938 C44.5967529,12.5982938 45.4622153,13.2033772 45.4634623,13.8997458 C45.4647093,14.5961145 44.5866058,15.2268607 44.5892066,15.4130914 C44.6000245,16.1877366 44.6344621,16.9779714 44.724669,17.2589227 C44.9218177,17.8729462 46.0209292,18.0339191 46.0209292,18.0339191 C46.0209292,18.0339191 45.9129332,21.2708808 45.4634623,22.7908225 C45.0139914,24.3107642 43.621669,26.1473149 43.621669,26.1473149 L32.2026258,42.663248 C32.2026258,42.663248 29.6600661,46.0206045 28.5305478,49.0122137 C27.4010294,52.003823 27.4010294,57.7119412 27.4010294,57.7119412 L27.4010294,128.413655 C27.4010294,128.413655 27.0169129,137.575121 32.2026258,143.709154 C37.3883388,149.843187 55.5564505,149.532386 55.5564505,149.532386 L56.2241755,149.532386" id="Path-621" stroke-width="2.2" stroke-linejoin="round" transform="translate(41.809405, 75.230085) scale(-1, 1) translate(-41.809405, -75.230085) "></path>
                <path d="M18.4868243,12.9761473 L38.5220362,12.9770667" id="Path-622" stroke-width="2"></path>
                <path d="M0.934307764,58.719242 C0.934307764,58.719242 13.3299254,59.9915729 28.4293808,59.9915729 C43.5288361,59.9915729 55.9244537,58.719242 55.9244537,58.719242" id="Path-623" stroke-width="2"></path>
                <path d="M0.547290222,127.106136 C0.547290222,127.106136 12.9884068,130.959623 28.4225105,130.959623 C43.8566143,130.959623 56.2977309,127.106136 56.2977309,127.106136" id="Path-624" stroke-width="2"></path>
            </g>
            <g id="Group-2" transform="translate(78.870058, 94.870058) rotate(45.000000) translate(-78.870058, -94.870058) translate(66.370058, 69.370058)" stroke-linecap="round">
                <path d="M20.0412153,22.6324559 C20.0412153,22.6324559 11.1787284,22.3902195 5.95084808,14.8710222 C0.722967742,7.35182491 3.01456129,0.258665061 3.01456129,0.258665061 C3.01456129,0.258665061 10.6496411,-1.93167126 17.1962209,6.43522352 C23.7428006,14.8021183 20.0412153,22.6324559 20.0412153,22.6324559 Z" id="Path-37" stroke-width="2.2" stroke-linejoin="round"></path>
                <path d="M0.0350748472,37.1248999 C0.0350748472,37.1248999 0.745751118,45.6796983 8.72401271,49.3149 C16.7022743,52.9501018 24.0185518,49.3149 24.0185518,49.3149 C24.0185518,49.3149 24.9361831,41.8508744 15.9376206,37.1248999 C6.93905817,32.3989253 0.0350748472,37.1248999 0.0350748472,37.1248999 Z" id="Path-37" stroke-width="2.2" stroke-linejoin="round"></path>
                <path d="M4.14906528,1.59859489 C6.03026684,4.94726389 7.46861306,7.14728908 10.7731478,11.7783769 C14.0776826,16.4094648 16.3501719,18.8878855 19.6300987,21.958159" id="Path-290" stroke-width="1.6"></path>
                <path d="M1.37919215,37.5969463 C8.74185077,40.8347905 15.1571488,41.8575538 23.467168,47.3104788" id="Path-291" stroke-width="1.6"></path>
            </g>
        </g>
    </g>
</svg>