<?xml version="1.0" encoding="UTF-8"?>
<svg width="152px" height="152px" viewBox="0 0 152 152" version="1.1" xmlns="http://www.w3.org/2000/svg" xmlns:xlink="http://www.w3.org/1999/xlink">
    <!-- Generator: Sketch 44.1 (41455) - http://www.bohemiancoding.com/sketch -->
    <title>greencabbage</title>
    <desc>Created with Sketch.</desc>
    <defs></defs>
    <g id="Page-1" stroke="none" stroke-width="1" fill="none" fill-rule="evenodd" stroke-linecap="round" stroke-linejoin="round">
        <g id="greencabbage" stroke="#91E195">
            <g id="Group" transform="translate(9.000000, 10.000000)">
                <path d="M52.80362,131.093072 C52.80362,131.093072 59.1165957,131.829875 62.0934039,131.829875 C65.0702122,131.829875 71.4698682,131.093072 71.4698682,131.093072 L72.0820318,129.764491 C61.6798406,129.63208 51.0285279,130.392054 40.7710786,128.654498 C6.282381,122.812301 -3.36539437,76.82705 1.18451117,49.04302 C4.18152599,30.741728 20.081433,16.7917996 34.6339128,7.1941449 C55.9321876,-6.85249807 86.6808189,5.44700324 96.879083,7.1941449 C107.077347,8.94128656 114.362232,8.0485721 115.475904,12.1437731 C116.589576,16.2389741 102.995276,23.1066075 103.508968,25.3472751" id="Path-480" stroke-width="2.3"></path>
                <path d="M71.9810121,129.743521 C125.468563,126.705443 159.986051,52.9454122 110.949328,18.3618491" id="Path-482" stroke-width="2.3"></path>
                <path d="M103.42951,24.8353944 C103.348605,29.024521 105.052859,38.1214635 99.0259958,40.4401411 C92.9991323,42.7588187 84.1719291,35.9824674 81.0979273,39.0213534 C77.9392488,42.1439486 79.8936938,52.2607358 74.9396173,53.9157624 C69.9855409,55.570789 61.7774142,46.7763665 60.2665972,48.77787 C58.0798817,51.6747918 61.9233407,60.8526067 59.1161776,63.2635557 C56.3090146,65.6745048 46.4056782,62.5570524 44.6931202,66 C42.9805621,69.4429476 51.9409597,73.8727882 50.3243765,79.0037765 C48.7077933,84.1347649 42.6270082,82.6385221 39.211983,84.8595827 C28.4758486,91.8421389 41.8336146,94.9292025 43.4557679,98.4782839 C44.8284605,101.481574 40.8864055,106.858223 42.5360195,109.718234 C44.1856334,112.578245 51.5444309,112.520569 55.0120718,116.759713 C58.4797128,120.998857 56.8954869,128.266364 62.9117653,129.820334" id="Path-481" stroke-width="2.3"></path>
                <path d="M76.4312914,125.856762 C95.0506854,123.393971 129.47892,85.838614 99.1789094,81.9945373" id="Path-483" stroke-width="1.9" transform="translate(93.804234, 103.925650) rotate(350.000000) translate(-93.804234, -103.925650) "></path>
                <path d="M104.175446,98.7533394 C109.194818,93.2975624 116.230541,64.5505602 128.965772,71.782401" id="Path-484" stroke-width="1.9" transform="translate(116.570609, 84.688174) rotate(350.000000) translate(-116.570609, -84.688174) "></path>
                <path d="M59.1492652,128.911632 C-12.5455194,128.911632 7.5053744,-6.58589843 66.5981932,29.068615 C66.5981932,29.068615 68.4672374,30.5593667 67.3126559,32.6248384" id="Path-485" stroke-width="1.9"></path>
                <path d="M33.5826283,27.2310418 C50.1686354,12.7737106 78.9139049,20.2909076 80.7171726,12.5329653" id="Path-486" stroke-width="1.9"></path>
                <path d="M76.6915933,52.7014275 C76.6915933,52.7014275 79.0915595,54.7951382 77.9073264,56.9070806 C76.7230933,59.019023 72.7763341,59.8603 72.7763341,59.8603 C57.2644677,64.9172685 69.8823681,67.8177274 71.1831257,78.0895946 C71.8201179,83.1198162 60.9141285,84.270086 60.8945148,88.2406063 C60.8749011,92.2111265 70.8099681,95.8629963 69.3962702,100.9925 C67.9825724,106.122003 57.7439905,102.99959 55.018683,107.087042 C52.2933754,111.174495 53.2489146,113.534648 52.9866925,114.852337" id="Path-487" stroke-width="2.3"></path>
            </g>
        </g>
    </g>
</svg>