<?xml version="1.0" encoding="UTF-8"?>
<svg width="152px" height="152px" viewBox="0 0 152 152" version="1.1" xmlns="http://www.w3.org/2000/svg" xmlns:xlink="http://www.w3.org/1999/xlink">
    <!-- Generator: Sketch 46.2 (44496) - http://www.bohemiancoding.com/sketch -->
    <title>harissa</title>
    <desc>Created with Sketch.</desc>
    <defs></defs>
    <g id="Page-1" stroke="none" stroke-width="1" fill="none" fill-rule="evenodd">
        <g id="harissa" stroke="#F95604">
            <g id="Group" transform="translate(37.000000, 9.000000)" stroke-width="2" stroke-linecap="round" stroke-linejoin="round">
                <path d="M53.1703539,0 L8.72259813,0 C8.72259813,0 3.82479605,0 3.82479605,5.47749673 C3.82479605,10.9549935 7.99681577,12.1155711 7.99681577,12.1155711 L53.1703539,12.1155711 L8.54791102,12.1155711 L10.3156239,12.5491658 C8.62977644,14.506107 11.1698516,18.6435309 11.1698516,18.6435309 C11.1698516,18.6435309 5.70218978,19.7287235 3.03326257,22.9865984 C0.364335352,26.2444732 0.808649144,35.6801362 0.808649144,35.6801362 L0.808649144,117.832844 C0.808649144,117.832844 1.38767143,125.771159 3.82479605,130.038542 C6.26192067,134.305924 12.5629516,133.856722 12.5629516,133.856722 L53.3677532,133.856722" id="Path-652"></path>
                <path d="M77.8019329,0 L33.3541771,0 C33.3541771,0 28.456375,0 28.456375,5.47749673 C28.456375,10.9549935 32.6283947,12.1155711 32.6283947,12.1155711 L77.8019329,12.1155711 L33.17949,12.1155711 L34.9472028,12.5491658 C33.2613554,14.506107 35.8014306,18.6435309 35.8014306,18.6435309 C35.8014306,18.6435309 30.3337687,19.7287235 27.6648415,22.9865984 C24.9959143,26.2444732 25.4402281,35.6801362 25.4402281,35.6801362 L25.4402281,117.832844 C25.4402281,117.832844 26.0192504,125.771159 28.456375,130.038542 C30.8934996,134.305924 37.1945305,133.856722 37.1945305,133.856722 L77.9993321,133.856722" id="Path-652" transform="translate(51.705919, 66.935154) scale(-1, 1) translate(-51.705919, -66.935154) "></path>
                <path d="M0.659771146,39 C0.659771146,39 23.003737,41.1193779 39.120668,41.0829408 C55.2375989,41.0465038 77.5815648,39 77.5815648,39 L77.5815648,108.67018 C77.5815648,108.67018 53.2333414,113.407994 39.120668,113.407994 C25.0079945,113.407994 0.659771146,108.67018 0.659771146,108.67018 L0.659771146,39 Z" id="Path-653"></path>
            </g>
            <g id="Group" transform="translate(76.000000, 85.000000) scale(-1, 1) translate(-76.000000, -85.000000) translate(47.000000, 56.000000)">
                <path d="M53,13.8021434 C38.5756402,1.52011023 38.3251432,15.3645197 31.668702,26.6471373 C23.085931,41.194869 14.3933171,46.3294994 5,44.7146278" id="Path-414" stroke-width="2.2"></path>
                <path d="M5.39426076,44.8051741 C-0.142139979,42.4155252 -1.43387939,48.8731339 2.41767314,52.4339363 C9.08059239,58.593878 16.2976564,58.9405733 25.0267316,56.8326726 C37.9333861,53.7159684 53.1099769,42.4949729 56.0485344,29.4581061 C56.610932,26.9630372 59.3957226,13.1395615 52.1742666,13.1395615" id="Path-421" stroke-width="2.2"></path>
                <path d="M51,12.0147804 C58.1099929,-12.6421196 56.7225256,7.38251289 52.501582,13" id="Path-422" stroke-width="2.2"></path>
                <path d="M41,42 C41,42 48.3032351,35.218347 50.4901404,31.1851003 C52.6770458,27.1518536 51.8443915,22 51.8443915,22" id="Path-423" stroke-width="2" stroke-linecap="round"></path>
            </g>
        </g>
    </g>
</svg>