<?xml version="1.0" encoding="UTF-8"?>
<svg width="152px" height="152px" viewBox="0 0 152 152" version="1.1" xmlns="http://www.w3.org/2000/svg" xmlns:xlink="http://www.w3.org/1999/xlink">
    <!-- Generator: Sketch 44.1 (41455) - http://www.bohemiancoding.com/sketch -->
    <title>arugula</title>
    <desc>Created with Sketch.</desc>
    <defs></defs>
    <g id="Page-1" stroke="none" stroke-width="1" fill="none" fill-rule="evenodd" stroke-linecap="round" stroke-linejoin="round">
        <g id="arugula" stroke="#979797" stroke-width="2">
            <g id="Group" transform="translate(103.628367, 69.057269) rotate(10.000000) translate(-103.628367, -69.057269) translate(78.628367, 2.557269)">
                <path d="M25.2711712,17.3337435 C25.2711712,17.3337435 22.6829226,38.8324015 22.9348155,49.4393548 C23.3727569,67.880626 24.6079117,70.4441091 25.2711712,88.1231799 C25.9344306,105.802251 24.6322288,132.076808 24.6322288,132.076808 L23.768277,132.076808 C23.768277,132.076808 21.5733562,103.620415 19.6046941,99.1830147 C17.636032,94.7456143 7.48493062,88.9338833 7.73573774,85.9492644 C7.98654485,82.9646454 17.9368163,86.9416107 17.9368163,86.9416107 C17.9368163,86.9416107 16.1126208,81.2382976 13.4914657,77.2989529 C10.8703106,73.3596081 1.38418709,64.9282165 1.22423952,63.5729275 C0.634323921,58.5743764 11.6142732,62.7036396 11.6142732,62.7036396 C11.6142732,62.7036396 12.0303348,62.5703898 9.51873704,57.1482898 C7.00713926,51.7261897 2.65431276,44.9853655 1.22423952,39.9718017 C-0.701924608,33.2190379 9.51873704,39.9718017 9.51873704,39.9718017 C9.51873704,39.9718017 7.10011693,28.2945412 7.34613872,24.6364974 C7.59216051,20.9784536 10.7180278,24.6364974 10.7180278,23.8373982 C10.7180278,18.7816719 11.9013583,14.6998642 12.7663205,12.6966452 C13.3346054,11.3805193 14.2041805,9.99005245 15.237818,8.64454222 C15.9298106,7.7437591 16.1424461,9.46923093 16.9403265,8.64454222 C17.738207,7.81985351 23.4474317,0.96980904 25.2711712,0.96980904" id="Path-685"></path>
                <path d="M47.866365,132.035093 C47.866365,132.035093 44.4926215,101.635723 42.5239594,97.1983221 C40.5552973,92.7609217 32.3971755,87.941537 32.6479826,84.956918 C32.8987898,81.9722991 41.8525714,84.956918 41.8525714,84.956918 C41.8525714,84.956918 42.0213555,81.2382976 39.4002004,77.2989529 C36.7790453,73.3596081 27.2929218,64.9282165 27.1329742,63.5729275 C26.5430586,58.5743764 37.5230079,62.7036396 37.5230079,62.7036396 C37.5230079,62.7036396 35.9460899,58.3663846 33.4344921,52.9442845 C30.9228944,47.5221844 26.1160433,42.4054075 25.1399946,39.9718017 C23.0565966,34.7772147 33.4344921,39.9718017 33.4344921,39.9718017 C33.4344921,39.9718017 31.015872,28.2945412 31.2618938,24.6364974 C31.5079156,20.9784536 34.6337829,24.6364974 34.6337829,23.8373982 C34.6337829,18.7816719 35.8171134,14.6998642 36.6820756,12.6966452 C37.2503605,11.3805193 38.1199356,9.99005245 39.1535731,8.64454222 C39.8455657,7.7437591 40.0582012,9.46923093 40.8560816,8.64454222 C41.6539621,7.81985351 47.3631868,0.96980904 49.1869263,0.96980904" id="Path-685" transform="translate(37.025258, 66.502451) scale(-1, 1) translate(-37.025258, -66.502451) "></path>
            </g>
            <g id="Group" transform="translate(49.147791, 76.509664) scale(-1, 1) rotate(5.000000) translate(-49.147791, -76.509664) translate(23.147791, 5.509664)">
                <path d="M26.1038936,17.6282502 C26.1038936,17.6282502 23.4036525,40.6880953 23.5981002,52.1315506 C23.8707943,68.1798921 25.3925331,74.7049676 26.1038936,93.7043346 C26.8152542,112.703702 25.4186137,140.940477 25.4186137,140.940477 L24.4920062,140.940477 C24.4920062,140.940477 22.1379047,110.358924 20.0264708,105.590132 C17.9150369,100.821341 7.02775472,94.5755823 7.29675093,91.3680681 C7.56574715,88.1605539 18.2376348,92.4345242 18.2376348,92.4345242 C18.2376348,92.4345242 16.2811445,86.3052802 13.4698973,82.07174 C10.6586501,77.8381999 0.484571466,68.7771408 0.313024136,67.3206371 C-0.319673473,61.9487876 11.4565665,66.3864296 11.4565665,66.3864296 C11.4565665,66.3864296 11.9028019,66.2432286 9.20905738,60.416199 C6.51531285,54.5891694 1.84680952,47.3449316 0.313024136,41.9569482 C-1.75282977,34.6998792 9.20905738,41.9569482 9.20905738,41.9569482 C9.20905738,41.9569482 6.61503347,29.4076147 6.87889732,25.4763833 C7.14276117,21.545152 10.4953234,25.4763833 10.4953234,24.6176064 C10.4953234,19.1843118 11.7644717,14.7976693 12.6921629,12.6448473 C13.3016611,11.2304314 14.2342998,9.73612266 15.342899,8.29012797 C16.0850765,7.32207318 16.3131328,9.17640551 17.1688773,8.29012797 C18.0246219,7.40385043 24.1478925,0.0422356511 26.1038936,0.0422356511" id="Path-685"></path>
                <path d="M51.2255364,141.097894 C51.2255364,141.097894 46.719327,108.226012 44.6078931,103.45722 C42.4964592,98.688429 33.746692,93.5091263 34.0156882,90.3016121 C34.2846844,87.0940979 43.8878146,90.3016121 43.8878146,90.3016121 C43.8878146,90.3016121 44.0688393,86.3052802 41.257592,82.07174 C38.4463448,77.8381999 28.2722662,68.7771408 28.1007189,67.3206371 C27.4680213,61.9487876 39.2442613,66.3864296 39.2442613,66.3864296 C39.2442613,66.3864296 37.5529817,61.7252627 34.8592371,55.8982331 C32.1654926,50.0712035 27.0100378,44.5722989 25.9632039,41.9569482 C23.7287131,36.3744227 34.8592371,41.9569482 34.8592371,41.9569482 C34.8592371,41.9569482 32.2652132,29.4076147 32.5290771,25.4763833 C32.7929409,21.545152 36.1455032,25.4763833 36.1455032,24.6176064 C36.1455032,19.1843118 37.4146515,14.7976693 38.3423427,12.6448473 C38.9518409,11.2304314 39.8844796,9.73612266 40.9930788,8.29012797 C41.7352563,7.32207318 41.9633126,9.17640551 42.8190571,8.29012797 C43.6748016,7.40385043 49.7980722,0.0422356511 51.7540734,0.0422356511" id="Path-685" transform="translate(38.710414, 70.570065) scale(-1, 1) translate(-38.710414, -70.570065) "></path>
            </g>
        </g>
    </g>
</svg>