<?xml version="1.0" encoding="UTF-8"?>
<svg width="152px" height="152px" viewBox="0 0 152 152" version="1.1" xmlns="http://www.w3.org/2000/svg" xmlns:xlink="http://www.w3.org/1999/xlink">
    <!-- Generator: Sketch 46.2 (44496) - http://www.bohemiancoding.com/sketch -->
    <title>hoisinsauce</title>
    <desc>Created with Sketch.</desc>
    <defs></defs>
    <g id="Page-1" stroke="none" stroke-width="1" fill="none" fill-rule="evenodd">
        <g id="hoisinsauce" stroke="#FF0000" stroke-width="2.2">
            <g id="Group" transform="translate(51.000000, 4.000000)">
                <path d="M25.4831067,0.772909489 L25.0248028,0.772909489 L13.701755,0.982519206 C13.701755,0.982519206 11.9058063,0.969215878 11.3885758,1.2714827 C10.8713454,1.57374951 10.8680268,2.63853531 10.8680268,2.63853531 L10.2619293,18.4635722 C10.2619293,18.4635722 10.1079906,19.7650531 10.4003529,20.087355 C10.6927152,20.409657 12.1840394,20.5825179 12.1840394,20.5825179 L10.4003529,42.0378832 C10.4003529,42.0378832 10.1810874,48.3740863 9.07657571,51.5478846 C7.97206403,54.7216829 5.11158387,57.2350844 5.11158387,57.2350844 C5.11158387,57.2350844 2.32945902,60.3296532 1.64244848,62.4852614 C0.95543794,64.6408696 0.735421654,70.9660109 0.735421654,70.9660109 L0.720590557,132.732657 C0.720590557,132.732657 0.366941883,136.455511 2.48355085,139.410356 C4.60015981,142.365201 9.80856394,143.466996 9.80856394,143.466996 L25.0248028,144.110657" id="Path-598"></path>
                <path d="M49.0405709,0.772909489 L37.7175231,0.982519206 C37.7175231,0.982519206 35.9215744,0.969215878 35.4043439,1.2714827 C34.8871135,1.57374951 34.8837949,2.63853531 34.8837949,2.63853531 L34.2776974,18.4635722 C34.2776974,18.4635722 34.1237587,19.7650531 34.416121,20.087355 C34.7084833,20.409657 36.1998075,20.5825179 36.1998075,20.5825179 L34.416121,42.0378832 C34.416121,42.0378832 34.1968555,48.3740863 33.0923438,51.5478846 C31.9878321,54.7216829 29.127352,57.2350844 29.127352,57.2350844 C29.127352,57.2350844 26.3452271,60.3296532 25.6582166,62.4852614 C24.971206,64.6408696 24.7511897,70.9660109 24.7511897,70.9660109 L24.7363586,132.732657 C24.7363586,132.732657 24.38271,136.455511 26.4993189,139.410356 C28.6159279,142.365201 33.824332,143.466996 33.824332,143.466996 L49.3587777,144.093541" id="Path-598" transform="translate(37.036475, 72.433225) scale(-1, 1) translate(-37.036475, -72.433225) "></path>
                <path d="M0.964215467,73.6863572 C0.964215467,73.6863572 10.505567,75.4694163 25.1509559,75.4694163 C39.7963447,75.4694163 49.3376963,73.6863572 49.3376963,73.6863572 L49.3376963,126.061623 C49.3376963,126.061623 40.0219441,129 25.1509559,129 C10.2799676,129 1.10102439,126.061623 1.10102439,126.061623 L0.964215467,73.6863572 Z" id="Path-599"></path>
                <path d="M12.1913112,20.4959635 C12.1913112,20.4959635 18.8336634,21.534943 25.1536189,21.534943 C31.4735744,21.534943 38.1159266,20.661788 38.1159266,20.661788" id="Path-600" transform="translate(25.153738, 21.015451) rotate(-0.500000) translate(-25.153738, -21.015451) "></path>
                <path d="M11.0553952,10.2203721 C11.0553952,10.2203721 18.8341111,10.7537219 25.1540665,10.7537219 C31.474022,10.7537219 39.2527378,10.3861966 39.2527378,10.3861966" id="Path-600"></path>
            </g>
        </g>
    </g>
</svg>