<?xml version="1.0" encoding="UTF-8"?>
<svg width="152px" height="152px" viewBox="0 0 152 152" version="1.1" xmlns="http://www.w3.org/2000/svg" xmlns:xlink="http://www.w3.org/1999/xlink">
    <!-- Generator: Sketch 44.1 (41455) - http://www.bohemiancoding.com/sketch -->
    <title>horseradish</title>
    <desc>Created with Sketch.</desc>
    <defs></defs>
    <g id="Page-1" stroke="none" stroke-width="1" fill="none" fill-rule="evenodd">
        <g id="horseradish" stroke="#979797">
            <g id="Group" transform="translate(76.500000, 76.000000) scale(-1, 1) translate(-76.500000, -76.000000) translate(39.000000, 2.000000)">
                <path d="M22.272431,60.4817098 C22.8535058,62.4104344 24.4924291,63.4691902 26.2605654,65.66775 C26.3725717,65.8070224 21.8440062,67.9812984 19.2547379,71.8544905 C15.5458284,77.402513 15.6425257,94.8773 14.3944078,96.8737381 C13.550291,98.2239526 10.8515204,101.031966 9.1662149,104.696576 C7.48090939,108.361186 8.14444769,110.671855 8.31280094,111.571725 C8.83291012,114.351776 9.84327557,118.776661 10.066429,118.898109 C10.4757029,119.120851 10.7678784,107.947718 11.5571505,106.426822 C11.9727585,105.625962 16.376708,103.524723 17.9918229,98.963607 C19.6069378,94.4024914 21.3847452,78.9398027 22.7692205,76.0931865 C25.6408896,70.1887549 28.6322226,69.4882417 28.7366207,69.7179992 C29.8732765,72.2195317 30.8706773,75.668195 31.443876,80.6806781 C33.2652771,96.6083874 30.6331223,100.11608 31.443876,106.832217 C33.9282581,127.41239 29.0239608,138.557605 31.443876,146.543715 C31.824297,147.799165 39.0050073,147.120444 39.4768343,146.543715 C39.9486614,145.966986 38.4823723,140.284333 39.4768343,133.299272 C40.0899296,128.992916 45.4811804,100.28761 46.9411934,77.5454552 C46.9666851,77.148379 55.6703923,76.312978 60.4119567,78.4179104 C65.153521,80.5228429 70.7175849,93.770551 73.70855,92.3740538 C76.699515,90.9775565 69.8501093,81.8683078 65.182802,75.6885805 C60.5154948,69.5088532 47.2436871,71.278624 47.2586304,70.7056202 C47.3833165,65.9244896 44.4515779,64.8073344 43.3795268,59.7432148 C42.3074756,54.6790952 42.678422,50.0708812 42.3744788,49.1866055 C40.8772593,44.8306769 31.3282124,46.6378839 28.3190608,48.5147577 C25.3099092,50.3916316 20.9696981,56.1576311 22.272431,60.4817098 Z" id="Path-733" stroke-width="2"></path>
                <path d="M23.5074627,53.9236457 C23.5074627,53.9236457 23.8779221,56.6201129 26.5836442,57.5640121 C29.2893664,58.5079113 33.8143775,58.350249 33.8143775,58.350249" id="Path-734" stroke-width="1.6" stroke-linecap="round"></path>
                <path d="M32.4626866,84.9813613 C32.4626866,84.9813613 34.8597992,87.8697419 39.8241323,87.813904 C44.7884653,87.7580661 46.1275046,84.9813613 46.1275046,84.9813613" id="Path-735" stroke-width="1.6" stroke-linecap="round"></path>
                <path d="M36.7790417,97.5379408 C43.0805294,99.5576406 44.5551326,94.7053981 44.5551326,94.7053981" id="Path-735" stroke-width="1.6" stroke-linecap="round"></path>
                <path d="M34.5402358,140.612568 C38.1562076,142.632267 39.0023766,137.780025 39.0023766,137.780025" id="Path-735" stroke-width="1.6" stroke-linecap="round"></path>
                <path d="M31.3432836,105.612485 C31.3432836,105.612485 33.1636105,108.500866 37.600167,108.445028 C42.0367234,108.38919 43.2334045,105.612485 43.2334045,105.612485" id="Path-735" stroke-width="1.6" stroke-linecap="round"></path>
                <path d="M31.9691162,112.023089 C31.9691162,112.023089 33.8998876,114.91147 37.8984447,114.855632" id="Path-735" stroke-width="1.6" stroke-linecap="round"></path>
                <path d="M15.7898316,46.3545989 C12.6687336,36.8065162 10.0546234,29.8236159 7.94750101,25.4058981 C4.78681747,18.7793214 -1.71954238,10.501458 0.425230311,11.0471304 C1.85507877,11.4109119 7.59823759,17.399903 17.6547068,29.0141035 C13.135119,21.1979523 10.604062,15.6789614 10.0615356,12.4571309 C9.247746,7.62438508 9.97588332,0.129736374 11.0808099,0.0173768139 C12.1857366,-0.0949827462 12.7384195,8.42215378 14.5104547,12.004722 C15.6918115,14.3931008 17.4294234,17.4991026 19.7232903,21.3227273 C19.5576529,18.3185849 19.7960443,14.8933859 20.4384647,11.0471304 C21.4020952,5.277747 22.0604692,-0.353638417 22.9717691,0.0173768139 C23.8830689,0.388392045 23.3351409,8.45325451 23.9017545,12.4571309 C24.2794969,15.1263818 24.8012706,19.4426375 25.4670755,25.4058981 C27.6738761,22.3410373 29.680662,19.4352077 31.4874333,16.6884092 C34.1975902,12.5682115 37.4197568,0.864642428 37.4197568,5.277747 C37.4197568,9.69085157 34.9268692,22.2141165 31.4874333,29.8746592 L25.4670755,37.4171227 C27.641858,33.7183708 30.3303169,30.9173644 33.5324522,29.0141035 C38.3356552,26.1592121 56.1838691,16.7092878 57.037014,18.3844105 C57.8901589,20.0595331 42.6979751,29.2278644 36.8111253,35.451673 C32.8865588,39.6008787 30.4563465,43.9689154 29.5204883,48.5557829" id="Path-805" stroke-width="2" stroke-linecap="round" stroke-linejoin="round" transform="translate(28.535764, 24.277891) scale(-1, 1) translate(-28.535764, -24.277891) "></path>
            </g>
        </g>
    </g>
</svg>