<?xml version="1.0" encoding="UTF-8"?>
<svg width="152px" height="152px" viewBox="0 0 152 152" version="1.1" xmlns="http://www.w3.org/2000/svg" xmlns:xlink="http://www.w3.org/1999/xlink">
    <!-- Generator: Sketch 44.1 (41455) - http://www.bohemiancoding.com/sketch -->
    <title>kale</title>
    <desc>Created with Sketch.</desc>
    <defs></defs>
    <g id="Page-1" stroke="none" stroke-width="1" fill="none" fill-rule="evenodd" stroke-linecap="round" stroke-linejoin="round">
        <g id="kale" stroke="#979797" stroke-width="2">
            <g id="Group" transform="translate(12.000000, 4.000000)">
                <path d="M57.1636533,56.866662 C52.109244,67.4179726 48.6281149,77.1754385 46.7202662,86.1390597 C44.8124174,95.1026809 42.443303,114.250891 39.6129229,143.583689 L42.8573721,143.583689 C43.3322082,132.581399 43.6339119,125.667694 43.7624831,122.842573 C43.7882489,122.276415 36.4838578,120.40441 31.0433701,117.021639 C25.6028823,113.638867 21.0328052,108.13359 21.0602247,107.563473 C21.0876362,106.993523 25.1546786,112.784779 31.0433701,117.021639 C36.9320615,121.258498 43.7396285,123.291727 43.7624831,122.842573 C43.8196252,121.719571 44.185984,116.831261 44.2417034,115.815859 C44.2708754,115.284245 53.4513046,111.924631 61.8104217,111.563715 C70.1695387,111.202798 75.1693228,113.96104 75.1930238,113.563298 C75.2168142,113.164058 68.8261156,110.873733 61.8104217,111.563715 C54.7947277,112.253696 44.2145819,116.230715 44.2417034,115.815859 C44.3532068,114.110282 44.4615633,111.256177 44.5667728,110.026571 C44.5990695,109.649114 39.569287,96.9491115 34.4997058,87.1809248 C29.4301245,77.4127382 18.6930737,66.9994977 18.7437686,66.4683653 C18.7937913,65.9442759 27.2350699,73.5810177 34.4997058,86.1390597 C41.7643416,98.6971017 44.5164731,110.492447 44.5667728,110.026571 C45.2521263,103.678832 46.7918948,94.2236897 47.8894186,88.3321996 C47.9355858,88.0843745 60.1486568,88.7164251 70.9524643,88.3321996 C81.7562717,87.947974 95.232367,80.5369646 95.2876041,80.2522385 C95.353401,79.9130804 84.8212383,87.5537998 70.9524643,88.3321996 C57.0836902,89.1105993 47.8472239,88.540493 47.8894186,88.3321996 C48.2995717,86.307482 50.0437009,79.0414843 50.5040004,77.0722758 C50.5954906,76.6808712 50.0176309,63.2360473 47.8894186,55.9315152 C45.7612062,48.6269832 39.4678437,38.63546 39.6129229,38.0549808 C39.7583901,37.4729491 45.1976196,45.3810912 47.8894186,55.9315152 C50.5812175,66.4819393 50.4224232,77.38191 50.5040004,77.0722758 C51.8986113,71.7788945 55.3875135,61.7377131 57.1636533,56.866662 C57.3023342,56.4863305 74.9290034,51.140206 85.7845526,51.1142893 C96.6401017,51.0883725 103.612417,53.865312 103.787311,53.4097917 C103.938568,53.0158368 97.4288552,50.7000982 85.7845526,51.1142893 C74.14025,51.5284804 56.9917822,57.2924315 57.1636533,56.866662 C58.4961729,53.5656618 59.921778,50.3677017 61.4404686,47.2727818 C61.5631786,47.0227128 63.0358997,44.1200058 63.1598251,43.8712821 C63.2533708,43.6835319 68.9665658,28.0220397 66.1178992,22.8556098 C63.2692326,17.6891799 59.1107966,12.4270397 59.2282763,12.1957919 C59.3499074,11.9563725 62.6343903,15.5708553 66.1178992,22.3332371 C69.6014081,29.0956189 63.0564451,44.0705015 63.1598251,43.8712821 C64.5832134,41.1283297 66.6503277,36.1183719 68.6876315,32.9578188 C68.8604086,32.6897826 79.0845465,25.6428966 86.9626888,24.3283654 C94.8408312,23.0138341 98.8193394,24.7264136 99.0931591,24.3283654 C99.354116,23.9490156 97.295541,22.2925655 86.9626888,24.3283654 C80.0741207,25.6855653 73.9824349,28.5620498 68.6876315,32.9578188" id="Path-140"></path>
                <path d="M40.3909395,122.330161 C34.9828324,128.490108 31.3452886,131.46454 29.478308,131.253457 C26.6778372,130.936834 27.1428098,124.852517 26.2363983,124.650544 C23.9111441,124.132414 18.6698045,127.196835 16.8648389,126.350268 C15.0598733,125.503702 16.3688385,118.436451 14.9911245,117.054215 C14.1079851,116.168176 6.67793452,116.847669 6.04538514,113.996938 C5.41283577,111.146207 7.66503706,108.530336 7.66503706,106.040381 C4.89571725,101.455351 4.5880683,97.8608011 6.74209022,95.2567302 C9.97312311,91.350624 12.7012547,96.964101 14.3948307,96.964101 C15.2339092,96.964101 17.1465392,93.2400057 18.729893,93.5694955 C20.3132468,93.8989854 26.4588736,95.2567302 27.8619572,101.571024 C28.4697145,104.306113 32.6545667,103.350139 35.3126714,107.940009 C37.9707761,112.529879 33.2726126,105.49278 33.1718478,105.32028 C33.0536517,105.11794 28.9387137,103.457751 26.7954802,99.1628365 C26.366844,98.3038744 23.5584496,94.5574054 22.3777593,92.5179938 C21.1970689,90.4785822 21.0166476,86.5275998 20.4040703,85.4109428 C19.7805295,84.2743006 13.7979464,84.9194704 11.8007053,83.0783895 C9.80346412,81.2373086 11.9618923,77.567254 10.1024259,75.6533285 C8.74420028,74.2553238 1.76027785,72.8231785 0.839122035,69.7030543 C-0.082033782,66.5829302 4.94605488,63.0430005 4.72732179,61.7376292 C4.162952,58.3695421 -2.25527466,54.3025027 0.839122035,51.9603712 C1.37121616,51.5576321 4.45898413,51.5576321 10.1024259,51.9603712 C14.114072,48.4208625 16.9898943,47.1292472 18.729893,48.0855252 C20.3101627,48.9540184 18.6868675,52.5073248 21.8779739,56.0604917 C22.674356,56.9472307 27.5486403,54.283477 29.478308,56.0604917 C30.2330046,56.7554853 28.0199959,62.7112017 30.6809614,65.9617183 C32.4549384,68.1287294 35.6915978,70.3736187 40.3909395,72.6963864 L35.3126714,69.7030543 C35.3126714,64.7145458 35.9549596,60.8149658 37.2395361,58.0043142 C37.701854,56.9927632 31.3299867,53.1740779 30.6809614,49.4212979 C30.502104,48.3871125 32.6464374,45.4734457 32.3354807,41.6952286 C32.2494472,40.6498961 26.2363983,40.7866152 26.2363983,34.4840725 C26.2363983,30.2823774 27.3170349,27.9149076 29.478308,27.3816631 C30.1918182,22.6159456 27.9577187,18.6480322 32.3354807,17.563218 C37.3494167,16.3207591 39.8563847,18.9593005 39.8563847,25.4788422 C46.4282981,23.9601923 51.2303108,26.7722102 54.2624229,33.9148958 C52.2026611,28.8791507 49.5361696,26.0671328 46.2629484,25.4788422 C45.0130059,24.2927313 43.0569318,15.956292 45.8869534,14.1574953 C40.7895795,3.86569729 45.9409718,2.05054223 48.6607291,0.884472083 C52.32577,-0.6868794 55.6647396,2.48707691 58.1200425,2.48707691 C60.706853,2.48707691 65.6733598,-0.697090305 68.4437874,0.140325218 C70.2907392,0.698602233 73.0288615,4.7785621 76.6581541,12.3802048 C80.3122405,5.54891599 85.4701197,4.12628068 92.1317919,8.11229889 C95.0064836,9.83237357 97.2010558,4.79677528 102.038362,6.63898117 C105.907033,8.11229889 104.266427,13.0715995 109.037978,14.9776795 C110.967256,15.7483634 117.177166,13.5555843 120.711742,14.1574953 C124.246318,14.7594064 128.442811,18.8082931 128.442811,20.9923546 C128.442811,24.1536251 123.024589,26.0256821 113.71589,29.4316328 C112.209947,29.9826407 115.597048,36.7471623 111.160653,39.2211955 C108.951339,40.4532586 101.265248,37.5428922 93.7532016,36.9342611 C88.7451705,36.528507 86.1884496,37.0207197 86.0830388,38.410899 C89.7878245,36.7703951 92.3445454,36.2781824 93.7532016,36.9342611 C96.9236676,38.410899 102.182476,43.9578779 103.901328,44.8046345 C104.508695,45.1038412 111.008122,42.5251463 114.730094,44.8046345 C118.452066,47.0841226 122.828243,50.2363395 121.181434,56.0604917 C119.576194,61.7376292 103.901328,60.650663 100.506854,62.2301844 C99.3967199,62.7467537 95.316678,68.25158 90.4392556,69.7030543 C87.9769552,70.4358115 83.7031131,66.8652715 77.21438,65.9617183 C72.888558,65.3593495 70.534431,66.1473482 70.1519991,68.3257144 C71.601283,66.5298873 73.95541,65.7418886 77.21438,65.9617183 C78.899511,66.0753867 87.9626494,70.2575759 90.4392556,69.7030543 C90.9506718,69.5885463 93.0396937,68.3414343 96.7063212,65.9617183 C100.103667,66.0849428 110.649076,65.068087 112.206816,71.8250803 C113.723876,78.4056185 106.564525,79.9262131 105.355016,82.2587664 C104.145507,84.5913196 106.650833,89.807502 103.901328,91.3119335 C96.7904686,95.202743 91.34664,91.3704331 90.4392556,91.9127861 C87.8312161,93.4716382 89.2750636,96.3115082 86.0830388,98.5160481 C82.1568082,101.22766 78.1670928,98.4873908 73.6286925,99.1628365 C72.1071316,99.3892889 69.9535305,98.7330095 67.1300284,99.1377249 C65.2476937,99.4075352 61.8143316,100.218635 56.8299421,101.571024 C65.459531,99.3520535 71.0591145,98.5493242 73.6286925,99.1628365 C77.4830595,100.083105 77.6393455,106.890178 79.0970091,106.040381 C84.4455338,102.922266 88.6356347,111.909261 87.2219634,115.61243 C83.5141727,125.325137 78.067547,119.241395 73.6286925,120.152416 C69.189838,121.063437 72.7505939,125.488288 69.0398268,126.350268 C63.577512,127.619119 59.5075505,126.309642 56.8299421,122.421838 C54.4306843,125.711719 52.5449637,127.423947 51.1727802,127.55852 C49.8005967,127.693094 47.3688515,126.404293 43.8775445,123.692116" id="Path-788"></path>
            </g>
        </g>
    </g>
</svg>