<?xml version="1.0" encoding="UTF-8"?>
<svg width="152px" height="152px" viewBox="0 0 152 152" version="1.1" xmlns="http://www.w3.org/2000/svg" xmlns:xlink="http://www.w3.org/1999/xlink">
    <!-- Generator: Sketch 44.1 (41455) - http://www.bohemiancoding.com/sketch -->
    <title>softcheese</title>
    <desc>Created with Sketch.</desc>
    <defs></defs>
    <g id="Page-1" stroke="none" stroke-width="1" fill="none" fill-rule="evenodd">
        <g id="softcheese" stroke="#FF659B">
            <g id="Group" transform="translate(9.000000, 39.000000)">
                <g id="Group-2" stroke-width="2.2">
                    <path d="M67.3251579,0.00106915558 L2.25454835,0.00106915558 C2.25454835,0.00106915558 1.34708588,-0.0448383111 0.673542939,0.464983751 C0,0.974805814 0,1.90538819 0,1.90538819 L0,4.57458948 L0,6.89531185 L2.25257086,6.89531185 L67.4001895,6.89531185" id="Path-245"></path>
                    <path d="M67.7663198,73.928239 L26.4985302,73.928239 C26.4985302,73.928239 21.3848715,74.1534085 17.5768879,70.3887056 C13.7689043,66.6240027 13.1057522,60.3839012 13.1057522,60.3839012 L5.2038835,6.46006111" id="Path-248"></path>
                </g>
                <g id="Group-2" transform="translate(100.000000, 37.000000) scale(-1, 1) translate(-100.000000, -37.000000) translate(66.000000, 0.000000)" stroke-width="2.2">
                    <path d="M67.3251579,0.00106915558 L2.25454835,0.00106915558 C2.25454835,0.00106915558 1.34708588,-0.0448383111 0.673542939,0.464983751 C9.23705556e-14,0.974805814 9.23705556e-14,1.90538819 9.23705556e-14,1.90538819 L9.23705556e-14,4.57458948 L9.23705556e-14,6.89531185 L2.25257086,6.89531185 L67.4001895,6.89531185" id="Path-245"></path>
                    <path d="M67.7663198,73.928239 L26.4985302,73.928239 C26.4985302,73.928239 21.3848715,74.1534085 17.5768879,70.3887056 C13.7689043,66.6240027 13.1057522,60.3839012 13.1057522,60.3839012 L5.2038835,6.46006111" id="Path-248"></path>
                </g>
                <path d="M8.50657863,26.0520094 L41.1192839,26.0520094 C41.1192839,26.0520094 46.0348225,15.3011664 66.1541996,15.3011664 C86.2735766,15.3011664 93.8386635,26.0520094 93.8386635,26.0520094 L126.260353,26.0520094 L121.655376,56.7026838 L12.2354262,56.7026838 L8.50657863,26.0520094 Z" id="Path-254" stroke-width="1.5"></path>
            </g>
        </g>
    </g>
</svg>