<?xml version="1.0" encoding="UTF-8"?>
<svg width="152px" height="152px" viewBox="0 0 152 152" version="1.1" xmlns="http://www.w3.org/2000/svg" xmlns:xlink="http://www.w3.org/1999/xlink">
    <!-- Generator: Sketch 44.1 (41455) - http://www.bohemiancoding.com/sketch -->
    <title>kumquat</title>
    <desc>Created with Sketch.</desc>
    <defs></defs>
    <g id="Page-1" stroke="none" stroke-width="1" fill="none" fill-rule="evenodd" stroke-linecap="round">
        <g id="kumquat" stroke="#F95604">
            <g id="Group-2" transform="translate(39.228616, 55.024735) rotate(10.000000) translate(-39.228616, -55.024735) translate(8.424279, 10.856773)" stroke-width="2.1">
                <path d="M33.147153,13.5896491 C33.2364703,7.83184982 40.8577348,-3.48003389 42.270161,1.69751067 C42.6585651,3.12128741 39.731713,3.27155659 39.2296936,4.65980275 C38.1247898,7.71521943 38.105566,10.8485598 37.7922703,14.080328 C37.7922703,14.080328 36.1506897,14.6084518 35.2524541,14.5135683 C34.3542185,14.4186847 33.147153,13.5896491 33.147153,13.5896491 Z" id="Path-256"></path>
                <path d="M34.3510419,7.23475948 C-6.31992313,7.5620949 -9.22767955,77.9971475 19.0009695,86.3121538 C55.7760593,97.1445922 74.0110069,50.2102316 51.737828,15.9407748 C51.737828,15.9407748 50.5502476,13.7528666 46.5533781,11.0757991 C42.5565085,8.39873153 39.0643701,7.9602816 39.0643701,7.9602816" id="Path-255"></path>
            </g>
            <g id="Group-2" transform="translate(107.084979, 96.447945) scale(-1, 1) rotate(15.000000) translate(-107.084979, -96.447945) translate(74.192213, 49.781723)" stroke-width="2.1">
                <path d="M35.1719909,14.420812 C35.2667643,8.31085727 43.3535839,-3.69287788 44.8522901,1.80133292 C45.2644203,3.31218994 42.1587776,3.4716498 41.6260917,4.94480314 C40.4536933,8.1870936 40.4332952,11.5120737 40.1008614,14.9415015 C40.1008614,14.9415015 38.3590027,15.5019262 37.4058972,15.4012394 C36.4527917,15.3005527 35.1719909,14.420812 35.1719909,14.420812 Z" id="Path-256"></path>
                <path d="M36.449421,7.677248 C-6.70598404,8.02460375 -9.79136464,82.7675678 20.161669,91.591132 C59.1832142,103.086098 78.5320677,53.2811632 54.8983021,16.9157361 C54.8983021,16.9157361 53.6381768,14.5940122 49.3971531,11.7532112 C45.1561295,8.9124103 41.4506691,8.44714413 41.4506691,8.44714413" id="Path-255"></path>
            </g>
            <g id="Group-3" transform="translate(116.833099, 40.458096) scale(-1, 1) rotate(30.000000) translate(-116.833099, -40.458096) translate(85.506655, 29.273696)" stroke-width="2" stroke-linejoin="round">
                <path d="M61.9212211,10.555023 C46.8893548,-7.49395073 9.55028655,0.654908383 0.441681691,20.1763248 C0.441681691,20.1763248 9.48766193,13.089928 25.7535462,8.57656598 C42.0194304,4.06320395 57.7193861,8.57656598 57.7193861,8.57656598" id="Path-362"></path>
                <path d="M59.2358965,8.12371768 C41.9602543,19.4262889 21.5108223,25.2049078 0.927005167,20.2579135" id="Path-363"></path>
            </g>
        </g>
    </g>
</svg>