<?xml version="1.0" encoding="UTF-8"?>
<svg width="152px" height="152px" viewBox="0 0 152 152" version="1.1" xmlns="http://www.w3.org/2000/svg" xmlns:xlink="http://www.w3.org/1999/xlink">
    <!-- Generator: Sketch 44.1 (41455) - http://www.bohemiancoding.com/sketch -->
    <title>lime</title>
    <desc>Created with Sketch.</desc>
    <defs></defs>
    <g id="Page-1" stroke="none" stroke-width="1" fill="none" fill-rule="evenodd">
        <g id="lime" stroke="#91E195" stroke-width="2">
            <g id="Group" transform="translate(73.500000, 86.000000) scale(-1, 1) translate(-73.500000, -86.000000) translate(2.000000, 25.000000)">
                <path d="M0.75060127,17.4763042 C2.0664821,15.2423487 3.72850692,12.9400349 5.86878766,10.5567316 C7.53364954,8.70282952 6.50635632,5.23582356 8.57595038,3.6799926 C10.6455444,2.12416164 13.9408496,4.41724969 15.9764869,3.6799926 C35.8552614,-3.51960392 55.9008519,3.09195644 67.4773111,12.4698769 C84.5133729,26.2705417 86.5771482,57.0793766 70.9316799,77.912919 C62.4559027,89.1992839 45.9968437,95.2952036 31.8438403,92.0767659" id="Path-632" stroke-linecap="round" stroke-linejoin="round" transform="translate(41.148907, 46.781979) scale(-1, 1) translate(-41.148907, -46.781979) "></path>
                <path d="M51.0098657,78.0321365 C51.0098657,78.0321365 55.6816802,90.5383679 61.2152589,94.4486969 C66.7488376,98.3590259 74.9932677,99.8410301 74.9932677,99.8410301 C75.9555391,100.294831 80.7642854,64.948844 80.7642854,64.948844 L51.0098657,78.0321365 Z" id="Path-715" stroke-linejoin="round"></path>
                <ellipse id="Oval-36" transform="translate(85.754229, 61.759973) rotate(30.000000) translate(-85.754229, -61.759973) " cx="85.7542285" cy="61.7599727" rx="38.8128852" ry="47.0696436"></ellipse>
                <path d="M67.4432624,34.2885977 L82.4679392,58.1853788 L93.4009293,22.5742615 C86.910217,23.1096601 81.6843354,24.2304437 77.7232845,25.936612 C73.7622336,27.6427803 70.3355596,30.4267756 67.4432624,34.2885977 Z" id="Path-794" stroke-linejoin="round"></path>
                <path d="M85.0377318,65.7405795 L80.7553263,100.452876 C86.0739558,99.3469091 91.483053,97.1859474 96.9826178,93.9699906 C102.482183,90.7540339 107.423337,86.3169303 111.80608,80.6586798 L85.0377318,65.7405795 Z" id="Path-796" stroke-linejoin="round"></path>
                <path d="M56.7896878,98.7092505 C67.5443535,110.646215 100.907111,123.497701 122.670464,100.360375 C144.433818,77.2230483 134.844218,43.3251973 117.022472,27.016133" id="Path-798"></path>
                <path d="M88.3135205,62.1551273 L118.599522,44.6813664 C119.762367,50.2065451 120.036709,55.2453012 119.422549,59.7976349 C118.808389,64.3499685 117.112811,69.8458209 114.335817,76.285192 L88.3135205,62.1551273 Z" id="Path-797" stroke-linejoin="round"></path>
                <path d="M79.2122617,61.1193563 L50.2875382,71.6564428 C50.4429351,64.7095753 51.381266,58.7246814 53.1025309,53.7017613 C54.8237958,48.6788412 57.9631281,43.5969664 62.5205278,38.4561372 L79.2122617,61.1193563 Z" id="Path-793" stroke-linejoin="round"></path>
                <path d="M87.4177507,58.0666202 L98.5977577,24.1333904 C103.302524,25.4101657 106.71795,26.8840559 108.844035,28.555061 C110.970121,30.2260661 113.802369,33.6625602 117.340781,38.8645433 L87.4177507,58.0666202 Z" id="Path-795" stroke-linejoin="round"></path>
            </g>
        </g>
    </g>
</svg>