<?xml version="1.0" encoding="UTF-8"?>
<svg width="152px" height="152px" viewBox="0 0 152 152" version="1.1" xmlns="http://www.w3.org/2000/svg" xmlns:xlink="http://www.w3.org/1999/xlink">
    <!-- Generator: Sketch 44.1 (41455) - http://www.bohemiancoding.com/sketch -->
    <title>avocado</title>
    <desc>Created with Sketch.</desc>
    <defs></defs>
    <g id="Page-1" stroke="none" stroke-width="1" fill="none" fill-rule="evenodd">
        <g id="avocado" stroke="#979797">
            <g id="Group" transform="translate(16.000000, 6.000000)">
                <path d="M46.3157895,48.5204723 C46.3157895,48.5204723 56.4801407,25.4394783 64.0847035,14.3257966 C71.6892662,3.21211495 80.5508412,1.66911446 80.5508412,1.66911446 L90.7248502,2.33641 C90.7248502,2.33641 80.6701921,1.4223856 80.8569026,1.43463161 C80.9331476,1.43963239 83.2907592,-0.296833785 86.4087885,0.0444405545 C89.5268178,0.385714894 90.7248502,2.33641 90.7248502,2.33641 C90.7248502,2.33641 97.9275993,5.30810336 100.190884,9.0274985 C106.08671,18.7164733 105.49667,24.501862 109.179073,37.0430316 C112.861477,49.5842013 116.462807,59.6658013 116.462807,59.6658013 C116.462807,59.6658013 125.804804,92.4068024 109.179073,108.896981 C92.553342,125.387159 74.6300106,123.028657 74.6300106,123.028657" id="Path-674" stroke-width="2"></path>
                <path d="M17.3467511,34.0553256 C15.779014,34.6754858 10.958981,34.5754914 7.96523293,37.8318063 C4.9714849,41.0881212 4.53181453,48.3574699 4.53181453,48.3574699 C4.53181453,48.3574699 4.33402986,49.8183656 3.1410313,62.8995496 C1.94803274,75.9807335 -0.593140086,87.8965619 0.126016052,95.6169908 C2.09231822,116.726031 11.0951074,125.397429 11.0951074,125.397429 C11.0951074,125.397429 28.6061105,149.369877 57.8208751,136.808406 C87.0356397,124.246934 80.9216538,95.6169908 80.9216538,95.6169908 C80.9216538,95.6169908 77.9184218,77.7163935 69.375242,69.7435234 C66.696629,67.2437241 52.7794638,55.644429 45.3713767,48.3574699 C37.9632896,41.0705109 33.2094358,34.6754858 33.2094358,34.6754858 C33.2094358,34.6754858 29.8884989,30.5149254 25.7452014,30.5149254 C21.6019038,30.5149254 18.9144883,33.4351653 17.3467511,34.0553256 Z" id="Path-675" stroke-width="2.5"></path>
                <path d="M41.7645421,118.137387 C50.3110125,118.137387 57.2392957,111.211689 57.2392957,102.668408 C57.2392957,94.1251266 47.5512599,82.0939943 41.816224,82.0688117 C36.0811881,82.0436291 26.2897886,94.1251266 26.2897886,102.668408 C26.2897886,111.211689 33.2180717,118.137387 41.7645421,118.137387 Z" id="Oval" stroke-width="2" transform="translate(41.764542, 100.103080) rotate(-20.000000) translate(-41.764542, -100.103080) "></path>
            </g>
        </g>
    </g>
</svg>