<?xml version="1.0" encoding="UTF-8"?>
<svg width="152px" height="152px" viewBox="0 0 152 152" version="1.1" xmlns="http://www.w3.org/2000/svg" xmlns:xlink="http://www.w3.org/1999/xlink">
    <!-- Generator: Sketch 44.1 (41455) - http://www.bohemiancoding.com/sketch -->
    <title>hummus</title>
    <desc>Created with Sketch.</desc>
    <defs></defs>
    <g id="Page-1" stroke="none" stroke-width="1" fill="none" fill-rule="evenodd">
        <g id="hummus" stroke="#F95604">
            <g id="Group" transform="translate(9.000000, 44.000000)">
                <g id="Group-2" stroke-width="2.2">
                    <path d="M67.3251579,0.000924675098 L2.25454835,0.000924675098 C2.25454835,0.000924675098 1.34708588,-0.0387790799 0.673542939,0.402148109 C0,0.843075298 0,1.6479033 0,1.6479033 L0,3.95640172 L0,5.96351295 L2.25257086,5.96351295 L67.4001895,5.96351295" id="Path-245"></path>
                    <path d="M67.7663198,63.9379365 L26.4985302,63.9379365 C26.4985302,63.9379365 21.3848715,64.1326776 17.5768879,60.8767184 C13.7689043,57.6207591 13.1057522,52.2239146 13.1057522,52.2239146 L5.2038835,5.58707988" id="Path-248"></path>
                </g>
                <g id="Group-2" transform="translate(100.000000, 32.000000) scale(-1, 1) translate(-100.000000, -32.000000) translate(66.000000, 0.000000)" stroke-width="2.2">
                    <path d="M67.3251579,0.000924675098 L2.25454835,0.000924675098 C2.25454835,0.000924675098 1.34708588,-0.0387790799 0.673542939,0.402148109 C9.23705556e-14,0.843075298 9.23705556e-14,1.6479033 9.23705556e-14,1.6479033 L9.23705556e-14,3.95640172 L9.23705556e-14,5.96351295 L2.25257086,5.96351295 L67.4001895,5.96351295" id="Path-245"></path>
                    <path d="M67.7663198,63.9379365 L26.4985302,63.9379365 C26.4985302,63.9379365 21.3848715,64.1326776 17.5768879,60.8767184 C13.7689043,57.6207591 13.1057522,52.2239146 13.1057522,52.2239146 L5.2038835,5.58707988" id="Path-248"></path>
                </g>
                <path d="M8.50657863,22.5314676 L41.1192839,22.5314676 C41.1192839,22.5314676 46.0348225,13.2334412 66.1541996,13.2334412 C86.2735766,13.2334412 93.8386635,22.5314676 93.8386635,22.5314676 L126.260353,22.5314676 L121.655376,49.040159 L12.2354262,49.040159 L8.50657863,22.5314676 Z" id="Path-254" stroke-width="1.5"></path>
            </g>
        </g>
    </g>
</svg>