<?xml version="1.0" encoding="UTF-8"?>
<svg width="152px" height="152px" viewBox="0 0 152 152" version="1.1" xmlns="http://www.w3.org/2000/svg" xmlns:xlink="http://www.w3.org/1999/xlink">
    <!-- Generator: Sketch 44.1 (41455) - http://www.bohemiancoding.com/sketch -->
    <title>Melon</title>
    <desc>Created with Sketch.</desc>
    <defs></defs>
    <g id="Page-1" stroke="none" stroke-width="1" fill="none" fill-rule="evenodd" stroke-linecap="round" stroke-linejoin="round">
        <g id="Melon" stroke="#FF9677">
            <g id="Group" transform="translate(3.000000, 14.000000)">
                <path d="M39.7936129,82.03493 C36.199596,74.1520558 35.2127156,67.3019199 35.5274166,60.0610762 C37.5459007,13.6184885 91.3318964,-4.33158299 126.144276,20.0766333 C150.819333,37.3772075 150.773436,87.2710033 130.45381,107.045153 C117.821666,119.338188 96.1330728,122.443437 80.0421319,120.796032" id="Path-502" stroke-width="2.2"></path>
                <path d="M93.3522864,9.16202117 C95.5477669,4.23650623 99.8502755,-1.59635165 106.820084,2.03002821 C107.469769,2.36805807 108.519246,3.93156339 107.661035,4.06597237 C100.037993,5.25985647 101.537063,4.3651445 99.0500993,9.62011769" id="Path-503" stroke-width="2.2"></path>
                <path d="M0.496944495,67.0581662 L19.5920584,68.3815935 C19.5920584,68.3815935 29.556,88.7631803 55.9469801,92.3602997 C82.3379603,95.9574191 98.2815679,71.7689151 98.2815679,71.7689151 C98.46732,71.8387693 118.038835,75.2046556 118.038835,75.2046556 C118.038835,75.2046556 105.191545,128.972707 53.0492477,124.15209 C0.906949997,119.331473 0.496944495,67.0581662 0.496944495,67.0581662 Z" id="Path-504" stroke-width="2.2"></path>
                <path d="M1.10130158,67.5446006 C1.10130158,67.5446006 6.00587016,118.924573 54.5567719,121.673192 C103.107674,124.421811 118.095817,75.5926585 118.095817,75.5926585" id="Path-505" stroke-width="2.2"></path>
                <path d="M20.1701321,68.6130635 C20.1701321,68.6130635 25.6161733,84.4353462 57.5459738,84.4353462 C89.4757742,84.4353462 98.163249,71.6783914 98.163249,71.6783914" id="Path-506" stroke-width="2.2"></path>
                <path d="M93.7784695,9.1271998 C93.7784695,9.1271998 73.2200995,11.0910629 59.9844961,32.6277144 C46.7488928,54.1643658 52.112934,83.3581875 52.112934,83.3581875" id="Path-507" stroke-width="1.9"></path>
                <path d="M108.466029,118.688334 C108.466029,118.688334 121.80769,116.445719 129.953945,84.7549248 C138.100201,53.0641308 123.463519,33.3096695 123.463519,33.3096695" id="Path-508" stroke-width="1.9"></path>
            </g>
        </g>
    </g>
</svg>