<?xml version="1.0" encoding="UTF-8"?>
<svg width="152px" height="152px" viewBox="0 0 152 152" version="1.1" xmlns="http://www.w3.org/2000/svg" xmlns:xlink="http://www.w3.org/1999/xlink">
    <!-- Generator: Sketch 44.1 (41455) - http://www.bohemiancoding.com/sketch -->
    <title>mozzarella</title>
    <desc>Created with Sketch.</desc>
    <defs></defs>
    <g id="Page-1" stroke="none" stroke-width="1" fill="none" fill-rule="evenodd" stroke-linejoin="round">
        <g id="mozzarella" stroke="#FF659B" stroke-width="2">
            <g id="Group" transform="translate(6.000000, 26.000000)">
                <path d="M39.8139822,39.3917953 C41.0451636,32.7954157 44.9545979,14.7795201 53.421558,9.32115772 C77.2834515,-6.06179677 107.089913,-1.09264204 126.044386,18.5431412 C134.31008,27.1059415 146.77129,52.313873 134.345841,62.877375 C124.24076,71.468214 112.974987,76.0065045 99.824603,75.4521659 C86.6742195,74.8978272 79.9231006,72.7308284 74.2889957,69.0318173" id="Path-311"></path>
                <path d="M39.0210204,46.6699677 C39.1739035,11.4351357 86.7057203,11.2755283 103.877575,34.6364066 C110.683074,43.8947202 119.135089,72.4504303 99.364101,75.5494057" id="Path-312"></path>
                <path d="M23.148415,44.223653 C8.29096121,44.2314851 22.3653832,77.8736685 32.2817673,82.988532 C40.1148377,87.0288238 48.4749832,90.1925036 57.0494279,92.0296923 C68.3394657,94.4487329 80.8599997,85.1669326 75.6900194,72.2428116 C71.5543009,61.9041793 64.7583508,59.8799272 56.0504493,54.5016441 C44.6108532,49.4972867 36.0818957,44.2168352 23.148415,44.223653 Z" id="Path-313"></path>
                <path d="M23.384628,72.884095 C24.9785505,76.1103802 29.0842783,84.1945303 34.3350603,87.0376322 C53.5858967,97.46124 86.6099454,101.55448 75.3136573,70.4220819" id="Path-314"></path>
                <path d="M16.6313696,51.5351837 C-14.440052,67.8380901 3.04058122,116.161505 37.5891349,89.0942357" id="Path-315"></path>
                <path d="M2.82843709,87.297015 C13.0655678,105.187449 27.6922316,101.251038 39.352763,89.8453668" id="Path-316"></path>
            </g>
        </g>
    </g>
</svg>