<?xml version="1.0" encoding="UTF-8"?>
<svg width="152px" height="152px" viewBox="0 0 152 152" version="1.1" xmlns="http://www.w3.org/2000/svg" xmlns:xlink="http://www.w3.org/1999/xlink">
    <!-- Generator: Sketch 44.1 (41455) - http://www.bohemiancoding.com/sketch -->
    <title>mung beans</title>
    <desc>Created with Sketch.</desc>
    <defs></defs>
    <g id="Page-1" stroke="none" stroke-width="1" fill="none" fill-rule="evenodd">
        <g id="mung-beans" stroke="#095B6B">
            <g id="Group" transform="translate(-3.000000, 9.000000)">
                <path d="M111.731022,8.35721625 C83.685617,14.6016053 100.528319,51.1557032 124.002059,49.6649829 C151.113417,47.9432525 141.159644,9.99852902 114.894607,8.14630316 C114.894607,8.14630316 113.825834,8.11045816 113.288178,8.14630316 C112.750522,8.18214816 111.731022,8.35721625 111.731022,8.35721625 Z" id="Path-298" stroke-width="2.2" transform="translate(118.593406, 28.919846) rotate(150.000000) translate(-118.593406, -28.919846) "></path>
                <path d="M30.2381299,6.31727487 C2.1673676,12.5673098 19.0252979,49.1544585 42.5202624,47.6623903 C69.6561328,45.9391032 59.6933605,7.96007165 33.4045751,6.10617108 C33.4045751,6.10617108 32.3348359,6.07029367 31.7966938,6.10617108 C31.2585517,6.14204849 30.2381299,6.31727487 30.2381299,6.31727487 Z" id="Path-298" stroke-width="2.2"></path>
                <path d="M121.147967,83.0492981 C93.1025622,89.2936871 109.945264,125.847785 133.419005,124.357065 C160.530362,122.635334 150.576589,84.6906109 124.311552,82.838385 C124.311552,82.838385 123.242779,82.80254 122.705123,82.838385 C122.167467,82.87423 121.147967,83.0492981 121.147967,83.0492981 Z" id="Path-298" stroke-width="2.2" transform="translate(128.010351, 103.611928) rotate(150.000000) translate(-128.010351, -103.611928) "></path>
                <path d="M22.3979669,64.7786214 C-5.64743784,71.0230104 11.195264,107.577108 34.6690046,106.086388 C61.7803619,104.364658 51.8265894,66.4199342 25.5615517,64.5677083 C25.5615517,64.5677083 24.492779,64.5318633 23.955123,64.5677083 C23.4174669,64.6035533 22.3979669,64.7786214 22.3979669,64.7786214 Z" id="Path-298" stroke-width="2.2" transform="translate(29.260351, 85.341251) rotate(300.000000) translate(-29.260351, -85.341251) "></path>
                <path d="M74.9354983,45.903741 C46.864736,52.153776 63.7226663,88.7409246 87.2176309,87.2488564 C114.353501,85.5255694 104.390729,47.5465378 78.1019435,45.6926372 C78.1019435,45.6926372 77.0322044,45.6567598 76.4940622,45.6926372 C75.9559201,45.7285147 74.9354983,45.903741 74.9354983,45.903741 Z" id="Path-298" stroke-width="2.2"></path>
                <path d="M66.6197088,93.610508 C38.5489465,99.8605429 55.4068768,136.447692 78.9018414,134.955623 C106.037712,133.232336 96.0749394,95.2533047 69.786154,93.3994042 C69.786154,93.3994042 68.7164149,93.3635268 68.1782727,93.3994042 C67.6401306,93.4352816 66.6197088,93.610508 66.6197088,93.610508 Z" id="Path-298" stroke-width="2.2"></path>
                <path d="M47.1347866,12.0568463 C47.4678317,20.2197616 47.8476886,21.6350174 56.1397415,22.0066244" id="Path-334" stroke-width="1.5"></path>
                <path d="M118.261061,24.927676 C117.518971,24.6936608 113.00983,22.5903869 110.983003,23.9720973 C104.27259,28.5466603 131.969444,34.4162923 121.913959,26.7431058 C120.369078,25.5642311 119.968566,25.529588 118.095234,24.8615251" id="Path-337" stroke-width="1.5"></path>
                <path d="M62.4141638,69.7900424 C68.8383606,67.9025757 73.7358519,75.6205118 67.9265427,79.8408335" id="Path-338" stroke-width="1.5"></path>
                <path d="M15.3092213,72.0709815 C14.5231571,76.9419581 29.3961514,75.968535 26.2310532,67.9213023" id="Path-340" stroke-width="1.5"></path>
                <path d="M72.4410593,119.736679 C79.0983727,121.717837 74.6808876,113.054032 73.4264146,111.526378 C65.0649654,101.566813 66.3953441,117.937527 72.4410593,119.736679 Z" id="Path-343" stroke-width="1.5"></path>
                <path d="M124.529884,85.3580253 C127.0269,91.672881 133.551508,92.6350636 138.60451,88.1906689" id="Path-349" stroke-width="1.5"></path>
            </g>
        </g>
    </g>
</svg>