<?xml version="1.0" encoding="UTF-8"?>
<svg width="152px" height="152px" viewBox="0 0 152 152" version="1.1" xmlns="http://www.w3.org/2000/svg" xmlns:xlink="http://www.w3.org/1999/xlink">
    <!-- Generator: Sketch 44.1 (41455) - http://www.bohemiancoding.com/sketch -->
    <title>nori</title>
    <desc>Created with Sketch.</desc>
    <defs></defs>
    <g id="Page-1" stroke="none" stroke-width="1" fill="none" fill-rule="evenodd" stroke-linecap="round" stroke-linejoin="round">
        <g id="nori" stroke="#095B6B" stroke-width="2">
            <path d="M101.786341,130.096813 L149.917399,65.7856225 C149.917399,65.7856225 142.279345,59.1092734 131.044197,51.7761443 C119.809049,44.4430152 87.2515113,24.8838875 87.2515113,24.8838875 L33.5807758,80.1624027 C33.5807758,80.1624027 37.9764576,82.474129 40.5346788,84.3470446 C43.0928999,86.2199601 49.0796646,91.6071958 49.0796646,91.6071958 L101.786341,130.096813 Z" id="Path-509"></path>
            <polyline id="Path-510" points="99.53071 128.797941 97.5883753 130.453844 22.4157413 89.0758849 71.0077054 26.9840071 80.6123133 31.4957964"></polyline>
            <path d="M89.822367,126.25929 L17.2858029,99.4978303 L23.0166181,89.2261756 C23.0166181,89.2261756 22.3497313,89.4183001 22.5905715,88.986629 C22.8314117,88.554958 24.5656707,86.3136947 24.5656707,86.3136947 L26.885305,83.3562259 L56.9367899,28.4291896 L66.104773,32.1814338" id="Path-511"></path>
            <path d="M52.5512125,35.0672506 L42.7999259,33.1342763 C42.7999259,33.1342763 30.7273702,58.2884068 25.1068509,71.0590342 C19.4863315,83.8296616 11.2517943,104.816164 11.2517943,104.816164 L87.1264365,125.195017" id="Path-512"></path>
            <path d="M87.296993,125.280296 C86.3504531,125.280296 50.634348,119.304483 29.5642114,116.573169 C8.49407486,113.841854 3.54008196,114.54774 3.54008196,114.54774 L27.7352343,39.8712601 L38.7702431,41.2891536" id="Path-513"></path>
        </g>
    </g>
</svg>