<?xml version="1.0" encoding="UTF-8"?>
<svg width="152px" height="152px" viewBox="0 0 152 152" version="1.1" xmlns="http://www.w3.org/2000/svg" xmlns:xlink="http://www.w3.org/1999/xlink">
    <!-- Generator: Sketch 46.2 (44496) - http://www.bohemiancoding.com/sketch -->
    <title>nutella</title>
    <desc>Created with Sketch.</desc>
    <defs></defs>
    <g id="Page-1" stroke="none" stroke-width="1" fill="none" fill-rule="evenodd">
        <g id="nutella">
            <g id="Group" transform="translate(23.000000, 3.000000)">
                <path d="M53,146 C39.7006316,145.825245 31.0244386,145.495102 26.9714209,145.009571 C22.9184033,144.52404 20.0029665,142.967778 18.2251104,140.340784 C15.4733923,139.361065 13.4965778,138.500982 12.2946669,137.760534 C11.0927559,137.020086 9.85586878,135.900339 8.58400538,134.401294 L4.7164247,129.71179 C2.67055787,126.883809 1.43422857,124.948918 1.00743681,123.907115 C0.580645043,122.865312 0.244832774,120.89655 0,118.000829 L0,58.6788817 C0.159986182,55.3556997 0.495798451,52.914171 1.00743681,51.3542955 C1.51907516,49.7944199 2.60460186,47.9025913 4.2640169,45.6788096 L16.1516177,29.0377447 L12.2946669,26.7443671 C16.1166841,28.7231878 20.4969977,30.381405 25.4356078,31.7190188 C30.3742178,33.0566326 39.5623486,33.5877036 53,33.3122319 C40.1482956,33.5215266 30.9601649,32.9904556 25.4356078,31.7190188 C19.9110507,30.4475819 15.530737,28.7893647 12.2946669,26.7443671 L12.2946669,4" id="Path-147" stroke="#979797" stroke-width="2.1"></path>
                <path d="M105,146 C91.7006316,145.825245 83.0244386,145.495102 78.9714209,145.009571 C74.9184033,144.52404 72.0029665,142.967778 70.2251104,140.340784 C67.4733923,139.361065 65.4965778,138.500982 64.2946669,137.760534 C63.0927559,137.020086 61.8558688,135.900339 60.5840054,134.401294 L56.7164247,129.71179 C54.6705579,126.883809 53.4342286,124.948918 53.0074368,123.907115 C52.580645,122.865312 52.2448328,120.89655 52,118.000829 L52,58.6788817 C52.1599862,55.3556997 52.4957985,52.914171 53.0074368,51.3542955 C53.5190752,49.7944199 54.6046019,47.9025913 56.2640169,45.6788096 L68.1516177,29.0377447 L64.2946669,26.7443671 C68.1166841,28.7231878 72.4969977,30.381405 77.4356078,31.7190188 C82.3742178,33.0566326 91.5623486,33.5877036 105,33.3122319 C92.1482956,33.5215266 82.9601649,32.9904556 77.4356078,31.7190188 C71.9110507,30.4475819 67.530737,28.7893647 64.2946669,26.7443671 L64.2946669,4" id="Path-147" stroke="#979797" stroke-width="2.1" transform="translate(78.500000, 75.000000) scale(-1, 1) translate(-78.500000, -75.000000) "></path>
                <path d="M0,61 C9.70451209,63.6124036 27.2045121,65.0311603 52.5,65.25627 C77.7954879,65.4813797 95.2954879,64.0626231 105,61 L105,118.248026 C97.9358588,122.622248 80.4358588,124.871289 52.5,124.995151 C24.5641412,125.119013 7.06414121,122.869971 0,118.248026 L0,61 Z" id="Path-148" stroke="#979797" stroke-width="2"></path>
                <path d="M54.069897,10 C76.4194489,10 94,7.51269305 94,4.44444444 C94,1.37619583 76.4194489,0 54.069897,0 C31.720345,0 13,1.37619583 13,4.44444444 C13,7.51269305 31.720345,10 54.069897,10 Z" id="Oval" stroke="#979797" stroke-width="2.1"></path>
                <path d="M34,116 L34,74.9349955 L45.0962513,74.9349955 L45.0962513,82.6767587 C48.7200451,76.892224 53.3934195,74 59.1165147,74 C62.7902919,74 65.6892835,75.1593829 67.8135765,77.4781834 C69.9378695,79.796984 71,82.9634706 71,86.9777382 L71,116 L59.9037487,116 L59.9037487,89.7079252 C59.9037487,85.0453908 58.3542877,82.7141585 55.2553191,82.7141585 C51.731492,82.7141585 48.3451699,85.1949885 45.0962513,90.1567231 L45.0962513,116 L34,116 Z" id="n" fill="#979797"></path>
            </g>
        </g>
    </g>
</svg>