<?xml version="1.0" encoding="UTF-8"?>
<svg width="152px" height="152px" viewBox="0 0 152 152" version="1.1" xmlns="http://www.w3.org/2000/svg" xmlns:xlink="http://www.w3.org/1999/xlink">
    <!-- Generator: Sketch 44.1 (41455) - http://www.bohemiancoding.com/sketch -->
    <title>nutmeg</title>
    <desc>Created with Sketch.</desc>
    <defs></defs>
    <g id="Page-1" stroke="none" stroke-width="1" fill="none" fill-rule="evenodd">
        <g id="nutmeg" stroke="#FF9677">
            <g id="Group-2" transform="translate(5.000000, 40.000000)">
                <path d="M62.2513932,25.9702974 C68.5638499,-7.91438712 136.920496,-9.29838279 139.81043,25.69788 C140.576402,34.9735807 139.81043,47.9254431 133.892558,55.5479319 C111.669271,84.1725381 75.1155096,65.2934822 65.058223,47.1536547" id="Path-18" stroke-width="2"></path>
                <path d="M39.8075373,18.2992185 C16.6887897,24.1519886 14.6586307,19.294663 3.30000869,35.4629689 C-9.04204065,53.0311236 16.2309159,61.8673109 29.8474,58.2692387 C56.6148044,51.1961169 84.5686512,22.801504 43.0526189,17.877551 L39.8075373,18.2992185 Z" id="Path-71" stroke-width="2"></path>
                <path d="M1.10074964,48.9811512 C21.0628877,85.7219235 75.5968682,77.7559384 63.5907528,28.3061224" id="Path-74" stroke-width="2"></path>
                <g id="Group" transform="translate(4.446528, 10.428571)" stroke-linecap="round">
                    <path d="M45.0176829,32.0275497 C45.399882,32.6435594 45.7820811,33.2595692 46.1642801,33.875579" id="Path-75" transform="translate(45.590982, 32.951564) rotate(74.000000) translate(-45.590982, -32.951564) "></path>
                    <path d="M27.7658624,31.0106463 L28.746279,33.7574712" id="Path-76" transform="translate(28.265862, 32.384059) rotate(74.000000) translate(-28.265862, -32.384059) "></path>
                    <path d="M12.8402323,32.1595446 C13.291224,32.1595446 13.7422156,32.1595446 14.1932073,32.1595446" id="Path-77" transform="translate(13.516720, 32.659545) rotate(74.000000) translate(-13.516720, -32.659545) "></path>
                    <path d="M8.82136891,38.8530448 C9.251445,38.8279635 9.6815211,38.8028821 10.1115972,38.7778007" id="Path-79" transform="translate(9.466483, 39.277801) rotate(74.000000) translate(-9.466483, -39.277801) "></path>
                    <polyline id="Path-80" transform="translate(19.301777, 41.954219) rotate(74.000000) translate(-19.301777, -41.954219) " points="18.8017768 40.556828 18.8017768 42.4908506 18.8017768 43.1341467 18.8017768 43.2829813 18.8017768 43.3516106"></polyline>
                    <path d="M35.1690781,38.6444027 L35.6166382,39.5365833" id="Path-163" transform="translate(35.669078, 39.144403) rotate(74.000000) translate(-35.669078, -39.144403) "></path>
                    <path d="M36.3126259,21.4818864 C36.8626396,21.4818864 37.4126533,21.4818864 37.9626671,21.4818864" id="Path-164" transform="translate(37.137646, 21.981886) rotate(74.000000) translate(-37.137646, -21.981886) "></path>
                    <path d="M52.7172194,18.8109054 C52.893531,18.8566582 53.0698426,18.9024111 53.2461542,18.9481639" id="Path-165" transform="translate(53.217219, 19.310905) rotate(74.000000) translate(-53.217219, -19.310905) "></path>
                    <path d="M11.3924335,23.8828813 C11.8004502,23.8828813 12.2084669,23.8828813 12.6164836,23.8828813" id="Path-166" transform="translate(12.004459, 24.382881) rotate(74.000000) translate(-12.004459, -24.382881) "></path>
                    <path d="M7.37941986,24.8757195 C7.61455645,24.9710839 7.84969304,25.0664483 8.08482963,25.1618127" id="Path-167" transform="translate(7.879420, 25.375720) rotate(74.000000) translate(-7.879420, -25.375720) "></path>
                    <path d="M22.6720927,25.3313964 L22.889255,27.1794258" id="Path-168" transform="translate(23.172093, 26.255411) rotate(74.000000) translate(-23.172093, -26.255411) "></path>
                    <path d="M0.88404137,32.1392093 C1.2278408,32.1392093 1.57164024,32.1392093 1.91543967,32.1392093" id="Path-169" transform="translate(1.399741, 32.639209) rotate(74.000000) translate(-1.399741, -32.639209) "></path>
                    <path d="M108.547285,0.373478801 C124.569662,1.26208549 130.30704,19.1143777 133.297835,32.6719683" id="Path-182" stroke-width="1.4"></path>
                    <path d="M101.92411,5.93444201 C120.069118,8.02571703 128.32211,19.8782601 133.388871,36.105503" id="Path-183" stroke-width="1.4"></path>
                    <path d="M83.0893821,36.1757058 C102.988976,47.2128524 115.187418,47.9528001 135.070667,36.3247195" id="Path-185" stroke-width="1.4"></path>
                    <path d="M135.779288,32.5912831 C136.164172,39.0312884 137.770372,36.8245794 133.125341,40.0026069 L135.493583,36.7377676 L135.200739,33.7058083 L133.374115,33.2646558" id="Path-186" stroke-width="1.4"></path>
                </g>
            </g>
        </g>
    </g>
</svg>