<?xml version="1.0" encoding="UTF-8"?>
<svg width="152px" height="152px" viewBox="0 0 152 152" version="1.1" xmlns="http://www.w3.org/2000/svg" xmlns:xlink="http://www.w3.org/1999/xlink">
    <!-- Generator: Sketch 44.1 (41455) - http://www.bohemiancoding.com/sketch -->
    <title>hazelnut</title>
    <desc>Created with Sketch.</desc>
    <defs></defs>
    <g id="Page-1" stroke="none" stroke-width="1" fill="none" fill-rule="evenodd" stroke-linecap="round">
        <g id="hazelnut" stroke="#FF659B">
            <g id="Group-3" transform="translate(46.625170, 100.922797) rotate(10.000000) translate(-46.625170, -100.922797) translate(8.125170, 55.922797)">
                <g id="Group-2" stroke-width="2.2" stroke-linejoin="round">
                    <g id="Group">
                        <path d="M38.4796126,89.4888011 L34.6631034,89.4888011 C34.6631034,89.4888011 7.14609716,92.2264971 0.897808577,61.0267586 C-5.35048,29.8270202 38.4796126,0.687537163 38.4796126,0.687537163" id="Path-234"></path>
                    </g>
                </g>
                <g id="Group-2" transform="translate(57.459225, 45.000000) scale(-1, 1) translate(-57.459225, -45.000000) translate(37.959225, 0.000000)" stroke-width="2.2" stroke-linejoin="round">
                    <g id="Group">
                        <path d="M38.4796126,89.4888011 L34.6631034,89.4888011 C34.6631034,89.4888011 7.14609716,92.2264971 0.897808577,61.0267586 C-5.35048,29.8270202 38.4796126,0.687537163 38.4796126,0.687537163" id="Path-234"></path>
                    </g>
                </g>
                <path d="M38.8257142,1.50881336 C38.8257142,1.50881336 30.4262527,9.9517178 26.6706882,18.7916005 C22.9151237,27.6314833 22.9151237,34.2145819 22.9151237,34.2145819" id="Path-707" stroke-width="1.6"></path>
                <path d="M53.5385073,1.50881336 C53.5385073,1.50881336 45.1390457,9.9517178 41.3834812,18.7916005 C37.6279168,27.6314833 37.6279168,34.2145819 37.6279168,34.2145819" id="Path-707" stroke-width="1.6" transform="translate(45.583212, 17.861698) scale(-1, 1) translate(-45.583212, -17.861698) "></path>
                <path d="M3.3487064,69.2188352 C5.54189757,68.2398054 6.46414834,67.5039187 8.01254244,67.9172192 C9.56093655,68.3305197 10.1964941,70.6581355 11.9138297,70.9084964 C13.1315271,71.0860178 15.2366387,69.041289 16.6337863,69.2188352 C18.0309338,69.3963814 18.7649633,72.0011864 20.0944269,72.145624 C21.3598111,72.2830998 23.2716769,70.0554004 24.6191055,70.1751576 C25.9665341,70.2949147 26.9669808,72.7791487 28.4924096,72.8777422 C30.1943293,72.9877428 31.9724623,71.6063846 33.732582,71.6647353 C35.4927018,71.7230861 36.8589299,74.3464594 38.4544028,74.3464594 C40.1569865,74.3464594 41.7467119,71.7237745 43.4240735,71.6647353 C45.1014351,71.6056961 47.1707833,72.9626293 48.9359427,72.8433375 C50.6226951,72.7293446 52.101655,70.3247186 53.6941211,70.1751576 C55.2865872,70.0255965 57.3913484,72.0882617 59.0256125,71.8931039 C60.4692684,71.7207078 60.9433788,69.3966125 62.2230882,69.2188352 C63.5027976,69.0410579 65.269608,71.0567524 66.2326638,70.9084964 C67.6202952,70.6948798 69.0769571,68.0954533 70.1069301,67.9172192 C71.136903,67.7389851 73.6114551,69.2188352 73.6114551,69.2188352" id="Path-708" stroke-width="1.6"></path>
            </g>
            <g id="Group-3" transform="translate(108.625170, 51.922797) scale(-1, -1) rotate(-10.000000) translate(-108.625170, -51.922797) translate(70.125170, 6.922797)">
                <g id="Group-2" stroke-width="2.2" stroke-linejoin="round">
                    <g id="Group">
                        <path d="M38.4796126,89.4888011 L34.6631034,89.4888011 C34.6631034,89.4888011 7.14609716,92.2264971 0.897808577,61.0267586 C-5.35048,29.8270202 38.4796126,0.687537163 38.4796126,0.687537163" id="Path-234"></path>
                    </g>
                </g>
                <g id="Group-2" transform="translate(57.459225, 45.000000) scale(-1, 1) translate(-57.459225, -45.000000) translate(37.959225, 0.000000)" stroke-width="2.2" stroke-linejoin="round">
                    <g id="Group">
                        <path d="M38.4796126,89.4888011 L34.6631034,89.4888011 C34.6631034,89.4888011 7.14609716,92.2264971 0.897808577,61.0267586 C-5.35048,29.8270202 38.4796126,0.687537163 38.4796126,0.687537163" id="Path-234"></path>
                    </g>
                </g>
                <path d="M38.8257142,1.50881336 C38.8257142,1.50881336 30.4262527,9.9517178 26.6706882,18.7916005 C22.9151237,27.6314833 22.9151237,34.2145819 22.9151237,34.2145819" id="Path-707" stroke-width="1.6"></path>
                <path d="M53.5385073,1.50881336 C53.5385073,1.50881336 45.1390457,9.9517178 41.3834812,18.7916005 C37.6279168,27.6314833 37.6279168,34.2145819 37.6279168,34.2145819" id="Path-707" stroke-width="1.6" transform="translate(45.583212, 17.861698) scale(-1, 1) translate(-45.583212, -17.861698) "></path>
                <path d="M3.3487064,69.2188352 C5.54189757,68.2398054 6.46414834,67.5039187 8.01254244,67.9172192 C9.56093655,68.3305197 10.1964941,70.6581355 11.9138297,70.9084964 C13.1315271,71.0860178 15.2366387,69.041289 16.6337863,69.2188352 C18.0309338,69.3963814 18.7649633,72.0011864 20.0944269,72.145624 C21.3598111,72.2830998 23.2716769,70.0554004 24.6191055,70.1751576 C25.9665341,70.2949147 26.9669808,72.7791487 28.4924096,72.8777422 C30.1943293,72.9877428 31.9724623,71.6063846 33.732582,71.6647353 C35.4927018,71.7230861 36.8589299,74.3464594 38.4544028,74.3464594 C40.1569865,74.3464594 41.7467119,71.7237745 43.4240735,71.6647353 C45.1014351,71.6056961 47.1707833,72.9626293 48.9359427,72.8433375 C50.6226951,72.7293446 52.101655,70.3247186 53.6941211,70.1751576 C55.2865872,70.0255965 57.3913484,72.0882617 59.0256125,71.8931039 C60.4692684,71.7207078 60.9433788,69.3966125 62.2230882,69.2188352 C63.5027976,69.0410579 65.269608,71.0567524 66.2326638,70.9084964 C67.6202952,70.6948798 69.0769571,68.0954533 70.1069301,67.9172192 C71.136903,67.7389851 73.6114551,69.2188352 73.6114551,69.2188352" id="Path-708" stroke-width="1.6"></path>
            </g>
        </g>
    </g>
</svg>