<?xml version="1.0" encoding="UTF-8"?>
<svg width="152px" height="152px" viewBox="0 0 152 152" version="1.1" xmlns="http://www.w3.org/2000/svg" xmlns:xlink="http://www.w3.org/1999/xlink">
    <!-- Generator: Sketch 44.1 (41455) - http://www.bohemiancoding.com/sketch -->
    <title>oliveoil</title>
    <desc>Created with Sketch.</desc>
    <defs></defs>
    <g id="Page-1" stroke="none" stroke-width="1" fill="none" fill-rule="evenodd">
        <g id="oliveoil" stroke="#095B6B">
            <g id="Group" transform="translate(48.000000, 1.000000)">
                <path d="M28.5564505,0.925348249 L20.3716127,0.925348249 C20.3716127,0.925348249 18.5656501,0.893470511 18.0220364,1.64391346 C17.4784227,2.3943564 17.5967529,4.75596199 17.5967529,4.75596199 L17.5967529,12.5982938 C17.5967529,12.5982938 18.4622153,13.2033772 18.4634623,13.8997458 C18.4647093,14.5961145 17.5866058,15.2268607 17.5892066,15.4130914 C17.6000245,16.1877366 17.6344621,16.9779714 17.724669,17.2589227 C17.9218177,17.8729462 19.0209292,18.0339191 19.0209292,18.0339191 C19.0209292,18.0339191 18.9129332,21.2708808 18.4634623,22.7908225 C18.0139914,24.3107642 16.621669,26.1473149 16.621669,26.1473149 L5.20262582,42.663248 C5.20262582,42.663248 2.6600661,46.0206045 1.53054776,49.0122137 C0.401029421,52.003823 0.401029421,57.7119412 0.401029421,57.7119412 L0.401029421,128.413655 C0.401029421,128.413655 0.0169128544,137.575121 5.20262582,143.709154 C10.3883388,149.843187 28.5564505,149.532386 28.5564505,149.532386 L29.2241755,149.532386" id="Path-621" stroke-width="2.2" stroke-linejoin="round"></path>
                <path d="M55.5564505,0.925348249 L47.3716127,0.925348249 C47.3716127,0.925348249 45.5656501,0.893470511 45.0220364,1.64391346 C44.4784227,2.3943564 44.5967529,4.75596199 44.5967529,4.75596199 L44.5967529,12.5982938 C44.5967529,12.5982938 45.4622153,13.2033772 45.4634623,13.8997458 C45.4647093,14.5961145 44.5866058,15.2268607 44.5892066,15.4130914 C44.6000245,16.1877366 44.6344621,16.9779714 44.724669,17.2589227 C44.9218177,17.8729462 46.0209292,18.0339191 46.0209292,18.0339191 C46.0209292,18.0339191 45.9129332,21.2708808 45.4634623,22.7908225 C45.0139914,24.3107642 43.621669,26.1473149 43.621669,26.1473149 L32.2026258,42.663248 C32.2026258,42.663248 29.6600661,46.0206045 28.5305478,49.0122137 C27.4010294,52.003823 27.4010294,57.7119412 27.4010294,57.7119412 L27.4010294,128.413655 C27.4010294,128.413655 27.0169129,137.575121 32.2026258,143.709154 C37.3883388,149.843187 55.5564505,149.532386 55.5564505,149.532386 L56.2241755,149.532386" id="Path-621" stroke-width="2.2" stroke-linejoin="round" transform="translate(41.809405, 75.230085) scale(-1, 1) translate(-41.809405, -75.230085) "></path>
                <path d="M18.4868243,12.9761473 L38.5220362,12.9770667" id="Path-622" stroke-width="2"></path>
                <path d="M0.934307764,58.719242 C0.934307764,58.719242 13.3299254,59.9915729 28.4293808,59.9915729 C43.5288361,59.9915729 55.9244537,58.719242 55.9244537,58.719242" id="Path-623" stroke-width="2"></path>
                <path d="M0.547290222,127.106136 C0.547290222,127.106136 12.9884068,130.959623 28.4225105,130.959623 C43.8566143,130.959623 56.2977309,127.106136 56.2977309,127.106136" id="Path-624" stroke-width="2"></path>
            </g>
            <g id="Group-2" transform="translate(61.000000, 74.000000)" stroke-width="1.9">
                <path d="M13.7092188,25.8074185 C13.3494956,25.5713723 12.9609648,25.3749371 12.5455642,25.2237437 C9.1271489,23.9795422 5.13329494,26.2519423 3.40821989,30.3313569 C2.97076402,29.9598501 2.58490676,29.4962194 2.26106632,28.9353113 C0.368620586,25.6574991 2.92315677,21.9114583 6.97221885,19.5737313 C10.9211174,17.2938336 15.5999962,17.9622863 17.5845152,21.0372789 C15.8820221,22.2069333 14.8488627,24.2789928 14.7000278,26.6287597 C14.3998576,26.319122 14.068942,26.0434647 13.7092188,25.8074185 C16.429435,27.5924283 17.5023187,31.6424493 16.089995,35.5227767 C14.4908955,39.9162665 10.3113472,42.4284867 6.75471265,41.1339776 C3.19807807,39.8394684 1.61118235,35.2284343 3.21028185,30.8349445 C4.80938135,26.4414547 8.98892963,23.9292345 12.5455642,25.2237437 C12.9609813,25.3749431 13.3495265,25.5713879 13.7092618,25.8074467 Z" id="Combined-Shape"></path>
                <path d="M16.6434309,33.2142807 C18.6525153,35.9750298 21.8390206,37.3156993 24.6393623,36.2964583 C28.1959968,35.0019492 29.7828926,30.3909151 28.1837931,25.9974253 C26.5846936,21.6039355 22.4051453,19.0917153 18.8485107,20.3862244 C16.3981464,21.2780841 14.8827387,23.7441663 14.7000278,26.6287597 C16.2197992,28.1964652 16.9514341,30.6352345 16.6434309,33.2142807 Z" id="Combined-Shape"></path>
                <path d="M4.94062227,17.2474512 C4.94062227,17.2474512 5.00707901,16.4840124 5.21482536,15.8146907 C5.95596475,13.4268716 6.67233001,13.0898615 7.16802552,10.2347053 C7.66372104,7.37954906 5.89855838,1.65375437 5.89855838,1.65375437 C5.89855838,1.65375437 11.028651,8.54777813 12.5833082,14.026527 C14.1379654,19.5052759 13.722505,18.0709316 13.722505,18.0709316" id="Path-625" stroke-linejoin="round" transform="translate(9.356765, 9.947043) rotate(-35.000000) translate(-9.356765, -9.947043) "></path>
                <path d="M17.0758385,20.2511964 C17.0758385,20.2511964 16.2670434,17.2007851 17.6541708,14.2145667 C18.2150028,13.0072034 22.8412238,9.93978721 24.8249598,7.90887435 C26.8086958,5.87796149 28.2054074,3 28.2054074,3 C28.2054074,3 28.7413605,12.2049135 27.8064217,16.6650792 C26.8714829,21.1252449 25.3562142,21.6661426 25.3562142,21.6661426" id="Path-626" stroke-linecap="round" stroke-linejoin="round"></path>
            </g>
        </g>
    </g>
</svg>