<?xml version="1.0" encoding="UTF-8"?>
<svg width="152px" height="152px" viewBox="0 0 152 152" version="1.1" xmlns="http://www.w3.org/2000/svg" xmlns:xlink="http://www.w3.org/1999/xlink">
    <!-- Generator: Sketch 44.1 (41455) - http://www.bohemiancoding.com/sketch -->
    <title>papaya</title>
    <desc>Created with Sketch.</desc>
    <defs></defs>
    <g id="Page-1" stroke="none" stroke-width="1" fill="none" fill-rule="evenodd">
        <g id="papaya" stroke="#979797" stroke-width="2">
            <g id="Group" transform="translate(71.386207, 75.732994) rotate(-30.000000) translate(-71.386207, -75.732994) translate(23.886207, -2.767006)">
                <path d="M47.6364737,131.346685 C56.2662565,131.346685 63.2620777,114.893528 63.2620777,93.0745929 C63.2620777,71.2556583 52.85523,52.3333333 47.6364737,52.3333333 C42.4177173,52.3333333 32.0108696,71.2556583 32.0108696,93.0745929 C32.0108696,114.893528 39.0066908,131.346685 47.6364737,131.346685 Z" id="Oval-38"></path>
                <path d="M47.7996545,156.828391 C29.2845134,156.828391 1.31794363e-15,130.169831 0,94.5213817 C0,61.5592624 19.6201552,35.6555431 25.1605512,27.8295336 C30.7009472,20.0035242 32.3090137,8.18660211 32.7148191,7.27698948 C34.0967831,4.17931809 36.7899653,2.62399996 40.7943657,2.6110351 C42.557988,4.42483081 44.7183935,5.3303556 47.275582,5.32760947 C51.1113648,5.32349026 53.7264855,2.635065 53.7547472,2.6110351 C53.7851061,2.58522204 50.6060352,5.31401467 47.275582,5.32760947 C43.9451288,5.34120426 40.7600622,2.63851539 40.7943657,2.6110351 C42.6345439,1.13688171 45.111417,0 47.275582,0 C50.8031144,0 52.6222367,2.33101955 53.7547472,2.6110351 C56.8740142,3.38228027 59.4895615,2.00451926 63.1512327,8.78080531 C64.7905496,11.8145238 64.7173877,21.466236 69.8063926,28.5456608 C74.8953974,35.6250855 92.7272229,56.7877524 94.0232114,90.6299004 C95.4558018,128.039133 68.8030156,156.828391 47.7996545,156.828391 Z" id="Path-800"></path>
                <ellipse id="Oval-39" cx="47.2840048" cy="61.6285732" rx="3.44704826" ry="4.09898981"></ellipse>
                <ellipse id="Oval-39" cx="52.7363826" cy="71.2313856" rx="3.44704826" ry="4.09898981"></ellipse>
                <ellipse id="Oval-39" cx="41.8016961" cy="71.9015826" rx="3.44704826" ry="4.09898981"></ellipse>
                <ellipse id="Oval-39" cx="57.0169166" cy="86.4025039" rx="3.44704826" ry="4.09898981"></ellipse>
                <ellipse id="Oval-39" cx="38.8860776" cy="87.5368026" rx="3.44704826" ry="4.09898981"></ellipse>
                <ellipse id="Oval-39" cx="47.8902274" cy="93.5080835" rx="3.44704826" ry="4.09898981"></ellipse>
                <ellipse id="Oval-39" cx="56.9165069" cy="99.8741089" rx="3.44704826" ry="4.09898981"></ellipse>
                <ellipse id="Oval-39" cx="48.4470483" cy="105.496637" rx="3.44704826" ry="4.09898981"></ellipse>
                <ellipse id="Oval-39" cx="47.0145831" cy="123.024744" rx="3.44704826" ry="4.09898981"></ellipse>
                <ellipse id="Oval-39" cx="40.8543291" cy="113.694617" rx="3.44704826" ry="4.09898981"></ellipse>
                <ellipse id="Oval-39" cx="53.7466339" cy="115.36449" rx="3.44704826" ry="4.09898981"></ellipse>
                <ellipse id="Oval-39" cx="47.348972" cy="81.2688628" rx="3.44704826" ry="4.09898981"></ellipse>
                <ellipse id="Oval-39" cx="39.348972" cy="100.000914" rx="3.44704826" ry="4.09898981"></ellipse>
            </g>
        </g>
    </g>
</svg>