<?xml version="1.0" encoding="UTF-8"?>
<svg width="152px" height="152px" viewBox="0 0 152 152" version="1.1" xmlns="http://www.w3.org/2000/svg" xmlns:xlink="http://www.w3.org/1999/xlink">
    <!-- Generator: Sketch 44.1 (41455) - http://www.bohemiancoding.com/sketch -->
    <title>parsnip</title>
    <desc>Created with Sketch.</desc>
    <defs></defs>
    <g id="Page-1" stroke="none" stroke-width="1" fill="none" fill-rule="evenodd">
        <g id="parsnip" stroke="#979797">
            <g id="Group-2" transform="translate(51.000000, 5.000000)">
                <g id="Group" transform="translate(26.000000, 71.500000) scale(-1, 1) translate(-26.000000, -71.500000) ">
                    <path d="M0.306384047,19.2459211 C0.306384047,40.6984952 9.59375533,49.7300176 13.0314723,68.1203856 C16.4691892,86.5107537 18.2334774,120.3635 22.9781024,136.4839 C23.5096746,138.289977 24.7049123,142.059227 28.5374332,142.059227 C32.369954,142.059227 32.3049707,133.522958 33.6945584,123.474329 C34.5915617,116.987763 37.8506484,86.8075641 39.6365616,69.2467769 C41.4224747,51.6859897 53.1090369,36.4117271 51.1160047,19.2459211 C48.9550779,0.634054943 32.0940551,0.324894032 26.5495992,0.324894032 C21.0051432,0.324894032 0.306384047,3.45100196 0.306384047,19.2459211 Z" id="Path-733" stroke-width="2"></path>
                    <path d="M0.382352941,17.4777778 C0.382352941,17.4777778 1.14117996,21.3568847 6.68342098,22.7147673 C12.225662,24.0726499 21.4944268,23.8458388 21.4944268,23.8458388" id="Path-734" stroke-width="1.6" stroke-linecap="round"></path>
                    <path d="M3.51069519,35.3582239 C3.51069519,35.3582239 11.4680158,41.8644853 27.947337,41.7387069 C44.4266582,41.6129285 48.8716578,35.3582239 48.8716578,35.3582239" id="Path-735" stroke-width="1.6" stroke-linecap="round"></path>
                    <path d="M24.622769,64.0503019 C37.835092,66.955819 40.9268912,59.9754383 40.9268912,59.9754383" id="Path-735" stroke-width="1.6" stroke-linecap="round"></path>
                    <path d="M16.2188812,91.5551382 C16.2188812,91.5551382 19.45105,95.7103296 27.3285903,95.6300018 C35.2061307,95.5496741 37.330955,91.5551382 37.330955,91.5551382" id="Path-735" stroke-width="1.6" stroke-linecap="round"></path>
                    <path d="M18.4627277,103.955138 C18.4627277,103.955138 21.160645,108.110329 26.7479337,108.030001" id="Path-735" stroke-width="1.6" stroke-linecap="round"></path>
                </g>
                <ellipse id="Oval-40" stroke-width="2" cx="25.8088235" cy="3.17777778" rx="8.60294118" ry="3.17777778"></ellipse>
            </g>
        </g>
    </g>
</svg>