<?xml version="1.0" encoding="UTF-8"?>
<svg width="152px" height="152px" viewBox="0 0 152 152" version="1.1" xmlns="http://www.w3.org/2000/svg" xmlns:xlink="http://www.w3.org/1999/xlink">
    <!-- Generator: Sketch 44.1 (41455) - http://www.bohemiancoding.com/sketch -->
    <title>pasta</title>
    <desc>Created with Sketch.</desc>
    <defs></defs>
    <g id="Page-1" stroke="none" stroke-width="1" fill="none" fill-rule="evenodd">
        <g id="pasta" stroke="#979797">
            <g id="Group" transform="translate(49.714837, 68.265151) rotate(100.000000) translate(-49.714837, -68.265151) translate(-12.785163, 18.265151)" stroke-linecap="round" stroke-linejoin="round">
                <path d="M6.78394811,34.5874921 C6.78394811,34.5874921 0.36971969,37.6017112 0.580303866,42.9897144 C0.790888042,48.3777177 7.07892078,49.0014881 7.41228561,52.0430192 C7.74690064,55.0959567 3.34919343,59.4157071 4.04324968,62.6290561 C4.73730592,65.842405 10.331417,67.2630564 11.3294412,69.964895 C12.5738848,73.3338373 9.60391596,77.9221253 11.3294412,81.0308717 C13.0549664,84.1396181 18.4493008,84.1298862 19.7519051,86.1134755 C21.1558309,88.2513558 19.6313387,95.0414856 21.0731469,97.5975632 C22.5149551,100.153641 29.9091151,99.9504005 29.9091151,99.9504005 C29.9091151,99.9504005 45.7566836,100.139712 52.7467271,89.7856617 C59.7367706,79.4316116 58.2919728,64.2752722 65.6603321,61.7324118 C73.0286913,59.1895515 85.7732891,75.5773707 98.0124907,75.5773707 C110.251692,75.5773707 119.123215,67.2624176 119.123215,67.2624176 C119.123215,67.2624176 124.64276,62.8974589 124.16415,57.7891791 C123.68554,52.6808992 116.721454,52.2904756 116.214029,48.9400031 C115.788955,46.1332837 119.773512,40.220452 119.123215,37.391636 C118.472918,34.56282 111.674271,33.2384243 110.56489,30.474006 C109.781299,28.5214095 111.667958,21.8254221 110.56489,19.9636043 C109.461823,18.1017864 104.271154,17.6471297 102.397946,15.3247047 C100.807927,13.3533827 103.516857,6.72623957 100.626637,3.21495534 C97.7364159,-0.296328894 90.2602019,1.24974684 90.2602019,1.24974684 C90.2602019,1.24974684 81.3539074,1.66486272 72.2208842,11.0722412 C63.0878609,20.4796196 65.2820163,39.3664951 58.2919728,41.6350381 C51.3019293,43.9035811 35.1386531,28.5488185 25.1676288,28.6125972 C15.1966045,28.6763759 6.78394811,34.5874921 6.78394811,34.5874921 Z" id="Path-718" stroke-width="2"></path>
                <path d="M34.9448923,51.9643537 C34.9448923,51.9643537 36.0287161,49.2980787 42.3399181,48.7224193 C48.65112,48.1467599 57.8469253,49.992198 61.2505191,48.7224193 C64.5507755,47.4911927 69.9461631,39.4978163 73.7553628,36.6507463 C77.5645625,33.8036762 81.5367922,34.5823142 81.5367922,34.5823142" id="Path-719" stroke-width="1.6"></path>
                <path d="M42.6203134,69.0075463 C42.6203134,69.0075463 43.7041372,66.3412713 50.0153392,65.7656119 C56.3265411,65.1899525 65.5223464,67.0353906 68.9259402,65.7656119 C72.2261966,64.5343853 77.6215842,56.5410089 81.4307839,53.6939389 C85.2399836,50.8468688 88.5176008,50.1753581 88.5176008,50.1753581" id="Path-719" stroke-width="1.6" transform="translate(65.568957, 59.591452) scale(-1, -1) translate(-65.568957, -59.591452) "></path>
            </g>
            <g id="Group-2" transform="translate(97.000000, 13.000000)" stroke-width="2">
                <path d="M0.173692903,133.234201 C-1.45439816,129.526228 17.2975622,35.2113171 17.2975622,35.2113171 C17.2975622,35.2113171 19.7654307,23.1420818 27.2395258,15.4093669 C34.7136209,7.67665195 53.3301792,-2.24901718 49.4213401,16.2773533 C45.512501,34.8037238 34.2822085,109.070686 33.4461245,110.83394 C32.6100405,112.597195 24.2108053,122.972122 17.2975622,128.103161 C10.3843191,133.234201 1.80178397,136.942174 0.173692903,133.234201 Z" id="Path-720" stroke-linejoin="round"></path>
                <path d="M36.6180017,27.0596843 C48.101575,27.8870734 54.0770113,22.4611629 54.2825275,19.0727046 C54.4880437,15.6842463 46.3738499,11.0857249 36.6180017,11.0857249 C26.8621535,11.0857249 17.0753633,14.072859 16.3656516,17.1586416 C15.6559398,20.2444241 25.1344283,26.2322953 36.6180017,27.0596843 Z" id="Oval" transform="translate(35.307284, 19.115044) rotate(-45.000000) translate(-35.307284, -19.115044) "></path>
            </g>
        </g>
    </g>
</svg>