<?xml version="1.0" encoding="UTF-8"?>
<svg width="152px" height="152px" viewBox="0 0 152 152" version="1.1" xmlns="http://www.w3.org/2000/svg" xmlns:xlink="http://www.w3.org/1999/xlink">
    <!-- Generator: Sketch 46.2 (44496) - http://www.bohemiancoding.com/sketch -->
    <title>peanutbutter</title>
    <desc>Created with Sketch.</desc>
    <defs></defs>
    <g id="Page-1" stroke="none" stroke-width="1" fill="none" fill-rule="evenodd">
        <g id="peanutbutter" stroke="#979797">
            <g id="Group" transform="translate(37.000000, 9.000000)" stroke-width="2" stroke-linecap="round" stroke-linejoin="round">
                <path d="M53.1703539,0 L8.72259813,0 C8.72259813,0 3.82479605,0 3.82479605,5.47749673 C3.82479605,10.9549935 7.99681577,12.1155711 7.99681577,12.1155711 L53.1703539,12.1155711 L8.54791102,12.1155711 L10.3156239,12.5491658 C8.62977644,14.506107 11.1698516,18.6435309 11.1698516,18.6435309 C11.1698516,18.6435309 5.70218978,19.7287235 3.03326257,22.9865984 C0.364335352,26.2444732 0.808649144,35.6801362 0.808649144,35.6801362 L0.808649144,117.832844 C0.808649144,117.832844 1.38767143,125.771159 3.82479605,130.038542 C6.26192067,134.305924 12.5629516,133.856722 12.5629516,133.856722 L53.3677532,133.856722" id="Path-652"></path>
                <path d="M77.8019329,0 L33.3541771,0 C33.3541771,0 28.456375,0 28.456375,5.47749673 C28.456375,10.9549935 32.6283947,12.1155711 32.6283947,12.1155711 L77.8019329,12.1155711 L33.17949,12.1155711 L34.9472028,12.5491658 C33.2613554,14.506107 35.8014306,18.6435309 35.8014306,18.6435309 C35.8014306,18.6435309 30.3337687,19.7287235 27.6648415,22.9865984 C24.9959143,26.2444732 25.4402281,35.6801362 25.4402281,35.6801362 L25.4402281,117.832844 C25.4402281,117.832844 26.0192504,125.771159 28.456375,130.038542 C30.8934996,134.305924 37.1945305,133.856722 37.1945305,133.856722 L77.9993321,133.856722" id="Path-652" transform="translate(51.705919, 66.935154) scale(-1, 1) translate(-51.705919, -66.935154) "></path>
                <path d="M0.659771146,42 C0.659771146,42 23.003737,44.0908947 39.120668,44.0549473 C55.2375989,44.019 77.5815648,42 77.5815648,42 L77.5815648,110.733854 C77.5815648,110.733854 53.2333414,115.407994 39.120668,115.407994 C25.0079945,115.407994 0.659771146,110.733854 0.659771146,110.733854 L0.659771146,42 Z" id="Path-653"></path>
            </g>
            <g id="Group-3" transform="translate(42.000000, 58.000000)">
                <g id="Group" stroke-width="2">
                    <path d="M9.15841161,57.2992895 C9.15841161,57.2992895 -0.99021502,47.8346304 8.04995077,34.4996892 C13.162562,26.9581936 21.674567,26.2974214 25.4644408,21.5533073 C29.0887481,17.0164472 28.6893316,9.25697364 37.0229455,2.8522127 C45.3565594,-3.55254824 55.2569611,3.29124178 55.2569611,3.29124178" id="Path-699"></path>
                    <path d="M14.2938539,61.6568131 C14.2938539,61.6568131 2.96923386,51.4977701 12.0093996,38.1628289 C17.1220109,30.6213333 26.5655264,29.9778064 30.3554003,25.2336923 C33.9797076,20.6968321 32.6487805,12.9201133 40.9823944,6.51535239 C49.3160083,0.110591448 59.2910948,6.69116265 59.2910948,6.69116265" id="Path-699" transform="translate(33.899979, 32.685241) scale(-1, 1) rotate(-80.000000) translate(-33.899979, -32.685241) "></path>
                </g>
                <path d="M7.00002284,53 C7.00002284,53 6.94395572,44.4185008 12.3879727,37.8776696 C16.4443142,33.0040909 23.1182971,32.046735 28.5987099,26.3387878 C31.3343017,23.4896204 34.2224799,14.1764772 38.9314544,8.23230434 C43.6404289,2.28813149 52,2 52,2" id="Path-700" stroke-width="1.5" stroke-linecap="round" stroke-linejoin="round"></path>
                <path d="M12,59 C12,59 13.5215616,52.3103738 16.134314,48.6725355 C19.8952362,43.4360552 26.2168113,42.7227587 31.6785307,36.8905244 C34.4047915,33.9793182 37.2831182,24.4633869 41.9760306,18.3897833 C46.668943,12.3161798 55,11 55,11" id="Path-700" stroke-width="1.5" stroke-linecap="round" stroke-linejoin="round" transform="translate(33.500000, 35.000000) scale(-1, -1) translate(-33.500000, -35.000000) "></path>
                <path d="M8.00355971,34 C8.00355971,34 7.585625,43.3733873 15.8067727,49.1509406 C24.0279205,54.9284939 34,52.4883608 34,52.4883608" id="Path-701" stroke-width="1.5" stroke-linecap="round" stroke-linejoin="round"></path>
                <path d="M19.0008729,26 C19.0008729,26 18.7448908,30.0561841 27,36" id="Path-701" stroke-width="1.5" stroke-linecap="round" stroke-linejoin="round"></path>
                <path d="M54,26 C54,26 52.3226335,11.3392559 36,7" id="Path-702" stroke-width="1.5" stroke-linecap="round" stroke-linejoin="round"></path>
            </g>
        </g>
    </g>
</svg>