<?xml version="1.0" encoding="UTF-8"?>
<svg width="152px" height="152px" viewBox="0 0 152 152" version="1.1" xmlns="http://www.w3.org/2000/svg" xmlns:xlink="http://www.w3.org/1999/xlink">
    <!-- Generator: Sketch 44.1 (41455) - http://www.bohemiancoding.com/sketch -->
    <title>nutoil</title>
    <desc>Created with Sketch.</desc>
    <defs></defs>
    <g id="Page-1" stroke="none" stroke-width="1" fill="none" fill-rule="evenodd">
        <g id="nutoil" stroke="#FF9677">
            <g id="Group" transform="translate(48.000000, 1.000000)">
                <path d="M28.5564505,0.925348249 L20.3716127,0.925348249 C20.3716127,0.925348249 18.5656501,0.893470511 18.0220364,1.64391346 C17.4784227,2.3943564 17.5967529,4.75596199 17.5967529,4.75596199 L17.5967529,12.5982938 C17.5967529,12.5982938 18.4622153,13.2033772 18.4634623,13.8997458 C18.4647093,14.5961145 17.5866058,15.2268607 17.5892066,15.4130914 C17.6000245,16.1877366 17.6344621,16.9779714 17.724669,17.2589227 C17.9218177,17.8729462 19.0209292,18.0339191 19.0209292,18.0339191 C19.0209292,18.0339191 18.9129332,21.2708808 18.4634623,22.7908225 C18.0139914,24.3107642 16.621669,26.1473149 16.621669,26.1473149 L5.20262582,42.663248 C5.20262582,42.663248 2.6600661,46.0206045 1.53054776,49.0122137 C0.401029421,52.003823 0.401029421,57.7119412 0.401029421,57.7119412 L0.401029421,128.413655 C0.401029421,128.413655 0.0169128544,137.575121 5.20262582,143.709154 C10.3883388,149.843187 28.5564505,149.532386 28.5564505,149.532386 L29.2241755,149.532386" id="Path-621" stroke-width="2.2" stroke-linejoin="round"></path>
                <path d="M55.5564505,0.925348249 L47.3716127,0.925348249 C47.3716127,0.925348249 45.5656501,0.893470511 45.0220364,1.64391346 C44.4784227,2.3943564 44.5967529,4.75596199 44.5967529,4.75596199 L44.5967529,12.5982938 C44.5967529,12.5982938 45.4622153,13.2033772 45.4634623,13.8997458 C45.4647093,14.5961145 44.5866058,15.2268607 44.5892066,15.4130914 C44.6000245,16.1877366 44.6344621,16.9779714 44.724669,17.2589227 C44.9218177,17.8729462 46.0209292,18.0339191 46.0209292,18.0339191 C46.0209292,18.0339191 45.9129332,21.2708808 45.4634623,22.7908225 C45.0139914,24.3107642 43.621669,26.1473149 43.621669,26.1473149 L32.2026258,42.663248 C32.2026258,42.663248 29.6600661,46.0206045 28.5305478,49.0122137 C27.4010294,52.003823 27.4010294,57.7119412 27.4010294,57.7119412 L27.4010294,128.413655 C27.4010294,128.413655 27.0169129,137.575121 32.2026258,143.709154 C37.3883388,149.843187 55.5564505,149.532386 55.5564505,149.532386 L56.2241755,149.532386" id="Path-621" stroke-width="2.2" stroke-linejoin="round" transform="translate(41.809405, 75.230085) scale(-1, 1) translate(-41.809405, -75.230085) "></path>
                <path d="M18.4868243,12.9761473 L38.5220362,12.9770667" id="Path-622" stroke-width="2"></path>
                <path d="M0.934307764,58.719242 C0.934307764,58.719242 13.3299254,59.9915729 28.4293808,59.9915729 C43.5288361,59.9915729 55.9244537,58.719242 55.9244537,58.719242" id="Path-623" stroke-width="2"></path>
                <path d="M0.547290222,127.106136 C0.547290222,127.106136 12.9884068,130.959623 28.4225105,130.959623 C43.8566143,130.959623 56.2977309,127.106136 56.2977309,127.106136" id="Path-624" stroke-width="2"></path>
            </g>
            <g id="Group" transform="translate(58.000000, 76.000000)" stroke-width="2.2" stroke-linecap="round" stroke-linejoin="round">
                <path d="M19.0365065,40.6154673 C19.0365065,40.6154673 8.36377519,41.4416263 2.48413935,32.3678407 C-3.39549649,23.294055 2.45403878,15.9253278 6.72932659,12.4078458 C11.0046144,8.89036385 13.2791431,8.83231457 15.7012322,6.27402009 C18.1233212,3.71572561 19.0365065,1.77635684e-14 19.0365065,1.77635684e-14" id="Path-234"></path>
                <path d="M37.6737882,40.6154673 C37.6737882,40.6154673 27.0010569,41.4416263 21.1214211,32.3678407 C15.2417852,23.294055 21.0913205,15.9253278 25.3666083,12.4078458 C29.6418961,8.89036385 31.9164249,8.83231457 34.3385139,6.27402009 C36.760603,3.71572561 37.274567,0.118858259 37.274567,0.118858259" id="Path-234" transform="translate(28.155535, 20.376965) scale(-1, 1) translate(-28.155535, -20.376965) "></path>
                <path d="M4.64553933,34.3823976 C4.64553933,34.3823976 3.79273744,27.4072708 18.9633314,27.4072708 C34.1339253,27.4072708 33.2811234,34.3823976 33.2811234,34.3823976" id="Path-236"></path>
            </g>
        </g>
    </g>
</svg>