<?xml version="1.0" encoding="UTF-8"?>
<svg width="152px" height="152px" viewBox="0 0 152 152" version="1.1" xmlns="http://www.w3.org/2000/svg" xmlns:xlink="http://www.w3.org/1999/xlink">
    <!-- Generator: Sketch 44.1 (41455) - http://www.bohemiancoding.com/sketch -->
    <title>banana</title>
    <desc>Created with Sketch.</desc>
    <defs></defs>
    <g id="Page-1" stroke="none" stroke-width="1" fill="none" fill-rule="evenodd">
        <g id="banana" stroke="#979797" stroke-width="2">
            <g id="Group" transform="translate(5.000000, 13.000000)">
                <path d="M16.5101257,0.902616556 C16.5101257,0.902616556 9.3396877,1.7245323 7.9781345,4.13382892 C6.61658129,6.54312555 8.53411154,8.53404993 8.53411154,8.53404993 C8.53411154,8.53404993 8.66549347,9.42903619 8.81328031,10.8736805 C9.12999843,13.9696601 9.52206044,19.5900907 8.85778906,24.3360316 C7.88355575,31.2965208 4.19129402,34.9552815 4.19129402,34.9552815 C4.19129402,34.9552815 -3.1829507,42.1787226 1.98478261,63 C8.95570263,90.2959761 42.8389721,111.534066 42.8389721,111.534066 C42.8389721,111.534066 71.9364667,130.501854 104.903109,124.723846 C137.869752,118.945839 142.630024,101.427738 142.630024,101.427738 C142.630024,101.427738 142.081947,98.1976936 141.516772,96.8465797 C140.951598,95.4954659 139.210789,93.2536688 139.210789,93.2536688 C139.210789,93.2536688 107.971812,96.0892565 78.3411638,88.6955489 C48.7105151,81.3018413 33.6544449,50.187652 30.4113124,45.4325049 C27.1681798,40.6773577 24.3287768,39.2920306 21.7109129,34.9552815 C18.2597589,29.2381054 18.2597589,24.3360316 18.2597589,24.3360316 C18.2597589,24.3360316 17.8461631,19.5142022 18.2597589,17.3423171 C18.6733547,15.170432 21.0105057,9.89123676 21.0105057,9.89123676 C21.0105057,9.89123676 21.1847009,8.34198331 20.3627001,6.23382892 C19.5406992,4.12567453 16.5101257,0.902616556 16.5101257,0.902616556 Z" id="Path-716"></path>
                <path d="M8.50068272,8.48594799 L14.2873573,12.6168353 C14.2873573,12.6168353 20.792518,9.61287499 20.8949981,9.71680836 C20.9974783,9.82074172 14.2873573,12.6168353 14.2873573,12.6168353 C14.2873573,12.6168353 13.9426103,27.3935566 14.6222866,30.6002145 C15.3019629,33.8068724 15.8726099,33.9333544 17.6673559,36.8851443 C20.4242706,41.5162443 26.8282437,78.7579647 65.9686211,95.891382 C105.108998,113.024799 139.26097,97.0751203 139.26097,97.0751203 L142.403815,101.634441 L138.56338,93.5608879" id="Path-717"></path>
            </g>
        </g>
    </g>
</svg>