<?xml version="1.0" encoding="UTF-8"?>
<svg width="152px" height="152px" viewBox="0 0 152 152" version="1.1" xmlns="http://www.w3.org/2000/svg" xmlns:xlink="http://www.w3.org/1999/xlink">
    <!-- Generator: Sketch 44.1 (41455) - http://www.bohemiancoding.com/sketch -->
    <title>pecan</title>
    <desc>Created with Sketch.</desc>
    <defs></defs>
    <g id="Page-1" stroke="none" stroke-width="1" fill="none" fill-rule="evenodd" stroke-linecap="round" stroke-linejoin="round">
        <g id="pecan" stroke="#979797">
            <g id="Group" transform="translate(13.000000, 5.000000)">
                <path d="M17.8331551,10.1764124 C17.8331551,10.1764124 9.20303937,4.0811119 3.34070685,18.4173027 C1.82705984,23.2915036 1.04252066,28.2128692 0.822545108,33.0860489 C0.745808907,34.7860074 1.94815763,34.7228319 2.00183904,36.4070153 C2.97326111,66.8841017 20.1786166,94.2241912 20.1786166,94.2241912 L24.4208816,96.6419229 C26.1157482,107.53628 64.1010617,147.022207 83.1841698,142.410168 C102.878577,137.650389 91.4453832,119.679031 87.0437493,113.770073 C86.638681,113.22629 73.0154778,93.9069842 59.8972225,77.5268429 C46.7789671,61.1467017 28.5951024,40.7544999 28.5951024,40.7544999 C28.5951024,40.7544999 46.5496389,60.6709151 62.4723369,80.2774533 C78.395035,99.8839915 87.0687785,112.803529 87.6229695,113.132863 C90.6801338,114.949615 96.1340785,118.018776 97.0023721,117.336094 C97.9309963,116.605978 96.6244569,109.624364 95.9521838,106.352461 C95.8545622,105.877344 87.1134253,97.2774521 79.3544011,87.08807 C71.5953769,76.898688 62.4723369,62.066987 62.4723369,62.066987 C62.4723369,62.066987 71.761181,77.3534563 79.3544011,87.08807 C86.9476213,96.8226838 96.6527603,105.876367 97.2244456,106.47056 C102.191156,111.632815 117.399118,125.118613 127.190588,108.451616 C137.137848,91.5194331 101.346434,52.6852749 90.3736764,40.7544999 C90.3847496,40.8127025 89.2616024,37.3268114 89.2616024,37.3268114 C89.2616024,37.3268114 77.1956791,18.4173027 57.2376691,10.1764124 C54.4345467,9.75096548 55.3080079,6.97158069 53.9970009,6.19049646 C48.0046376,2.6203093 41.8358233,0.268327208 35.9828142,0.268327208 C14.6351931,-0.829223318 17.8331551,10.1764124 17.8331551,10.1764124 Z" id="Path-703" stroke-width="2"></path>
                <path d="M15.6070944,53.4597755 C15.6070944,53.4597755 16.7819833,60.830867 19.6717287,66.4096093 C22.5614741,71.9883516 23.4944089,68.6217848 24.2031335,70.0125411 C27.3118709,76.1129304 29.3108797,80.2238942 31.5640901,85.5388574 C36.5920253,97.3989528 37.8909405,89.9901405 39.377209,92.3447617 C40.9088462,94.7712582 42.4574087,97.2059766 44.0038585,99.6141794 C58.1142956,121.587601 57.4730118,112.425363 59.1096396,114.900647 C59.1096396,114.900647 60.5489522,120.9373 65.3758153,126.886454 C74.4362701,138.053551 86.1323608,141.478517 86.1323608,141.478517" id="Path-704" stroke-width="1.6"></path>
                <path d="M53.0292211,24.6327914 C53.0292211,24.6327914 54.20411,32.0038829 57.0938554,37.5826252 C59.9836009,43.1613675 60.9165357,39.7948007 61.6252602,41.1855569 C64.7339976,47.2859463 66.7330064,51.3969101 68.9862169,56.7118733 C74.014152,68.5719686 75.3130672,61.1631564 76.7993358,63.5177776 C78.3309729,65.944274 79.8795354,68.3789925 81.4259852,70.7871953 C95.5364224,92.7606171 94.8951385,83.5983784 96.5317664,86.0736633 C96.5317664,86.0736633 97.971079,92.1103159 102.797942,98.0594702 C111.858397,109.226566 123.554488,112.651533 123.554488,112.651533" id="Path-704" stroke-width="1.6" transform="translate(88.291854, 68.642162) scale(1, -1) rotate(-105.000000) translate(-88.291854, -68.642162) "></path>
            </g>
        </g>
    </g>
</svg>