<?xml version="1.0" encoding="UTF-8"?>
<svg width="152px" height="152px" viewBox="0 0 152 152" version="1.1" xmlns="http://www.w3.org/2000/svg" xmlns:xlink="http://www.w3.org/1999/xlink">
    <!-- Generator: Sketch 44.1 (41455) - http://www.bohemiancoding.com/sketch -->
    <title>jar</title>
    <desc>Created with Sketch.</desc>
    <defs></defs>
    <g id="Page-1" stroke="none" stroke-width="1" fill="none" fill-rule="evenodd" stroke-linecap="round" stroke-linejoin="round">
        <g id="jar" stroke="#F95604" stroke-width="2">
            <g id="Group" transform="translate(37.000000, 9.000000)">
                <path d="M53.1703539,0 L8.72259813,0 C8.72259813,0 3.82479605,0 3.82479605,5.47749673 C3.82479605,10.9549935 7.99681577,12.1155711 7.99681577,12.1155711 L53.1703539,12.1155711 L8.54791102,12.1155711 L10.3156239,12.5491658 C8.62977644,14.506107 11.1698516,18.6435309 11.1698516,18.6435309 C11.1698516,18.6435309 5.70218978,19.7287235 3.03326257,22.9865984 C0.364335352,26.2444732 0.808649144,35.6801362 0.808649144,35.6801362 L0.808649144,117.832844 C0.808649144,117.832844 1.38767143,125.771159 3.82479605,130.038542 C6.26192067,134.305924 12.5629516,133.856722 12.5629516,133.856722 L53.3677532,133.856722" id="Path-652"></path>
                <path d="M77.8019329,0 L33.3541771,0 C33.3541771,0 28.456375,0 28.456375,5.47749673 C28.456375,10.9549935 32.6283947,12.1155711 32.6283947,12.1155711 L77.8019329,12.1155711 L33.17949,12.1155711 L34.9472028,12.5491658 C33.2613554,14.506107 35.8014306,18.6435309 35.8014306,18.6435309 C35.8014306,18.6435309 30.3337687,19.7287235 27.6648415,22.9865984 C24.9959143,26.2444732 25.4402281,35.6801362 25.4402281,35.6801362 L25.4402281,117.832844 C25.4402281,117.832844 26.0192504,125.771159 28.456375,130.038542 C30.8934996,134.305924 37.1945305,133.856722 37.1945305,133.856722 L77.9993321,133.856722" id="Path-652" transform="translate(51.705919, 66.935154) scale(-1, 1) translate(-51.705919, -66.935154) "></path>
                <path d="M0.659771146,45.4584029 C0.659771146,45.4584029 23.003737,47.3083751 39.120668,47.2765698 C55.2375989,47.2447645 77.5815648,45.4584029 77.5815648,45.4584029 L77.5815648,106.272429 C77.5815648,106.272429 53.2333414,110.407994 39.120668,110.407994 C25.0079945,110.407994 0.659771146,106.272429 0.659771146,106.272429 L0.659771146,45.4584029 Z" id="Path-653"></path>
            </g>
        </g>
    </g>
</svg>