<?xml version="1.0" encoding="UTF-8"?>
<svg width="152px" height="152px" viewBox="0 0 152 152" version="1.1" xmlns="http://www.w3.org/2000/svg" xmlns:xlink="http://www.w3.org/1999/xlink">
    <!-- Generator: Sketch 44.1 (41455) - http://www.bohemiancoding.com/sketch -->
    <title>padronpepper</title>
    <desc>Created with Sketch.</desc>
    <defs></defs>
    <g id="Page-1" stroke="none" stroke-width="1" fill="none" fill-rule="evenodd">
        <g id="padronpepper" stroke="#095B6B">
            <g id="Group" transform="translate(61.000000, 55.000000)">
                <path d="M78.1744121,20.4991096 C56.7074944,2.30882594 56.3346946,22.8130643 46.4283085,39.5231651 C33.6550804,61.0690576 20.7183796,68.6736929 6.73886374,66.2819902" id="Path-414" stroke-width="2.2"></path>
                <path d="M7.18975855,66.4871404 C-1.07323306,62.9414927 -2.14004258,72.2171899 3.60833938,77.5005397 C13.5526423,86.6403691 24.3239976,87.1547791 37.3520059,84.0271761 C56.614986,79.4027582 79.2658107,62.7535771 83.6515618,43.4100925 C84.4909315,39.7080275 88.4933896,20.4740877 77.7154793,20.4740877" id="Path-421" stroke-width="2.2"></path>
                <path d="M75.5966316,18.3605778 C85.4768918,-19.3192561 83.5488255,11.2817045 77.6832752,19.8661568" id="Path-422" stroke-width="2.2"></path>
                <path d="M60.6347983,62.4047548 C60.6347983,62.4047548 71.6694959,52.4590441 74.9737629,46.5440401 C78.2780299,40.629036 77.0199453,33.0735263 77.0199453,33.0735263" id="Path-423" stroke-width="2" stroke-linecap="round"></path>
            </g>
            <g id="Group" transform="translate(47.916838, 54.916838) scale(-1, 1) translate(-47.916838, -54.916838) translate(5.000000, 12.000000)">
                <path d="M78.1744121,20.4991096 C56.7074944,2.30882594 56.3346946,22.8130643 46.4283085,39.5231651 C33.6550804,61.0690576 20.7183796,68.6736929 6.73886374,66.2819902" id="Path-414" stroke-width="2.2"></path>
                <path d="M7.18975855,66.4871404 C-1.07323306,62.9414927 -2.14004258,72.2171899 3.60833938,77.5005397 C13.5526423,86.6403691 24.3239976,87.1547791 37.3520059,84.0271761 C56.614986,79.4027582 79.2658107,62.7535771 83.6515618,43.4100925 C84.4909315,39.7080275 88.4933896,20.4740877 77.7154793,20.4740877" id="Path-421" stroke-width="2.2"></path>
                <path d="M75.5966316,18.3605778 C85.4768918,-19.3192561 83.5488255,11.2817045 77.6832752,19.8661568" id="Path-422" stroke-width="2.2"></path>
                <path d="M60.6347983,62.4047548 C60.6347983,62.4047548 71.6694959,52.4590441 74.9737629,46.5440401 C78.2780299,40.629036 77.0199453,33.0735263 77.0199453,33.0735263" id="Path-423" stroke-width="2" stroke-linecap="round"></path>
            </g>
        </g>
    </g>
</svg>