<?xml version="1.0" encoding="UTF-8"?>
<svg width="152px" height="152px" viewBox="0 0 152 152" version="1.1" xmlns="http://www.w3.org/2000/svg" xmlns:xlink="http://www.w3.org/1999/xlink">
    <!-- Generator: Sketch 44.1 (41455) - http://www.bohemiancoding.com/sketch -->
    <title>pineapple</title>
    <desc>Created with Sketch.</desc>
    <defs></defs>
    <g id="Page-1" stroke="none" stroke-width="1" fill="none" fill-rule="evenodd" stroke-linejoin="round">
        <g id="pineapple" stroke="#979797" stroke-width="2">
            <g id="Group" transform="translate(42.000000, 4.000000)">
                <path d="M34.5,144.993103 C39.4650349,144.993103 44.1830214,143.498715 48.4409136,140.810933 C50.9512085,139.226316 52.9826891,139.00241 56.2287077,135.370491 C59.4747263,131.738571 59.9208253,129.277403 61.7303433,125.921126 C63.0197621,123.529523 64.5547714,122.52034 65.7693661,118.626867 C66.9839609,114.733394 66.7300775,113.148126 67.2998468,110.435773 C67.7475402,108.304556 68.7608953,106.965881 68.9417468,104.43761 C69.1225983,101.909339 68.7090909,99.1111008 68.7090909,96.662069 C68.7090909,93.7999132 69.1938953,91.3109598 68.7090909,87.9208406 C68.2242865,84.5307214 67.4142296,83.1979204 66.8200968,80.7837276 C66.0325527,77.5836296 66.2764867,74.5549124 64.5854252,70.9997926 C62.8943637,67.4446728 61.582052,66.9980398 60.2769446,64.8865271 C58.8999843,62.6587649 59.0508056,60.5971469 56.2287077,57.7546893 C53.4066097,54.9122318 51.7182144,55.3173023 49.9016109,53.9456324 C45.6986938,50.7721195 41.671796,48.8652847 36.6517583,48.4250931 C35.9401779,48.3626968 35.516314,46.921668 34.7936079,46.921668 C34.296276,46.921668 33.5078151,48.3460283 33.0156548,48.3757133 C28.6165888,48.6410468 25.2345762,50.7013311 21.4186886,53.0981026 C20.8304004,53.4676084 18.8850981,53.5488121 18.3086274,53.9456324 C13.7191993,57.1048178 12.1872446,59.6108157 9.5067161,63.6612957 C7.84523421,66.1719197 6.10650687,67.3830528 4.48894591,71.2920106 C2.87138495,75.2009684 3.06200127,77.3224521 2.31492986,80.2454159 C1.59963779,83.0440411 0.631616116,84.9093285 0.290909091,87.9208406 C-0.0497979344,90.9323527 0.290909091,94.0456866 0.290909091,96.662069 C0.290909091,98.9505221 0.073152742,101.515308 0.290909091,103.719014 C0.50866544,105.922719 1.19379856,107.976292 1.64513023,110.17105 C2.19890054,112.863952 1.64513023,114.665691 2.87138495,118.626867 C4.09763968,122.588044 6.24204994,124.137092 7.80625704,126.890657 C9.49257601,129.859183 9.58582001,131.632606 12.5030959,135.008747 C15.4203718,138.384888 18.2752124,139.417727 20.9222791,141.036617 C25.0846535,143.582236 29.6757062,144.993103 34.5,144.993103 Z" id="Oval"></path>
                <path d="M18.2155103,52.9653677 C18.2155103,52.9653677 14.5213735,41.7055239 12.9464277,38.6696359 C11.371482,35.6337479 4.8879999,25.8818196 4.8879999,25.8818196 C4.8879999,25.8818196 12.9464277,28.6792229 17.5546968,33.6630857 C22.1629658,38.6469484 26.8092614,49.1643857 26.8092614,49.1643857 C26.8092614,49.1643857 24.634668,44.0189659 21.5859991,38.6696359 C20.9776192,36.5534989 21.6549605,33.2236635 20.7555888,26.6968243 C19.8562171,20.1699851 15.1385778,6.72216196 15.1385778,6.72216196 C15.1385778,6.72216196 24.0605641,14.3816825 27.2641809,20.1699851 C30.4677977,25.9582876 32.1155441,38.6696359 32.1155441,38.6696359 C32.1155441,38.6696359 31.0258102,30.4815255 29.1146453,24.7678738 C29.447612,20.8930715 35.4016726,0.428280775 35.4016726,0.428280775 C35.4016726,0.428280775 42.1150674,15.2071249 42.5330268,24.7678738 C39.34428,31.9592755 37.9851656,38.6696359 37.9851656,38.6696359 C37.9851656,38.6696359 39.9929716,28.9134156 44.4032312,21.7940814 C48.8134907,14.6747473 56.8062869,10.4038357 56.8062869,10.4038357 C56.8062869,10.4038357 51.9681409,17.9803564 49.6298402,26.8909117 C47.2915394,35.801467 48.893561,38.7256908 47.7276563,41.781259 C45.8715997,45.6813166 43.4221497,49.7315279 43.4221497,49.7315279 C43.4221497,49.7315279 47.6964543,41.2192667 52.6229574,36.3415871 C57.5494605,31.4639075 66.3158813,26.8909117 66.3158813,26.8909117 C66.3158813,26.8909117 59.7703646,35.8093391 56.8062869,40.9626676 C53.8422092,46.115996 50.3612842,53.5966005 50.3612842,53.5966005" id="Path-778"></path>
                <path d="M8.00507278,127.093492 C8.00507278,127.093492 11.6191759,124.738499 15.6774933,121.07788 C19.7358106,117.41726 21.5992901,114.237956 21.5992901,114.237956 C21.5992901,114.237956 24.5668452,118.574149 26.0759061,120.472497 C27.584967,122.370845 33.4653864,127.093492 33.4653864,127.093492 C33.4653864,127.093492 39.3062337,123.071039 42.4201404,120.368367 C45.5340472,117.665696 47.6712992,113.643243 47.6712992,113.643243 C47.6712992,113.643243 50.8754694,118.221763 53.3068801,120.472497 C55.7382908,122.723232 62.6226645,126.288603 62.6226645,126.288603" id="Path-779"></path>
                <path d="M1.80849034,110.976699 C1.80849034,110.976699 2.42207592,110.681845 4.05931143,109.321682 C5.69654695,107.961519 9.98110832,102.481758 9.98110832,102.481758 C9.98110832,102.481758 12.9486634,106.817952 14.4577243,108.7163 C15.9667852,110.614647 21.186822,115.623181 21.186822,115.623181" id="Path-779"></path>
                <path d="M48.2812176,110.976699 C48.2812176,110.976699 48.8948032,110.681845 50.5320387,109.321682 C52.1692742,107.961519 56.4538356,102.481758 56.4538356,102.481758 C56.4538356,102.481758 59.4213907,106.817952 60.9304516,108.7163 C62.4395125,110.614647 67.6595492,115.623181 67.6595492,115.623181" id="Path-779" transform="translate(57.970383, 109.052470) scale(-1, 1) translate(-57.970383, -109.052470) "></path>
                <path d="M22.3487094,115.252152 C22.3487094,115.252152 26.4284337,112.621086 29.5423404,109.918414 C32.6562471,107.215743 34.7934991,103.19329 34.7934991,103.19329 C34.7934991,103.19329 37.9976694,107.771809 40.4290801,110.022544 C42.8604907,112.273279 47.338219,114.719171 47.338219,114.719171" id="Path-779"></path>
                <path d="M0.364556909,92.4069112 C0.364556909,92.4069112 2.42207592,91.0881827 4.05931143,89.7280195 C5.69654695,88.3678562 9.98110832,82.8880954 9.98110832,82.8880954 C9.98110832,82.8880954 12.9486634,87.2242892 14.4577243,89.122637 C15.9667852,91.0209849 21.186822,94.7232742 21.186822,94.7232742" id="Path-779"></path>
                <path d="M48.5078049,92.1816639 C48.5078049,92.1816639 50.3417876,91.0881827 51.9790232,89.7280195 C53.6162587,88.3678562 57.90082,82.8880954 57.90082,82.8880954 C57.90082,82.8880954 60.8683751,87.2242892 62.377436,89.122637 C63.8864969,91.0209849 68.8799464,95.1919215 68.8799464,95.1919215" id="Path-779" transform="translate(58.693876, 89.040008) scale(-1, 1) translate(-58.693876, -89.040008) "></path>
                <path d="M24.012351,95.186253 C24.012351,95.186253 26.4284337,93.0274229 29.5423404,90.3247514 C32.6562471,87.6220799 34.7934991,83.5996272 34.7934991,83.5996272 C34.7934991,83.5996272 37.9976694,88.1781465 40.4290801,90.4288812 C42.8604907,92.6796159 45.5199144,94.8458463 45.5199144,94.8458463" id="Path-779"></path>
                <path d="M24.012351,58.6114161 C24.012351,58.6114161 26.4284337,56.452586 29.5423404,53.7499145 C32.6562471,51.047243 34.7934991,47.0247903 34.7934991,47.0247903 C34.7934991,47.0247903 37.9976694,51.6033096 40.4290801,53.8540443 C42.8604907,56.104779 45.5199144,58.2710094 45.5199144,58.2710094" id="Path-779"></path>
                <path d="M9.44108141,64.4323405 C9.44108141,64.4323405 12.9486634,68.9368708 14.4577243,70.8352186 C15.9667852,72.7335664 21.186822,76.4358558 21.186822,76.4358558" id="Path-779"></path>
                <path d="M48.5078049,64.8341532 C48.5078049,64.8341532 51.799167,68.9368708 53.3082278,70.8352186 C54.8172887,72.7335664 59.8107382,76.904503 59.8107382,76.904503" id="Path-779" transform="translate(54.159272, 70.869328) scale(-1, 1) translate(-54.159272, -70.869328) "></path>
                <path d="M24.012351,76.8988345 C24.012351,76.8988345 26.4284337,74.7400044 29.5423404,72.0373329 C32.6562471,69.3346614 34.7934991,65.3122088 34.7934991,65.3122088 C34.7934991,65.3122088 37.9976694,69.890728 40.4290801,72.1414628 C42.8604907,74.3921975 45.5199144,76.5584278 45.5199144,76.5584278" id="Path-779"></path>
                <path d="M0.249509993,97.297769 C1.75857087,99.1961168 8.27773105,105.173228 8.27773105,105.173228" id="Path-779"></path>
                <path d="M11.0319656,104.770921 C11.0319656,104.770921 13.6399751,102.275262 16.7538818,99.5725904 C19.8677886,96.8699189 22.4432555,92.6493586 22.4432555,92.6493586 C22.4432555,92.6493586 25.0885785,97.3218557 27.5199891,99.5725904 C29.9513998,101.823325 33.8545455,104.770921 33.8545455,104.770921" id="Path-779"></path>
                <path d="M60.9222373,97.297769 C62.4312981,99.1961168 68.9504583,105.173228 68.9504583,105.173228" id="Path-779" transform="translate(64.936348, 101.235498) scale(-1, 1) translate(-64.936348, -101.235498) "></path>
                <path d="M35.5592383,104.770921 C35.5592383,104.770921 38.1672478,102.275262 41.2811546,99.5725904 C44.3950613,96.8699189 46.9705283,92.6493586 46.9705283,92.6493586 C46.9705283,92.6493586 49.6158512,97.3218557 52.0472619,99.5725904 C54.4786725,101.823325 58.3818182,104.770921 58.3818182,104.770921" id="Path-779" transform="translate(46.970528, 98.710140) scale(-1, 1) translate(-46.970528, -98.710140) "></path>
                <path d="M11.0319656,68.1960845 C11.0319656,68.1960845 13.6399751,65.700425 16.7538818,62.9977535 C19.8677886,60.295082 22.4432555,56.0745217 22.4432555,56.0745217 C22.4432555,56.0745217 25.0885785,60.7470188 27.5199891,62.9977535 C29.9513998,65.2484883 33.8545455,68.1960845 33.8545455,68.1960845" id="Path-779"></path>
                <path d="M35.5592383,68.1960845 C35.5592383,68.1960845 38.1672478,65.700425 41.2811546,62.9977535 C44.3950613,60.295082 46.9705283,56.0745217 46.9705283,56.0745217 C46.9705283,56.0745217 49.6158512,60.7470188 52.0472619,62.9977535 C54.4786725,65.2484883 58.3818182,68.1960845 58.3818182,68.1960845" id="Path-779" transform="translate(46.970528, 62.135303) scale(-1, 1) translate(-46.970528, -62.135303) "></path>
                <path d="M2.99320366,80.5915897 C4.50226453,82.4899375 6.98936006,84.74894 6.98936006,84.74894 C6.98936006,84.74894 1.48414278,78.6932419 2.99320366,80.5915897 Z" id="Path-779"></path>
                <path d="M11.0319656,85.1772588 C11.0319656,85.1772588 13.6399751,82.6815993 16.7538818,79.9789278 C19.8677886,77.2762563 22.4432555,73.055696 22.4432555,73.055696 C22.4432555,73.055696 25.0885785,77.7281931 27.5199891,79.9789278 C29.9513998,82.2296625 33.8545455,85.1772588 33.8545455,85.1772588" id="Path-779"></path>
                <path d="M60.9222373,79.9128107 C62.4312981,81.8111585 66.451574,85.579565 66.451574,85.579565" id="Path-779" transform="translate(63.686906, 82.746188) scale(-1, 1) translate(-63.686906, -82.746188) "></path>
                <path d="M35.5592383,85.1772588 C35.5592383,85.1772588 38.1672478,82.6815993 41.2811546,79.9789278 C44.3950613,77.2762563 46.9705283,73.055696 46.9705283,73.055696 C46.9705283,73.055696 49.6158512,77.7281931 52.0472619,79.9789278 C54.4786725,82.2296625 58.3818182,85.1772588 58.3818182,85.1772588" id="Path-779" transform="translate(46.970528, 79.116477) scale(-1, 1) translate(-46.970528, -79.116477) "></path>
                <path d="M21.0578003,141.039397 C21.0578003,141.039397 25.4652208,138.196995 28.8292462,135.277236 C32.1932717,132.357478 34.5021944,128.011929 34.5021944,128.011929 C34.5021944,128.011929 37.9637337,132.958209 40.5904428,135.38973 C43.217152,137.821251 48.0545455,140.463605 48.0545455,140.463605" id="Path-779"></path>
            </g>
        </g>
    </g>
</svg>