<?xml version="1.0" encoding="UTF-8"?>
<svg width="152px" height="152px" viewBox="0 0 152 152" version="1.1" xmlns="http://www.w3.org/2000/svg" xmlns:xlink="http://www.w3.org/1999/xlink">
    <!-- Generator: Sketch 44.1 (41455) - http://www.bohemiancoding.com/sketch -->
    <title>pinenut</title>
    <desc>Created with Sketch.</desc>
    <defs></defs>
    <g id="Page-1" stroke="none" stroke-width="1" fill="none" fill-rule="evenodd">
        <g id="pinenut" stroke="#FF9677" stroke-width="2.2">
            <g id="Group" transform="translate(12.000000, 4.000000)">
                <path d="M8.25354043,38.257146 C5.88022077,41.5539863 3.72645981,45.0477553 2.05874211,48.7517586 C-5.88534803,66.3955937 13.4347263,86.8299722 28.9886517,70.5845963 C36.6359979,62.597287 33.6764001,40.9237152 32.5658261,33.2928818 C31.6854721,27.2439066 27.5211225,22.8462179 22.5990022,25.5827417 C22.5990022,25.5827417 14.0958002,30.1415105 8.25354043,38.257146 Z" id="Path-394"></path>
                <path d="M104.425914,100.983637 C102.052594,104.280477 99.8988334,107.774246 98.2311157,111.47825 C90.2870256,129.122085 109.6071,149.556463 125.161025,133.311087 C132.808372,125.323778 129.848774,103.650206 128.7382,96.0193728 C127.857846,89.9703976 123.693496,85.5727089 118.771376,88.3092328 C118.771376,88.3092328 110.268174,92.8680015 104.425914,100.983637 Z" id="Path-394" transform="translate(113.311360, 113.358271) scale(-1, 1) rotate(340.000000) translate(-113.311360, -113.358271) "></path>
                <path d="M20.7424549,104.546543 C18.3691352,107.843384 16.2153742,111.337153 14.5476565,115.041156 C6.6035664,132.684991 25.9236408,153.11937 41.4775662,136.873994 C49.1249123,128.886684 46.1653145,107.213113 45.0547405,99.5822792 C44.1743865,93.533304 40.0100369,89.1356153 35.0879166,91.8721391 C35.0879166,91.8721391 26.5847147,96.4309079 20.7424549,104.546543 Z" id="Path-394" transform="translate(29.627901, 116.921177) scale(-1, 1) rotate(40.000000) translate(-29.627901, -116.921177) "></path>
                <path d="M70.2578,13.3802242 C67.8844803,16.6770645 65.7307193,20.1708335 64.0630016,23.8748368 C56.1189115,41.5186719 75.4389859,61.9530504 90.9929113,45.7076745 C98.6402574,37.7203652 95.6806596,16.0467935 94.5700856,8.41596001 C93.6897316,2.3669848 89.525382,-2.03070389 84.6032617,0.705819925 C84.6032617,0.705819925 76.1000598,5.26458868 70.2578,13.3802242 Z" id="Path-394" transform="translate(79.143246, 25.754858) rotate(290.000000) translate(-79.143246, -25.754858) "></path>
                <path d="M58.6980347,63.631514 C56.324715,66.9283542 54.1709541,70.4221233 52.5032364,74.1261266 C44.5591462,91.7699616 63.8792206,112.20434 79.433146,95.9589642 C87.0804922,87.971655 84.1208943,66.2980832 83.0103203,58.6672497 C82.1299664,52.6182745 77.9656167,48.2205858 73.0434964,50.9571097 C73.0434964,50.9571097 64.5402945,55.5158784 58.6980347,63.631514 Z" id="Path-394" transform="translate(67.583481, 76.006148) rotate(45.000000) translate(-67.583481, -76.006148) "></path>
            </g>
        </g>
    </g>
</svg>