<?xml version="1.0" encoding="UTF-8"?>
<svg width="152px" height="152px" viewBox="0 0 152 152" version="1.1" xmlns="http://www.w3.org/2000/svg" xmlns:xlink="http://www.w3.org/1999/xlink">
    <!-- Generator: Sketch 44.1 (41455) - http://www.bohemiancoding.com/sketch -->
    <title>plum</title>
    <desc>Created with Sketch.</desc>
    <defs></defs>
    <g id="Page-1" stroke="none" stroke-width="1" fill="none" fill-rule="evenodd" stroke-linecap="round" stroke-linejoin="round">
        <g id="plum" stroke="#FF9677" stroke-width="2">
            <g id="Group" transform="translate(76.000000, 76.500000) scale(-1, 1) translate(-76.000000, -76.500000) translate(16.000000, 12.000000)">
                <path d="M112.660895,111.213776 C76.4177612,151.185205 17.7898251,117.030103 25.4604395,65.5775473 C27.8906454,49.2763356 38.4805062,11.4590102 76.4177612,16.8933789 C76.4177612,16.8933789 113.424425,16.9983715 119.446781,65.5775473" id="Path-358" transform="translate(72.111682, 72.538575) scale(-1, 1) translate(-72.111682, -72.538575) "></path>
                <path d="M0.291030383,15.710797 C71.9427558,-10.6962221 98.6625039,127.597275 23.9830681,123.344415" id="Path-359" transform="translate(34.448022, 67.898345) scale(-1, 1) translate(-34.448022, -67.898345) "></path>
                <path d="M69.0722769,0 C77.3056668,0.795461673 83.2589073,5.31341801 81.6175756,15.887905 C81.6175756,15.887905 79.6847889,8.65251652 77.3161704,5.65279643 C74.947552,2.65307634 69.0722769,0 69.0722769,0 Z" id="Path-361" transform="translate(75.481506, 7.943953) scale(-1, 1) translate(-75.481506, -7.943953) "></path>
            </g>
        </g>
    </g>
</svg>