<?xml version="1.0" encoding="UTF-8"?>
<svg width="152px" height="152px" viewBox="0 0 152 152" version="1.1" xmlns="http://www.w3.org/2000/svg" xmlns:xlink="http://www.w3.org/1999/xlink">
    <!-- Generator: Sketch 44.1 (41455) - http://www.bohemiancoding.com/sketch -->
    <title>couscous</title>
    <desc>Created with Sketch.</desc>
    <defs></defs>
    <g id="Page-1" stroke="none" stroke-width="1" fill="none" fill-rule="evenodd">
        <g id="couscous" stroke="#FF659B">
            <circle id="Oval-2" stroke-width="2" transform="translate(75.360513, 76.360513) rotate(320.000000) translate(-75.360513, -76.360513) " cx="75.3605135" cy="76.3605135" r="39.3605135"></circle>
            <path d="M26.16142,15.8826447 C26.16142,15.8826447 22.4190999,13.0364813 21.5449034,10.7297368 C20.6707068,8.42299228 21.444659,3.43651586 21.444659,3.43651586 C21.444659,3.43651586 25.8881709,2.84736041 29.3336954,4.05867306 C32.77922,5.26998572 35.7145318,8.71956958 35.7145318,8.71956958 C35.7145318,8.71956958 53.7525281,2 75.8156968,2 C97.8788654,2 117.258923,9.88556979 117.258923,9.88556979 C117.258923,9.88556979 118.419805,6.31465138 122.324674,4.05867306 C126.229543,1.80269475 130.753221,2.84736041 130.753221,2.84736041 C130.753221,2.84736041 132.45795,7.23396412 131.118444,12.438878 C129.778937,17.6437919 125.127226,18.2269559 125.127226,18.2269559 C125.127226,18.2269559 131.10755,56.8981004 130.753221,76.1013672 C130.398892,95.304634 125.127226,134.546574 125.127226,134.546574 C125.127226,134.546574 127.72794,135.440455 129.193278,138.992719 C130.658616,142.544983 129.193278,148.541108 129.193278,148.541108 C129.193278,148.541108 122.10491,149.460254 119.931421,148.541108 C117.757932,147.621963 117.652866,143.660791 117.652866,143.660791 C117.652866,143.660791 110.81029,149.355374 75.4625644,149.355374 C40.1148384,149.355374 37.6103813,145.01321 37.6103813,145.01321 C37.6103813,145.01321 35.9163606,148.471467 32.625028,149.355374 C29.3336954,150.239281 21.5449034,149.355374 21.5449034,149.355374 C21.5449034,149.355374 20.7669792,144.45135 21.444659,140.552398 C22.1223387,136.653446 26.16142,134.546574 26.16142,134.546574 C26.16142,134.546574 19.8483217,102.920916 20.0027891,85.1735294 C20.1572564,67.4261429 26.16142,15.8826447 26.16142,15.8826447 Z" id="Path-35" stroke-width="2.2" stroke-linejoin="round"></path>
            <circle id="Oval-2" stroke-width="1.3" transform="translate(75.360513, 76.360513) rotate(320.000000) translate(-75.360513, -76.360513) " cx="75.3605135" cy="76.3605135" r="39.3605135"></circle>
            <circle id="Oval-4" stroke-width="1.3" cx="63" cy="63" r="6"></circle>
            <circle id="Oval-4" stroke-width="1.3" cx="61" cy="88" r="6"></circle>
            <ellipse id="Oval-4" stroke-width="1.3" cx="79" cy="81" rx="5" ry="6"></ellipse>
            <ellipse id="Oval-4" stroke-width="1.3" transform="translate(83.500000, 55.000000) rotate(320.000000) translate(-83.500000, -55.000000) " cx="83.5" cy="55" rx="5.5" ry="6"></ellipse>
            <circle id="Oval-4" stroke-width="1.3" cx="101" cy="81" r="6"></circle>
            <ellipse id="Oval-4" stroke-width="1.3" cx="92" cy="72.5" rx="6" ry="5.5"></ellipse>
            <ellipse id="Oval-4" stroke-width="1.3" cx="53" cy="70.5" rx="6" ry="5.5"></ellipse>
            <ellipse id="Oval-4" stroke-width="1.3" transform="translate(86.000000, 98.000000) rotate(45.000000) translate(-86.000000, -98.000000) " cx="86" cy="98" rx="6" ry="5"></ellipse>
        </g>
    </g>
</svg>