<?xml version="1.0" encoding="UTF-8"?>
<svg width="152px" height="152px" viewBox="0 0 152 152" version="1.1" xmlns="http://www.w3.org/2000/svg" xmlns:xlink="http://www.w3.org/1999/xlink">
    <!-- Generator: Sketch 44.1 (41455) - http://www.bohemiancoding.com/sketch -->
    <title>pomegranate</title>
    <desc>Created with Sketch.</desc>
    <defs></defs>
    <g id="Page-1" stroke="none" stroke-width="1" fill="none" fill-rule="evenodd" stroke-linejoin="round">
        <g id="pomegranate" stroke="#979797">
            <g id="Group" transform="translate(7.000000, 11.000000)">
                <path d="M70.0624131,130.941207 C70.0624131,130.941207 68.2925622,131.042915 67.5151041,130.678108 C66.7376459,130.313302 65.4721651,129.012894 65.4721651,129.012894 C65.4721651,129.012894 3.23920786,131.84914 0.876430373,79.6113271 C-1.48634712,27.3735143 52.3249156,24.3338746 52.3249156,24.3338746 C52.3249156,24.3338746 55.6730185,23.8624522 56.5816615,22.7992979 C57.4903044,21.7361436 57.3687589,18.4323445 57.3687589,18.4323445 C57.3687589,18.4323445 57.5761701,15.0919525 54.9046023,12.9033539 C52.2330344,10.7147554 51.2419865,10.4745332 47.9252166,9.38019195 C45.9035149,8.71314795 46.2864212,6.01803146 46.2864212,6.01803146 C46.2864212,6.01803146 47.7358825,6.76575568 50.4154714,6.70701747 C53.0950604,6.64827927 56.6457443,5.78190883 58.1152451,6.01803146 C61.1473594,6.50523829 64.8652541,10.8349239 65.4721651,12.1373986 C65.4721651,12.1373986 63.56613,9.56512292 63.6062093,8.86140508 C63.6462885,8.15768724 65.9838945,0.620647044 70.0624131,0.620647044" id="Path-713" stroke-width="2"></path>
                <path d="M138.981431,130.941207 C138.981431,130.941207 137.21158,131.042915 136.434122,130.678108 C135.656664,130.313302 134.391183,129.012894 134.391183,129.012894 C134.391183,129.012894 72.1582256,131.84914 69.7954481,79.6113271 C67.4326706,27.3735143 121.243933,24.3338746 121.243933,24.3338746 C121.243933,24.3338746 124.592036,23.8624522 125.500679,22.7992979 C126.409322,21.7361436 126.287777,18.4323445 126.287777,18.4323445 C126.287777,18.4323445 126.495188,15.0919525 123.82362,12.9033539 C121.152052,10.7147554 120.161004,10.4745332 116.844234,9.38019195 C114.822533,8.71314795 115.205439,6.01803146 115.205439,6.01803146 C115.205439,6.01803146 116.6549,6.76575568 119.334489,6.70701747 C122.014078,6.64827927 125.564762,5.78190883 127.034263,6.01803146 C130.066377,6.50523829 133.784272,10.8349239 134.391183,12.1373986 C134.391183,12.1373986 132.485148,9.56512292 132.525227,8.86140508 C132.565306,8.15768724 134.902912,0.620647044 138.981431,0.620647044" id="Path-713" stroke-width="2" transform="translate(104.350643, 65.787444) scale(-1, 1) translate(-104.350643, -65.787444) "></path>
                <path d="M16.9646813,89.7983871 C23.9066206,109.182615 45.0339305,116.858269 63.0466146,120.390263" id="Path-714" stroke-width="1.7" stroke-linecap="round"></path>
            </g>
        </g>
    </g>
</svg>