<?xml version="1.0" encoding="UTF-8"?>
<svg width="152px" height="152px" viewBox="0 0 152 152" version="1.1" xmlns="http://www.w3.org/2000/svg" xmlns:xlink="http://www.w3.org/1999/xlink">
    <!-- Generator: Sketch 44.1 (41455) - http://www.bohemiancoding.com/sketch -->
    <title>oats</title>
    <desc>Created with Sketch.</desc>
    <defs></defs>
    <g id="Page-1" stroke="none" stroke-width="1" fill="none" fill-rule="evenodd">
        <g id="oats" stroke="#F95604">
            <path d="M26.16142,15.8826447 C26.16142,15.8826447 22.4190999,13.0364813 21.5449034,10.7297368 C20.6707068,8.42299228 21.444659,3.43651586 21.444659,3.43651586 C21.444659,3.43651586 25.8881709,2.84736041 29.3336954,4.05867306 C32.77922,5.26998572 35.7145318,8.71956958 35.7145318,8.71956958 C35.7145318,8.71956958 53.7525281,2 75.8156968,2 C97.8788654,2 117.258923,9.88556979 117.258923,9.88556979 C117.258923,9.88556979 118.419805,6.31465138 122.324674,4.05867306 C126.229543,1.80269475 130.753221,2.84736041 130.753221,2.84736041 C130.753221,2.84736041 132.45795,7.23396412 131.118444,12.438878 C129.778937,17.6437919 125.127226,18.2269559 125.127226,18.2269559 C125.127226,18.2269559 131.10755,56.8981004 130.753221,76.1013672 C130.398892,95.304634 125.127226,134.546574 125.127226,134.546574 C125.127226,134.546574 127.72794,135.440455 129.193278,138.992719 C130.658616,142.544983 129.193278,148.541108 129.193278,148.541108 C129.193278,148.541108 122.10491,149.460254 119.931421,148.541108 C117.757932,147.621963 117.652866,143.660791 117.652866,143.660791 C117.652866,143.660791 110.81029,149.355374 75.4625644,149.355374 C40.1148384,149.355374 37.6103813,145.01321 37.6103813,145.01321 C37.6103813,145.01321 35.9163606,148.471467 32.625028,149.355374 C29.3336954,150.239281 21.5449034,149.355374 21.5449034,149.355374 C21.5449034,149.355374 20.7669792,144.45135 21.444659,140.552398 C22.1223387,136.653446 26.16142,134.546574 26.16142,134.546574 C26.16142,134.546574 19.8483217,102.920916 20.0027891,85.1735294 C20.1572564,67.4261429 26.16142,15.8826447 26.16142,15.8826447 Z" id="Path-35" stroke-width="2.2" stroke-linejoin="round"></path>
            <circle id="Oval-2" stroke-width="2" cx="75.3605135" cy="76.3605135" r="39.3605135"></circle>
            <g id="Group" transform="translate(42.000000, 46.000000)" stroke-width="1.5">
                <path d="M42.8458713,17.6877918 C43.0238549,12.0157508 43.5427599,8.50537227 39.2442737,4.01074299 C30.4715706,-5.1622649 24.0513274,6.06746485 24.2187482,13.4423512 C24.3377824,18.6858107 24.6146087,23.7952022 28.5653851,26.5797085 C31.9018559,28.9312523 36.8021485,27.6904757 39.5227327,26.2335412 C42.2433169,24.7766066 42.7726087,20.9777554 42.8198194,19.7060954 L42.8458713,17.6877918 Z" id="Path-514"></path>
                <path d="M32.2810847,0.810868634 C36.5006311,17.1740971 34.4699265,26.2897461 34.581368,27.7146523" id="Path-515"></path>
                <path d="M26.3206031,43.8139111 C26.4985866,38.1418701 27.0174917,34.6314916 22.7190055,30.1368623 C13.9463024,20.9638544 7.52605919,32.1935842 7.69347996,39.5684706 C7.8125142,44.81193 8.08934051,49.9213215 12.0401169,52.7058278 C15.3765877,55.0573716 20.2768803,53.816595 22.9974645,52.3596605 C25.7180486,50.9027259 26.2473405,47.1038747 26.2945511,45.8322147 L26.3206031,43.8139111 Z" id="Path-514" transform="translate(17.064109, 40.355289) rotate(310.000000) translate(-17.064109, -40.355289) "></path>
                <path d="M15.696359,26.8997402 C19.9159055,43.2629686 18.0138648,51.8446445 18.0874783,53.6460829" id="Path-515" transform="translate(17.074320, 40.272912) rotate(310.000000) translate(-17.074320, -40.272912) "></path>
                <path d="M59.4541023,44.5227316 C59.6320859,38.8506906 60.1509909,35.3403121 55.8525047,30.8456828 C47.0798016,21.6726749 40.6595584,32.9024047 40.8269792,40.2772911 C40.9460134,45.5207505 41.2228397,50.6301421 45.1736161,53.4146483 C48.5100869,55.7661921 53.4103795,54.5254155 56.1309637,53.068481 C58.8515479,51.6115464 59.3808397,47.8126952 59.4280504,46.5410353 L59.4541023,44.5227316 Z" id="Path-514" transform="translate(50.197609, 41.064109) rotate(40.000000) translate(-50.197609, -41.064109) "></path>
                <path d="M48.8842055,27.7104449 C53.1037519,44.3278308 51.3422378,53.7142087 51.1924054,54.4964505" id="Path-515" transform="translate(50.283847, 41.103448) rotate(40.000000) translate(-50.283847, -41.103448) "></path>
            </g>
        </g>
    </g>
</svg>