<?xml version="1.0" encoding="UTF-8"?>
<svg width="152px" height="152px" viewBox="0 0 152 152" version="1.1" xmlns="http://www.w3.org/2000/svg" xmlns:xlink="http://www.w3.org/1999/xlink">
    <!-- Generator: Sketch 44.1 (41455) - http://www.bohemiancoding.com/sketch -->
    <title>pumpkin</title>
    <desc>Created with Sketch.</desc>
    <defs></defs>
    <g id="Page-1" stroke="none" stroke-width="1" fill="none" fill-rule="evenodd">
        <g id="pumpkin" stroke="#979797" stroke-width="2">
            <path d="M58.65308,47.8652443 C55.1870419,46.4086192 43.7738622,35.0276093 29.2073123,53.1349076 C14.6407624,71.242206 26.1076365,150.46696 59.4403825,129.419628" id="Path-696"></path>
            <path d="M34.7021831,47.0982311 C2.93873131,22.7812831 7.512703,150.254497 38.8432185,128.820364" id="Path-696"></path>
            <g id="Group" transform="translate(115.500000, 88.500000) scale(-1, 1) translate(-115.500000, -88.500000) translate(92.000000, 43.000000)">
                <path d="M45.7698042,5.00933683 C42.3037661,3.55271176 30.8905864,-7.82829818 16.3240365,10.2790002 C1.75748657,28.3862986 13.2243606,107.611052 46.5571067,86.5637202" id="Path-696"></path>
                <path d="M21.9956941,4.19820001 C-9.7677577,-20.1187479 -5.19378601,107.354466 26.1367295,85.9203327" id="Path-696"></path>
            </g>
            <path d="M75,136 C93.2253967,136 107,114.733526 107,88.5 C107,62.2664744 93.2253967,41 75,41 C56.7746033,41 43,62.2664744 43,88.5 C43,114.733526 56.7746033,136 75,136 Z" id="Oval"></path>
            <path d="M69.9273229,41.8517857 C69.6583191,37.7027407 72.4668067,32.4709088 72.4668067,30.3882896 C72.4668067,28.3056704 71.1979058,27.3605862 69.9273229,26.1768142 C68.2903251,24.6516621 77.5845332,22.7962067 79.7722086,22.1633338 C79.7722086,22.1633338 82.4039346,27.9537029 78.5227554,41.8517857" id="Path-698" transform="translate(75.189580, 32.007560) scale(-1, 1) translate(-75.189580, -32.007560) "></path>
        </g>
    </g>
</svg>