<?xml version="1.0" encoding="UTF-8"?>
<svg width="152px" height="152px" viewBox="0 0 152 152" version="1.1" xmlns="http://www.w3.org/2000/svg" xmlns:xlink="http://www.w3.org/1999/xlink">
    <!-- Generator: Sketch 44.1 (41455) - http://www.bohemiancoding.com/sketch -->
    <title>vinegarraspberry</title>
    <desc>Created with Sketch.</desc>
    <defs></defs>
    <g id="Page-1" stroke="none" stroke-width="1" fill="none" fill-rule="evenodd">
        <g id="vinegarraspberry" stroke="#FF659B">
            <path d="M76.464884,3 L68.3821465,3 C68.3821465,3 66.3007135,3.06243358 65.7480883,4.21588585 C65.195463,5.36933812 65.2164058,9.60760769 65.2164058,9.60760769 L65.2164058,16.2896904 C65.2164058,16.2896904 65.3491445,17.0450593 65.7480883,17.2084596 C66.147032,17.37186 67.4595904,17.2084596 67.4595904,17.2084596 L67.549621,32.2600776 C67.549621,32.2600776 67.3571098,35.1712474 66.186103,36.615348 C65.0150962,38.0594486 60.4491233,41.016502 60.4491233,41.016502 C60.4491233,41.016502 56.517802,43.3711838 55.424569,46.2118505 C54.3313361,49.0525173 54.0000861,57.773741 54.0000861,57.773741 L54.0000861,140.729627 C54.0000861,140.729627 53.9630651,143.858079 55.424569,146.161946 C56.8860729,148.465812 59.6094691,148.225887 59.6094691,148.225887 L76.464884,148.225887" id="Path-619" stroke-width="2.2" stroke-linejoin="round"></path>
            <path d="M97.3069892,3 L89.2242517,3 C89.2242517,3 87.1428188,3.06243358 86.5901935,4.21588585 C86.0375683,5.36933812 86.058511,9.60760769 86.058511,9.60760769 L86.058511,16.2896904 C86.058511,16.2896904 86.1912498,17.0450593 86.5901935,17.2084596 C86.9891372,17.37186 88.3016956,17.2084596 88.3016956,17.2084596 L88.3917263,32.2600776 C88.3917263,32.2600776 88.1992151,35.1712474 87.0282083,36.615348 C85.8572015,38.0594486 81.2912286,41.016502 81.2912286,41.016502 C81.2912286,41.016502 77.3599072,43.3711838 76.2666743,46.2118505 C75.1734413,49.0525173 74.8421913,57.773741 74.8421913,57.773741 L74.8421913,140.729627 C74.8421913,140.729627 74.8051704,143.858079 76.2666743,146.161946 C77.7281781,148.465812 80.4515744,148.225887 80.4515744,148.225887 L97.3069892,148.225887" id="Path-619" stroke-width="2.2" stroke-linejoin="round" transform="translate(86.074547, 75.616508) scale(-1, 1) translate(-86.074547, -75.616508) "></path>
            <path d="M65.5789474,17.0169972 L84.8676224,17.016" id="Path-620" stroke-width="2.2"></path>
            <rect id="Rectangle" stroke-width="1.9" x="59.5815789" y="65.854" width="31.6789474" height="62.34" rx="5"></rect>
            <g id="Group" transform="translate(65.000000, 80.000000)" stroke-width="1.5">
                <path d="M9.10643242,11.2078413 C9.17272295,11.4757244 9.20833333,11.759621 9.20833333,12.0535714 C9.20833333,13.680839 8.11702741,15 6.77083333,15 C5.42463926,15 4.33333333,13.680839 4.33333333,12.0535714 C4.33333333,11.759621 4.36894372,11.4757244 4.43523425,11.2078413 C4.5783631,11.2355783 4.72526247,11.25 4.875,11.25 C5.61314363,11.25 6.28231752,10.8995405 6.77083333,10.3311748 C7.25934914,10.8995405 7.92852304,11.25 8.66666667,11.25 C8.8164042,11.25 8.96330357,11.2355783 9.10643242,11.2078413 Z" id="Combined-Shape"></path>
                <path d="M6.77083333,10.3311748 C6.28231752,10.8995405 5.61314363,11.25 4.875,11.25 C3.3792288,11.25 2.16666667,9.81091527 2.16666667,8.03571429 C2.16666667,7.44749177 2.29980166,6.89617362 2.53226026,6.42188765 C2.59047004,6.42632076 2.64918022,6.42857143 2.70833333,6.42857143 C3.44647696,6.42857143 4.11565086,6.07811197 4.60416667,5.50974626 C5.05353396,6.03256447 5.65576449,6.37100202 6.32392693,6.42188765 C6.09146833,6.89617362 5.95833333,7.44749177 5.95833333,8.03571429 C5.95833333,8.93487667 6.26942273,9.74780661 6.77083333,10.3311748 Z" id="Combined-Shape"></path>
                <path d="M6.41160971,6.42689196 C6.38226181,6.42577515 6.35303182,6.4241042 6.32392693,6.42188765 C6.09146833,6.89617362 5.95833333,7.44749177 5.95833333,8.03571429 C5.95833333,9.81091527 7.17089547,11.25 8.66666667,11.25 C10.1624379,11.25 11.375,9.81091527 11.375,8.03571429 C11.375,7.40879055 11.2237699,6.82378707 10.9622434,6.32928464 C10.7477946,6.39411362 10.5231213,6.42857143 10.2916667,6.42857143 C9.55352304,6.42857143 8.88434914,6.07811197 8.39583333,5.50974626 C8.15157543,5.79392911 7.862153,6.02363541 7.5415271,6.18229598 C7.2209012,6.34095656 6.86907182,6.42857143 6.5,6.42857143 C6.47042298,6.42857143 6.44095669,6.42800874 6.41160832,6.4268919 Z" id="Combined-Shape"></path>
                <path d="M4.60416667,0.918825172 C4.11565086,0.350459459 3.44647696,0 2.70833333,0 C1.21256214,0 0,1.43908473 0,3.21428571 C0,4.9894867 1.21256214,6.42857143 2.70833333,6.42857143 C3.44647696,6.42857143 4.11565086,6.07811197 4.60416667,5.50974626 C4.10275606,4.92637804 3.79166667,4.1134481 3.79166667,3.21428571 C3.79166667,2.31512333 4.10275606,1.50219339 4.60416667,0.918825172 Z" id="Combined-Shape"></path>
                <path d="M8.39583333,5.50974626 C8.88434914,6.07811197 9.55352304,6.42857143 10.2916667,6.42857143 C11.7874379,6.42857143 13,4.9894867 13,3.21428571 C13,1.43908473 11.7874379,0 10.2916667,0 C9.55352304,0 8.88434914,0.350459459 8.39583333,0.918825172 C8.89724394,1.50219339 9.20833333,2.31512333 9.20833333,3.21428571 C9.20833333,4.1134481 8.89724394,4.92637804 8.39583333,5.50974626 Z" id="Combined-Shape"></path>
                <ellipse id="Oval-29" cx="6.5" cy="3.21428571" rx="2.70833333" ry="3.21428571"></ellipse>
            </g>
            <g id="Group" transform="translate(73.000000, 100.000000)" stroke-width="1.5">
                <path d="M9.10643242,11.2078413 C9.17272295,11.4757244 9.20833333,11.759621 9.20833333,12.0535714 C9.20833333,13.680839 8.11702741,15 6.77083333,15 C5.42463926,15 4.33333333,13.680839 4.33333333,12.0535714 C4.33333333,11.759621 4.36894372,11.4757244 4.43523425,11.2078413 C4.5783631,11.2355783 4.72526247,11.25 4.875,11.25 C5.61314363,11.25 6.28231752,10.8995405 6.77083333,10.3311748 C7.25934914,10.8995405 7.92852304,11.25 8.66666667,11.25 C8.8164042,11.25 8.96330357,11.2355783 9.10643242,11.2078413 Z" id="Combined-Shape"></path>
                <path d="M6.77083333,10.3311748 C6.28231752,10.8995405 5.61314363,11.25 4.875,11.25 C3.3792288,11.25 2.16666667,9.81091527 2.16666667,8.03571429 C2.16666667,7.44749177 2.29980166,6.89617362 2.53226026,6.42188765 C2.59047004,6.42632076 2.64918022,6.42857143 2.70833333,6.42857143 C3.44647696,6.42857143 4.11565086,6.07811197 4.60416667,5.50974626 C5.05353396,6.03256447 5.65576449,6.37100202 6.32392693,6.42188765 C6.09146833,6.89617362 5.95833333,7.44749177 5.95833333,8.03571429 C5.95833333,8.93487667 6.26942273,9.74780661 6.77083333,10.3311748 Z" id="Combined-Shape"></path>
                <path d="M6.41160971,6.42689196 C6.38226181,6.42577515 6.35303182,6.4241042 6.32392693,6.42188765 C6.09146833,6.89617362 5.95833333,7.44749177 5.95833333,8.03571429 C5.95833333,9.81091527 7.17089547,11.25 8.66666667,11.25 C10.1624379,11.25 11.375,9.81091527 11.375,8.03571429 C11.375,7.40879055 11.2237699,6.82378707 10.9622434,6.32928464 C10.7477946,6.39411362 10.5231213,6.42857143 10.2916667,6.42857143 C9.55352304,6.42857143 8.88434914,6.07811197 8.39583333,5.50974626 C8.15157543,5.79392911 7.862153,6.02363541 7.5415271,6.18229598 C7.2209012,6.34095656 6.86907182,6.42857143 6.5,6.42857143 C6.47042298,6.42857143 6.44095669,6.42800874 6.41160832,6.4268919 Z" id="Combined-Shape"></path>
                <path d="M4.60416667,0.918825172 C4.11565086,0.350459459 3.44647696,0 2.70833333,0 C1.21256214,0 0,1.43908473 0,3.21428571 C0,4.9894867 1.21256214,6.42857143 2.70833333,6.42857143 C3.44647696,6.42857143 4.11565086,6.07811197 4.60416667,5.50974626 C4.10275606,4.92637804 3.79166667,4.1134481 3.79166667,3.21428571 C3.79166667,2.31512333 4.10275606,1.50219339 4.60416667,0.918825172 Z" id="Combined-Shape"></path>
                <path d="M8.39583333,5.50974626 C8.88434914,6.07811197 9.55352304,6.42857143 10.2916667,6.42857143 C11.7874379,6.42857143 13,4.9894867 13,3.21428571 C13,1.43908473 11.7874379,0 10.2916667,0 C9.55352304,0 8.88434914,0.350459459 8.39583333,0.918825172 C8.89724394,1.50219339 9.20833333,2.31512333 9.20833333,3.21428571 C9.20833333,4.1134481 8.89724394,4.92637804 8.39583333,5.50974626 Z" id="Combined-Shape"></path>
                <ellipse id="Oval-29" cx="6.5" cy="3.21428571" rx="2.70833333" ry="3.21428571"></ellipse>
            </g>
        </g>
    </g>
</svg>