<?xml version="1.0" encoding="UTF-8"?>
<svg width="152px" height="152px" viewBox="0 0 152 152" version="1.1" xmlns="http://www.w3.org/2000/svg" xmlns:xlink="http://www.w3.org/1999/xlink">
    <!-- Generator: Sketch 44.1 (41455) - http://www.bohemiancoding.com/sketch -->
    <title>beans</title>
    <desc>Created with Sketch.</desc>
    <defs></defs>
    <g id="Page-1" stroke="none" stroke-width="1" fill="none" fill-rule="evenodd">
        <g id="beans" stroke="#A8104C" stroke-width="2.2">
            <g id="Group" transform="translate(5.000000, 11.000000)">
                <path d="M19.8972802,118.993707 C20.5541392,120.397849 26.9682285,129.520906 40.513838,129.520906 C54.0594476,129.520906 80.6539324,111.887574 84.1071259,99.0239243 C87.5603193,86.1602741 82.5116386,78.8457279 82.5116386,78.8457279 C82.5116386,78.8457279 79.0904269,69.8980158 69.156588,70.4403616 C61.0421845,70.883374 56.6617147,77.0736386 54.5887285,80.1072888 C52.5157423,83.140939 48.2092548,86.3845545 45.7260856,87.6315626 C43.2429165,88.8785706 34.4786077,90.5497706 34.4786077,90.5497706 C34.4786077,90.5497706 22.8722026,92.7570052 19.8972802,103.341395 C16.9223579,113.925784 19.2404213,117.589565 19.8972802,118.993707 Z" id="Path-224"></path>
                <path d="M35.75,90.646216 C35.75,90.646216 40.6277738,101.873888 50.4145117,96.8209209 C60.2012496,91.7679535 52.8913273,82.3333333 52.8913273,82.3333333" id="Path-225"></path>
                <path d="M65.4177227,10.5271994 C64.7608638,9.12305759 58.3467745,-2.48689958e-14 44.801165,-2.48689958e-14 C31.2555554,-1.63705102e-14 4.66107053,17.633332 1.2078771,30.4969822 C-2.24531633,43.3606323 2.80336442,50.6751785 2.80336442,50.6751785 C2.80336442,50.6751785 6.22457611,59.6228907 16.1584149,59.0805448 C24.2728184,58.6375325 28.6532883,52.4472678 30.7262745,49.4136176 C32.7992607,46.3799675 37.1057482,43.136352 39.5889173,41.8893439 C42.0720865,40.6423359 50.8363952,38.9711359 50.8363952,38.9711359 C50.8363952,38.9711359 62.4428004,36.7639013 65.4177227,26.1795119 C68.3926451,15.5951225 66.0745817,11.9313413 65.4177227,10.5271994 Z" id="Path-224"></path>
                <path d="M50.0975763,38.898384 C50.0975763,38.898384 45.2198025,27.6707116 35.4330646,32.7236791 C25.6463267,37.7766465 32.9562491,47.2112667 32.9562491,47.2112667" id="Path-225"></path>
                <path d="M123.712723,75.0429265 C125.256844,74.9059258 136.023462,71.9989229 140.656333,59.2702135 C145.289204,46.5415042 137.815142,15.5199083 126.908326,7.87534041 C116.001511,0.23077255 107.401335,2.47325846 107.401335,2.47325846 C107.401335,2.47325846 97.823113,2.62784805 94.9351784,12.1480963 C92.5761843,19.9246605 96.8949215,26.1581509 99.0366171,29.1436902 C101.178313,32.1292295 102.753409,37.2853859 103.075919,40.0453035 C103.39843,42.8052211 101.971274,51.6125614 101.971274,51.6125614 C101.971274,51.6125614 100.075771,63.2739334 109.004361,69.6895203 C117.93295,76.1051073 122.168603,75.1799272 123.712723,75.0429265 Z" id="Path-224"></path>
                <path d="M101.615542,50.9503073 C101.615542,50.9503073 113.8344,50.2067893 112.433425,39.2820473 C111.03245,28.3573052 99.6666667,31.9995552 99.6666667,31.9995552" id="Path-225"></path>
            </g>
        </g>
    </g>
</svg>