<?xml version="1.0" encoding="UTF-8"?>
<svg width="152px" height="152px" viewBox="0 0 152 152" version="1.1" xmlns="http://www.w3.org/2000/svg" xmlns:xlink="http://www.w3.org/1999/xlink">
    <!-- Generator: Sketch 44.1 (41455) - http://www.bohemiancoding.com/sketch -->
    <title>redcabbage</title>
    <desc>Created with Sketch.</desc>
    <defs></defs>
    <g id="Page-1" stroke="none" stroke-width="1" fill="none" fill-rule="evenodd" stroke-linecap="round" stroke-linejoin="round">
        <g id="redcabbage" stroke="#A8104C">
            <g id="Group" transform="translate(11.000000, 12.000000)">
                <path d="M51.2275121,127.120555 C51.2275121,127.120555 57.3543242,127.83503 60.2433492,127.83503 C63.1323743,127.83503 69.3433106,127.120555 69.3433106,127.120555 L69.9374221,125.832233 C59.8419815,125.703835 49.5047657,126.44078 39.5497987,124.755877 C6.07813963,119.090716 -3.28513214,74.4989576 1.13060107,47.5568679 C4.03923681,29.8101605 19.4702709,16.2829572 33.593612,6.97614051 C54.2638213,-6.64484661 84.1057051,5.28194253 94.0032322,6.97614051 C103.900759,8.67033848 110.97082,7.80467597 112.051651,11.77578 C113.132482,15.746884 99.9390644,22.4064073 100.437608,24.5791758" id="Path-480" stroke-width="2.3"></path>
                <path d="M69.8393813,125.8119 C121.749636,122.865884 155.249236,51.3410058 107.658559,17.8054295" id="Path-482" stroke-width="2.3"></path>
                <path d="M100.360493,24.0828067 C100.281974,28.14499 101.935972,36.9662677 96.0868345,39.2146823 C90.2376974,41.4630969 81.6708,34.8920896 78.6874475,37.8388881 C75.6219154,40.8668592 77.5187257,50.6770772 72.7107402,52.2819514 C67.9027547,53.8868257 59.9366778,45.3589008 58.4704133,47.2997527 C56.3481819,50.108889 60.078301,59.0085883 57.3539185,61.3464783 C54.629536,63.6843683 45.0182394,60.6613842 43.3561831,64 C41.6941267,67.3386158 50.3902908,71.6342188 48.8213791,76.6097227 C47.2524673,81.5852266 41.3509988,80.1343245 38.0366794,82.2880802 C27.6171433,89.0590438 40.5810016,92.05256 42.1553192,95.4940934 C43.4875323,98.4063752 39.6617248,103.620095 41.2626932,106.393439 C42.8636617,109.166783 50.0054553,109.110855 53.3708388,113.22154 C56.7362223,117.332225 55.1987138,124.379504 61.037578,125.886384" id="Path-481" stroke-width="2.3"></path>
                <path d="M74.1584262,122.042921 C92.2287522,119.65476 125.641731,83.2374439 96.2352389,79.5098543" id="Path-483" stroke-width="1.9" transform="translate(91.019058, 100.776388) rotate(350.000000) translate(-91.019058, -100.776388) "></path>
                <path d="M101.084433,95.7608139 C105.955788,90.4703636 112.784035,62.5944826 125.143715,69.6071767" id="Path-484" stroke-width="1.9" transform="translate(113.114074, 82.121865) rotate(350.000000) translate(-113.114074, -82.121865) "></path>
                <path d="M57.3860304,125.005219 C-12.1945441,125.005219 7.26506813,-6.38632575 64.6152966,28.1877479 C64.6152966,28.1877479 66.4292245,29.6333253 65.3086905,31.6362069" id="Path-485" stroke-width="1.9"></path>
                <path d="M32.5733289,26.4058587 C48.6702307,12.3866285 76.5678299,19.6760316 78.3179209,12.1531784" id="Path-486" stroke-width="1.9"></path>
                <path d="M74.4110521,51.1044145 C74.4110521,51.1044145 76.7402456,53.1346795 75.5909344,55.1826236 C74.4416232,57.2305677 70.6112501,58.0463515 70.6112501,58.0463515 C55.5568137,62.9500786 67.8026244,65.7626448 69.0650239,75.7232433 C69.6832318,80.6010338 59.0988495,81.7164471 59.0798142,85.5666485 C59.0607789,89.41685 68.7028703,92.958057 67.330861,97.9321209 C65.9588518,102.906185 56.0221958,99.8783898 53.377255,103.841981 C50.7323141,107.805571 51.6596754,110.094204 51.4051859,111.371963" id="Path-487" stroke-width="2.3"></path>
            </g>
        </g>
    </g>
</svg>