<?xml version="1.0" encoding="UTF-8"?>
<svg width="152px" height="152px" viewBox="0 0 152 152" version="1.1" xmlns="http://www.w3.org/2000/svg" xmlns:xlink="http://www.w3.org/1999/xlink">
    <!-- Generator: Sketch 44.1 (41455) - http://www.bohemiancoding.com/sketch -->
    <title>bayleaf</title>
    <desc>Created with Sketch.</desc>
    <defs></defs>
    <g id="Page-1" stroke="none" stroke-width="1" fill="none" fill-rule="evenodd">
        <g id="bayleaf" stroke="#FF9677" stroke-width="2.3">
            <g id="Group" transform="translate(27.000000, 2.000000)">
                <path d="M15.2886598,135.49133 C20.3679713,119.789324 24.6190164,103.789708 30.5265943,88.3853116 C39.5048539,64.9739112 73.471889,41.1417859 99.2773844,45.1127068 C100.512845,45.3028182 99.4513317,47.6642301 99.1716004,48.8927724 C96.5891408,60.2345878 94.7708207,71.8523941 90.7088797,82.7444276 C79.1257743,113.80435 48.3511583,125.947319 19.7542561,134.472643 L15.2886598,135.49133 Z" id="Path-2"></path>
                <path d="M8.1443299,146.312246 C24.9195156,118.878955 73.2444222,73.7843435 99.1765064,46.1176471" id="Path-4" stroke-linecap="round"></path>
                <path d="M6.71546392,138.352941 C14.6804255,109.950151 25.4743829,36.4953866 51.6560368,1.44117647" id="Path-5" stroke-linecap="round"></path>
                <path d="M9.66840244,130.004531 C-6.51728692,74.5671664 -4.73498252,27.86655 52.4511632,0.298354227" id="Path-6"></path>
                <path d="M8.9032847,129.513657 C12.1494265,127.612192 15.4947085,127.224256 18.7408503,125.322792" id="Path-7"></path>
                <path d="M60.8860021,54.7647059 C62.3422531,31.5574782 62.7594018,19.6545147 51.0103093,0" id="Path-8"></path>
            </g>
        </g>
    </g>
</svg>