<?xml version="1.0" encoding="UTF-8"?>
<svg width="152px" height="152px" viewBox="0 0 152 152" version="1.1" xmlns="http://www.w3.org/2000/svg" xmlns:xlink="http://www.w3.org/1999/xlink">
    <!-- Generator: Sketch 44.1 (41455) - http://www.bohemiancoding.com/sketch -->
    <title>rice</title>
    <desc>Created with Sketch.</desc>
    <defs></defs>
    <g id="Page-1" stroke="none" stroke-width="1" fill="none" fill-rule="evenodd">
        <g id="rice" stroke="#FF9677">
            <path d="M25.16142,15.8826447 C25.16142,15.8826447 21.4190999,13.0364813 20.5449034,10.7297368 C19.6707068,8.42299228 20.444659,3.43651586 20.444659,3.43651586 C20.444659,3.43651586 24.8881709,2.84736041 28.3336954,4.05867306 C31.77922,5.26998572 34.7145318,8.71956958 34.7145318,8.71956958 C34.7145318,8.71956958 52.7525281,2 74.8156968,2 C96.8788654,2 116.258923,9.88556979 116.258923,9.88556979 C116.258923,9.88556979 117.419805,6.31465138 121.324674,4.05867306 C125.229543,1.80269475 129.753221,2.84736041 129.753221,2.84736041 C129.753221,2.84736041 131.45795,7.23396412 130.118444,12.438878 C128.778937,17.6437919 124.127226,18.2269559 124.127226,18.2269559 C124.127226,18.2269559 130.10755,56.8981004 129.753221,76.1013672 C129.398892,95.304634 124.127226,134.546574 124.127226,134.546574 C124.127226,134.546574 126.72794,135.440455 128.193278,138.992719 C129.658616,142.544983 128.193278,148.541108 128.193278,148.541108 C128.193278,148.541108 121.10491,149.460254 118.931421,148.541108 C116.757932,147.621963 116.652866,143.660791 116.652866,143.660791 C116.652866,143.660791 109.81029,149.355374 74.4625644,149.355374 C39.1148384,149.355374 36.6103813,145.01321 36.6103813,145.01321 C36.6103813,145.01321 34.9163606,148.471467 31.625028,149.355374 C28.3336954,150.239281 20.5449034,149.355374 20.5449034,149.355374 C20.5449034,149.355374 19.7669792,144.45135 20.444659,140.552398 C21.1223387,136.653446 25.16142,134.546574 25.16142,134.546574 C25.16142,134.546574 18.8483217,102.920916 19.0027891,85.1735294 C19.1572564,67.4261429 25.16142,15.8826447 25.16142,15.8826447 Z" id="Path-35" stroke-width="2.2" stroke-linejoin="round"></path>
            <circle id="Oval-2" stroke-width="2" cx="74.3605135" cy="76.3605135" r="39.3605135"></circle>
            <path d="M47,70.3178919 C47,70.3178919 52.3252313,68.8734482 56.5777836,62.7173237 C60.8303358,56.5611991 60.8501134,52 60.8501134,52 C60.8501134,52 57.6504627,52.2888204 52.3252313,59.1389727 C47,65.989125 47,70.3178919 47,70.3178919 Z" id="Path-37" stroke-width="1.5" stroke-linecap="round" stroke-linejoin="round"></path>
            <path d="M66.5527792,85 C66.5527792,85 63.4018858,89.5295008 64.1013224,96.9788537 C64.800759,104.428207 67.7174907,107.935001 67.7174907,107.935001 C67.7174907,107.935001 69.9829152,105.657055 69.6590861,96.9865417 C69.3352569,88.3160279 66.5527792,85 66.5527792,85 Z" id="Path-37" stroke-width="1.5" stroke-linecap="round" stroke-linejoin="round"></path>
            <path d="M90,82.3178919 C90,82.3178919 95.3252313,80.8734482 99.5777836,74.7173237 C103.830336,68.5611991 103.850113,64 103.850113,64 C103.850113,64 100.650463,64.2888204 95.3252313,71.1389727 C90,77.989125 90,82.3178919 90,82.3178919 Z" id="Path-37" stroke-width="1.5" stroke-linecap="round" stroke-linejoin="round"></path>
            <path d="M81.8501134,82.3178919 C81.8501134,82.3178919 76.5248821,80.8734482 72.2723298,74.7173237 C68.0197776,68.5611991 68,64 68,64 C68,64 71.1996507,64.2888204 76.5248821,71.1389727 C81.8501134,77.989125 81.8501134,82.3178919 81.8501134,82.3178919 Z" id="Path-37" stroke-width="1.5" stroke-linecap="round" stroke-linejoin="round"></path>
            <path d="M63.4446489,76 C63.4446489,76 61.0974329,80.9935041 54.2963857,84.1124507 C47.4953386,87.2313973 43,86.4588305 43,86.4588305 C43,86.4588305 43.8400461,83.3579428 51.5108459,79.3031302 C59.1816457,75.2483175 63.4446489,76 63.4446489,76 Z" id="Path-37" stroke-width="1.5" stroke-linecap="round" stroke-linejoin="round"></path>
            <path d="M92.4446489,48 C92.4446489,48 90.0974329,52.9935041 83.2963857,56.1124507 C76.4953386,59.2313973 72,58.4588305 72,58.4588305 C72,58.4588305 72.8400461,55.3579428 80.5108459,51.3031302 C88.1816457,47.2483175 92.4446489,48 92.4446489,48 Z" id="Path-37" stroke-width="1.5" stroke-linecap="round" stroke-linejoin="round"></path>
            <path d="M77,90 C77,90 79.3472161,94.9935041 86.1482632,98.1124507 C92.9493103,101.231397 97.4446489,100.458831 97.4446489,100.458831 C97.4446489,100.458831 96.6046028,97.3579428 88.933803,93.3031302 C81.2630032,89.2483175 77,90 77,90 Z" id="Path-37" stroke-width="1.5" stroke-linecap="round" stroke-linejoin="round"></path>
        </g>
    </g>
</svg>