<?xml version="1.0" encoding="UTF-8"?>
<svg width="152px" height="152px" viewBox="0 0 152 152" version="1.1" xmlns="http://www.w3.org/2000/svg" xmlns:xlink="http://www.w3.org/1999/xlink">
    <!-- Generator: Sketch 44.1 (41455) - http://www.bohemiancoding.com/sketch -->
    <title>rosemary</title>
    <desc>Created with Sketch.</desc>
    <defs></defs>
    <g id="Page-1" stroke="none" stroke-width="1" fill="none" fill-rule="evenodd" stroke-linecap="round" stroke-linejoin="round">
        <g id="rosemary" stroke="#979797" stroke-width="2">
            <path d="M-2.6997463,105.340546 C-2.6997463,105.340546 -2.11491361,104.618146 10.3583075,97.9695038 C10.6438109,97.817321 31.4810088,110.565119 50.968973,119.256638 C70.4569372,127.948157 82.9525024,125.467726 83.0680452,124.280917 C83.2021828,122.90311 68.5170428,122.030294 53.8921233,116.997541 C39.2672038,111.964787 10.0437346,98.1298654 10.3583075,97.9695038 C16.277516,94.9520365 22.7536168,91.8228808 29.409849,88.8992371 C29.8640672,88.6997289 52.6398447,101.425352 67.3022608,106.163638 C81.9646769,110.901924 103.287508,113.490046 103.560118,112.082196 C103.832727,110.674346 85.5018436,108.058511 74.5732161,103.282912 C63.6445886,98.507314 29.0482736,89.0475408 29.409849,88.8992371 C29.6651822,88.7945096 35.403754,68.4007106 42.3188015,53.0278213 C49.233849,37.6549319 62.894531,28.9345703 59.7997451,34.6914796 C59.7997451,34.6914796 53.3121045,40.6615146 46.3618442,53.0278213 C39.411584,65.394128 29.3163926,88.9374647 29.409849,88.8992371 C32.6213684,87.585589 42.5913725,83.5103473 44.0848933,82.9643089 C44.785107,82.7083075 45.5473643,82.4420844 46.3618442,82.1677967 C46.4870289,82.125639 55.1613798,70.2369236 65.3835428,57.296604 C75.6057058,44.3562845 86.1648244,31.9427949 85.8784422,31.1041355 C85.5835402,30.2405263 77.1405162,33.3890987 67.3022608,46.3485018 C57.4640054,59.307905 46.1084857,82.2436341 46.3618442,82.1677967 C49.5796255,81.2046243 59.3876475,78.2286006 62.894531,77.2721932 C63.1535576,77.2015507 71.7345995,86.8940915 85.8784422,94.9623881 C100.022285,103.030685 116.777405,107.973956 118.699099,106.163638 C120.692969,104.285326 105.146608,100.411035 90.9406112,93.8087862 C76.7346149,87.2065375 62.6081203,77.3479133 62.894531,77.2721932 C66.8116562,76.2365989 75.4434691,73.9705506 78.4167269,73.2346275 C78.5432182,73.2033192 88.326966,57.8078012 97.6409297,46.0824998 C106.954893,34.3571985 115.403758,26.8205733 114.394036,26.4174642 C113.384022,26.0142385 101.747854,32.9230492 94.1269234,43.9879474 C86.5059931,55.0528457 78.1835254,73.2891073 78.4167269,73.2346275 C81.8558633,72.4311877 85.0455713,71.7239801 87.8025535,71.137869 C87.9190121,71.1131109 100.226882,81.06969 110.177948,87.7371016 C120.129013,94.4045132 136.291299,100.768882 136.291299,101.466331 C136.291299,102.124113 116.295136,96.6292498 103.560118,87.7371016 C90.8250996,78.8449534 87.7523513,71.1479886 87.8025535,71.137869 C91.1670251,70.4596689 94.1255443,69.9089836 96.5169128,69.4886231 C96.6796798,69.4600116 108.811896,53.2403818 118.699099,43.9879474 C128.586301,34.7355131 139.014076,29.7490987 138.154158,28.9345703 C137.320521,28.144935 122.056027,33.3332556 111.527616,43.9879474 C100.999206,54.6426393 96.399685,69.5072993 96.5169128,69.4886231 C100.222725,68.8982325 99.2365132,69.4886231 99.2365132,69.4886231 C99.2365132,69.4886231 106.090747,71.6411184 115.959636,74.3459161 C125.828525,77.0507138 148.938058,81.5471097 148.938058,82.9643089 C148.938058,84.3357177 132.335719,83.4583912 119.688551,79.427055 C107.041384,75.3957187 99.3898839,70.6228707 99.2365132,69.4886231 C99.0690229,68.2499552 114.203109,64.2053265 127.11264,58.7538813 C140.022172,53.3024361 151.619156,46.0824998 151.619156,46.0824998 C151.619156,46.0824998 145.759779,54.2232563 132.499547,60.2443854 C119.239314,66.2655144 98.3126982,70.2857104 99.2365132,69.4886231" id="Path-777" transform="translate(74.459705, 75.969549) rotate(-10.000000) translate(-74.459705, -75.969549) "></path>
        </g>
    </g>
</svg>