<?xml version="1.0" encoding="UTF-8"?>
<svg width="152px" height="152px" viewBox="0 0 152 152" version="1.1" xmlns="http://www.w3.org/2000/svg" xmlns:xlink="http://www.w3.org/1999/xlink">
    <!-- Generator: Sketch 44.1 (41455) - http://www.bohemiancoding.com/sketch -->
    <title>ryebread</title>
    <desc>Created with Sketch.</desc>
    <defs></defs>
    <g id="Page-1" stroke="none" stroke-width="1" fill="none" fill-rule="evenodd">
        <g id="ryebread" stroke="#AD5D11" stroke-width="2">
            <g id="Group" transform="translate(5.000000, 26.000000)">
                <path d="M11.7910621,32.8929834 C11.7910621,32.8929834 5.91725511,32.2727237 3.06074237,35.5281438 C0.204229622,38.7835639 0.204229622,45.3168631 0.204229622,45.3168631 L0.586019895,88.1730527 C0.586019895,88.1730527 0.60085429,95.9546572 3.06074237,98.3980737 C5.52063044,100.84149 13.4994363,101 13.4994363,101 L115.852773,101 C115.852773,101 124.015035,100.830169 126.452963,98.3980737 C128.890892,95.9659779 129.233015,87.6517711 129.233015,87.6517711 L128.691727,43.8455955 C128.691727,43.8455955 128.876536,37.592192 126.452963,35.5281438 C124.029391,33.4640956 116.416668,33.3914768 116.416668,33.3914768 L11.7910621,32.8929834 Z" id="Path-641"></path>
                <ellipse id="Oval" cx="18.0727273" cy="51.1474359" rx="3.87272727" ry="1.94230769"></ellipse>
                <ellipse id="Oval-2" cx="65.1909091" cy="83.5192308" rx="5.80909091" ry="4.53205128"></ellipse>
                <ellipse id="Oval-3" cx="96.1727273" cy="55.6794872" rx="4.51818182" ry="2.58974359"></ellipse>
                <path d="M18.9199113,16.6503587 C18.9199113,16.6503587 13.0461044,16.1017476 10.1895916,18.9811215 C7.33307888,21.8604954 7.33307888,27.6391079 7.33307888,27.6391079 L8.15500619,50.0412136 L114.402184,22.3994784 C114.402184,22.3994784 119.257363,21.0945437 123.521912,21.6849383 C127.78646,22.2753329 137.678617,64.8550552 137.678617,64.8550552 L135.820576,26.3377921 C135.820576,26.3377921 136.005385,20.8067434 133.581813,18.9811215 C131.15824,17.1554996 123.545517,17.0912692 123.545517,17.0912692 L18.9199113,16.6503587 Z" id="Path-641" transform="translate(72.505848, 40.731824) rotate(15.000000) translate(-72.505848, -40.731824) "></path>
                <ellipse id="Oval" transform="translate(28.315549, 22.827801) rotate(15.000000) translate(-28.315549, -22.827801) " cx="28.3155494" cy="22.8278013" rx="3.87272727" ry="1.94230769"></ellipse>
                <ellipse id="Oval-3" transform="translate(76.766783, 30.647911) rotate(15.000000) translate(-76.766783, -30.647911) " cx="76.7667831" cy="30.647911" rx="4.51818182" ry="2.58974359"></ellipse>
            </g>
        </g>
    </g>
</svg>