<?xml version="1.0" encoding="UTF-8"?>
<svg width="152px" height="152px" viewBox="0 0 152 152" version="1.1" xmlns="http://www.w3.org/2000/svg" xmlns:xlink="http://www.w3.org/1999/xlink">
    <!-- Generator: Sketch 44.1 (41455) - http://www.bohemiancoding.com/sketch -->
    <title>sage</title>
    <desc>Created with Sketch.</desc>
    <defs></defs>
    <g id="Page-1" stroke="none" stroke-width="1" fill="none" fill-rule="evenodd">
        <g id="sage" stroke="#11606F" stroke-width="2.3">
            <g id="Group" transform="translate(70.500000, 76.500000) scale(-1, 1) translate(-70.500000, -76.500000) translate(19.000000, 3.000000)">
                <path d="M35.9628556,80.6628656 C49.708833,62.0039974 85.7848396,37.5992025 99.2773844,45.1127068 C106.985218,49.4049174 99.2773844,71.8806648 92.3712748,83.0320711 C75.1219095,110.884899 25.4484255,145.049339 17.5395449,132.815169 C12.2208419,129.402591 22.2168782,99.3217339 35.9628556,80.6628656 Z" id="Path-2"></path>
                <path d="M8.1443299,146.312246 C24.9195156,118.878955 67.3900565,69.8254282 99.1765064,46.1176471" id="Path-4" stroke-linecap="round"></path>
                <path d="M6.71546392,138.352941 C14.6804255,109.950151 25.4743829,36.4953866 51.6560368,1.44117647" id="Path-5" stroke-linecap="round"></path>
                <path d="M15.7343743,126.407498 L9.19893614,128.263543 C-15.205434,86.7161277 17.318559,-2.40472605 52.0950118,0.851960591 C56.9157262,2.03770737 62.6274653,11.5030464 62.7803631,24.0443368 C62.9332609,36.5856272 56.7482175,59.9917016 56.7482175,59.9917016" id="Path-6"></path>
            </g>
        </g>
    </g>
</svg>