<?xml version="1.0" encoding="UTF-8"?>
<svg width="152px" height="152px" viewBox="0 0 152 152" version="1.1" xmlns="http://www.w3.org/2000/svg" xmlns:xlink="http://www.w3.org/1999/xlink">
    <!-- Generator: Sketch 44.1 (41455) - http://www.bohemiancoding.com/sketch -->
    <title>savoycabbage</title>
    <desc>Created with Sketch.</desc>
    <defs></defs>
    <g id="Page-1" stroke="none" stroke-width="1" fill="none" fill-rule="evenodd">
        <g id="savoycabbage" stroke="#095B6B">
            <g id="Group" transform="translate(5.000000, 14.000000)">
                <path d="M40.262184,112.836701 C40.262184,112.836701 46.2886965,122.988275 56.7063261,124.556139 C61.8775615,125.334416 72.2262842,125.704777 91.2638081,120.218079 C110.301332,114.73138 132.979826,104.339642 132.979826,104.339642 C132.979826,104.339642 143.436255,98.5046062 141.423656,88.9126562 C139.411057,79.3207062 128.368828,84.2546646 128.368828,84.2546646 C128.368828,84.2546646 134.284176,69.7876176 114.74627,65.5104003 C95.2083652,61.2331831 82.768138,71.8491344 82.768138,71.8491344 C82.768138,71.8491344 81.6067461,66.6695428 71.5563575,66.6695428 C61.5059688,66.6695428 57.6634636,73.8829827 57.6634636,73.8829827 C57.6634636,73.8829827 43.4798304,71.1697148 32.9713622,75.4437418 C22.4628939,79.7177688 20.4918899,87.5151124 19.9788199,87.8562157 C18.9461591,88.5427573 11.9634651,87.5638638 10.0063725,89.5542858 C8.04927992,91.5447078 7.70812463,94.6014391 7.70812463,94.6014391 C7.70812463,94.6014391 6.74116932,97.4841684 13.7212668,100.373969 C20.7013643,103.263771 29.6379802,105.552756 31.6414619,106.548028 C36.648625,109.035443 40.262184,112.836701 40.262184,112.836701 Z" id="Path-571" stroke-width="2.2"></path>
                <path d="M14.7256458,88.0426962 C14.7256458,88.0426962 12.1191771,86.4868657 7.8333786,80.9902454 C0.629187874,71.4803323 6.0109745,59.7802059 6.0109745,59.7802059 C6.0109745,59.7802059 12.035203,43.7261723 14.6027877,37.0995425 C17.1703724,30.4729127 14.7256458,25.4143179 14.7256458,25.4143179 C14.7256458,25.4143179 11.4517696,19.3117934 14.7256458,15.5618627 C17.9995219,11.8119319 26.2436158,14.2392603 26.2436158,14.2392603 C26.2436158,14.2392603 33.035551,15.639902 35.6264386,20.8475417 C38.2173262,26.0551814 42.7525232,50.2923237 42.7525232,50.2923237 C42.7525232,50.2923237 51.3639734,58.4973801 53.480709,60.8327386 C55.5974447,63.1680972 60.3918523,69.9722361 60.3918523,69.9722361 C60.3918523,69.9722361 39.6814516,68.2181376 29.1993301,58.9806927 C18.7172086,49.7432478 21.1520576,35.4876416 21.1520576,35.4876416 C21.1520576,35.4876416 18.3951046,32.4220243 17.4096604,30.516707 C16.4242162,28.6113896 14.7256458,25.4143179 14.7256458,25.4143179" id="Path-572" stroke-width="2.2" stroke-linecap="round" stroke-linejoin="round"></path>
                <path d="M123.744349,67.9209041 C123.744349,67.9209041 125.653295,48.7314235 111.225861,31.190948 C96.7984283,13.6504726 73.119403,15.6838891 73.119403,15.6838891 C73.119403,15.6838891 73.9365935,22.9319096 77.0019875,24.315718 C80.0673816,25.6995264 82.9028634,25.1417505 84.2214885,27.6780068 C85.5401137,30.2142631 82.9506653,30.8639158 86.3654106,34.3346328 C89.7801559,37.8053497 92.8037718,36.3271862 93.7767776,37.3186718 C95.0787742,38.6453965 93.1556607,40.5582302 94.5856189,42.0187052 C96.015577,43.4791803 100.046743,43.7187783 101.151866,44.8488677 C102.355817,46.0800166 101.287124,48.8579313 102.506614,50.1062588 C103.726104,51.3545862 106.750611,50.5785325 107.718841,51.5703192 C108.898837,52.7790257 107.977411,55.3118 109.114543,56.4773826 C110.251674,57.6429651 113.169438,57.1563923 114.108774,58.1197044 C115.98403,60.0428242 115.604383,65.6429287 117.472364,65.6429287 C118.791239,65.6429287 123.744349,67.9209041 123.744349,67.9209041 Z" id="Path-573" stroke-width="2.2" stroke-linejoin="round"></path>
                <path d="M38.2295921,29.0948838 C38.2295921,29.0948838 45.0718992,23.5264154 55.1562791,20.7269238 C65.2406591,17.9274322 74.3631863,17.957954 74.3631863,17.957954" id="Path-574" stroke-width="2.2"></path>
                <path d="M129.579346,77.2932327 C129.579346,77.2932327 138.617907,71.4415724 141.075115,64.7440684 C143.532322,58.0465644 133.396437,53.8268962 133.396437,53.8268962 C133.396437,53.8268962 125.457523,23.1403292 121.690403,18.8499946 C112.375715,8.2415908 107.563668,14.8793233 107.563668,14.8793233 C107.563668,14.8793233 107.105105,3.05267104 90.2226263,1.14152848 C73.3401476,-0.769614083 64.7791288,6.7168046 64.7791288,6.7168046 C64.7791288,6.7168046 32.1941253,4.45800483 19.5062235,7.16847395 C11.9516019,8.78233957 8.73513887,9.69926862 2.56717545,18.2099274 C-3.60078797,26.7205862 3.63394731,30.8156148 3.63394731,30.8156148 C3.63394731,30.8156148 4.54726634,41.5259367 7.10954115,42.9942953 C9.67181596,44.4626539 11.6812396,44.7197654 11.6812396,44.7197654" id="Path-575" stroke-width="2.2" stroke-linejoin="round"></path>
                <path d="M55.8245098,123.921138 C55.8245098,123.921138 74.2715592,117.519878 82.4343666,110.068957 C90.5971739,102.618037 106.12783,78.0048229 106.12783,78.0048229" id="Path-576" stroke-width="1.5" stroke-linecap="round"></path>
                <path d="M65.8557971,119.005167 C57.5139945,102.461326 58.2617412,101.83307 59.3347519,81.1824041" id="Path-577" stroke-width="1.5" stroke-linecap="round"></path>
                <path d="M59.0772255,102.224902 C50.3675991,100.805095 51.4899653,96.3635798 49.5995161,88.3242936" id="Path-578" stroke-width="1.5" stroke-linecap="round"></path>
                <path d="M19.1253812,80.3843158 C13.4281915,73.6222435 17.1743867,72.1614109 21.2456064,64.3662608" id="Path-578" stroke-width="1.5" stroke-linecap="round" transform="translate(18.731704, 72.375288) rotate(260.000000) translate(-18.731704, -72.375288) "></path>
                <path d="M75.319746,115.393309 C93.9493347,118.007729 104.74083,106.013726 117.953478,100.945792" id="Path-579" stroke-width="1.5" stroke-linecap="round"></path>
                <path d="M93.5374857,97.878727 C103.949088,98.7370453 110.485811,91.2430686 120.84843,88.2059574" id="Path-580" stroke-width="1.5" stroke-linecap="round"></path>
                <path d="M86.4853506,104.164446 C78.0951683,93.0685426 84.2935437,85.627502 84.4886093,78.8820784" id="Path-582" stroke-width="1.5" stroke-linecap="round"></path>
                <path d="M8.46802241,81.4717369 C8.46802241,74.5487104 11.640961,61.8264945 25.2695212,53.2673768" id="Path-581" stroke-width="1.5"></path>
                <path d="M15.1005903,62.4334229 C14.6238246,55.2477182 16.7429035,53.0098615 16.7429035,53.0098615" id="Path-583" stroke-width="1.5" stroke-linecap="round"></path>
            </g>
        </g>
    </g>
</svg>