<?xml version="1.0" encoding="UTF-8"?>
<svg width="152px" height="152px" viewBox="0 0 152 152" version="1.1" xmlns="http://www.w3.org/2000/svg" xmlns:xlink="http://www.w3.org/1999/xlink">
    <!-- Generator: Sketch 44.1 (41455) - http://www.bohemiancoding.com/sketch -->
    <title>wakame</title>
    <desc>Created with Sketch.</desc>
    <defs></defs>
    <g id="Page-1" stroke="none" stroke-width="1" fill="none" fill-rule="evenodd" stroke-linecap="round" stroke-linejoin="round">
        <g id="wakame" stroke="#979797" stroke-width="2">
            <path d="M74.3622543,149.88941 C74.3622543,149.88941 70.9516433,144.799225 70.5276576,141.257405 C70.103672,137.715585 72.9972796,121.104973 74.3622543,118.747382 C74.7300545,118.112116 84.7669845,105.927914 87.8781442,98.2755386 C90.989304,90.6231628 96.1749462,66.9770912 108.599798,51.2531387 C118.945839,38.1599711 128.377264,37.5862394 135.370148,35.1529726 C142.363033,32.7197058 145.452224,28.2508941 145.452224,28.2508941 C145.452224,28.2508941 138.248459,25.5364066 129.858834,33.0847771 C126.036488,36.5238432 124.239098,47.3321928 118.761648,52.2639983 C101.261799,68.0205726 98.1704144,68.3709053 93.6941815,73.0761138 C90.0271954,76.9306795 86.8744988,80.6020391 84.5715489,83.8756306 C70.3450583,104.098268 67.7134344,136.07205 67.7134344,136.07205 C67.7134344,136.07205 69.9349495,117.826162 67.7134344,105.966757 C65.4919193,94.1073513 57.5619436,63.4617665 54.9506516,43.6929933 C50.7745937,12.0781681 53.8536435,1 53.8536435,1 C53.8536435,1 47.8587778,22.0252917 49.2563362,42.0101639 C49.788894,49.6256602 58.4466415,73.2698685 60.8637929,88.6462295 C63.2809444,104.02259 62.9661705,131.307749 62.9661705,131.307749 C62.9661705,131.307749 50.8928467,116.65336 43.3548139,90.1489633 C35.8167811,63.6445668 40.6351986,54.7157427 37.9664675,43.6929933 C29.6606117,9.38703995 39.472106,6.26698181 39.472106,6.26698181 C39.472106,6.26698181 29.6680031,11.2006402 32.4905236,24.8826778 C35.3130441,38.5647154 41.6018155,45.6818489 42.1851603,53.6931446 C43.8344362,76.3432791 36.8805893,77.8453459 39.472106,88.6462295 C46.231148,116.81646 65.0795971,141.257405 65.0795971,141.257405 C65.0795971,141.257405 55.9240137,129.127408 47.8417137,117.116838 C39.7594136,105.106268 26.0742685,87.0471783 21.2156331,72.7035443 C11.3894395,43.6947151 15.6181433,9.29278281 15.6181433,9.29278281 C15.6181433,9.29278281 25.4885483,9.07202037 18.1629127,38.4721553 C15.9424755,54.9426564 7.61095748,62.8692023 12.5274692,76.6659941 C19.6918131,96.7706877 37.2448476,110.803395 49.2563362,123.872363 C56.1453482,131.367876 62.5169844,137.576418 66.6026481,143.069012 C70.6883119,148.561607 71.3643974,151 71.3643974,151 L74.3622543,149.88941 Z" id="Path-684"></path>
        </g>
    </g>
</svg>