<?xml version="1.0" encoding="UTF-8"?>
<svg width="152px" height="152px" viewBox="0 0 152 152" version="1.1" xmlns="http://www.w3.org/2000/svg" xmlns:xlink="http://www.w3.org/1999/xlink">
    <!-- Generator: Sketch 44.1 (41455) - http://www.bohemiancoding.com/sketch -->
    <title>shallot</title>
    <desc>Created with Sketch.</desc>
    <defs></defs>
    <g id="Page-1" stroke="none" stroke-width="1" fill="none" fill-rule="evenodd">
        <g id="shallot" stroke="#979797">
            <g id="Group" transform="translate(5.000000, 27.000000)">
                <path d="M132.443769,97.0907432 C132.443769,97.0907432 105.678295,102.856431 90.4518187,92.0994044 C75.2253429,81.3423774 68.2792793,55.6268251 68.2792793,55.6268251 C68.2792793,55.6268251 66.6646412,50.1469019 64.767637,42.7817947 C57.6366097,20.8295009 47.7116909,18.0096843 51.3296442,13.9259325 C54.9475975,9.84218066 63.1922825,20.7512774 79.6378921,24.9024834 C90.1000625,28.4786177 98.9137132,29.7170921 98.9137132,29.7170921 C98.9137132,29.7170921 125.673469,32.4665365 136.235772,47.8839654 C146.798075,63.3013942 140.167726,89.4509407 140.167726,89.4509407 C140.167726,89.4509407 140.931974,90.7461679 137.679984,94.5027289 C134.427994,98.25929 132.443769,97.0907432 132.443769,97.0907432 Z" id="Path-665" stroke-width="2" stroke-linecap="round" stroke-linejoin="round"></path>
                <path d="M65.1108567,29.8517059 C65.1108567,29.8517059 69.1543984,34.097565 73.2970419,41.9347896 C77.4396854,49.7720143 83.3369722,72.1246055 90.3794412,78.8407414 C107.549079,95.2147748 129.730859,91.0299307 129.730859,91.0299307 C129.730859,91.0299307 105.912141,85.5187331 96.9317228,78.154906 C87.9513044,70.7910789 74.5495159,44.2924177 74.5495159,44.2924177" id="Path-666" stroke-width="1.6" stroke-linecap="round" stroke-linejoin="round"></path>
                <path d="M68.2792793,55.6544084 C68.2792793,55.6544084 65.9854078,73.1879713 53.1202004,86.8448118 C40.254993,100.501652 17.9874285,97.5653621 17.9874285,97.5653621 C17.9874285,97.5653621 13.9518345,98.1753652 11.3665321,96.5039399 C8.78122968,94.8325146 7.78578316,92.1558847 7.78578316,92.1558847 C7.78578316,92.1558847 -6.47186026,74.4644567 3.70794142,51.4285714 C10.2190518,36.694572 27.7031502,28.8069201 35.8323938,25.2564119 C43.9616374,21.7059037 50.5139353,15.8246548 50.5139353,15.8246548" id="Path-667" stroke-width="2"></path>
                <path d="M53.3445221,12.9105338 C58.2290282,10.2553675 62.5565001,0.662098912 65.8626311,0.662098912 C69.7347625,0.662098912 64.2705955,17.3404391 64.2705955,17.3404391" id="Path-668" stroke-width="2" stroke-linejoin="round"></path>
                <path d="M8.68019191,92.839726 C8.68019191,92.839726 6.64024626,74.2811341 15.3923439,54.6308088 C20.8550788,42.3658042 35.1990377,34.2295219 43.0068558,28.6163617 C50.8146739,23.0032014 52.3685106,19.5515574 52.3685106,19.5515574 L58.979863,29.6903163 C58.979863,29.6903163 59.822259,56.80856 51.0467255,70.3234229 C42.271192,83.8382858 16.7210077,96.9569998 16.7210077,96.9569998" id="Path-669" stroke-width="1.6" stroke-linecap="round" stroke-linejoin="round"></path>
                <path d="M139.702464,89.3294761 C139.702464,89.3294761 136.529575,72.4969169 118.063296,51.4285714 C109.511494,41.6717428 91.5281257,37.1379146 81.8508113,33.2532169 C72.1734968,29.3685192 68.2792793,25.7043018 68.2792793,25.7043018" id="Path-670" stroke-width="1.6" stroke-linecap="round"></path>
            </g>
        </g>
    </g>
</svg>