<?xml version="1.0" encoding="UTF-8"?>
<svg width="152px" height="152px" viewBox="0 0 152 152" version="1.1" xmlns="http://www.w3.org/2000/svg" xmlns:xlink="http://www.w3.org/1999/xlink">
    <!-- Generator: Sketch 44.1 (41455) - http://www.bohemiancoding.com/sketch -->
    <title>shiitake</title>
    <desc>Created with Sketch.</desc>
    <defs></defs>
    <g id="Page-1" stroke="none" stroke-width="1" fill="none" fill-rule="evenodd" stroke-linecap="round" stroke-linejoin="round">
        <g id="shiitake" stroke="#AD5D11">
            <g id="Group" transform="translate(5.000000, 20.000000)">
                <path d="M31.4225218,103.203352 C31.4225218,103.203352 51.259675,93.6607483 58.4614252,89.1408709 C65.6631755,84.6209935 66.4692598,81.8314644 67.854679,80.338232 C69.2400982,78.8449997 75.162195,76.304928 77.8247523,73.4215419 C79.0522828,72.0922018 85.1591376,59.1370949 91.3911202,51.4991998 C97.6231028,43.8613047 106.130975,38.8873537 106.130975,38.8873537 C106.130975,38.8873537 119.697887,22.9144695 106.130975,7.71060763 C92.5640626,-7.49325424 76.7103744,5.61850745 76.7103744,5.61850745 C76.7103744,5.61850745 71.1304576,9.41703543 69.1259426,9.98384161 C67.1214276,10.5506478 61.2723322,9.98384161 61.2723322,9.98384161 C61.2723322,9.98384161 50.2522148,9.98526426 47.3972173,11.5026274 C44.5422197,13.0199905 22.4545141,27.8756448 18.2015646,40.1956153 C15.9960698,44.4114495 13.8902502,53.0466923 13.8902502,53.0466923 L5.6947046,75.9185999 C5.6947046,75.9185999 -5.4563348,94.6485354 5.6947046,106.821489 C16.845744,118.994443 31.4225218,103.203352 31.4225218,103.203352 Z" id="Path-567" stroke-width="2.3"></path>
                <path d="M68.7559418,79.7713794 C68.7559418,79.7713794 74.6676526,80.5866171 81.1536295,83.9531009 C87.6396065,87.3195847 94.0573806,92.7050862 99.9510046,95.4925787 C112.302937,101.334641 117.987123,102.877627 117.987123,102.877627 C117.987123,102.877627 134.1586,108.018267 139.587369,93.9922363 C145.016139,79.9662055 130.396896,70.7864434 130.396896,70.7864434 C130.396896,70.7864434 126.804428,67.4490587 119.496803,66.613701 C112.189178,65.7783433 104.35364,67.9310611 99.9510046,66.613701 C90.0849431,63.6615698 87.4274143,57.929079 87.4274143,57.929079" id="Path-568" stroke-width="2.3"></path>
                <path d="M16.7313433,67.3064378 C25.0924957,73.3901963 45.3240611,52.9932658 55.6022714,40.0377358" id="Path-570" stroke-width="1.9"></path>
            </g>
        </g>
    </g>
</svg>