<?xml version="1.0" encoding="UTF-8"?>
<svg width="152px" height="152px" viewBox="0 0 152 152" version="1.1" xmlns="http://www.w3.org/2000/svg" xmlns:xlink="http://www.w3.org/1999/xlink">
    <!-- Generator: Sketch 44.1 (41455) - http://www.bohemiancoding.com/sketch -->
    <title>cherry</title>
    <desc>Created with Sketch.</desc>
    <defs></defs>
    <g id="Page-1" stroke="none" stroke-width="1" fill="none" fill-rule="evenodd" stroke-linecap="round" stroke-linejoin="round">
        <g id="cherry" stroke="#979797" stroke-width="2">
            <g id="Group" transform="translate(19.000000, 5.000000)">
                <path d="M70.2619818,93.2323585 C70.2619818,93.2323585 68.0656125,81.1841717 63.9506384,72.569986 C61.5809735,67.6093875 48.547587,51.4210792 40.0073748,35.5441171 C31.4671626,19.6671549 32.512996,14.2095575 32.512996,14.2095575 C32.512996,14.2095575 21.0327551,19.0286334 17.4947021,41.2213665 C13.956649,63.4140996 26.1063249,93.3158797 26.1063249,93.3158797 L31.3311004,90.6175017 C31.3311004,90.6175017 27.1844349,93.4519567 23.4397862,94.236571 C19.6951375,95.0211852 14.7060271,94.236571 14.7060271,94.236571 L20.5621309,94.236571 L19.3594152,90.3405927 C-10.5797259,85.6071025 -6.5347553,157.411692 37.6277394,139.798669 C81.7902342,122.185646 46.9826329,77.3111868 24.5881323,89.0544976" id="Path-745"></path>
                <path d="M19.5147592,90.5929938 C19.5147592,90.5929938 12.0866273,56.8853565 15.8212748,38.6971112 C19.5559224,20.5088658 29.505148,10.4288414 29.505148,10.4288414 C29.505148,10.4288414 30.0797613,6.47805984 30.6560698,4.85475439 C31.2323783,3.23144894 33.0455644,0.456444501 33.0455644,0.456444501 C33.0455644,0.456444501 35.4125413,0.328451747 36.4539086,0.456444501 C37.495276,0.584437256 38.9282027,1.69139795 38.9282027,1.69139795 C38.9282027,1.69139795 38.1410801,3.84463744 37.9521553,4.85475439 C37.7632306,5.86487135 37.2791511,8.52210688 37.2791511,8.52210688 C37.2791511,8.52210688 53.1736209,2.59160794 71.6196885,9.36356562 C82.2688685,13.2731141 94.1051101,22.6969544 100.544934,33.8408299 C106.984758,44.9847053 114.5489,49.0112873 114.5489,49.0112873 C114.5489,49.0112873 86.5003768,56.4298694 68.1588951,47.5634903 C49.8174134,38.6971112 37.2791511,9.36356562 37.2791511,9.36356562 C37.2791511,9.36356562 50.2952984,14.4252134 56.4319181,17.5739617 C60.1003561,19.4562664 76.1437383,31.2886607 91.6796063,39.7250772 C107.215474,48.1614937 114.5489,49.0112873 114.5489,49.0112873" id="Path-746"></path>
                <path d="M55.8719539,103.102069 C55.8719539,103.102069 55.5536957,98.1128631 58.7340024,93.1512522 C61.9143091,88.1896412 68.2132149,85.1412461 68.2132149,85.1412461" id="Path-747"></path>
                <path d="M56.2120686,125.679823 C56.2120686,125.679823 58.5156714,136.658197 73.7563754,139.306971 C88.9970795,141.955745 108.120419,130.082884 109.435099,110.656951 C111.978485,73.0754505 72.4607492,83.2794357 72.4607492,83.2794357 L76.0659144,91.0436154 L81.9289607,87.2832683 C81.9289607,87.2832683 78.6648373,89.8145777 74.6031608,91.8655586 C70.5414844,93.9165395 64.8125095,94.6415555 64.8125095,94.6415555 C64.8125095,94.6415555 68.867312,93.8680347 71.1309299,93.196676 C73.3945479,92.5253172 76.0659144,91.0436154 76.0659144,91.0436154 C76.0659144,91.0436154 67.5578445,74.0221588 60.434988,62.1531461 C53.3121315,50.2841334 46.2692472,41.5861984 41.1574153,31.0548464 C31.2986901,10.7439853 37.0230856,9.18835421 37.0230856,9.18835421" id="Path-749"></path>
            </g>
        </g>
    </g>
</svg>