<?xml version="1.0" encoding="UTF-8"?>
<svg width="152px" height="152px" viewBox="0 0 152 152" version="1.1" xmlns="http://www.w3.org/2000/svg" xmlns:xlink="http://www.w3.org/1999/xlink">
    <!-- Generator: Sketch 44.1 (41455) - http://www.bohemiancoding.com/sketch -->
    <title>edamame</title>
    <desc>Created with Sketch.</desc>
    <defs></defs>
    <g id="Page-1" stroke="none" stroke-width="1" fill="none" fill-rule="evenodd">
        <g id="edamame" stroke="#91E195">
            <g id="Group" transform="translate(-8.000000, -7.000000)">
                <path d="M134.766927,84.6235155 C158.509883,81.0355817 155.618884,124.593464 148.38077,136.800616 C132.844668,163.00241 70.1280263,163.425511 101.88023,117.45307 C112.504745,102.953572 116.455639,87.3906391 134.766927,84.6235155 Z" id="Path-269" stroke-width="2.2"></path>
                <path d="M58.0337734,68.0860253 C81.7767287,64.4980915 78.88573,108.055974 71.6476165,120.263126 C56.1115145,146.46492 -6.60512763,146.88802 25.1470757,100.91558 C35.7715909,86.4160814 39.7224851,70.8531488 58.0337734,68.0860253 Z" id="Path-269" stroke-width="2.2" transform="translate(46.559894, 103.001277) rotate(130.000000) translate(-46.559894, -103.001277) "></path>
                <path d="M101.462762,6.20291459 C125.205717,2.61498077 122.314718,46.172863 115.076605,58.3800151 C99.5405027,84.5818093 36.8238606,85.0049098 68.5760639,39.0324694 C79.2005791,24.5329707 83.1514733,8.97003814 101.462762,6.20291459 Z" id="Path-269" stroke-width="2.2" transform="translate(89.988882, 41.118167) rotate(250.000000) translate(-89.988882, -41.118167) "></path>
                <path d="M103.454958,115.587652 C106.831165,118.960979 117.64187,104.811772 109.002105,105.494307" id="Path-266" stroke-width="1.9"></path>
                <path d="M73.5253634,56.9737938 C80.7428121,55.9794534 93.213833,53.4881534 95.8562134,62.0600337" id="Path-271" stroke-width="1.9"></path>
                <path d="M61.1040049,85.4346938 C60.0266691,96.2989119 57.6336644,95.2438413 67.1958341,104.297752" id="Path-272" stroke-width="1.9"></path>
            </g>
        </g>
    </g>
</svg>