<?xml version="1.0" encoding="UTF-8"?>
<svg width="152px" height="152px" viewBox="0 0 152 152" version="1.1" xmlns="http://www.w3.org/2000/svg" xmlns:xlink="http://www.w3.org/1999/xlink">
    <!-- Generator: Sketch 46.2 (44496) - http://www.bohemiancoding.com/sketch -->
    <title>soymilk</title>
    <desc>Created with Sketch.</desc>
    <defs></defs>
    <g id="Page-1" stroke="none" stroke-width="1" fill="none" fill-rule="evenodd" stroke-linecap="round" stroke-linejoin="round">
        <g id="soymilk" stroke-width="2.2" stroke="#979797">
            <polygon id="Path-151" points="30 148.852119 98.4199503 148.852119 123 141.993817 123 36.9851584 109.8149 20.2817557 109.8149 4 45.4756714 4 45.4756714 20.2817557 109.8149 20.2817557 98.4199503 44.819345 98.4199503 148.852119 98.4199503 44.819345 30 44.819345 45.4756714 20.2817557 30 44.819345"></polygon>
            <polygon id="Path-151" points="30 148.852119 98.4199503 148.852119 123 141.993817 123 36.9851584 109.8149 20.2817557 109.8149 4 45.4756714 4 45.4756714 20.2817557 109.8149 20.2817557 98.4199503 44.819345 98.4199503 148.852119 98.4199503 44.819345 30 44.819345 45.4756714 20.2817557 30 44.819345"></polygon>
        </g>
    </g>
</svg>