<?xml version="1.0" encoding="UTF-8"?>
<svg width="152px" height="152px" viewBox="0 0 152 152" version="1.1" xmlns="http://www.w3.org/2000/svg" xmlns:xlink="http://www.w3.org/1999/xlink">
    <!-- Generator: Sketch 44.1 (41455) - http://www.bohemiancoding.com/sketch -->
    <title>soysauce</title>
    <desc>Created with Sketch.</desc>
    <defs></defs>
    <g id="Page-1" stroke="none" stroke-width="1" fill="none" fill-rule="evenodd">
        <g id="soysauce" stroke="#095B6B">
            <g id="Group" transform="translate(44.000000, 5.000000)">
                <path d="M32.5,141.892302 C32.5,141.892302 19.3904199,142.725039 9.69507472,138.723095 C-0.000270497969,134.72115 0.0369582131,128.083943 0.0369582131,128.083943 C0.0369582131,128.083943 0.0369582131,104.639924 2.49393943,91.6451668 C4.95092064,78.6504092 18.1887953,46.1726413 18.1887953,46.1726413 C18.1887953,46.1726413 20.588892,38.6934374 20.4350836,34.0394664 C20.2812752,29.3854953 17.2312624,17.1993871 17.2312624,17.1993871 C17.2312624,17.1993871 16.3808599,17.0413471 16.0532072,16.7115694 C15.7255545,16.3817918 15.5077032,15.46465 15.5077032,15.46465 L11.8660035,0.680190115 L32.5658444,0.126597723" id="Path-606" stroke-width="2" stroke-linejoin="round"></path>
                <path d="M64.681229,141.874885 C64.681229,141.874885 51.5058045,142.725039 41.8104593,138.723095 C32.1151141,134.72115 32.1523428,128.083943 32.1523428,128.083943 C32.1523428,128.083943 32.1523428,104.639924 34.609324,91.6451668 C37.0663052,78.6504092 50.3041799,46.1726413 50.3041799,46.1726413 C50.3041799,46.1726413 52.7042766,38.6934374 52.5504682,34.0394664 C52.3966598,29.3854953 49.346647,17.1993871 49.346647,17.1993871 C49.346647,17.1993871 48.4962445,17.0413471 48.1685918,16.7115694 C47.8409391,16.3817918 47.6230878,15.46465 47.6230878,15.46465 L43.9813881,0.680190115 L64.681229,0.126597723" id="Path-606" stroke-width="2" stroke-linejoin="round" transform="translate(48.416785, 71.038536) scale(-1, 1) translate(-48.416785, -71.038536) "></path>
                <path d="M11.0216928,99.3692547 C11.0216928,99.3692547 24.9623845,101.110701 32.0598998,101.110701 C39.1574152,101.110701 54.367574,99.3692547 54.367574,99.3692547 L54.6970809,107.801862 C54.6970809,107.801862 39.3764802,109.814206 32.0598998,109.814206 C24.7433195,109.814206 10.7792827,107.801862 10.7792827,107.801862 L11.0216928,99.3692547 Z" id="Path-607" stroke-width="2"></path>
                <path d="M34.4868657,3.90860578 L29.7337112,3.90860578 C29.7337112,3.90860578 29.5665169,8.99187617 32.1102884,8.99187617 C34.65406,8.99187617 34.4868657,3.90860578 34.4868657,3.90860578 Z" id="Path-608" stroke-width="1.3"></path>
                <path d="M17.2925252,17.23728 L47.4142182,17.23728" id="Path-609" stroke-width="2"></path>
            </g>
        </g>
    </g>
</svg>