<?xml version="1.0" encoding="UTF-8"?>
<svg width="152px" height="152px" viewBox="0 0 152 152" version="1.1" xmlns="http://www.w3.org/2000/svg" xmlns:xlink="http://www.w3.org/1999/xlink">
    <!-- Generator: Sketch 44.1 (41455) - http://www.bohemiancoding.com/sketch -->
    <title>noodles</title>
    <desc>Created with Sketch.</desc>
    <defs></defs>
    <g id="Page-1" stroke="none" stroke-width="1" fill="none" fill-rule="evenodd" stroke-linecap="round">
        <g id="noodles" stroke="#979797">
            <g id="Group" transform="translate(5.000000, 6.000000)">
                <path d="M96.4751532,68.3928482 C96.4751532,68.3928482 98.2548141,19.3421831 66.6782609,6.72441432 C35.1017077,-5.8933545 30.2188019,4.78193575 30.2188019,4.78193575 C30.2188019,4.78193575 29.2462387,16.1101498 39.6583903,31.2190456 C50.0705419,46.3279415 95.6479022,69.0511135 95.6479022,69.0511135 L96.4751532,68.3928482 Z" id="Path-721" stroke-width="2"></path>
                <path d="M135.674665,48.620394 C144.231243,62.5883445 128.804558,80.7671533 125.886138,84.1377312 C106.448285,106.587137 62.8776433,150.688641 31.0960941,136.609777 C-10.9954987,117.963681 7.54144282,81.3404143 7.54144282,81.3404143 C7.54144282,81.3404143 14.1036045,129.356605 78.7700539,83.1954048 C143.436503,37.0342045 92.1819832,28.7873509 92.1819832,28.7873509 C92.1819832,28.7873509 127.118087,34.6524435 135.674665,48.620394 Z" id="Path-722" stroke-width="2" stroke-linejoin="round"></path>
                <path d="M30.0863714,4.73993674 C30.0863714,4.73993674 1.59024784,37.2396901 2.64246938,61.221445 C3.69469093,85.2031999 33.917255,102.78527 33.917255,102.78527" id="Path-723" stroke-width="2"></path>
                <path d="M83.9958026,123.82681 C83.9958026,123.82681 113.911595,132.735653 131.936669,119.758662 C149.961742,106.781671 136.317901,67.5385613 136.317901,67.5385613" id="Path-724" stroke-width="2"></path>
                <path d="M23.8439686,13.2697745 C23.8439686,13.2697745 22.0327507,24.6021389 34.9090325,42.0095294 C47.7853143,59.4169199 78.4063345,75.7711881 78.4063345,75.7711881" id="Path-725" stroke-width="1.6"></path>
                <path d="M11.1887783,32.2123894 C11.1887783,32.2123894 9.47507464,44.8215559 22.3513564,62.2289464 C35.2276382,79.6363369 47.9632243,87.1350773 47.9632243,87.1350773" id="Path-725" stroke-width="1.6"></path>
                <path d="M5.01486521,37.1681416 C5.01486521,37.1681416 3.3011616,49.7773081 16.1774434,67.1846986 C29.0537251,84.5920891 41.7893112,92.0908295 41.7893112,92.0908295" id="Path-725" stroke-width="1.6" transform="translate(23.364221, 64.629486) rotate(10.000000) translate(-23.364221, -64.629486) "></path>
                <path d="M6.36330824,87.5087754 C6.36330824,87.5087754 5.0603703,129.60005 42.900915,126.540219 C80.7414597,123.480387 113.686372,82.0357144 113.686372,82.0357144" id="Path-726" stroke-width="1.6"></path>
                <path d="M7.77318277,84.3774127 C7.77318277,84.3774127 0.645952766,114.775255 42.6954842,113.21475 C84.7450156,111.654245 115.871068,62.0136288 115.871068,62.0136288" id="Path-726" stroke-width="1.6"></path>
                <path d="M106.005698,117.225191 C106.005698,117.225191 118.967539,119.44171 130.590796,111.731424 C142.214053,104.021137 140.839824,86.0150957 140.839824,86.0150957" id="Path-727" stroke-width="1.6"></path>
                <path d="M113.414394,102.436131 C113.414394,102.436131 127.110864,102.891879 134.266606,98.396679 C141.422347,93.9014785 140.700559,89.220921 140.700559,89.220921" id="Path-727" stroke-width="1.6"></path>
                <path d="M74.5547078,85.6698982 C74.5547078,85.6698982 50.0537051,76.5202784 36.0958337,62.4515732 C22.1379623,48.3828679 18.6485334,34.3652379 18.6485334,34.3652379" id="Path-728" stroke-width="1.6"></path>
            </g>
        </g>
    </g>
</svg>