<?xml version="1.0" encoding="UTF-8"?>
<svg width="152px" height="152px" viewBox="0 0 152 152" version="1.1" xmlns="http://www.w3.org/2000/svg" xmlns:xlink="http://www.w3.org/1999/xlink">
    <!-- Generator: Sketch 44.1 (41455) - http://www.bohemiancoding.com/sketch -->
    <title>spinach</title>
    <desc>Created with Sketch.</desc>
    <defs></defs>
    <g id="Page-1" stroke="none" stroke-width="1" fill="none" fill-rule="evenodd" stroke-linecap="round" stroke-linejoin="round">
        <g id="spinach" stroke="#979797" stroke-width="2">
            <path d="M118.684218,145.446309 C118.684218,145.446309 119.687828,120.007085 119.681673,113.578352 C119.675518,107.149619 119.618606,76.9167963 119.618606,76.9167963 C119.618606,76.9167963 116.886669,87.351348 116.740276,100.19973 C116.593883,113.048113 117.83779,145.446309 117.83779,145.446309 C117.83779,145.446309 118.73908,132.870695 115.728951,132.764377 C110.945551,132.595427 93.2269774,128.668575 93.2269774,107.838167 C93.2269774,83.7673331 103.813172,54.9531519 118.697897,54.9531519 C133.582621,54.9531519 145.426588,85.4149756 144.157954,107.838167 C142.889321,130.261357 123.120087,130.972467 121.2735,134.014225 C119.426913,137.055983 119.504497,145.446309 119.504497,145.446309" id="Path-697"></path>
            <path d="M43.2060587,156.233673 C43.2060587,156.233673 46.4321497,128.145864 46.4259946,121.717131 C46.4198395,115.288398 43.1404463,87.7041608 43.1404463,87.7041608 C43.1404463,87.7041608 43.407313,118.066788 43.2609203,130.915171 C43.1145277,143.763553 42.3596306,156.233673 42.3596306,156.233673 C42.3596306,156.233673 43.2609203,143.65806 40.2507913,143.551742 C35.4673913,143.382792 17.7488181,139.45594 17.7488181,118.625531 C17.7488181,94.5546976 28.3350129,65.7405164 43.2197374,65.7405164 C58.1044619,65.7405164 69.9484285,96.2023401 68.679795,118.625531 C67.4111615,141.048722 47.6419278,141.759832 45.7953405,144.80159 C43.9487532,147.843347 44.0263379,156.233673 44.0263379,156.233673" id="Path-697" transform="translate(43.260920, 110.987095) scale(-1, 1) rotate(45.000000) translate(-43.260920, -110.987095) "></path>
            <path d="M75.6419699,86.0437145 C75.6419699,86.0437145 78.8147699,54.4299192 78.8086148,48.0011862 C78.8024597,41.5724532 76.3760933,15.9654153 76.3760933,15.9654153 C76.3760933,15.9654153 75.5512981,44.5231366 75.4049054,57.371519 C75.2585127,70.2199014 74.674047,85.9781696 74.674047,85.9781696 C74.674047,85.9781696 76.4965673,71.9193144 73.4864383,71.8129964 C68.7030383,71.6440463 50.9844651,67.7171945 50.9844651,46.8867856 C50.9844651,22.8159521 61.5706599,-5.99822909 76.4553844,-5.99822909 C91.3401089,-5.99822909 103.184076,24.4635946 101.915442,46.8867856 C100.646809,69.3099765 79.891543,69.5672947 78.0449557,72.6090524 C76.1983684,75.65081 75.106244,86.4932419 75.106244,86.4932419" id="Path-697" transform="translate(76.496567, 40.247506) scale(-1, -1) rotate(40.000000) translate(-76.496567, -40.247506) "></path>
        </g>
    </g>
</svg>