<?xml version="1.0" encoding="UTF-8"?>
<svg width="152px" height="152px" viewBox="0 0 152 152" version="1.1" xmlns="http://www.w3.org/2000/svg" xmlns:xlink="http://www.w3.org/1999/xlink">
    <!-- Generator: Sketch 44.1 (41455) - http://www.bohemiancoding.com/sketch -->
    <title>sun-driedtomatoes</title>
    <desc>Created with Sketch.</desc>
    <defs></defs>
    <g id="Page-1" stroke="none" stroke-width="1" fill="none" fill-rule="evenodd">
        <g id="sun-driedtomatoes" stroke="#A8104C">
            <g id="Group" transform="translate(-10.000000, 16.000000)">
                <path d="M4.44518584,47.4498243 C4.44518584,47.4498243 1.48794,47.4498243 -0.343848109,50.6387844 C-2.17563622,53.8277445 -0.343848109,56.6343182 -0.343848109,56.6343182 C-0.343848109,56.6343182 -4.35013635,56.7778612 -3.99317847,64.3678084 C-3.63622059,71.9577556 0.80874125,71.9577556 0.80874125,71.9577556 C0.80874125,71.9577556 2.58644559,78.7604828 8.12271961,80.6644788 C13.6589936,82.5684749 16.5557793,81.5777379 16.5557793,81.5777379 C16.5557793,81.5777379 19.8207638,80.4038327 23.0586213,82.2489176 C26.2964789,84.0940025 29.3646259,87.5347016 31.6771988,88.9342759 C35.9589419,91.5255963 39.5916116,88.2758125 39.5916116,88.2758125 C39.5916116,88.2758125 42.1717604,85.7077567 45.6802329,86.1439206 C49.1887053,86.5800846 51.6912833,88.9342759 51.6912833,88.9342759 C51.6912833,88.9342759 54.2986481,91.5255963 58.0098,91.5255963 C61.7209519,91.5255963 63.6890339,88.2896617 63.6890339,88.2896617 C63.6890339,88.2896617 65.1168918,86.0555377 67.6316298,85.123246 C70.1463678,84.1909543 73.007895,85.123246 73.007895,85.123246 C73.007895,85.123246 77.4323252,86.4441055 80.055579,85.7077567 C81.6364897,85.2639942 83.8103121,83.7230176 85.2882354,82.5684749 C86.2626758,81.8072493 86.2954189,80.6644788 86.2954189,80.6644788 C86.2954189,80.6644788 86.9479087,77.6172127 88.1854199,76.2907892 C89.4229312,74.9643658 93.6827812,73.9809881 93.6827812,73.9809881 C93.6827812,73.9809881 95.4765999,73.6321703 96.3153129,71.9577556 C97.9640161,68.6662687 99.1989674,62.4820516 98.8089183,59.3686134 C98.220447,54.6713357 90.7107113,50.2574215 90.7107113,50.2574215 C90.7107113,50.2574215 88.5831155,43.7701921 86.2954189,42.3722282 C84.0077223,40.9742642 77.8069952,42.3722282 77.8069952,42.3722282 C77.8069952,42.3722282 72.5826008,44.1002628 71.2809122,43.6685915 C69.9792236,43.2369202 68.9801237,39.4450248 68.9801237,39.4450248 C68.9801237,39.4450248 65.6508004,32.5871953 62.7725225,30.8848042 C59.8942446,29.182413 52.286684,31.4865668 52.286684,31.4865668 C52.286684,31.4865668 45.9612485,27.6062094 42.7221504,28.1396148 C39.4830523,28.6730202 35.9589419,32.3895205 35.9589419,32.3895205 C35.9589419,32.3895205 33.4117369,34.4600936 32.3045776,34.7766076 C31.1974182,35.0931216 27.6089604,34.7766076 27.6089604,34.7766076 C27.6089604,34.7766076 21.1033926,33.1148515 13.485784,35.827843 C5.86817546,38.5408345 4.44518584,47.4498243 4.44518584,47.4498243 Z" id="Path-187" stroke-width="2" stroke-linecap="round" stroke-linejoin="round" transform="translate(47.432847, 59.807429) rotate(70.000000) translate(-47.432847, -59.807429) "></path>
                <ellipse id="Oval" stroke-width="1.5" fill="#FF0000" transform="translate(39.803633, 57.997709) rotate(70.000000) translate(-39.803633, -57.997709) " cx="39.8036332" cy="57.9977092" rx="1.15256039" ry="1.15435671"></ellipse>
                <path d="M17.1835906,82.91476 C17.1835906,82.91476 22.8205376,79.2248109 26.340496,78.5810329 C29.8604543,77.937255 37.1269284,79.2672507 37.1269284,79.2672507 C37.1269284,79.2672507 45.0553822,80.189269 48.8404927,79.2672507 C52.6256032,78.3452325 57.407614,74.3270614 57.407614,74.3270614 C57.407614,74.3270614 64.4904916,68.5190828 69.1865899,67.564925 C73.8826882,66.6107672 85.8176402,68.5546845 85.8176402,68.5546845" id="Path-190" stroke-width="2" stroke-linecap="round" transform="translate(51.500615, 75.108087) rotate(85.000000) translate(-51.500615, -75.108087) "></path>
                <ellipse id="Oval" stroke-width="1.5" fill="#FF0000" transform="translate(50.400316, 66.092374) rotate(70.000000) translate(-50.400316, -66.092374) " cx="50.4003155" cy="66.0923742" rx="1.15256039" ry="1.15435671"></ellipse>
                <path d="M83.2836962,47.5474823 C83.2836962,47.5474823 80.3264504,47.5474823 78.4946623,50.7364424 C76.6628742,53.9254025 78.4946623,56.7319762 78.4946623,56.7319762 C78.4946623,56.7319762 74.488374,56.8755192 74.8453319,64.4654664 C75.2022898,72.0554136 79.6472516,72.0554136 79.6472516,72.0554136 C79.6472516,72.0554136 81.424956,78.8581408 86.96123,80.7621369 C92.497504,82.6661329 95.3942896,81.675396 95.3942896,81.675396 C95.3942896,81.675396 98.6592741,80.5014907 101.897132,82.3465756 C105.134989,84.1916605 108.203136,87.6323597 110.515709,89.0319339 C114.797452,91.6232544 118.430122,88.3734705 118.430122,88.3734705 C118.430122,88.3734705 121.010271,85.8054147 124.518743,86.2415787 C128.027216,86.6777426 130.529794,89.0319339 130.529794,89.0319339 C130.529794,89.0319339 133.137158,91.6232544 136.84831,91.6232544 C140.559462,91.6232544 142.527544,88.3873197 142.527544,88.3873197 C142.527544,88.3873197 143.955402,86.1531957 146.47014,85.220904 C148.984878,84.2886124 151.846405,85.220904 151.846405,85.220904 C151.846405,85.220904 156.270836,86.5417635 158.894089,85.8054147 C160.475,85.3616522 162.648822,83.8206756 164.126746,82.6661329 C165.101186,81.9049073 165.133929,80.7621369 165.133929,80.7621369 C165.133929,80.7621369 165.786419,77.7148707 167.02393,76.3884472 C168.261442,75.0620238 172.521292,74.0786462 172.521292,74.0786462 C172.521292,74.0786462 174.31511,73.7298283 175.153823,72.0554136 C176.802526,68.7639267 178.037478,62.5797096 177.647429,59.4662714 C177.058957,54.7689937 169.549222,50.3550795 169.549222,50.3550795 C169.549222,50.3550795 167.421626,43.8678501 165.133929,42.4698862 C162.846233,41.0719222 156.645506,42.4698862 156.645506,42.4698862 C156.645506,42.4698862 151.421111,44.1979209 150.119423,43.7662496 C148.817734,43.3345783 147.818634,39.5426828 147.818634,39.5426828 C147.818634,39.5426828 144.489311,32.6848534 141.611033,30.9824622 C138.732755,29.280071 131.125194,31.5842248 131.125194,31.5842248 C131.125194,31.5842248 124.799759,27.7038674 121.560661,28.2372728 C118.321563,28.7706782 114.797452,32.4871785 114.797452,32.4871785 C114.797452,32.4871785 112.250247,34.5577517 111.143088,34.8742656 C110.035929,35.1907796 106.447471,34.8742656 106.447471,34.8742656 C106.447471,34.8742656 99.941903,33.2125095 92.3242944,35.925501 C84.7066858,38.6384925 83.2836962,47.5474823 83.2836962,47.5474823 Z" id="Path-187" stroke-width="2" stroke-linecap="round" stroke-linejoin="round" transform="translate(126.271358, 59.905087) rotate(270.000000) translate(-126.271358, -59.905087) "></path>
                <ellipse id="Oval" stroke-width="1.5" fill="#FF0000" transform="translate(134.849565, 65.798332) rotate(270.000000) translate(-134.849565, -65.798332) " cx="134.849565" cy="65.7983322" rx="1.15256039" ry="1.15435671"></ellipse>
                <ellipse id="Oval" stroke-width="1.5" fill="#FF0000" transform="translate(120.763658, 43.006312) rotate(270.000000) translate(-120.763658, -43.006312) " cx="120.763658" cy="43.0063121" rx="1.15256039" ry="1.15435671"></ellipse>
                <ellipse id="Oval" stroke-width="1.5" fill="#FF0000" transform="translate(130.239324, 26.550204) rotate(270.000000) translate(-130.239324, -26.550204) " cx="130.239324" cy="26.5502042" rx="1.15256039" ry="1.15435671"></ellipse>
                <path d="M93.3568705,51.9404187 C93.3568705,51.9404187 98.9938175,48.2504696 102.513776,47.6066917 C106.033734,46.9629137 113.300208,48.2929095 113.300208,48.2929095 C113.300208,48.2929095 121.228662,49.2149277 125.013773,48.2929095 C128.798883,47.3708912 133.580894,43.3527202 133.580894,43.3527202 C133.580894,43.3527202 140.663772,37.5447416 145.35987,36.5905838 C150.055968,35.6364259 161.99092,37.5803433 161.99092,37.5803433" id="Path-190" stroke-width="2" stroke-linecap="round" transform="translate(127.673895, 44.133745) rotate(285.000000) translate(-127.673895, -44.133745) "></path>
                <ellipse id="Oval" stroke-width="1.5" fill="#FF0000" transform="translate(122.350171, 52.982655) rotate(270.000000) translate(-122.350171, -52.982655) " cx="122.350171" cy="52.9826549" rx="1.15256039" ry="1.15435671"></ellipse>
            </g>
        </g>
    </g>
</svg>