<?xml version="1.0" encoding="UTF-8"?>
<svg width="152px" height="152px" viewBox="0 0 152 152" version="1.1" xmlns="http://www.w3.org/2000/svg" xmlns:xlink="http://www.w3.org/1999/xlink">
    <!-- Generator: Sketch 44.1 (41455) - http://www.bohemiancoding.com/sketch -->
    <title>sunflowerseeds</title>
    <desc>Created with Sketch.</desc>
    <defs></defs>
    <g id="Page-1" stroke="none" stroke-width="1" fill="none" fill-rule="evenodd">
        <g id="sunflowerseeds" stroke="#446DB5">
            <g id="Group" transform="translate(9.000000, 7.000000)">
                <path d="M11.476512,51.859319 C8.17642131,56.4221733 5.18162611,61.2575787 2.86267192,66.38395 C-8.18355075,90.8031644 18.6809283,119.084514 40.3085937,96.6007788 C50.9421952,85.5462764 46.8268874,55.549873 45.2826391,44.9887361 C44.0585107,36.6169042 38.2680007,30.5304665 31.4238139,34.3178382 C31.4238139,34.3178382 19.6001487,40.627212 11.476512,51.859319 Z" id="Path-394" stroke-width="2.3"></path>
                <path d="M86.7678414,17.4294526 C83.4677507,21.9923069 80.4729555,26.8277123 78.1540013,31.9540836 C67.1077787,56.3732979 93.9722578,84.6546475 115.599923,62.1709123 C126.233525,51.1164099 122.118217,21.1200066 120.573968,10.5588697 C119.34984,2.18703774 113.55933,-3.89939995 106.715143,-0.11202825 C106.715143,-0.11202825 94.8914781,6.19734558 86.7678414,17.4294526 Z" id="Path-394" stroke-width="2.3" transform="translate(99.123015, 34.556049) rotate(290.000000) translate(-99.123015, -34.556049) "></path>
                <path d="M81.6193611,86.977655 C78.3192704,91.5405094 75.3244752,96.3759147 73.005521,101.502286 C61.9592984,125.9215 88.8237774,154.20285 110.451443,131.719115 C121.085044,120.664612 116.969736,90.668209 115.425488,80.1070721 C114.20136,71.7352402 108.41085,65.6488025 101.566663,69.4361742 C101.566663,69.4361742 89.7429978,75.745548 81.6193611,86.977655 Z" id="Path-394" stroke-width="2.3" transform="translate(93.974535, 104.104251) rotate(45.000000) translate(-93.974535, -104.104251) "></path>
                <path d="M8.85546102,98.3774851 C8.85546102,98.3774851 2.94474324,88.2253983 7.09486175,72.9555556 C11.2449803,57.6857128 28.9244098,36.7283542 28.9244098,36.7283542 L29.9396516,35.5521661" id="Path-541" stroke-width="1.6"></path>
                <path d="M25.16972,104.268492 C25.16972,104.268492 34.227862,100.975796 39.0963427,86.3111496 C43.9648234,71.646503 45.4232021,44.0634926 45.4232021,44.0634926" id="Path-542" stroke-width="1.6"></path>
                <path d="M62.9397527,112.475364 C62.9397527,112.475364 67.8562497,103.564724 80.1173644,96.9699492 C92.378479,90.3751747 124.919438,85.9085944 124.919438,85.9085944" id="Path-543" stroke-width="1.6"></path>
                <path d="M65.6088965,125.865721 C65.6088965,125.865721 77.9566289,131.153364 92.4321443,125.865721 C106.90766,120.578079 127.565986,99.7897127 127.565986,99.7897127" id="Path-544" stroke-width="1.6"></path>
                <path d="M124.345874,57.4613569 C124.345874,57.4613569 107.239476,55.2782893 100.166349,50.5681848 C93.0932226,45.8580803 70.5863985,21.6620907 70.5863985,21.6620907" id="Path-545" stroke-width="1.6"></path>
                <path d="M77.0676634,6.43724483 C77.0676634,6.43724483 109.443606,18.7379857 121.50067,28.9568797 C133.557734,39.1757738 130.208575,51.4765146 130.208575,51.4765146" id="Path-546" stroke-width="1.6"></path>
            </g>
        </g>
    </g>
</svg>