<?xml version="1.0" encoding="UTF-8"?>
<svg width="152px" height="152px" viewBox="0 0 152 152" version="1.1" xmlns="http://www.w3.org/2000/svg" xmlns:xlink="http://www.w3.org/1999/xlink">
    <!-- Generator: Sketch 44.1 (41455) - http://www.bohemiancoding.com/sketch -->
    <title>chard</title>
    <desc>Created with Sketch.</desc>
    <defs></defs>
    <g id="Page-1" stroke="none" stroke-width="1" fill="none" fill-rule="evenodd">
        <g id="chard" stroke="#979797" stroke-width="2">
            <g id="Group" transform="translate(73.500000, 74.000000) rotate(80.000000) translate(-73.500000, -74.000000) translate(26.000000, -2.000000)">
                <path d="M78.4139783,129.638203 C79.5301251,121.116646 80.3390054,113.463271 80.8406191,106.678075 C81.3422327,99.8928797 79.7746666,91.0215751 76.1379206,80.0641615 C79.2893543,79.1278473 81.2309378,78.3926153 81.9626712,77.8584655 C82.6944046,77.3243157 83.8691751,76.3567685 85.4869828,74.9558241 C86.4534858,94.6462421 88.3490973,109.302467 91.1738172,118.9245 C93.9985371,128.546533 93.4060865,136.516515 89.3964654,142.834445" id="Path-813" stroke-linecap="round" stroke-linejoin="round"></path>
                <path d="M45.2901386,81.012497 C45.2965102,76.525198 46.0943692,73.1688893 47.6837156,70.943571 C49.1462284,68.8958385 52.8235511,68.2991005 56.4044275,65.168935 C58.7916784,63.082158 60.2268112,61.1144046 60.7098259,59.2656749" id="Path-815" stroke-linecap="round" stroke-linejoin="round"></path>
                <path d="M37.6901386,63.2791637 C38.4409652,58.5841755 39.7148551,55.2941159 41.5118082,53.4089847 C42.9107108,51.9414367 46.9051384,51.8979749 49.1700284,50.0230229 C50.6799551,48.7730549 51.5563678,47.2784279 51.7992667,45.5391419" id="Path-815" stroke-linecap="round" stroke-linejoin="round"></path>
                <path d="M83.8040603,150.851313 C76.1431562,152.44286 71.7242914,152.004676 70.547466,149.536759 C69.7771045,147.921237 56.9887761,123.696083 45.6,92.2463591 C38.0074826,71.2798765 32.7566707,53.097533 29.8475643,37.6993285 C36.7322572,62.1831949 43.8806092,81.1978539 51.2926205,94.7433055 C62.4106374,115.061483 94.7859573,144.630957 89.8239034,147.881184 C86.5158675,150.048002 84.5092531,151.038045 83.8040603,150.851313 Z" id="Path-812" stroke-linecap="round" stroke-linejoin="round"></path>
                <path d="M49.2338043,101.612088 C44.5033381,97.7506233 41.02569,95.6069133 38.8008599,95.1809579 C33.9408908,94.2504914 24.2312412,98.946813 16.9075211,95.1809579 C12.795013,93.0663073 13.4978014,84.4801773 13.0225727,82.6001567 C12.547344,80.7201362 7.47253825,76.0254832 7.13768668,71.7106431 C6.43266626,62.6258705 11.0146976,60.0439816 11.6740057,58.1603367 C11.9435864,57.3901438 8.57788548,50.0637514 9.89385944,43.4993097 C11.1704196,37.1314747 16.2629079,35.717389 16.9075211,34.661274 C17.5521343,33.6051591 22.2213746,24.8325737 25.9070857,24.0362159 C36.5515592,21.7363042 43.127148,31.668881 44.0434629,32.1599279 C44.5995049,32.4579071 52.7269897,32.4538978 59.6299556,37.8878649 C66.5329216,43.321832 63.9506832,50.866227 65.8404453,53.3473488 C66.4422984,54.1375386 74.8507112,58.0311176 74.8507112,67.1466311 C74.8507112,72.525434 68.0381451,79.8474906 60.7399151,86.1333333 C55.8744284,90.3238951 53.7451892,94.7651417 54.3521975,99.4570729" id="Path-814" stroke-linecap="round" stroke-linejoin="round"></path>
                <path d="M7.50389366,74.6793934 C0.491184372,81.8575337 -1.5061673,87.7399829 1.51183863,92.326741 C2.4499751,93.7525185 7.50389366,98.1745438 8.82062068,100.723486 C10.1373477,103.272429 10.4980004,116.592691 15.5349085,119.624099 C21.6621502,123.311712 28.1734163,121.3326 35.0687068,113.686763 L29.7823708,105.507611 C31.4200886,108.783405 33.8837585,112.359019 37.1733805,116.234453 C40.4630025,120.109886 49.6873633,127.789874 64.8464629,139.274417 L56.4144739,119.624099 C50.5589468,116.346287 45.8882162,112.797164 42.4022819,108.976728 C38.9163476,105.156293 36.3020223,100.478792 34.5593059,94.9442257" id="Path-818"></path>
                <path d="M61.141394,84.8666667 C63.208966,90.4384771 64.5692965,94.7583978 65.2223854,97.8264287 C65.8754744,100.89446 65.8754744,106.28565 65.2223854,114 L78.0925264,128.919683 L79.3906621,119.262734 C77.8368997,107.197777 76.5019824,99.1090874 75.3859102,94.9966649 C74.2698379,90.8842423 72.5632106,86.0639679 70.266028,80.5358417" id="Path-820"></path>
                <path d="M67.1830988,80.4520689 C78.0405202,80.7185811 85.4509968,77.2852012 89.4145286,70.1519293 C95.3598262,59.4520214 89.4193795,53.980092 89.4145286,48.6300285 C89.4096777,43.279965 94.3950779,43.2491942 94.3950779,35.9576108 C94.3950779,27.664302 87.8136921,24.9760618 87.2964744,21.9556641 C86.9160984,19.7343811 89.4145286,17.9230307 89.4145286,14.0723278 C89.4145286,10.2216249 86.5097456,6.14949445 84.495702,5.45265165 C79.9373125,3.8754857 75.5700782,5.42329618 71.281323,8.44349351 C66.9925677,11.4636908 67.8619869,15.6469843 65.4134044,17.8427694 C63.789163,19.2993204 60.16872,17.8427694 57.2533363,20.8221876 C52.9861296,25.1831208 52.2749073,29.892648 55.1196696,34.9507691" id="Path-816"></path>
                <path d="M39.7535201,74.6706095 C36.6766496,70.4939881 34.2253331,68.0916396 32.3995707,67.463564 C28.4120062,66.0918126 25.4067942,68.0853508 21.6580764,67.463564 C19.1589312,67.0490395 17.8755492,65.5879459 17.8079303,63.0802833" id="Path-817" stroke-linecap="round"></path>
                <path d="M27.7913747,22.8664368 C25.166039,19.0817864 24.9203203,15.7524921 27.0542185,12.8785537 C31.3859552,7.04456208 35.2663047,10.5095903 38.2551064,8.42443635 C41.2439081,6.3392824 40.050483,1.82649252 46.9261552,0.845650985 C54.8778154,-0.288684449 54.922606,9.34129453 58.4335415,9.34129453 C60.0690929,9.34129453 65.0205742,7.93080706 66.4542967,9.34129453 C67.4101117,10.2816195 67.8207822,11.7728407 67.686308,13.8149581" id="Path-819"></path>
            </g>
        </g>
    </g>
</svg>