<?xml version="1.0" encoding="UTF-8"?>
<svg width="152px" height="152px" viewBox="0 0 152 152" version="1.1" xmlns="http://www.w3.org/2000/svg" xmlns:xlink="http://www.w3.org/1999/xlink">
    <!-- Generator: Sketch 44.1 (41455) - http://www.bohemiancoding.com/sketch -->
    <title>tarragon</title>
    <desc>Created with Sketch.</desc>
    <defs></defs>
    <g id="Page-1" stroke="none" stroke-width="1" fill="none" fill-rule="evenodd" stroke-linecap="round" stroke-linejoin="round">
        <g id="tarragon" stroke="#146372" stroke-width="2">
            <path d="M3,105.280721 C3,105.280721 3.5524932,104.598266 15.3359827,98.3172744 C15.7543482,98.0942717 22.3152696,98.8155272 33.3340313,104.807044 C33.6262566,104.965943 45.2937761,114.83486 50.3775751,117.132595 C67.7888412,125.001999 77.6939981,128.818906 78.0012047,125.663403 C78.3084113,122.5079 61.8917099,111.131902 49.3486321,106.058297 C36.8055544,100.984692 14.8301552,98.5751329 15.3359827,98.3172744 C20.9278768,95.4666639 27.0458686,92.5105411 33.3340313,89.7485661 C33.7631326,89.5600902 56.9178582,100.804447 70.7694868,105.280721 C84.6211154,109.756994 103.126478,112.979578 103.384013,111.649577 C103.641548,110.319577 95.0600916,108.192801 84.7357843,103.681279 C74.4114771,99.1697573 64.39862,94.2329227 58.3851336,92.9191893 C45.8109775,90.1721824 32.9924499,89.888669 33.3340313,89.7485661 C33.7828799,89.5644664 40.6923575,72.5548837 44.8264641,62.6782415 C48.9605706,52.8015993 52.3790696,48.8564349 53.5877273,46.0353493 C56.7715565,38.6040857 57.5578097,35.4889383 58.3851336,35.1493599 C59.749145,34.589496 61.4479898,39.9290856 57.2473627,49.5507585 C53.0467356,59.1724314 33.1708361,89.8153198 33.3340313,89.7485661 C36.3679633,88.5075588 45.7866562,84.6576657 47.1975898,84.1418216 C47.8590837,83.8999763 48.5791905,83.6484745 49.3486321,83.3893542 C49.5778394,83.3121653 55.4267608,72.2528333 61.4479898,65.1417015 C67.4692188,58.0305697 71.8870854,54.4426015 75.7022014,48.6837369 C83.557673,36.8260118 84.0114474,34.7365886 83.4525112,33.099765 C82.8935749,31.4629415 65.7621411,46.9139916 58.3851336,58.1109794 C51.0081262,69.3079671 48.8714262,83.5321953 49.3486321,83.3893542 C52.3884797,82.4794423 61.6541477,79.6679837 64.9671111,78.7644627 C65.4305214,78.6380802 75.9984365,86.6662669 83.4525112,94.691502 C90.9065858,102.716737 90.8571611,106.13407 91.1393179,106.058297 C91.3909067,105.990734 80.8404111,102.747248 77.0698346,98.8954931 C73.2992581,95.0437379 64.436911,78.904635 64.9671111,78.7644627 C68.667631,77.7861338 76.8221306,75.6453911 79.6309762,74.9501623 C79.86732,74.8916639 82.5679224,66.8104077 85.5725024,59.9877176 C88.5770824,53.1650275 89.5850499,50.5690597 90.6676415,47.3207357 C93.535896,38.714517 98.6596801,26.7822409 96.7302762,26.011969 C94.8008723,25.2416971 92.4511825,32.2993149 87.193178,42.9519475 C81.9351734,53.6045801 80.3306228,55.5397327 79.6309762,59.9877176 C77.3322917,74.6015444 79.1951254,75.0519844 79.6309762,74.9501623 C82.8799387,74.1911503 85.8932654,73.5230492 88.4977948,72.9693482 C88.754526,72.9147693 92.4213828,75.0056809 97.7921384,80.8001672 C103.162894,86.5946534 107.694704,94.0667382 113.618848,99.4367102 C125.143433,109.883232 130.723179,115.086386 130.723179,116.239361 C130.723179,117.392336 126.357697,120.38199 116.040924,111.649577 C109.187199,105.848387 103.185812,94.7846205 97.7921384,86.6126314 C92.3984649,78.4406423 88.3949268,72.9900841 88.4977948,72.9693482 C91.6762213,72.3286506 94.4711432,71.8084165 96.7302762,71.4113007 C97.0585964,71.3535878 110.923628,52.721095 116.798624,41.2928672 C122.673619,29.8646395 120.860935,25.0515131 121.166405,25.0001872 C121.415585,24.9583193 117.52739,31.9463568 110.925702,39.9290856 C104.324014,47.9118144 101.502144,50.981832 98.9640045,55.7115256 C91.6301094,69.3778663 96.5017426,71.4477095 96.7302762,71.4113007 C100.231168,70.8535569 102.238278,70.6175887 102.238278,70.6175887 C102.238278,70.6175887 121.57408,76.145439 129.299551,79.6655994 C137.025021,83.1857598 150,92.3356572 150,94.691502 C150,97.0473467 140.574967,91.3673093 136.065107,89.4417929 C131.555247,87.5162766 123.444172,84.1418216 123.444172,84.1418216 C123.444172,84.1418216 102.560213,72.998444 102.238278,70.6175887" id="Path-777"></path>
        </g>
    </g>
</svg>