<?xml version="1.0" encoding="UTF-8"?>
<svg width="152px" height="152px" viewBox="0 0 152 152" version="1.1" xmlns="http://www.w3.org/2000/svg" xmlns:xlink="http://www.w3.org/1999/xlink">
    <!-- Generator: Sketch 44.1 (41455) - http://www.bohemiancoding.com/sketch -->
    <title>tempeh</title>
    <desc>Created with Sketch.</desc>
    <defs></defs>
    <g id="Page-1" stroke="none" stroke-width="1" fill="none" fill-rule="evenodd">
        <g id="tempeh" stroke="#FF9677" stroke-width="2.2">
            <g id="Group" transform="translate(4.000000, 13.000000)">
                <polyline id="Path-556" stroke-linecap="round" stroke-linejoin="round" points="37.3741269 32.831033 26.4167333 31.0505541 0.0394715787 93.0411454 1.07368269 113.900087 59.3626991 122.219726 74.6104215 76.63514"></polyline>
                <path d="M67.860251,71.9218353 L57.365013,101.074995 L32.3189171,97.6161214 C32.3189171,97.6161214 23.2294213,101.526948 19.9567804,101.074995 C16.6841395,100.623042 16.7137299,95.4610401 16.7137299,95.4610401 L0.482182232,93.2194582" id="Path-557" stroke-linecap="round" stroke-linejoin="round"></path>
                <path d="M65.5118647,1.22833728 L49.5289651,28.3641415 L78.5422188,49.4103564 C78.5422188,49.4103564 84.6723836,47.2280808 90.4529821,51.1497354 C96.2335807,55.07139 96.51931,62.4509387 96.51931,62.4509387 L132.34133,88.2237061 L143.859454,56.9767568 L78.8872597,10.7456324 C78.8872597,10.7456324 79.0650471,7.45373577 77.7141267,6.56740974 C76.3632063,5.68108371 73.7315557,7.07707856 73.7315557,7.07707856 L65.5118647,1.22833728 Z" id="Path-558" stroke-linecap="round" stroke-linejoin="round"></path>
                <polyline id="Path-559" stroke-linecap="round" stroke-linejoin="round" points="65.2216026 0.797210954 51.2737224 15.209961 34.8694569 43.7473574 49.6478671 28.3463875 34.8694569 43.7473574 116.055604 103.887711 132.316049 88.4245519"></polyline>
                <path d="M32.872145,83.6249412 C32.872145,83.6249412 39.4226684,89.0804143 42.6625042,90.4846998 C45.90234,91.8889854 52.4528634,92.1120748 52.4528634,92.1120748 C52.4528634,92.1120748 49.2028327,82.7096079 45.6718883,81.1791432 C42.1409439,79.6486786 32.872145,83.6249412 32.872145,83.6249412 Z" id="Path-560" stroke-linejoin="round"></path>
                <path d="M119.724857,54.3091038 C119.724857,54.3091038 124.90739,59.7645769 127.470629,61.1688624 C130.033867,62.5731479 135.2164,62.7962374 135.2164,62.7962374 C135.2164,62.7962374 132.645096,53.3937704 129.851543,51.8633058 C127.057989,50.3328411 119.724857,54.3091038 119.724857,54.3091038 Z" id="Path-560" stroke-linejoin="round" transform="translate(127.470629, 57.154486) rotate(20.000000) translate(-127.470629, -57.154486) "></path>
                <path d="M18.8349423,72.266162 C18.8349423,72.266162 21.2144032,74.2003697 24.1978,73.4405376 C27.1811969,72.6807054 37.6100484,67.484388 37.6100484,67.484388 C37.6100484,67.484388 29.0184502,62.4687889 25.5027089,63.3642022 C21.9869676,64.2596155 18.8349423,72.266162 18.8349423,72.266162 Z" id="Path-561" stroke-linecap="round" stroke-linejoin="round"></path>
                <path d="M16.8648481,95.4290844 C16.8648481,95.4290844 21.5154994,89.7329074 26.4511773,90.4959736 C31.3868552,91.2590397 32.3563918,96.8211214 32.3563918,96.8211214" id="Path-562"></path>
                <path d="M57.3876453,100.968085 L58.5797919,122.158823" id="Path-563"></path>
                <path d="M34.4806883,107.324848 C33.3000557,108.800624 34.6306758,112.83761 36.9361832,114.480553 C39.2416905,116.123496 46.5641069,120.506154 47.691921,119.096401 C48.8197351,117.686648 44.5220096,111.325658 41.2980836,109.028234 C38.0741576,106.730811 35.661321,105.849073 34.4806883,107.324848 Z" id="Path-564"></path>
                <path d="M104.666702,81.5534196 C103.486069,83.0291951 104.816689,87.0661817 107.122197,88.7091247 C109.427704,90.3520676 116.750121,94.7347253 117.877935,93.3249724 C119.005749,91.9152194 114.708023,85.5542292 111.484097,83.2568058 C108.260171,80.9593824 105.847335,80.0776442 104.666702,81.5534196 Z" id="Path-564"></path>
                <path d="M104.666702,81.5534196 C103.486069,83.0291951 104.816689,87.0661817 107.122197,88.7091247 C109.427704,90.3520676 116.750121,94.7347253 117.877935,93.3249724 C119.005749,91.9152194 114.708023,85.5542292 111.484097,83.2568058 C108.260171,80.9593824 105.847335,80.0776442 104.666702,81.5534196 Z" id="Path-564"></path>
                <path d="M67.0971568,8.53970162 C65.9165242,10.0154771 67.2471443,14.0524637 69.5526516,15.6954067 C71.858159,17.3383496 79.1805754,21.7210073 80.3083895,20.3112544 C81.4362035,18.9015014 77.1384781,12.5405112 73.9145521,10.2430878 C70.6906261,7.94566438 68.2777894,7.06392617 67.0971568,8.53970162 Z" id="Path-564" transform="translate(73.575339, 14.200675) rotate(75.000000) translate(-73.575339, -14.200675) "></path>
                <path d="M82.9742234,32.6524839 C81.7935908,34.1282593 83.1242109,38.165246 85.4297182,39.8081889 C87.7352256,41.4511319 90.4908173,42.8786118 91.6186313,41.4688589 C92.7464454,40.0591059 93.0155447,36.6532934 89.7916187,34.35587 C86.5676927,32.0584466 84.154856,31.1767084 82.9742234,32.6524839 Z" id="Path-564" transform="translate(87.463411, 36.985587) rotate(85.000000) translate(-87.463411, -36.985587) "></path>
                <path d="M107.651158,36.3092337 C106.470526,37.7850091 106.250512,41.0907619 108.55602,42.7337048 C110.170254,43.8840353 110.97278,44.1423138 112.315096,44.1814896 C113.657411,44.2206654 114.048666,43.9007025 114.386824,43.4780087 C115.514639,42.0682557 116.141846,39.5788093 112.91792,37.2813859 C109.693994,34.9839625 108.831791,34.8334582 107.651158,36.3092337 Z" id="Path-564" transform="translate(111.041710, 39.766782) rotate(85.000000) translate(-111.041710, -39.766782) "></path>
                <path d="M56.7062593,45.2391339 C55.5256267,46.7149094 56.8562468,50.751896 59.1617542,52.394839 C61.4672615,54.0377819 64.2228532,55.4652618 65.3506673,54.0555089 C66.4784813,52.645756 66.7475806,49.2399435 63.5236546,46.9425201 C60.2997286,44.6450967 57.886892,43.7633585 56.7062593,45.2391339 Z" id="Path-564"></path>
                <path d="M78.2923367,49.7300919 C79.6405616,57.5076592 87.9857897,67.2014275 96.9944409,62.4494811" id="Path-565"></path>
                <path d="M37.0206947,48.6739203 C31.6030124,55.6896801 39.6614524,60.3341513 45.5049446,55.2674401" id="Path-566" stroke-linecap="round"></path>
            </g>
        </g>
    </g>
</svg>