<?xml version="1.0" encoding="UTF-8"?>
<svg width="152px" height="152px" viewBox="0 0 152 152" version="1.1" xmlns="http://www.w3.org/2000/svg" xmlns:xlink="http://www.w3.org/1999/xlink">
    <!-- Generator: Sketch 44.1 (41455) - http://www.bohemiancoding.com/sketch -->
    <title>tofu</title>
    <desc>Created with Sketch.</desc>
    <defs></defs>
    <g id="Page-1" stroke="none" stroke-width="1" fill="none" fill-rule="evenodd">
        <g id="tofu" stroke="#446DB5">
            <path d="M10.1180891,45.2170647 L63.8031972,32.6715492 L80.3270627,28.4960719 L89.0115908,26.3015462 L144.270475,43.3153499 L142.187761,62.5025686 C142.187761,62.5025686 138.439369,66.0259824 138.339573,66.9453658 C138.239777,67.8647493 141.551526,68.3639455 141.551526,68.3639455 L139.77985,93.8982909 C139.77985,93.8982909 137.181719,96.0460802 137.05261,97.2355167 C136.9235,98.4249532 139.061128,101.831601 139.061128,101.831601 L139.061128,111.944802 L95.5861511,128.161199 C95.5861511,128.161199 89.5714174,126.185027 87.6506338,126.855802 C85.7298502,127.526577 85.1547144,131.722308 85.1547144,131.722308 L66.551184,138.219021 L54.8117245,132.205087 L48.8354867,129.143558 L15.413053,111.534072 L11.6836265,63.5299201 C11.6836265,63.5299201 16.5252345,62.2005244 16.413053,60.9195517 C16.3008716,59.6385791 11.0780742,56.6152686 11.0780742,56.6152686 L10.1180891,45.2170647 Z" id="Path-406" stroke-width="2.2" stroke-linecap="round" stroke-linejoin="round"></path>
            <path d="M10.5774404,45.6000858 C10.5774404,45.6000858 63.3191555,69.3720799 65.0485392,69.3847612 C68.0371191,69.4066761 92.9757368,60.2422677 92.9757368,60.2422677 L119.570228,51.4596634 C119.570228,51.4596634 115.598479,47.7945808 117.454246,47.2369467 C119.310013,46.6793125 128.272954,48.7174534 128.272954,48.7174534 L143.571173,43.8217625" id="Path-407" stroke-width="2.2" stroke-linecap="round" stroke-linejoin="round"></path>
            <path d="M64.9387568,70.130971 C64.9952808,85.274333 65.5765319,103.896434 65.8512023,118.61217 C65.8869664,120.528264 65.921168,122.447422 65.9529186,124.371383 C65.9839112,126.24941 66.0125685,128.132014 66.0380641,130.020816 C66.0951777,134.251977 66.1364257,133.514239 66.1525191,137.825811 L64.9387568,70.130971 Z" id="Path-415" stroke-width="2.2" stroke-linecap="round" stroke-linejoin="round"></path>
            <circle id="Oval-37" stroke-width="2" cx="118" cy="111" r="1"></circle>
            <circle id="Oval-37" stroke-width="2" cx="85" cy="121" r="1"></circle>
            <circle id="Oval-37" stroke-width="2" cx="104" cy="100" r="1"></circle>
            <circle id="Oval-37" stroke-width="2" cx="84" cy="88" r="1"></circle>
            <circle id="Oval-37" stroke-width="2" cx="121" cy="89" r="1"></circle>
            <circle id="Oval-37" stroke-width="2" cx="106" cy="69" r="1"></circle>
            <circle id="Oval-37" stroke-width="2" cx="127" cy="67" r="1"></circle>
            <circle id="Oval-37" stroke-width="2" cx="43" cy="111" r="1"></circle>
            <circle id="Oval-37" stroke-width="2" cx="28" cy="91" r="1"></circle>
            <circle id="Oval-37" stroke-width="2" cx="49" cy="89" r="1"></circle>
        </g>
    </g>
</svg>