<?xml version="1.0" encoding="UTF-8"?>
<svg width="152px" height="152px" viewBox="0 0 152 152" version="1.1" xmlns="http://www.w3.org/2000/svg" xmlns:xlink="http://www.w3.org/1999/xlink">
    <!-- Generator: Sketch 46.2 (44496) - http://www.bohemiancoding.com/sketch -->
    <title>tortillachips</title>
    <desc>Created with Sketch.</desc>
    <defs></defs>
    <g id="Page-1" stroke="none" stroke-width="1" fill="none" fill-rule="evenodd">
        <g id="tortillachips" stroke="#979797" stroke-width="2">
            <path d="M147.399256,140.668126 L129.250384,74.1509933 C128.621923,71.1576478 127.766774,69.6523531 126.684936,69.6351094 C125.603098,69.6178657 123.210998,71.1231603 119.508635,74.1509933 C107.730929,83.1648531 99.3729079,90.0838313 94.4345719,94.9079279 C89.496236,99.7320245 80.0988421,110.157722 66.2423905,126.185021 C63.8106937,129.291748 62.9564528,131.495104 63.6796679,132.795088 C64.7644906,134.745064 93.2866105,136.195994 102.1818,137.482716 C108.111926,138.340531 121.038226,140.537796 140.960701,144.074512 C144.532722,144.859114 146.678907,145.060862 147.399256,144.679753 C148.119605,144.298645 148.119605,142.961436 147.399256,140.668126 Z" id="Path-144"></path>
            <g id="Group" transform="translate(68.500000, 48.000000) rotate(-20.000000) translate(-68.500000, -48.000000) translate(7.000000, 1.000000)">
                <path d="M1.04698291,23.0666036 L19.1659233,88.8748102 C19.7933479,91.8362532 20.647087,93.3255047 21.7271406,93.3425647 C22.8071943,93.3596246 25.1953495,91.8703731 28.8916063,88.8748102 C40.6498891,79.9570183 48.9941263,73.1117812 53.924318,68.3390989 C58.8545097,63.5664165 68.2364055,53.2518337 82.0700052,37.3953505 C84.4976917,34.3217344 85.3505238,32.1418619 84.6285014,30.855733 C83.5454678,28.9265396 55.0703862,27.491073 46.189867,26.2180646 C40.2695208,25.3693923 27.3645382,23.195545 7.47491922,19.6965227 C3.90878947,18.9202823 1.76614403,18.7206853 1.04698291,19.0977318 C0.327821789,19.4747784 0.327821789,20.7977356 1.04698291,23.0666036 Z" id="Path-144"></path>
                <path d="M46.0944419,25.8878491 L39.4173411,3.04038871 C38.8995371,1.7552891 38.8995371,0.929347631 39.4173411,0.562564298 C40.1940471,0.012389298 40.993273,0.482519961 42.2834841,1.01017374 C63.5069017,9.68985095 79.5408327,16.4911273 90.3852771,21.4140027 C101.888976,26.6361489 111.857783,31.4228816 120.291698,35.7742007 C121.940564,36.9158137 122.811035,37.6710034 122.903112,38.03977 C123.213324,39.2821635 121.280241,40.5831195 120.957503,40.8382779 C111.594043,48.2410916 105.804877,52.7980411 102.024836,56.3355665 C78.1043894,78.7213565 66.68014,90.7989959 64.9038983,90.0528164 C63.3093866,89.3829797 62.2976809,83.8891991 60.1513014,75.9122046 C59.5821438,73.796937 58.3985053,70.4361239 56.6003857,65.829765" id="Path-146"></path>
            </g>
        </g>
    </g>
</svg>