<?xml version="1.0" encoding="UTF-8"?>
<svg width="152px" height="152px" viewBox="0 0 152 152" version="1.1" xmlns="http://www.w3.org/2000/svg" xmlns:xlink="http://www.w3.org/1999/xlink">
    <!-- Generator: Sketch 44.1 (41455) - http://www.bohemiancoding.com/sketch -->
    <title>regularoil</title>
    <desc>Created with Sketch.</desc>
    <defs></defs>
    <g id="Page-1" stroke="none" stroke-width="1" fill="none" fill-rule="evenodd">
        <g id="regularoil" stroke="#F95604">
            <g id="Group" transform="translate(46.000000, 3.000000)">
                <path d="M32.2391837,0 L19.9829953,0.219650996 L20.1594969,9.54388979 C20.1594969,9.54388979 22.6638047,10.6161724 23.5770045,11.7770885 C24.4902044,12.9380046 24.1685502,15.0196727 24.1685502,15.0196727 C24.1685502,15.0196727 10.4273589,21.9279624 3.84324963,31.5957677 C-2.74085961,41.263573 1.00269566,53.000177 1.59034549,54.252549 C3.84324963,59.0538334 5.82750584,61.7543514 6.14811879,63.4879598 C6.29903842,64.3040077 7.02612339,69.5725458 5.70004437,72.9423954 C5.10393049,74.4572478 4.02019779,75.7562583 3.00770768,76.7273634 C2.41458545,77.2962421 1.49416158,78.0391541 1.05783351,79.2492463 C0.621505432,80.4593385 0.616228268,82.3367275 0.616228268,82.3367275 L0.361417144,133.230515 C0.361417144,133.230515 0.369253987,136.803518 1.59034549,138.395879 C2.11364781,139.07829 3.12522971,140.595597 4.37198076,141.42156 C5.61873182,142.247524 7.9370186,142.861596 7.9370186,142.861596 C7.9370186,142.861596 14.1191222,144.019548 18.8908827,144.461 C23.6626432,144.902452 30.0991223,145.198078 30.0991223,145.198078" id="Path-128" stroke-width="2.5"></path>
                <path d="M27.5510204,0 L39.8072088,0.219650996 L39.6307072,9.54388979 C39.6307072,9.54388979 37.1263995,10.6161724 36.2131996,11.7770885 C35.2999998,12.9380046 35.621654,15.0196727 35.621654,15.0196727 C35.621654,15.0196727 49.3628452,21.9279624 55.9469545,31.5957677 C62.5310637,41.263573 58.7875085,53.000177 58.1998586,54.252549 C55.9469545,59.0538334 53.9626983,61.7543514 53.6420853,63.4879598 C53.4911657,64.3040077 52.7640807,69.5725458 54.0901598,72.9423954 C54.6862736,74.4572478 55.7700063,75.7562583 56.7824964,76.7273634 C57.3756187,77.2962421 58.2960425,78.0391541 58.7323706,79.2492463 C59.1686987,80.4593385 59.1739759,82.3367275 59.1739759,82.3367275 L59.428787,133.230515 C59.428787,133.230515 59.4209501,136.803518 58.1998586,138.395879 C57.6765563,139.07829 56.6649744,140.595597 55.4182234,141.42156 C54.1714723,142.247524 51.8531855,142.861596 51.8531855,142.861596 C51.8531855,142.861596 45.6710819,144.019548 40.8993214,144.461 C36.1275609,144.902452 29.2130351,145.16161 29.2130351,145.16161" id="Path-128" stroke-width="2.5"></path>
                <path d="M0.409413425,80.6041667 C0.409413425,80.6041667 19.5871469,82.340781 29.8951021,82.340781 C40.2030572,82.340781 59.1388303,80.6041667 59.1388303,80.6041667 L59.1388303,127.311964 C59.1388303,127.311964 39.2026547,129.85065 29.8951021,129.85065 C20.5875494,129.85065 0,127.311964 0,127.311964 L0.409413425,80.6041667 Z" id="Path-129" stroke-width="1.5"></path>
            </g>
        </g>
    </g>
</svg>