<?xml version="1.0" encoding="UTF-8"?>
<svg width="152px" height="152px" viewBox="0 0 152 152" version="1.1" xmlns="http://www.w3.org/2000/svg" xmlns:xlink="http://www.w3.org/1999/xlink">
    <!-- Generator: Sketch 44.1 (41455) - http://www.bohemiancoding.com/sketch -->
    <title>watercress</title>
    <desc>Created with Sketch.</desc>
    <defs></defs>
    <g id="Page-1" stroke="none" stroke-width="1" fill="none" fill-rule="evenodd" stroke-linecap="round" stroke-linejoin="round">
        <g id="watercress" stroke="#979797" stroke-width="2">
            <path d="M49.144355,143.831297 C49.144355,143.831297 44.6559592,121.648539 41.9900098,100.093168 C39.3240604,78.5377975 37.8536296,52.4177306 37.856218,49.7142907 C37.8611347,44.5789992 40.480724,22.5446262 40.480724,22.5446262 C40.480724,22.5446262 40.26755,46.7983858 40.384489,57.0617129 C40.4412155,62.0404087 39.8805094,82.8968792 41.9900098,102.756803 C44.0995102,122.616726 49.144355,143.831297 49.144355,143.831297 C49.144355,143.831297 43.9786017,117.726192 41.9900098,96.7636434 C40.0014178,75.8010947 40.2099225,68.0826714 41.2839983,68.0447349 C45.1049928,67.9097771 71.6156603,62.9605025 72.7952813,46.4147658 C74.7215372,19.3964928 52.3073494,5 40.417386,5 C28.5274226,5 6.55650081,20.393018 8.07477726,44.6621482 C9.59305371,68.9312785 37.244762,65.6149696 38.7198216,68.0447349 C39.30783,69.0133212 39.9467002,74.2778726 40.502442,80.2594397 C40.8024894,83.4889138 40.5826891,92.4525958 41.9900098,102.756803" id="Path-697"></path>
            <path d="M105.699038,147.440297 C105.699038,147.440297 108.25591,133.648539 110.921859,112.093168 C113.587808,90.5377975 115.058239,64.4177306 115.055651,61.7142907 C115.050734,56.5789992 112.431145,34.5446262 112.431145,34.5446262 C112.431145,34.5446262 112.644319,58.7983858 112.52738,69.0617129 C112.470653,74.0404087 113.031359,94.8968792 110.921859,114.756803 C108.812359,134.616726 105.699038,147.440297 105.699038,147.440297 C105.699038,147.440297 108.933267,129.726192 110.921859,108.763643 C112.910451,87.8010947 112.644958,79.4522691 111.570882,79.4143326 C107.749887,79.2793748 81.2962085,74.9605025 80.1165875,58.4147658 C78.1903316,31.3964928 100.604519,17 112.494483,17 C124.384446,17 146.355368,32.393018 144.837092,56.6621482 C143.318815,80.9312785 115.667107,77.6149696 114.192047,80.0447349 C113.604039,81.0133212 112.965169,86.2778726 112.409427,92.2594397 C112.109379,95.4889138 112.32918,104.452596 110.921859,114.756803 C109.514538,125.06101 105.699038,147.440297 105.699038,147.440297 Z" id="Path-697"></path>
        </g>
    </g>
</svg>