<?xml version="1.0" encoding="UTF-8"?>
<svg width="152px" height="152px" viewBox="0 0 152 152" version="1.1" xmlns="http://www.w3.org/2000/svg" xmlns:xlink="http://www.w3.org/1999/xlink">
    <!-- Generator: Sketch 44.1 (41455) - http://www.bohemiancoding.com/sketch -->
    <title>whitebeans</title>
    <desc>Created with Sketch.</desc>
    <defs></defs>
    <g id="Page-1" stroke="none" stroke-width="1" fill="none" fill-rule="evenodd">
        <g id="whitebeans" stroke="#FF9677" stroke-width="2.2">
            <g id="Group" transform="translate(76.000000, 76.000000) rotate(180.000000) translate(-76.000000, -76.000000) translate(5.000000, 11.000000)">
                <path d="M19.8389304,118.644752 C20.4938631,120.044776 26.8891428,129.14108 40.3950291,129.14108 C53.9009155,129.14108 80.4174106,111.559458 83.8604774,98.7335315 C87.3035442,85.9076047 82.2696689,78.6145088 82.2696689,78.6145088 C82.2696689,78.6145088 78.8584901,69.6930363 68.9537828,70.2337917 C60.8631752,70.6755048 56.4955513,76.8476162 54.4286442,79.8723701 C52.3617372,82.8971239 48.0678787,86.1312274 45.5919916,87.3745785 C43.1161044,88.6179296 34.3774974,90.2842287 34.3774974,90.2842287 C34.3774974,90.2842287 22.8051287,92.4849905 19.8389304,103.038341 C16.8727322,113.591691 19.1839978,117.244728 19.8389304,118.644752 Z" id="Path-224"></path>
                <path d="M35.6451613,90.3803914 C35.6451613,90.3803914 40.5086308,101.575138 50.2666686,96.5369886 C60.0247064,91.4988392 52.7362207,82.0918866 52.7362207,82.0918866" id="Path-225"></path>
                <path d="M65.2258819,10.4963279 C64.5709493,9.09630376 58.1756696,-2.48689958e-14 44.6697832,-2.48689958e-14 C31.1638969,-1.63954325e-14 4.64740171,17.5816214 1.20433494,30.4075482 C-2.23873183,43.2334751 2.79514341,50.526571 2.79514341,50.526571 C2.79514341,50.526571 6.20632222,59.4480435 16.1110295,58.9072881 C24.2016372,58.4655749 28.569261,52.2934635 30.6361681,49.2687097 C32.7030752,46.2439558 36.9969337,43.0098524 39.4728208,41.7665013 C41.9487079,40.5231501 50.6873149,38.8568511 50.6873149,38.8568511 C50.6873149,38.8568511 62.2596837,36.6560893 65.2258819,26.1027391 C68.1920802,15.549389 65.8808146,11.896352 65.2258819,10.4963279 Z" id="Path-224"></path>
                <path d="M49.9506626,38.7843125 C49.9506626,38.7843125 45.0871931,27.5895658 35.3291553,32.6277152 C25.5711175,37.6658646 32.8596032,47.0728172 32.8596032,47.0728172" id="Path-225"></path>
                <path d="M123.349929,74.8228593 C124.889522,74.6862603 135.624566,71.7877823 140.243851,59.0964006 C144.863136,46.4050189 137.410992,15.4743953 126.536161,7.85224557 C115.661331,0.230095798 107.086375,2.4660055 107.086375,2.4660055 C107.086375,2.4660055 97.5362417,2.62014175 94.6567761,12.1124714 C92.3046999,19.8662304 96.6107721,26.0814408 98.7461872,29.0582249 C100.881602,32.0350089 102.452079,37.1760446 102.773644,39.9278686 C103.095208,42.6796926 101.672238,51.4612049 101.672238,51.4612049 C101.672238,51.4612049 99.7822941,63.0883793 108.6847,69.4851523 C117.587106,75.8819252 121.810337,74.9594582 123.349929,74.8228593 Z" id="Path-224"></path>
                <path d="M101.317549,50.8008929 C101.317549,50.8008929 113.500575,50.0595553 112.103708,39.1668506 C110.706842,28.274146 99.3743891,31.9057149 99.3743891,31.9057149" id="Path-225"></path>
            </g>
        </g>
    </g>
</svg>