<?xml version="1.0" encoding="UTF-8"?>
<svg width="152px" height="152px" viewBox="0 0 152 152" version="1.1" xmlns="http://www.w3.org/2000/svg" xmlns:xlink="http://www.w3.org/1999/xlink">
    <!-- Generator: Sketch 44.1 (41455) - http://www.bohemiancoding.com/sketch -->
    <title>vinegarwine</title>
    <desc>Created with Sketch.</desc>
    <defs></defs>
    <g id="Page-1" stroke="none" stroke-width="1" fill="none" fill-rule="evenodd">
        <g id="vinegarwine" stroke="#FF9677">
            <path d="M76.464884,3 L68.3821465,3 C68.3821465,3 66.3007135,3.06243358 65.7480883,4.21588585 C65.195463,5.36933812 65.2164058,9.60760769 65.2164058,9.60760769 L65.2164058,16.2896904 C65.2164058,16.2896904 65.3491445,17.0450593 65.7480883,17.2084596 C66.147032,17.37186 67.4595904,17.2084596 67.4595904,17.2084596 L67.549621,32.2600776 C67.549621,32.2600776 67.3571098,35.1712474 66.186103,36.615348 C65.0150962,38.0594486 60.4491233,41.016502 60.4491233,41.016502 C60.4491233,41.016502 56.517802,43.3711838 55.424569,46.2118505 C54.3313361,49.0525173 54.0000861,57.773741 54.0000861,57.773741 L54.0000861,140.729627 C54.0000861,140.729627 53.9630651,143.858079 55.424569,146.161946 C56.8860729,148.465812 59.6094691,148.225887 59.6094691,148.225887 L76.464884,148.225887" id="Path-619" stroke-width="2.2" stroke-linejoin="round"></path>
            <path d="M97.3069892,3 L89.2242517,3 C89.2242517,3 87.1428188,3.06243358 86.5901935,4.21588585 C86.0375683,5.36933812 86.058511,9.60760769 86.058511,9.60760769 L86.058511,16.2896904 C86.058511,16.2896904 86.1912498,17.0450593 86.5901935,17.2084596 C86.9891372,17.37186 88.3016956,17.2084596 88.3016956,17.2084596 L88.3917263,32.2600776 C88.3917263,32.2600776 88.1992151,35.1712474 87.0282083,36.615348 C85.8572015,38.0594486 81.2912286,41.016502 81.2912286,41.016502 C81.2912286,41.016502 77.3599072,43.3711838 76.2666743,46.2118505 C75.1734413,49.0525173 74.8421913,57.773741 74.8421913,57.773741 L74.8421913,140.729627 C74.8421913,140.729627 74.8051704,143.858079 76.2666743,146.161946 C77.7281781,148.465812 80.4515744,148.225887 80.4515744,148.225887 L97.3069892,148.225887" id="Path-619" stroke-width="2.2" stroke-linejoin="round" transform="translate(86.074547, 75.616508) scale(-1, 1) translate(-86.074547, -75.616508) "></path>
            <path d="M65.5789474,17.0169972 L84.8676224,17.016" id="Path-620" stroke-width="2.2"></path>
            <rect id="Rectangle" stroke-width="1.9" x="59.5815789" y="65.854" width="31.6789474" height="62.34" rx="5"></rect>
            <g id="Group" transform="translate(63.000000, 83.000000)" stroke-width="1.5">
                <path d="M16.8118752,20.9213038 C16.9342577,21.4213523 17,21.9512926 17,22.5 C17,25.5375661 14.9852814,28 12.5,28 C10.0147186,28 8,25.5375661 8,22.5 C8,21.9512926 8.06574225,21.4213523 8.18812476,20.9213038 C8.45236264,20.9730794 8.72356147,21 9,21 C10.3627267,21 11.5981247,20.345809 12.5,19.2848597 C13.4018753,20.345809 14.6372733,21 16,21 C16.2764385,21 16.5476374,20.9730794 16.8118752,20.9213038 Z" id="Combined-Shape"></path>
                <path d="M12.5,19.2848597 C11.5981247,20.345809 10.3627267,21 9,21 C6.23857625,21 4,18.3137085 4,15 C4,13.9019846 4.24578769,12.8728574 4.67494202,11.9875236 C4.78240622,11.9957988 4.89079426,12 5,12 C6.3627267,12 7.59812466,11.345809 8.5,10.2848597 C9.32960115,11.260787 10.4414114,11.8925371 11.674942,11.9875236 C11.2457877,12.8728574 11,13.9019846 11,15 C11,16.6784365 11.5743189,18.1959057 12.5,19.2848597 Z" id="Combined-Shape"></path>
                <path d="M11.8368179,11.996865 C11.7826372,11.9947803 11.7286741,11.9916612 11.674942,11.9875236 C11.2457877,12.8728574 11,13.9019846 11,15 C11,18.3137085 13.2385763,21 16,21 C18.7614237,21 21,18.3137085 21,15 C21,13.8297424 20.7208059,12.7377359 20.2379878,11.8146647 C19.8420824,11.9356788 19.4273008,12 19,12 C17.6372733,12 16.4018753,11.345809 15.5,10.2848597 C15.0490623,10.8153343 14.514744,11.2441194 13.9228193,11.5402858 C13.3308945,11.8364523 12.6813634,12 12,12 C11.9453963,12 11.890997,11.9989497 11.8368154,11.9968649 Z" id="Combined-Shape"></path>
                <path d="M8.5,1.71514032 C7.59812466,0.65419099 6.3627267,0 5,0 C2.23857625,0 0,2.6862915 0,6 C0,9.3137085 2.23857625,12 5,12 C6.3627267,12 7.59812466,11.345809 8.5,10.2848597 C7.57431888,9.19590568 7,7.67843646 7,6 C7,4.32156354 7.57431888,2.80409432 8.5,1.71514032 Z" id="Combined-Shape"></path>
                <path d="M15.5,10.2848597 C16.4018753,11.345809 17.6372733,12 19,12 C21.7614237,12 24,9.3137085 24,6 C24,2.6862915 21.7614237,0 19,0 C17.6372733,0 16.4018753,0.65419099 15.5,1.71514032 C16.4256811,2.80409432 17,4.32156354 17,6 C17,7.67843646 16.4256811,9.19590568 15.5,10.2848597 Z" id="Combined-Shape"></path>
                <ellipse id="Oval-29" cx="12" cy="6" rx="5" ry="6"></ellipse>
            </g>
        </g>
    </g>
</svg>