<?xml version="1.0" encoding="UTF-8"?>
<svg width="152px" height="152px" viewBox="0 0 152 152" version="1.1" xmlns="http://www.w3.org/2000/svg" xmlns:xlink="http://www.w3.org/1999/xlink">
    <!-- Generator: Sketch 44.1 (41455) - http://www.bohemiancoding.com/sketch -->
    <title>tamari</title>
    <desc>Created with Sketch.</desc>
    <defs></defs>
    <g id="Page-1" stroke="none" stroke-width="1" fill="none" fill-rule="evenodd">
        <g id="tamari" stroke="#FF0000">
            <g id="Group" transform="translate(51.000000, 4.000000)" stroke-width="2.2">
                <path d="M25.4831067,0.772909489 L25.0248028,0.772909489 L13.701755,0.982519206 C13.701755,0.982519206 11.9058063,0.969215878 11.3885758,1.2714827 C10.8713454,1.57374951 10.8680268,2.63853531 10.8680268,2.63853531 L10.2619293,18.4635722 C10.2619293,18.4635722 10.1079906,19.7650531 10.4003529,20.087355 C10.6927152,20.409657 12.1840394,20.5825179 12.1840394,20.5825179 L10.4003529,52.0378832 C10.4003529,52.0378832 10.1810874,58.3740863 9.07657571,61.5478846 C7.97206403,64.7216829 5.11158387,67.2350844 5.11158387,67.2350844 C5.11158387,67.2350844 2.32945902,70.3296532 1.64244848,72.4852614 C0.95543794,74.6408696 0.735421654,80.9660109 0.735421654,80.9660109 L0.720590557,132.732657 C0.720590557,132.732657 0.366941883,136.455511 2.48355085,139.410356 C4.60015981,142.365201 9.80856394,143.466996 9.80856394,143.466996 L25.0248028,144.110657" id="Path-598"></path>
                <path d="M49.0405709,0.772909489 L37.7175231,0.982519206 C37.7175231,0.982519206 35.9215744,0.969215878 35.4043439,1.2714827 C34.8871135,1.57374951 34.8837949,2.63853531 34.8837949,2.63853531 L34.2776974,18.4635722 C34.2776974,18.4635722 34.1237587,19.7650531 34.416121,20.087355 C34.7084833,20.409657 36.1998075,20.5825179 36.1998075,20.5825179 L34.416121,52.0378832 C34.416121,52.0378832 34.1968555,58.3740863 33.0923438,61.5478846 C31.9878321,64.7216829 29.127352,67.2350844 29.127352,67.2350844 C29.127352,67.2350844 26.3452271,70.3296532 25.6582166,72.4852614 C24.971206,74.6408696 24.7511897,80.9660109 24.7511897,80.9660109 L24.7363586,132.732657 C24.7363586,132.732657 24.38271,136.455511 26.4993189,139.410356 C28.6159279,142.365201 33.824332,143.466996 33.824332,143.466996 L49.3587777,144.093541" id="Path-598" transform="translate(37.036475, 72.433225) scale(-1, 1) translate(-37.036475, -72.433225) "></path>
                <path d="M0.964215467,78.6863572 C0.964215467,78.6863572 10.505567,80.8516115 25.1509559,80.8516115 C39.7963447,80.8516115 49.3376963,78.6863572 49.3376963,78.6863572 L49.3376963,132.288157 C49.3376963,132.288157 40.0219441,135.856369 25.1509559,135.856369 C10.2799676,135.856369 1.10102439,132.288157 1.10102439,132.288157" id="Path-599"></path>
                <path d="M12.1913112,20.4959635 C12.1913112,20.4959635 18.8336634,21.534943 25.1536189,21.534943 C31.4735744,21.534943 38.1159266,20.661788 38.1159266,20.661788" id="Path-600" transform="translate(25.153738, 21.015451) rotate(-0.500000) translate(-25.153738, -21.015451) "></path>
                <path d="M11.0553952,10.2203721 C11.0553952,10.2203721 18.8341111,10.7537219 25.1540665,10.7537219 C31.474022,10.7537219 39.2527378,10.3861966 39.2527378,10.3861966" id="Path-600"></path>
            </g>
            <path d="M57.6647596,118 C57.2313327,116.406856 57,114.730443 57,113 C57,111.627834 57.1454573,110.289641 57.4217938,109 L94.5782062,109 C94.8545427,110.289641 95,111.627834 95,113 C95,114.730443 94.7686673,116.406856 94.3352404,118 L57.6647596,118 Z M59.8414308,123 C63.1918021,128.402242 69.1757503,132 76,132 C82.8242497,132 88.8081979,128.402242 92.1585692,123 L59.8414308,123 Z M59.2626134,104 C62.4707667,98.0462903 68.7628525,94 76,94 C83.2371475,94 89.5292333,98.0462903 92.7373866,104 L59.2626134,104 Z" id="Combined-Shape" stroke-width="1.3"></path>
        </g>
    </g>
</svg>