<?xml version="1.0" encoding="UTF-8"?>
<svg width="152px" height="152px" viewBox="0 0 152 152" version="1.1" xmlns="http://www.w3.org/2000/svg" xmlns:xlink="http://www.w3.org/1999/xlink">
    <!-- Generator: Sketch 44.1 (41455) - http://www.bohemiancoding.com/sketch -->
    <title>bellpepper</title>
    <desc>Created with Sketch.</desc>
    <defs></defs>
    <g id="Page-1" stroke="none" stroke-width="1" fill="none" fill-rule="evenodd">
        <g id="bellpepper" stroke="#979797" stroke-width="2">
            <g id="Group" transform="translate(14.000000, 4.000000)">
                <path d="M40.5079482,116.319172 C38.156383,109.956946 28.6001226,73.9033445 38.2445979,46.7483462 C50.055147,20.8199984 78.497,20.8732751 87.6393699,44.6931306 C98.2365999,72.3035303 94.4066945,103.243091 81.5245315,126.237353 C58.7212399,166.940522 42.8595134,122.681398 40.5079482,116.319172 Z" id="Path-695"></path>
                <path d="M48.7698042,33.0388171 C45.3037661,31.2303464 17.2501761,9.62202009 5.14910355,36.1104778 C-6.95196903,62.5989356 5.14910355,167.615208 49.5571067,134.292546" id="Path-696"></path>
                <path d="M122.778938,31.7644809 C119.3129,29.9560101 93.8119276,9.62202009 81.710855,36.1104778 C69.6097824,62.5989356 79.5139382,167.084201 123.921941,133.761539" id="Path-696" transform="translate(100.437631, 81.430463) scale(-1, 1) translate(-100.437631, -81.430463) "></path>
                <path d="M59.0358316,28.0781085 C58.7668278,23.9290635 63.7810562,17.0716066 61.4084439,12.1186699 C59.0358316,7.16573311 52.7628396,11.8421673 51.4922566,10.6583952 C49.8552589,9.13324314 44.7713623,8.4952481 46.5686163,7.16573311 C72.0409974,-11.6774088 71.6962273,14.1800258 67.8150482,28.0781085" id="Path-698"></path>
            </g>
        </g>
    </g>
</svg>