<?xml version="1.0" encoding="UTF-8"?>
<svg width="152px" height="152px" viewBox="0 0 152 152" version="1.1" xmlns="http://www.w3.org/2000/svg" xmlns:xlink="http://www.w3.org/1999/xlink">
    <!-- Generator: Sketch 44.1 (41455) - http://www.bohemiancoding.com/sketch -->
    <title>capers</title>
    <desc>Created with Sketch.</desc>
    <defs></defs>
    <g id="Page-1" stroke="none" stroke-width="1" fill="none" fill-rule="evenodd" stroke-linecap="round">
        <g id="capers" stroke="#AD5D11" stroke-width="2">
            <g id="Group" transform="translate(6.000000, 53.000000)">
                <path d="M72.5036154,32.344897 C54.1453727,13.0779628 44.6763646,44.0019518 60.3407981,53.8581809 C70.6000919,60.3134384 82.1685072,40.7412952 74.4186588,34.2798279 L72.5036154,32.344897 Z" id="Path-61"></path>
                <path d="M101.02042,28.1046624 C75.6494905,4.10686725 83.6505834,55.5459321 101.02042,46.47665 C113.654004,39.8802995 107.478874,11.7141363 94.388372,21.7581945" id="Path-62"></path>
                <path d="M112.198878,18.7404455 C152.54029,3.09178635 134.155087,64.420956 108.019813,33.391042" id="Path-63"></path>
                <path d="M89.2971635,21.2229643 C89.2971635,21.2229643 88.5284195,19.5223961 87.9588618,18.7331845 C87.3893042,17.9439729 86.1093539,16.8057533 86.1093539,16.8057533 C68.9798169,4.89174788 61.3801406,40.0949372 85.558211,35.825423" id="Path-64"></path>
                <path d="M86.1071689,15.4754116 C90.4901333,-5.7282022 114.774159,-2.8539112 104.192196,13.6419507" id="Path-65"></path>
                <path d="M107.797561,7.23368063 C116.505567,9.99373361 112.639728,18.2617411 108.780305,23.6834548" id="Path-66"></path>
                <path d="M52.3657162,35.9626739 C50.8110399,33.1373868 50.0628403,29.6855409 47.7016873,27.4868124 C14.1650403,-3.74283844 21.683462,72.1027461 53.0546513,44.7015398" id="Path-67"></path>
                <path d="M25.2506159,21.1612796 C-10.1864701,0.888117885 -5.414827,57.4384605 26.0283059,37.0665208" id="Path-68"></path>
                <path d="M20.3271605,18.4464638 C20.1335939,11.2149175 25.2845372,3.91220242 36.2535243,13.4762147" id="Path-69"></path>
                <path d="M35.3753563,19.6191327 C39.3479492,3.22329599 55.1483984,-5.72344235 60.0766745,15.3488665" id="Path-70"></path>
                <path d="M47.6991566,25.7496751 C50.4882826,13.9637654 65.5527709,11.6193844 70,23" id="Path-72"></path>
                <path d="M107.263532,6.92842991 C108.506171,1.89487615 112.192618,1.70302763 114.125757,2.12111446" id="Path-73"></path>
                <path d="M50.6458333,6.39568377 C51.4034887,1.36213002 52.9903634,1.08477281 55.9098091,1.0658141e-14" id="Path-73"></path>
                <path d="M60.9320905,47.6790571 C60.9320905,44.0618155 63.1698895,42.2267168 64.7576253,42.580933" id="Path-73" transform="translate(62.844858, 45.108395) rotate(180.000000) translate(-62.844858, -45.108395) "></path>
                <path d="M135.260224,33.5242 C136.01788,30.545769 137.604754,30.3816525 140.5242,29.7397758" id="Path-73" transform="translate(137.892212, 31.631988) rotate(90.000000) translate(-137.892212, -31.631988) "></path>
                <path d="M19.8572252,4.45729104 C22.8356562,5.21494644 22.9997727,6.80182113 23.6416494,9.7212668" id="Path-73"></path>
            </g>
        </g>
    </g>
</svg>