<?xml version="1.0" encoding="UTF-8"?>
<svg width="152px" height="152px" viewBox="0 0 152 152" version="1.1" xmlns="http://www.w3.org/2000/svg" xmlns:xlink="http://www.w3.org/1999/xlink">
    <!-- Generator: Sketch 44.1 (41455) - http://www.bohemiancoding.com/sketch -->
    <title>cauliflower</title>
    <desc>Created with Sketch.</desc>
    <defs></defs>
    <g id="Page-1" stroke="none" stroke-width="1" fill="none" fill-rule="evenodd" stroke-linecap="round">
        <g id="cauliflower" stroke="#979797" stroke-width="2">
            <g id="Group" transform="translate(6.000000, 18.000000)">
                <path d="M10.3678866,42.5578385 C9.77623936,39.3193627 9.89822191,36.3491083 10.7338343,33.6470755 C11.7435668,30.3820081 16.1241474,28.167652 19.2138074,28.2298391 L20.131248,31.1297252 C18.2745263,26.3961225 18.656789,22.6739242 21.2780359,19.9631301 C23.8992829,17.2523361 27.5274912,16.6962133 32.1626608,18.2947616 C32.3867686,12.5641754 34.0502607,8.87146657 37.1531373,7.21663525 C40.2560139,5.56180393 44.3370556,5.97872981 49.3962624,8.4674129 L46.691083,7.21663525 C47.0743666,6.52537649 51.4400381,0.992004931 57.3280643,0.140044562 C62.0019762,-0.536241113 66.3927224,1.23684884 70.500303,5.45931441 C73.0707406,1.29616084 76.8362362,-0.192942321 81.7967898,0.992004931 C86.7573434,2.17695218 89.2371768,4.66875484 89.2362902,8.4674129 C93.8563876,5.51679229 97.8990836,5.0998664 101.364378,7.21663525 C104.829673,9.3334041 106.452792,13.3291101 106.233734,19.2037532 L106.233734,14.6716121 C107.3417,14.3867027 115.258832,14.6716121 118.547439,18.2947616 C120.678134,20.6422071 121.153134,24.5020409 119.972439,29.874263 C124.923683,29.2421138 128.191043,30.1404661 129.774519,32.5693198 C131.357995,34.9981735 130.946763,37.5785686 128.540822,40.310505" id="Path-132" stroke-linejoin="round"></path>
                <path d="M67.4919421,42.7555058 C77.4666387,42.7555058 82.0856361,57.6620467 80.7972512,67.4268612 C80.6226963,68.7498322 87.292325,59.9463527 90.7639585,63.4268612 C93.0783809,65.7472002 91.9747149,75.847495 87.4529606,93.7277457 C86.9910468,94.5667295 86.4788975,95.7243576 85.9165128,97.20063 C84.9568356,100.078599 81.9213639,104.355031 76.8100974,110.029926 C81.8854758,103.924965 84.9209476,99.6485327 85.9165128,97.20063 C87.4098606,93.528776 90.8666695,85.424811 92.4026689,83.5397433 C96.5095038,78.4995969 95.6529829,88.6948546 96.8588946,85.4248772 C97.8915675,82.6246577 106.672602,54.6043293 111.412032,50.8758825 C114.601996,48.3663796 117.579077,48.6993566 120.343275,51.8748135 C123.990809,41.0874215 129.122536,37.6496918 135.738457,41.5616245 C140.19299,44.1955486 139.327743,50.2246156 133.142715,59.6488254 C132.722073,60.8251874 140.558346,55.8463959 138.875936,63.765134 C137.754329,69.0442927 133.224122,76.1147584 125.285315,84.976531 C129.046046,84.0559181 130.123361,85.3748183 128.517261,88.9332316 C126.911161,92.4916449 121.520373,96.1690475 112.344896,99.9654395 C104.243718,107.177526 94.1572983,111.427435 82.0856361,112.715168 C98.1560137,100.554132 108.934689,91.2736454 114.421661,84.8737088 C119.908633,78.4737721 123.529851,70.4032181 125.285315,60.6620467 C122.802954,71.2510624 119.181736,79.3216165 114.421661,84.8737088 C109.661586,90.4258011 98.8829113,99.7062877 82.0856361,112.715168 L67.4919421,114.684895 L63,114.242393 C64.953178,115.517003 66.6085196,116.16415 67.9660248,116.183834 C69.32353,116.203518 71.6283919,115.556372 74.8806104,114.242393" id="Path-133" stroke-linejoin="round"></path>
                <path d="M0,42.9056247 C9.97469662,42.9056247 14.593694,57.8121656 13.3053091,67.5769801 C13.1307543,68.8999511 19.800383,60.0964717 23.2720165,63.5769801 C25.5864388,65.8973191 24.4827729,75.9976139 19.9610186,93.8778646 C19.4991047,94.7168484 18.9869554,95.8744765 18.4245707,97.350749 C17.4648936,100.228718 14.4294218,104.50515 9.31815537,110.180045 C14.3935337,104.075084 17.4290055,99.7986516 18.4245707,97.350749 C19.9179185,93.678895 23.3747275,85.5749299 24.9107268,83.6898623 C29.0175618,78.6497158 28.1610409,88.8449736 29.3669525,85.5749961 C30.5728641,82.3050187 31.3062205,63.3530666 33.2522599,59.6292317 C35.1982994,55.9053968 40.2302344,63.9364775 41.6335831,60.8121656 C42.7331486,53.5915271 44.8627412,48.7383923 48.0223609,46.252761 C51.2123251,43.7432582 53.4045887,44.0567423 54.5991516,47.1932135 C61.4246839,37.25601 66.0196313,35.3748589 68.3839937,41.5497603 C69.7750899,45.182825 68.2218003,52.0216311 65.4360733,59.8121656 C65.0154316,60.9885276 70.0664042,56.9965148 68.3839937,64.9152529 C67.2623868,70.1944116 62.7321798,77.2648773 54.7933726,86.1266499 C58.5541039,85.2060371 59.6314194,86.5249373 58.0253192,90.0833505 C56.419219,93.6417638 51.3617638,96.9858331 42.8529535,100.115558 C34.751776,107.327645 25.3320229,111.577554 14.593694,112.865287 C30.6640716,100.704251 41.4427466,91.4237644 46.9297189,85.0238277 C52.4166912,78.623891 55.0379091,70.8866703 54.7933726,61.8121656 C54.3110115,71.7345147 51.6897936,79.4717354 46.9297189,85.0238277 C42.1696442,90.57592 31.3909692,99.8564066 14.593694,112.865287 L0,114.835014 C2.36215176,101.877055 3.58971542,91.9742668 3.68269096,85.1266499 C3.77566651,78.279033 2.81259498,68.7020684 0.793476351,56.3957561" id="Path-133" stroke-linejoin="round" transform="translate(34.451096, 76.417507) scale(-1, 1) translate(-34.451096, -76.417507) "></path>
                <path d="M38.4775026,37.5822888 C37.3427148,31.2144886 38.2305495,27.5768443 41.1410068,26.6693559 C44.0514641,25.7618674 47.4894528,25.7618674 51.454973,26.6693559 C52.0231921,22.4702992 54.6764276,19.9637398 59.4146793,19.1496777 C64.1529311,18.3356155 66.9408156,20.8421749 67.7783329,26.6693559" id="Path-134"></path>
                <path d="M87,31.0131177 C90.8293392,28.7674684 94.9232912,28.4005992 99.2818562,29.9125103 C103.640421,31.4244214 105.758464,34.6746883 105.635984,39.6633112" id="Path-135"></path>
            </g>
        </g>
    </g>
</svg>