<?xml version="1.0" encoding="UTF-8"?>
<svg width="152px" height="152px" viewBox="0 0 152 152" version="1.1" xmlns="http://www.w3.org/2000/svg" xmlns:xlink="http://www.w3.org/1999/xlink">
    <!-- Generator: Sketch 44.1 (41455) - http://www.bohemiancoding.com/sketch -->
    <title>chanterelle</title>
    <desc>Created with Sketch.</desc>
    <defs></defs>
    <g id="Page-1" stroke="none" stroke-width="1" fill="none" fill-rule="evenodd" stroke-linecap="round">
        <g id="chanterelle" stroke="#F95604">
            <g id="Group" transform="translate(2.000000, 29.000000)">
                <path d="M57.7444371,40.7090154 C75.6762641,75.2660285 88.8516218,51.5373909 105.051188,53.0865899 C108.955856,53.4600017 112.870199,56.9904768 116.543568,55.6153302 C122.690058,53.3143565 126.064953,46.3961871 131.737769,43.0963165 C133.553464,42.0401284 145.232733,41.9474246 146.920514,37.3454204 C150.328682,28.052511 145.1929,20.9299138 136.622619,19.2962585" id="Path-31" stroke-width="2"></path>
                <path d="M57.5530827,40.3576431 C51.9435592,19.2608515 77.0387126,-6.88226936 98.1920901,1.74584074" id="Path-32" stroke-width="2"></path>
                <path d="M97.9899189,1.70131569 C105.89357,3.05817059 110.838687,-1.23640261 117.814418,1.17584665" id="Path-33" stroke-width="2"></path>
                <path d="M117.814418,1.17584665 C128.470658,8.63597668 136.13666,4.85481446 136.583704,19.2857632" id="Path-34" stroke-width="2"></path>
                <path d="M85.2426801,59.0965299 C87.0681595,59.7003875 98.5600732,79.2102399 98.5600732,79.2102399 C98.5600732,79.2102399 106.02959,79.2102399 106.02959,79.2102399 L109.819357,84.3184625 L108.406674,87.9557728 L115.625088,86.9499897 L121.481218,81.3662121 C121.481218,81.3662121 115.174834,76.8801619 112.942258,73.4869908 C110.709681,70.0938197 108.82339,55.0323753 108.82339,55.0323753" id="Path-36" stroke-width="2" stroke-linejoin="round"></path>
                <path d="M19.2078219,78.694303 C2.60554691,74.7765372 6.01266258,67.7360255 6.94187893,51.1918557" id="Path-38" stroke-width="2"></path>
                <path d="M7.02797201,51.0800186 C7.02797201,50.4407002 8.55952648,47.0546451 8.91442141,44.9880995 C9.26931634,42.9215539 8.65564802,39.8180074 8.91442141,38.8961804" id="Path-39" stroke-width="2"></path>
                <path d="M8.99426373,38.7357475 C11.4234981,27.7921637 21.8109815,18.9848961 32.1645123,24.5406195" id="Path-40" stroke-width="2"></path>
                <path d="M32.2958632,24.613458 C43.0181378,23.7822684 51.0555476,13.1998567 58.3709877,23.5128325" id="Path-41" stroke-width="2"></path>
                <path d="M60.5681602,19.6162243 C47.2314928,7.79457586 43.60903,21.0603889 30.3521583,20.8014239" id="Path-43" stroke-width="2"></path>
                <path d="M30.3521583,20.8014239 C8.03968001,18.269712 5.12928849,26.1660631 3.80956951,47.3043478" id="Path-44" stroke-width="2"></path>
                <path d="M3.78582642,47.3043478 C-4.16141063,62.4587927 0.432621927,79.3539745 18.7986597,78.7929159" id="Path-45" stroke-width="2"></path>
                <path d="M18.6827808,78.833182 C35.1022587,77.1641021 26.681512,79.9558502 42.7743598,67.5247057" id="Path-46" stroke-width="2"></path>
                <path d="M15.4641856,63.7297645 C27.60944,64.119596 41.4878112,62.5636456 52.7210918,69.1843486 C86.4782572,89.0802435 79.3461718,100.545766 106.031575,92.2914988" id="Path-47" stroke-width="2"></path>
                <path d="M106.031575,92.2914988 C110.675144,82.564908 111.560893,86.7534253 105.124186,79.4803155" id="Path-48" stroke-width="2"></path>
                <path d="M105.124186,79.4803155 C84.6123225,79.919337 87.765939,75.5115018 70.1623212,56.9489077" id="Path-49" stroke-width="2"></path>
                <path d="M7.81332009,58.4956089 C22.9814407,57.3162125 41.6169617,59.0377429 57.7970567,66.8392997" id="Path-50"></path>
                <path d="M10.6968919,53.4857934 C28.591723,54.0738917 33.507499,54.154025 52.0080543,63.6022734" id="Path-51"></path>
                <path d="M12.746715,47.3043478 C28.5639606,50.7425955 35.2554879,49.7277619 56.9670427,66.2689356" id="Path-52"></path>
                <path d="M12.5819727,73.1816117 C13.05202,71.7660014 15.2779011,66.3988707 28.0254456,63.1086085" id="Path-53"></path>
                <path d="M20.0806884,74.1566573 C20.1684092,73.9983676 21.1271817,67.9989366 32.6198998,64.2618346" id="Path-54"></path>
                <path d="M12.9442078,37.102339 C47.4780215,54.4431241 31.1838933,44.5554195 61.9252729,66.6023348" id="Path-55"></path>
                <path d="M16.552934,32.3820834 C42.5253043,45.8125332 28.1237657,37.1664869 58.3558014,60.2791122" id="Path-56"></path>
                <path d="M29.4447336,27.1426957 C37.8634478,39.7130064 37.9105672,39.5858432 52.9317075,56.0887516" id="Path-57"></path>
                <path d="M40.8956073,24.4521019 C41.8835605,33.7739889 43.1749632,38.4369805 45.1252334,42.7181119 C47.0755037,46.9992433 49.7404772,50.952428 56.736577,56.4932808" id="Path-58"></path>
                <path d="M51.9595338,23.5083712 C49.4985605,39.4218147 45.636462,38.2583691 53.4036734,53.0083669" id="Path-59"></path>
                <path d="M107.258777,32.3015112 C107.258777,32.3015112 115.86305,31.1118083 119.298214,25.9300349 C122.733377,20.7482615 121.814227,16.9628089 121.814227,16.9628089" id="Path-60" stroke-width="2"></path>
            </g>
        </g>
    </g>
</svg>