<?xml version="1.0" encoding="UTF-8"?>
<svg width="152px" height="152px" viewBox="0 0 152 152" version="1.1" xmlns="http://www.w3.org/2000/svg" xmlns:xlink="http://www.w3.org/1999/xlink">
    <!-- Generator: Sketch 44.1 (41455) - http://www.bohemiancoding.com/sketch -->
    <title>cheesehard</title>
    <desc>Created with Sketch.</desc>
    <defs></defs>
    <g id="Page-1" stroke="none" stroke-width="1" fill="none" fill-rule="evenodd">
        <g id="cheesehard" stroke="#F95604">
            <g id="Group" transform="translate(3.000000, 20.000000)">
                <path d="M51.5915253,24.5210657 L51.5915253,54.108414 L79.2792167,71.5825449 C79.2792167,71.5825449 86.8505676,67.1784957 87.217606,56.3193039 C87.5846445,45.4601122 81.1749078,38.7162538 81.1749078,38.7162538 L51.5915253,24.5210657 Z" id="Path-385" stroke-width="2.2" stroke-linecap="round" stroke-linejoin="round"></path>
                <path d="M51.4940478,24.6174367 L40.1178816,45.0093458 C40.1178816,45.0093458 35.7099105,56.1243428 35.7099105,65.8747712 C35.7099105,75.6251997 38.8434247,73.3517666 38.8434247,73.3517666 L51.4940478,53.7577563" id="Path-386" stroke-width="2.2" stroke-linecap="round" stroke-linejoin="round"></path>
                <path d="M37.6705218,73.5480452 C-3.34915104,67.2783866 -16.1898274,19.5896792 26.5962842,5.86141995 C42.6472094,0.711354784 64.620087,-2.00576006 81.6176206,5.86141995 C119.389063,23.3436467 115.090874,57.1987111 79.5704121,71.3825116" id="Path-387" stroke-width="2.2" stroke-linecap="round" stroke-linejoin="round"></path>
                <path d="M39.8046359,45.0093458 C4.48015958,35.0300812 -4.36266925,25.1926218 13.2457527,12.3556361" id="Path-388" stroke-width="2.2" stroke-linecap="round" stroke-linejoin="round"></path>
                <path d="M81.7399225,38.8843926 C101.55966,33.3388623 102.896714,20.9460914 96.3904336,15.1607788" id="Path-389" stroke-width="2.2" stroke-linecap="round" stroke-linejoin="round"></path>
                <path d="M112.459093,52.7657053 C140.939559,61.7392515 144.335761,63.3708243 144.335761,63.3708243" id="Path-390" stroke-width="2.2" stroke-linecap="round" stroke-linejoin="round"></path>
                <path d="M144.315285,63.3926523 C144.315285,63.3926523 136.670666,91.5366561 128.237434,104.297027 C121.628366,114.297244 103.903906,113.460515 101.509583,103.112142 C97.4098692,85.3929955 104.457592,66.9554218 112.380399,52.9169006" id="Path-391" stroke-width="2.2" stroke-linecap="round" stroke-linejoin="round"></path>
                <path d="M120.078583,110.364637 C120.699429,110.364637 131.4411,106.704479 136.360594,102.33455 C141.280089,97.9646221 144.200315,91.1772804 144.200315,91.1772804" id="Path-392" stroke-width="2.2" stroke-linecap="round" stroke-linejoin="round"></path>
                <path d="M144.200315,91.3444413 C145.469043,83.7217007 145.592109,71.1036968 144.412168,63.5958244" id="Path-393" stroke-width="2.2" stroke-linecap="round" stroke-linejoin="round"></path>
                <ellipse id="Oval-6" transform="translate(59.448339, 42.112053) rotate(30.000000) translate(-59.448339, -42.112053) " cx="59.448339" cy="42.1120532" rx="3.15107914" ry="2.09345794"></ellipse>
                <ellipse id="Oval-6" transform="translate(72.992874, 56.638324) rotate(30.000000) translate(-72.992874, -56.638324) " cx="72.9928737" cy="56.6383242" rx="4.8107809" ry="3.1961011"></ellipse>
                <ellipse id="Oval-6" transform="translate(67.157504, 39.554082) rotate(30.000000) translate(-67.157504, -39.554082) " cx="67.1575044" cy="39.5540816" rx="1.7434732" ry="1.15829774"></ellipse>
                <ellipse id="Oval-6" transform="translate(116.466092, 68.549837) rotate(20.000000) translate(-116.466092, -68.549837) " cx="116.466092" cy="68.5498368" rx="3.77927429" ry="5.30255947"></ellipse>
                <ellipse id="Oval-6" transform="translate(119.451471, 93.537082) rotate(20.000000) translate(-119.451471, -93.537082) " cx="119.451471" cy="93.5370825" rx="2.09104982" ry="1.87183857"></ellipse>
            </g>
        </g>
    </g>
</svg>