<?xml version="1.0" encoding="UTF-8"?>
<svg width="152px" height="152px" viewBox="0 0 152 152" version="1.1" xmlns="http://www.w3.org/2000/svg" xmlns:xlink="http://www.w3.org/1999/xlink">
    <!-- Generator: Sketch 44.1 (41455) - http://www.bohemiancoding.com/sketch -->
    <title>staranise</title>
    <desc>Created with Sketch.</desc>
    <defs></defs>
    <g id="Page-1" stroke="none" stroke-width="1" fill="none" fill-rule="evenodd">
        <g id="staranise" stroke="#979797" stroke-width="2">
            <g id="Group" transform="translate(5.000000, 5.000000)">
                <ellipse id="Oval" cx="71" cy="72.072" rx="5.72580645" ry="5.72"></ellipse>
                <path d="M71,65.5249671 C71,65.5249671 70.5892063,37.8596499 66.3938752,28.3221185 C62.198544,18.7845871 42.0657336,1.41028596 42.0657336,1.41028596 C42.0657336,1.41028596 37.4055043,24.2792754 42.0657336,36.685829 C46.7259629,49.0923826 66.3938752,67.2852514 66.3938752,67.2852514 C66.3938752,67.2852514 49.3547719,47.4260359 39.2766682,43.8505551 C29.1985645,40.2750742 0.773087188,42.8963843 0.773087188,42.8963843 C0.773087188,42.8963843 16.151667,62.3123056 27.546996,67.2852514 C38.9423251,72.2581971 65.3013626,71.0566605 65.3013626,71.0566605 C65.3013626,71.0566605 35.9542914,70.3679097 25.0151463,75.5367622 C14.0760013,80.7056147 0.293043779,101.773724 0.293043779,101.773724 C0.293043779,101.773724 24.5149174,103.762463 35.6041614,99.3145292 C46.6934053,94.8665956 65.7050065,75.5367622 65.7050065,75.5367622 C65.7050065,75.5367622 45.8994508,93.7048191 42.0657336,103.871013 C38.2320164,114.037208 40.3212788,142.848955 40.3212788,142.848955 C40.3212788,142.848955 62.1345431,130.229 67.7232495,117.753314 C73.3119559,105.277628 71,78.9317934 71,78.9317934 C71,78.9317934 69.6485933,104.674691 73.6821601,113.296387 C77.7157269,121.918084 99.6613263,140.195007 99.6613263,140.195007 C99.6613263,140.195007 101.604286,113.784729 97.0736333,101.773724 C92.5429802,89.7627189 75.5267075,76.2128365 75.5267075,76.2128365 C75.5267075,76.2128365 93.210582,95.3248879 103.559189,99.3145292 C113.907797,103.304171 141.235381,101.545138 141.235381,101.545138 C141.235381,101.545138 125.806162,80.2832429 115.509657,75.5367622 C105.213152,70.7902815 77.1332766,71.9953636 77.1332766,71.9953636 C77.1332766,71.9953636 105.867544,73.2228098 116.5114,68.5005427 C127.155257,63.7782756 141.957907,43.2351851 141.957907,43.2351851 C141.957907,43.2351851 116.232628,38.0428529 106.243964,41.6044976 C96.255299,45.1661422 74.8823617,67.1522216 74.8823617,67.1522216 C74.8823617,67.1522216 94.9538428,48.8876392 98.7274544,38.8237462 C102.501066,28.7598532 99.706001,0.949740935 99.706001,0.949740935 C99.706001,0.949740935 79.1754518,15.2871351 73.6821601,28.3221185 C68.1888684,41.3571019 72.4922681,65.5249671 72.4922681,65.5249671" id="Path-766" stroke-linecap="round" stroke-linejoin="round"></path>
                <path d="M62.0405833,49.7067754 C64.4228465,48.6032342 60.0507023,35.4118069 58.7594179,32.5428375 C57.4681335,29.6738681 54.8722198,26.0949046 52.2595697,27.1706459 C49.6469196,28.2463871 49.9173143,31.9999277 51.4642545,35.436912 C53.0111947,38.8738962 59.65832,50.8103166 62.0405833,49.7067754 Z" id="Path-767"></path>
                <path d="M88.3792929,49.7067754 C90.7615562,48.6032342 86.3894119,35.4118069 85.0981275,32.5428375 C83.8068432,29.6738681 81.2109294,26.0949046 78.5982794,27.1706459 C75.9856293,28.2463871 76.2560239,31.9999277 77.8029642,35.436912 C79.3499044,38.8738962 85.9970297,50.8103166 88.3792929,49.7067754 Z" id="Path-767" transform="translate(82.856089, 38.376746) rotate(45.000000) translate(-82.856089, -38.376746) "></path>
                <path d="M108.992196,69.1547754 C111.374459,68.0512342 107.002315,54.8598069 105.711031,51.9908375 C104.419746,49.1218681 101.823833,45.5429046 99.2111826,46.6186459 C96.5985325,47.6943871 96.8689272,51.4479277 98.4158674,54.884912 C99.9628076,58.3218962 106.609933,70.2583166 108.992196,69.1547754 Z" id="Path-767" transform="translate(103.468992, 57.824746) rotate(90.000000) translate(-103.468992, -57.824746) "></path>
                <path d="M108.992196,95.4667754 C111.374459,94.3632342 107.002315,81.1718069 105.711031,78.3028375 C104.419746,75.4338681 101.823833,71.8549046 99.2111826,72.9306459 C96.5985325,74.0063871 96.8689272,77.7599277 98.4158674,81.196912 C99.9628076,84.6338962 106.609933,96.5703166 108.992196,95.4667754 Z" id="Path-767" transform="translate(103.468992, 84.136746) rotate(135.000000) translate(-103.468992, -84.136746) "></path>
                <path d="M42.5728413,69.1547754 C44.9551046,68.0512342 40.5829603,54.8598069 39.2916759,51.9908375 C38.0003915,49.1218681 35.4044778,45.5429046 32.7918278,46.6186459 C30.1791777,47.6943871 30.4495723,51.4479277 31.9965126,54.884912 C33.5434528,58.3218962 40.1905781,70.2583166 42.5728413,69.1547754 Z" id="Path-767" transform="translate(37.049638, 57.824746) scale(-1, 1) rotate(90.000000) translate(-37.049638, -57.824746) "></path>
                <path d="M42.5728413,95.4667754 C44.9551046,94.3632342 40.5829603,81.1718069 39.2916759,78.3028375 C38.0003915,75.4338681 35.4044778,71.8549046 32.7918278,72.9306459 C30.1791777,74.0063871 30.4495723,77.7599277 31.9965126,81.196912 C33.5434528,84.6338962 40.1905781,96.5703166 42.5728413,95.4667754 Z" id="Path-767" transform="translate(37.049638, 84.136746) scale(-1, 1) rotate(135.000000) translate(-37.049638, -84.136746) "></path>
                <path d="M62.0405833,116.058775 C64.4228465,114.955234 60.0507023,101.763807 58.7594179,98.8948375 C57.4681335,96.0258681 54.8722198,92.4469046 52.2595697,93.5226459 C49.6469196,94.5983871 49.9173143,98.3519277 51.4642545,101.788912 C53.0111947,105.225896 59.65832,117.162317 62.0405833,116.058775 Z" id="Path-767" transform="translate(56.517379, 104.728746) scale(1, -1) translate(-56.517379, -104.728746) "></path>
                <path d="M88.3792929,116.058775 C90.7615562,114.955234 86.3894119,101.763807 85.0981275,98.8948375 C83.8068432,96.0258681 81.2109294,92.4469046 78.5982794,93.5226459 C75.9856293,94.5983871 76.2560239,98.3519277 77.8029642,101.788912 C79.3499044,105.225896 85.9970297,117.162317 88.3792929,116.058775 Z" id="Path-767" transform="translate(82.856089, 104.728746) scale(1, -1) rotate(45.000000) translate(-82.856089, -104.728746) "></path>
            </g>
        </g>
    </g>
</svg>