<?xml version="1.0" encoding="UTF-8"?>
<svg width="152px" height="152px" viewBox="0 0 152 152" version="1.1" xmlns="http://www.w3.org/2000/svg" xmlns:xlink="http://www.w3.org/1999/xlink">
    <!-- Generator: Sketch 44.1 (41455) - http://www.bohemiancoding.com/sketch -->
    <title>chestnut</title>
    <desc>Created with Sketch.</desc>
    <defs></defs>
    <g id="Page-1" stroke="none" stroke-width="1" fill="none" fill-rule="evenodd" stroke-linecap="round" stroke-linejoin="round">
        <g id="chestnut" stroke="#FF659B" stroke-width="2.2">
            <g id="Group-2" transform="translate(-23.000000, -23.000000)">
                <g id="Group" transform="translate(59.766407, 60.666344) rotate(320.000000) translate(-59.766407, -60.666344) translate(18.766407, 16.666344)">
                    <path d="M41.0787772,87.1746615 C41.0787772,87.1746615 18.0481465,88.9478809 5.36051123,69.4724385 C-7.327124,49.9969962 5.29555736,34.1811914 14.5211784,26.631474 C23.7467995,19.0817566 28.6549931,18.957163 33.8816063,13.4661895 C39.1082195,7.97521594 41.0787772,1.27897692e-13 41.0787772,1.27897692e-13" id="Path-234"></path>
                    <path d="M81.2960693,87.1746615 C81.2960693,87.1746615 58.2654386,88.9478809 45.5778034,69.4724385 C32.8901682,49.9969962 45.5128495,34.1811914 54.7384706,26.631474 C63.9640916,19.0817566 68.8722853,18.957163 74.0988984,13.4661895 C79.3255116,7.97521594 80.4345918,0.25511041 80.4345918,0.25511041" id="Path-234" transform="translate(60.756681, 43.735925) scale(-1, 1) translate(-60.756681, -43.735925) "></path>
                    <path d="M10.0245849,73.7963656 C10.0245849,73.7963656 8.18432817,58.8253618 40.9208729,58.8253618 C73.6574177,58.8253618 71.817161,73.7963656 71.817161,73.7963656" id="Path-236"></path>
                </g>
                <g id="Group" transform="translate(136.883991, 128.054941) rotate(30.000000) translate(-136.883991, -128.054941) translate(95.883991, 84.054941)">
                    <path d="M41.0787772,87.1746615 C41.0787772,87.1746615 18.0481465,88.9478809 5.36051123,69.4724385 C-7.327124,49.9969962 5.29555736,34.1811914 14.5211784,26.631474 C23.7467995,19.0817566 28.6549931,18.957163 33.8816063,13.4661895 C39.1082195,7.97521594 41.0787772,1.13686838e-13 41.0787772,1.13686838e-13" id="Path-234"></path>
                    <path d="M81.2960693,87.1746615 C81.2960693,87.1746615 58.2654386,88.9478809 45.5778034,69.4724385 C32.8901682,49.9969962 45.5128495,34.1811914 54.7384706,26.631474 C63.9640916,19.0817566 68.8722853,18.957163 74.0988984,13.4661895 C79.3255116,7.97521594 80.4345918,0.25511041 80.4345918,0.25511041" id="Path-234" transform="translate(60.756681, 43.735925) scale(-1, 1) translate(-60.756681, -43.735925) "></path>
                    <path d="M10.0245849,73.7963656 C10.0245849,73.7963656 8.18432817,58.8253618 40.9208729,58.8253618 C73.6574177,58.8253618 71.817161,73.7963656 71.817161,73.7963656" id="Path-236"></path>
                </g>
            </g>
        </g>
    </g>
</svg>