<?xml version="1.0" encoding="UTF-8"?>
<svg width="152px" height="152px" viewBox="0 0 152 152" version="1.1" xmlns="http://www.w3.org/2000/svg" xmlns:xlink="http://www.w3.org/1999/xlink">
    <!-- Generator: Sketch 44.1 (41455) - http://www.bohemiancoding.com/sketch -->
    <title>chiaseeds</title>
    <desc>Created with Sketch.</desc>
    <defs></defs>
    <g id="Page-1" stroke="none" stroke-width="1" fill="none" fill-rule="evenodd" stroke-linecap="round">
        <g id="chiaseeds" stroke="#11606F">
            <g id="Group-2" transform="translate(69.317280, 81.317280) rotate(-45.000000) translate(-69.317280, -81.317280) translate(-4.682720, 40.317280)">
                <path d="M76.0259107,63.2083333 C76.0259107,63.2083333 90.9787643,63.939452 99.3613495,51.8828808 C107.743935,39.8263096 103.327105,27.3333333 103.327105,27.3333333 C103.327105,27.3333333 91.4705728,23.8948686 80.9735341,37.3106707 C70.4764954,50.7264728 76.0259107,63.2083333 76.0259107,63.2083333 Z" id="Path-37" stroke-width="2.2" stroke-linejoin="round"></path>
                <path d="M66.9996624,36.4180654 C66.9996624,36.4180654 52.738964,36.0282808 44.32674,23.9290805 C35.914516,11.8298801 39.6019375,0.416220014 39.6019375,0.416220014 C39.6019375,0.416220014 51.8876054,-3.10826764 62.4217591,10.3549695 C72.9559128,23.8182067 66.9996624,36.4180654 66.9996624,36.4180654 Z" id="Path-37" stroke-width="2.2" stroke-linejoin="round"></path>
                <path d="M38.7065386,34.2689875 C38.7065386,34.2689875 36.563667,47.9259729 23.827072,53.7292538 C11.0904771,59.5325346 0.419020772,53.7292538 0.419020772,53.7292538 C0.419020772,53.7292538 -1.23255416,42.9788373 13.1328617,35.4342333 C27.4982775,27.8896294 38.7065386,34.2689875 38.7065386,34.2689875 Z" id="Path-37" stroke-width="2.2" stroke-linejoin="round"></path>
                <path d="M34.8076221,59.7379726 C34.8076221,59.7379726 35.9511769,73.5035669 48.7890613,79.3529991 C61.6269457,85.2024313 73.3996263,79.3529991 73.3996263,79.3529991 C73.3996263,79.3529991 74.876194,67.342576 60.3965354,59.7379726 C45.9168767,52.1333693 34.8076221,59.7379726 34.8076221,59.7379726 Z" id="Path-37" stroke-width="2.2" stroke-linejoin="round"></path>
                <path d="M7.87103861,48.4253331 C17.6773767,44.2334439 20.9146614,40.5048362 37.2900529,35.8496655" id="Path-289" stroke-width="1.5"></path>
                <g id="Group" transform="translate(129.441266, 58.059344) rotate(250.000000) translate(-129.441266, -58.059344) translate(109.941266, 45.559344)">
                    <path d="M38.3452412,2.51916616 C38.3452412,2.51916616 36.2023697,16.1761515 23.4657747,21.9794324 C10.7291797,27.7827133 0.0577234457,21.9794324 0.0577234457,21.9794324 C0.0577234457,21.9794324 -1.59385149,11.2290159 12.7715644,3.68441197 C27.1369802,-3.86019196 38.3452412,2.51916616 38.3452412,2.51916616 Z" id="Path-37" stroke-width="2.2" stroke-linejoin="round"></path>
                    <path d="M6.87772026,15.9923343 C16.6840583,11.8004451 19.921343,8.07183736 36.2967345,3.41666667" id="Path-289" stroke-width="1.5"></path>
                </g>
                <path d="M41.4274769,2.5723118 C44.4545334,7.96068179 46.7689877,11.5007599 52.086341,18.9526803 C57.4036942,26.4046008 61.0603749,30.3926472 66.3381314,35.3330488" id="Path-290" stroke-width="1.5"></path>
                <path d="M36.970452,60.4975463 C48.8177647,65.7075872 59.1406719,67.3533239 72.5123902,76.1276689" id="Path-291" stroke-width="1.5"></path>
                <path d="M105.304255,3.37982372 C105.304255,3.37982372 106.44781,17.145418 119.285694,22.9948502 C132.123578,28.8442824 143.896259,22.9948502 143.896259,22.9948502 C143.896259,22.9948502 145.372827,10.9844271 130.893168,3.37982372 C116.413509,-4.22477965 105.304255,3.37982372 105.304255,3.37982372 Z" id="Path-37" stroke-width="2.2" stroke-linejoin="round"></path>
                <path d="M107.023685,3.41666667 C118.870998,8.62670754 129.945862,13.4297324 143.317581,22.2040775" id="Path-291" stroke-width="1.5"></path>
                <path d="M76.4593784,63.2854666 C85.1371868,44.7883742 89.6021104,41.8168296 98.2753385,33.1436015" id="Path-297" stroke-width="1.5"></path>
            </g>
        </g>
    </g>
</svg>