<?xml version="1.0" encoding="UTF-8"?>
<svg width="152px" height="152px" viewBox="0 0 152 152" version="1.1" xmlns="http://www.w3.org/2000/svg" xmlns:xlink="http://www.w3.org/1999/xlink">
    <!-- Generator: Sketch 44.1 (41455) - http://www.bohemiancoding.com/sketch -->
    <title>chilioil</title>
    <desc>Created with Sketch.</desc>
    <defs></defs>
    <g id="Page-1" stroke="none" stroke-width="1" fill="none" fill-rule="evenodd">
        <g id="chilioil" stroke="#FF0000">
            <g id="Group" transform="translate(48.000000, 1.000000)">
                <path d="M28.5564505,0.925348249 L20.3716127,0.925348249 C20.3716127,0.925348249 18.5656501,0.893470511 18.0220364,1.64391346 C17.4784227,2.3943564 17.5967529,4.75596199 17.5967529,4.75596199 L17.5967529,12.5982938 C17.5967529,12.5982938 18.4622153,13.2033772 18.4634623,13.8997458 C18.4647093,14.5961145 17.5866058,15.2268607 17.5892066,15.4130914 C17.6000245,16.1877366 17.6344621,16.9779714 17.724669,17.2589227 C17.9218177,17.8729462 19.0209292,18.0339191 19.0209292,18.0339191 C19.0209292,18.0339191 18.9129332,21.2708808 18.4634623,22.7908225 C18.0139914,24.3107642 16.621669,26.1473149 16.621669,26.1473149 L5.20262582,42.663248 C5.20262582,42.663248 2.6600661,46.0206045 1.53054776,49.0122137 C0.401029421,52.003823 0.401029421,57.7119412 0.401029421,57.7119412 L0.401029421,128.413655 C0.401029421,128.413655 0.0169128544,137.575121 5.20262582,143.709154 C10.3883388,149.843187 28.5564505,149.532386 28.5564505,149.532386 L29.2241755,149.532386" id="Path-621" stroke-width="2.2" stroke-linejoin="round"></path>
                <path d="M55.5564505,0.925348249 L47.3716127,0.925348249 C47.3716127,0.925348249 45.5656501,0.893470511 45.0220364,1.64391346 C44.4784227,2.3943564 44.5967529,4.75596199 44.5967529,4.75596199 L44.5967529,12.5982938 C44.5967529,12.5982938 45.4622153,13.2033772 45.4634623,13.8997458 C45.4647093,14.5961145 44.5866058,15.2268607 44.5892066,15.4130914 C44.6000245,16.1877366 44.6344621,16.9779714 44.724669,17.2589227 C44.9218177,17.8729462 46.0209292,18.0339191 46.0209292,18.0339191 C46.0209292,18.0339191 45.9129332,21.2708808 45.4634623,22.7908225 C45.0139914,24.3107642 43.621669,26.1473149 43.621669,26.1473149 L32.2026258,42.663248 C32.2026258,42.663248 29.6600661,46.0206045 28.5305478,49.0122137 C27.4010294,52.003823 27.4010294,57.7119412 27.4010294,57.7119412 L27.4010294,128.413655 C27.4010294,128.413655 27.0169129,137.575121 32.2026258,143.709154 C37.3883388,149.843187 55.5564505,149.532386 55.5564505,149.532386 L56.2241755,149.532386" id="Path-621" stroke-width="2.2" stroke-linejoin="round" transform="translate(41.809405, 75.230085) scale(-1, 1) translate(-41.809405, -75.230085) "></path>
                <path d="M18.4868243,12.9761473 L38.5220362,12.9770667" id="Path-622" stroke-width="2"></path>
                <path d="M0.934307764,58.719242 C0.934307764,58.719242 13.3299254,59.9915729 28.4293808,59.9915729 C43.5288361,59.9915729 55.9244537,58.719242 55.9244537,58.719242" id="Path-623" stroke-width="2"></path>
                <path d="M0.547290222,127.106136 C0.547290222,127.106136 12.9884068,130.959623 28.4225105,130.959623 C43.8566143,130.959623 56.2977309,127.106136 56.2977309,127.106136" id="Path-624" stroke-width="2"></path>
            </g>
            <g id="Group" transform="translate(76.500000, 94.500000) scale(-1, 1) translate(-76.500000, -94.500000) translate(58.000000, 76.000000)">
                <path d="M33.6983501,8.83647416 C23.3383523,2.06767962 24.2839851,9.8339419 20.0136765,17.0371023 C14.5075691,26.3248092 8.93099405,29.6029108 2.90489667,28.5719285" id="Path-414" stroke-width="2.2"></path>
                <path d="M3.0992622,28.6603618 C-0.462634541,27.1319528 -0.922500115,31.1303927 1.5554333,33.4078665 C5.84208658,37.3477384 10.4852543,37.5694831 16.1011888,36.2212791 C24.4048093,34.2278486 34.1688152,27.0509487 36.0593644,18.7126255 C36.4211884,17.1167902 36.9798849,10.6146163 33.5622981,8.75571293" id="Path-421" stroke-width="2.2"></path>
                <path d="M32.587156,7.91462527 C36.8462026,-8.32787912 36.0150783,4.86316197 33.4866376,8.56362955" id="Path-422" stroke-width="2.2"></path>
                <path d="M25.1376147,26.9005832 C25.1376147,26.9005832 29.8943003,22.613323 31.3186583,20.0635645 C32.7430163,17.5138059 32.2006984,14.2568807 32.2006984,14.2568807" id="Path-423" stroke-width="2" stroke-linecap="round"></path>
            </g>
        </g>
    </g>
</svg>