<?xml version="1.0" encoding="UTF-8"?>
<svg width="152px" height="152px" viewBox="0 0 152 152" version="1.1" xmlns="http://www.w3.org/2000/svg" xmlns:xlink="http://www.w3.org/1999/xlink">
    <!-- Generator: Sketch 44.1 (41455) - http://www.bohemiancoding.com/sketch -->
    <title>chives</title>
    <desc>Created with Sketch.</desc>
    <defs></defs>
    <g id="Page-1" stroke="none" stroke-width="1" fill="none" fill-rule="evenodd" stroke-linecap="round" stroke-linejoin="round">
        <g id="chives" stroke="#979797" stroke-width="2">
            <path d="M-10.4411176,106.103135 C-8.02956085,111.24905 29.7631039,91.4646357 61.4420738,77.4577196 C65.9061669,75.4839124 73.1238223,69.4518091 76.9087377,66.4886665 C80.2028807,63.9097409 93.0763595,54.3273262 107.901621,45.2226271 C122.726882,36.117928 140.896801,26.8833344 140.896801,26.8833344 C140.896801,26.8833344 106.665835,50.289532 76.185098,69.4032961 C45.7043609,88.5170601 5.52146874,111.883632 6.0414495,113.122341 C6.07680787,113.206573 52.5291505,87.4011584 55.0799689,85.2977832 C57.6307872,83.1944081 48.5974082,87.5754864 54.2919481,84.1487998 C82.9022197,66.9325824 114.39495,48.0784786 118.56411,46.1810644 C126.408763,42.6109081 144.496936,33.6062209 144.496936,33.6062209 C144.496936,33.6062209 124.489551,45.40929 113.225158,51.338997 C106.46148,54.8994756 93.7851539,63.3313773 84.3006959,69.1791193 C74.8162378,75.0268613 73.5714302,75.6578436 73.5714302,75.6578436 C73.5714302,75.6578436 117.111772,52.765401 134.046912,45.349911 C150.982053,37.934421 152.865049,37.934421 152.865049,37.934421 C152.865049,37.934421 -13.3809206,114.638594 -10.0922269,112.823181 C-8.32627913,111.848349 110.416797,62.5102911 128.928066,55.5464819 C147.439334,48.5826727 158.063877,44.8809506 158.063877,44.8809506 C158.063877,44.8809506 139.543248,52.4236509 131.145007,55.9373884 C122.746765,59.4511259 60.009827,81.3927852 60.009827,81.3927852 C60.009827,81.3927852 118.045418,62.8093234 126.766416,59.8007611 C135.487413,56.7921989 152.131504,52.0999016 152.131504,52.0999016 C152.131504,52.0999016 57.4443566,86.147039 61.5197099,84.8520366 C65.5950631,83.5570341 152.865049,61.1699045 152.865049,61.1699045 C152.865049,61.1699045 121.925108,68.9984086 106.824172,73.1506158 C85.9009505,78.9037393 82.6672154,80.171552 64.5844048,85.9674943 C55.5087891,88.8764306 2.54354828,124.197239 -1.29432836,124.164698 C-5.132205,124.132156 -3.71441328,121.946107 -3.71441328,121.946107 C-7.10433044,123.139651 74.9900375,79.1297307 73.5714302,75.6578436 C72.1528228,72.1859565 -11.1052496,104.685973 -10.4411176,106.103135 Z" id="Path-782" transform="translate(73.809404, 75.524027) rotate(-110.000000) translate(-73.809404, -75.524027) "></path>
        </g>
    </g>
</svg>