<?xml version="1.0" encoding="UTF-8"?>
<svg width="152px" height="152px" viewBox="0 0 152 152" version="1.1" xmlns="http://www.w3.org/2000/svg" xmlns:xlink="http://www.w3.org/1999/xlink">
    <!-- Generator: Sketch 44.1 (41455) - http://www.bohemiancoding.com/sketch -->
    <title>apple</title>
    <desc>Created with Sketch.</desc>
    <defs></defs>
    <g id="Page-1" stroke="none" stroke-width="1" fill="none" fill-rule="evenodd" stroke-linecap="round" stroke-linejoin="round">
        <g id="apple" stroke="#FE6577" stroke-width="2.4">
            <path d="M80.4670236,140.812605 C89.1447676,140.812605 99.7885708,152.486831 118.656954,136.800743 C137.525338,121.114656 139.853144,85.6374344 139.853144,85.6374344 C139.853144,85.6374344 141.595857,52.9982062 121.214117,40.8978299 C104.002317,30.6794064 77.0402874,44.6865292 72.5381701,47.9841533 C71.363138,48.8448181 79.5680367,44.0436813 79.5680367,44.0436813 C79.5680367,44.0436813 77.7270474,30.6353469 80.6655641,24.760127 C83.6040808,18.8849071 87.5512057,10.5939019 87.5512057,10.5939019 L80.3417,24.7395688 C80.3417,24.7395688 82.1330501,12.1587654 74.6702319,7.49232228 C67.2074136,2.82587914 49.3129806,10.5939019 49.3129806,10.5939019 C49.3129806,10.5939019 53.4732299,15.64024 59.280826,23.2147069 C65.088422,30.7891738 79.497395,25.8011794 79.497395,25.8011794 C79.497395,25.8011794 79.8502742,25.4223067 79.9173903,26.3342558 C79.9615284,26.9339879 79.8820776,28.0919844 79.497395,30.2831398 C78.5277664,35.8061525 79.5680367,44.0436813 79.5680367,44.0436813 C79.5680367,44.0436813 56.0762425,28.4671489 32.9267611,40.8978299 C9.77727969,53.3285108 13.1749715,87.933798 13.1749715,87.933798 C13.1749715,87.933798 14.153942,125.607524 37.0622005,138.868463 C59.9704591,152.129403 71.7892795,140.812605 80.4670236,140.812605 Z" id="Path-9" transform="translate(76.445155, 75.656103) scale(-1, 1) translate(-76.445155, -75.656103) "></path>
        </g>
    </g>
</svg>