<?xml version="1.0" encoding="UTF-8"?>
<svg width="152px" height="152px" viewBox="0 0 152 152" version="1.1" xmlns="http://www.w3.org/2000/svg" xmlns:xlink="http://www.w3.org/1999/xlink">
    <!-- Generator: Sketch 44.1 (41455) - http://www.bohemiancoding.com/sketch -->
    <title>clove</title>
    <desc>Created with Sketch.</desc>
    <defs></defs>
    <g id="Page-1" stroke="none" stroke-width="1" fill="none" fill-rule="evenodd">
        <g id="clove" stroke="#AD5D11" stroke-width="2.3">
            <g id="Group-3" transform="translate(7.000000, 1.000000)">
                <g id="Group" transform="translate(0.000000, 35.026065)" stroke-linecap="round" stroke-linejoin="round">
                    <path d="M2.71929825,35.2066116 C10.0588182,46.792812 23.5911748,50.5889893 29.5846465,63.2113071 C53.2066602,112.959529 38.920373,82.8815553 49.0870999,105.830869 C49.0870999,105.830869 62.1386671,106.901114 63.8135016,101.810232 C65.488336,96.7193504 44.5785174,49.1170052 44.5785174,44.011046 C44.5785174,41.3728266 48.9602252,33.9778944 51.7938038,26.6298274 C54.6273825,19.2817603 55.6526175,12.8513643 53.1138296,11.9678165 C47.8608659,10.1396826 45.7816934,28.2408468 40.7541367,29.6882765 C35.72658,31.1357063 29.7996568,20.310892 25.3194095,20.310892 C20.8391621,20.310892 24.7442069,35.6875804 19.7377586,37.0663988 C14.7313102,38.4452172 2.75307533,26.7512004 1.2136735,27.7131381 C-0.325728323,28.6750757 2.71929825,35.2066116 2.71929825,35.2066116 Z" id="Path-136"></path>
                    <path d="M6.79824561,30.1020683 C10.6795392,-1.20959482 25.9173077,-10.6764471 48.5205018,15.0510342" id="Path-142"></path>
                </g>
                <g id="Group-2" transform="translate(94.519511, 64.371490) rotate(-50.000000) translate(-94.519511, -64.371490) translate(39.519511, 30.871490)">
                    <path d="M80.4738653,7.90745522 C117.628488,17.552367 115.684449,19.2503367 95.6414302,50.3595" id="Path-141" stroke-linecap="round" stroke-linejoin="round"></path>
                    <path d="M59.4713702,47.6474963 C58.0794552,47.4136626 51.2883202,49.7409858 39.0979653,54.6294658 C29.0098601,58.4507593 19.5245908,64.6175561 8.83364949,66.093346 C2.42700442,66.9777268 -2.10393403,52.0171122 2.22785701,49.055209 C10.9292373,43.1055575 22.2279132,42.3292499 32.2279412,38.9662704 C32.2279412,38.9662704 39.9145683,36.3507492 43.8016209,34.3854678 C47.6886735,32.4201865 48.8988758,32.2290732 54.2879554,27.1819404 C59.677035,22.1348077 76.9078787,-3.58281922 80.1511792,1.54573104 C83.3944797,6.67428131 70.4698081,17.7130107 72.1689184,21.5834646 C73.8680287,25.4539185 84.1567995,24.6062429 85.5791252,30.1436486 C87.0014508,35.6810543 74.7192386,37.4488012 75.9451578,41.5224014 C77.171077,45.5960016 82.574549,48.074609 86.4431418,49.3114198 C90.3117347,50.5482306 98.3547614,50.4654301 98.9898242,52.1621772 C99.6248869,53.8589242 93.3921849,57.9979559 85.9230432,56.9211421 C78.4539015,55.8443283 61.5592426,47.9982468 59.4713702,47.6474963 Z" id="Path-137"></path>
                </g>
            </g>
        </g>
    </g>
</svg>