<?xml version="1.0" encoding="UTF-8"?>
<svg width="152px" height="152px" viewBox="0 0 152 152" version="1.1" xmlns="http://www.w3.org/2000/svg" xmlns:xlink="http://www.w3.org/1999/xlink">
    <!-- Generator: Sketch 44.1 (41455) - http://www.bohemiancoding.com/sketch -->
    <title>coffee</title>
    <desc>Created with Sketch.</desc>
    <defs></defs>
    <g id="Page-1" stroke="none" stroke-width="1" fill="none" fill-rule="evenodd">
        <g id="coffee" stroke="#AD5D11">
            <g id="Group" transform="translate(9.000000, -5.000000)">
                <path d="M92.8484671,9.85744432 C59.948306,17.1854969 79.7065376,60.0832647 107.243664,58.3338419 C139.04809,56.313319 127.371286,11.7835937 96.5596793,9.60992895 C96.5596793,9.60992895 95.3058983,9.56786334 94.6751722,9.60992895 C94.0444461,9.65199456 92.8484671,9.85744432 92.8484671,9.85744432 Z" id="Path-298" stroke-width="2.2" transform="translate(100.898753, 33.988553) rotate(150.000000) translate(-100.898753, -33.988553) "></path>
                <path d="M84.7281663,88.2713846 C51.8280053,95.5994371 71.5862369,138.497205 99.1233629,136.747782 C130.92779,134.727259 119.250985,90.197534 88.4393786,88.0238692 C88.4393786,88.0238692 87.1855976,87.9818036 86.5548714,88.0238692 C85.9241453,88.0659348 84.7281663,88.2713846 84.7281663,88.2713846 Z" id="Path-298" stroke-width="2.2" transform="translate(92.778453, 112.402493) rotate(150.000000) translate(-92.778453, -112.402493) "></path>
                <path d="M26.5661296,33.159363 C-6.36377846,40.4940412 13.4123177,83.4305955 40.9743416,81.6795909 C72.8075247,79.6572412 61.1201622,35.0872539 30.2806973,32.9116238 C30.2806973,32.9116238 29.0257827,32.8695202 28.3944863,32.9116238 C27.7631899,32.9537275 26.5661296,33.159363 26.5661296,33.159363 Z" id="Path-298" stroke-width="2.2"></path>
                <path d="M17.181302,101.224797 C-15.748606,108.559475 4.02749012,151.496029 31.589514,149.745025 C63.4226971,147.722675 51.7353346,103.152688 20.8958697,100.977058 C20.8958697,100.977058 19.6409551,100.934954 19.0096587,100.977058 C18.3783623,101.019161 17.181302,101.224797 17.181302,101.224797 Z" id="Path-298" stroke-width="2.2"></path>
                <path d="M10.557931,110.346681 C10.557931,110.346681 17.8708009,114.938584 22.0846688,119.566776 C25.9815334,123.846795 25.4046824,128.650117 28.2637433,132.890825 C31.1228043,137.131533 39.4051762,141.628912 39.4051762,141.628912 C39.4051762,141.628912 32.0286716,135.194509 29.6065586,129.412959 C27.1844455,123.63141 27.0846202,119.565419 24.6829531,117.172533 C18.9871746,111.49758 10.557931,110.346681 10.557931,110.346681 Z" id="Path-364" stroke-width="1.5" stroke-linecap="round" stroke-linejoin="round"></path>
                <path d="M82.2853931,15.7892255 C82.2853931,15.7892255 91.3876423,21.5047176 96.6325977,27.2653769 C101.482983,32.5926699 100.764982,38.5713126 104.323624,43.8496758 C107.882266,49.128039 118.191244,54.7258771 118.191244,54.7258771 C118.191244,54.7258771 109.009789,46.7170463 105.995012,39.5208144 C102.980234,32.3245825 102.855983,27.2636883 99.8666538,24.2852892 C92.7771805,17.2217369 82.2853931,15.7892255 82.2853931,15.7892255 Z" id="Path-364" stroke-width="1.5" stroke-linecap="round" stroke-linejoin="round" transform="translate(100.238319, 35.257551) rotate(320.000000) translate(-100.238319, -35.257551) "></path>
                <path d="M77.7897179,97.0575495 C77.7897179,97.0575495 85.6284466,101.979651 90.1453282,106.940649 C94.3224112,111.528439 93.7040796,116.677162 96.7687319,121.222814 C99.8333841,125.768465 108.71133,130.589245 108.71133,130.589245 C108.71133,130.589245 100.804391,123.692153 98.2081072,117.494859 C95.6118231,111.297566 95.5048196,106.939195 92.9304517,104.37424 C86.8250973,98.2912081 77.7897179,97.0575495 77.7897179,97.0575495 Z" id="Path-364" stroke-width="1.5" stroke-linecap="round" stroke-linejoin="round" transform="translate(93.250524, 113.823397) rotate(130.000000) translate(-93.250524, -113.823397) "></path>
                <path d="M16.9346568,37.5 C16.9346568,37.5 25.3074757,42.7574676 30.1321141,48.0564828 C34.5938018,52.9568605 33.9333403,58.4563905 37.206802,63.3117595 C40.4802638,68.1671286 49.9631072,73.3163707 49.9631072,73.3163707 C49.9631072,73.3163707 41.5174302,65.9493465 38.7442489,59.3298017 C35.9710676,52.710257 35.8567733,48.0549295 33.1070015,45.3152115 C26.5856599,38.8177137 16.9346568,37.5 16.9346568,37.5 Z" id="Path-364" stroke-width="1.5" stroke-linecap="round" stroke-linejoin="round" transform="translate(33.448882, 55.408185) rotate(180.000000) translate(-33.448882, -55.408185) "></path>
            </g>
        </g>
    </g>
</svg>