<svg xmlns="http://www.w3.org/2000/svg" viewBox="0 0 32 32">
  <circle cx="16" cy="16" r="14" fill="#FAF9F6" stroke="#D97757" stroke-width="2"/>
  <path d="M16 4 A12 12 0 0 1 27.4 10.5 L16 16 Z" fill="#F59E0B" opacity="0.8"/>
  <path d="M27.4 10.5 A12 12 0 0 1 27.4 21.5 L16 16 Z" fill="#B91C1C" opacity="0.8"/>
  <path d="M27.4 21.5 A12 12 0 0 1 20.9 27.4 L16 16 Z" fill="#CA8A04" opacity="0.8"/>
  <path d="M20.9 27.4 A12 12 0 0 1 11.1 27.4 L16 16 Z" fill="#65A30D" opacity="0.8"/>
  <path d="M11.1 27.4 A12 12 0 0 1 4.6 21.5 L16 16 Z" fill="#DB2777" opacity="0.8"/>
  <path d="M4.6 21.5 A12 12 0 0 1 4.6 10.5 L16 16 Z" fill="#9333EA" opacity="0.8"/>
  <path d="M4.6 10.5 A12 12 0 0 1 16 4 L16 16 Z" fill="#16A34A" opacity="0.8"/>
  <circle cx="16" cy="16" r="4" fill="#D97757"/>
</svg>
